<svg xmlns="http://www.w3.org/2000/svg" width="298" height="199" viewBox="0 0 298 199">
  <g id="Grupo_949286" data-name="Grupo 949286" transform="translate(-5858.361 8523.002)">
    <g id="Grupo_949285" data-name="Grupo 949285" transform="translate(5858.361 -8324.002)">
      <path id="Trazado_623391" data-name="Trazado 623391" d="M.75-190.85a7.4,7.4,0,0,1,7.4-7.4h108.7a7.4,7.4,0,0,1,7.4,7.4v59.2a7.4,7.4,0,0,1-7.4,7.4H8.15a7.4,7.4,0,0,1-7.4-7.4Z" fill="#efa691" fill-rule="evenodd"/>
      <g id="Grupo_949270" data-name="Grupo 949270" transform="translate(0.75 -198.25)">
        <path id="Trazado_623392" data-name="Trazado 623392" d="M0,7.4A7.4,7.4,0,0,1,7.4,0H116.1a7.4,7.4,0,0,1,7.4,7.4V66.6a7.4,7.4,0,0,1-7.4,7.4H7.4A7.4,7.4,0,0,1,0,66.6Z" fill="none" stroke="#fff" stroke-miterlimit="8" stroke-width="1.5"/>
      </g>
      <path id="Trazado_623393" data-name="Trazado 623393" d="M134.5-170.8h13.25V-177L161-161.5,147.75-146v-6.2H134.5Z" fill="#ff5422" fill-rule="evenodd"/>
      <path id="Trazado_623394" data-name="Trazado 623394" d="M173.75-190.85a7.4,7.4,0,0,1,7.4-7.4h108.7a7.4,7.4,0,0,1,7.4,7.4v59.2a7.4,7.4,0,0,1-7.4,7.4H181.15a7.4,7.4,0,0,1-7.4-7.4Z" fill="#95a0b9" fill-rule="evenodd"/>
      <g id="Grupo_949276" data-name="Grupo 949276" transform="translate(173.75 -198.25)">
        <path id="Trazado_623395" data-name="Trazado 623395" d="M0,7.4A7.4,7.4,0,0,1,7.4,0H116.1a7.4,7.4,0,0,1,7.4,7.4V66.6a7.4,7.4,0,0,1-7.4,7.4H7.4A7.4,7.4,0,0,1,0,66.6Z" fill="none" stroke="#fff" stroke-miterlimit="8" stroke-width="1.5"/>
      </g>
      <path id="Trazado_623396" data-name="Trazado 623396" d="M244.3-113.5v13h6.2L235-87.5l-15.5-13h6.2v-13Z" fill="#262f43" fill-rule="evenodd"/>
      <path id="Trazado_623397" data-name="Trazado 623397" d="M173.75-67.35a7.4,7.4,0,0,1,7.4-7.4h108.7a7.4,7.4,0,0,1,7.4,7.4v59.2a7.4,7.4,0,0,1-7.4,7.4H181.15a7.4,7.4,0,0,1-7.4-7.4Z" fill="#a4a4a4" fill-rule="evenodd"/>
      <g id="Grupo_949278" data-name="Grupo 949278" transform="translate(173.75 -74.75)">
        <path id="Trazado_623398" data-name="Trazado 623398" d="M0,7.4A7.4,7.4,0,0,1,7.4,0H116.1a7.4,7.4,0,0,1,7.4,7.4V66.6a7.4,7.4,0,0,1-7.4,7.4H7.4A7.4,7.4,0,0,1,0,66.6Z" fill="none" stroke="#fff" stroke-miterlimit="8" stroke-width="1.5"/>
      </g>
      <path id="Trazado_623399" data-name="Trazado 623399" d="M162.5-28.6H149.25v6.1L136-37.75,149.25-53v6.1H162.5Z" fill="#a4a4a4" fill-rule="evenodd"/>
      <path id="Trazado_623400" data-name="Trazado 623400" d="M.75-67.35a7.4,7.4,0,0,1,7.4-7.4h108.7a7.4,7.4,0,0,1,7.4,7.4v59.2a7.4,7.4,0,0,1-7.4,7.4H8.15a7.4,7.4,0,0,1-7.4-7.4Z" fill="#77aae3" fill-rule="evenodd"/>
      <g id="Grupo_949281" data-name="Grupo 949281" transform="translate(0.75 -74.75)">
        <path id="Trazado_623401" data-name="Trazado 623401" d="M0,7.4A7.4,7.4,0,0,1,7.4,0H116.1a7.4,7.4,0,0,1,7.4,7.4V66.6a7.4,7.4,0,0,1-7.4,7.4H7.4A7.4,7.4,0,0,1,0,66.6Z" fill="none" stroke="#fff" stroke-miterlimit="8" stroke-width="1.5"/>
      </g>
    </g>
    <path id="Trazado_623509" data-name="Trazado 623509" d="M6.513,7.632a2.516,2.516,0,0,1-.847,1.807,2.975,2.975,0,0,1-2.014.659A2.675,2.675,0,0,1,1.5,9.177,3.774,3.774,0,0,1,.717,6.65V6.216a4.262,4.262,0,0,1,.361-1.807,2.708,2.708,0,0,1,1.033-1.2,2.893,2.893,0,0,1,1.56-.417,2.9,2.9,0,0,1,1.982.659A2.7,2.7,0,0,1,6.523,5.3H5.058a1.485,1.485,0,0,0-.383-1,1.419,1.419,0,0,0-1-.31,1.245,1.245,0,0,0-1.1.525A2.942,2.942,0,0,0,2.2,6.147v.537a3.148,3.148,0,0,0,.349,1.685,1.222,1.222,0,0,0,1.1.532,1.446,1.446,0,0,0,1.013-.31,1.4,1.4,0,0,0,.383-.959ZM10.444,10a1.567,1.567,0,0,1-.142-.474,1.707,1.707,0,0,1-1.333.571,1.876,1.876,0,0,1-1.287-.449,1.445,1.445,0,0,1-.51-1.133,1.493,1.493,0,0,1,.623-1.289,3.072,3.072,0,0,1,1.8-.454h.649v-.3a.871.871,0,0,0-.188-.586.74.74,0,0,0-.593-.22.841.841,0,0,0-.559.171.581.581,0,0,0-.2.469H7.29a1.417,1.417,0,0,1,.283-.85,1.872,1.872,0,0,1,.8-.613,2.918,2.918,0,0,1,1.162-.222,2.306,2.306,0,0,1,1.55.491,1.717,1.717,0,0,1,.574,1.379v2.29a2.526,2.526,0,0,0,.21,1.138V10ZM9.277,9.019a1.215,1.215,0,0,0,.576-.139.914.914,0,0,0,.391-.374V7.6H9.716q-1.06,0-1.128.732l0,.083a.565.565,0,0,0,.186.435A.721.721,0,0,0,9.277,9.019ZM17.5,7.407a3.169,3.169,0,0,1-.554,1.956,1.777,1.777,0,0,1-1.5.735,1.646,1.646,0,0,1-1.294-.557v2.49H12.744V4.717h1.309l.049.518a1.659,1.659,0,0,1,1.338-.615,1.789,1.789,0,0,1,1.519.723A3.254,3.254,0,0,1,17.5,7.334Zm-1.411-.1a2.079,2.079,0,0,0-.261-1.138.851.851,0,0,0-.759-.4.924.924,0,0,0-.913.508V8.438a.94.94,0,0,0,.923.522Q16.088,8.96,16.088,7.3ZM21.435,10a1.567,1.567,0,0,1-.142-.474,1.707,1.707,0,0,1-1.333.571,1.876,1.876,0,0,1-1.287-.449,1.445,1.445,0,0,1-.51-1.133,1.493,1.493,0,0,1,.623-1.289,3.072,3.072,0,0,1,1.8-.454h.649v-.3a.871.871,0,0,0-.188-.586.74.74,0,0,0-.593-.22.841.841,0,0,0-.559.171.581.581,0,0,0-.2.469H18.281a1.417,1.417,0,0,1,.283-.85,1.872,1.872,0,0,1,.8-.613,2.918,2.918,0,0,1,1.162-.222,2.306,2.306,0,0,1,1.55.491,1.717,1.717,0,0,1,.574,1.379v2.29a2.526,2.526,0,0,0,.21,1.138V10Zm-1.167-.981a1.215,1.215,0,0,0,.576-.139.914.914,0,0,0,.391-.374V7.6h-.527q-1.06,0-1.128.732l0,.083a.565.565,0,0,0,.186.435A.721.721,0,0,0,20.268,9.019Zm5.664-.059a.926.926,0,0,0,.635-.215.753.753,0,0,0,.254-.571h1.323a1.81,1.81,0,0,1-.293.984,1.933,1.933,0,0,1-.789.693,2.468,2.468,0,0,1-1.106.247,2.294,2.294,0,0,1-1.787-.72,2.85,2.85,0,0,1-.654-1.99V7.295a2.817,2.817,0,0,1,.649-1.948,2.267,2.267,0,0,1,1.782-.728,2.222,2.222,0,0,1,1.589.564,2,2,0,0,1,.608,1.5H26.821a.97.97,0,0,0-.254-.67.944.944,0,0,0-1.389.1,2.083,2.083,0,0,0-.251,1.166v.147A2.109,2.109,0,0,0,25.175,8.6.861.861,0,0,0,25.932,8.96ZM30.439,10H29.023V4.717h1.416Zm-1.5-6.65a.7.7,0,0,1,.212-.522.915.915,0,0,1,1.155,0,.691.691,0,0,1,.215.522.693.693,0,0,1-.217.527.905.905,0,0,1-1.147,0A.693.693,0,0,1,28.94,3.35Zm2.441,3.97a3.184,3.184,0,0,1,.554-1.968,1.8,1.8,0,0,1,1.516-.732,1.618,1.618,0,0,1,1.274.576V2.5h1.416V10H34.868L34.8,9.438a1.661,1.661,0,0,1-1.357.659,1.793,1.793,0,0,1-1.5-.735A3.286,3.286,0,0,1,31.381,7.319Zm1.411.105a2.086,2.086,0,0,0,.259,1.139.843.843,0,0,0,.752.4.944.944,0,0,0,.923-.553V6.319a.931.931,0,0,0-.913-.553Q32.792,5.767,32.792,7.424ZM40.3,10a1.567,1.567,0,0,1-.142-.474,1.707,1.707,0,0,1-1.333.571,1.876,1.876,0,0,1-1.287-.449,1.445,1.445,0,0,1-.51-1.133,1.493,1.493,0,0,1,.623-1.289,3.072,3.072,0,0,1,1.8-.454H40.1v-.3a.871.871,0,0,0-.188-.586.74.74,0,0,0-.593-.22.841.841,0,0,0-.559.171.581.581,0,0,0-.2.469H37.143a1.418,1.418,0,0,1,.283-.85,1.872,1.872,0,0,1,.8-.613,2.918,2.918,0,0,1,1.162-.222,2.306,2.306,0,0,1,1.55.491,1.717,1.717,0,0,1,.574,1.379v2.29a2.526,2.526,0,0,0,.21,1.138V10ZM39.13,9.019a1.215,1.215,0,0,0,.576-.139.914.914,0,0,0,.391-.374V7.6H39.57q-1.06,0-1.128.732l0,.083a.565.565,0,0,0,.186.435A.721.721,0,0,0,39.13,9.019Zm3.247-1.7a3.184,3.184,0,0,1,.554-1.968,1.8,1.8,0,0,1,1.516-.732,1.618,1.618,0,0,1,1.274.576V2.5h1.416V10H45.864L45.8,9.438a1.661,1.661,0,0,1-1.357.659,1.793,1.793,0,0,1-1.5-.735A3.286,3.286,0,0,1,42.377,7.319Zm1.411.105a2.086,2.086,0,0,0,.259,1.139.843.843,0,0,0,.752.4.944.944,0,0,0,.923-.553V6.319a.931.931,0,0,0-.913-.553Q43.789,5.767,43.789,7.424ZM50.5,7.319a3.184,3.184,0,0,1,.554-1.968,1.8,1.8,0,0,1,1.516-.732,1.618,1.618,0,0,1,1.274.576V2.5h1.416V10H53.989l-.068-.562a1.661,1.661,0,0,1-1.357.659,1.793,1.793,0,0,1-1.5-.735A3.286,3.286,0,0,1,50.5,7.319Zm1.411.105a2.086,2.086,0,0,0,.259,1.139.843.843,0,0,0,.752.4.944.944,0,0,0,.923-.553V6.319a.931.931,0,0,0-.913-.553Q51.914,5.767,51.914,7.424ZM58.789,10.1A2.594,2.594,0,0,1,56.9,9.385a2.534,2.534,0,0,1-.73-1.9V7.349a3.192,3.192,0,0,1,.308-1.423,2.258,2.258,0,0,1,.872-.967,2.446,2.446,0,0,1,1.287-.339,2.193,2.193,0,0,1,1.707.684,2.778,2.778,0,0,1,.623,1.938v.576H57.6a1.311,1.311,0,0,0,.413.83,1.247,1.247,0,0,0,.872.313,1.523,1.523,0,0,0,1.274-.591l.693.776a2.118,2.118,0,0,1-.859.7A2.819,2.819,0,0,1,58.789,10.1Zm-.161-4.341a.882.882,0,0,0-.681.284,1.473,1.473,0,0,0-.334.814h1.963V6.743a1.051,1.051,0,0,0-.254-.728A.91.91,0,0,0,58.627,5.757Zm10.381,1.65a3.169,3.169,0,0,1-.554,1.956,1.777,1.777,0,0,1-1.5.735,1.646,1.646,0,0,1-1.294-.557v2.49H64.252V4.717h1.309l.049.518a1.658,1.658,0,0,1,1.338-.615,1.789,1.789,0,0,1,1.519.723,3.254,3.254,0,0,1,.542,1.992ZM67.6,7.3a2.079,2.079,0,0,0-.261-1.138.851.851,0,0,0-.759-.4.924.924,0,0,0-.913.508V8.438a.94.94,0,0,0,.923.522Q67.6,8.96,67.6,7.3ZM72.851,6.04A3.834,3.834,0,0,0,72.343,6a1.034,1.034,0,0,0-1.05.542V10H69.882V4.717h1.333l.039.63a1.308,1.308,0,0,1,1.177-.728,1.479,1.479,0,0,1,.439.063Zm.283,1.27a3.133,3.133,0,0,1,.3-1.4,2.216,2.216,0,0,1,.872-.952,2.543,2.543,0,0,1,1.321-.337,2.406,2.406,0,0,1,1.746.654,2.626,2.626,0,0,1,.754,1.777l.01.361a2.761,2.761,0,0,1-.679,1.951,2.631,2.631,0,0,1-3.645,0,2.81,2.81,0,0,1-.681-1.992Zm1.411.1a1.975,1.975,0,0,0,.283,1.152,1.017,1.017,0,0,0,1.611,0,2.161,2.161,0,0,0,.288-1.259,1.955,1.955,0,0,0-.288-1.144.936.936,0,0,0-.811-.406.921.921,0,0,0-.8.4A2.2,2.2,0,0,0,74.545,7.41Zm4.258-.09a3.1,3.1,0,0,1,.579-1.958,1.875,1.875,0,0,1,1.56-.742,1.644,1.644,0,0,1,1.353.6l.059-.5h1.279V9.824a2.258,2.258,0,0,1-.315,1.206,2.023,2.023,0,0,1-.886.781,3.115,3.115,0,0,1-1.338.269,2.9,2.9,0,0,1-1.133-.232,2.011,2.011,0,0,1-.835-.6l.625-.859a1.653,1.653,0,0,0,1.279.591,1.21,1.21,0,0,0,.874-.3,1.126,1.126,0,0,0,.313-.852V9.546a1.632,1.632,0,0,1-1.284.552,1.87,1.87,0,0,1-1.541-.745A3.1,3.1,0,0,1,78.8,7.378Zm1.411.105A1.928,1.928,0,0,0,80.5,8.552a.916.916,0,0,0,.791.408.98.98,0,0,0,.923-.484V6.251a.978.978,0,0,0-.913-.484.922.922,0,0,0-.8.416A2.173,2.173,0,0,0,80.214,7.424ZM87.685,6.04A3.834,3.834,0,0,0,87.177,6a1.034,1.034,0,0,0-1.05.542V10H84.716V4.717h1.333l.039.63a1.308,1.308,0,0,1,1.177-.728,1.479,1.479,0,0,1,.439.063ZM91.279,10a1.567,1.567,0,0,1-.142-.474A1.707,1.707,0,0,1,89.8,10.1a1.876,1.876,0,0,1-1.287-.449,1.445,1.445,0,0,1-.51-1.133,1.493,1.493,0,0,1,.623-1.289,3.072,3.072,0,0,1,1.8-.454h.649v-.3a.871.871,0,0,0-.188-.586.74.74,0,0,0-.593-.22.841.841,0,0,0-.559.171.581.581,0,0,0-.2.469H88.125a1.417,1.417,0,0,1,.283-.85,1.872,1.872,0,0,1,.8-.613,2.918,2.918,0,0,1,1.162-.222,2.306,2.306,0,0,1,1.55.491,1.717,1.717,0,0,1,.574,1.379v2.29a2.526,2.526,0,0,0,.21,1.138V10Zm-1.167-.981a1.215,1.215,0,0,0,.576-.139.914.914,0,0,0,.391-.374V7.6h-.527q-1.06,0-1.128.732l0,.083a.565.565,0,0,0,.186.435A.721.721,0,0,0,90.112,9.019Zm4.79-4.3.044.591a1.857,1.857,0,0,1,1.519-.688,1.409,1.409,0,0,1,1.4.806,1.814,1.814,0,0,1,1.587-.806,1.576,1.576,0,0,1,1.279.5,2.3,2.3,0,0,1,.42,1.506V10H99.736V6.631a1.006,1.006,0,0,0-.176-.657.779.779,0,0,0-.62-.208.881.881,0,0,0-.879.605l0,3.628H96.655V6.636a.994.994,0,0,0-.181-.664.787.787,0,0,0-.615-.205.914.914,0,0,0-.869.5V10H93.579V4.717ZM105.3,10a1.567,1.567,0,0,1-.142-.474,1.707,1.707,0,0,1-1.333.571,1.876,1.876,0,0,1-1.287-.449,1.445,1.445,0,0,1-.51-1.133,1.493,1.493,0,0,1,.623-1.289,3.072,3.072,0,0,1,1.8-.454h.649v-.3a.871.871,0,0,0-.188-.586.74.74,0,0,0-.593-.22.841.841,0,0,0-.559.171.581.581,0,0,0-.2.469h-1.411a1.417,1.417,0,0,1,.283-.85,1.872,1.872,0,0,1,.8-.613,2.918,2.918,0,0,1,1.162-.222,2.306,2.306,0,0,1,1.55.491,1.717,1.717,0,0,1,.574,1.379v2.29a2.526,2.526,0,0,0,.21,1.138V10Zm-1.167-.981a1.215,1.215,0,0,0,.576-.139.914.914,0,0,0,.391-.374V7.6h-.527q-1.06,0-1.128.732l0,.083a.565.565,0,0,0,.186.435A.721.721,0,0,0,104.13,9.019Zm6.436-2.979A3.834,3.834,0,0,0,110.058,6a1.034,1.034,0,0,0-1.05.542V10H107.6V4.717h1.333l.039.63a1.308,1.308,0,0,1,1.177-.728,1.479,1.479,0,0,1,.439.063ZM5.28,22a1.567,1.567,0,0,1-.142-.474,1.707,1.707,0,0,1-1.333.571,1.876,1.876,0,0,1-1.287-.449,1.445,1.445,0,0,1-.51-1.133,1.493,1.493,0,0,1,.623-1.289,3.072,3.072,0,0,1,1.8-.454H5.08v-.3a.871.871,0,0,0-.188-.586.74.74,0,0,0-.593-.22.841.841,0,0,0-.559.171.581.581,0,0,0-.2.469H2.126a1.417,1.417,0,0,1,.283-.85,1.872,1.872,0,0,1,.8-.613,2.918,2.918,0,0,1,1.162-.222,2.306,2.306,0,0,1,1.55.491A1.717,1.717,0,0,1,6.5,18.489v2.29a2.526,2.526,0,0,0,.21,1.138V22Zm-1.167-.981a1.215,1.215,0,0,0,.576-.139.914.914,0,0,0,.391-.374V19.6H4.553q-1.06,0-1.128.732l0,.083a.565.565,0,0,0,.186.435A.721.721,0,0,0,4.113,21.019Zm5.664-.059a.926.926,0,0,0,.635-.215.753.753,0,0,0,.254-.571h1.323a1.81,1.81,0,0,1-.293.984,1.933,1.933,0,0,1-.789.693A2.468,2.468,0,0,1,9.8,22.1a2.294,2.294,0,0,1-1.787-.72,2.85,2.85,0,0,1-.654-1.99v-.093a2.817,2.817,0,0,1,.649-1.948,2.267,2.267,0,0,1,1.782-.728,2.222,2.222,0,0,1,1.589.564,2,2,0,0,1,.608,1.5H10.666a.97.97,0,0,0-.254-.67.944.944,0,0,0-1.389.1,2.083,2.083,0,0,0-.251,1.166v.147A2.109,2.109,0,0,0,9.021,20.6.861.861,0,0,0,9.777,20.96Zm5.215,0a.926.926,0,0,0,.635-.215.753.753,0,0,0,.254-.571H17.2a1.81,1.81,0,0,1-.293.984,1.933,1.933,0,0,1-.789.693,2.468,2.468,0,0,1-1.106.247,2.294,2.294,0,0,1-1.787-.72,2.85,2.85,0,0,1-.654-1.99v-.093a2.817,2.817,0,0,1,.649-1.948,2.267,2.267,0,0,1,1.782-.728,2.222,2.222,0,0,1,1.589.564,2,2,0,0,1,.608,1.5H15.881a.97.97,0,0,0-.254-.67.944.944,0,0,0-1.389.1,2.083,2.083,0,0,0-.251,1.166v.147a2.109,2.109,0,0,0,.249,1.174A.861.861,0,0,0,14.992,20.96ZM19.5,22H18.083V16.717H19.5ZM18,15.35a.7.7,0,0,1,.212-.522.915.915,0,0,1,1.155,0,.746.746,0,0,1,0,1.05.905.905,0,0,1-1.147,0A.693.693,0,0,1,18,15.35Zm2.441,3.96a3.133,3.133,0,0,1,.3-1.4,2.216,2.216,0,0,1,.872-.952,2.543,2.543,0,0,1,1.321-.337,2.406,2.406,0,0,1,1.746.654,2.626,2.626,0,0,1,.754,1.777l.01.361a2.761,2.761,0,0,1-.679,1.951,2.631,2.631,0,0,1-3.645,0,2.81,2.81,0,0,1-.681-1.992Zm1.411.1a1.975,1.975,0,0,0,.283,1.152,1.017,1.017,0,0,0,1.611,0,2.161,2.161,0,0,0,.288-1.259,1.955,1.955,0,0,0-.288-1.144.936.936,0,0,0-.811-.406.921.921,0,0,0-.8.4A2.2,2.2,0,0,0,21.853,19.41Zm5.762-2.693.044.61a1.845,1.845,0,0,1,1.519-.708,1.533,1.533,0,0,1,1.25.493,2.3,2.3,0,0,1,.42,1.475V22H29.436V18.621a.915.915,0,0,0-.2-.652.874.874,0,0,0-.649-.2.971.971,0,0,0-.894.508V22H26.286V16.717ZM34.348,22.1a2.594,2.594,0,0,1-1.892-.713,2.534,2.534,0,0,1-.73-1.9v-.137a3.192,3.192,0,0,1,.308-1.423,2.258,2.258,0,0,1,.872-.967,2.446,2.446,0,0,1,1.287-.339A2.193,2.193,0,0,1,35.9,17.3a2.778,2.778,0,0,1,.623,1.938v.576H33.156a1.311,1.311,0,0,0,.413.83,1.247,1.247,0,0,0,.872.313,1.523,1.523,0,0,0,1.274-.591l.693.776a2.118,2.118,0,0,1-.859.7A2.819,2.819,0,0,1,34.348,22.1Zm-.161-4.341a.882.882,0,0,0-.681.284,1.473,1.473,0,0,0-.334.814h1.963v-.113a1.051,1.051,0,0,0-.254-.728A.91.91,0,0,0,34.187,17.757Zm6,2.783a.455.455,0,0,0-.256-.408,2.912,2.912,0,0,0-.823-.266q-1.885-.4-1.885-1.6A1.452,1.452,0,0,1,37.8,17.09a2.354,2.354,0,0,1,1.526-.471,2.533,2.533,0,0,1,1.609.474,1.493,1.493,0,0,1,.6,1.23H40.129a.683.683,0,0,0-.2-.5.827.827,0,0,0-.61-.2.845.845,0,0,0-.552.161.509.509,0,0,0-.2.41.435.435,0,0,0,.222.378,2.285,2.285,0,0,0,.75.249,6.122,6.122,0,0,1,.889.237,1.46,1.46,0,0,1,1.118,1.421,1.378,1.378,0,0,1-.62,1.169,2.675,2.675,0,0,1-1.6.447,2.794,2.794,0,0,1-1.179-.237,1.978,1.978,0,0,1-.808-.649,1.509,1.509,0,0,1-.293-.891h1.338a.737.737,0,0,0,.278.576,1.1,1.1,0,0,0,.693.2,1.022,1.022,0,0,0,.613-.154A.479.479,0,0,0,40.183,20.54ZM46.926,20l.977-3.286h1.514l-2.124,6.1-.117.278a1.61,1.61,0,0,1-1.562,1.035,2.22,2.22,0,0,1-.625-.093V22.972l.215,0a1.161,1.161,0,0,0,.6-.122.8.8,0,0,0,.31-.405l.166-.435-1.851-5.3h1.519Zm6.914-2.71a1.761,1.761,0,0,1,1.411-.674q1.719,0,1.743,2V22H55.583V18.655a.982.982,0,0,0-.2-.671.837.837,0,0,0-.649-.217.96.96,0,0,0-.9.479V22H52.429V14.5H53.84ZM61.12,22a1.567,1.567,0,0,1-.142-.474,1.707,1.707,0,0,1-1.333.571,1.876,1.876,0,0,1-1.287-.449,1.445,1.445,0,0,1-.51-1.133,1.493,1.493,0,0,1,.623-1.289,3.072,3.072,0,0,1,1.8-.454h.649v-.3a.871.871,0,0,0-.188-.586.74.74,0,0,0-.593-.22.841.841,0,0,0-.559.171.581.581,0,0,0-.2.469H57.966a1.418,1.418,0,0,1,.283-.85,1.872,1.872,0,0,1,.8-.613,2.918,2.918,0,0,1,1.162-.222,2.306,2.306,0,0,1,1.55.491,1.717,1.717,0,0,1,.574,1.379v2.29a2.526,2.526,0,0,0,.21,1.138V22Zm-1.167-.981a1.215,1.215,0,0,0,.576-.139.914.914,0,0,0,.391-.374V19.6h-.527q-1.06,0-1.128.732l0,.083a.565.565,0,0,0,.186.435A.721.721,0,0,0,59.953,21.019Zm5.664-.059a.926.926,0,0,0,.635-.215.753.753,0,0,0,.254-.571h1.323a1.81,1.81,0,0,1-.293.984,1.933,1.933,0,0,1-.789.693,2.468,2.468,0,0,1-1.106.247,2.294,2.294,0,0,1-1.787-.72,2.85,2.85,0,0,1-.654-1.99v-.093a2.817,2.817,0,0,1,.649-1.948,2.267,2.267,0,0,1,1.782-.728,2.222,2.222,0,0,1,1.589.564,2,2,0,0,1,.608,1.5H66.506a.97.97,0,0,0-.254-.67.944.944,0,0,0-1.389.1,2.083,2.083,0,0,0-.251,1.166v.147A2.109,2.109,0,0,0,64.86,20.6.861.861,0,0,0,65.617,20.96ZM71.066,22.1a2.594,2.594,0,0,1-1.892-.713,2.534,2.534,0,0,1-.73-1.9v-.137a3.192,3.192,0,0,1,.308-1.423,2.258,2.258,0,0,1,.872-.967,2.446,2.446,0,0,1,1.287-.339,2.193,2.193,0,0,1,1.707.684,2.778,2.778,0,0,1,.623,1.938v.576H69.875a1.311,1.311,0,0,0,.413.83,1.247,1.247,0,0,0,.872.313,1.523,1.523,0,0,0,1.274-.591l.693.776a2.118,2.118,0,0,1-.859.7A2.819,2.819,0,0,1,71.066,22.1Zm-.161-4.341a.882.882,0,0,0-.681.284,1.473,1.473,0,0,0-.334.814h1.963v-.113a1.051,1.051,0,0,0-.254-.728A.91.91,0,0,0,70.905,17.757Zm6.1.283A3.834,3.834,0,0,0,76.5,18a1.034,1.034,0,0,0-1.05.542V22H74.04V16.717h1.333l.039.63a1.308,1.308,0,0,1,1.177-.728,1.479,1.479,0,0,1,.439.063Zm2.949,1.27a3.158,3.158,0,0,1,.554-1.968,1.812,1.812,0,0,1,1.521-.723,1.622,1.622,0,0,1,1.353.649l.093-.552h1.24v7.314H83.3V21.546a1.627,1.627,0,0,1-1.279.552,1.8,1.8,0,0,1-1.5-.732A3.313,3.313,0,0,1,79.958,19.31Zm1.411.1a2.072,2.072,0,0,0,.266,1.154.852.852,0,0,0,.75.4.949.949,0,0,0,.918-.518V18.256a.941.941,0,0,0-.908-.5.862.862,0,0,0-.757.4A2.288,2.288,0,0,0,81.369,19.41Zm7.622,2.053a1.77,1.77,0,0,1-1.445.635,1.669,1.669,0,0,1-1.3-.488,2.084,2.084,0,0,1-.457-1.431V16.717H87.2v3.417q0,.826.752.826a1.019,1.019,0,0,0,.986-.5V16.717h1.416V22H89.03Zm4.863.635a2.594,2.594,0,0,1-1.892-.713,2.534,2.534,0,0,1-.73-1.9v-.137a3.192,3.192,0,0,1,.308-1.423,2.258,2.258,0,0,1,.872-.967,2.446,2.446,0,0,1,1.287-.339A2.193,2.193,0,0,1,95.4,17.3a2.778,2.778,0,0,1,.623,1.938v.576H92.663a1.311,1.311,0,0,0,.413.83,1.247,1.247,0,0,0,.872.313,1.523,1.523,0,0,0,1.274-.591l.693.776a2.118,2.118,0,0,1-.859.7A2.819,2.819,0,0,1,93.854,22.1Zm-.161-4.341a.882.882,0,0,0-.681.284,1.473,1.473,0,0,0-.334.814h1.963v-.113a1.051,1.051,0,0,0-.254-.728A.91.91,0,0,0,93.693,17.757Zm8.486,2.783a.455.455,0,0,0-.256-.408,2.912,2.912,0,0,0-.823-.266q-1.885-.4-1.885-1.6A1.452,1.452,0,0,1,99.8,17.09a2.354,2.354,0,0,1,1.526-.471,2.533,2.533,0,0,1,1.609.474,1.493,1.493,0,0,1,.6,1.23h-1.411a.683.683,0,0,0-.2-.5.827.827,0,0,0-.61-.2.845.845,0,0,0-.552.161.509.509,0,0,0-.2.41.435.435,0,0,0,.222.378,2.285,2.285,0,0,0,.75.249,6.122,6.122,0,0,1,.889.237,1.46,1.46,0,0,1,1.118,1.421,1.378,1.378,0,0,1-.62,1.169,2.675,2.675,0,0,1-1.6.447,2.794,2.794,0,0,1-1.179-.237,1.979,1.979,0,0,1-.808-.649,1.509,1.509,0,0,1-.293-.891h1.338a.737.737,0,0,0,.278.576,1.1,1.1,0,0,0,.693.2,1.022,1.022,0,0,0,.613-.154A.479.479,0,0,0,102.18,20.54Zm4.712,1.558A2.594,2.594,0,0,1,105,21.385a2.534,2.534,0,0,1-.73-1.9v-.137a3.192,3.192,0,0,1,.308-1.423,2.258,2.258,0,0,1,.872-.967,2.446,2.446,0,0,1,1.287-.339,2.193,2.193,0,0,1,1.707.684,2.778,2.778,0,0,1,.623,1.938v.576H105.7a1.311,1.311,0,0,0,.413.83,1.247,1.247,0,0,0,.872.313,1.523,1.523,0,0,0,1.274-.591l.693.776a2.118,2.118,0,0,1-.859.7A2.819,2.819,0,0,1,106.892,22.1Zm-.161-4.341a.882.882,0,0,0-.681.284,1.473,1.473,0,0,0-.334.814h1.963v-.113a1.051,1.051,0,0,0-.254-.728A.91.91,0,0,0,106.73,17.757ZM8.979,34.1a2.594,2.594,0,0,1-1.892-.713,2.534,2.534,0,0,1-.73-1.9v-.137a3.192,3.192,0,0,1,.308-1.423,2.258,2.258,0,0,1,.872-.967,2.446,2.446,0,0,1,1.287-.339,2.193,2.193,0,0,1,1.707.684,2.778,2.778,0,0,1,.623,1.938v.576H7.788a1.311,1.311,0,0,0,.413.83,1.247,1.247,0,0,0,.872.313,1.523,1.523,0,0,0,1.274-.591l.693.776a2.118,2.118,0,0,1-.859.7A2.819,2.819,0,0,1,8.979,34.1Zm-.161-4.341a.882.882,0,0,0-.681.284,1.473,1.473,0,0,0-.334.814H9.765v-.113a1.051,1.051,0,0,0-.254-.728A.91.91,0,0,0,8.818,29.757Zm4.629-1.04v5.571a1.89,1.89,0,0,1-.464,1.36,1.763,1.763,0,0,1-1.338.486,2.869,2.869,0,0,1-.7-.083V34.933a2.649,2.649,0,0,0,.444.044q.64,0,.64-.679V28.717ZM11.918,27.35a.7.7,0,0,1,.212-.522.919.919,0,0,1,1.157,0,.749.749,0,0,1,0,1.05.905.905,0,0,1-1.147,0A.693.693,0,0,1,11.918,27.35ZM16.982,34.1a2.594,2.594,0,0,1-1.892-.713,2.534,2.534,0,0,1-.73-1.9v-.137a3.192,3.192,0,0,1,.308-1.423,2.258,2.258,0,0,1,.872-.967,2.446,2.446,0,0,1,1.287-.339,2.193,2.193,0,0,1,1.707.684,2.778,2.778,0,0,1,.623,1.938v.576H15.791a1.311,1.311,0,0,0,.413.83,1.247,1.247,0,0,0,.872.313,1.523,1.523,0,0,0,1.274-.591l.693.776a2.118,2.118,0,0,1-.859.7A2.819,2.819,0,0,1,16.982,34.1Zm-.161-4.341a.882.882,0,0,0-.681.284,1.473,1.473,0,0,0-.334.814h1.963v-.113a1.051,1.051,0,0,0-.254-.728A.91.91,0,0,0,16.821,29.757Zm5.332,3.2a.926.926,0,0,0,.635-.215.753.753,0,0,0,.254-.571h1.323a1.81,1.81,0,0,1-.293.984,1.933,1.933,0,0,1-.789.693,2.468,2.468,0,0,1-1.106.247,2.294,2.294,0,0,1-1.787-.72,2.85,2.85,0,0,1-.654-1.99v-.093a2.817,2.817,0,0,1,.649-1.948,2.267,2.267,0,0,1,1.782-.728,2.222,2.222,0,0,1,1.589.564,2,2,0,0,1,.608,1.5H23.042a.97.97,0,0,0-.254-.67.944.944,0,0,0-1.389.1,2.083,2.083,0,0,0-.251,1.166v.147A2.109,2.109,0,0,0,21.4,32.6.861.861,0,0,0,22.153,32.96Zm6.182.5a1.77,1.77,0,0,1-1.445.635,1.669,1.669,0,0,1-1.3-.488,2.084,2.084,0,0,1-.457-1.431V28.717h1.411v3.417q0,.826.752.826a1.019,1.019,0,0,0,.986-.5V28.717H29.7V34H28.374Zm4.121-6.045v1.3h.9v1.035h-.9v2.637a.63.63,0,0,0,.112.42.564.564,0,0,0,.43.127,2.25,2.25,0,0,0,.415-.034v1.069a2.9,2.9,0,0,1-.854.127,1.347,1.347,0,0,1-1.514-1.5V29.752h-.771V28.717h.771v-1.3Zm4.121,6.68a2.594,2.594,0,0,1-1.892-.713,2.534,2.534,0,0,1-.73-1.9v-.137a3.192,3.192,0,0,1,.308-1.423,2.258,2.258,0,0,1,.872-.967,2.446,2.446,0,0,1,1.287-.339,2.193,2.193,0,0,1,1.707.684,2.778,2.778,0,0,1,.623,1.938v.576H35.385a1.311,1.311,0,0,0,.413.83,1.247,1.247,0,0,0,.872.313,1.523,1.523,0,0,0,1.274-.591l.693.776a2.118,2.118,0,0,1-.859.7A2.819,2.819,0,0,1,36.577,34.1Zm-.161-4.341a.882.882,0,0,0-.681.284,1.473,1.473,0,0,0-.334.814h1.963v-.113a1.051,1.051,0,0,0-.254-.728A.91.91,0,0,0,36.416,29.757Zm4.434-1.04.044.61a1.845,1.845,0,0,1,1.519-.708,1.533,1.533,0,0,1,1.25.493,2.3,2.3,0,0,1,.42,1.475V34H42.67V30.621a.915.915,0,0,0-.2-.652.874.874,0,0,0-.649-.2.971.971,0,0,0-.894.508V34H39.521V28.717Zm6.572,2.6a3.184,3.184,0,0,1,.554-1.968,1.8,1.8,0,0,1,1.516-.732,1.618,1.618,0,0,1,1.274.576V26.5h1.416V34H50.908l-.068-.562a1.661,1.661,0,0,1-1.357.659,1.793,1.793,0,0,1-1.5-.735A3.286,3.286,0,0,1,47.421,31.319Zm1.411.105a2.086,2.086,0,0,0,.259,1.139.843.843,0,0,0,.752.4.944.944,0,0,0,.923-.553V30.319a.931.931,0,0,0-.913-.553Q48.833,29.767,48.833,31.424ZM55.708,34.1a2.594,2.594,0,0,1-1.892-.713,2.534,2.534,0,0,1-.73-1.9v-.137a3.192,3.192,0,0,1,.308-1.423,2.258,2.258,0,0,1,.872-.967,2.446,2.446,0,0,1,1.287-.339,2.193,2.193,0,0,1,1.707.684,2.778,2.778,0,0,1,.623,1.938v.576H54.516a1.311,1.311,0,0,0,.413.83,1.247,1.247,0,0,0,.872.313,1.523,1.523,0,0,0,1.274-.591l.693.776a2.118,2.118,0,0,1-.859.7A2.819,2.819,0,0,1,55.708,34.1Zm-.161-4.341a.882.882,0,0,0-.681.284,1.473,1.473,0,0,0-.334.814h1.963v-.113a1.051,1.051,0,0,0-.254-.728A.91.91,0,0,0,55.546,29.757ZM64.233,34a1.567,1.567,0,0,1-.142-.474,1.707,1.707,0,0,1-1.333.571,1.876,1.876,0,0,1-1.287-.449,1.445,1.445,0,0,1-.51-1.133,1.493,1.493,0,0,1,.623-1.289,3.072,3.072,0,0,1,1.8-.454h.649v-.3a.871.871,0,0,0-.188-.586.74.74,0,0,0-.593-.22.841.841,0,0,0-.559.171.581.581,0,0,0-.2.469H61.079a1.418,1.418,0,0,1,.283-.85,1.872,1.872,0,0,1,.8-.613,2.918,2.918,0,0,1,1.162-.222,2.306,2.306,0,0,1,1.55.491,1.717,1.717,0,0,1,.574,1.379v2.29a2.526,2.526,0,0,0,.21,1.138V34Zm-1.167-.981a1.215,1.215,0,0,0,.576-.139.914.914,0,0,0,.391-.374V31.6h-.527q-1.06,0-1.128.732l0,.083a.565.565,0,0,0,.186.435A.721.721,0,0,0,63.066,33.019Zm5.664-.059a.926.926,0,0,0,.635-.215.753.753,0,0,0,.254-.571h1.323a1.81,1.81,0,0,1-.293.984,1.933,1.933,0,0,1-.789.693,2.468,2.468,0,0,1-1.106.247,2.294,2.294,0,0,1-1.787-.72,2.85,2.85,0,0,1-.654-1.99v-.093a2.817,2.817,0,0,1,.649-1.948,2.267,2.267,0,0,1,1.782-.728,2.222,2.222,0,0,1,1.589.564,2,2,0,0,1,.608,1.5H69.619a.97.97,0,0,0-.254-.67.944.944,0,0,0-1.389.1,2.083,2.083,0,0,0-.251,1.166v.147a2.109,2.109,0,0,0,.249,1.174A.861.861,0,0,0,68.73,32.96Zm6.182.5a1.77,1.77,0,0,1-1.445.635,1.669,1.669,0,0,1-1.3-.488,2.084,2.084,0,0,1-.457-1.431V28.717h1.411v3.417q0,.826.752.826a1.019,1.019,0,0,0,.986-.5V28.717h1.416V34H74.951Zm4.863.635a2.594,2.594,0,0,1-1.892-.713,2.534,2.534,0,0,1-.73-1.9v-.137a3.192,3.192,0,0,1,.308-1.423,2.258,2.258,0,0,1,.872-.967,2.446,2.446,0,0,1,1.287-.339,2.193,2.193,0,0,1,1.707.684,2.778,2.778,0,0,1,.623,1.938v.576H78.583a1.311,1.311,0,0,0,.413.83,1.247,1.247,0,0,0,.872.313,1.523,1.523,0,0,0,1.274-.591l.693.776a2.118,2.118,0,0,1-.859.7A2.819,2.819,0,0,1,79.775,34.1Zm-.161-4.341a.882.882,0,0,0-.681.284,1.473,1.473,0,0,0-.334.814h1.963v-.113a1.051,1.051,0,0,0-.254-.728A.91.91,0,0,0,79.614,29.757Zm6.1.283A3.834,3.834,0,0,0,85.209,30a1.034,1.034,0,0,0-1.05.542V34H82.749V28.717h1.333l.039.63a1.308,1.308,0,0,1,1.177-.728,1.479,1.479,0,0,1,.439.063Zm.459,1.279a3.184,3.184,0,0,1,.554-1.968,1.8,1.8,0,0,1,1.516-.732,1.618,1.618,0,0,1,1.274.576V26.5h1.416V34H89.663l-.068-.562a1.661,1.661,0,0,1-1.357.659,1.793,1.793,0,0,1-1.5-.735A3.286,3.286,0,0,1,86.176,31.319Zm1.411.105a2.086,2.086,0,0,0,.259,1.139.843.843,0,0,0,.752.4.944.944,0,0,0,.923-.553V30.319a.931.931,0,0,0-.913-.553Q87.587,29.767,87.587,31.424Zm4.224-.115a3.133,3.133,0,0,1,.3-1.4,2.216,2.216,0,0,1,.872-.952,2.543,2.543,0,0,1,1.321-.337,2.406,2.406,0,0,1,1.746.654,2.626,2.626,0,0,1,.754,1.777l.01.361a2.761,2.761,0,0,1-.679,1.951,2.631,2.631,0,0,1-3.645,0,2.81,2.81,0,0,1-.681-1.992Zm1.411.1a1.975,1.975,0,0,0,.283,1.152,1.017,1.017,0,0,0,1.611,0,2.161,2.161,0,0,0,.288-1.259,1.955,1.955,0,0,0-.288-1.144.936.936,0,0,0-.811-.406.921.921,0,0,0-.8.4A2.2,2.2,0,0,0,93.222,31.41ZM103.237,34a1.567,1.567,0,0,1-.142-.474,1.707,1.707,0,0,1-1.333.571,1.876,1.876,0,0,1-1.287-.449,1.445,1.445,0,0,1-.51-1.133,1.493,1.493,0,0,1,.623-1.289,3.072,3.072,0,0,1,1.8-.454h.649v-.3a.871.871,0,0,0-.188-.586.74.74,0,0,0-.593-.22.841.841,0,0,0-.559.171.581.581,0,0,0-.2.469h-1.411a1.417,1.417,0,0,1,.283-.85,1.872,1.872,0,0,1,.8-.613,2.918,2.918,0,0,1,1.162-.222,2.306,2.306,0,0,1,1.55.491,1.717,1.717,0,0,1,.574,1.379v2.29a2.526,2.526,0,0,0,.21,1.138V34Zm-1.167-.981a1.215,1.215,0,0,0,.576-.139.914.914,0,0,0,.391-.374V31.6h-.527q-1.06,0-1.128.732l0,.083a.565.565,0,0,0,.186.435A.721.721,0,0,0,102.07,33.019ZM15.878,45.463a1.77,1.77,0,0,1-1.445.635,1.669,1.669,0,0,1-1.3-.488,2.084,2.084,0,0,1-.457-1.431V40.717h1.411v3.417q0,.826.752.826a1.019,1.019,0,0,0,.986-.5V40.717h1.416V46H15.917Zm3.73-4.746.044.61a1.845,1.845,0,0,1,1.519-.708,1.533,1.533,0,0,1,1.25.493,2.3,2.3,0,0,1,.42,1.475V46H21.43V42.621a.915.915,0,0,0-.2-.652.874.874,0,0,0-.649-.2.971.971,0,0,0-.894.508V46H18.281V40.717Zm4.082,2.593a3.133,3.133,0,0,1,.3-1.4,2.216,2.216,0,0,1,.872-.952,2.543,2.543,0,0,1,1.321-.337,2.406,2.406,0,0,1,1.746.654,2.626,2.626,0,0,1,.754,1.777l.01.361a2.761,2.761,0,0,1-.679,1.951,2.631,2.631,0,0,1-3.645,0,2.81,2.81,0,0,1-.681-1.992Zm1.411.1a1.975,1.975,0,0,0,.283,1.152,1.017,1.017,0,0,0,1.611,0,2.161,2.161,0,0,0,.288-1.259A1.955,1.955,0,0,0,27,42.163a.936.936,0,0,0-.811-.406.921.921,0,0,0-.8.4A2.2,2.2,0,0,0,25.1,43.41Zm7.324,1.13a.455.455,0,0,0-.256-.408,2.912,2.912,0,0,0-.823-.266q-1.885-.4-1.885-1.6a1.452,1.452,0,0,1,.583-1.174,2.354,2.354,0,0,1,1.526-.471,2.533,2.533,0,0,1,1.609.474,1.493,1.493,0,0,1,.6,1.23H32.373a.683.683,0,0,0-.2-.5.827.827,0,0,0-.61-.2.845.845,0,0,0-.552.161.509.509,0,0,0-.2.41.435.435,0,0,0,.222.378,2.286,2.286,0,0,0,.75.249,6.122,6.122,0,0,1,.889.237A1.46,1.46,0,0,1,33.8,44.481a1.378,1.378,0,0,1-.62,1.169,2.675,2.675,0,0,1-1.6.447,2.794,2.794,0,0,1-1.179-.237,1.979,1.979,0,0,1-.808-.649,1.509,1.509,0,0,1-.293-.891h1.338a.737.737,0,0,0,.278.576,1.1,1.1,0,0,0,.693.2,1.022,1.022,0,0,0,.613-.154A.479.479,0,0,0,32.426,44.54Zm4.551-1.221a3.184,3.184,0,0,1,.554-1.968,1.8,1.8,0,0,1,1.516-.732,1.618,1.618,0,0,1,1.274.576V38.5h1.416V46H40.463l-.068-.562a1.661,1.661,0,0,1-1.357.659,1.793,1.793,0,0,1-1.5-.735A3.286,3.286,0,0,1,36.977,43.319Zm1.411.105a2.086,2.086,0,0,0,.259,1.139.843.843,0,0,0,.752.4.944.944,0,0,0,.923-.553V42.319a.931.931,0,0,0-.913-.553Q38.388,41.767,38.388,43.424ZM45.263,46.1a2.594,2.594,0,0,1-1.892-.713,2.534,2.534,0,0,1-.73-1.9v-.137a3.192,3.192,0,0,1,.308-1.423,2.258,2.258,0,0,1,.872-.967,2.446,2.446,0,0,1,1.287-.339,2.193,2.193,0,0,1,1.707.684,2.778,2.778,0,0,1,.623,1.938v.576H44.072a1.311,1.311,0,0,0,.413.83,1.247,1.247,0,0,0,.872.313,1.523,1.523,0,0,0,1.274-.591l.693.776a2.118,2.118,0,0,1-.859.7A2.819,2.819,0,0,1,45.263,46.1ZM45.1,41.757a.882.882,0,0,0-.681.284,1.473,1.473,0,0,0-.334.814h1.963v-.113a1.051,1.051,0,0,0-.254-.728A.91.91,0,0,0,45.1,41.757Zm4.824-2.339v1.3h.9v1.035h-.9v2.637a.63.63,0,0,0,.112.42.564.564,0,0,0,.43.127,2.25,2.25,0,0,0,.415-.034v1.069a2.9,2.9,0,0,1-.854.127,1.347,1.347,0,0,1-1.514-1.5V41.752h-.771V40.717h.771v-1.3Zm4.121,6.68a2.594,2.594,0,0,1-1.892-.713,2.534,2.534,0,0,1-.73-1.9v-.137a3.192,3.192,0,0,1,.308-1.423,2.258,2.258,0,0,1,.872-.967,2.446,2.446,0,0,1,1.287-.339A2.193,2.193,0,0,1,55.6,41.3a2.778,2.778,0,0,1,.623,1.938v.576H52.856a1.311,1.311,0,0,0,.413.83,1.247,1.247,0,0,0,.872.313,1.523,1.523,0,0,0,1.274-.591l.693.776a2.118,2.118,0,0,1-.859.7A2.819,2.819,0,0,1,54.047,46.1Zm-.161-4.341a.882.882,0,0,0-.681.284,1.473,1.473,0,0,0-.334.814h1.963v-.113a1.051,1.051,0,0,0-.254-.728A.91.91,0,0,0,53.886,41.757Zm6.1.283A3.833,3.833,0,0,0,59.482,42a1.034,1.034,0,0,0-1.05.542V46H57.021V40.717h1.333l.039.63a1.308,1.308,0,0,1,1.177-.728,1.479,1.479,0,0,1,.439.063Zm2-1.323.044.591a1.857,1.857,0,0,1,1.519-.688,1.409,1.409,0,0,1,1.4.806,1.814,1.814,0,0,1,1.587-.806,1.576,1.576,0,0,1,1.279.5,2.3,2.3,0,0,1,.42,1.506V46H66.826V42.631a1.006,1.006,0,0,0-.176-.657.779.779,0,0,0-.62-.208.881.881,0,0,0-.879.605l0,3.628H63.745V42.636a.994.994,0,0,0-.181-.664.787.787,0,0,0-.615-.205.914.914,0,0,0-.869.5V46H60.668V40.717ZM70.815,46H69.4V40.717h1.416Zm-1.5-6.65a.7.7,0,0,1,.212-.522.915.915,0,0,1,1.155,0,.746.746,0,0,1,0,1.05.905.905,0,0,1-1.147,0A.693.693,0,0,1,69.316,39.35Zm3.96,1.367.044.61a1.845,1.845,0,0,1,1.519-.708,1.533,1.533,0,0,1,1.25.493,2.3,2.3,0,0,1,.42,1.475V46H75.1V42.621a.915.915,0,0,0-.2-.652.874.874,0,0,0-.649-.2.971.971,0,0,0-.894.508V46H71.948V40.717ZM80.639,46a1.567,1.567,0,0,1-.142-.474,1.707,1.707,0,0,1-1.333.571,1.876,1.876,0,0,1-1.287-.449,1.445,1.445,0,0,1-.51-1.133,1.493,1.493,0,0,1,.623-1.289,3.072,3.072,0,0,1,1.8-.454h.649v-.3a.871.871,0,0,0-.188-.586.74.74,0,0,0-.593-.22.841.841,0,0,0-.559.171.581.581,0,0,0-.2.469H77.485a1.417,1.417,0,0,1,.283-.85,1.872,1.872,0,0,1,.8-.613,2.918,2.918,0,0,1,1.162-.222,2.306,2.306,0,0,1,1.55.491,1.717,1.717,0,0,1,.574,1.379v2.29a2.526,2.526,0,0,0,.21,1.138V46Zm-1.167-.981a1.215,1.215,0,0,0,.576-.139.914.914,0,0,0,.391-.374V43.6h-.527q-1.06,0-1.128.732l0,.083a.565.565,0,0,0,.186.435A.721.721,0,0,0,79.472,45.019Zm3.247-1.7a3.184,3.184,0,0,1,.554-1.968,1.8,1.8,0,0,1,1.516-.732,1.618,1.618,0,0,1,1.274.576V38.5H87.48V46H86.206l-.068-.562a1.661,1.661,0,0,1-1.357.659,1.793,1.793,0,0,1-1.5-.735A3.286,3.286,0,0,1,82.719,43.319Zm1.411.105a2.086,2.086,0,0,0,.259,1.139.843.843,0,0,0,.752.4.944.944,0,0,0,.923-.553V42.319a.931.931,0,0,0-.913-.553Q84.13,41.767,84.13,43.424Zm4.224-.115a3.133,3.133,0,0,1,.3-1.4,2.216,2.216,0,0,1,.872-.952,2.543,2.543,0,0,1,1.321-.337,2.406,2.406,0,0,1,1.746.654,2.626,2.626,0,0,1,.754,1.777l.01.361a2.761,2.761,0,0,1-.679,1.951,2.631,2.631,0,0,1-3.645,0,2.81,2.81,0,0,1-.681-1.992Zm1.411.1a1.975,1.975,0,0,0,.283,1.152,1.017,1.017,0,0,0,1.611,0,2.161,2.161,0,0,0,.288-1.259,1.955,1.955,0,0,0-.288-1.144.936.936,0,0,0-.811-.406.921.921,0,0,0-.8.4A2.2,2.2,0,0,0,89.765,43.41Zm7.324,1.13a.455.455,0,0,0-.256-.408,2.912,2.912,0,0,0-.823-.266q-1.885-.4-1.885-1.6a1.452,1.452,0,0,1,.583-1.174,2.354,2.354,0,0,1,1.526-.471,2.533,2.533,0,0,1,1.609.474,1.493,1.493,0,0,1,.6,1.23H97.036a.683.683,0,0,0-.2-.5.827.827,0,0,0-.61-.2.845.845,0,0,0-.552.161.509.509,0,0,0-.2.41.435.435,0,0,0,.222.378,2.286,2.286,0,0,0,.75.249,6.122,6.122,0,0,1,.889.237,1.46,1.46,0,0,1,1.118,1.421,1.378,1.378,0,0,1-.62,1.169,2.675,2.675,0,0,1-1.6.447,2.794,2.794,0,0,1-1.179-.237,1.979,1.979,0,0,1-.808-.649,1.509,1.509,0,0,1-.293-.891H95.3a.737.737,0,0,0,.278.576,1.1,1.1,0,0,0,.693.2,1.022,1.022,0,0,0,.613-.154A.479.479,0,0,0,97.089,44.54ZM34.943,55.407a3.169,3.169,0,0,1-.554,1.956,1.777,1.777,0,0,1-1.5.735,1.646,1.646,0,0,1-1.294-.557v2.49H30.188V52.717H31.5l.049.518a1.659,1.659,0,0,1,1.338-.615,1.789,1.789,0,0,1,1.519.723,3.254,3.254,0,0,1,.542,1.992Zm-1.411-.1a2.079,2.079,0,0,0-.261-1.138.851.851,0,0,0-.759-.4.924.924,0,0,0-.913.508v2.163a.94.94,0,0,0,.923.522Q33.532,56.96,33.532,55.3ZM38.879,58a1.567,1.567,0,0,1-.142-.474A1.707,1.707,0,0,1,37.4,58.1a1.876,1.876,0,0,1-1.287-.449,1.445,1.445,0,0,1-.51-1.133,1.493,1.493,0,0,1,.623-1.289,3.072,3.072,0,0,1,1.8-.454h.649v-.3a.871.871,0,0,0-.188-.586.74.74,0,0,0-.593-.22.841.841,0,0,0-.559.171.581.581,0,0,0-.2.469H35.725a1.418,1.418,0,0,1,.283-.85,1.872,1.872,0,0,1,.8-.613,2.918,2.918,0,0,1,1.162-.222,2.306,2.306,0,0,1,1.55.491,1.717,1.717,0,0,1,.574,1.379v2.29a2.526,2.526,0,0,0,.21,1.138V58Zm-1.167-.981a1.215,1.215,0,0,0,.576-.139.914.914,0,0,0,.391-.374V55.6h-.527q-1.06,0-1.128.732l0,.083a.565.565,0,0,0,.186.435A.721.721,0,0,0,37.712,57.019Zm6.436-2.979A3.833,3.833,0,0,0,43.64,54a1.034,1.034,0,0,0-1.05.542V58H41.179V52.717h1.333l.039.63a1.308,1.308,0,0,1,1.177-.728,1.479,1.479,0,0,1,.439.063ZM47.888,58a1.567,1.567,0,0,1-.142-.474,1.707,1.707,0,0,1-1.333.571,1.876,1.876,0,0,1-1.287-.449,1.445,1.445,0,0,1-.51-1.133,1.493,1.493,0,0,1,.623-1.289,3.072,3.072,0,0,1,1.8-.454h.649v-.3a.871.871,0,0,0-.188-.586.74.74,0,0,0-.593-.22.841.841,0,0,0-.559.171.581.581,0,0,0-.2.469H44.733a1.418,1.418,0,0,1,.283-.85,1.872,1.872,0,0,1,.8-.613,2.918,2.918,0,0,1,1.162-.222,2.306,2.306,0,0,1,1.55.491,1.717,1.717,0,0,1,.574,1.379v2.29a2.526,2.526,0,0,0,.21,1.138V58Zm-1.167-.981a1.215,1.215,0,0,0,.576-.139.914.914,0,0,0,.391-.374V55.6H47.16q-1.06,0-1.128.732l0,.083a.565.565,0,0,0,.186.435A.721.721,0,0,0,46.721,57.019Zm.537-6.519H48.8l-1.353,1.514H46.3Zm4.253,2.217.044.591a1.857,1.857,0,0,1,1.519-.688,1.409,1.409,0,0,1,1.4.806,1.814,1.814,0,0,1,1.587-.806,1.576,1.576,0,0,1,1.279.5,2.3,2.3,0,0,1,.42,1.506V58H56.345V54.631a1.006,1.006,0,0,0-.176-.657.779.779,0,0,0-.62-.208.881.881,0,0,0-.879.605l0,3.628H53.264V54.636a.994.994,0,0,0-.181-.664.787.787,0,0,0-.615-.205.914.914,0,0,0-.869.5V58H50.188V52.717ZM61.276,58.1a2.594,2.594,0,0,1-1.892-.713,2.534,2.534,0,0,1-.73-1.9v-.137a3.192,3.192,0,0,1,.308-1.423,2.258,2.258,0,0,1,.872-.967,2.446,2.446,0,0,1,1.287-.339,2.193,2.193,0,0,1,1.707.684,2.778,2.778,0,0,1,.623,1.938v.576H60.085a1.311,1.311,0,0,0,.413.83,1.247,1.247,0,0,0,.872.313,1.523,1.523,0,0,0,1.274-.591l.693.776a2.118,2.118,0,0,1-.859.7A2.819,2.819,0,0,1,61.276,58.1Zm-.161-4.341a.882.882,0,0,0-.681.284,1.473,1.473,0,0,0-.334.814h1.963v-.113a1.051,1.051,0,0,0-.254-.728A.91.91,0,0,0,61.115,53.757Zm4.824-2.339v1.3h.9v1.035h-.9v2.637a.63.63,0,0,0,.112.42.564.564,0,0,0,.43.127A2.25,2.25,0,0,0,66.9,56.9v1.069a2.9,2.9,0,0,1-.854.127,1.347,1.347,0,0,1-1.514-1.5V53.752h-.771V52.717h.771v-1.3ZM70.6,54.04A3.833,3.833,0,0,0,70.09,54a1.034,1.034,0,0,0-1.05.542V58H67.629V52.717h1.333l.039.63a1.308,1.308,0,0,1,1.177-.728,1.479,1.479,0,0,1,.439.063Zm.283,1.27a3.133,3.133,0,0,1,.3-1.4,2.216,2.216,0,0,1,.872-.952,2.543,2.543,0,0,1,1.321-.337,2.406,2.406,0,0,1,1.746.654,2.626,2.626,0,0,1,.754,1.777l.01.361a2.761,2.761,0,0,1-.679,1.951,2.631,2.631,0,0,1-3.645,0,2.81,2.81,0,0,1-.681-1.992Zm1.411.1a1.975,1.975,0,0,0,.283,1.152,1.017,1.017,0,0,0,1.611,0,2.161,2.161,0,0,0,.288-1.259,1.955,1.955,0,0,0-.288-1.144.936.936,0,0,0-.811-.406.921.921,0,0,0-.8.4A2.2,2.2,0,0,0,72.292,55.41Zm7.324,1.13a.455.455,0,0,0-.256-.408,2.912,2.912,0,0,0-.823-.266q-1.885-.4-1.885-1.6a1.452,1.452,0,0,1,.583-1.174,2.354,2.354,0,0,1,1.526-.471,2.533,2.533,0,0,1,1.609.474,1.493,1.493,0,0,1,.6,1.23H79.563a.683.683,0,0,0-.2-.5.827.827,0,0,0-.61-.2.845.845,0,0,0-.552.161.509.509,0,0,0-.2.41.435.435,0,0,0,.222.378,2.286,2.286,0,0,0,.75.249,6.122,6.122,0,0,1,.889.237,1.46,1.46,0,0,1,1.118,1.421,1.378,1.378,0,0,1-.62,1.169,2.675,2.675,0,0,1-1.6.447,2.794,2.794,0,0,1-1.179-.237,1.979,1.979,0,0,1-.808-.649,1.509,1.509,0,0,1-.293-.891h1.338a.737.737,0,0,0,.278.576,1.1,1.1,0,0,0,.693.2,1.022,1.022,0,0,0,.613-.154A.479.479,0,0,0,79.616,56.54Z" transform="translate(5865.111 -8514.252)" fill="#12263f"/>
    <path id="Trazado_623512" data-name="Trazado 623512" d="M10.878,6.919H8.066v1.9h3.3V10H6.6V2.891h4.756V4.077H8.066V5.771h2.813Zm2.578-2.2.044.591a1.857,1.857,0,0,1,1.519-.688,1.409,1.409,0,0,1,1.4.806,1.814,1.814,0,0,1,1.587-.806,1.576,1.576,0,0,1,1.279.5,2.3,2.3,0,0,1,.42,1.506V10H18.291V6.631a1.006,1.006,0,0,0-.176-.657.779.779,0,0,0-.62-.208.881.881,0,0,0-.879.605l0,3.628H15.209V6.636a.994.994,0,0,0-.181-.664.787.787,0,0,0-.615-.205.914.914,0,0,0-.869.5V10H12.133V4.717ZM22.28,10H20.864V4.717H22.28Zm-1.5-6.65a.7.7,0,0,1,.212-.522.915.915,0,0,1,1.155,0,.691.691,0,0,1,.215.522.693.693,0,0,1-.217.527.905.905,0,0,1-1.147,0A.693.693,0,0,1,20.781,3.35ZM26.3,8.54a.455.455,0,0,0-.256-.408,2.912,2.912,0,0,0-.823-.266q-1.885-.4-1.885-1.6a1.452,1.452,0,0,1,.583-1.174,2.354,2.354,0,0,1,1.526-.471,2.533,2.533,0,0,1,1.609.474,1.493,1.493,0,0,1,.6,1.23H26.25a.683.683,0,0,0-.2-.5.827.827,0,0,0-.61-.2.845.845,0,0,0-.552.161.509.509,0,0,0-.2.41.435.435,0,0,0,.222.378,2.285,2.285,0,0,0,.75.249,6.122,6.122,0,0,1,.889.237,1.46,1.46,0,0,1,1.118,1.421,1.378,1.378,0,0,1-.62,1.169,2.675,2.675,0,0,1-1.6.447,2.794,2.794,0,0,1-1.179-.237,1.979,1.979,0,0,1-.808-.649,1.509,1.509,0,0,1-.293-.891h1.338a.737.737,0,0,0,.278.576,1.1,1.1,0,0,0,.693.2,1.022,1.022,0,0,0,.613-.154A.479.479,0,0,0,26.3,8.54ZM30.073,10H28.657V4.717h1.416Zm-1.5-6.65a.7.7,0,0,1,.212-.522.915.915,0,0,1,1.155,0,.691.691,0,0,1,.215.522.693.693,0,0,1-.217.527.905.905,0,0,1-1.147,0A.693.693,0,0,1,28.574,3.35Zm2.441,3.96a3.133,3.133,0,0,1,.3-1.4,2.216,2.216,0,0,1,.872-.952,2.543,2.543,0,0,1,1.321-.337,2.406,2.406,0,0,1,1.746.654,2.626,2.626,0,0,1,.754,1.777l.01.361a2.761,2.761,0,0,1-.679,1.951,2.631,2.631,0,0,1-3.645,0,2.81,2.81,0,0,1-.681-1.992Zm1.411.1a1.975,1.975,0,0,0,.283,1.152,1.017,1.017,0,0,0,1.611,0,2.161,2.161,0,0,0,.288-1.259,1.955,1.955,0,0,0-.288-1.144.936.936,0,0,0-.811-.406.921.921,0,0,0-.8.4A2.2,2.2,0,0,0,32.426,7.41ZM33.789,2.5h1.538L33.974,4.014H32.827Zm4.4,2.217.044.61a1.845,1.845,0,0,1,1.519-.708A1.533,1.533,0,0,1,41,5.112a2.3,2.3,0,0,1,.42,1.475V10H40.009V6.621a.915.915,0,0,0-.2-.652.874.874,0,0,0-.649-.2.971.971,0,0,0-.894.508V10H36.86V4.717Zm6.572,2.6a3.184,3.184,0,0,1,.554-1.968,1.8,1.8,0,0,1,1.516-.732A1.618,1.618,0,0,1,48.1,5.2V2.5h1.416V10H48.247l-.068-.562a1.661,1.661,0,0,1-1.357.659,1.793,1.793,0,0,1-1.5-.735A3.286,3.286,0,0,1,44.76,7.319Zm1.411.105a2.086,2.086,0,0,0,.259,1.139.843.843,0,0,0,.752.4.944.944,0,0,0,.923-.553V6.319a.931.931,0,0,0-.913-.553Q46.171,5.767,46.171,7.424ZM53.046,10.1a2.594,2.594,0,0,1-1.892-.713,2.534,2.534,0,0,1-.73-1.9V7.349a3.192,3.192,0,0,1,.308-1.423,2.258,2.258,0,0,1,.872-.967,2.446,2.446,0,0,1,1.287-.339A2.193,2.193,0,0,1,54.6,5.3a2.778,2.778,0,0,1,.623,1.938v.576H51.855a1.311,1.311,0,0,0,.413.83,1.247,1.247,0,0,0,.872.313,1.523,1.523,0,0,0,1.274-.591l.693.776a2.118,2.118,0,0,1-.859.7A2.819,2.819,0,0,1,53.046,10.1Zm-.161-4.341a.882.882,0,0,0-.681.284,1.473,1.473,0,0,0-.334.814h1.963V6.743a1.051,1.051,0,0,0-.254-.728A.91.91,0,0,0,52.885,5.757Zm8.789,3.706a1.77,1.77,0,0,1-1.445.635,1.669,1.669,0,0,1-1.3-.488,2.084,2.084,0,0,1-.457-1.431V4.717h1.411V8.134q0,.826.752.826a1.019,1.019,0,0,0,.986-.5V4.717h1.416V10H61.713ZM65.4,4.717l.044.61a1.845,1.845,0,0,1,1.519-.708,1.533,1.533,0,0,1,1.25.493,2.3,2.3,0,0,1,.42,1.475V10H67.226V6.621a.915.915,0,0,0-.2-.652.874.874,0,0,0-.649-.2.971.971,0,0,0-.894.508V10H64.077V4.717Zm8.481-1.3v1.3h.9V5.752h-.9V8.389a.63.63,0,0,0,.112.42.564.564,0,0,0,.43.127,2.25,2.25,0,0,0,.415-.034V9.971a2.905,2.905,0,0,1-.854.127,1.347,1.347,0,0,1-1.514-1.5V5.752H71.7V4.717h.771v-1.3ZM75.209,7.31a3.133,3.133,0,0,1,.3-1.4,2.216,2.216,0,0,1,.872-.952A2.543,2.543,0,0,1,77.7,4.619a2.406,2.406,0,0,1,1.746.654A2.626,2.626,0,0,1,80.2,7.051l.01.361a2.761,2.761,0,0,1-.679,1.951,2.631,2.631,0,0,1-3.645,0,2.81,2.81,0,0,1-.681-1.992Zm1.411.1A1.975,1.975,0,0,0,76.9,8.561a1.017,1.017,0,0,0,1.611,0A2.161,2.161,0,0,0,78.8,7.307a1.955,1.955,0,0,0-.288-1.144.936.936,0,0,0-.811-.406.921.921,0,0,0-.8.4A2.2,2.2,0,0,0,76.621,7.41ZM83,7.881l-.508.508V10H81.083V2.5h1.411V6.655l.273-.352,1.353-1.587h1.694l-1.909,2.2L85.981,10H84.36ZM88.857,10.1a2.594,2.594,0,0,1-1.892-.713,2.534,2.534,0,0,1-.73-1.9V7.349a3.192,3.192,0,0,1,.308-1.423,2.258,2.258,0,0,1,.872-.967A2.446,2.446,0,0,1,88.7,4.619a2.193,2.193,0,0,1,1.707.684,2.778,2.778,0,0,1,.623,1.938v.576H87.666a1.311,1.311,0,0,0,.413.83,1.247,1.247,0,0,0,.872.313,1.523,1.523,0,0,0,1.274-.591l.693.776a2.118,2.118,0,0,1-.859.7A2.819,2.819,0,0,1,88.857,10.1ZM88.7,5.757a.882.882,0,0,0-.681.284,1.473,1.473,0,0,0-.334.814h1.963V6.743a1.051,1.051,0,0,0-.254-.728A.91.91,0,0,0,88.7,5.757Zm4.434-1.04.044.61a1.845,1.845,0,0,1,1.519-.708,1.533,1.533,0,0,1,1.25.493,2.3,2.3,0,0,1,.42,1.475V10H94.951V6.621a.915.915,0,0,0-.2-.652.874.874,0,0,0-.649-.2.971.971,0,0,0-.894.508V10H91.8V4.717ZM99.7,7.31a3.133,3.133,0,0,1,.3-1.4,2.216,2.216,0,0,1,.872-.952,2.543,2.543,0,0,1,1.321-.337,2.406,2.406,0,0,1,1.746.654,2.626,2.626,0,0,1,.754,1.777l.01.361a2.761,2.761,0,0,1-.679,1.951,2.631,2.631,0,0,1-3.645,0A2.81,2.81,0,0,1,99.7,7.373Zm1.411.1a1.975,1.975,0,0,0,.283,1.152,1.017,1.017,0,0,0,1.611,0,2.161,2.161,0,0,0,.288-1.259,1.955,1.955,0,0,0-.288-1.144.936.936,0,0,0-.811-.406.921.921,0,0,0-.8.4A2.2,2.2,0,0,0,101.113,7.41ZM8.474,16.717l.044.591a1.857,1.857,0,0,1,1.519-.688,1.409,1.409,0,0,1,1.4.806,1.814,1.814,0,0,1,1.587-.806,1.576,1.576,0,0,1,1.279.5,2.3,2.3,0,0,1,.42,1.506V22H13.308V18.631a1.006,1.006,0,0,0-.176-.657.779.779,0,0,0-.62-.208.881.881,0,0,0-.879.605l0,3.628H10.227V18.636a.994.994,0,0,0-.181-.664.787.787,0,0,0-.615-.205.914.914,0,0,0-.869.5V22H7.15V16.717ZM18.239,22.1a2.594,2.594,0,0,1-1.892-.713,2.534,2.534,0,0,1-.73-1.9v-.137a3.192,3.192,0,0,1,.308-1.423,2.258,2.258,0,0,1,.872-.967,2.446,2.446,0,0,1,1.287-.339,2.193,2.193,0,0,1,1.707.684,2.778,2.778,0,0,1,.623,1.938v.576H17.048a1.311,1.311,0,0,0,.413.83,1.247,1.247,0,0,0,.872.313,1.523,1.523,0,0,0,1.274-.591l.693.776a2.118,2.118,0,0,1-.859.7A2.819,2.819,0,0,1,18.239,22.1Zm-.161-4.341a.882.882,0,0,0-.681.284,1.473,1.473,0,0,0-.334.814h1.963v-.113a1.051,1.051,0,0,0-.254-.728A.91.91,0,0,0,18.078,17.757Zm2.915,1.563a3.184,3.184,0,0,1,.554-1.968,1.8,1.8,0,0,1,1.516-.732,1.618,1.618,0,0,1,1.274.576V14.5h1.416V22H24.479l-.068-.562a1.661,1.661,0,0,1-1.357.659,1.793,1.793,0,0,1-1.5-.735A3.286,3.286,0,0,1,20.993,19.319Zm1.411.105a2.086,2.086,0,0,0,.259,1.139.843.843,0,0,0,.752.4.944.944,0,0,0,.923-.553V18.319a.931.931,0,0,0-.913-.553Q22.4,17.767,22.4,19.424ZM28.337,22H26.921V16.717h1.416Zm-1.5-6.65a.7.7,0,0,1,.212-.522.915.915,0,0,1,1.155,0,.746.746,0,0,1,0,1.05.905.905,0,0,1-1.147,0A.693.693,0,0,1,26.838,15.35Zm2.441,3.96a3.133,3.133,0,0,1,.3-1.4,2.216,2.216,0,0,1,.872-.952,2.543,2.543,0,0,1,1.321-.337,2.406,2.406,0,0,1,1.746.654,2.626,2.626,0,0,1,.754,1.777l.01.361a2.761,2.761,0,0,1-.679,1.951,2.631,2.631,0,0,1-3.645,0,2.81,2.81,0,0,1-.681-1.992Zm1.411.1a1.975,1.975,0,0,0,.283,1.152,1.017,1.017,0,0,0,1.611,0,2.161,2.161,0,0,0,.288-1.259,1.955,1.955,0,0,0-.288-1.144.936.936,0,0,0-.811-.406.921.921,0,0,0-.8.4A2.2,2.2,0,0,0,30.69,19.41Zm6.733-.09a3.184,3.184,0,0,1,.554-1.968,1.8,1.8,0,0,1,1.516-.732,1.618,1.618,0,0,1,1.274.576V14.5h1.416V22H40.91l-.068-.562a1.661,1.661,0,0,1-1.357.659,1.793,1.793,0,0,1-1.5-.735A3.286,3.286,0,0,1,37.424,19.319Zm1.411.105a2.086,2.086,0,0,0,.259,1.139.843.843,0,0,0,.752.4.944.944,0,0,0,.923-.553V18.319a.931.931,0,0,0-.913-.553Q38.835,17.767,38.835,19.424ZM45.71,22.1a2.594,2.594,0,0,1-1.892-.713,2.534,2.534,0,0,1-.73-1.9v-.137a3.192,3.192,0,0,1,.308-1.423,2.258,2.258,0,0,1,.872-.967,2.446,2.446,0,0,1,1.287-.339,2.193,2.193,0,0,1,1.707.684,2.778,2.778,0,0,1,.623,1.938v.576H44.519a1.311,1.311,0,0,0,.413.83,1.247,1.247,0,0,0,.872.313,1.523,1.523,0,0,0,1.274-.591l.693.776a2.118,2.118,0,0,1-.859.7A2.819,2.819,0,0,1,45.71,22.1Zm-.161-4.341a.882.882,0,0,0-.681.284,1.473,1.473,0,0,0-.334.814H46.5v-.113a1.051,1.051,0,0,0-.254-.728A.91.91,0,0,0,45.549,17.757ZM52.663,22H51.247V16.717h1.416Zm-1.5-6.65a.7.7,0,0,1,.212-.522.915.915,0,0,1,1.155,0,.746.746,0,0,1,0,1.05.905.905,0,0,1-1.147,0A.693.693,0,0,1,51.164,15.35Zm3.96,1.367.044.61a1.845,1.845,0,0,1,1.519-.708,1.533,1.533,0,0,1,1.25.493,2.3,2.3,0,0,1,.42,1.475V22H56.945V18.621a.915.915,0,0,0-.2-.652.874.874,0,0,0-.649-.2.971.971,0,0,0-.894.508V22H53.8V16.717Zm5.991-1.3v1.3h.9v1.035h-.9v2.637a.63.63,0,0,0,.112.42.564.564,0,0,0,.43.127,2.25,2.25,0,0,0,.415-.034v1.069a2.905,2.905,0,0,1-.854.127A1.347,1.347,0,0,1,59.7,20.6V17.752h-.771V16.717H59.7v-1.3Zm4.121,6.68a2.594,2.594,0,0,1-1.892-.713,2.534,2.534,0,0,1-.73-1.9v-.137a3.192,3.192,0,0,1,.308-1.423,2.258,2.258,0,0,1,.872-.967,2.446,2.446,0,0,1,1.287-.339,2.193,2.193,0,0,1,1.707.684,2.778,2.778,0,0,1,.623,1.938v.576H64.045a1.311,1.311,0,0,0,.413.83,1.247,1.247,0,0,0,.872.313,1.523,1.523,0,0,0,1.274-.591l.693.776a2.118,2.118,0,0,1-.859.7A2.819,2.819,0,0,1,65.236,22.1Zm-.161-4.341a.882.882,0,0,0-.681.284,1.473,1.473,0,0,0-.334.814h1.963v-.113a1.051,1.051,0,0,0-.254-.728A.91.91,0,0,0,65.075,17.757Zm6.1.283A3.834,3.834,0,0,0,70.671,18a1.034,1.034,0,0,0-1.05.542V22H68.21V16.717h1.333l.039.63a1.308,1.308,0,0,1,1.177-.728,1.479,1.479,0,0,1,.439.063Zm2.783,2.92a.926.926,0,0,0,.635-.215.753.753,0,0,0,.254-.571h1.323a1.81,1.81,0,0,1-.293.984,1.933,1.933,0,0,1-.789.693,2.468,2.468,0,0,1-1.106.247,2.294,2.294,0,0,1-1.787-.72,2.85,2.85,0,0,1-.654-1.99v-.093a2.817,2.817,0,0,1,.649-1.948,2.267,2.267,0,0,1,1.782-.728,2.222,2.222,0,0,1,1.589.564,2,2,0,0,1,.608,1.5H74.851a.97.97,0,0,0-.254-.67.944.944,0,0,0-1.389.1,2.083,2.083,0,0,0-.251,1.166v.147a2.109,2.109,0,0,0,.249,1.174A.861.861,0,0,0,73.962,20.96ZM80.041,22a1.567,1.567,0,0,1-.142-.474,1.707,1.707,0,0,1-1.333.571,1.876,1.876,0,0,1-1.287-.449,1.445,1.445,0,0,1-.51-1.133,1.493,1.493,0,0,1,.623-1.289,3.072,3.072,0,0,1,1.8-.454h.649v-.3a.871.871,0,0,0-.188-.586.74.74,0,0,0-.593-.22.841.841,0,0,0-.559.171.581.581,0,0,0-.2.469H76.887a1.417,1.417,0,0,1,.283-.85,1.872,1.872,0,0,1,.8-.613,2.918,2.918,0,0,1,1.162-.222,2.306,2.306,0,0,1,1.55.491,1.717,1.717,0,0,1,.574,1.379v2.29a2.526,2.526,0,0,0,.21,1.138V22Zm-1.167-.981a1.215,1.215,0,0,0,.576-.139.914.914,0,0,0,.391-.374V19.6h-.527q-1.06,0-1.128.732l0,.083a.565.565,0,0,0,.186.435A.721.721,0,0,0,78.874,21.019Zm4.79-4.3.044.591a1.857,1.857,0,0,1,1.519-.688,1.409,1.409,0,0,1,1.4.806,1.814,1.814,0,0,1,1.587-.806,1.576,1.576,0,0,1,1.279.5,2.3,2.3,0,0,1,.42,1.506V22H88.5V18.631a1.006,1.006,0,0,0-.176-.657.779.779,0,0,0-.62-.208.881.881,0,0,0-.879.605l0,3.628H85.417V18.636a.994.994,0,0,0-.181-.664.787.787,0,0,0-.615-.205.914.914,0,0,0-.869.5V22H82.341V16.717Zm12.095,2.69a3.2,3.2,0,0,1-.542,1.98,1.8,1.8,0,0,1-1.514.71,1.65,1.65,0,0,1-1.372-.659L92.268,22H91V14.5h1.411v2.69a1.607,1.607,0,0,1,1.284-.571,1.81,1.81,0,0,1,1.516.71,3.2,3.2,0,0,1,.549,2Zm-1.411-.1a2.1,2.1,0,0,0-.254-1.169.859.859,0,0,0-.757-.369.931.931,0,0,0-.928.552V20.4a.943.943,0,0,0,.938.557.871.871,0,0,0,.9-.674A3.476,3.476,0,0,0,94.348,19.3Zm3.77,2.7H96.7V16.717h1.416Zm-1.5-6.65a.7.7,0,0,1,.212-.522.915.915,0,0,1,1.155,0,.746.746,0,0,1,0,1.05.905.905,0,0,1-1.147,0A.693.693,0,0,1,96.618,15.35Zm2.441,3.96a3.133,3.133,0,0,1,.3-1.4,2.216,2.216,0,0,1,.872-.952,2.543,2.543,0,0,1,1.321-.337,2.406,2.406,0,0,1,1.746.654,2.626,2.626,0,0,1,.754,1.777l.01.361a2.761,2.761,0,0,1-.679,1.951,2.631,2.631,0,0,1-3.645,0,2.81,2.81,0,0,1-.681-1.992Zm1.411.1a1.975,1.975,0,0,0,.283,1.152,1.017,1.017,0,0,0,1.611,0,2.161,2.161,0,0,0,.288-1.259,1.955,1.955,0,0,0-.288-1.144.936.936,0,0,0-.811-.406.921.921,0,0,0-.8.4A2.2,2.2,0,0,0,100.471,19.41Z" transform="translate(6037.111 -8376.252)" fill="#12263f"/>
    <path id="Trazado_623511" data-name="Trazado 623511" d="M15.4,7.632a2.516,2.516,0,0,1-.847,1.807,2.975,2.975,0,0,1-2.014.659,2.675,2.675,0,0,1-2.151-.92A3.774,3.774,0,0,1,9.609,6.65V6.216A4.262,4.262,0,0,1,9.97,4.409,2.708,2.708,0,0,1,11,3.21a2.893,2.893,0,0,1,1.56-.417,2.9,2.9,0,0,1,1.982.659A2.7,2.7,0,0,1,15.415,5.3H13.95a1.485,1.485,0,0,0-.383-1,1.419,1.419,0,0,0-1-.31,1.245,1.245,0,0,0-1.1.525,2.942,2.942,0,0,0-.374,1.628v.537a3.148,3.148,0,0,0,.349,1.685,1.222,1.222,0,0,0,1.1.532,1.446,1.446,0,0,0,1.013-.31,1.4,1.4,0,0,0,.383-.959ZM19.335,10a1.567,1.567,0,0,1-.142-.474,1.707,1.707,0,0,1-1.333.571,1.876,1.876,0,0,1-1.287-.449,1.445,1.445,0,0,1-.51-1.133,1.493,1.493,0,0,1,.623-1.289,3.072,3.072,0,0,1,1.8-.454h.649v-.3a.871.871,0,0,0-.188-.586.74.74,0,0,0-.593-.22.841.841,0,0,0-.559.171.581.581,0,0,0-.2.469H16.181a1.417,1.417,0,0,1,.283-.85,1.872,1.872,0,0,1,.8-.613,2.918,2.918,0,0,1,1.162-.222,2.306,2.306,0,0,1,1.55.491,1.717,1.717,0,0,1,.574,1.379v2.29a2.526,2.526,0,0,0,.21,1.138V10Zm-1.167-.981a1.215,1.215,0,0,0,.576-.139.914.914,0,0,0,.391-.374V7.6h-.527q-1.06,0-1.128.732l0,.083a.565.565,0,0,0,.186.435A.721.721,0,0,0,18.168,9.019Zm8.223-1.611a3.169,3.169,0,0,1-.554,1.956,1.777,1.777,0,0,1-1.5.735,1.646,1.646,0,0,1-1.294-.557v2.49H21.635V4.717h1.309l.049.518a1.659,1.659,0,0,1,1.338-.615,1.789,1.789,0,0,1,1.519.723,3.254,3.254,0,0,1,.542,1.992ZM24.98,7.3a2.079,2.079,0,0,0-.261-1.138.851.851,0,0,0-.759-.4.924.924,0,0,0-.913.508V8.438a.94.94,0,0,0,.923.522Q24.98,8.96,24.98,7.3ZM30.327,10a1.567,1.567,0,0,1-.142-.474,1.707,1.707,0,0,1-1.333.571,1.876,1.876,0,0,1-1.287-.449,1.445,1.445,0,0,1-.51-1.133,1.493,1.493,0,0,1,.623-1.289,3.072,3.072,0,0,1,1.8-.454h.649v-.3a.871.871,0,0,0-.188-.586.74.74,0,0,0-.593-.22.841.841,0,0,0-.559.171.581.581,0,0,0-.2.469H27.172a1.417,1.417,0,0,1,.283-.85,1.872,1.872,0,0,1,.8-.613,2.918,2.918,0,0,1,1.162-.222,2.306,2.306,0,0,1,1.55.491,1.717,1.717,0,0,1,.574,1.379v2.29a2.526,2.526,0,0,0,.21,1.138V10ZM29.16,9.019a1.215,1.215,0,0,0,.576-.139.914.914,0,0,0,.391-.374V7.6H29.6q-1.06,0-1.128.732l0,.083a.565.565,0,0,0,.186.435A.721.721,0,0,0,29.16,9.019Zm5.664-.059a.926.926,0,0,0,.635-.215.753.753,0,0,0,.254-.571h1.323a1.81,1.81,0,0,1-.293.984,1.933,1.933,0,0,1-.789.693,2.468,2.468,0,0,1-1.106.247,2.294,2.294,0,0,1-1.787-.72,2.85,2.85,0,0,1-.654-1.99V7.295a2.817,2.817,0,0,1,.649-1.948,2.267,2.267,0,0,1,1.782-.728,2.222,2.222,0,0,1,1.589.564,2,2,0,0,1,.608,1.5H35.712a.97.97,0,0,0-.254-.67.944.944,0,0,0-1.389.1,2.083,2.083,0,0,0-.251,1.166v.147A2.109,2.109,0,0,0,34.067,8.6.861.861,0,0,0,34.824,8.96ZM39.331,10H37.915V4.717h1.416Zm-1.5-6.65a.7.7,0,0,1,.212-.522.915.915,0,0,1,1.155,0,.691.691,0,0,1,.215.522.693.693,0,0,1-.217.527.905.905,0,0,1-1.147,0A.693.693,0,0,1,37.832,3.35Zm2.441,3.97a3.184,3.184,0,0,1,.554-1.968,1.8,1.8,0,0,1,1.516-.732,1.618,1.618,0,0,1,1.274.576V2.5h1.416V10H43.759l-.068-.562a1.661,1.661,0,0,1-1.357.659,1.793,1.793,0,0,1-1.5-.735A3.286,3.286,0,0,1,40.273,7.319Zm1.411.105a2.086,2.086,0,0,0,.259,1.139.843.843,0,0,0,.752.4.944.944,0,0,0,.923-.553V6.319a.931.931,0,0,0-.913-.553Q41.684,5.767,41.684,7.424ZM49.189,10a1.567,1.567,0,0,1-.142-.474,1.707,1.707,0,0,1-1.333.571,1.876,1.876,0,0,1-1.287-.449,1.445,1.445,0,0,1-.51-1.133,1.493,1.493,0,0,1,.623-1.289,3.072,3.072,0,0,1,1.8-.454h.649v-.3a.871.871,0,0,0-.188-.586.74.74,0,0,0-.593-.22.841.841,0,0,0-.559.171.581.581,0,0,0-.2.469H46.035a1.418,1.418,0,0,1,.283-.85,1.872,1.872,0,0,1,.8-.613,2.918,2.918,0,0,1,1.162-.222,2.306,2.306,0,0,1,1.55.491A1.717,1.717,0,0,1,50.4,6.489v2.29a2.526,2.526,0,0,0,.21,1.138V10Zm-1.167-.981a1.215,1.215,0,0,0,.576-.139.914.914,0,0,0,.391-.374V7.6h-.527q-1.06,0-1.128.732l0,.083a.565.565,0,0,0,.186.435A.721.721,0,0,0,48.022,9.019Zm3.247-1.7a3.184,3.184,0,0,1,.554-1.968,1.8,1.8,0,0,1,1.516-.732,1.618,1.618,0,0,1,1.274.576V2.5H56.03V10H54.755l-.068-.562a1.661,1.661,0,0,1-1.357.659,1.793,1.793,0,0,1-1.5-.735A3.286,3.286,0,0,1,51.269,7.319Zm1.411.105a2.086,2.086,0,0,0,.259,1.139.843.843,0,0,0,.752.4.944.944,0,0,0,.923-.553V6.319a.931.931,0,0,0-.913-.553Q52.68,5.767,52.68,7.424Zm6.714-.105a3.184,3.184,0,0,1,.554-1.968,1.8,1.8,0,0,1,1.516-.732,1.618,1.618,0,0,1,1.274.576V2.5h1.416V10H62.88l-.068-.562a1.661,1.661,0,0,1-1.357.659,1.793,1.793,0,0,1-1.5-.735A3.286,3.286,0,0,1,59.394,7.319Zm1.411.105a2.086,2.086,0,0,0,.259,1.139.843.843,0,0,0,.752.4.944.944,0,0,0,.923-.553V6.319a.931.931,0,0,0-.913-.553Q60.805,5.767,60.805,7.424ZM67.68,10.1a2.594,2.594,0,0,1-1.892-.713,2.534,2.534,0,0,1-.73-1.9V7.349a3.192,3.192,0,0,1,.308-1.423,2.258,2.258,0,0,1,.872-.967,2.446,2.446,0,0,1,1.287-.339A2.193,2.193,0,0,1,69.23,5.3a2.778,2.778,0,0,1,.623,1.938v.576H66.489a1.311,1.311,0,0,0,.413.83,1.247,1.247,0,0,0,.872.313,1.523,1.523,0,0,0,1.274-.591l.693.776a2.118,2.118,0,0,1-.859.7A2.819,2.819,0,0,1,67.68,10.1Zm-.161-4.341a.882.882,0,0,0-.681.284,1.473,1.473,0,0,0-.334.814h1.963V6.743a1.051,1.051,0,0,0-.254-.728A.91.91,0,0,0,67.519,5.757Zm5.42,1.563a3.1,3.1,0,0,1,.579-1.958,1.875,1.875,0,0,1,1.56-.742,1.644,1.644,0,0,1,1.353.6l.059-.5h1.279V9.824a2.258,2.258,0,0,1-.315,1.206,2.023,2.023,0,0,1-.886.781,3.115,3.115,0,0,1-1.338.269,2.9,2.9,0,0,1-1.133-.232,2.011,2.011,0,0,1-.835-.6l.625-.859a1.653,1.653,0,0,0,1.279.591,1.21,1.21,0,0,0,.874-.3,1.126,1.126,0,0,0,.313-.852V9.546a1.632,1.632,0,0,1-1.284.552,1.87,1.87,0,0,1-1.541-.745,3.1,3.1,0,0,1-.588-1.975Zm1.411.105a1.928,1.928,0,0,0,.288,1.127.916.916,0,0,0,.791.408.98.98,0,0,0,.923-.484V6.251a.978.978,0,0,0-.913-.484.922.922,0,0,0-.8.416A2.173,2.173,0,0,0,74.35,7.424ZM81.821,6.04A3.834,3.834,0,0,0,81.313,6a1.034,1.034,0,0,0-1.05.542V10H78.852V4.717h1.333l.039.63A1.308,1.308,0,0,1,81.4,4.619a1.479,1.479,0,0,1,.439.063ZM85.415,10a1.567,1.567,0,0,1-.142-.474,1.707,1.707,0,0,1-1.333.571,1.876,1.876,0,0,1-1.287-.449,1.445,1.445,0,0,1-.51-1.133,1.493,1.493,0,0,1,.623-1.289,3.072,3.072,0,0,1,1.8-.454h.649v-.3a.871.871,0,0,0-.188-.586.74.74,0,0,0-.593-.22.841.841,0,0,0-.559.171.581.581,0,0,0-.2.469H82.26a1.417,1.417,0,0,1,.283-.85,1.872,1.872,0,0,1,.8-.613,2.918,2.918,0,0,1,1.162-.222,2.306,2.306,0,0,1,1.55.491,1.717,1.717,0,0,1,.574,1.379v2.29a2.526,2.526,0,0,0,.21,1.138V10Zm-1.167-.981a1.215,1.215,0,0,0,.576-.139.914.914,0,0,0,.391-.374V7.6h-.527q-1.06,0-1.128.732l0,.083a.565.565,0,0,0,.186.435A.721.721,0,0,0,84.248,9.019Zm8.228-1.611a3.2,3.2,0,0,1-.542,1.98,1.8,1.8,0,0,1-1.514.71,1.65,1.65,0,0,1-1.372-.659L88.984,10h-1.27V2.5h1.411V5.19a1.607,1.607,0,0,1,1.284-.571,1.81,1.81,0,0,1,1.516.71,3.2,3.2,0,0,1,.549,2Zm-1.411-.1a2.1,2.1,0,0,0-.254-1.169.859.859,0,0,0-.757-.369.931.931,0,0,0-.928.552V8.4a.943.943,0,0,0,.938.557.871.871,0,0,0,.9-.674A3.476,3.476,0,0,0,91.064,7.3ZM96.406,10a1.567,1.567,0,0,1-.142-.474,1.707,1.707,0,0,1-1.333.571,1.876,1.876,0,0,1-1.287-.449,1.445,1.445,0,0,1-.51-1.133,1.493,1.493,0,0,1,.623-1.289,3.072,3.072,0,0,1,1.8-.454h.649v-.3a.871.871,0,0,0-.188-.586.74.74,0,0,0-.593-.22.841.841,0,0,0-.559.171.581.581,0,0,0-.2.469H93.251a1.417,1.417,0,0,1,.283-.85,1.872,1.872,0,0,1,.8-.613A2.918,2.918,0,0,1,95.5,4.619a2.306,2.306,0,0,1,1.55.491,1.717,1.717,0,0,1,.574,1.379v2.29a2.526,2.526,0,0,0,.21,1.138V10Zm-1.167-.981a1.215,1.215,0,0,0,.576-.139.914.914,0,0,0,.391-.374V7.6h-.527q-1.06,0-1.128.732l0,.083a.565.565,0,0,0,.186.435A.721.721,0,0,0,95.239,9.019Zm6.436-2.979A3.834,3.834,0,0,0,101.167,6a1.034,1.034,0,0,0-1.05.542V10H98.706V4.717h1.333l.039.63a1.308,1.308,0,0,1,1.177-.728,1.479,1.479,0,0,1,.439.063ZM3.232,15.418v1.3h.9v1.035h-.9v2.637a.63.63,0,0,0,.112.42.564.564,0,0,0,.43.127,2.25,2.25,0,0,0,.415-.034v1.069a2.905,2.905,0,0,1-.854.127,1.347,1.347,0,0,1-1.514-1.5V17.752H1.049V16.717h.771v-1.3ZM4.555,19.31a3.133,3.133,0,0,1,.3-1.4,2.216,2.216,0,0,1,.872-.952,2.543,2.543,0,0,1,1.321-.337,2.406,2.406,0,0,1,1.746.654,2.626,2.626,0,0,1,.754,1.777l.01.361a2.761,2.761,0,0,1-.679,1.951A2.359,2.359,0,0,1,7.06,22.1a2.371,2.371,0,0,1-1.824-.732,2.81,2.81,0,0,1-.681-1.992Zm1.411.1a1.975,1.975,0,0,0,.283,1.152.934.934,0,0,0,.811.4.936.936,0,0,0,.8-.394,2.161,2.161,0,0,0,.288-1.259,1.955,1.955,0,0,0-.288-1.144.936.936,0,0,0-.811-.406.921.921,0,0,0-.8.4A2.2,2.2,0,0,0,5.966,19.41Zm4.243-.09a3.184,3.184,0,0,1,.554-1.968,1.8,1.8,0,0,1,1.516-.732,1.618,1.618,0,0,1,1.274.576V14.5H14.97V22H13.7l-.068-.562a1.661,1.661,0,0,1-1.357.659,1.793,1.793,0,0,1-1.5-.735A3.286,3.286,0,0,1,10.209,19.319Zm1.411.105a2.086,2.086,0,0,0,.259,1.139.843.843,0,0,0,.752.4.944.944,0,0,0,.923-.553V18.319a.931.931,0,0,0-.913-.553Q11.621,17.767,11.621,19.424Zm4.224-.115a3.133,3.133,0,0,1,.3-1.4,2.216,2.216,0,0,1,.872-.952,2.543,2.543,0,0,1,1.321-.337,2.406,2.406,0,0,1,1.746.654,2.626,2.626,0,0,1,.754,1.777l.01.361a2.761,2.761,0,0,1-.679,1.951,2.359,2.359,0,0,1-1.821.735,2.371,2.371,0,0,1-1.824-.732,2.81,2.81,0,0,1-.681-1.992Zm1.411.1a1.975,1.975,0,0,0,.283,1.152,1.017,1.017,0,0,0,1.611,0,2.161,2.161,0,0,0,.288-1.259,1.955,1.955,0,0,0-.288-1.144.936.936,0,0,0-.811-.406.921.921,0,0,0-.8.4A2.2,2.2,0,0,0,17.255,19.41ZM25.7,22H24.282V14.5H25.7Zm.942-2.69a3.133,3.133,0,0,1,.3-1.4,2.216,2.216,0,0,1,.872-.952,2.543,2.543,0,0,1,1.321-.337,2.406,2.406,0,0,1,1.746.654,2.626,2.626,0,0,1,.754,1.777l.01.361a2.761,2.761,0,0,1-.679,1.951,2.631,2.631,0,0,1-3.645,0,2.81,2.81,0,0,1-.681-1.992Zm1.411.1a1.975,1.975,0,0,0,.283,1.152,1.017,1.017,0,0,0,1.611,0,2.161,2.161,0,0,0,.288-1.259,1.955,1.955,0,0,0-.288-1.144.936.936,0,0,0-.811-.406.921.921,0,0,0-.8.4A2.2,2.2,0,0,0,28.051,19.41Zm6.733-.1a3.158,3.158,0,0,1,.554-1.968,1.812,1.812,0,0,1,1.521-.723,1.622,1.622,0,0,1,1.353.649l.093-.552h1.24v7.314H38.129V21.546a1.627,1.627,0,0,1-1.279.552,1.8,1.8,0,0,1-1.5-.732A3.313,3.313,0,0,1,34.785,19.31Zm1.411.1a2.072,2.072,0,0,0,.266,1.154.852.852,0,0,0,.75.4.949.949,0,0,0,.918-.518V18.256a.941.941,0,0,0-.908-.5.862.862,0,0,0-.757.4A2.288,2.288,0,0,0,36.2,19.41Zm7.622,2.053a1.77,1.77,0,0,1-1.445.635,1.669,1.669,0,0,1-1.3-.488,2.084,2.084,0,0,1-.457-1.431V16.717h1.411v3.417q0,.826.752.826a1.019,1.019,0,0,0,.986-.5V16.717h1.416V22H43.857Zm4.863.635a2.594,2.594,0,0,1-1.892-.713,2.534,2.534,0,0,1-.73-1.9v-.137a3.192,3.192,0,0,1,.308-1.423,2.258,2.258,0,0,1,.872-.967,2.446,2.446,0,0,1,1.287-.339,2.193,2.193,0,0,1,1.707.684,2.778,2.778,0,0,1,.623,1.938v.576H47.49a1.311,1.311,0,0,0,.413.83,1.247,1.247,0,0,0,.872.313,1.523,1.523,0,0,0,1.274-.591l.693.776a2.118,2.118,0,0,1-.859.7A2.819,2.819,0,0,1,48.681,22.1Zm-.161-4.341a.882.882,0,0,0-.681.284,1.473,1.473,0,0,0-.334.814h1.963v-.113a1.051,1.051,0,0,0-.254-.728A.91.91,0,0,0,48.52,17.757Zm8.486,2.783a.455.455,0,0,0-.256-.408,2.912,2.912,0,0,0-.823-.266q-1.885-.4-1.885-1.6a1.452,1.452,0,0,1,.583-1.174,2.354,2.354,0,0,1,1.526-.471,2.533,2.533,0,0,1,1.609.474,1.493,1.493,0,0,1,.6,1.23H56.953a.683.683,0,0,0-.2-.5.827.827,0,0,0-.61-.2.845.845,0,0,0-.552.161.509.509,0,0,0-.2.41.435.435,0,0,0,.222.378,2.285,2.285,0,0,0,.75.249,6.122,6.122,0,0,1,.889.237,1.46,1.46,0,0,1,1.118,1.421,1.378,1.378,0,0,1-.62,1.169,2.675,2.675,0,0,1-1.6.447,2.794,2.794,0,0,1-1.179-.237,1.978,1.978,0,0,1-.808-.649,1.509,1.509,0,0,1-.293-.891h1.338a.737.737,0,0,0,.278.576,1.1,1.1,0,0,0,.693.2,1.022,1.022,0,0,0,.613-.154A.479.479,0,0,0,57.006,20.54Zm5.444.923a1.77,1.77,0,0,1-1.445.635,1.669,1.669,0,0,1-1.3-.488,2.084,2.084,0,0,1-.457-1.431V16.717h1.411v3.417q0,.826.752.826a1.019,1.019,0,0,0,.986-.5V16.717h1.416V22H62.49Zm4.629-.5a.926.926,0,0,0,.635-.215.753.753,0,0,0,.254-.571h1.323a1.81,1.81,0,0,1-.293.984,1.933,1.933,0,0,1-.789.693A2.468,2.468,0,0,1,67.1,22.1a2.294,2.294,0,0,1-1.787-.72,2.85,2.85,0,0,1-.654-1.99v-.093a2.817,2.817,0,0,1,.649-1.948,2.267,2.267,0,0,1,1.782-.728,2.222,2.222,0,0,1,1.589.564,2,2,0,0,1,.608,1.5H67.968a.97.97,0,0,0-.254-.67.944.944,0,0,0-1.389.1,2.083,2.083,0,0,0-.251,1.166v.147a2.109,2.109,0,0,0,.249,1.174A.861.861,0,0,0,67.08,20.96ZM72.529,22.1a2.594,2.594,0,0,1-1.892-.713,2.534,2.534,0,0,1-.73-1.9v-.137a3.192,3.192,0,0,1,.308-1.423,2.258,2.258,0,0,1,.872-.967,2.446,2.446,0,0,1,1.287-.339,2.193,2.193,0,0,1,1.707.684,2.778,2.778,0,0,1,.623,1.938v.576H71.337a1.311,1.311,0,0,0,.413.83,1.247,1.247,0,0,0,.872.313,1.523,1.523,0,0,0,1.274-.591l.693.776a2.118,2.118,0,0,1-.859.7A2.819,2.819,0,0,1,72.529,22.1Zm-.161-4.341a.882.882,0,0,0-.681.284,1.473,1.473,0,0,0-.334.814h1.963v-.113a1.051,1.051,0,0,0-.254-.728A.91.91,0,0,0,72.368,17.757Zm2.915,1.563a3.184,3.184,0,0,1,.554-1.968,1.8,1.8,0,0,1,1.516-.732,1.618,1.618,0,0,1,1.274.576V14.5h1.416V22H78.769l-.068-.562a1.661,1.661,0,0,1-1.357.659,1.793,1.793,0,0,1-1.5-.735A3.286,3.286,0,0,1,75.283,19.319Zm1.411.105a2.086,2.086,0,0,0,.259,1.139.843.843,0,0,0,.752.4.944.944,0,0,0,.923-.553V18.319a.931.931,0,0,0-.913-.553Q76.694,17.767,76.694,19.424ZM83.569,22.1a2.594,2.594,0,0,1-1.892-.713,2.534,2.534,0,0,1-.73-1.9v-.137a3.192,3.192,0,0,1,.308-1.423,2.258,2.258,0,0,1,.872-.967,2.446,2.446,0,0,1,1.287-.339,2.193,2.193,0,0,1,1.707.684,2.778,2.778,0,0,1,.623,1.938v.576H82.377a1.311,1.311,0,0,0,.413.83,1.247,1.247,0,0,0,.872.313,1.523,1.523,0,0,0,1.274-.591l.693.776a2.118,2.118,0,0,1-.859.7A2.819,2.819,0,0,1,83.569,22.1Zm-.161-4.341a.882.882,0,0,0-.681.284,1.473,1.473,0,0,0-.334.814h1.963v-.113a1.051,1.051,0,0,0-.254-.728A.91.91,0,0,0,83.408,17.757ZM91.464,22.1a2.594,2.594,0,0,1-1.892-.713,2.534,2.534,0,0,1-.73-1.9v-.137a3.192,3.192,0,0,1,.308-1.423,2.258,2.258,0,0,1,.872-.967,2.446,2.446,0,0,1,1.287-.339,2.193,2.193,0,0,1,1.707.684,2.778,2.778,0,0,1,.623,1.938v.576H90.273a1.311,1.311,0,0,0,.413.83,1.247,1.247,0,0,0,.872.313,1.523,1.523,0,0,0,1.274-.591l.693.776a2.118,2.118,0,0,1-.859.7A2.819,2.819,0,0,1,91.464,22.1ZM91.3,17.757a.882.882,0,0,0-.681.284,1.473,1.473,0,0,0-.334.814H92.25v-.113A1.051,1.051,0,0,0,92,18.014.91.91,0,0,0,91.3,17.757Zm4.434-1.04.044.61a1.845,1.845,0,0,1,1.519-.708,1.533,1.533,0,0,1,1.25.493,2.3,2.3,0,0,1,.42,1.475V22H97.558V18.621a.915.915,0,0,0-.2-.652.874.874,0,0,0-.649-.2.971.971,0,0,0-.894.508V22H94.409V16.717ZM104.018,22H102.6V14.5h1.416Zm4.224,0a1.567,1.567,0,0,1-.142-.474,1.707,1.707,0,0,1-1.333.571,1.876,1.876,0,0,1-1.287-.449,1.445,1.445,0,0,1-.51-1.133,1.493,1.493,0,0,1,.623-1.289,3.072,3.072,0,0,1,1.8-.454h.649v-.3a.871.871,0,0,0-.188-.586.74.74,0,0,0-.593-.22.841.841,0,0,0-.559.171.581.581,0,0,0-.2.469h-1.411a1.417,1.417,0,0,1,.283-.85,1.872,1.872,0,0,1,.8-.613,2.918,2.918,0,0,1,1.162-.222,2.306,2.306,0,0,1,1.55.491,1.717,1.717,0,0,1,.574,1.379v2.29a2.526,2.526,0,0,0,.21,1.138V22Zm-1.167-.981a1.215,1.215,0,0,0,.576-.139.914.914,0,0,0,.391-.374V19.6h-.527q-1.06,0-1.128.732l0,.083a.565.565,0,0,0,.186.435A.721.721,0,0,0,107.075,21.019ZM46.12,34V26.891h2.188a3.322,3.322,0,0,1,1.677.422,2.945,2.945,0,0,1,1.155,1.2,3.7,3.7,0,0,1,.415,1.77v.327a3.715,3.715,0,0,1-.408,1.763A2.92,2.92,0,0,1,50,33.57a3.347,3.347,0,0,1-1.675.43Zm1.465-5.923v4.746h.708a1.591,1.591,0,0,0,1.313-.562,2.537,2.537,0,0,0,.464-1.606v-.376a2.578,2.578,0,0,0-.449-1.643,1.585,1.585,0,0,0-1.313-.559Zm9.048,4.458H54.064L53.576,34H52.019l2.646-7.109h1.357L58.684,34H57.126ZM54.46,31.349h1.777l-.894-2.661Zm10.625-.742a4.292,4.292,0,0,1-.371,1.841,2.8,2.8,0,0,1-1.062,1.221,3.138,3.138,0,0,1-3.162,0,2.822,2.822,0,0,1-1.074-1.213,4.169,4.169,0,0,1-.386-1.814v-.352a4.269,4.269,0,0,1,.378-1.848,2.818,2.818,0,0,1,1.069-1.226,3.134,3.134,0,0,1,3.159,0,2.818,2.818,0,0,1,1.069,1.226,4.257,4.257,0,0,1,.378,1.843ZM63.6,30.284a2.992,2.992,0,0,0-.4-1.7,1.414,1.414,0,0,0-2.28-.007,2.958,2.958,0,0,0-.405,1.682v.347a3.029,3.029,0,0,0,.4,1.689,1.4,1.4,0,0,0,2.285.022,3.012,3.012,0,0,0,.4-1.687Z" transform="translate(5865.111 -8376.252)" fill="#12263f"/>
    <path id="Trazado_623510" data-name="Trazado 623510" d="M6.064,7.5V10H4.6V2.891H7.373a3.209,3.209,0,0,1,1.409.293,2.159,2.159,0,0,1,.935.833,2.321,2.321,0,0,1,.327,1.228,2.041,2.041,0,0,1-.715,1.648,2.979,2.979,0,0,1-1.98.6Zm0-1.187H7.373a1.287,1.287,0,0,0,.886-.273,1,1,0,0,0,.305-.781,1.173,1.173,0,0,0-.308-.845,1.149,1.149,0,0,0-.85-.332H6.064Zm7.861-.269A3.834,3.834,0,0,0,13.417,6a1.034,1.034,0,0,0-1.05.542V10H10.957V4.717H12.29l.039.63a1.308,1.308,0,0,1,1.177-.728,1.479,1.479,0,0,1,.439.063Zm.283,1.27a3.133,3.133,0,0,1,.3-1.4,2.216,2.216,0,0,1,.872-.952A2.543,2.543,0,0,1,16.7,4.619a2.406,2.406,0,0,1,1.746.654A2.626,2.626,0,0,1,19.2,7.051l.01.361a2.761,2.761,0,0,1-.679,1.951,2.359,2.359,0,0,1-1.821.735,2.371,2.371,0,0,1-1.824-.732,2.81,2.81,0,0,1-.681-1.992Zm1.411.1A1.975,1.975,0,0,0,15.9,8.561a1.017,1.017,0,0,0,1.611,0A2.161,2.161,0,0,0,17.8,7.307a1.955,1.955,0,0,0-.288-1.144.936.936,0,0,0-.811-.406.921.921,0,0,0-.8.4A2.2,2.2,0,0,0,15.62,7.41Zm6.152-3.992v1.3h.9V5.752h-.9V8.389a.63.63,0,0,0,.112.42.564.564,0,0,0,.43.127,2.25,2.25,0,0,0,.415-.034V9.971a2.905,2.905,0,0,1-.854.127,1.347,1.347,0,0,1-1.514-1.5V5.752h-.771V4.717h.771v-1.3ZM23.1,7.31a3.133,3.133,0,0,1,.3-1.4,2.216,2.216,0,0,1,.872-.952,2.543,2.543,0,0,1,1.321-.337,2.406,2.406,0,0,1,1.746.654,2.626,2.626,0,0,1,.754,1.777l.01.361a2.761,2.761,0,0,1-.679,1.951,2.631,2.631,0,0,1-3.645,0A2.81,2.81,0,0,1,23.1,7.373Zm1.411.1a1.975,1.975,0,0,0,.283,1.152,1.017,1.017,0,0,0,1.611,0,2.161,2.161,0,0,0,.288-1.259A1.955,1.955,0,0,0,26.4,6.163a.936.936,0,0,0-.811-.406.921.921,0,0,0-.8.4A2.2,2.2,0,0,0,24.506,7.41Zm6.66,1.55a.926.926,0,0,0,.635-.215.753.753,0,0,0,.254-.571h1.323a1.81,1.81,0,0,1-.293.984,1.933,1.933,0,0,1-.789.693,2.468,2.468,0,0,1-1.106.247,2.294,2.294,0,0,1-1.787-.72,2.85,2.85,0,0,1-.654-1.99V7.295A2.817,2.817,0,0,1,29.4,5.347a2.267,2.267,0,0,1,1.782-.728,2.222,2.222,0,0,1,1.589.564,2,2,0,0,1,.608,1.5H32.055a.97.97,0,0,0-.254-.67.944.944,0,0,0-1.389.1,2.083,2.083,0,0,0-.251,1.166v.147A2.109,2.109,0,0,0,30.41,8.6.861.861,0,0,0,31.167,8.96Zm2.8-1.65a3.133,3.133,0,0,1,.3-1.4,2.216,2.216,0,0,1,.872-.952,2.543,2.543,0,0,1,1.321-.337,2.406,2.406,0,0,1,1.746.654,2.626,2.626,0,0,1,.754,1.777l.01.361a2.761,2.761,0,0,1-.679,1.951,2.631,2.631,0,0,1-3.645,0,2.81,2.81,0,0,1-.681-1.992Zm1.411.1a1.975,1.975,0,0,0,.283,1.152,1.017,1.017,0,0,0,1.611,0,2.161,2.161,0,0,0,.288-1.259,1.955,1.955,0,0,0-.288-1.144.936.936,0,0,0-.811-.406.921.921,0,0,0-.8.4A2.2,2.2,0,0,0,35.375,7.41ZM41.328,10H39.912V2.5h1.416Zm.942-2.69a3.133,3.133,0,0,1,.3-1.4,2.216,2.216,0,0,1,.872-.952,2.543,2.543,0,0,1,1.321-.337,2.406,2.406,0,0,1,1.746.654,2.626,2.626,0,0,1,.754,1.777l.01.361A2.761,2.761,0,0,1,46.6,9.363a2.631,2.631,0,0,1-3.645,0,2.81,2.81,0,0,1-.681-1.992Zm1.411.1a1.975,1.975,0,0,0,.283,1.152,1.017,1.017,0,0,0,1.611,0,2.161,2.161,0,0,0,.288-1.259,1.955,1.955,0,0,0-.288-1.144.936.936,0,0,0-.811-.406.921.921,0,0,0-.8.4A2.2,2.2,0,0,0,43.681,7.41Zm6.733-.09a3.184,3.184,0,0,1,.554-1.968,1.8,1.8,0,0,1,1.516-.732,1.618,1.618,0,0,1,1.274.576V2.5h1.416V10H53.9l-.068-.562a1.661,1.661,0,0,1-1.357.659,1.793,1.793,0,0,1-1.5-.735A3.286,3.286,0,0,1,50.415,7.319Zm1.411.105a2.086,2.086,0,0,0,.259,1.139.843.843,0,0,0,.752.4.944.944,0,0,0,.923-.553V6.319a.931.931,0,0,0-.913-.553Q51.826,5.767,51.826,7.424ZM58.7,10.1a2.594,2.594,0,0,1-1.892-.713,2.534,2.534,0,0,1-.73-1.9V7.349a3.192,3.192,0,0,1,.308-1.423,2.258,2.258,0,0,1,.872-.967,2.446,2.446,0,0,1,1.287-.339,2.193,2.193,0,0,1,1.707.684,2.778,2.778,0,0,1,.623,1.938v.576H57.509a1.311,1.311,0,0,0,.413.83,1.247,1.247,0,0,0,.872.313,1.523,1.523,0,0,0,1.274-.591l.693.776a2.118,2.118,0,0,1-.859.7A2.819,2.819,0,0,1,58.7,10.1ZM58.54,5.757a.882.882,0,0,0-.681.284,1.473,1.473,0,0,0-.334.814h1.963V6.743a1.051,1.051,0,0,0-.254-.728A.91.91,0,0,0,58.54,5.757Zm7.822,3.2A.926.926,0,0,0,67,8.745a.753.753,0,0,0,.254-.571h1.323a1.81,1.81,0,0,1-.293.984,1.933,1.933,0,0,1-.789.693,2.468,2.468,0,0,1-1.106.247,2.294,2.294,0,0,1-1.787-.72,2.85,2.85,0,0,1-.654-1.99V7.295a2.817,2.817,0,0,1,.649-1.948,2.267,2.267,0,0,1,1.782-.728,2.222,2.222,0,0,1,1.589.564,2,2,0,0,1,.608,1.5H67.25A.97.97,0,0,0,67,6.015a.944.944,0,0,0-1.389.1,2.083,2.083,0,0,0-.251,1.166v.147A2.109,2.109,0,0,0,65.6,8.6.861.861,0,0,0,66.362,8.96Zm2.8-1.65a3.133,3.133,0,0,1,.3-1.4,2.216,2.216,0,0,1,.872-.952,2.543,2.543,0,0,1,1.321-.337,2.406,2.406,0,0,1,1.746.654,2.626,2.626,0,0,1,.754,1.777l.01.361a2.761,2.761,0,0,1-.679,1.951,2.631,2.631,0,0,1-3.645,0,2.81,2.81,0,0,1-.681-1.992Zm1.411.1a1.975,1.975,0,0,0,.283,1.152,1.017,1.017,0,0,0,1.611,0,2.161,2.161,0,0,0,.288-1.259,1.955,1.955,0,0,0-.288-1.144.936.936,0,0,0-.811-.406.921.921,0,0,0-.8.4A2.2,2.2,0,0,0,70.571,7.41Zm5.762-2.693.044.61A1.845,1.845,0,0,1,77.9,4.619a1.533,1.533,0,0,1,1.25.493,2.3,2.3,0,0,1,.42,1.475V10H78.154V6.621a.915.915,0,0,0-.2-.652.874.874,0,0,0-.649-.2.971.971,0,0,0-.894.508V10H75V4.717ZM83.5,8.54a.455.455,0,0,0-.256-.408,2.912,2.912,0,0,0-.823-.266q-1.885-.4-1.885-1.6a1.452,1.452,0,0,1,.583-1.174,2.354,2.354,0,0,1,1.526-.471,2.533,2.533,0,0,1,1.609.474,1.493,1.493,0,0,1,.6,1.23H83.442a.683.683,0,0,0-.2-.5.827.827,0,0,0-.61-.2.845.845,0,0,0-.552.161.509.509,0,0,0-.2.41.435.435,0,0,0,.222.378,2.285,2.285,0,0,0,.75.249,6.122,6.122,0,0,1,.889.237,1.46,1.46,0,0,1,1.118,1.421,1.378,1.378,0,0,1-.62,1.169,2.675,2.675,0,0,1-1.6.447,2.794,2.794,0,0,1-1.179-.237,1.979,1.979,0,0,1-.808-.649,1.509,1.509,0,0,1-.293-.891H81.7a.737.737,0,0,0,.278.576,1.1,1.1,0,0,0,.693.2,1.022,1.022,0,0,0,.613-.154A.479.479,0,0,0,83.5,8.54ZM88.208,10.1a2.594,2.594,0,0,1-1.892-.713,2.534,2.534,0,0,1-.73-1.9V7.349a3.192,3.192,0,0,1,.308-1.423,2.258,2.258,0,0,1,.872-.967,2.446,2.446,0,0,1,1.287-.339,2.193,2.193,0,0,1,1.707.684,2.778,2.778,0,0,1,.623,1.938v.576H87.016a1.311,1.311,0,0,0,.413.83,1.247,1.247,0,0,0,.872.313,1.523,1.523,0,0,0,1.274-.591l.693.776a2.118,2.118,0,0,1-.859.7A2.819,2.819,0,0,1,88.208,10.1Zm-.161-4.341a.882.882,0,0,0-.681.284,1.473,1.473,0,0,0-.334.814h1.963V6.743a1.051,1.051,0,0,0-.254-.728A.91.91,0,0,0,88.046,5.757Zm4.434-1.04.044.61a1.845,1.845,0,0,1,1.519-.708,1.533,1.533,0,0,1,1.25.493,2.3,2.3,0,0,1,.42,1.475V10H94.3V6.621a.915.915,0,0,0-.2-.652.874.874,0,0,0-.649-.2.971.971,0,0,0-.894.508V10H91.152V4.717ZM99.643,8.54a.455.455,0,0,0-.256-.408,2.912,2.912,0,0,0-.823-.266q-1.885-.4-1.885-1.6a1.452,1.452,0,0,1,.583-1.174,2.354,2.354,0,0,1,1.526-.471,2.533,2.533,0,0,1,1.609.474,1.493,1.493,0,0,1,.6,1.23H99.589a.683.683,0,0,0-.2-.5.827.827,0,0,0-.61-.2.845.845,0,0,0-.552.161.509.509,0,0,0-.2.41.435.435,0,0,0,.222.378,2.285,2.285,0,0,0,.75.249,6.122,6.122,0,0,1,.889.237,1.46,1.46,0,0,1,1.118,1.421,1.378,1.378,0,0,1-.62,1.169,2.675,2.675,0,0,1-1.6.447,2.794,2.794,0,0,1-1.179-.237,1.979,1.979,0,0,1-.808-.649,1.509,1.509,0,0,1-.293-.891h1.338a.737.737,0,0,0,.278.576,1.1,1.1,0,0,0,.693.2,1.022,1.022,0,0,0,.613-.154A.479.479,0,0,0,99.643,8.54ZM101.7,7.31a3.133,3.133,0,0,1,.3-1.4,2.216,2.216,0,0,1,.872-.952,2.543,2.543,0,0,1,1.321-.337,2.406,2.406,0,0,1,1.746.654,2.626,2.626,0,0,1,.754,1.777l.01.361a2.761,2.761,0,0,1-.679,1.951,2.631,2.631,0,0,1-3.645,0,2.81,2.81,0,0,1-.681-1.992Zm1.411.1a1.975,1.975,0,0,0,.283,1.152,1.017,1.017,0,0,0,1.611,0,2.161,2.161,0,0,0,.288-1.259,1.955,1.955,0,0,0-.288-1.144.936.936,0,0,0-.811-.406.921.921,0,0,0-.8.4A2.2,2.2,0,0,0,103.115,7.41Z" transform="translate(6037.111 -8493.252)" fill="#12263f"/>
  </g>
</svg>
