<svg xmlns="http://www.w3.org/2000/svg" width="322.05" height="235.02" viewBox="0 0 322.05 235.02">
  <g id="Grupo_949508" data-name="Grupo 949508" transform="translate(-7435.162 8955.416)">
    <g id="Grupo_949504" data-name="Grupo 949504" transform="translate(386.052 -422.744)">
      <path id="Trazado_623391" data-name="Trazado 623391" d="M.75-188.85c0-5.191,3.756-9.4,8.389-9.4H132.361c4.633,0,8.389,4.209,8.389,9.4v75.2c0,5.191-3.756,9.4-8.389,9.4H9.139c-4.633,0-8.389-4.209-8.389-9.4Z" transform="translate(7049.109 -8333.672)" fill="#efa691" fill-rule="evenodd"/>
      <g id="Grupo_949270" data-name="Grupo 949270" transform="translate(7049.859 -8531.922)">
        <path id="Trazado_623392" data-name="Trazado 623392" d="M0,9.4C0,4.209,3.756,0,8.389,0H131.611C136.244,0,140,4.209,140,9.4V84.6c0,5.191-3.756,9.4-8.389,9.4H8.389C3.756,94,0,89.791,0,84.6Z" fill="none" stroke="#fff" stroke-miterlimit="8" stroke-width="1.5"/>
      </g>
    </g>
    <path id="Trazado_623393" data-name="Trazado 623393" d="M134.5-170.8h13.25V-177L161-161.5,147.75-146v-6.2H134.5Z" transform="translate(7448.437 -8746.166)" fill="#ff5422" fill-rule="evenodd"/>
    <g id="Grupo_949505" data-name="Grupo 949505" transform="translate(385.602 -422.744)">
      <path id="Trazado_623394" data-name="Trazado 623394" d="M173.75-188.85c0-5.191,3.756-9.4,8.389-9.4H305.361c4.633,0,8.389,4.209,8.389,9.4v75.2c0,5.191-3.756,9.4-8.389,9.4H182.139c-4.633,0-8.389-4.209-8.389-9.4Z" transform="translate(7057.109 -8333.672)" fill="#95a0b9" fill-rule="evenodd"/>
      <g id="Grupo_949276" data-name="Grupo 949276" transform="translate(7230.86 -8531.922)">
        <path id="Trazado_623395" data-name="Trazado 623395" d="M0,9.4C0,4.209,3.756,0,8.389,0H131.611C136.244,0,140,4.209,140,9.4V84.6c0,5.191-3.756,9.4-8.389,9.4H8.389C3.756,94,0,89.791,0,84.6Z" fill="none" stroke="#fff" stroke-miterlimit="8" stroke-width="1.5"/>
      </g>
    </g>
    <path id="Trazado_623396" data-name="Trazado 623396" d="M244.3-113.5v13h6.2L235-87.5l-15.5-13h6.2v-13Z" transform="translate(7451.461 -8737.581)" fill="#262f43" fill-rule="evenodd"/>
    <g id="Grupo_949507" data-name="Grupo 949507" transform="translate(369.602 -442.224)">
      <path id="Trazado_623397" data-name="Trazado 623397" d="M173.75-65.35c0-5.191,3.756-9.4,8.389-9.4H305.361c4.633,0,8.389,4.209,8.389,9.4V9.85c0,5.191-3.756,9.4-8.389,9.4H182.139c-4.633,0-8.389-4.209-8.389-9.4Z" transform="translate(7073.109 -8298.172)" fill="#a4a4a4" fill-rule="evenodd"/>
      <g id="Grupo_949278" data-name="Grupo 949278" transform="translate(7246.859 -8372.922)">
        <path id="Trazado_623398" data-name="Trazado 623398" d="M0,9.4C0,4.209,3.756,0,8.389,0H131.611C136.244,0,140,4.209,140,9.4V84.6c0,5.191-3.756,9.4-8.389,9.4H8.389C3.756,94,0,89.791,0,84.6Z" fill="none" stroke="#fff" stroke-miterlimit="8" stroke-width="1.5"/>
      </g>
    </g>
    <path id="Trazado_623399" data-name="Trazado 623399" d="M162.5-28.6H149.25v6.1L136-37.75,149.25-53v6.1H162.5Z" transform="translate(7446.937 -8730.746)" fill="#a4a4a4" fill-rule="evenodd"/>
    <g id="Grupo_949506" data-name="Grupo 949506" transform="translate(386.052 -442.574)">
      <path id="Trazado_623400" data-name="Trazado 623400" d="M.75-65.35c0-5.191,3.756-9.4,8.389-9.4H132.361c4.633,0,8.389,4.209,8.389,9.4V9.85c0,5.191-3.756,9.4-8.389,9.4H9.139C4.506,19.25.75,15.041.75,9.85Z" transform="translate(7049.109 -8298.172)" fill="#77aae3" fill-rule="evenodd"/>
      <g id="Grupo_949281" data-name="Grupo 949281" transform="translate(7049.859 -8372.922)">
        <path id="Trazado_623401" data-name="Trazado 623401" d="M0,9.4C0,4.209,3.756,0,8.389,0H131.611C136.244,0,140,4.209,140,9.4V84.6c0,5.191-3.756,9.4-8.389,9.4H8.389C3.756,94,0,89.791,0,84.6Z" fill="none" stroke="#fff" stroke-miterlimit="8" stroke-width="1.5"/>
      </g>
    </g>
    <path id="Trazado_623477" data-name="Trazado 623477" d="M31.056,11.685a3.522,3.522,0,0,1-1.186,2.529,4.165,4.165,0,0,1-2.82.923,3.745,3.745,0,0,1-3.011-1.289,5.284,5.284,0,0,1-1.1-3.538V9.7a5.966,5.966,0,0,1,.506-2.529,3.791,3.791,0,0,1,1.446-1.678,4.05,4.05,0,0,1,2.184-.584,4.058,4.058,0,0,1,2.775.923A3.785,3.785,0,0,1,31.07,8.424H29.019a2.079,2.079,0,0,0-.537-1.4,1.987,1.987,0,0,0-1.4-.434,1.742,1.742,0,0,0-1.535.735,4.118,4.118,0,0,0-.523,2.28v.752a4.408,4.408,0,0,0,.489,2.358,1.71,1.71,0,0,0,1.542.745,2.025,2.025,0,0,0,1.418-.434,1.961,1.961,0,0,0,.537-1.343ZM36.559,15a2.194,2.194,0,0,1-.2-.663,2.39,2.39,0,0,1-1.866.8,2.626,2.626,0,0,1-1.8-.629,2.023,2.023,0,0,1-.714-1.586,2.09,2.09,0,0,1,.872-1.8,4.3,4.3,0,0,1,2.519-.636h.909v-.424a1.219,1.219,0,0,0-.263-.82,1.035,1.035,0,0,0-.831-.308,1.177,1.177,0,0,0-.783.239.813.813,0,0,0-.284.656H32.143a1.984,1.984,0,0,1,.4-1.189,2.621,2.621,0,0,1,1.121-.858,4.086,4.086,0,0,1,1.627-.311,3.228,3.228,0,0,1,2.17.687,2.4,2.4,0,0,1,.8,1.931v3.206a3.536,3.536,0,0,0,.294,1.593V15Zm-1.634-1.374a1.7,1.7,0,0,0,.807-.195,1.28,1.28,0,0,0,.547-.523V11.637h-.738q-1.483,0-1.579,1.025l-.007.116a.791.791,0,0,0,.26.608A1.009,1.009,0,0,0,34.925,13.626ZM46.437,11.37a4.436,4.436,0,0,1-.776,2.738,2.488,2.488,0,0,1-2.1,1.029,2.3,2.3,0,0,1-1.812-.779v3.486H39.779V7.6h1.832l.068.725a2.322,2.322,0,0,1,1.873-.861,2.5,2.5,0,0,1,2.126,1.012,4.556,4.556,0,0,1,.759,2.789Zm-1.976-.144A2.911,2.911,0,0,0,44.1,9.634a1.191,1.191,0,0,0-1.063-.561,1.294,1.294,0,0,0-1.278.711v3.028a1.316,1.316,0,0,0,1.292.731Q44.461,13.544,44.461,11.227ZM51.947,15a2.194,2.194,0,0,1-.2-.663,2.39,2.39,0,0,1-1.866.8,2.626,2.626,0,0,1-1.8-.629,2.023,2.023,0,0,1-.714-1.586,2.09,2.09,0,0,1,.872-1.8,4.3,4.3,0,0,1,2.519-.636h.909v-.424a1.219,1.219,0,0,0-.263-.82,1.035,1.035,0,0,0-.831-.308,1.177,1.177,0,0,0-.783.239.813.813,0,0,0-.284.656H47.531a1.984,1.984,0,0,1,.4-1.189,2.621,2.621,0,0,1,1.121-.858,4.086,4.086,0,0,1,1.627-.311,3.228,3.228,0,0,1,2.17.687,2.4,2.4,0,0,1,.8,1.931v3.206a3.536,3.536,0,0,0,.294,1.593V15Zm-1.634-1.374a1.7,1.7,0,0,0,.807-.195,1.28,1.28,0,0,0,.547-.523V11.637h-.738q-1.483,0-1.579,1.025l-.007.116a.791.791,0,0,0,.26.608A1.009,1.009,0,0,0,50.313,13.626Zm7.93-.082a1.3,1.3,0,0,0,.889-.3,1.054,1.054,0,0,0,.355-.8h1.853a2.534,2.534,0,0,1-.41,1.377,2.706,2.706,0,0,1-1.1.971,3.455,3.455,0,0,1-1.548.345,3.211,3.211,0,0,1-2.5-1.008,3.99,3.99,0,0,1-.916-2.786v-.13a3.944,3.944,0,0,1,.909-2.728,3.174,3.174,0,0,1,2.5-1.019,3.111,3.111,0,0,1,2.225.79,2.8,2.8,0,0,1,.851,2.1H59.487a1.358,1.358,0,0,0-.355-.938,1.321,1.321,0,0,0-1.945.142,2.916,2.916,0,0,0-.352,1.633V11.4a2.953,2.953,0,0,0,.349,1.643A1.2,1.2,0,0,0,58.243,13.544ZM64.552,15H62.57V7.6h1.982Zm-2.1-9.311a.973.973,0,0,1,.3-.731,1.281,1.281,0,0,1,1.617,0,.967.967,0,0,1,.3.731.97.97,0,0,1-.3.738,1.267,1.267,0,0,1-1.606,0A.97.97,0,0,1,62.454,5.689Zm3.418,5.558a4.457,4.457,0,0,1,.776-2.755A2.517,2.517,0,0,1,68.77,7.467a2.265,2.265,0,0,1,1.784.807V4.5h1.982V15H70.752l-.1-.786a2.325,2.325,0,0,1-1.9.923,2.511,2.511,0,0,1-2.1-1.029A4.6,4.6,0,0,1,65.872,11.247Zm1.976.147a2.92,2.92,0,0,0,.362,1.6,1.18,1.18,0,0,0,1.053.555,1.322,1.322,0,0,0,1.292-.774V9.847a1.3,1.3,0,0,0-1.278-.774Q67.847,9.073,67.847,11.394ZM78.354,15a2.194,2.194,0,0,1-.2-.663,2.39,2.39,0,0,1-1.866.8,2.626,2.626,0,0,1-1.8-.629,2.023,2.023,0,0,1-.714-1.586,2.09,2.09,0,0,1,.872-1.8,4.3,4.3,0,0,1,2.519-.636h.909v-.424a1.219,1.219,0,0,0-.263-.82,1.035,1.035,0,0,0-.831-.308,1.177,1.177,0,0,0-.783.239.813.813,0,0,0-.284.656H73.938a1.985,1.985,0,0,1,.4-1.189,2.621,2.621,0,0,1,1.121-.858,4.086,4.086,0,0,1,1.627-.311,3.228,3.228,0,0,1,2.17.687,2.4,2.4,0,0,1,.8,1.931v3.206a3.536,3.536,0,0,0,.294,1.593V15ZM76.72,13.626a1.7,1.7,0,0,0,.807-.195,1.28,1.28,0,0,0,.547-.523V11.637h-.738q-1.483,0-1.579,1.025l-.007.116a.791.791,0,0,0,.26.608A1.009,1.009,0,0,0,76.72,13.626Zm4.546-2.379a4.457,4.457,0,0,1,.776-2.755,2.517,2.517,0,0,1,2.123-1.025,2.265,2.265,0,0,1,1.784.807V4.5h1.982V15H86.147l-.1-.786a2.325,2.325,0,0,1-1.9.923,2.511,2.511,0,0,1-2.1-1.029A4.6,4.6,0,0,1,81.266,11.247Zm1.976.147a2.92,2.92,0,0,0,.362,1.6,1.18,1.18,0,0,0,1.053.555,1.322,1.322,0,0,0,1.292-.774V9.847a1.3,1.3,0,0,0-1.278-.774Q83.242,9.073,83.242,11.394Zm9.4-.147a4.457,4.457,0,0,1,.776-2.755A2.517,2.517,0,0,1,95.54,7.467a2.265,2.265,0,0,1,1.784.807V4.5h1.982V15H97.522l-.1-.786a2.325,2.325,0,0,1-1.9.923,2.511,2.511,0,0,1-2.1-1.029A4.6,4.6,0,0,1,92.641,11.247Zm1.976.147a2.92,2.92,0,0,0,.362,1.6,1.18,1.18,0,0,0,1.053.555,1.322,1.322,0,0,0,1.292-.774V9.847a1.3,1.3,0,0,0-1.278-.774Q94.617,9.073,94.617,11.394Zm9.625,3.743a3.631,3.631,0,0,1-2.649-1,3.548,3.548,0,0,1-1.022-2.659v-.191A4.468,4.468,0,0,1,101,9.3a3.161,3.161,0,0,1,1.22-1.354,3.425,3.425,0,0,1,1.8-.475,3.07,3.07,0,0,1,2.389.957,3.889,3.889,0,0,1,.872,2.714v.807h-4.71a1.835,1.835,0,0,0,.578,1.162,1.746,1.746,0,0,0,1.22.438,2.132,2.132,0,0,0,1.784-.827l.971,1.087a2.966,2.966,0,0,1-1.2.981A3.947,3.947,0,0,1,104.242,15.137Zm-.226-6.077a1.234,1.234,0,0,0-.954.4,2.062,2.062,0,0,0-.468,1.14h2.748V10.44a1.471,1.471,0,0,0-.355-1.02A1.274,1.274,0,0,0,104.016,9.06ZM9.608,23.37a4.436,4.436,0,0,1-.776,2.738,2.488,2.488,0,0,1-2.1,1.029,2.3,2.3,0,0,1-1.812-.779v3.486H2.95V19.6H4.782l.068.725a2.322,2.322,0,0,1,1.873-.861A2.5,2.5,0,0,1,8.85,20.479a4.556,4.556,0,0,1,.759,2.789Zm-1.976-.144a2.911,2.911,0,0,0-.366-1.593A1.191,1.191,0,0,0,6.2,21.073a1.294,1.294,0,0,0-1.278.711v3.028a1.316,1.316,0,0,0,1.292.731Q7.633,25.544,7.633,23.227Zm7.355-1.771a5.367,5.367,0,0,0-.711-.055,1.447,1.447,0,0,0-1.47.759V27H10.832V19.6H12.7l.055.882A1.831,1.831,0,0,1,14.4,19.467a2.07,2.07,0,0,1,.615.089Zm.4,1.777a4.387,4.387,0,0,1,.424-1.962,3.1,3.1,0,0,1,1.22-1.333,3.56,3.56,0,0,1,1.849-.472,3.368,3.368,0,0,1,2.444.916,3.676,3.676,0,0,1,1.056,2.488l.014.506a3.866,3.866,0,0,1-.95,2.731,3.3,3.3,0,0,1-2.55,1.029,3.319,3.319,0,0,1-2.553-1.025,3.934,3.934,0,0,1-.954-2.789Zm1.976.14a2.765,2.765,0,0,0,.4,1.612,1.424,1.424,0,0,0,2.256.007,3.025,3.025,0,0,0,.4-1.763,2.737,2.737,0,0,0-.4-1.6,1.311,1.311,0,0,0-1.135-.568,1.29,1.29,0,0,0-1.121.565A3.076,3.076,0,0,0,17.36,23.374Zm5.961-.127a4.335,4.335,0,0,1,.81-2.741,2.625,2.625,0,0,1,2.184-1.039,2.3,2.3,0,0,1,1.894.834l.082-.7h1.791v7.15a3.161,3.161,0,0,1-.441,1.688A2.832,2.832,0,0,1,28.4,29.536a4.362,4.362,0,0,1-1.873.376,4.056,4.056,0,0,1-1.586-.325,2.815,2.815,0,0,1-1.169-.837l.875-1.2a2.314,2.314,0,0,0,1.791.827,1.694,1.694,0,0,0,1.224-.42,1.577,1.577,0,0,0,.438-1.193v-.4a2.285,2.285,0,0,1-1.8.772,2.618,2.618,0,0,1-2.157-1.042,4.334,4.334,0,0,1-.824-2.765Zm1.976.147a2.7,2.7,0,0,0,.4,1.578,1.283,1.283,0,0,0,1.107.572,1.372,1.372,0,0,0,1.292-.678V21.751a1.369,1.369,0,0,0-1.278-.678,1.291,1.291,0,0,0-1.118.582A3.042,3.042,0,0,0,25.3,23.394Zm10.459-1.938a5.367,5.367,0,0,0-.711-.055,1.447,1.447,0,0,0-1.47.759V27H31.6V19.6h1.866l.055.882a1.831,1.831,0,0,1,1.647-1.019,2.07,2.07,0,0,1,.615.089ZM40.787,27a2.194,2.194,0,0,1-.2-.663,2.39,2.39,0,0,1-1.866.8,2.626,2.626,0,0,1-1.8-.629,2.023,2.023,0,0,1-.714-1.586,2.09,2.09,0,0,1,.872-1.8,4.3,4.3,0,0,1,2.519-.636h.909v-.424a1.219,1.219,0,0,0-.263-.82,1.035,1.035,0,0,0-.831-.308,1.177,1.177,0,0,0-.783.239.813.813,0,0,0-.284.656H36.371a1.984,1.984,0,0,1,.4-1.189,2.621,2.621,0,0,1,1.121-.858,4.086,4.086,0,0,1,1.627-.311,3.228,3.228,0,0,1,2.17.687,2.4,2.4,0,0,1,.8,1.931v3.206a3.536,3.536,0,0,0,.294,1.593V27Zm-1.634-1.374a1.7,1.7,0,0,0,.807-.195,1.28,1.28,0,0,0,.547-.523V23.637h-.738q-1.483,0-1.579,1.025l-.007.116a.791.791,0,0,0,.26.608A1.009,1.009,0,0,0,39.153,25.626ZM45.859,19.6l.062.827a2.6,2.6,0,0,1,2.126-.964,1.973,1.973,0,0,1,1.962,1.128,2.54,2.54,0,0,1,2.222-1.128,2.206,2.206,0,0,1,1.791.7,3.221,3.221,0,0,1,.588,2.109V27H52.627V22.283a1.408,1.408,0,0,0-.246-.919,1.091,1.091,0,0,0-.868-.291,1.233,1.233,0,0,0-1.23.848L50.289,27H48.313V22.29a1.391,1.391,0,0,0-.253-.93,1.1,1.1,0,0,0-.861-.287,1.28,1.28,0,0,0-1.217.7V27H44.007V19.6ZM60.413,27a2.194,2.194,0,0,1-.2-.663,2.39,2.39,0,0,1-1.866.8,2.626,2.626,0,0,1-1.8-.629,2.023,2.023,0,0,1-.714-1.586,2.09,2.09,0,0,1,.872-1.8,4.3,4.3,0,0,1,2.519-.636h.909v-.424a1.219,1.219,0,0,0-.263-.82,1.035,1.035,0,0,0-.831-.308,1.177,1.177,0,0,0-.783.239.813.813,0,0,0-.284.656H56a1.984,1.984,0,0,1,.4-1.189,2.621,2.621,0,0,1,1.121-.858,4.086,4.086,0,0,1,1.627-.311,3.228,3.228,0,0,1,2.17.687,2.4,2.4,0,0,1,.8,1.931v3.206a3.536,3.536,0,0,0,.294,1.593V27Zm-1.634-1.374a1.7,1.7,0,0,0,.807-.195,1.28,1.28,0,0,0,.547-.523V23.637h-.738q-1.483,0-1.579,1.025l-.007.116a.791.791,0,0,0,.26.608A1.009,1.009,0,0,0,58.779,25.626Zm9.01-4.17a5.367,5.367,0,0,0-.711-.055,1.447,1.447,0,0,0-1.47.759V27H63.633V19.6H65.5l.055.882A1.831,1.831,0,0,1,67.2,19.467a2.07,2.07,0,0,1,.615.089ZM76.512,27a2.194,2.194,0,0,1-.2-.663,2.39,2.39,0,0,1-1.866.8,2.626,2.626,0,0,1-1.8-.629,2.023,2.023,0,0,1-.714-1.586,2.09,2.09,0,0,1,.872-1.8,4.3,4.3,0,0,1,2.519-.636h.909v-.424a1.219,1.219,0,0,0-.263-.82,1.035,1.035,0,0,0-.831-.308,1.177,1.177,0,0,0-.783.239.813.813,0,0,0-.284.656H72.1a1.985,1.985,0,0,1,.4-1.189,2.621,2.621,0,0,1,1.121-.858,4.086,4.086,0,0,1,1.627-.311,3.228,3.228,0,0,1,2.17.687,2.4,2.4,0,0,1,.8,1.931v3.206a3.536,3.536,0,0,0,.294,1.593V27Zm-1.634-1.374a1.7,1.7,0,0,0,.807-.195,1.28,1.28,0,0,0,.547-.523V23.637h-.738q-1.483,0-1.579,1.025l-.007.116a.791.791,0,0,0,.26.608A1.009,1.009,0,0,0,74.878,25.626Zm7.93-.082a1.3,1.3,0,0,0,.889-.3,1.054,1.054,0,0,0,.355-.8H85.9a2.534,2.534,0,0,1-.41,1.377,2.706,2.706,0,0,1-1.1.971,3.455,3.455,0,0,1-1.548.345,3.211,3.211,0,0,1-2.5-1.008,3.99,3.99,0,0,1-.916-2.786v-.13a3.944,3.944,0,0,1,.909-2.728,3.174,3.174,0,0,1,2.5-1.019,3.111,3.111,0,0,1,2.225.79,2.8,2.8,0,0,1,.851,2.1H84.052a1.358,1.358,0,0,0-.355-.938,1.321,1.321,0,0,0-1.945.142A2.916,2.916,0,0,0,81.4,23.2V23.4a2.953,2.953,0,0,0,.349,1.643A1.2,1.2,0,0,0,82.808,25.544Zm7.3,0a1.3,1.3,0,0,0,.889-.3,1.054,1.054,0,0,0,.355-.8h1.853a2.534,2.534,0,0,1-.41,1.377,2.706,2.706,0,0,1-1.1.971,3.455,3.455,0,0,1-1.548.345,3.211,3.211,0,0,1-2.5-1.008,3.99,3.99,0,0,1-.916-2.786v-.13a3.944,3.944,0,0,1,.909-2.728,3.174,3.174,0,0,1,2.5-1.019,3.111,3.111,0,0,1,2.225.79,2.8,2.8,0,0,1,.851,2.1H91.353A1.358,1.358,0,0,0,91,21.42a1.321,1.321,0,0,0-1.945.142A2.916,2.916,0,0,0,88.7,23.2V23.4a2.953,2.953,0,0,0,.349,1.643A1.2,1.2,0,0,0,90.108,25.544ZM96.418,27H94.436V19.6h1.982Zm-2.1-9.311a.973.973,0,0,1,.3-.731,1.281,1.281,0,0,1,1.617,0,1.044,1.044,0,0,1,0,1.47,1.267,1.267,0,0,1-1.606,0A.97.97,0,0,1,94.319,17.689Zm3.418,5.544a4.387,4.387,0,0,1,.424-1.962,3.1,3.1,0,0,1,1.22-1.333,3.56,3.56,0,0,1,1.849-.472,3.368,3.368,0,0,1,2.444.916,3.676,3.676,0,0,1,1.056,2.488l.014.506a3.866,3.866,0,0,1-.95,2.731,3.683,3.683,0,0,1-5.1,0,3.934,3.934,0,0,1-.954-2.789Zm1.976.14a2.765,2.765,0,0,0,.4,1.612,1.424,1.424,0,0,0,2.256.007,3.025,3.025,0,0,0,.4-1.763,2.737,2.737,0,0,0-.4-1.6,1.311,1.311,0,0,0-1.135-.568,1.29,1.29,0,0,0-1.121.565A3.076,3.076,0,0,0,99.713,23.374Zm8.066-3.77.062.854a2.582,2.582,0,0,1,2.126-.991,2.146,2.146,0,0,1,1.75.69,3.221,3.221,0,0,1,.588,2.064V27h-1.976V22.27a1.282,1.282,0,0,0-.273-.913,1.224,1.224,0,0,0-.909-.284,1.359,1.359,0,0,0-1.251.711V27H105.92V19.6Zm9.427,7.533a3.631,3.631,0,0,1-2.649-1,3.548,3.548,0,0,1-1.022-2.659v-.191a4.468,4.468,0,0,1,.431-1.993,3.161,3.161,0,0,1,1.22-1.354,3.425,3.425,0,0,1,1.8-.475,3.07,3.07,0,0,1,2.389.957,3.889,3.889,0,0,1,.872,2.714v.807h-4.71a1.835,1.835,0,0,0,.578,1.162,1.746,1.746,0,0,0,1.22.438,2.132,2.132,0,0,0,1.784-.827l.971,1.087a2.966,2.966,0,0,1-1.2.981A3.947,3.947,0,0,1,117.206,27.137Zm-.226-6.077a1.234,1.234,0,0,0-.954.4,2.062,2.062,0,0,0-.468,1.14h2.748V22.44a1.471,1.471,0,0,0-.355-1.02A1.274,1.274,0,0,0,116.98,21.06Zm8.395,3.9a.637.637,0,0,0-.359-.571,4.077,4.077,0,0,0-1.152-.373q-2.639-.554-2.639-2.242a2.032,2.032,0,0,1,.817-1.644,3.3,3.3,0,0,1,2.136-.66,3.547,3.547,0,0,1,2.252.663,2.09,2.09,0,0,1,.844,1.723H125.3a.956.956,0,0,0-.273-.7,1.157,1.157,0,0,0-.854-.277,1.182,1.182,0,0,0-.772.226.712.712,0,0,0-.273.574.609.609,0,0,0,.311.53,3.2,3.2,0,0,0,1.049.349,8.571,8.571,0,0,1,1.244.332,2.044,2.044,0,0,1,1.565,1.989,1.929,1.929,0,0,1-.868,1.637,3.745,3.745,0,0,1-2.242.625,3.912,3.912,0,0,1-1.651-.332A2.77,2.77,0,0,1,121.4,25.9a2.113,2.113,0,0,1-.41-1.248h1.873a1.031,1.031,0,0,0,.39.807,1.546,1.546,0,0,0,.971.28,1.43,1.43,0,0,0,.858-.215A.67.67,0,0,0,125.375,24.956ZM23.082,36.2l1.367-4.6h2.119l-2.974,8.545-.164.39a2.255,2.255,0,0,1-2.187,1.449,3.108,3.108,0,0,1-.875-.13v-1.5l.3.007a1.625,1.625,0,0,0,.837-.171,1.123,1.123,0,0,0,.434-.567l.232-.608L19.582,31.6h2.126Zm9.68-3.794a2.466,2.466,0,0,1,1.976-.943q2.406,0,2.44,2.8V39H35.2V34.317a1.374,1.374,0,0,0-.273-.94,1.172,1.172,0,0,0-.909-.3,1.345,1.345,0,0,0-1.258.67V39H30.786V28.5h1.976ZM42.954,39a2.194,2.194,0,0,1-.2-.663,2.39,2.39,0,0,1-1.866.8,2.626,2.626,0,0,1-1.8-.629,2.023,2.023,0,0,1-.714-1.586,2.09,2.09,0,0,1,.872-1.8,4.3,4.3,0,0,1,2.519-.636h.909v-.424a1.219,1.219,0,0,0-.263-.82,1.035,1.035,0,0,0-.831-.308,1.177,1.177,0,0,0-.783.239.813.813,0,0,0-.284.656H38.538a1.984,1.984,0,0,1,.4-1.189,2.621,2.621,0,0,1,1.121-.858,4.086,4.086,0,0,1,1.627-.311,3.228,3.228,0,0,1,2.17.687,2.4,2.4,0,0,1,.8,1.931v3.206a3.536,3.536,0,0,0,.294,1.593V39ZM41.32,37.626a1.7,1.7,0,0,0,.807-.195,1.28,1.28,0,0,0,.547-.523V35.637h-.738q-1.483,0-1.579,1.025l-.007.116a.791.791,0,0,0,.26.608A1.009,1.009,0,0,0,41.32,37.626Zm7.93-.082a1.3,1.3,0,0,0,.889-.3,1.054,1.054,0,0,0,.355-.8h1.853a2.534,2.534,0,0,1-.41,1.377,2.706,2.706,0,0,1-1.1.971,3.455,3.455,0,0,1-1.548.345,3.211,3.211,0,0,1-2.5-1.008,3.99,3.99,0,0,1-.916-2.786v-.13a3.944,3.944,0,0,1,.909-2.728,3.174,3.174,0,0,1,2.5-1.019,3.111,3.111,0,0,1,2.225.79,2.8,2.8,0,0,1,.851,2.1H50.494a1.358,1.358,0,0,0-.355-.938,1.321,1.321,0,0,0-1.945.142,2.916,2.916,0,0,0-.352,1.633V35.4a2.953,2.953,0,0,0,.349,1.643A1.2,1.2,0,0,0,49.25,37.544Zm7.629,1.593a3.631,3.631,0,0,1-2.649-1,3.548,3.548,0,0,1-1.022-2.659v-.191a4.468,4.468,0,0,1,.431-1.993,3.161,3.161,0,0,1,1.22-1.354,3.425,3.425,0,0,1,1.8-.475,3.07,3.07,0,0,1,2.389.957,3.889,3.889,0,0,1,.872,2.714v.807h-4.71a1.835,1.835,0,0,0,.578,1.162,1.746,1.746,0,0,0,1.22.438,2.132,2.132,0,0,0,1.784-.827l.971,1.087a2.966,2.966,0,0,1-1.2.981A3.947,3.947,0,0,1,56.879,39.137Zm-.226-6.077a1.234,1.234,0,0,0-.954.4,2.062,2.062,0,0,0-.468,1.14h2.748V34.44a1.471,1.471,0,0,0-.355-1.02A1.274,1.274,0,0,0,56.653,33.06Zm8.545.4a5.367,5.367,0,0,0-.711-.055,1.447,1.447,0,0,0-1.47.759V39H61.042V31.6h1.866l.055.882a1.831,1.831,0,0,1,1.647-1.019,2.07,2.07,0,0,1,.615.089Zm4.129,1.777a4.421,4.421,0,0,1,.776-2.755,2.537,2.537,0,0,1,2.129-1.012,2.271,2.271,0,0,1,1.894.909l.13-.772h1.736v10.24H74.01V38.364a2.277,2.277,0,0,1-1.791.772,2.518,2.518,0,0,1-2.105-1.025A4.638,4.638,0,0,1,69.327,35.233Zm1.976.14a2.9,2.9,0,0,0,.373,1.616,1.193,1.193,0,0,0,1.049.555,1.329,1.329,0,0,0,1.285-.726v-3.06a1.318,1.318,0,0,0-1.271-.7,1.207,1.207,0,0,0-1.06.555A3.2,3.2,0,0,0,71.3,35.374Zm10.671,2.874a2.477,2.477,0,0,1-2.023.889,2.337,2.337,0,0,1-1.815-.684,2.918,2.918,0,0,1-.639-2V31.6h1.976v4.784q0,1.157,1.053,1.157a1.426,1.426,0,0,0,1.381-.7V31.6h1.982V39H82.028Zm6.809.889a3.631,3.631,0,0,1-2.649-1,3.548,3.548,0,0,1-1.022-2.659v-.191a4.468,4.468,0,0,1,.431-1.993,3.161,3.161,0,0,1,1.22-1.354,3.425,3.425,0,0,1,1.8-.475,3.07,3.07,0,0,1,2.389.957,3.889,3.889,0,0,1,.872,2.714v.807h-4.71a1.835,1.835,0,0,0,.578,1.162,1.746,1.746,0,0,0,1.22.438,2.132,2.132,0,0,0,1.784-.827l.971,1.087a2.966,2.966,0,0,1-1.2.981A3.947,3.947,0,0,1,88.782,39.137Zm-.226-6.077a1.234,1.234,0,0,0-.954.4,2.062,2.062,0,0,0-.468,1.14h2.748V34.44a1.471,1.471,0,0,0-.355-1.02A1.274,1.274,0,0,0,88.557,33.06Zm11.881,3.9a.637.637,0,0,0-.359-.571,4.077,4.077,0,0,0-1.152-.373q-2.639-.554-2.639-2.242a2.032,2.032,0,0,1,.817-1.644,3.3,3.3,0,0,1,2.136-.66,3.547,3.547,0,0,1,2.252.663,2.09,2.09,0,0,1,.844,1.723h-1.976a.956.956,0,0,0-.273-.7,1.157,1.157,0,0,0-.854-.277,1.182,1.182,0,0,0-.772.226.712.712,0,0,0-.273.574.609.609,0,0,0,.311.53,3.2,3.2,0,0,0,1.049.349,8.571,8.571,0,0,1,1.244.332,2.044,2.044,0,0,1,1.565,1.989,1.929,1.929,0,0,1-.868,1.637,3.745,3.745,0,0,1-2.242.625,3.912,3.912,0,0,1-1.651-.332,2.77,2.77,0,0,1-1.131-.909,2.113,2.113,0,0,1-.41-1.248h1.873a1.031,1.031,0,0,0,.39.807,1.546,1.546,0,0,0,.971.28,1.43,1.43,0,0,0,.858-.215A.67.67,0,0,0,100.438,36.956Zm6.6,2.181a3.631,3.631,0,0,1-2.649-1,3.548,3.548,0,0,1-1.022-2.659v-.191a4.468,4.468,0,0,1,.431-1.993,3.161,3.161,0,0,1,1.22-1.354,3.425,3.425,0,0,1,1.8-.475,3.07,3.07,0,0,1,2.389.957,3.889,3.889,0,0,1,.872,2.714v.807h-4.71a1.835,1.835,0,0,0,.578,1.162,1.746,1.746,0,0,0,1.22.438,2.132,2.132,0,0,0,1.784-.827l.971,1.087a2.966,2.966,0,0,1-1.2.981A3.947,3.947,0,0,1,107.034,39.137Zm-.226-6.077a1.234,1.234,0,0,0-.954.4,2.062,2.062,0,0,0-.468,1.14h2.748V34.44a1.471,1.471,0,0,0-.355-1.02A1.274,1.274,0,0,0,106.809,33.06ZM5.367,51.137a3.631,3.631,0,0,1-2.649-1A3.548,3.548,0,0,1,1.7,47.479v-.191A4.468,4.468,0,0,1,2.126,45.3a3.161,3.161,0,0,1,1.22-1.354,3.425,3.425,0,0,1,1.8-.475,3.07,3.07,0,0,1,2.389.957,3.889,3.889,0,0,1,.872,2.714v.807H3.7a1.835,1.835,0,0,0,.578,1.162,1.746,1.746,0,0,0,1.22.438,2.132,2.132,0,0,0,1.784-.827L8.251,49.8a2.966,2.966,0,0,1-1.2.981A3.947,3.947,0,0,1,5.367,51.137ZM5.141,45.06a1.234,1.234,0,0,0-.954.4,2.062,2.062,0,0,0-.468,1.14H6.467V46.44a1.471,1.471,0,0,0-.355-1.02A1.274,1.274,0,0,0,5.141,45.06Zm6.48-1.456v7.8a2.646,2.646,0,0,1-.649,1.9,2.468,2.468,0,0,1-1.873.68,4.017,4.017,0,0,1-.978-.116V52.306a3.708,3.708,0,0,0,.622.062q.9,0,.9-.95V43.6Zm-2.14-1.914a.973.973,0,0,1,.3-.731,1.117,1.117,0,0,1,.81-.287,1.117,1.117,0,0,1,.81.287,1.048,1.048,0,0,1-.007,1.47,1.267,1.267,0,0,1-1.606,0A.97.97,0,0,1,9.482,41.689Zm7.089,9.447a3.631,3.631,0,0,1-2.649-1A3.548,3.548,0,0,1,12.9,47.479v-.191a4.468,4.468,0,0,1,.431-1.993,3.161,3.161,0,0,1,1.22-1.354,3.425,3.425,0,0,1,1.8-.475,3.07,3.07,0,0,1,2.389.957,3.889,3.889,0,0,1,.872,2.714v.807H14.9a1.835,1.835,0,0,0,.578,1.162,1.746,1.746,0,0,0,1.22.438,2.132,2.132,0,0,0,1.784-.827l.971,1.087a2.966,2.966,0,0,1-1.2.981A3.947,3.947,0,0,1,16.571,51.137Zm-.226-6.077a1.234,1.234,0,0,0-.954.4,2.062,2.062,0,0,0-.468,1.14h2.748V46.44a1.471,1.471,0,0,0-.355-1.02A1.274,1.274,0,0,0,16.345,45.06Zm7.465,4.484a1.3,1.3,0,0,0,.889-.3,1.054,1.054,0,0,0,.355-.8h1.853a2.534,2.534,0,0,1-.41,1.377,2.706,2.706,0,0,1-1.1.971,3.455,3.455,0,0,1-1.548.345,3.211,3.211,0,0,1-2.5-1.008,3.99,3.99,0,0,1-.916-2.786v-.13a3.944,3.944,0,0,1,.909-2.728,3.174,3.174,0,0,1,2.5-1.019,3.111,3.111,0,0,1,2.225.79,2.8,2.8,0,0,1,.851,2.1H25.054a1.358,1.358,0,0,0-.355-.938,1.321,1.321,0,0,0-1.945.142A2.916,2.916,0,0,0,22.4,47.2V47.4a2.953,2.953,0,0,0,.349,1.643A1.2,1.2,0,0,0,23.81,49.544Zm8.654.7a2.477,2.477,0,0,1-2.023.889,2.337,2.337,0,0,1-1.815-.684,2.918,2.918,0,0,1-.639-2V43.6h1.976v4.784q0,1.157,1.053,1.157a1.426,1.426,0,0,0,1.381-.7V43.6h1.982V51H32.519Zm5.77-8.463V43.6H39.5v1.449H38.234v3.691a.881.881,0,0,0,.157.588.79.79,0,0,0,.6.178,3.15,3.15,0,0,0,.581-.048v1.5a4.067,4.067,0,0,1-1.2.178,1.886,1.886,0,0,1-2.119-2.1V45.053h-1.08V43.6h1.08V41.785ZM44,51.137a3.631,3.631,0,0,1-2.649-1,3.548,3.548,0,0,1-1.022-2.659v-.191a4.468,4.468,0,0,1,.431-1.993,3.161,3.161,0,0,1,1.22-1.354,3.425,3.425,0,0,1,1.8-.475,3.07,3.07,0,0,1,2.389.957,3.889,3.889,0,0,1,.872,2.714v.807h-4.71a1.835,1.835,0,0,0,.578,1.162,1.746,1.746,0,0,0,1.22.438,2.132,2.132,0,0,0,1.784-.827l.971,1.087a2.966,2.966,0,0,1-1.2.981A3.947,3.947,0,0,1,44,51.137Zm-.226-6.077a1.234,1.234,0,0,0-.954.4,2.062,2.062,0,0,0-.468,1.14H45.1V46.44a1.471,1.471,0,0,0-.355-1.02A1.274,1.274,0,0,0,43.778,45.06ZM49.985,43.6l.062.854a2.582,2.582,0,0,1,2.126-.991,2.146,2.146,0,0,1,1.75.69,3.221,3.221,0,0,1,.588,2.064V51H52.535V46.27a1.282,1.282,0,0,0-.273-.913,1.224,1.224,0,0,0-.909-.284,1.359,1.359,0,0,0-1.251.711V51H48.125V43.6Zm9.2,3.644a4.457,4.457,0,0,1,.776-2.755,2.517,2.517,0,0,1,2.123-1.025,2.265,2.265,0,0,1,1.784.807V40.5h1.982V51H64.067l-.1-.786a2.325,2.325,0,0,1-1.9.923,2.511,2.511,0,0,1-2.1-1.029A4.6,4.6,0,0,1,59.186,47.247Zm1.976.147a2.92,2.92,0,0,0,.362,1.6,1.18,1.18,0,0,0,1.053.555,1.322,1.322,0,0,0,1.292-.774V45.847a1.3,1.3,0,0,0-1.278-.774Q61.162,45.073,61.162,47.394Zm9.625,3.743a3.631,3.631,0,0,1-2.649-1,3.548,3.548,0,0,1-1.022-2.659v-.191a4.468,4.468,0,0,1,.431-1.993,3.161,3.161,0,0,1,1.22-1.354,3.425,3.425,0,0,1,1.8-.475,3.07,3.07,0,0,1,2.389.957,3.889,3.889,0,0,1,.872,2.714v.807h-4.71a1.835,1.835,0,0,0,.578,1.162,1.746,1.746,0,0,0,1.22.438,2.132,2.132,0,0,0,1.784-.827l.971,1.087a2.966,2.966,0,0,1-1.2.981A3.947,3.947,0,0,1,70.787,51.137Zm-.226-6.077a1.234,1.234,0,0,0-.954.4,2.062,2.062,0,0,0-.468,1.14h2.748V46.44a1.471,1.471,0,0,0-.355-1.02A1.274,1.274,0,0,0,70.561,45.06ZM82.722,51a2.194,2.194,0,0,1-.2-.663,2.39,2.39,0,0,1-1.866.8,2.626,2.626,0,0,1-1.8-.629,2.023,2.023,0,0,1-.714-1.586,2.09,2.09,0,0,1,.872-1.8,4.3,4.3,0,0,1,2.519-.636h.909v-.424a1.219,1.219,0,0,0-.263-.82,1.035,1.035,0,0,0-.831-.308,1.177,1.177,0,0,0-.783.239.813.813,0,0,0-.284.656H78.306a1.985,1.985,0,0,1,.4-1.189,2.621,2.621,0,0,1,1.121-.858,4.086,4.086,0,0,1,1.627-.311,3.228,3.228,0,0,1,2.17.687,2.4,2.4,0,0,1,.8,1.931v3.206a3.536,3.536,0,0,0,.294,1.593V51Zm-1.634-1.374a1.7,1.7,0,0,0,.807-.195,1.28,1.28,0,0,0,.547-.523V47.637H81.7q-1.483,0-1.579,1.025l-.007.116a.791.791,0,0,0,.26.608A1.009,1.009,0,0,0,81.088,49.626Zm7.93-.082a1.3,1.3,0,0,0,.889-.3,1.054,1.054,0,0,0,.355-.8h1.853a2.534,2.534,0,0,1-.41,1.377,2.706,2.706,0,0,1-1.1.971,3.455,3.455,0,0,1-1.548.345,3.211,3.211,0,0,1-2.5-1.008,3.99,3.99,0,0,1-.916-2.786v-.13a3.944,3.944,0,0,1,.909-2.728,3.174,3.174,0,0,1,2.5-1.019,3.111,3.111,0,0,1,2.225.79,2.8,2.8,0,0,1,.851,2.1H90.262a1.358,1.358,0,0,0-.355-.938,1.321,1.321,0,0,0-1.945.142A2.916,2.916,0,0,0,87.61,47.2V47.4a2.953,2.953,0,0,0,.349,1.643A1.2,1.2,0,0,0,89.018,49.544Zm8.654.7a2.477,2.477,0,0,1-2.023.889,2.337,2.337,0,0,1-1.815-.684,2.918,2.918,0,0,1-.639-2V43.6H95.17v4.784q0,1.157,1.053,1.157a1.426,1.426,0,0,0,1.381-.7V43.6h1.982V51H97.727Zm6.809.889a3.631,3.631,0,0,1-2.649-1,3.548,3.548,0,0,1-1.022-2.659v-.191a4.468,4.468,0,0,1,.431-1.993,3.161,3.161,0,0,1,1.22-1.354,3.425,3.425,0,0,1,1.8-.475,3.07,3.07,0,0,1,2.389.957,3.889,3.889,0,0,1,.872,2.714v.807h-4.71a1.835,1.835,0,0,0,.578,1.162,1.746,1.746,0,0,0,1.22.438,2.132,2.132,0,0,0,1.784-.827l.971,1.087a2.966,2.966,0,0,1-1.2.981A3.947,3.947,0,0,1,104.481,51.137Zm-.226-6.077a1.234,1.234,0,0,0-.954.4,2.062,2.062,0,0,0-.468,1.14h2.748V46.44a1.471,1.471,0,0,0-.355-1.02A1.274,1.274,0,0,0,104.255,45.06Zm8.545.4a5.367,5.367,0,0,0-.711-.055,1.447,1.447,0,0,0-1.47.759V51h-1.976V43.6h1.866l.055.882a1.831,1.831,0,0,1,1.647-1.019,2.07,2.07,0,0,1,.615.089Zm.643,1.791a4.457,4.457,0,0,1,.776-2.755,2.517,2.517,0,0,1,2.123-1.025,2.265,2.265,0,0,1,1.784.807V40.5h1.982V51h-1.784l-.1-.786a2.325,2.325,0,0,1-1.9.923,2.511,2.511,0,0,1-2.1-1.029A4.6,4.6,0,0,1,113.443,47.247Zm1.976.147a2.92,2.92,0,0,0,.362,1.6,1.18,1.18,0,0,0,1.053.555,1.322,1.322,0,0,0,1.292-.774V45.847a1.3,1.3,0,0,0-1.278-.774Q115.418,45.073,115.418,47.394Zm5.913-.161a4.387,4.387,0,0,1,.424-1.962,3.1,3.1,0,0,1,1.22-1.333,3.56,3.56,0,0,1,1.849-.472,3.368,3.368,0,0,1,2.444.916,3.676,3.676,0,0,1,1.056,2.488l.014.506a3.866,3.866,0,0,1-.95,2.731,3.683,3.683,0,0,1-5.1,0,3.934,3.934,0,0,1-.954-2.789Zm1.976.14a2.765,2.765,0,0,0,.4,1.612,1.424,1.424,0,0,0,2.256.007,3.025,3.025,0,0,0,.4-1.763,2.737,2.737,0,0,0-.4-1.6,1.311,1.311,0,0,0-1.135-.568,1.29,1.29,0,0,0-1.121.565A3.076,3.076,0,0,0,123.307,47.374ZM49.154,63a2.194,2.194,0,0,1-.2-.663,2.39,2.39,0,0,1-1.866.8,2.626,2.626,0,0,1-1.8-.629,2.023,2.023,0,0,1-.714-1.586,2.09,2.09,0,0,1,.872-1.8,4.3,4.3,0,0,1,2.519-.636h.909v-.424a1.219,1.219,0,0,0-.263-.82,1.035,1.035,0,0,0-.831-.308,1.177,1.177,0,0,0-.783.239.813.813,0,0,0-.284.656H44.738a1.984,1.984,0,0,1,.4-1.189,2.621,2.621,0,0,1,1.121-.858,4.086,4.086,0,0,1,1.627-.311,3.228,3.228,0,0,1,2.17.687,2.4,2.4,0,0,1,.8,1.931v3.206a3.536,3.536,0,0,0,.294,1.593V63Zm-1.634-1.374a1.7,1.7,0,0,0,.807-.195,1.28,1.28,0,0,0,.547-.523V59.637h-.738q-1.483,0-1.579,1.025l-.007.116a.791.791,0,0,0,.26.608A1.009,1.009,0,0,0,47.521,61.626Zm12.77.622a2.477,2.477,0,0,1-2.023.889,2.337,2.337,0,0,1-1.815-.684,2.918,2.918,0,0,1-.639-2V55.6h1.976v4.784q0,1.157,1.053,1.157a1.426,1.426,0,0,0,1.381-.7V55.6H62.2V63H60.345ZM65.513,55.6l.062.854a2.582,2.582,0,0,1,2.126-.991,2.146,2.146,0,0,1,1.75.69,3.221,3.221,0,0,1,.588,2.064V63H68.063V58.27a1.282,1.282,0,0,0-.273-.913,1.224,1.224,0,0,0-.909-.284,1.359,1.359,0,0,0-1.251.711V63H63.653V55.6Zm5.715,3.63a4.387,4.387,0,0,1,.424-1.962,3.1,3.1,0,0,1,1.22-1.333,3.56,3.56,0,0,1,1.849-.472,3.368,3.368,0,0,1,2.444.916,3.676,3.676,0,0,1,1.056,2.488l.014.506a3.866,3.866,0,0,1-.95,2.731,3.683,3.683,0,0,1-5.1,0,3.934,3.934,0,0,1-.954-2.789Zm1.976.14a2.765,2.765,0,0,0,.4,1.612,1.424,1.424,0,0,0,2.256.007,3.025,3.025,0,0,0,.4-1.763,2.737,2.737,0,0,0-.4-1.6,1.311,1.311,0,0,0-1.135-.568,1.29,1.29,0,0,0-1.121.565A3.076,3.076,0,0,0,73.2,59.374Zm10.254,1.582a.637.637,0,0,0-.359-.571,4.077,4.077,0,0,0-1.152-.373q-2.639-.554-2.639-2.242a2.032,2.032,0,0,1,.817-1.644,3.3,3.3,0,0,1,2.136-.66,3.547,3.547,0,0,1,2.252.663,2.09,2.09,0,0,1,.844,1.723H83.382a.956.956,0,0,0-.273-.7,1.157,1.157,0,0,0-.854-.277,1.182,1.182,0,0,0-.772.226.712.712,0,0,0-.273.574.609.609,0,0,0,.311.53,3.2,3.2,0,0,0,1.049.349,8.571,8.571,0,0,1,1.244.332,2.044,2.044,0,0,1,1.565,1.989,1.929,1.929,0,0,1-.868,1.637,3.745,3.745,0,0,1-2.242.625,3.912,3.912,0,0,1-1.651-.332,2.77,2.77,0,0,1-1.131-.909,2.113,2.113,0,0,1-.41-1.248h1.873a1.031,1.031,0,0,0,.39.807,1.546,1.546,0,0,0,.971.28,1.43,1.43,0,0,0,.858-.215A.67.67,0,0,0,83.457,60.956ZM21.93,71.247a4.457,4.457,0,0,1,.776-2.755,2.517,2.517,0,0,1,2.123-1.025,2.265,2.265,0,0,1,1.784.807V64.5H28.6V75H26.811l-.1-.786a2.325,2.325,0,0,1-1.9.923,2.511,2.511,0,0,1-2.1-1.029A4.6,4.6,0,0,1,21.93,71.247Zm1.976.147a2.92,2.92,0,0,0,.362,1.6,1.18,1.18,0,0,0,1.053.555,1.322,1.322,0,0,0,1.292-.774V69.847a1.3,1.3,0,0,0-1.278-.774Q23.906,69.073,23.906,71.394Zm9.625,3.743a3.631,3.631,0,0,1-2.649-1,3.548,3.548,0,0,1-1.022-2.659v-.191a4.468,4.468,0,0,1,.431-1.993,3.161,3.161,0,0,1,1.22-1.354,3.425,3.425,0,0,1,1.8-.475,3.07,3.07,0,0,1,2.389.957,3.889,3.889,0,0,1,.872,2.714v.807h-4.71a1.835,1.835,0,0,0,.578,1.162,1.746,1.746,0,0,0,1.22.438,2.132,2.132,0,0,0,1.784-.827l.971,1.087a2.966,2.966,0,0,1-1.2.981A3.947,3.947,0,0,1,33.531,75.137Zm-.226-6.077a1.234,1.234,0,0,0-.954.4,2.062,2.062,0,0,0-.468,1.14h2.748V70.44a1.471,1.471,0,0,0-.355-1.02A1.274,1.274,0,0,0,33.305,69.06Zm6.754-3.274V67.6h1.265v1.449H40.059v3.691a.881.881,0,0,0,.157.588.79.79,0,0,0,.6.178,3.151,3.151,0,0,0,.581-.048v1.5a4.067,4.067,0,0,1-1.2.178,1.886,1.886,0,0,1-2.119-2.1V69.053H37V67.6h1.08V65.785Zm5.77,9.352a3.631,3.631,0,0,1-2.649-1,3.548,3.548,0,0,1-1.022-2.659v-.191a4.468,4.468,0,0,1,.431-1.993,3.161,3.161,0,0,1,1.22-1.354,3.425,3.425,0,0,1,1.8-.475A3.07,3.07,0,0,1,48,68.424a3.889,3.889,0,0,1,.872,2.714v.807h-4.71a1.835,1.835,0,0,0,.578,1.162,1.746,1.746,0,0,0,1.22.438,2.132,2.132,0,0,0,1.784-.827l.971,1.087a2.966,2.966,0,0,1-1.2.981A3.947,3.947,0,0,1,45.829,75.137ZM45.6,69.06a1.234,1.234,0,0,0-.954.4,2.062,2.062,0,0,0-.468,1.14h2.748V70.44a1.471,1.471,0,0,0-.355-1.02A1.274,1.274,0,0,0,45.6,69.06Zm8.545.4a5.367,5.367,0,0,0-.711-.055,1.447,1.447,0,0,0-1.47.759V75H49.992V67.6h1.866l.055.882a1.831,1.831,0,0,1,1.647-1.019,2.07,2.07,0,0,1,.615.089Zm2.8-1.853.062.827a2.6,2.6,0,0,1,2.126-.964A1.973,1.973,0,0,1,61.1,68.595a2.54,2.54,0,0,1,2.222-1.128,2.206,2.206,0,0,1,1.791.7,3.221,3.221,0,0,1,.588,2.109V75H63.718V70.283a1.408,1.408,0,0,0-.246-.919,1.091,1.091,0,0,0-.868-.291,1.233,1.233,0,0,0-1.23.848L61.38,75H59.4V70.29a1.391,1.391,0,0,0-.253-.93,1.1,1.1,0,0,0-.861-.287,1.28,1.28,0,0,0-1.217.7V75H55.1V67.6ZM69.3,75H67.321V67.6H69.3Zm-2.1-9.311a.973.973,0,0,1,.3-.731,1.281,1.281,0,0,1,1.617,0,1.044,1.044,0,0,1,0,1.47,1.267,1.267,0,0,1-1.606,0A.97.97,0,0,1,67.2,65.689ZM72.749,67.6l.062.854a2.582,2.582,0,0,1,2.126-.991,2.146,2.146,0,0,1,1.75.69,3.221,3.221,0,0,1,.588,2.064V75H75.3V70.27a1.282,1.282,0,0,0-.273-.913,1.224,1.224,0,0,0-.909-.284,1.359,1.359,0,0,0-1.251.711V75H70.889V67.6ZM83.057,75a2.194,2.194,0,0,1-.2-.663,2.39,2.39,0,0,1-1.866.8,2.626,2.626,0,0,1-1.8-.629,2.023,2.023,0,0,1-.714-1.586,2.09,2.09,0,0,1,.872-1.8,4.3,4.3,0,0,1,2.519-.636h.909v-.424a1.219,1.219,0,0,0-.263-.82,1.035,1.035,0,0,0-.831-.308,1.177,1.177,0,0,0-.783.239.813.813,0,0,0-.284.656H78.641a1.985,1.985,0,0,1,.4-1.189,2.621,2.621,0,0,1,1.121-.858,4.086,4.086,0,0,1,1.627-.311,3.228,3.228,0,0,1,2.17.687,2.4,2.4,0,0,1,.8,1.931v3.206a3.536,3.536,0,0,0,.294,1.593V75Zm-1.634-1.374a1.7,1.7,0,0,0,.807-.195,1.28,1.28,0,0,0,.547-.523V71.637h-.738q-1.483,0-1.579,1.025l-.007.116a.791.791,0,0,0,.26.608A1.009,1.009,0,0,0,81.423,73.626Zm4.546-2.379a4.457,4.457,0,0,1,.776-2.755,2.517,2.517,0,0,1,2.123-1.025,2.265,2.265,0,0,1,1.784.807V64.5h1.982V75H90.85l-.1-.786a2.325,2.325,0,0,1-1.9.923,2.511,2.511,0,0,1-2.1-1.029A4.6,4.6,0,0,1,85.969,71.247Zm1.976.147a2.92,2.92,0,0,0,.362,1.6,1.18,1.18,0,0,0,1.053.555,1.322,1.322,0,0,0,1.292-.774V69.847a1.3,1.3,0,0,0-1.278-.774Q87.945,69.073,87.945,71.394Zm5.913-.161a4.387,4.387,0,0,1,.424-1.962,3.1,3.1,0,0,1,1.22-1.333,3.56,3.56,0,0,1,1.849-.472,3.368,3.368,0,0,1,2.444.916,3.676,3.676,0,0,1,1.056,2.488l.014.506a3.866,3.866,0,0,1-.95,2.731,3.683,3.683,0,0,1-5.1,0,3.934,3.934,0,0,1-.954-2.789Zm1.976.14a2.765,2.765,0,0,0,.4,1.612,1.424,1.424,0,0,0,2.256.007,3.025,3.025,0,0,0,.4-1.763,2.737,2.737,0,0,0-.4-1.6,1.311,1.311,0,0,0-1.135-.568,1.29,1.29,0,0,0-1.121.565A3.076,3.076,0,0,0,95.833,71.374Zm10.254,1.582a.637.637,0,0,0-.359-.571,4.077,4.077,0,0,0-1.152-.373q-2.639-.554-2.639-2.242a2.032,2.032,0,0,1,.817-1.644,3.3,3.3,0,0,1,2.136-.66,3.547,3.547,0,0,1,2.252.663,2.09,2.09,0,0,1,.844,1.723h-1.976a.956.956,0,0,0-.273-.7,1.157,1.157,0,0,0-.854-.277,1.182,1.182,0,0,0-.772.226.712.712,0,0,0-.273.574.609.609,0,0,0,.311.53,3.2,3.2,0,0,0,1.049.349,8.571,8.571,0,0,1,1.244.332,2.044,2.044,0,0,1,1.565,1.989,1.929,1.929,0,0,1-.868,1.637,3.745,3.745,0,0,1-2.242.625,3.912,3.912,0,0,1-1.651-.332,2.77,2.77,0,0,1-1.131-.909,2.113,2.113,0,0,1-.41-1.248h1.873a1.031,1.031,0,0,0,.39.807,1.546,1.546,0,0,0,.971.28,1.43,1.43,0,0,0,.858-.215A.67.67,0,0,0,106.087,72.956ZM36.221,83.37a4.436,4.436,0,0,1-.776,2.738,2.488,2.488,0,0,1-2.1,1.029,2.3,2.3,0,0,1-1.812-.779v3.486H29.563V79.6h1.832l.068.725a2.322,2.322,0,0,1,1.873-.861,2.5,2.5,0,0,1,2.126,1.012,4.556,4.556,0,0,1,.759,2.789Zm-1.976-.144a2.911,2.911,0,0,0-.366-1.593,1.191,1.191,0,0,0-1.063-.561,1.294,1.294,0,0,0-1.278.711v3.028a1.316,1.316,0,0,0,1.292.731Q34.245,85.544,34.245,83.227ZM41.73,87a2.194,2.194,0,0,1-.2-.663,2.39,2.39,0,0,1-1.866.8,2.626,2.626,0,0,1-1.8-.629,2.023,2.023,0,0,1-.714-1.586,2.09,2.09,0,0,1,.872-1.8,4.3,4.3,0,0,1,2.519-.636h.909v-.424a1.219,1.219,0,0,0-.263-.82,1.035,1.035,0,0,0-.831-.308,1.177,1.177,0,0,0-.783.239.813.813,0,0,0-.284.656H37.314a1.984,1.984,0,0,1,.4-1.189,2.621,2.621,0,0,1,1.121-.858,4.086,4.086,0,0,1,1.627-.311,3.228,3.228,0,0,1,2.17.687,2.4,2.4,0,0,1,.8,1.931v3.206a3.536,3.536,0,0,0,.294,1.593V87ZM40.1,85.626a1.7,1.7,0,0,0,.807-.195,1.28,1.28,0,0,0,.547-.523V83.637h-.738q-1.483,0-1.579,1.025l-.007.116a.791.791,0,0,0,.26.608A1.009,1.009,0,0,0,40.1,85.626Zm9.01-4.17A5.367,5.367,0,0,0,48.4,81.4a1.447,1.447,0,0,0-1.47.759V87H44.95V79.6h1.866l.055.882a1.831,1.831,0,0,1,1.647-1.019,2.07,2.07,0,0,1,.615.089ZM54.343,87a2.194,2.194,0,0,1-.2-.663,2.39,2.39,0,0,1-1.866.8,2.626,2.626,0,0,1-1.8-.629,2.023,2.023,0,0,1-.714-1.586,2.09,2.09,0,0,1,.872-1.8,4.3,4.3,0,0,1,2.519-.636h.909v-.424a1.219,1.219,0,0,0-.263-.82,1.035,1.035,0,0,0-.831-.308,1.177,1.177,0,0,0-.783.239.813.813,0,0,0-.284.656H49.927a1.984,1.984,0,0,1,.4-1.189,2.621,2.621,0,0,1,1.121-.858,4.086,4.086,0,0,1,1.627-.311,3.228,3.228,0,0,1,2.17.687,2.4,2.4,0,0,1,.8,1.931v3.206a3.536,3.536,0,0,0,.294,1.593V87Zm-1.634-1.374a1.7,1.7,0,0,0,.807-.195,1.28,1.28,0,0,0,.547-.523V83.637h-.738q-1.483,0-1.579,1.025l-.007.116a.791.791,0,0,0,.26.608A1.009,1.009,0,0,0,52.709,85.626Zm.752-9.126h2.153l-1.894,2.119H52.114Zm5.954,3.1.062.827a2.6,2.6,0,0,1,2.126-.964,1.973,1.973,0,0,1,1.962,1.128,2.54,2.54,0,0,1,2.222-1.128,2.206,2.206,0,0,1,1.791.7,3.221,3.221,0,0,1,.588,2.109V87H66.183V82.283a1.408,1.408,0,0,0-.246-.919,1.091,1.091,0,0,0-.868-.291,1.233,1.233,0,0,0-1.23.848L63.845,87H61.869V82.29a1.391,1.391,0,0,0-.253-.93,1.1,1.1,0,0,0-.861-.287,1.28,1.28,0,0,0-1.217.7V87H57.563V79.6Zm13.672,7.533a3.631,3.631,0,0,1-2.649-1,3.548,3.548,0,0,1-1.022-2.659v-.191a4.468,4.468,0,0,1,.431-1.993,3.161,3.161,0,0,1,1.22-1.354,3.425,3.425,0,0,1,1.8-.475,3.07,3.07,0,0,1,2.389.957,3.889,3.889,0,0,1,.872,2.714v.807h-4.71A1.835,1.835,0,0,0,72,85.106a1.746,1.746,0,0,0,1.22.438A2.132,2.132,0,0,0,75,84.717l.971,1.087a2.966,2.966,0,0,1-1.2.981A3.947,3.947,0,0,1,73.087,87.137Zm-.226-6.077a1.234,1.234,0,0,0-.954.4,2.062,2.062,0,0,0-.468,1.14h2.748V82.44a1.471,1.471,0,0,0-.355-1.02A1.274,1.274,0,0,0,72.861,81.06Zm6.754-3.274V79.6H80.88v1.449H79.615v3.691a.881.881,0,0,0,.157.588.79.79,0,0,0,.6.178,3.151,3.151,0,0,0,.581-.048v1.5a4.067,4.067,0,0,1-1.2.178,1.886,1.886,0,0,1-2.119-2.1V81.053H76.56V79.6h1.08V77.785Zm6.521,3.671a5.367,5.367,0,0,0-.711-.055,1.447,1.447,0,0,0-1.47.759V87H81.98V79.6h1.866l.055.882a1.831,1.831,0,0,1,1.647-1.019,2.07,2.07,0,0,1,.615.089Zm.4,1.777a4.387,4.387,0,0,1,.424-1.962,3.1,3.1,0,0,1,1.22-1.333,3.56,3.56,0,0,1,1.849-.472,3.368,3.368,0,0,1,2.444.916,3.676,3.676,0,0,1,1.056,2.488l.014.506a3.866,3.866,0,0,1-.95,2.731,3.683,3.683,0,0,1-5.1,0,3.934,3.934,0,0,1-.954-2.789Zm1.976.14a2.765,2.765,0,0,0,.4,1.612,1.424,1.424,0,0,0,2.256.007,3.025,3.025,0,0,0,.4-1.763,2.737,2.737,0,0,0-.4-1.6,1.311,1.311,0,0,0-1.135-.568,1.29,1.29,0,0,0-1.121.565A3.076,3.076,0,0,0,88.509,83.374Zm10.254,1.582a.637.637,0,0,0-.359-.571,4.077,4.077,0,0,0-1.152-.373q-2.639-.554-2.639-2.242a2.032,2.032,0,0,1,.817-1.644,3.3,3.3,0,0,1,2.136-.66,3.547,3.547,0,0,1,2.252.663,2.09,2.09,0,0,1,.844,1.723H98.688a.956.956,0,0,0-.273-.7,1.157,1.157,0,0,0-.854-.277,1.182,1.182,0,0,0-.772.226.712.712,0,0,0-.273.574.609.609,0,0,0,.311.53,3.2,3.2,0,0,0,1.049.349,8.571,8.571,0,0,1,1.244.332,2.044,2.044,0,0,1,1.565,1.989,1.929,1.929,0,0,1-.868,1.637,3.745,3.745,0,0,1-2.242.625,3.912,3.912,0,0,1-1.651-.332,2.77,2.77,0,0,1-1.131-.909,2.113,2.113,0,0,1-.41-1.248h1.873a1.031,1.031,0,0,0,.39.807,1.546,1.546,0,0,0,.971.28,1.43,1.43,0,0,0,.858-.215A.67.67,0,0,0,98.763,84.956Z" transform="translate(7442.912 -8953.081)" fill="#12263f"/>
    <path id="Trazado_623480" data-name="Trazado 623480" d="M18.138,10.687H14.2v2.666h4.621V15H12.15V5.047h6.658V6.708H14.2V9.08h3.938ZM21.748,7.6l.062.827a2.6,2.6,0,0,1,2.126-.964A1.973,1.973,0,0,1,25.9,8.595a2.54,2.54,0,0,1,2.222-1.128,2.206,2.206,0,0,1,1.791.7,3.221,3.221,0,0,1,.588,2.109V15H28.515V10.283a1.408,1.408,0,0,0-.246-.919,1.091,1.091,0,0,0-.868-.291,1.233,1.233,0,0,0-1.23.848L26.177,15H24.2V10.29a1.391,1.391,0,0,0-.253-.93,1.1,1.1,0,0,0-.861-.287,1.28,1.28,0,0,0-1.217.7V15H19.9V7.6ZM34.1,15H32.118V7.6H34.1ZM32,5.689a.973.973,0,0,1,.3-.731,1.281,1.281,0,0,1,1.617,0,.967.967,0,0,1,.3.731.97.97,0,0,1-.3.738,1.267,1.267,0,0,1-1.606,0A.97.97,0,0,1,32,5.689Zm7.731,7.267a.637.637,0,0,0-.359-.571,4.077,4.077,0,0,0-1.152-.373q-2.639-.554-2.639-2.242A2.032,2.032,0,0,1,36.4,8.126a3.3,3.3,0,0,1,2.136-.66,3.547,3.547,0,0,1,2.252.663,2.09,2.09,0,0,1,.844,1.723H39.658a.956.956,0,0,0-.273-.7,1.157,1.157,0,0,0-.854-.277,1.182,1.182,0,0,0-.772.226.712.712,0,0,0-.273.574.609.609,0,0,0,.311.53,3.2,3.2,0,0,0,1.049.349,8.571,8.571,0,0,1,1.244.332,2.044,2.044,0,0,1,1.565,1.989,1.929,1.929,0,0,1-.868,1.637,3.745,3.745,0,0,1-2.242.625,3.912,3.912,0,0,1-1.651-.332,2.77,2.77,0,0,1-1.131-.909,2.113,2.113,0,0,1-.41-1.248h1.873a1.031,1.031,0,0,0,.39.807,1.546,1.546,0,0,0,.971.28,1.43,1.43,0,0,0,.858-.215A.67.67,0,0,0,39.733,12.956ZM45.01,15H43.028V7.6H45.01Zm-2.1-9.311a.973.973,0,0,1,.3-.731,1.281,1.281,0,0,1,1.617,0,.967.967,0,0,1,.3.731.97.97,0,0,1-.3.738,1.267,1.267,0,0,1-1.606,0A.97.97,0,0,1,42.912,5.689Zm3.418,5.544a4.387,4.387,0,0,1,.424-1.962,3.1,3.1,0,0,1,1.22-1.333,3.56,3.56,0,0,1,1.849-.472,3.368,3.368,0,0,1,2.444.916,3.676,3.676,0,0,1,1.056,2.488l.014.506a3.866,3.866,0,0,1-.95,2.731,3.683,3.683,0,0,1-5.1,0,3.934,3.934,0,0,1-.954-2.789Zm1.976.14a2.765,2.765,0,0,0,.4,1.612,1.424,1.424,0,0,0,2.256.007,3.025,3.025,0,0,0,.4-1.763,2.737,2.737,0,0,0-.4-1.6,1.311,1.311,0,0,0-1.135-.568,1.29,1.29,0,0,0-1.121.565A3.076,3.076,0,0,0,48.305,11.374ZM50.212,4.5h2.153L50.472,6.619H48.866Zm6.159,3.1.062.854a2.582,2.582,0,0,1,2.126-.991,2.146,2.146,0,0,1,1.75.69,3.221,3.221,0,0,1,.588,2.064V15H58.921V10.27a1.282,1.282,0,0,0-.273-.913,1.224,1.224,0,0,0-.909-.284,1.359,1.359,0,0,0-1.251.711V15H54.512V7.6Zm9.2,3.644a4.457,4.457,0,0,1,.776-2.755,2.517,2.517,0,0,1,2.123-1.025,2.265,2.265,0,0,1,1.784.807V4.5h1.982V15H70.454l-.1-.786a2.325,2.325,0,0,1-1.9.923,2.511,2.511,0,0,1-2.1-1.029A4.6,4.6,0,0,1,65.573,11.247Zm1.976.147a2.92,2.92,0,0,0,.362,1.6,1.18,1.18,0,0,0,1.053.555,1.322,1.322,0,0,0,1.292-.774V9.847a1.3,1.3,0,0,0-1.278-.774Q67.548,9.073,67.548,11.394Zm9.625,3.743a3.631,3.631,0,0,1-2.649-1A3.548,3.548,0,0,1,73.5,11.479v-.191A4.468,4.468,0,0,1,73.933,9.3a3.161,3.161,0,0,1,1.22-1.354,3.425,3.425,0,0,1,1.8-.475,3.07,3.07,0,0,1,2.389.957,3.889,3.889,0,0,1,.872,2.714v.807h-4.71a1.835,1.835,0,0,0,.578,1.162,1.746,1.746,0,0,0,1.22.438,2.132,2.132,0,0,0,1.784-.827l.971,1.087a2.966,2.966,0,0,1-1.2.981A3.947,3.947,0,0,1,77.173,15.137ZM76.948,9.06a1.234,1.234,0,0,0-.954.4,2.062,2.062,0,0,0-.468,1.14h2.748V10.44a1.471,1.471,0,0,0-.355-1.02A1.274,1.274,0,0,0,76.948,9.06Zm12.3,5.188a2.477,2.477,0,0,1-2.023.889,2.337,2.337,0,0,1-1.815-.684,2.918,2.918,0,0,1-.639-2V7.6H86.75v4.784q0,1.157,1.053,1.157a1.426,1.426,0,0,0,1.381-.7V7.6h1.982V15H89.307ZM94.475,7.6l.062.854a2.582,2.582,0,0,1,2.126-.991,2.146,2.146,0,0,1,1.75.69A3.221,3.221,0,0,1,99,10.222V15H97.025V10.27a1.282,1.282,0,0,0-.273-.913,1.224,1.224,0,0,0-.909-.284,1.359,1.359,0,0,0-1.251.711V15H92.616V7.6ZM4.442,17.785V19.6H5.707v1.449H4.442v3.691a.881.881,0,0,0,.157.588.79.79,0,0,0,.6.178,3.151,3.151,0,0,0,.581-.048v1.5a4.067,4.067,0,0,1-1.2.178,1.886,1.886,0,0,1-2.119-2.1V21.053H1.387V19.6h1.08V17.785Zm1.853,5.448a4.387,4.387,0,0,1,.424-1.962,3.1,3.1,0,0,1,1.22-1.333,3.56,3.56,0,0,1,1.849-.472,3.368,3.368,0,0,1,2.444.916,3.676,3.676,0,0,1,1.056,2.488l.014.506a3.866,3.866,0,0,1-.95,2.731A3.3,3.3,0,0,1,9.8,27.137a3.319,3.319,0,0,1-2.553-1.025,3.934,3.934,0,0,1-.954-2.789Zm1.976.14a2.765,2.765,0,0,0,.4,1.612,1.308,1.308,0,0,0,1.135.558,1.311,1.311,0,0,0,1.121-.551,3.025,3.025,0,0,0,.4-1.763,2.737,2.737,0,0,0-.4-1.6,1.311,1.311,0,0,0-1.135-.568,1.29,1.29,0,0,0-1.121.565A3.076,3.076,0,0,0,8.271,23.374Zm8.935.66-.711.711V27H14.519V16.5h1.976v5.817l.383-.492L18.771,19.6h2.372L18.47,22.687,21.375,27h-2.27Zm8.2,3.1a3.631,3.631,0,0,1-2.649-1,3.548,3.548,0,0,1-1.022-2.659v-.191a4.468,4.468,0,0,1,.431-1.993,3.161,3.161,0,0,1,1.22-1.354,3.425,3.425,0,0,1,1.8-.475,3.07,3.07,0,0,1,2.389.957,3.889,3.889,0,0,1,.872,2.714v.807h-4.71a1.835,1.835,0,0,0,.578,1.162,1.746,1.746,0,0,0,1.22.438,2.132,2.132,0,0,0,1.784-.827l.971,1.087a2.966,2.966,0,0,1-1.2.981A3.947,3.947,0,0,1,25.4,27.137Zm-.226-6.077a1.234,1.234,0,0,0-.954.4,2.062,2.062,0,0,0-.468,1.14H26.5V22.44a1.471,1.471,0,0,0-.355-1.02A1.274,1.274,0,0,0,25.176,21.06ZM31.383,19.6l.062.854a2.582,2.582,0,0,1,2.126-.991,2.146,2.146,0,0,1,1.75.69,3.221,3.221,0,0,1,.588,2.064V27H33.933V22.27a1.282,1.282,0,0,0-.273-.913,1.224,1.224,0,0,0-.909-.284,1.359,1.359,0,0,0-1.251.711V27H29.523V19.6Zm9.2,3.63a4.387,4.387,0,0,1,.424-1.962,3.1,3.1,0,0,1,1.22-1.333,3.56,3.56,0,0,1,1.849-.472,3.368,3.368,0,0,1,2.444.916,3.676,3.676,0,0,1,1.056,2.488l.014.506a3.866,3.866,0,0,1-.95,2.731,3.683,3.683,0,0,1-5.1,0,3.934,3.934,0,0,1-.954-2.789Zm1.976.14a2.765,2.765,0,0,0,.4,1.612,1.424,1.424,0,0,0,2.256.007,3.025,3.025,0,0,0,.4-1.763,2.737,2.737,0,0,0-.4-1.6,1.311,1.311,0,0,0-1.135-.568,1.29,1.29,0,0,0-1.121.565A3.076,3.076,0,0,0,42.56,23.374ZM54.146,19.6l.062.827a2.6,2.6,0,0,1,2.126-.964A1.973,1.973,0,0,1,58.3,20.595a2.54,2.54,0,0,1,2.222-1.128,2.206,2.206,0,0,1,1.791.7,3.221,3.221,0,0,1,.588,2.109V27H60.914V22.283a1.408,1.408,0,0,0-.246-.919,1.091,1.091,0,0,0-.868-.291,1.233,1.233,0,0,0-1.23.848L58.576,27H56.6V22.29a1.391,1.391,0,0,0-.253-.93,1.1,1.1,0,0,0-.861-.287,1.28,1.28,0,0,0-1.217.7V27H52.294V19.6Zm13.672,7.533a3.631,3.631,0,0,1-2.649-1,3.548,3.548,0,0,1-1.022-2.659v-.191a4.468,4.468,0,0,1,.431-1.993,3.161,3.161,0,0,1,1.22-1.354,3.425,3.425,0,0,1,1.8-.475,3.07,3.07,0,0,1,2.389.957,3.889,3.889,0,0,1,.872,2.714v.807H66.15a1.835,1.835,0,0,0,.578,1.162,1.746,1.746,0,0,0,1.22.438,2.132,2.132,0,0,0,1.784-.827L70.7,25.8a2.966,2.966,0,0,1-1.2.981A3.947,3.947,0,0,1,67.818,27.137Zm-.226-6.077a1.234,1.234,0,0,0-.954.4,2.062,2.062,0,0,0-.468,1.14h2.748V22.44a1.471,1.471,0,0,0-.355-1.02A1.274,1.274,0,0,0,67.593,21.06Zm4.081,2.188a4.457,4.457,0,0,1,.776-2.755,2.517,2.517,0,0,1,2.123-1.025,2.265,2.265,0,0,1,1.784.807V16.5h1.982V27H76.555l-.1-.786a2.325,2.325,0,0,1-1.9.923,2.511,2.511,0,0,1-2.1-1.029A4.6,4.6,0,0,1,71.674,23.247Zm1.976.147a2.92,2.92,0,0,0,.362,1.6,1.18,1.18,0,0,0,1.053.555,1.322,1.322,0,0,0,1.292-.774V21.847a1.3,1.3,0,0,0-1.278-.774Q73.649,21.073,73.649,23.394ZM81.955,27H79.973V19.6h1.982Zm-2.1-9.311a.973.973,0,0,1,.3-.731,1.281,1.281,0,0,1,1.617,0,1.044,1.044,0,0,1,0,1.47,1.267,1.267,0,0,1-1.606,0A.97.97,0,0,1,79.856,17.689Zm3.418,5.544a4.387,4.387,0,0,1,.424-1.962,3.1,3.1,0,0,1,1.22-1.333,3.56,3.56,0,0,1,1.849-.472,3.368,3.368,0,0,1,2.444.916,3.676,3.676,0,0,1,1.056,2.488l.014.506a3.866,3.866,0,0,1-.95,2.731,3.683,3.683,0,0,1-5.1,0,3.934,3.934,0,0,1-.954-2.789Zm1.976.14a2.765,2.765,0,0,0,.4,1.612,1.424,1.424,0,0,0,2.256.007,3.025,3.025,0,0,0,.4-1.763,2.737,2.737,0,0,0-.4-1.6,1.311,1.311,0,0,0-1.135-.568,1.29,1.29,0,0,0-1.121.565A3.076,3.076,0,0,0,85.25,23.374Zm9.427-.127a4.457,4.457,0,0,1,.776-2.755,2.517,2.517,0,0,1,2.123-1.025,2.265,2.265,0,0,1,1.784.807V16.5h1.982V27H99.558l-.1-.786a2.325,2.325,0,0,1-1.9.923,2.511,2.511,0,0,1-2.1-1.029A4.6,4.6,0,0,1,94.677,23.247Zm1.976.147a2.92,2.92,0,0,0,.362,1.6,1.18,1.18,0,0,0,1.053.555,1.322,1.322,0,0,0,1.292-.774V21.847a1.3,1.3,0,0,0-1.278-.774Q96.652,21.073,96.652,23.394Zm9.625,3.743a3.631,3.631,0,0,1-2.649-1,3.548,3.548,0,0,1-1.022-2.659v-.191a4.468,4.468,0,0,1,.431-1.993,3.161,3.161,0,0,1,1.22-1.354,3.425,3.425,0,0,1,1.8-.475,3.07,3.07,0,0,1,2.389.957,3.889,3.889,0,0,1,.872,2.714v.807h-4.71a1.835,1.835,0,0,0,.578,1.162,1.746,1.746,0,0,0,1.22.438,2.132,2.132,0,0,0,1.784-.827l.971,1.087a2.966,2.966,0,0,1-1.2.981A3.947,3.947,0,0,1,106.277,27.137Zm-.226-6.077a1.234,1.234,0,0,0-.954.4,2.062,2.062,0,0,0-.468,1.14h2.748V22.44a1.471,1.471,0,0,0-.355-1.02A1.274,1.274,0,0,0,106.052,21.06ZM20.712,39H18.729V31.6h1.982Zm-2.1-9.311a.973.973,0,0,1,.3-.731,1.281,1.281,0,0,1,1.617,0,1.044,1.044,0,0,1,0,1.47,1.267,1.267,0,0,1-1.606,0A.97.97,0,0,1,18.613,29.689ZM24.157,31.6l.062.854a2.582,2.582,0,0,1,2.126-.991,2.146,2.146,0,0,1,1.75.69,3.221,3.221,0,0,1,.588,2.064V39H26.707V34.27a1.282,1.282,0,0,0-.273-.913,1.224,1.224,0,0,0-.909-.284,1.359,1.359,0,0,0-1.251.711V39H22.3V31.6Zm8.388-1.818V31.6H33.81v1.449H32.545v3.691a.881.881,0,0,0,.157.588.79.79,0,0,0,.6.178,3.15,3.15,0,0,0,.581-.048v1.5a4.067,4.067,0,0,1-1.2.178,1.886,1.886,0,0,1-2.119-2.1V33.053h-1.08V31.6h1.08V29.785Zm5.77,9.352a3.631,3.631,0,0,1-2.649-1,3.548,3.548,0,0,1-1.022-2.659v-.191a4.468,4.468,0,0,1,.431-1.993,3.161,3.161,0,0,1,1.22-1.354,3.425,3.425,0,0,1,1.8-.475,3.07,3.07,0,0,1,2.389.957,3.889,3.889,0,0,1,.872,2.714v.807h-4.71a1.835,1.835,0,0,0,.578,1.162,1.746,1.746,0,0,0,1.22.438,2.132,2.132,0,0,0,1.784-.827L41.2,37.8a2.966,2.966,0,0,1-1.2.981A3.947,3.947,0,0,1,38.314,39.137Zm-.226-6.077a1.234,1.234,0,0,0-.954.4,2.062,2.062,0,0,0-.468,1.14h2.748V34.44a1.471,1.471,0,0,0-.355-1.02A1.274,1.274,0,0,0,38.089,33.06Zm8.545.4a5.367,5.367,0,0,0-.711-.055,1.447,1.447,0,0,0-1.47.759V39H42.478V31.6h1.866l.055.882a1.831,1.831,0,0,1,1.647-1.019,2.07,2.07,0,0,1,.615.089Zm3.9,4.088a1.3,1.3,0,0,0,.889-.3,1.054,1.054,0,0,0,.355-.8h1.853a2.534,2.534,0,0,1-.41,1.377,2.706,2.706,0,0,1-1.1.971,3.455,3.455,0,0,1-1.548.345,3.211,3.211,0,0,1-2.5-1.008,3.99,3.99,0,0,1-.916-2.786v-.13a3.944,3.944,0,0,1,.909-2.728,3.174,3.174,0,0,1,2.5-1.019,3.111,3.111,0,0,1,2.225.79,2.8,2.8,0,0,1,.851,2.1H51.774a1.358,1.358,0,0,0-.355-.938,1.321,1.321,0,0,0-1.945.142,2.916,2.916,0,0,0-.352,1.633V35.4a2.953,2.953,0,0,0,.349,1.643A1.2,1.2,0,0,0,50.53,37.544ZM59.041,39a2.194,2.194,0,0,1-.2-.663,2.39,2.39,0,0,1-1.866.8,2.626,2.626,0,0,1-1.8-.629,2.023,2.023,0,0,1-.714-1.586,2.09,2.09,0,0,1,.872-1.8,4.3,4.3,0,0,1,2.519-.636h.909v-.424a1.219,1.219,0,0,0-.263-.82,1.035,1.035,0,0,0-.831-.308,1.177,1.177,0,0,0-.783.239.813.813,0,0,0-.284.656H54.625a1.984,1.984,0,0,1,.4-1.189,2.621,2.621,0,0,1,1.121-.858,4.086,4.086,0,0,1,1.627-.311,3.228,3.228,0,0,1,2.17.687,2.4,2.4,0,0,1,.8,1.931v3.206a3.536,3.536,0,0,0,.294,1.593V39Zm-1.634-1.374a1.7,1.7,0,0,0,.807-.195,1.28,1.28,0,0,0,.547-.523V35.637h-.738q-1.483,0-1.579,1.025l-.007.116a.791.791,0,0,0,.26.608A1.009,1.009,0,0,0,57.407,37.626ZM64.113,31.6l.062.827a2.6,2.6,0,0,1,2.126-.964,1.973,1.973,0,0,1,1.962,1.128,2.54,2.54,0,0,1,2.222-1.128,2.206,2.206,0,0,1,1.791.7,3.221,3.221,0,0,1,.588,2.109V39H70.881V34.283a1.408,1.408,0,0,0-.246-.919,1.091,1.091,0,0,0-.868-.291,1.233,1.233,0,0,0-1.23.848L68.543,39H66.567V34.29a1.391,1.391,0,0,0-.253-.93,1.1,1.1,0,0,0-.861-.287,1.28,1.28,0,0,0-1.217.7V39H62.261V31.6ZM81.046,35.37a4.479,4.479,0,0,1-.759,2.772,2.513,2.513,0,0,1-2.119.995,2.309,2.309,0,0,1-1.921-.923L76.158,39H74.381V28.5h1.976v3.767a2.25,2.25,0,0,1,1.8-.8,2.534,2.534,0,0,1,2.123.995,4.485,4.485,0,0,1,.769,2.8Zm-1.976-.144a2.942,2.942,0,0,0-.355-1.637,1.2,1.2,0,0,0-1.06-.516,1.3,1.3,0,0,0-1.3.772v2.919a1.321,1.321,0,0,0,1.313.779,1.22,1.22,0,0,0,1.258-.943A4.866,4.866,0,0,0,79.07,35.227ZM84.348,39H82.365V31.6h1.982Zm-2.1-9.311a.973.973,0,0,1,.3-.731,1.281,1.281,0,0,1,1.617,0,1.044,1.044,0,0,1,0,1.47,1.267,1.267,0,0,1-1.606,0A.97.97,0,0,1,82.249,29.689Zm3.418,5.544a4.387,4.387,0,0,1,.424-1.962,3.1,3.1,0,0,1,1.22-1.333,3.56,3.56,0,0,1,1.849-.472,3.368,3.368,0,0,1,2.444.916,3.676,3.676,0,0,1,1.056,2.488l.014.506a3.866,3.866,0,0,1-.95,2.731,3.683,3.683,0,0,1-5.1,0,3.934,3.934,0,0,1-.954-2.789Zm1.976.14a2.765,2.765,0,0,0,.4,1.612,1.424,1.424,0,0,0,2.256.007,3.025,3.025,0,0,0,.4-1.763,2.737,2.737,0,0,0-.4-1.6,1.311,1.311,0,0,0-1.135-.568,1.29,1.29,0,0,0-1.121.565A3.076,3.076,0,0,0,87.643,35.374Z" transform="translate(7628.961 -8795.996)" fill="#12263f"/>
    <path id="Trazado_623479" data-name="Trazado 623479" d="M21.556,11.685a3.522,3.522,0,0,1-1.186,2.529,4.165,4.165,0,0,1-2.82.923,3.745,3.745,0,0,1-3.011-1.289,5.284,5.284,0,0,1-1.1-3.538V9.7a5.966,5.966,0,0,1,.506-2.529,3.791,3.791,0,0,1,1.446-1.678,4.05,4.05,0,0,1,2.184-.584,4.058,4.058,0,0,1,2.775.923A3.785,3.785,0,0,1,21.57,8.424H19.519a2.079,2.079,0,0,0-.537-1.4,1.987,1.987,0,0,0-1.4-.434,1.742,1.742,0,0,0-1.535.735,4.118,4.118,0,0,0-.523,2.28v.752a4.408,4.408,0,0,0,.489,2.358,1.71,1.71,0,0,0,1.542.745,2.025,2.025,0,0,0,1.418-.434,1.961,1.961,0,0,0,.537-1.343ZM27.059,15a2.194,2.194,0,0,1-.2-.663,2.39,2.39,0,0,1-1.866.8,2.626,2.626,0,0,1-1.8-.629,2.023,2.023,0,0,1-.714-1.586,2.09,2.09,0,0,1,.872-1.8,4.3,4.3,0,0,1,2.519-.636h.909v-.424a1.219,1.219,0,0,0-.263-.82,1.035,1.035,0,0,0-.831-.308,1.177,1.177,0,0,0-.783.239.813.813,0,0,0-.284.656H22.643a1.984,1.984,0,0,1,.4-1.189,2.621,2.621,0,0,1,1.121-.858,4.086,4.086,0,0,1,1.627-.311,3.228,3.228,0,0,1,2.17.687,2.4,2.4,0,0,1,.8,1.931v3.206a3.536,3.536,0,0,0,.294,1.593V15Zm-1.634-1.374a1.7,1.7,0,0,0,.807-.195,1.28,1.28,0,0,0,.547-.523V11.637h-.738q-1.483,0-1.579,1.025l-.007.116a.791.791,0,0,0,.26.608A1.009,1.009,0,0,0,25.425,13.626ZM36.937,11.37a4.436,4.436,0,0,1-.776,2.738,2.488,2.488,0,0,1-2.1,1.029,2.3,2.3,0,0,1-1.812-.779v3.486H30.279V7.6h1.832l.068.725a2.322,2.322,0,0,1,1.873-.861,2.5,2.5,0,0,1,2.126,1.012,4.556,4.556,0,0,1,.759,2.789Zm-1.976-.144A2.911,2.911,0,0,0,34.6,9.634a1.191,1.191,0,0,0-1.063-.561,1.294,1.294,0,0,0-1.278.711v3.028a1.316,1.316,0,0,0,1.292.731Q34.961,13.544,34.961,11.227ZM42.447,15a2.194,2.194,0,0,1-.2-.663,2.39,2.39,0,0,1-1.866.8,2.626,2.626,0,0,1-1.8-.629,2.023,2.023,0,0,1-.714-1.586,2.09,2.09,0,0,1,.872-1.8,4.3,4.3,0,0,1,2.519-.636h.909v-.424a1.219,1.219,0,0,0-.263-.82,1.035,1.035,0,0,0-.831-.308,1.177,1.177,0,0,0-.783.239.813.813,0,0,0-.284.656H38.031a1.984,1.984,0,0,1,.4-1.189,2.621,2.621,0,0,1,1.121-.858,4.086,4.086,0,0,1,1.627-.311,3.228,3.228,0,0,1,2.17.687,2.4,2.4,0,0,1,.8,1.931v3.206a3.536,3.536,0,0,0,.294,1.593V15Zm-1.634-1.374a1.7,1.7,0,0,0,.807-.195,1.28,1.28,0,0,0,.547-.523V11.637h-.738q-1.483,0-1.579,1.025l-.007.116a.791.791,0,0,0,.26.608A1.009,1.009,0,0,0,40.813,13.626Zm7.93-.082a1.3,1.3,0,0,0,.889-.3,1.054,1.054,0,0,0,.355-.8h1.853a2.534,2.534,0,0,1-.41,1.377,2.706,2.706,0,0,1-1.1.971,3.455,3.455,0,0,1-1.548.345,3.211,3.211,0,0,1-2.5-1.008,3.99,3.99,0,0,1-.916-2.786v-.13a3.944,3.944,0,0,1,.909-2.728,3.174,3.174,0,0,1,2.5-1.019,3.111,3.111,0,0,1,2.225.79,2.8,2.8,0,0,1,.851,2.1H49.987a1.358,1.358,0,0,0-.355-.938,1.321,1.321,0,0,0-1.945.142,2.916,2.916,0,0,0-.352,1.633V11.4a2.953,2.953,0,0,0,.349,1.643A1.2,1.2,0,0,0,48.743,13.544ZM55.052,15H53.07V7.6h1.982Zm-2.1-9.311a.973.973,0,0,1,.3-.731,1.281,1.281,0,0,1,1.617,0,.967.967,0,0,1,.3.731.97.97,0,0,1-.3.738,1.267,1.267,0,0,1-1.606,0A.97.97,0,0,1,52.954,5.689Zm3.418,5.558a4.457,4.457,0,0,1,.776-2.755A2.517,2.517,0,0,1,59.27,7.467a2.265,2.265,0,0,1,1.784.807V4.5h1.982V15H61.252l-.1-.786a2.325,2.325,0,0,1-1.9.923,2.511,2.511,0,0,1-2.1-1.029A4.6,4.6,0,0,1,56.372,11.247Zm1.976.147a2.92,2.92,0,0,0,.362,1.6,1.18,1.18,0,0,0,1.053.555,1.322,1.322,0,0,0,1.292-.774V9.847a1.3,1.3,0,0,0-1.278-.774Q58.347,9.073,58.347,11.394ZM68.854,15a2.194,2.194,0,0,1-.2-.663,2.39,2.39,0,0,1-1.866.8,2.626,2.626,0,0,1-1.8-.629,2.023,2.023,0,0,1-.714-1.586,2.09,2.09,0,0,1,.872-1.8,4.3,4.3,0,0,1,2.519-.636h.909v-.424a1.219,1.219,0,0,0-.263-.82,1.035,1.035,0,0,0-.831-.308,1.177,1.177,0,0,0-.783.239.813.813,0,0,0-.284.656H64.438a1.985,1.985,0,0,1,.4-1.189,2.621,2.621,0,0,1,1.121-.858,4.086,4.086,0,0,1,1.627-.311,3.228,3.228,0,0,1,2.17.687,2.4,2.4,0,0,1,.8,1.931v3.206a3.536,3.536,0,0,0,.294,1.593V15ZM67.22,13.626a1.7,1.7,0,0,0,.807-.195,1.28,1.28,0,0,0,.547-.523V11.637h-.738q-1.483,0-1.579,1.025l-.007.116a.791.791,0,0,0,.26.608A1.009,1.009,0,0,0,67.22,13.626Zm4.546-2.379a4.457,4.457,0,0,1,.776-2.755,2.517,2.517,0,0,1,2.123-1.025,2.265,2.265,0,0,1,1.784.807V4.5h1.982V15H76.647l-.1-.786a2.325,2.325,0,0,1-1.9.923,2.511,2.511,0,0,1-2.1-1.029A4.6,4.6,0,0,1,71.766,11.247Zm1.976.147a2.92,2.92,0,0,0,.362,1.6,1.18,1.18,0,0,0,1.053.555,1.322,1.322,0,0,0,1.292-.774V9.847a1.3,1.3,0,0,0-1.278-.774Q73.742,9.073,73.742,11.394Zm9.4-.147a4.457,4.457,0,0,1,.776-2.755A2.517,2.517,0,0,1,86.04,7.467a2.265,2.265,0,0,1,1.784.807V4.5h1.982V15H88.022l-.1-.786a2.325,2.325,0,0,1-1.9.923,2.511,2.511,0,0,1-2.1-1.029A4.6,4.6,0,0,1,83.141,11.247Zm1.976.147a2.92,2.92,0,0,0,.362,1.6,1.18,1.18,0,0,0,1.053.555,1.322,1.322,0,0,0,1.292-.774V9.847a1.3,1.3,0,0,0-1.278-.774Q85.117,9.073,85.117,11.394Zm9.625,3.743a3.631,3.631,0,0,1-2.649-1,3.548,3.548,0,0,1-1.022-2.659v-.191A4.468,4.468,0,0,1,91.5,9.3a3.161,3.161,0,0,1,1.22-1.354,3.425,3.425,0,0,1,1.8-.475,3.07,3.07,0,0,1,2.389.957,3.889,3.889,0,0,1,.872,2.714v.807h-4.71a1.835,1.835,0,0,0,.578,1.162,1.746,1.746,0,0,0,1.22.438,2.132,2.132,0,0,0,1.784-.827l.971,1.087a2.966,2.966,0,0,1-1.2.981A3.947,3.947,0,0,1,94.742,15.137ZM94.516,9.06a1.234,1.234,0,0,0-.954.4,2.062,2.062,0,0,0-.468,1.14h2.748V10.44a1.471,1.471,0,0,0-.355-1.02A1.274,1.274,0,0,0,94.516,9.06ZM12.1,23.247a4.335,4.335,0,0,1,.81-2.741A2.625,2.625,0,0,1,15.1,19.467a2.3,2.3,0,0,1,1.894.834l.082-.7h1.791v7.15a3.161,3.161,0,0,1-.441,1.688,2.832,2.832,0,0,1-1.241,1.094,4.362,4.362,0,0,1-1.873.376,4.056,4.056,0,0,1-1.586-.325,2.815,2.815,0,0,1-1.169-.837l.875-1.2a2.314,2.314,0,0,0,1.791.827,1.694,1.694,0,0,0,1.224-.42,1.577,1.577,0,0,0,.438-1.193v-.4a2.285,2.285,0,0,1-1.8.772,2.618,2.618,0,0,1-2.157-1.042,4.334,4.334,0,0,1-.824-2.765Zm1.976.147a2.7,2.7,0,0,0,.4,1.578,1.283,1.283,0,0,0,1.107.572,1.372,1.372,0,0,0,1.292-.678V21.751a1.369,1.369,0,0,0-1.278-.678,1.291,1.291,0,0,0-1.118.582A3.042,3.042,0,0,0,14.078,23.394Zm10.459-1.938a5.367,5.367,0,0,0-.711-.055,1.447,1.447,0,0,0-1.47.759V27H20.38V19.6h1.866l.055.882a1.831,1.831,0,0,1,1.647-1.019,2.07,2.07,0,0,1,.615.089ZM29.568,27a2.194,2.194,0,0,1-.2-.663,2.39,2.39,0,0,1-1.866.8,2.626,2.626,0,0,1-1.8-.629,2.023,2.023,0,0,1-.714-1.586,2.09,2.09,0,0,1,.872-1.8,4.3,4.3,0,0,1,2.519-.636h.909v-.424a1.219,1.219,0,0,0-.263-.82,1.035,1.035,0,0,0-.831-.308,1.177,1.177,0,0,0-.783.239.813.813,0,0,0-.284.656H25.152a1.985,1.985,0,0,1,.4-1.189,2.621,2.621,0,0,1,1.121-.858,4.086,4.086,0,0,1,1.627-.311,3.228,3.228,0,0,1,2.17.687,2.4,2.4,0,0,1,.8,1.931v3.206a3.536,3.536,0,0,0,.294,1.593V27Zm-1.634-1.374a1.7,1.7,0,0,0,.807-.195,1.28,1.28,0,0,0,.547-.523V23.637h-.738q-1.483,0-1.579,1.025l-.007.116a.791.791,0,0,0,.26.608A1.009,1.009,0,0,0,27.934,25.626ZM39.453,23.37a4.479,4.479,0,0,1-.759,2.772,2.513,2.513,0,0,1-2.119.995,2.309,2.309,0,0,1-1.921-.923L34.565,27H32.788V16.5h1.976v3.767a2.25,2.25,0,0,1,1.8-.8,2.534,2.534,0,0,1,2.123.995,4.485,4.485,0,0,1,.769,2.8Zm-1.976-.144a2.942,2.942,0,0,0-.355-1.637,1.2,1.2,0,0,0-1.06-.516,1.3,1.3,0,0,0-1.3.772v2.919a1.321,1.321,0,0,0,1.313.779,1.22,1.22,0,0,0,1.258-.943A4.866,4.866,0,0,0,37.477,23.227ZM44.956,27a2.194,2.194,0,0,1-.2-.663,2.39,2.39,0,0,1-1.866.8,2.626,2.626,0,0,1-1.8-.629,2.023,2.023,0,0,1-.714-1.586,2.09,2.09,0,0,1,.872-1.8,4.3,4.3,0,0,1,2.519-.636h.909v-.424a1.219,1.219,0,0,0-.263-.82,1.035,1.035,0,0,0-.831-.308,1.177,1.177,0,0,0-.783.239.813.813,0,0,0-.284.656H40.54a1.984,1.984,0,0,1,.4-1.189,2.621,2.621,0,0,1,1.121-.858,4.086,4.086,0,0,1,1.627-.311,3.228,3.228,0,0,1,2.17.687,2.4,2.4,0,0,1,.8,1.931v3.206a3.536,3.536,0,0,0,.294,1.593V27Zm-1.634-1.374a1.7,1.7,0,0,0,.807-.195,1.28,1.28,0,0,0,.547-.523V23.637h-.738q-1.483,0-1.579,1.025l-.007.116a.791.791,0,0,0,.26.608A1.009,1.009,0,0,0,43.322,25.626Zm9.01-4.17a5.367,5.367,0,0,0-.711-.055,1.447,1.447,0,0,0-1.47.759V27H48.175V19.6h1.866l.055.882a1.831,1.831,0,0,1,1.647-1.019,2.07,2.07,0,0,1,.615.089Zm6.8-3.671V19.6H60.4v1.449H59.133v3.691a.881.881,0,0,0,.157.588.79.79,0,0,0,.6.178,3.151,3.151,0,0,0,.581-.048v1.5a4.067,4.067,0,0,1-1.2.178,1.886,1.886,0,0,1-2.119-2.1V21.053h-1.08V19.6h1.08V17.785Zm1.853,5.448a4.387,4.387,0,0,1,.424-1.962,3.1,3.1,0,0,1,1.22-1.333,3.56,3.56,0,0,1,1.849-.472,3.368,3.368,0,0,1,2.444.916,3.676,3.676,0,0,1,1.056,2.488l.014.506a3.866,3.866,0,0,1-.95,2.731,3.683,3.683,0,0,1-5.1,0,3.934,3.934,0,0,1-.954-2.789Zm1.976.14a2.765,2.765,0,0,0,.4,1.612,1.424,1.424,0,0,0,2.256.007,3.025,3.025,0,0,0,.4-1.763,2.737,2.737,0,0,0-.4-1.6,1.311,1.311,0,0,0-1.135-.568,1.29,1.29,0,0,0-1.121.565A3.076,3.076,0,0,0,62.961,23.374Zm5.94-.127a4.457,4.457,0,0,1,.776-2.755A2.517,2.517,0,0,1,71.8,19.467a2.265,2.265,0,0,1,1.784.807V16.5h1.982V27H73.783l-.1-.786a2.325,2.325,0,0,1-1.9.923,2.511,2.511,0,0,1-2.1-1.029A4.6,4.6,0,0,1,68.9,23.247Zm1.976.147a2.92,2.92,0,0,0,.362,1.6,1.18,1.18,0,0,0,1.053.555,1.322,1.322,0,0,0,1.292-.774V21.847a1.3,1.3,0,0,0-1.278-.774Q70.877,21.073,70.877,23.394Zm5.913-.161a4.387,4.387,0,0,1,.424-1.962,3.1,3.1,0,0,1,1.22-1.333,3.56,3.56,0,0,1,1.849-.472,3.368,3.368,0,0,1,2.444.916,3.676,3.676,0,0,1,1.056,2.488l.014.506a3.866,3.866,0,0,1-.95,2.731,3.683,3.683,0,0,1-5.1,0,3.934,3.934,0,0,1-.954-2.789Zm1.976.14a2.765,2.765,0,0,0,.4,1.612,1.424,1.424,0,0,0,2.256.007,3.025,3.025,0,0,0,.4-1.763,2.737,2.737,0,0,0-.4-1.6,1.311,1.311,0,0,0-1.135-.568,1.29,1.29,0,0,0-1.121.565A3.076,3.076,0,0,0,78.766,23.374ZM90.585,27H88.6V16.5h1.982ZM91.9,23.233a4.387,4.387,0,0,1,.424-1.962,3.1,3.1,0,0,1,1.22-1.333,3.56,3.56,0,0,1,1.849-.472,3.368,3.368,0,0,1,2.444.916A3.676,3.676,0,0,1,98.9,22.871l.014.506a3.866,3.866,0,0,1-.95,2.731,3.683,3.683,0,0,1-5.1,0,3.934,3.934,0,0,1-.954-2.789Zm1.976.14a2.765,2.765,0,0,0,.4,1.612,1.424,1.424,0,0,0,2.256.007,3.025,3.025,0,0,0,.4-1.763,2.737,2.737,0,0,0-.4-1.6A1.311,1.311,0,0,0,95.4,21.06a1.29,1.29,0,0,0-1.121.565A3.076,3.076,0,0,0,93.88,23.374ZM3.075,35.233a4.421,4.421,0,0,1,.776-2.755A2.537,2.537,0,0,1,5.98,31.467a2.271,2.271,0,0,1,1.894.909L8,31.6H9.74v10.24H7.758V38.364a2.277,2.277,0,0,1-1.791.772,2.518,2.518,0,0,1-2.105-1.025A4.638,4.638,0,0,1,3.075,35.233Zm1.976.14a2.9,2.9,0,0,0,.373,1.616,1.193,1.193,0,0,0,1.049.555,1.329,1.329,0,0,0,1.285-.726v-3.06a1.318,1.318,0,0,0-1.271-.7,1.207,1.207,0,0,0-1.06.555A3.2,3.2,0,0,0,5.051,35.374Zm10.671,2.874a2.477,2.477,0,0,1-2.023.889,2.337,2.337,0,0,1-1.815-.684,2.918,2.918,0,0,1-.639-2V31.6H13.22v4.784q0,1.157,1.053,1.157a1.426,1.426,0,0,0,1.381-.7V31.6h1.982V39H15.776Zm6.809.889a3.631,3.631,0,0,1-2.649-1,3.548,3.548,0,0,1-1.022-2.659v-.191A4.468,4.468,0,0,1,19.29,33.3a3.161,3.161,0,0,1,1.22-1.354,3.425,3.425,0,0,1,1.8-.475,3.07,3.07,0,0,1,2.389.957,3.889,3.889,0,0,1,.872,2.714v.807h-4.71a1.835,1.835,0,0,0,.578,1.162,1.746,1.746,0,0,0,1.22.438,2.132,2.132,0,0,0,1.784-.827l.971,1.087a2.966,2.966,0,0,1-1.2.981A3.947,3.947,0,0,1,22.53,39.137ZM22.3,33.06a1.234,1.234,0,0,0-.954.4,2.062,2.062,0,0,0-.468,1.14h2.748V34.44a1.471,1.471,0,0,0-.355-1.02A1.274,1.274,0,0,0,22.3,33.06Zm11.881,3.9a.637.637,0,0,0-.359-.571,4.077,4.077,0,0,0-1.152-.373q-2.639-.554-2.639-2.242a2.032,2.032,0,0,1,.817-1.644,3.3,3.3,0,0,1,2.136-.66,3.547,3.547,0,0,1,2.252.663,2.09,2.09,0,0,1,.844,1.723H34.11a.956.956,0,0,0-.273-.7,1.157,1.157,0,0,0-.854-.277,1.182,1.182,0,0,0-.772.226.712.712,0,0,0-.273.574.609.609,0,0,0,.311.53,3.2,3.2,0,0,0,1.049.349,8.57,8.57,0,0,1,1.244.332,2.044,2.044,0,0,1,1.565,1.989,1.929,1.929,0,0,1-.868,1.637A3.745,3.745,0,0,1,33,39.137a3.912,3.912,0,0,1-1.651-.332,2.77,2.77,0,0,1-1.131-.909,2.113,2.113,0,0,1-.41-1.248h1.873a1.031,1.031,0,0,0,.39.807,1.546,1.546,0,0,0,.971.28,1.43,1.43,0,0,0,.858-.215A.67.67,0,0,0,34.186,36.956Zm7.622,1.292a2.477,2.477,0,0,1-2.023.889,2.337,2.337,0,0,1-1.815-.684,2.918,2.918,0,0,1-.639-2V31.6h1.976v4.784q0,1.157,1.053,1.157a1.426,1.426,0,0,0,1.381-.7V31.6h1.982V39H41.862Zm6.48-.7a1.3,1.3,0,0,0,.889-.3,1.054,1.054,0,0,0,.355-.8h1.853a2.534,2.534,0,0,1-.41,1.377,2.706,2.706,0,0,1-1.1.971,3.455,3.455,0,0,1-1.548.345,3.211,3.211,0,0,1-2.5-1.008,3.99,3.99,0,0,1-.916-2.786v-.13a3.944,3.944,0,0,1,.909-2.728,3.174,3.174,0,0,1,2.5-1.019,3.111,3.111,0,0,1,2.225.79,2.8,2.8,0,0,1,.851,2.1H49.532a1.358,1.358,0,0,0-.355-.938,1.321,1.321,0,0,0-1.945.142A2.916,2.916,0,0,0,46.88,35.2V35.4a2.953,2.953,0,0,0,.349,1.643A1.2,1.2,0,0,0,48.288,37.544Zm7.629,1.593a3.631,3.631,0,0,1-2.649-1,3.548,3.548,0,0,1-1.022-2.659v-.191a4.468,4.468,0,0,1,.431-1.993,3.161,3.161,0,0,1,1.22-1.354,3.425,3.425,0,0,1,1.8-.475,3.07,3.07,0,0,1,2.389.957,3.889,3.889,0,0,1,.872,2.714v.807h-4.71a1.835,1.835,0,0,0,.578,1.162,1.746,1.746,0,0,0,1.22.438,2.132,2.132,0,0,0,1.784-.827L58.8,37.8a2.966,2.966,0,0,1-1.2.981A3.947,3.947,0,0,1,55.917,39.137Zm-.226-6.077a1.234,1.234,0,0,0-.954.4,2.062,2.062,0,0,0-.468,1.14h2.748V34.44a1.471,1.471,0,0,0-.355-1.02A1.274,1.274,0,0,0,55.691,33.06Zm4.081,2.188a4.457,4.457,0,0,1,.776-2.755,2.517,2.517,0,0,1,2.123-1.025,2.265,2.265,0,0,1,1.784.807V28.5h1.982V39H64.653l-.1-.786a2.325,2.325,0,0,1-1.9.923,2.511,2.511,0,0,1-2.1-1.029A4.6,4.6,0,0,1,59.772,35.247Zm1.976.147a2.92,2.92,0,0,0,.362,1.6,1.18,1.18,0,0,0,1.053.555,1.322,1.322,0,0,0,1.292-.774V33.847a1.3,1.3,0,0,0-1.278-.774Q61.748,33.073,61.748,35.394Zm9.625,3.743a3.631,3.631,0,0,1-2.649-1A3.548,3.548,0,0,1,67.7,35.479v-.191a4.468,4.468,0,0,1,.431-1.993,3.161,3.161,0,0,1,1.22-1.354,3.425,3.425,0,0,1,1.8-.475,3.07,3.07,0,0,1,2.389.957,3.889,3.889,0,0,1,.872,2.714v.807h-4.71a1.835,1.835,0,0,0,.578,1.162,1.746,1.746,0,0,0,1.22.438,2.132,2.132,0,0,0,1.784-.827l.971,1.087a2.966,2.966,0,0,1-1.2.981A3.947,3.947,0,0,1,71.373,39.137Zm-.226-6.077a1.234,1.234,0,0,0-.954.4,2.062,2.062,0,0,0-.468,1.14h2.748V34.44a1.471,1.471,0,0,0-.355-1.02A1.274,1.274,0,0,0,71.147,33.06Zm11.279,6.077a3.631,3.631,0,0,1-2.649-1,3.548,3.548,0,0,1-1.022-2.659v-.191a4.468,4.468,0,0,1,.431-1.993,3.161,3.161,0,0,1,1.22-1.354,3.425,3.425,0,0,1,1.8-.475,3.07,3.07,0,0,1,2.389.957,3.889,3.889,0,0,1,.872,2.714v.807h-4.71a1.835,1.835,0,0,0,.578,1.162,1.746,1.746,0,0,0,1.22.438,2.132,2.132,0,0,0,1.784-.827l.971,1.087a2.966,2.966,0,0,1-1.2.981A3.947,3.947,0,0,1,82.427,39.137ZM82.2,33.06a1.234,1.234,0,0,0-.954.4,2.062,2.062,0,0,0-.468,1.14h2.748V34.44a1.471,1.471,0,0,0-.355-1.02A1.274,1.274,0,0,0,82.2,33.06ZM88.408,31.6l.062.854a2.582,2.582,0,0,1,2.126-.991,2.146,2.146,0,0,1,1.75.69,3.221,3.221,0,0,1,.588,2.064V39H90.958V34.27a1.282,1.282,0,0,0-.273-.913,1.224,1.224,0,0,0-.909-.284,1.359,1.359,0,0,0-1.251.711V39H86.549V31.6ZM100,39H98.02V28.5H100Zm5.913,0a2.194,2.194,0,0,1-.2-.663,2.39,2.39,0,0,1-1.866.8,2.626,2.626,0,0,1-1.8-.629,2.023,2.023,0,0,1-.714-1.586,2.09,2.09,0,0,1,.872-1.8,4.3,4.3,0,0,1,2.519-.636h.909v-.424a1.219,1.219,0,0,0-.263-.82,1.035,1.035,0,0,0-.831-.308,1.177,1.177,0,0,0-.783.239.813.813,0,0,0-.284.656H101.5a1.985,1.985,0,0,1,.4-1.189,2.621,2.621,0,0,1,1.121-.858,4.086,4.086,0,0,1,1.627-.311,3.228,3.228,0,0,1,2.17.687,2.4,2.4,0,0,1,.8,1.931v3.206a3.536,3.536,0,0,0,.294,1.593V39Zm-1.634-1.374a1.7,1.7,0,0,0,.807-.195,1.28,1.28,0,0,0,.547-.523V35.637H104.9q-1.483,0-1.579,1.025l-.007.116a.791.791,0,0,0,.26.608A1.009,1.009,0,0,0,104.281,37.626ZM42.368,51V41.047h3.063a4.651,4.651,0,0,1,2.348.591A4.123,4.123,0,0,1,49.4,43.32a5.187,5.187,0,0,1,.581,2.478v.458a5.2,5.2,0,0,1-.571,2.468A4.088,4.088,0,0,1,47.8,50.4a4.686,4.686,0,0,1-2.345.6Zm2.051-8.292v6.645h.991a2.227,2.227,0,0,0,1.839-.786,3.552,3.552,0,0,0,.649-2.249v-.526a3.609,3.609,0,0,0-.629-2.3,2.219,2.219,0,0,0-1.839-.783Zm12.667,6.241h-3.6L52.807,51H50.626l3.705-9.953h1.9L59.957,51H57.776Zm-3.042-1.661h2.488l-1.251-3.726Zm14.875-1.039a6.008,6.008,0,0,1-.52,2.577,3.913,3.913,0,0,1-1.487,1.709,4.393,4.393,0,0,1-4.426.007,3.951,3.951,0,0,1-1.5-1.7,5.837,5.837,0,0,1-.54-2.54v-.492a5.977,5.977,0,0,1,.53-2.587,3.945,3.945,0,0,1,1.5-1.716,4.387,4.387,0,0,1,4.423,0,3.945,3.945,0,0,1,1.5,1.716,5.96,5.96,0,0,1,.53,2.581ZM66.841,45.8a4.188,4.188,0,0,0-.561-2.379,1.98,1.98,0,0,0-3.192-.01,4.141,4.141,0,0,0-.567,2.355v.485a4.241,4.241,0,0,0,.561,2.365,1.963,1.963,0,0,0,3.2.031,4.216,4.216,0,0,0,.561-2.362Z" transform="translate(7452.412 -8797.441)" fill="#12263f"/>
    <path id="Trazado_623478" data-name="Trazado 623478" d="M18.422,11.493V15H16.371V5.047h3.883a4.492,4.492,0,0,1,1.972.41,3.022,3.022,0,0,1,1.309,1.166,3.25,3.25,0,0,1,.458,1.719,2.858,2.858,0,0,1-1,2.307,4.171,4.171,0,0,1-2.772.844Zm0-1.661h1.832a1.8,1.8,0,0,0,1.241-.383,1.392,1.392,0,0,0,.427-1.094,1.642,1.642,0,0,0-.431-1.183A1.609,1.609,0,0,0,20.3,6.708h-1.88Zm11.006-.376a5.367,5.367,0,0,0-.711-.055,1.447,1.447,0,0,0-1.47.759V15H25.271V7.6h1.866l.055.882A1.831,1.831,0,0,1,28.84,7.467a2.07,2.07,0,0,1,.615.089Zm.4,1.777a4.387,4.387,0,0,1,.424-1.962,3.1,3.1,0,0,1,1.22-1.333,3.56,3.56,0,0,1,1.849-.472,3.368,3.368,0,0,1,2.444.916,3.676,3.676,0,0,1,1.056,2.488l.014.506a3.866,3.866,0,0,1-.95,2.731,3.683,3.683,0,0,1-5.1,0,3.934,3.934,0,0,1-.954-2.789Zm1.976.14a2.765,2.765,0,0,0,.4,1.612,1.424,1.424,0,0,0,2.256.007,3.025,3.025,0,0,0,.4-1.763,2.737,2.737,0,0,0-.4-1.6,1.311,1.311,0,0,0-1.135-.568,1.29,1.29,0,0,0-1.121.565A3.076,3.076,0,0,0,31.8,11.374Zm8.613-5.588V7.6h1.265V9.053H40.413v3.691a.881.881,0,0,0,.157.588.79.79,0,0,0,.6.178,3.15,3.15,0,0,0,.581-.048v1.5a4.067,4.067,0,0,1-1.2.178,1.886,1.886,0,0,1-2.119-2.1V9.053h-1.08V7.6h1.08V5.785Zm1.853,5.448a4.387,4.387,0,0,1,.424-1.962,3.1,3.1,0,0,1,1.22-1.333,3.56,3.56,0,0,1,1.849-.472,3.368,3.368,0,0,1,2.444.916,3.676,3.676,0,0,1,1.056,2.488l.014.506a3.866,3.866,0,0,1-.95,2.731,3.683,3.683,0,0,1-5.1,0,3.934,3.934,0,0,1-.954-2.789Zm1.976.14a2.765,2.765,0,0,0,.4,1.612,1.424,1.424,0,0,0,2.256.007,3.025,3.025,0,0,0,.4-1.763,2.737,2.737,0,0,0-.4-1.6,1.311,1.311,0,0,0-1.135-.568,1.29,1.29,0,0,0-1.121.565A3.076,3.076,0,0,0,44.241,11.374Zm9.324,2.17a1.3,1.3,0,0,0,.889-.3,1.054,1.054,0,0,0,.355-.8h1.853a2.534,2.534,0,0,1-.41,1.377,2.706,2.706,0,0,1-1.1.971,3.455,3.455,0,0,1-1.548.345,3.211,3.211,0,0,1-2.5-1.008,3.99,3.99,0,0,1-.916-2.786v-.13a3.944,3.944,0,0,1,.909-2.728,3.174,3.174,0,0,1,2.5-1.019,3.111,3.111,0,0,1,2.225.79,2.8,2.8,0,0,1,.851,2.1H54.81a1.358,1.358,0,0,0-.355-.938,1.321,1.321,0,0,0-1.945.142,2.916,2.916,0,0,0-.352,1.633V11.4a2.953,2.953,0,0,0,.349,1.643A1.2,1.2,0,0,0,53.565,13.544Zm3.917-2.311a4.387,4.387,0,0,1,.424-1.962,3.1,3.1,0,0,1,1.22-1.333,3.56,3.56,0,0,1,1.849-.472,3.368,3.368,0,0,1,2.444.916,3.676,3.676,0,0,1,1.056,2.488l.014.506a3.866,3.866,0,0,1-.95,2.731,3.683,3.683,0,0,1-5.1,0,3.934,3.934,0,0,1-.954-2.789Zm1.976.14a2.765,2.765,0,0,0,.4,1.612,1.424,1.424,0,0,0,2.256.007,3.025,3.025,0,0,0,.4-1.763,2.737,2.737,0,0,0-.4-1.6,1.311,1.311,0,0,0-1.135-.568,1.29,1.29,0,0,0-1.121.565A3.076,3.076,0,0,0,59.458,11.374ZM67.791,15H65.809V4.5h1.982Zm1.319-3.767a4.387,4.387,0,0,1,.424-1.962,3.1,3.1,0,0,1,1.22-1.333A3.56,3.56,0,0,1,72.6,7.467a3.368,3.368,0,0,1,2.444.916A3.676,3.676,0,0,1,76.1,10.871l.014.506a3.866,3.866,0,0,1-.95,2.731,3.683,3.683,0,0,1-5.1,0,3.934,3.934,0,0,1-.954-2.789Zm1.976.14a2.765,2.765,0,0,0,.4,1.612,1.424,1.424,0,0,0,2.256.007,3.025,3.025,0,0,0,.4-1.763,2.737,2.737,0,0,0-.4-1.6A1.311,1.311,0,0,0,72.6,9.06a1.29,1.29,0,0,0-1.121.565A3.076,3.076,0,0,0,71.086,11.374Zm9.427-.127a4.457,4.457,0,0,1,.776-2.755,2.517,2.517,0,0,1,2.123-1.025,2.265,2.265,0,0,1,1.784.807V4.5h1.982V15H85.394l-.1-.786a2.325,2.325,0,0,1-1.9.923,2.511,2.511,0,0,1-2.1-1.029A4.6,4.6,0,0,1,80.513,11.247Zm1.976.147a2.92,2.92,0,0,0,.362,1.6,1.18,1.18,0,0,0,1.053.555A1.322,1.322,0,0,0,85.2,12.77V9.847a1.3,1.3,0,0,0-1.278-.774Q82.488,9.073,82.488,11.394Zm9.625,3.743a3.631,3.631,0,0,1-2.649-1,3.548,3.548,0,0,1-1.022-2.659v-.191A4.468,4.468,0,0,1,88.873,9.3a3.161,3.161,0,0,1,1.22-1.354,3.425,3.425,0,0,1,1.8-.475,3.07,3.07,0,0,1,2.389.957,3.889,3.889,0,0,1,.872,2.714v.807h-4.71a1.835,1.835,0,0,0,.578,1.162,1.746,1.746,0,0,0,1.22.438,2.132,2.132,0,0,0,1.784-.827L95,13.8a2.966,2.966,0,0,1-1.2.981A3.947,3.947,0,0,1,92.113,15.137ZM91.888,9.06a1.234,1.234,0,0,0-.954.4,2.062,2.062,0,0,0-.468,1.14h2.748V10.44a1.471,1.471,0,0,0-.355-1.02A1.274,1.274,0,0,0,91.888,9.06ZM28.946,25.544a1.3,1.3,0,0,0,.889-.3,1.054,1.054,0,0,0,.355-.8h1.853a2.534,2.534,0,0,1-.41,1.377,2.706,2.706,0,0,1-1.1.971,3.455,3.455,0,0,1-1.548.345,3.211,3.211,0,0,1-2.5-1.008,3.99,3.99,0,0,1-.916-2.786v-.13a3.944,3.944,0,0,1,.909-2.728,3.174,3.174,0,0,1,2.5-1.019,3.111,3.111,0,0,1,2.225.79,2.8,2.8,0,0,1,.851,2.1H30.19a1.358,1.358,0,0,0-.355-.938,1.321,1.321,0,0,0-1.945.142,2.916,2.916,0,0,0-.352,1.633V23.4a2.953,2.953,0,0,0,.349,1.643A1.2,1.2,0,0,0,28.946,25.544Zm3.917-2.311a4.387,4.387,0,0,1,.424-1.962,3.1,3.1,0,0,1,1.22-1.333,3.56,3.56,0,0,1,1.849-.472,3.368,3.368,0,0,1,2.444.916,3.676,3.676,0,0,1,1.056,2.488l.014.506a3.866,3.866,0,0,1-.95,2.731,3.683,3.683,0,0,1-5.1,0,3.934,3.934,0,0,1-.954-2.789Zm1.976.14a2.765,2.765,0,0,0,.4,1.612,1.424,1.424,0,0,0,2.256.007,3.025,3.025,0,0,0,.4-1.763,2.737,2.737,0,0,0-.4-1.6,1.311,1.311,0,0,0-1.135-.568,1.29,1.29,0,0,0-1.121.565A3.076,3.076,0,0,0,34.838,23.374ZM42.9,19.6l.062.854a2.582,2.582,0,0,1,2.126-.991,2.146,2.146,0,0,1,1.75.69,3.221,3.221,0,0,1,.588,2.064V27H45.455V22.27a1.282,1.282,0,0,0-.273-.913,1.224,1.224,0,0,0-.909-.284,1.359,1.359,0,0,0-1.251.711V27H41.045V19.6Zm10.028,5.353a.637.637,0,0,0-.359-.571,4.077,4.077,0,0,0-1.152-.373q-2.639-.554-2.639-2.242a2.032,2.032,0,0,1,.817-1.644,3.3,3.3,0,0,1,2.136-.66,3.547,3.547,0,0,1,2.252.663,2.09,2.09,0,0,1,.844,1.723H52.858a.956.956,0,0,0-.273-.7,1.157,1.157,0,0,0-.854-.277,1.182,1.182,0,0,0-.772.226.712.712,0,0,0-.273.574A.609.609,0,0,0,51,22.2a3.2,3.2,0,0,0,1.049.349,8.571,8.571,0,0,1,1.244.332,2.044,2.044,0,0,1,1.565,1.989,1.929,1.929,0,0,1-.868,1.637,3.745,3.745,0,0,1-2.242.625,3.912,3.912,0,0,1-1.651-.332,2.77,2.77,0,0,1-1.131-.909,2.113,2.113,0,0,1-.41-1.248h1.873a1.031,1.031,0,0,0,.39.807,1.546,1.546,0,0,0,.971.28,1.43,1.43,0,0,0,.858-.215A.67.67,0,0,0,52.933,24.956Zm6.6,2.181a3.631,3.631,0,0,1-2.649-1,3.548,3.548,0,0,1-1.022-2.659v-.191A4.468,4.468,0,0,1,56.29,21.3a3.161,3.161,0,0,1,1.22-1.354,3.425,3.425,0,0,1,1.8-.475,3.07,3.07,0,0,1,2.389.957,3.889,3.889,0,0,1,.872,2.714v.807h-4.71a1.835,1.835,0,0,0,.578,1.162,1.746,1.746,0,0,0,1.22.438,2.132,2.132,0,0,0,1.784-.827l.971,1.087a2.966,2.966,0,0,1-1.2.981A3.947,3.947,0,0,1,59.53,27.137ZM59.3,21.06a1.234,1.234,0,0,0-.954.4,2.062,2.062,0,0,0-.468,1.14H60.63V22.44a1.471,1.471,0,0,0-.355-1.02A1.274,1.274,0,0,0,59.3,21.06ZM65.511,19.6l.062.854a2.582,2.582,0,0,1,2.126-.991,2.146,2.146,0,0,1,1.75.69,3.221,3.221,0,0,1,.588,2.064V27H68.061V22.27a1.282,1.282,0,0,0-.273-.913,1.224,1.224,0,0,0-.909-.284,1.359,1.359,0,0,0-1.251.711V27H63.652V19.6ZM75.54,24.956a.637.637,0,0,0-.359-.571,4.077,4.077,0,0,0-1.152-.373q-2.639-.554-2.639-2.242a2.032,2.032,0,0,1,.817-1.644,3.3,3.3,0,0,1,2.136-.66,3.547,3.547,0,0,1,2.252.663,2.09,2.09,0,0,1,.844,1.723H75.464a.956.956,0,0,0-.273-.7,1.157,1.157,0,0,0-.854-.277,1.182,1.182,0,0,0-.772.226.712.712,0,0,0-.273.574.609.609,0,0,0,.311.53,3.2,3.2,0,0,0,1.049.349,8.571,8.571,0,0,1,1.244.332,2.044,2.044,0,0,1,1.565,1.989,1.929,1.929,0,0,1-.868,1.637,3.745,3.745,0,0,1-2.242.625,3.912,3.912,0,0,1-1.651-.332,2.77,2.77,0,0,1-1.131-.909,2.113,2.113,0,0,1-.41-1.248h1.873a1.031,1.031,0,0,0,.39.807,1.546,1.546,0,0,0,.971.28,1.43,1.43,0,0,0,.858-.215A.67.67,0,0,0,75.54,24.956Zm2.885-1.723a4.387,4.387,0,0,1,.424-1.962,3.1,3.1,0,0,1,1.22-1.333,3.56,3.56,0,0,1,1.849-.472,3.368,3.368,0,0,1,2.444.916,3.676,3.676,0,0,1,1.056,2.488l.014.506a3.866,3.866,0,0,1-.95,2.731,3.683,3.683,0,0,1-5.1,0,3.934,3.934,0,0,1-.954-2.789Zm1.976.14a2.765,2.765,0,0,0,.4,1.612,1.424,1.424,0,0,0,2.256.007,3.025,3.025,0,0,0,.4-1.763,2.737,2.737,0,0,0-.4-1.6,1.311,1.311,0,0,0-1.135-.568,1.29,1.29,0,0,0-1.121.565A3.076,3.076,0,0,0,80.4,23.374Z" transform="translate(7630.961 -8923.166)" fill="#12263f"/>
  </g>
</svg>
