<svg id="Grupo_949296" data-name="Grupo 949296" xmlns="http://www.w3.org/2000/svg" xmlns:xlink="http://www.w3.org/1999/xlink" width="87.339" height="87.338" viewBox="0 0 87.339 87.338">
  <defs>
    <radialGradient id="radial-gradient" cx="0.076" cy="0.019" r="1.465" gradientTransform="translate(0.001)" gradientUnits="objectBoundingBox">
      <stop offset="0" stop-color="#f6f6f7"/>
      <stop offset="0.477" stop-color="#f9f9fa"/>
      <stop offset="0.715" stop-color="#fff"/>
    </radialGradient>
    <clipPath id="clip-path">
      <rect id="Rectángulo_66250" data-name="Rectángulo 66250" width="49.086" height="47.937" fill="none"/>
    </clipPath>
  </defs>
  <g id="Grupo_18423" data-name="Grupo 18423" transform="translate(0 0)">
    <g id="Grupo_18421" data-name="Grupo 18421">
      <g id="Grupo_18420" data-name="Grupo 18420">
        <g id="Grupo_18419" data-name="Grupo 18419">
          <path id="Trazado_40936" data-name="Trazado 40936" d="M281.962,2189.389a43.669,43.669,0,1,1-43.669-43.668A43.669,43.669,0,0,1,281.962,2189.389Z" transform="translate(-194.623 -2145.721)" fill="#fff"/>
        </g>
      </g>
    </g>
    <path id="Trazado_40937" data-name="Trazado 40937" d="M281.7,2189.1a43.669,43.669,0,1,0-43.669,43.67A43.5,43.5,0,0,0,281.7,2189.1Z" transform="translate(-194.361 -2145.436)" fill="url(#radial-gradient)"/>
    <path id="Trazado_40938" data-name="Trazado 40938" d="M269.1,2186.859a33.332,33.332,0,1,0-33.333,33.333A33.209,33.209,0,0,0,269.1,2186.859Z" transform="translate(-191.968 -2143.046)" fill="none" stroke="#12263f" stroke-miterlimit="10" stroke-width="4"/>
    <g id="Grupo_18422" data-name="Grupo 18422" transform="translate(7.736 24.517)">
      <path id="Trazado_40939" data-name="Trazado 40939" d="M275.732,2164.488a43.675,43.675,0,0,1-75.187,43.488,43.536,43.536,0,0,0,75.187-43.488Z" transform="translate(-200.545 -2164.488)" fill="#eceef0"/>
    </g>
  </g>
  <g id="Grupo_151141" data-name="Grupo 151141" transform="translate(20.127 16.701)">
    <g id="Grupo_151140" data-name="Grupo 151140" clip-path="url(#clip-path)">
      <path id="Trazado_174333" data-name="Trazado 174333" d="M335.33,277.66c-2.376-1.355-4.733-2.742-7.113-4.09-.6-.342-.6-.351-1.1.079l-.037-.008c-.07.234-.276.408-.295.664q2.337,1.329,4.674,2.659c1.008.576,2.012,1.159,3.017,1.739a5.283,5.283,0,0,1,.083,1.733q.009,3.925.021,7.85a.385.385,0,0,1-.225.377q-2.614,1.5-5.224,3h0c-.987.591-1.963,1.2-3,1.709-.193.013-.322-.125-.469-.209q-3.574-2.054-7.143-4.117c-.664-.383-.667-.384-1.062.229l.01.013c-.09.615-.093.62.5.965,2.577,1.5,5.17,2.967,7.738,4.48a.747.747,0,0,0,.843-.022q1.653-.962,3.309-1.919c1.861-1.08,3.732-2.143,5.586-3.234.167-.1.34-.265.567-.12v-11.5c-.281.044-.476-.152-.687-.272" transform="translate(-286.932 -247.06)"/>
      <path id="Trazado_174334" data-name="Trazado 174334" d="M417.911,271.848c0,.011-.007.022-.01.032l.036.008c.5-.43.494-.421,1.1-.079,2.38,1.348,4.737,2.735,7.113,4.09.211.12.406.316.687.272l-7.885-4.551c-.629-.363-.63-.362-1.039.227" transform="translate(-377.75 -245.3)"/>
      <path id="Trazado_174335" data-name="Trazado 174335" d="M333.8,439.621c-1.855,1.091-3.726,2.153-5.586,3.234q-1.654.96-3.309,1.919a.747.747,0,0,1-.843.022c-2.568-1.513-5.16-2.984-7.738-4.48-.594-.345-.591-.35-.5-.965l-.01-.013,0,.006h0c-.314.638-.314.637.328,1.007q3.973,2.291,7.943,4.589a.664.664,0,0,0,.767.007q4.293-2.5,8.6-4.977a2.938,2.938,0,0,1,.918-.467c-.227-.145-.4.021-.567.12" transform="translate(-285.286 -397.127)"/>
      <path id="Trazado_174336" data-name="Trazado 174336" d="M361.883,393.884h0" transform="translate(-327.112 -356.041)"/>
      <path id="Trazado_174337" data-name="Trazado 174337" d="M170.778,376.821a.278.278,0,0,1,.316-.207c.284.008.569.011.853.017.524-.008,1.048-.03,1.572-.018.272.006.366-.081.346-.352-.027-.363-.024-.729-.033-1.093-.888,0-1.775,0-2.662.007-.187,0-.32-.014-.4-.231a2.8,2.8,0,0,0-1.726-1.644h0a9.1,9.1,0,0,0-2.666-.046,2.529,2.529,0,0,0-2.093,1.606c-.087.195-.138.346-.416.345s-.332-.152-.422-.346a2.505,2.505,0,0,0-2.246-1.6,6.349,6.349,0,0,0-3.055.291h0A3.046,3.046,0,0,0,156.961,375c-.077.23-.253.2-.426.2-.749,0-1.5.015-2.246,0-.311-.007-.45.053-.448.411.006,1.032-.011,1.032,1.019,1.032.239,0,.479.015.717,0,.757-.057,1.466-.089,1.758.863.107.349.494.531.792.754.162-.075.306.012.455.055a6.143,6.143,0,0,0,3.074.042,2.33,2.33,0,0,0,1.583-1.284c.138-.267.225-.57.623-.56.357.008.482.259.618.516a2.459,2.459,0,0,0,2.373,1.393c.731-.01,1.463-.008,2.194-.008a.326.326,0,0,1,.054.045,2.748,2.748,0,0,0,1.675-1.633m-9.64-.484c.028.634.548.1.77.359a2.916,2.916,0,0,1-3.36-.026c.237-.1.628.088.7-.1a3.611,3.611,0,0,0,.056-1.033c.034-.68-.539-.165-.731-.392.519-.7,2.722-.713,3.367.006-.258.1-.673-.091-.746.1a2.825,2.825,0,0,0-.054,1.08m7.268-.775a3.176,3.176,0,0,1,0,.573c-.032.335.021.567.444.488.081-.015.209-.038.228.1.015.106-.078.163-.155.221a4.006,4.006,0,0,1-3.058-.186c-.018-.017-.018-.053-.026-.08.751-.118.751-.118.74-1.1,0-.334,0-.334-.781-.433a1,1,0,0,1,.836-.476c.572-.035,1.147-.024,1.72-.011a1.367,1.367,0,0,1,.455.131c.132.053.3.129.267.293s-.216.117-.326.1c-.331-.049-.368.125-.345.387" transform="translate(-139.061 -337.323)"/>
      <path id="Trazado_174338" data-name="Trazado 174338" d="M209.379,409.75c-.731,0-1.463,0-2.194.008a2.458,2.458,0,0,1-2.373-1.393c-.136-.257-.261-.508-.618-.516-.4-.01-.486.293-.623.56a2.33,2.33,0,0,1-1.583,1.284,6.145,6.145,0,0,1-3.075-.042c-.148-.042-.292-.13-.455-.055l.03.023a5.882,5.882,0,0,0,3.05.292,2.512,2.512,0,0,0,2.241-1.606c.088-.192.137-.353.417-.348.264,0,.334.125.425.333a2.463,2.463,0,0,0,2,1.578,9.245,9.245,0,0,0,2.759-.052l.048-.019a.331.331,0,0,0-.054-.045" transform="translate(-179.392 -368.664)"/>
      <path id="Trazado_174339" data-name="Trazado 174339" d="M301.686,145.322a.519.519,0,0,1-.6-.328c-.348-.643-.733-1.266-1.084-1.908-.129-.237-.223-.317-.5-.158-.943.547-.95.535-.406,1.483q.4.7.807,1.407c.077.135.173.25.026.422a2.565,2.565,0,0,0-.569,2.353,7.765,7.765,0,0,0,1.383,2.489,2.446,2.446,0,0,0,2.276.856.461.461,0,0,1,.54.244c.141.243-.02.344-.126.49a2.475,2.475,0,0,0-.394,2.445,7.26,7.26,0,0,0,1.594,2.582,2.949,2.949,0,0,0,1.928.582c.334-.126.509.025.665.319.349.659.738,1.3,1.1,1.949.11.2.193.264.431.136,1-.539,1.009-.529.437-1.528a12.672,12.672,0,0,0-.669-1.152.623.623,0,0,1,.131-.993,3.238,3.238,0,0,0,.328-1.809l-.072-.014a11.046,11.046,0,0,0-1.038-2.042,2.557,2.557,0,0,0-2.532-1.387.612.612,0,0,1-.664-.264c-.172-.29-.046-.5.118-.74a2.439,2.439,0,0,0,.176-2.666,12.466,12.466,0,0,0-1.107-1.843,1.048,1.048,0,0,1-.229-.384,2.6,2.6,0,0,0-1.953-.543m2.782,8.517c.149.224.336.62.414.6a5.592,5.592,0,0,0,.932-.457c.639-.306-.123-.578-.008-.867.849.117,1.909,1.932,1.691,2.905-.343-.014-.165-.719-.654-.509a3.4,3.4,0,0,0-.866.5c-.377.322.237.488.158.777a2.923,2.923,0,0,1-1.667-2.95m-2.283-7.065a3.05,3.05,0,0,1,1.678,2.932c-.316-.046-.148-.692-.614-.517a5.569,5.569,0,0,0-.788.445c-.554.32.155.551.056.838a2.952,2.952,0,0,1-1.679-2.934c.234.148.247.619.475.582a2.715,2.715,0,0,0,.96-.5c.508-.334-.189-.527-.088-.845" transform="translate(-270.035 -129.12)"/>
      <path id="Trazado_174340" data-name="Trazado 174340" d="M349.99,174.662A12.481,12.481,0,0,1,351.1,176.5a2.439,2.439,0,0,1-.176,2.666c-.164.235-.29.45-.118.74a.612.612,0,0,0,.664.264A2.557,2.557,0,0,1,354,181.561a11.044,11.044,0,0,1,1.038,2.042l.072.014c0-.007,0-.014,0-.021a6.693,6.693,0,0,0-1.075-2.218,2.559,2.559,0,0,0-2.65-1.328.436.436,0,0,1-.507-.219c-.132-.221-.035-.333.086-.495a2.449,2.449,0,0,0,.432-2.433,7.3,7.3,0,0,0-1.581-2.588l-.05-.038a1.046,1.046,0,0,0,.229.384" transform="translate(-316.157 -157.534)"/>
      <path id="Trazado_174341" data-name="Trazado 174341" d="M100.244,157.39a.862.862,0,0,0,.133.252c.5.453.331.88.011,1.354s-.576.991-.861,1.49a.487.487,0,0,0-.067.126c-.131.617.5.493.744.745.144.148.343.292.52-.045.364-.69.778-1.354,1.149-2.04a.427.427,0,0,1,.518-.268,2.783,2.783,0,0,0,2.062-.58,7.891,7.891,0,0,0,1.505-2.412,2.5,2.5,0,0,0-.365-2.611c-.122-.164-.215-.279-.083-.5a.4.4,0,0,1,.457-.22,2.69,2.69,0,0,0,2.823-1.535,7.464,7.464,0,0,0,.963-2.01,3.28,3.28,0,0,0-.343-1.8.71.71,0,0,1-.094-1.092c.361-.522.631-1.105.964-1.648.162-.264.182-.408-.135-.584-.907-.5-.9-.518-1.422.39-.175.3-.357.6-.536.9a4.079,4.079,0,0,0-.191.38.555.555,0,0,1-.7.376,2.645,2.645,0,0,0-1.836.5.387.387,0,0,1-.129.291,7.73,7.73,0,0,0-1.064,1.643,2.692,2.692,0,0,0,.036,3.1.556.556,0,0,1,.079.626.567.567,0,0,1-.611.279,2.6,2.6,0,0,0-2.639,1.45c-.375.649-.722,1.309-1.033,1.99l-.056.01a3.615,3.615,0,0,0,.2,1.432m6.636-9.838c.105.289-.634.495-.068.834a3.605,3.605,0,0,0,.83.46c.4.108.3-.427.559-.533.357.795-.722,2.7-1.653,2.923-.048-.007-.05-.024-.027-.066.344-.638.344-.639-.294-1-.573-.324-.573-.324-.985.27-.415-.768.768-2.828,1.639-2.888m-5.348,8.477c.452-.816.669-1.833,1.7-2.239.144.375-.592.551-.065.894.9.583.9.576,1.438-.065a2.992,2.992,0,0,1-1.676,2.932c-.046-.009-.034-.025-.02-.067.076-.23.416-.492.253-.647a2.8,2.8,0,0,0-1.108-.627c-.176-.053-.237.356-.463.6a.834.834,0,0,1-.06-.781" transform="translate(-89.888 -129.871)"/>
      <path id="Trazado_174342" data-name="Trazado 174342" d="M105.757,183.141c.311-.681.657-1.341,1.033-1.99a2.6,2.6,0,0,1,2.639-1.45.567.567,0,0,0,.611-.279.556.556,0,0,0-.079-.626,2.692,2.692,0,0,1-.036-3.1,7.741,7.741,0,0,1,1.064-1.643.387.387,0,0,0,.129-.291l-.047.03h0a7.406,7.406,0,0,0-1.414,2.133,2.593,2.593,0,0,0,.2,2.918c.124.175.231.3.092.539s-.3.218-.513.2a2.49,2.49,0,0,0-2.453,1.069,8.071,8.071,0,0,0-1.282,2.486c0,.007,0,.014,0,.021l.056-.01" transform="translate(-95.546 -157.063)"/>
      <path id="Trazado_174343" data-name="Trazado 174343" d="M18.762,288.284q-2.337,1.345-4.678,2.683-1.382.807-2.764,1.612c-.088.051-.177.162-.293.041h0Q7.01,290.3,2.99,287.987c-.185-.107-.328-.2-.327-.463.014-3.145.015-6.289.019-9.434h0a8.314,8.314,0,0,1,1.448-.9c1.909-1.114,3.827-2.211,5.742-3.314.644-.371.659-.383.314-1a.359.359,0,0,1-.078-.019c-.242-.365-.5-.361-.879-.142q-3.725,2.172-7.467,4.315a.722.722,0,0,0-.407.694q.007,5.2,0,10.4a.786.786,0,0,0,.5.734c2.221,1.263,4.427,2.552,6.644,3.823.734.421,1.47.839,2.2,1.276a.774.774,0,0,0,.885,0c2.66-1.526,5.3-3.084,7.972-4.589.368-.207.521-.434.373-.835.007-.012.014-.024.021-.035-.394-.668-.422-.651-1.183-.213" transform="translate(-1.222 -246.378)"/>
      <path id="Trazado_174344" data-name="Trazado 174344" d="M18.7,286.6c.148.4,0,.627-.373.835-2.672,1.5-5.313,3.063-7.972,4.589a.774.774,0,0,1-.885,0c-.725-.436-1.461-.855-2.2-1.276-2.217-1.27-4.423-2.559-6.644-3.823a.786.786,0,0,1-.5-.734q.015-5.2,0-10.4A.722.722,0,0,1,.54,275.1q3.746-2.136,7.467-4.315c.375-.219.636-.222.879.142a.36.36,0,0,0,.078.019l-.026-.047c-.353-.58-.352-.579-.95-.234q-3.8,2.2-7.612,4.387a.617.617,0,0,0-.375.62q.024,5.314,0,10.628a.587.587,0,0,0,.331.6q4.619,2.646,9.223,5.32a.62.62,0,0,0,.729,0q4.125-2.4,8.272-4.771c.408-.232.54-.426.214-.8l-.047-.079c-.007.012-.013.024-.021.035" transform="translate(0 -244.449)"/>
      <path id="Trazado_174345" data-name="Trazado 174345" d="M155.292,16.377q.008-4.056.017-8.111a7.725,7.725,0,0,1,1.482-.923c2.088-1.221,4.2-2.4,6.275-3.645a1.039,1.039,0,0,1,1.431.069l7.655,4.419c.033.687.089,1.375.094,2.062.012,2.119,0,4.238.006,6.357,0,.19.02.381.03.571h0l.628.014c.7-.1.668-.612.665-1.154q-.022-3.951,0-7.9a1,1,0,0,0-.568-.993q-4.383-2.51-8.749-5.051a.862.862,0,0,0-.974-.017q-4.428,2.576-8.872,5.125a.8.8,0,0,0-.425.784c.008,2.809.019,5.619-.009,8.428a.67.67,0,0,0,.58.759c0,.007.007.015.011.023.722-.044.722-.054.724-.814" transform="translate(-139.183 -1.745)"/>
      <path id="Trazado_174346" data-name="Trazado 174346" d="M343.177,85.009l.005.007v-.01l-.005,0" transform="translate(-310.205 -76.839)"/>
      <path id="Trazado_174347" data-name="Trazado 174347" d="M153.306,15.423a.669.669,0,0,1-.58-.759c.028-2.809.017-5.618.009-8.428a.8.8,0,0,1,.425-.784Q157.6,2.9,162.033.328a.862.862,0,0,1,.974.017q4.363,2.545,8.749,5.051a1,1,0,0,1,.568.993q-.025,3.95,0,7.9c0,.542.031,1.05-.665,1.154h.029c.717-.04.717-.04.717-.752,0-2.873-.006-5.745.008-8.618a.668.668,0,0,0-.383-.675q-4.577-2.625-9.137-5.278a.664.664,0,0,0-.767,0q-4.56,2.655-9.139,5.276a.689.689,0,0,0-.392.71c.014,2.856.008,5.713.008,8.57,0,.729,0,.729.69.772l.026,0c0-.008-.007-.015-.011-.023" transform="translate(-137.933 0)"/>
      <path id="Trazado_174348" data-name="Trazado 174348" d="M138.042,354.015a1.011,1.011,0,0,0-1.136-.639c-.572.035-1.148.008-1.722.006-.373,0-.541-.165-.563-.547-.063-1.1-.009-1.165,1.1-1.165.478,0,.957-.012,1.435,0a.725.725,0,0,0,.765-.44,2.512,2.512,0,0,1,1.067-1.13l.085-.044q0-.561.005-1.122c-.89-.011-.766.1-.776-.8,0-.244,0-.489,0-.815l-.015-.012c-.806.46-1.544.877-2.278,1.3-.964.555-1.92,1.124-2.892,1.666a.591.591,0,0,0-.375.585c.012,2.424.006,4.848.008,7.272a.609.609,0,0,0,.038.326l.04-.023c1.606-.949,3.23-1.865,4.841-2.8.66-.385.923-.3,1.067.387a8.163,8.163,0,0,0,.31-1.13,1.361,1.361,0,0,1-1-.872" transform="translate(-119.989 -313.939)" fill="#78767f"/>
      <path id="Trazado_174349" data-name="Trazado 174349" d="M195.124,427.325c.008.038.016.078.023.12.385-.342.318-.8.327-1.243l-.04-.007a8.148,8.148,0,0,1-.31,1.13" transform="translate(-176.377 -385.247)" fill="#78767f"/>
      <path id="Trazado_174350" data-name="Trazado 174350" d="M155.769,380c-.292-.952-1-.921-1.758-.863-.238.018-.478,0-.717,0-1.03,0-1.013,0-1.019-1.032,0-.358.136-.418.448-.411.748.017,1.5,0,2.246,0,.173,0,.349.031.426-.2a3.046,3.046,0,0,1,1.185-1.453h0v-.1l-.085.044a2.513,2.513,0,0,0-1.067,1.13.724.724,0,0,1-.765.44c-.478-.015-.957,0-1.435,0-1.11,0-1.164.068-1.1,1.165.022.382.191.546.563.547.574,0,1.15.029,1.722-.006a1.011,1.011,0,0,1,1.136.639,1.361,1.361,0,0,0,1,.872l0-.014.005,0c-.3-.223-.685-.4-.792-.754" transform="translate(-137.494 -339.826)" fill="#78767f"/>
      <path id="Trazado_174351" data-name="Trazado 174351" d="M198.358,426.034l0,.014.04.007-.03-.022-.005,0" transform="translate(-179.296 -385.1)" fill="#78767f"/>
      <path id="Trazado_174352" data-name="Trazado 174352" d="M138.1,431.777c-1.611.939-3.235,1.855-4.841,2.8l-.04.023a.256.256,0,0,0,.064.072q2.339-1.341,4.678-2.683c.762-.438.789-.456,1.183.213.008-.014.016-.027.023-.041-.144-.688-.407-.772-1.067-.387" transform="translate(-120.419 -390.087)" fill="#78767f"/>
      <path id="Trazado_174353" data-name="Trazado 174353" d="M194.881,438l.046.079c-.007-.042-.015-.081-.023-.12-.007.014-.015.027-.023.041" transform="translate(-176.157 -395.879)" fill="#78767f"/>
      <path id="Trazado_174354" data-name="Trazado 174354" d="M290.948,92.571a1.127,1.127,0,0,1-.1-.695q-.006-3.079,0-6.158c0-.135-.008-.27-.02-.405-.7.4-1.358.768-2.01,1.142-1.007.579-2.008,1.17-3.021,1.74a.778.778,0,0,0-.482.774c.025,2.331.01,4.663.015,7,0,.182-.073.389.109.537.185-.108.34-.137.443.115a2.386,2.386,0,0,0,.222.358c.27-.157.546-.3.806-.476a.229.229,0,0,1,.181-.05,2.558,2.558,0,0,1,.459-2.072.566.566,0,0,0,0-.7c-.344-.575-.684-1.154-.995-1.748-.229-.438-.195-.569.244-.806.966-.522.826-.678,1.427.339.227.385.471.763.664,1.165a.88.88,0,0,0,.98.58,2.159,2.159,0,0,1,1.161.231.989.989,0,0,1,.469.354,4.24,4.24,0,0,1,.09-1.188.566.566,0,0,1-.641-.03" transform="translate(-257.897 -77.116)" fill="#78767f"/>
      <path id="Trazado_174355" data-name="Trazado 174355" d="M349.734,161.991a.589.589,0,0,1,.053.109,4.176,4.176,0,0,0,.1-1.336c-.021.015-.042.027-.063.039a4.241,4.241,0,0,0-.09,1.188" transform="translate(-316.132 -145.318)" fill="#78767f"/>
      <path id="Trazado_174356" data-name="Trazado 174356" d="M301.432,144.214a2.16,2.16,0,0,0-1.161-.231.879.879,0,0,1-.98-.581c-.193-.4-.436-.78-.664-1.165-.6-1.017-.461-.861-1.427-.339-.438.237-.473.369-.244.807.31.594.65,1.173.995,1.748a.566.566,0,0,1,0,.7,2.558,2.558,0,0,0-.459,2.072.251.251,0,0,1,.142.14,2.565,2.565,0,0,1,.569-2.353c.147-.172.05-.288-.026-.422q-.4-.7-.807-1.407c-.544-.948-.536-.936.406-1.483.275-.159.369-.079.5.158.351.642.736,1.265,1.084,1.908a.519.519,0,0,0,.6.328,2.6,2.6,0,0,1,1.953.543c0-.009,0-.018-.006-.027s0-.03,0-.045a.989.989,0,0,0-.469-.354" transform="translate(-268.299 -127.895)" fill="#78767f"/>
      <path id="Trazado_174357" data-name="Trazado 174357" d="M349.7,173.578c0,.009,0,.018.006.027l.05.038a.589.589,0,0,0-.053-.109c0,.015,0,.03,0,.045" transform="translate(-316.098 -156.86)" fill="#78767f"/>
      <path id="Trazado_174358" data-name="Trazado 174358" d="M342.86,92.3h0c-.216-.134-.116-.348-.116-.523-.007-2.216,0-4.431,0-6.731l-.005-.007-.047.027c.012.135.021.27.02.405q-.005,3.079,0,6.159a1.129,1.129,0,0,0,.1.695.566.566,0,0,0,.641.03c0-.012.008-.024.013-.036l.021,0-.628-.014h0" transform="translate(-309.763 -76.866)" fill="#78767f"/>
      <path id="Trazado_174359" data-name="Trazado 174359" d="M350.682,160.761c0,.012-.009.024-.013.036.021-.012.042-.024.063-.039H350.7l-.021,0" transform="translate(-316.978 -145.312)" fill="#78767f"/>
      <path id="Trazado_174360" data-name="Trazado 174360" d="M161.845,78.2A1.012,1.012,0,0,0,163,77.523l.055-.094a1.068,1.068,0,0,1-.009-.249q0-3.013,0-6.027c0-.156-.032-.323.1-.452-.326-.194-.639-.414-.981-.574-.362-.169-.42-.363-.168-.667a.955.955,0,0,0,.1-.212l-1.009-.541a.335.335,0,0,0-.012.165c.007,2.589,0,5.175,0,7.762,0,.144,0,.288-.006.431-.04.589-.306.743-.869.5.18.373.009.8.174,1.177,0,.01,0,.02,0,.029a1.639,1.639,0,0,1,1.459-.576" transform="translate(-144.816 -62.107)" fill="#006def"/>
      <path id="Trazado_174361" data-name="Trazado 174361" d="M159.945,161.975c-.165-.375.006-.8-.174-1.177l-.034-.014c0,.234-.016.47.008.7.02.2-.128.451.16.575h0c.014-.02.029-.038.044-.056,0-.01,0-.019,0-.029" transform="translate(-144.379 -145.336)" fill="#006def"/>
      <path id="Trazado_174362" data-name="Trazado 174362" d="M163.9,160.353a.555.555,0,0,0,.7-.376,4.083,4.083,0,0,1,.191-.379.277.277,0,0,1-.058-.117l-.055.094a1.012,1.012,0,0,1-1.156.675,1.639,1.639,0,0,0-1.459.576c0,.009,0,.017,0,.026a2.644,2.644,0,0,1,1.836-.5" transform="translate(-146.491 -144.158)" fill="#006def"/>
      <path id="Trazado_174363" data-name="Trazado 174363" d="M161.648,173.487c-.015.019-.03.037-.044.056l.047-.03c0-.009,0-.017,0-.026" transform="translate(-146.077 -156.819)" fill="#006def"/>
      <path id="Trazado_174364" data-name="Trazado 174364" d="M161,76.309c.01-.143.006-.287.006-.431,0-2.587,0-5.174,0-7.762a.334.334,0,0,1,.012-.165l-.15-.08h0q-.009,4.056-.017,8.112c0,.76,0,.769-.724.814l.008.016c.562.24.829.086.869-.5" transform="translate(-144.743 -61.35)" fill="#006def"/>
      <path id="Trazado_174365" data-name="Trazado 174365" d="M159.88,160.767l-.026,0,.034.014-.008-.016" transform="translate(-144.496 -145.321)" fill="#006def"/>
      <path id="Trazado_174366" data-name="Trazado 174366" d="M24.165,272.938c-2.177,1.272-4.366,2.524-6.545,3.792-.259.15-.586.227-.737.524l1.005.541h0c.409-.608.408-.606,1.077-.219,1.885,1.089,3.781,2.158,5.648,3.277a.849.849,0,0,0,1.2-.1c-1.048-.724-2.186-1.3-3.28-1.942-1.19-.7-2.388-1.39-3.651-2.124l3.9-2.253c.786-.454,1.57-.911,2.36-1.359.108-.062.215-.167.346-.153a1.689,1.689,0,0,1-.082-1.378,2.321,2.321,0,0,0-.813.3.618.618,0,0,1-.334.117c.482.406.461.655-.095.98" transform="translate(-15.261 -245.456)" fill="#88878f"/>
      <path id="Trazado_174367" data-name="Trazado 174367" d="M93.415,270.8a2.316,2.316,0,0,1,.813-.3c0-.008.007-.015.01-.022a.405.405,0,0,0-.517.013c-.227.136-.467.249-.7.372l.061.051a.618.618,0,0,0,.334-.117" transform="translate(-84.083 -244.415)" fill="#88878f"/>
      <path id="Trazado_174368" data-name="Trazado 174368" d="M104.558,272.907a.272.272,0,0,1,.128.052,3.613,3.613,0,0,1-.2-1.432l-.01,0a1.688,1.688,0,0,0,.082,1.378" transform="translate(-94.331 -245.439)" fill="#88878f"/>
      <path id="Trazado_174369" data-name="Trazado 174369" d="M105.6,271.332c0-.007,0-.014,0-.021l-.01.023.01,0" transform="translate(-95.448 -245.244)" fill="#88878f"/>
      <path id="Trazado_174370" data-name="Trazado 174370" d="M22.384,276.812c-1.915,1.1-3.833,2.2-5.742,3.314a8.3,8.3,0,0,0-1.448.9h0l.162.087c.15-.3.478-.374.737-.524,2.179-1.268,4.368-2.521,6.545-3.792.555-.324.576-.574.095-.98l-.034,0c.345.619.33.631-.314,1" transform="translate(-13.734 -249.311)" fill="#88878f"/>
      <path id="Trazado_174371" data-name="Trazado 174371" d="M93.081,275.367l-.061-.051.026.047.035,0" transform="translate(-84.083 -248.864)" fill="#88878f"/>
      <path id="Trazado_174372" data-name="Trazado 174372" d="M314.23,412.63q3.606,2.059,7.2,4.146a1.47,1.47,0,0,0,.556.244l-.018-.615h0c-1.884-1.091-3.76-2.2-5.66-3.261a1.032,1.032,0,0,1-.649-1.111c.05-.57.018-1.148.013-1.723a1.131,1.131,0,0,1-.154-.008,1,1,0,0,0-1.182.615,1.775,1.775,0,0,1-1.494,1.093.186.186,0,0,1,.049.132,1.371,1.371,0,0,0,.425.93c.162-.7.317-.785.919-.441" transform="translate(-282.78 -370.863)" fill="#006def"/>
      <path id="Trazado_174373" data-name="Trazado 174373" d="M312.605,429.325a1.372,1.372,0,0,1-.425-.93.186.186,0,0,0-.049-.132l-.062,0c-.035.462-.033.906.534,1.066h0l0-.008" transform="translate(-282.075 -387.117)" fill="#006def"/>
      <path id="Trazado_174374" data-name="Trazado 174374" d="M325.882,437.013q-3.595-2.078-7.2-4.146c-.6-.344-.756-.263-.919.441l0,0c.395-.612.4-.612,1.061-.229q3.571,2.06,7.143,4.117c.147.084.276.222.469.209h0q0-.075,0-.151a1.47,1.47,0,0,1-.556-.244" transform="translate(-287.237 -391.1)" fill="#006def"/>
      <path id="Trazado_174375" data-name="Trazado 174375" d="M317.75,439.313l0,0,0,.008h0l0-.006" transform="translate(-287.218 -397.102)" fill="#006def"/>
      <path id="Trazado_174376" data-name="Trazado 174376" d="M314.194,409.7a1,1,0,0,1,1.183-.615,1.109,1.109,0,0,0,.154.007c0-.046,0-.092,0-.139-.284-.005-.569-.009-.853-.017a.278.278,0,0,0-.316.208,2.748,2.748,0,0,1-1.675,1.633l.014.015a1.775,1.775,0,0,0,1.494-1.093" transform="translate(-282.644 -369.651)" fill="#006def"/>
      <path id="Trazado_174377" data-name="Trazado 174377" d="M312.235,428.1l-.048.019.062,0-.015-.016" transform="translate(-282.193 -386.971)" fill="#006def"/>
      <path id="Trazado_174378" data-name="Trazado 174378" d="M403.685,272.215a2.956,2.956,0,0,1-.336,1.092,6.313,6.313,0,0,0,1.076-.593c0-.007-.007-.013-.009-.021a.727.727,0,0,1,.306-.665c-.408-.1-.739-.387-1.147-.486.2.192.142.43.109.672" transform="translate(-364.597 -245.454)" fill="#87868e"/>
      <path id="Trazado_174379" data-name="Trazado 174379" d="M406.577,271.554l.035-.027c-.409-.15-.689-.62-1.211-.486l.029.027c.408.1.739.39,1.147.486" transform="translate(-366.451 -244.979)" fill="#87868e"/>
      <path id="Trazado_174380" data-name="Trazado 174380" d="M414.442,277.271c0,.007.006.014.009.021l.027-.015c.019-.256.225-.43.295-.664l-.025-.005a.727.727,0,0,0-.306.665" transform="translate(-374.622 -250.03)" fill="#87868e"/>
      <path id="Trazado_174381" data-name="Trazado 174381" d="M417.666,276.357c0-.011.008-.021.01-.032-.013.009-.023.018-.035.027l.025.005" transform="translate(-377.515 -249.776)" fill="#87868e"/>
      <path id="Trazado_174382" data-name="Trazado 174382" d="M402.021,273.292c.044-.011.086-.025.128-.039a2.957,2.957,0,0,0,.336-1.092c.033-.242.09-.48-.109-.672l-.026-.006a3.237,3.237,0,0,1-.328,1.809" transform="translate(-363.396 -245.4)" fill="#87868e"/>
      <path id="Trazado_174383" data-name="Trazado 174383" d="M405.43,271.292l-.029-.027c0,.007,0,.014,0,.021l.026.006" transform="translate(-366.451 -245.203)" fill="#87868e"/>
      <path id="Trazado_174384" data-name="Trazado 174384" d="M348.207,284.475a.782.782,0,0,0-.035,1.095c.342.518.617,1.08.937,1.612a.42.42,0,0,1-.16.669c-1.022.67-1.018.679-1.616-.385-.235-.417-.479-.828-.709-1.248a.6.6,0,0,0-.656-.366c-.052,0-.1,0-.154.005l-3.435,2.017c1.053.61,2.064,1.2,3.079,1.783,1.189.684,2.382,1.36,3.57,2.045a.736.736,0,0,0,.438.159l5.564-3.2c.535-.308.534-.308.854.231a2.225,2.225,0,0,0,1.022-.542,12.272,12.272,0,0,0-1.864-1.131c-1.8-1.051-3.605-2.1-5.421-3.126a.618.618,0,0,1-.3-.243,1.4,1.4,0,0,1-1.111.626" transform="translate(-309.483 -256.577)" fill="#c5c4c9"/>
      <path id="Trazado_174385" data-name="Trazado 174385" d="M414.907,283.845c1.816,1.026,3.62,2.075,5.421,3.126a12.28,12.28,0,0,1,1.864,1.131q.065-.061.125-.129c-1.006-.58-2.009-1.163-3.017-1.739q-2.335-1.333-4.674-2.659l-.022.026a.618.618,0,0,0,.3.243" transform="translate(-374.77 -256.331)" fill="#c5c4c9"/>
      <path id="Trazado_174386" data-name="Trazado 174386" d="M378.287,291.692a.6.6,0,0,1,.656.366c.23.419.474.831.709,1.248.6,1.065.595,1.055,1.617.385a.42.42,0,0,0,.16-.669c-.321-.533-.595-1.094-.937-1.612a.782.782,0,0,1,.035-1.095c-.032,0-.065,0-.1-.005a.623.623,0,0,0-.131.993,12.665,12.665,0,0,1,.669,1.152c.572,1,.567.989-.437,1.528-.237.127-.32.064-.431-.136-.361-.653-.749-1.29-1.1-1.949-.156-.294-.331-.446-.665-.319l-.2.119c.051,0,.1,0,.154-.005" transform="translate(-341.803 -262.418)" fill="#c5c4c9"/>
      <path id="Trazado_174387" data-name="Trazado 174387" d="M403.057,284.358l-.014.015a1.4,1.4,0,0,0,1.111-.626l0-.011a6.316,6.316,0,0,1-1.076.593l-.016.028" transform="translate(-364.32 -256.476)" fill="#c5c4c9"/>
      <path id="Trazado_174388" data-name="Trazado 174388" d="M414.56,283.6l.022-.026-.027.015,0,.011" transform="translate(-374.725 -256.331)" fill="#c5c4c9"/>
      <path id="Trazado_174389" data-name="Trazado 174389" d="M402.133,289.937l.016-.028c-.042.014-.084.028-.128.038.033,0,.066,0,.1.005l.014-.015" transform="translate(-363.396 -262.055)" fill="#c5c4c9"/>
      <path id="Trazado_174390" data-name="Trazado 174390" d="M437.942,351.631c.01,1.639,0,3.279,0,4.919l2.943-1.674a1.8,1.8,0,0,0,.157-.108c.145-.1-.053-.4.209-.418.381-.024.764-.009,1.146,0a.174.174,0,0,1,.116.065,1.5,1.5,0,0,1-.293,1.358l-4.277,2.508c.049.294-.087.609.056.892l.092-.053c1.551-.918,3.115-1.814,4.679-2.708a1.028,1.028,0,0,0,.607-1.018c-.022-2.427-.008-4.854-.012-7.281-1.7.99-3.4,1.985-5.109,2.961a.553.553,0,0,0-.318.563m3.163-1.559c0-.62-.091-.523.735-.532.7,0,.709,0,.7.905-.006.635.1.533-.832.53-.719,0-.6.143-.6-.9m-.01,2.85c.051-1.136-.066-1.022.484-.963.33.035.968-.426.969.43,0,.979.009.979-.76.987-.255-.064-.724.233-.693-.454" transform="translate(-395.86 -314.662)" fill="#787680"/>
      <path id="Trazado_174391" data-name="Trazado 174391" d="M444.018,354.728a1.028,1.028,0,0,1-.607,1.018c-1.564.894-3.127,1.79-4.679,2.708l-.092.053a.579.579,0,0,0,.058.094q2.612-1.5,5.224-3a.385.385,0,0,0,.225-.377q-.017-3.925-.021-7.85l-.12.07c0,2.427-.01,4.854.012,7.281" transform="translate(-396.497 -314.002)" fill="#787680"/>
      <path id="Trazado_174392" data-name="Trazado 174392" d="M415.082,331.639c.372.647.351.658-.344,1.059-1.947,1.125-3.889,2.26-5.844,3.373a.632.632,0,0,0-.362.643c.012,2.252.007,4.5.008,6.755,0,.74,0,.74-.706.782h0l0,.441a.6.6,0,0,1,.114.172.952.952,0,0,1,.02.51c.966-.454,1.853-1.046,2.778-1.573-.271-.211-.1-.536-.122-.813a.618.618,0,0,1,.055-.139c-.425-.245-.5-.738-.75-1.11-.065-.1.1-.136.166-.182.208-.14.424-.267.637-.4a.372.372,0,0,1-.046-.03,1.11,1.11,0,0,1-.08-.561c0-1.387.009-2.773-.007-4.16a.934.934,0,0,1,.514-.932c1.568-.885,3.109-1.818,4.679-2.7a.793.793,0,0,1,.367-.151,11.829,11.829,0,0,0-.042-1.546,1.368,1.368,0,0,1-1.035.561" transform="translate(-368.649 -299.269)" fill="#57565c"/>
      <path id="Trazado_174393" data-name="Trazado 174393" d="M494.1,331.056a.338.338,0,0,1,.12.021,5.283,5.283,0,0,0-.083-1.733.744.744,0,0,1-.08.167,11.8,11.8,0,0,1,.042,1.546" transform="translate(-446.586 -297.701)" fill="#57565c"/>
      <path id="Trazado_174394" data-name="Trazado 174394" d="M408.176,465.083a.56.56,0,0,1-.111.2c1.032-.51,2.009-1.118,3-1.709a.594.594,0,0,1-.106-.066c-.925.527-1.812,1.119-2.778,1.573" transform="translate(-368.859 -418.977)" fill="#57565c"/>
      <path id="Trazado_174395" data-name="Trazado 174395" d="M407.94,472.959a.606.606,0,0,0-.114-.172v.118h0q.009.308.018.615h.007l.109-.052a.953.953,0,0,0-.02-.51" transform="translate(-368.643 -427.363)" fill="#57565c"/>
      <path id="Trazado_174396" data-name="Trazado 174396" d="M408.025,479.932h-.007q0,.075,0,.151a.562.562,0,0,0,.111-.2l-.109.052" transform="translate(-368.817 -433.774)" fill="#57565c"/>
      <path id="Trazado_174397" data-name="Trazado 174397" d="M482.972,331.288a1.368,1.368,0,0,0,1.035-.561h0c-.015-.013-.031-.024-.046-.037a2.225,2.225,0,0,1-1.022.542l.033.057" transform="translate(-436.539 -298.917)" fill="#57565c"/>
      <path id="Trazado_174398" data-name="Trazado 174398" d="M493.579,329.474l.046.037h0a.739.739,0,0,0,.079-.167c-.04.045-.082.088-.125.129" transform="translate(-446.157 -297.702)" fill="#57565c"/>
      <path id="Trazado_174399" data-name="Trazado 174399" d="M436.662,453.634h0c-.021-.01-.04-.021-.059-.032a.616.616,0,0,0-.055.139c.02.276-.149.6.122.813l.048-.028c-.142-.283-.007-.6-.056-.892" transform="translate(-394.574 -410.021)" fill="#57565c"/>
      <path id="Trazado_174400" data-name="Trazado 174400" d="M441.812,347.315c-1.569.883-3.11,1.816-4.679,2.7a.934.934,0,0,0-.514.932c.016,1.386,0,2.773.007,4.16a1.11,1.11,0,0,0,.08.561.4.4,0,0,0,.046.03l0,0c0-1.64.006-3.279,0-4.919a.552.552,0,0,1,.319-.563c1.709-.976,3.407-1.971,5.109-2.961,0-.029,0-.057,0-.086,0,0,0,0,0,0a.8.8,0,0,0-.367.151" transform="translate(-394.67 -313.809)" fill="#57565c"/>
      <path id="Trazado_174401" data-name="Trazado 174401" d="M494.489,347.169v.086l.12-.07a.338.338,0,0,0-.12-.02s0,0,0,0" transform="translate(-446.98 -313.809)" fill="#57565c"/>
      <path id="Trazado_174402" data-name="Trazado 174402" d="M438.187,463.222l-.048.028a.594.594,0,0,0,.106.066.577.577,0,0,1-.058-.094" transform="translate(-396.044 -418.717)" fill="#57565c"/>
      <path id="Trazado_174403" data-name="Trazado 174403" d="M303.945,201.357a.251.251,0,0,0-.142-.14c.009.046.02.093.032.14a.571.571,0,0,1,.11,0" transform="translate(-274.614 -181.885)" fill="#fefefe"/>
      <path id="Trazado_174404" data-name="Trazado 174404" d="M348.5,363.217c-.7-.033-.7-.042-.7-.783q0-3.4,0-6.8c0-.2.036-.39-.208-.528-1.789-1.007-3.569-2.03-5.352-3.049h0c0,1.177.006,2.354-.013,3.53,0,.2.035.321.141.381.432,0,.864,0,1.3.006.2,0,.423-.03.561.183a.593.593,0,0,1,.046.136c.191,1.241.058,1.4-1.187,1.4-.239,0-.479,0-.717-.006l-.045,0a1.161,1.161,0,0,1,.038.4c0,.446.026.893-.005,1.337a.912.912,0,0,0,.543.954c1.761.991,3.5,2.021,5.258,3.02a1.9,1.9,0,0,1,.321.209.472.472,0,0,1,.034-.387" transform="translate(-309.334 -318.234)" fill="#57a3fe"/>
      <path id="Trazado_174405" data-name="Trazado 174405" d="M342.417,394.489c.239.01.478.006.717.006,1.245,0,1.378-.156,1.187-1.4a.6.6,0,0,0-.046-.136c-.138-.212-.359-.18-.561-.183-.432-.005-.864-.007-1.3-.006a.6.6,0,0,0,.292.055,5.065,5.065,0,0,1,1.457.052h0c.01.365.006.73.033,1.093.02.271-.074.358-.346.352-.523-.012-1.048.01-1.572.018a.415.415,0,0,1,.088.141l.045,0" transform="translate(-309.398 -355.037)" fill="#57a3fe"/>
      <path id="Trazado_174406" data-name="Trazado 174406" d="M348.03,416.277c-1.757-1-3.5-2.028-5.258-3.02a.913.913,0,0,1-.543-.954c.031-.443.009-.891.005-1.337a1.158,1.158,0,0,0-.038-.4l-.087,0c.005.575.037,1.153-.013,1.723a1.032,1.032,0,0,0,.649,1.112c1.9,1.063,3.775,2.17,5.66,3.261-.02-.058-.04-.115-.056-.173a1.9,1.9,0,0,0-.321-.209" transform="translate(-309.223 -371.117)" fill="#57a3fe"/>
      <path id="Trazado_174407" data-name="Trazado 174407" d="M342.283,409.121c0,.046,0,.092,0,.139l.087,0a.413.413,0,0,0-.088-.142" transform="translate(-309.397 -369.814)" fill="#57a3fe"/>
      <path id="Trazado_174408" data-name="Trazado 174408" d="M407.007,468.577a.759.759,0,0,1,.056.055l0-.441h-.024a.471.471,0,0,0-.034.387" transform="translate(-367.88 -423.208)" fill="#57a3fe"/>
      <path id="Trazado_174409" data-name="Trazado 174409" d="M407.3,472.269a.785.785,0,0,0-.056-.055c.016.058.036.115.055.173h0c0-.039,0-.078,0-.118" transform="translate(-368.121 -426.845)" fill="#57a3fe"/>
      <path id="Trazado_174410" data-name="Trazado 174410" d="M315.355,336.148a24.541,24.541,0,0,1,.047-3.609.365.365,0,0,1,.081-.083h0a9.945,9.945,0,0,0-.924-.555c-.349-.164-.445-.345-.181-.657a1.07,1.07,0,0,0,.11-.208l-1.115-.663h-.021a15.125,15.125,0,0,0-.053,2.244c-.016.739-.006.755-.67.807a.364.364,0,0,1,.035.044,1.329,1.329,0,0,1-.037,1.06,2.715,2.715,0,0,1,1.676,1.44.683.683,0,0,0,.691.4h.447a.288.288,0,0,1-.086-.22" transform="translate(-282.591 -298.631)" fill="#006cef"/>
      <path id="Trazado_174411" data-name="Trazado 174411" d="M316.846,375.572c-.538-.053-1.077-.019-1.615-.019a.441.441,0,0,1-.3-.087h-.447a.683.683,0,0,1-.691-.4,2.714,2.714,0,0,0-1.676-1.44.907.907,0,0,1-.054.079h0a2.8,2.8,0,0,1,1.726,1.644c.081.217.214.233.4.231.887-.007,1.774-.006,2.662-.007h0" transform="translate(-282.077 -337.729)" fill="#006cef"/>
      <path id="Trazado_174412" data-name="Trazado 174412" d="M312.161,362.185a.361.361,0,0,0-.035-.044l-.043,0q-.006.542-.013,1.084l.053.016a1.329,1.329,0,0,0,.037-1.06" transform="translate(-282.088 -327.347)" fill="#006cef"/>
      <path id="Trazado_174413" data-name="Trazado 174413" d="M312.113,373.478l-.053-.016v.094h0a.932.932,0,0,0,.054-.079" transform="translate(-282.077 -337.581)" fill="#006cef"/>
      <path id="Trazado_174414" data-name="Trazado 174414" d="M340.725,355.6c.02-1.176.011-2.353.013-3.53a.363.363,0,0,0-.081.083,24.532,24.532,0,0,0-.047,3.609.288.288,0,0,0,.086.22h.169c-.106-.06-.144-.177-.141-.381" transform="translate(-307.846 -318.241)" fill="#006cef"/>
      <path id="Trazado_174415" data-name="Trazado 174415" d="M361.9,393.891h0" transform="translate(-327.132 -356.047)" fill="#006cef"/>
      <path id="Trazado_174416" data-name="Trazado 174416" d="M342.224,392.862c.538,0,1.077-.034,1.615.019a5.065,5.065,0,0,0-1.457-.052.6.6,0,0,1-.292-.055h-.169a.439.439,0,0,0,.3.088" transform="translate(-309.07 -355.037)" fill="#006cef"/>
      <path id="Trazado_174417" data-name="Trazado 174417" d="M322.992,298.977c.349.661.334.663-.339,1.065-.818.488-1.679.906-2.456,1.463l.019.012c.491-.03.805.322,1.149.608.357-.568.377-.557,1.006-.194,1.835,1.06,3.69,2.087,5.495,3.2a1.12,1.12,0,0,0,1.44.024.92.92,0,0,1-.389-.149c-2.053-1.16-4.085-2.359-6.135-3.524-.111-.063-.217-.135-.322-.207-.2-.135-.208-.3-.006-.411,1.084-.582,2.083-1.32,3.22-1.8a2.994,2.994,0,0,1-1.68-.59l-.019-.015a1.207,1.207,0,0,1-.983.528" transform="translate(-289.433 -269.775)" fill="#88878f"/>
      <path id="Trazado_174418" data-name="Trazado 174418" d="M359.537,297.563a2.994,2.994,0,0,0,1.68.59c.1-.041.194-.081.292-.118a2.949,2.949,0,0,1-1.928-.582c-.02.034-.042.065-.063.1l.019.015" transform="translate(-324.976 -268.874)" fill="#88878f"/>
      <path id="Trazado_174419" data-name="Trazado 174419" d="M342.312,306.545c-.2.108-.191.276.006.411.105.072.211.144.322.207,2.051,1.165,4.082,2.364,6.135,3.524a.92.92,0,0,0,.389.149c.036-.028.072-.058.109-.092a.737.737,0,0,1-.438-.159c-1.188-.685-2.381-1.361-3.57-2.045-1.015-.584-2.026-1.173-3.079-1.783l3.435-2.017h-.09c-1.137.485-2.136,1.222-3.22,1.8" transform="translate(-309.291 -275.461)" fill="#88878f"/>
      <path id="Trazado_174420" data-name="Trazado 174420" d="M377.291,303.627l.2-.119c-.1.037-.2.077-.292.118h.09" transform="translate(-340.96 -274.348)" fill="#88878f"/>
      <path id="Trazado_174421" data-name="Trazado 174421" d="M349.116,298.731a1.207,1.207,0,0,0,.983-.528l-.034-.026a3.012,3.012,0,0,1-.967.519l.018.034" transform="translate(-315.558 -269.529)" fill="#88878f"/>
      <path id="Trazado_174422" data-name="Trazado 174422" d="M359.2,297.548c.021-.031.044-.062.063-.1l-.1.07.034.026" transform="translate(-324.661 -268.874)" fill="#88878f"/>
      <path id="Trazado_174423" data-name="Trazado 174423" d="M320.4,330.355l1.115.663.035-.055c-.344-.287-.658-.639-1.149-.608" transform="translate(-289.615 -298.613)" fill="#88878f"/>
      <path id="Trazado_174424" data-name="Trazado 174424" d="M52.561,291.461c.594-.343.594-.342.956.236a4.7,4.7,0,0,0,1.143-.665c-.872-.513-1.729-1.055-2.623-1.527-.428-.226-.458-.429-.176-.766a.671.671,0,0,0,.088-.168,1.074,1.074,0,0,1-.986-.53,2.751,2.751,0,0,1-1.924.606.676.676,0,0,0-.718.416c-.3.563-.624,1.113-.945,1.664-.253.435-.408.473-.851.227-.929-.517-.924-.514-.4-1.442.25-.446.514-.882.775-1.321a.565.565,0,0,0-.036-.774,1.285,1.285,0,0,1-.249-.459c-2.137,1.164-4.223,2.417-6.4,3.65.564.361,1.09.653,1.608.954q2.317,1.344,4.638,2.68c.184.106.42.172.489.421.98-.551,1.962-1.1,2.938-1.654.9-.511,1.785-1.033,2.677-1.549" transform="translate(-36.348 -259.39)" fill="#c5c4c9"/>
      <path id="Trazado_174425" data-name="Trazado 174425" d="M99.15,286.941a.565.565,0,0,1,.036.774c-.261.439-.525.875-.775,1.321-.519.928-.525.925.4,1.442.443.246.6.208.851-.227.321-.552.646-1.1.945-1.664a.676.676,0,0,1,.718-.416,2.752,2.752,0,0,0,1.924-.606c-.017-.031-.034-.064-.049-.1a2.783,2.783,0,0,1-2.062.58.427.427,0,0,0-.518.268c-.372.686-.785,1.35-1.149,2.04-.178.337-.376.194-.52.045-.245-.252-.875-.128-.744-.745a.487.487,0,0,1,.067-.126c.284-.5.54-1.016.861-1.49s.485-.9-.011-1.354a.863.863,0,0,1-.133-.252l-.092.051a1.287,1.287,0,0,0,.249.459" transform="translate(-88.638 -258.912)" fill="#c5c4c9"/>
      <path id="Trazado_174426" data-name="Trazado 174426" d="M44.2,293.264q-2.323-1.333-4.638-2.68c-.519-.3-1.044-.594-1.608-.954,2.176-1.233,4.262-2.486,6.4-3.65l-.032-.093,0-.01c-.131-.014-.238.091-.346.153-.789.448-1.574.905-2.36,1.359l-3.9,2.253c1.262.734,2.461,1.422,3.651,2.124,1.095.646,2.232,1.219,3.28,1.942l.043-.024c-.069-.248-.3-.315-.489-.421" transform="translate(-34.088 -258.41)" fill="#c5c4c9"/>
      <path id="Trazado_174427" data-name="Trazado 174427" d="M106.481,285.993l.092-.051a.272.272,0,0,0-.128-.052l0,.01.032.093" transform="translate(-96.218 -258.422)" fill="#c5c4c9"/>
      <path id="Trazado_174428" data-name="Trazado 174428" d="M153.1,298.508c.006-.013.011-.027.018-.039a2.482,2.482,0,0,1-.971-.516h0l-.033.026a1.074,1.074,0,0,0,.986.53" transform="translate(-137.499 -269.326)" fill="#c5c4c9"/>
      <path id="Trazado_174429" data-name="Trazado 174429" d="M151.689,297.263h0c-.028-.024-.055-.048-.082-.073.015.035.032.068.049.1l.033-.026" transform="translate(-137.041 -268.636)" fill="#c5c4c9"/>
      <path id="Trazado_174430" data-name="Trazado 174430" d="M197.076,101.272h0q.005-.239.01-.479h0a.707.707,0,0,0-.19-.013c-.457.093-.509-.141-.507-.531.016-2.332,0-4.665.015-7a.664.664,0,0,0-.383-.678c-1.712-.963-3.412-1.948-5.117-2.926a.54.54,0,0,1,.016.178c-.017,1.741,0,3.48-.006,5.219a10.912,10.912,0,0,1-.034,1.145c.23-.392.459-.784.675-1.184a.489.489,0,0,1,.748-.238l.127.066c.829.447.85.519.4,1.335a12.215,12.215,0,0,1-.645,1.111c-.307.436-.42.833.028,1.237.006.012.011.025.017.037a10.587,10.587,0,0,1,1.672.914c1.068.584,2.12,1.2,3.178,1.8" transform="translate(-172.542 -81.035)" fill="#57a3fe"/>
      <path id="Trazado_174431" data-name="Trazado 174431" d="M191.835,145.856c-.448-.4-.335-.8-.028-1.237a12.262,12.262,0,0,0,.645-1.111c.455-.817.434-.889-.4-1.335l-.127-.066a.489.489,0,0,0-.748.238c-.216.4-.445.792-.675,1.184-.01.095-.022.19-.04.284.179-.3.36-.6.536-.9.526-.909.515-.892,1.422-.39.318.176.3.319.135.584-.333.542-.6,1.126-.964,1.648a.71.71,0,0,0,.094,1.092c.055.014.108.031.161.049-.006-.012-.011-.025-.017-.037" transform="translate(-172.168 -128.374)" fill="#57a3fe"/>
      <path id="Trazado_174432" data-name="Trazado 174432" d="M189.878,94.872c0-1.739-.011-3.479.006-5.219a.54.54,0,0,0-.016-.178l-.032-.018h0c-.131.129-.1.3-.1.452q0,3.013,0,6.027a1.066,1.066,0,0,0,.009.249l.1-.167a10.915,10.915,0,0,0,.034-1.145" transform="translate(-171.505 -80.862)" fill="#57a3fe"/>
      <path id="Trazado_174433" data-name="Trazado 174433" d="M189.861,157.908a.276.276,0,0,0,.058.117c.017-.095.03-.189.04-.284l-.1.167" transform="translate(-171.62 -142.586)" fill="#57a3fe"/>
      <path id="Trazado_174434" data-name="Trazado 174434" d="M207.517,185.148q1.266.722,2.535,1.437,0-.409-.006-.818c-.124.082-.255-.009-.372-.077-1.484-.86-2.988-1.683-4.444-2.591a3.137,3.137,0,0,1,.256,1.639c0,.016-.007.031-.01.047a1.639,1.639,0,0,1,.975.555c.4-.575.409-.568,1.066-.193" transform="translate(-185.512 -165.508)" fill="#006def"/>
      <path id="Trazado_174435" data-name="Trazado 174435" d="M203.644,183.65c0-.016.007-.031.01-.047a3.137,3.137,0,0,0-.256-1.639l-.195-.121a3.28,3.28,0,0,1,.343,1.8c.034,0,.065.006.1.01" transform="translate(-183.68 -164.372)" fill="#006def"/>
      <path id="Trazado_174436" data-name="Trazado 174436" d="M208.665,201.232l.019-.027a1.638,1.638,0,0,0-.975-.555l-.009.04.965.542" transform="translate(-187.745 -181.372)" fill="#006def"/>
      <path id="Trazado_174437" data-name="Trazado 174437" d="M206.875,200.554c-.032,0-.064-.009-.1-.01l.089.05.009-.04" transform="translate(-186.911 -181.276)" fill="#006def"/>
      <path id="Trazado_174438" data-name="Trazado 174438" d="M209.727,185.088v-.022h0c-1.058-.6-2.109-1.218-3.178-1.8a10.59,10.59,0,0,0-1.672-.915c.012.024.023.048.034.072,1.456.907,2.961,1.731,4.444,2.591.117.068.248.159.372.077" transform="translate(-185.193 -164.829)" fill="#006def"/>
      <path id="Trazado_174439" data-name="Trazado 174439" d="M203.364,181.893c-.053-.018-.106-.034-.161-.049l.195.121c-.011-.024-.022-.048-.034-.072" transform="translate(-183.68 -164.373)" fill="#006def"/>
      <path id="Trazado_174440" data-name="Trazado 174440" d="M196.614,363.217c-.132,0-.265,0-.4.01a1.015,1.015,0,0,0,.165.015.138.138,0,0,1,.089.057.276.276,0,0,1,.142-.082" transform="translate(-177.365 -328.32)" fill="#57565c"/>
      <path id="Trazado_174441" data-name="Trazado 174441" d="M111.346,331.579c0-.485-.008-.969-.013-1.454,0-.137.049-.289-.05-.411a1.806,1.806,0,0,1-1.148.682c.326.623.31.634-.331,1-1.933,1.114-3.862,2.234-5.8,3.336a.737.737,0,0,0-.431.748c.021,2.233.01,4.467.01,6.7,0,.781,0,.781-.765.812h0q0,.246,0,.492h0a2.01,2.01,0,0,1,0,.651c.219.04.391-.121.565-.224.762-.449,1.531-.888,2.3-1.327-.142-.083-.114-.263-.115-.4-.014-2.394-.01-4.788-.007-7.183a.786.786,0,0,1,.433-.739c1.578-.906,3.151-1.821,4.73-2.725.253-.145.415-.193.515-.132l.015-.009v.021a.3.3,0,0,1,.093.163" transform="translate(-92.939 -298.035)" fill="#57565c"/>
      <path id="Trazado_174442" data-name="Trazado 174442" d="M102.7,465.011c-.174.1-.346.264-.565.224a.527.527,0,0,1-.073.141h0c.116.122.2.01.293-.041q1.384-.8,2.764-1.612a.33.33,0,0,1-.12-.039c-.768.44-1.536.878-2.3,1.327" transform="translate(-92.258 -419.134)" fill="#57565c"/>
      <path id="Trazado_174443" data-name="Trazado 174443" d="M136.5,347.2c-1.579.9-3.152,1.819-4.73,2.725a.785.785,0,0,0-.433.739c0,2.394-.007,4.789.007,7.183,0,.14-.027.32.115.4l.057-.032a.609.609,0,0,1-.038-.326c0-2.424,0-4.848-.008-7.272a.591.591,0,0,1,.375-.585c.972-.542,1.928-1.111,2.892-1.666.734-.423,1.472-.84,2.278-1.3-.1-.061-.262-.012-.515.132" transform="translate(-118.716 -313.697)" fill="#57565c"/>
      <path id="Trazado_174444" data-name="Trazado 174444" d="M191.315,348.973a1.023,1.023,0,0,1-.166-.015l-.041,0c-.305.022-.417-.078-.41-.4s.008-.646.007-.969a.3.3,0,0,0-.093-.163c0,.327,0,.571,0,.815.01.905-.114.791.776.8.005-.007.011-.012.016-.018a.138.138,0,0,0-.089-.057" transform="translate(-172.297 -314.051)" fill="#57565c"/>
      <path id="Trazado_174445" data-name="Trazado 174445" d="M132.748,463.418h0a.256.256,0,0,1-.063-.072l-.057.032a.33.33,0,0,0,.12.039" transform="translate(-119.885 -418.829)" fill="#57565c"/>
      <path id="Trazado_174446" data-name="Trazado 174446" d="M199.519,363.219c-.17,0-.34,0-.509,0a.276.276,0,0,0-.142.082l.009.009c.208-.072.445.055.642-.088" transform="translate(-179.761 -328.319)" fill="#57565c"/>
      <path id="Trazado_174447" data-name="Trazado 174447" d="M198.718,364.073a.233.233,0,0,0-.016.018l.025-.009-.009-.009" transform="translate(-179.611 -329.094)" fill="#57565c"/>
      <path id="Trazado_174448" data-name="Trazado 174448" d="M178.7,330.012l.027.052a1.807,1.807,0,0,0,1.148-.682.279.279,0,0,0-.032-.035,4.694,4.694,0,0,1-1.143.665" transform="translate(-161.531 -297.704)" fill="#57565c"/>
      <path id="Trazado_174449" data-name="Trazado 174449" d="M24.574,345.008c0-.022,0-.043,0-.065l-.829-.5-3.853-2.188c-.373-.212-.743-.431-1.119-.638-.174-.1-.345-.18-.3-.424-.035-.031-.065-.08-.106-.092a1.6,1.6,0,0,1-1.125-2.112c.211-.213.481-.117.712-.1.431.037.58-.123.517-.535a1.953,1.953,0,0,1,0-.331l-.046-.012c-.387-.085-.962.168-1.128-.115-.195-.333-.055-.862-.06-1.306.211-.212.481-.117.712-.1.431.037.58-.124.517-.535a1.953,1.953,0,0,1,0-.331l-.046-.012c-.387-.085-.962.168-1.128-.115-.2-.333-.056-.863-.061-1.307.21-.217.48-.111.713-.1.373.017.581-.065.522-.487-.009-.065.056-.14.086-.211h0a10.56,10.56,0,0,0-1.047-.615c-.378-.17-.4-.362-.162-.657a.848.848,0,0,0,.095-.2l-.013.015a2.192,2.192,0,0,1-1-.528c0,.01-.009.019-.013.03-.022,2.987,0,5.974-.014,8.96a.873.873,0,0,0,.536.822q3.822,2.194,7.636,4.4l.022.01a4.173,4.173,0,0,1-.022-.629" transform="translate(-14.826 -299.573)" fill="#006def"/>
      <path id="Trazado_174450" data-name="Trazado 174450" d="M23.307,344.4q-3.818-2.2-7.636-4.4a.872.872,0,0,1-.536-.822c.016-2.986-.007-5.973.014-8.96,0-.01.008-.02.013-.03-.048-.042-.1-.085-.142-.13h0c0,3.145,0,6.29-.019,9.435,0,.265.142.356.327.463q4.02,2.314,8.038,4.634h0a1.457,1.457,0,0,1-.037-.178l-.022-.01" transform="translate(-13.56 -298.346)" fill="#006def"/>
      <path id="Trazado_174451" data-name="Trazado 174451" d="M17.686,331.537l.013-.015.006-.015-1.005-.541c-.007.014-.013.028-.019.043a2.193,2.193,0,0,0,1.005.528" transform="translate(-15.078 -299.168)" fill="#006def"/>
      <path id="Trazado_174452" data-name="Trazado 174452" d="M15.359,330.146l-.162-.087c.047.045.094.088.143.13.006-.015.012-.029.019-.043" transform="translate(-13.737 -298.348)" fill="#006def"/>
      <path id="Trazado_174453" data-name="Trazado 174453" d="M101.44,472.292a4.174,4.174,0,0,0,.022.629.434.434,0,0,0,.11.037,2.01,2.01,0,0,0,0-.65h0l-.131-.08c0,.022,0,.043,0,.065" transform="translate(-91.692 -426.857)" fill="#006def"/>
      <path id="Trazado_174454" data-name="Trazado 174454" d="M101.681,479.445a1.463,1.463,0,0,0,.037.178.529.529,0,0,0,.074-.141.439.439,0,0,1-.11-.037" transform="translate(-91.912 -433.381)" fill="#006def"/>
      <path id="Trazado_174455" data-name="Trazado 174455" d="M190.253,25.5l6.962,4.056,4.67-2.662c.386-.22.782-.425,1.151-.671.292-.194.5-.231.634.152a.917.917,0,0,0,.132.194,5.034,5.034,0,0,0,1-.557,1.387,1.387,0,0,0-.521-.368c-2.341-1.369-4.7-2.7-7.039-4.077l-.049-.037c-1.028.5-1.986,1.128-2.981,1.687-1.3.732-2.591,1.492-3.96,2.283m2.918.237c-.347.22-.7.429-1,.612-.155.022-.21-.027-.252-.1-.165-.289-.328-.58-.495-.868s.084-.368.24-.4c.35-.065.565-.684.988-.306a3.291,3.291,0,0,1,.516.849c.039.068.091.158,0,.212m3.125-3.468a.443.443,0,0,1,.485.01q2.082,1.212,4.169,2.416c.12.07.272.118.251.345a11.035,11.035,0,0,1-.607.98c-.1.132-.262-.037-.376-.1q-1.7-.965-3.4-1.943c-.154-.089-.292-.19-.476-.06-.148.1-.233,0-.3-.121-.039-.069-.072-.142-.112-.211-.5-.855-.5-.851.363-1.313m-1.777,1.054c.122-.028.17.06.219.142.195.324.567.675.483.995-.1.383-.653.447-.986.686-.105.075-.174.028-.226-.074-.043-.085-.1-.165-.138-.251-.139-.281-.527-.625-.407-.8.2-.3.633-.447.968-.658a.522.522,0,0,1,.087-.036" transform="translate(-171.974 -19.461)" fill="#c5c4c9"/>
      <path id="Trazado_174456" data-name="Trazado 174456" d="M262.553,21.131c2.336,1.377,4.7,2.708,7.039,4.077a1.388,1.388,0,0,1,.521.368c.047-.035.093-.071.138-.11L262.6,21.047l-.093.046.049.037" transform="translate(-237.283 -19.025)" fill="#c5c4c9"/>
      <path id="Trazado_174457" data-name="Trazado 174457" d="M262.789,69.416c.316.631.294.638-.361,1.016-1.947,1.123-3.885,2.259-5.839,3.37a.624.624,0,0,0-.36.639c.012,2.25.007,4.5.007,6.749,0,.776,0,.789-.721.817a.442.442,0,0,1,.036.415.329.329,0,0,1-.072.078.8.8,0,0,1,.091.741.477.477,0,0,1-.044.06c1.018-.482,1.969-1.082,2.933-1.659a1.062,1.062,0,0,0-.147-.052,1.149,1.149,0,0,1-.1-.608c0-2.25.009-4.5-.009-6.751a1.09,1.09,0,0,1,.631-1.068q2-1.133,3.983-2.294c.207-.121.415-.24.627-.35s.33-.157.405-.135a4.847,4.847,0,0,1-.034-1.477c-.005-.014-.013-.026-.019-.039a1.828,1.828,0,0,1-1.009.549" transform="translate(-230.932 -62.25)" fill="#57565c"/>
      <path id="Trazado_174458" data-name="Trazado 174458" d="M341.825,67.254a4.849,4.849,0,0,0,.034,1.477.1.1,0,0,1,.053.037l.005,0v.01a.817.817,0,0,1,.052.386c0,2.139,0,4.277,0,6.416,0,.149-.072.318.065.452-.011-.19-.03-.381-.03-.571,0-2.119.006-4.238-.006-6.357,0-.688-.061-1.375-.093-2.062a1,1,0,0,1-.1.176c.006.013.014.025.019.039" transform="translate(-308.94 -60.599)" fill="#57565c"/>
      <path id="Trazado_174459" data-name="Trazado 174459" d="M289.1,84.736c-.213.11-.42.229-.627.35q-1.983,1.162-3.983,2.294a1.09,1.09,0,0,0-.631,1.068c.018,2.25.007,4.5.009,6.751a1.149,1.149,0,0,0,.1.608,1.042,1.042,0,0,1,.147.052l.01-.006c-.182-.149-.109-.356-.109-.537,0-2.332.01-4.664-.015-7a.778.778,0,0,1,.482-.774c1.012-.57,2.013-1.161,3.021-1.74.652-.375,1.308-.744,2.01-1.142q0-.032-.006-.064c-.075-.022-.2.028-.405.135" transform="translate(-256.589 -76.469)" fill="#57565c"/>
      <path id="Trazado_174460" data-name="Trazado 174460" d="M342.625,84.648c0,.021,0,.043.006.064l.047-.027a.1.1,0,0,0-.053-.037" transform="translate(-309.706 -76.515)" fill="#57565c"/>
      <path id="Trazado_174461" data-name="Trazado 174461" d="M343.12,91.916c-.006-2.139,0-4.277,0-6.416a.817.817,0,0,0-.052-.386c0,2.3,0,4.516,0,6.731,0,.175-.1.389.116.523h0c-.137-.133-.065-.3-.065-.452" transform="translate(-310.087 -76.936)" fill="#57565c"/>
      <path id="Trazado_174462" data-name="Trazado 174462" d="M255.443,206.048a.442.442,0,0,0-.036-.415h-.037q-.005.239-.01.479h0l.012.013a.33.33,0,0,0,.072-.078" transform="translate(-230.825 -185.876)" fill="#57565c"/>
      <path id="Trazado_174463" data-name="Trazado 174463" d="M255.462,211.509a.8.8,0,0,0-.091-.741l-.011.009q0,.409.006.818l.053-.026a.479.479,0,0,0,.044-.06" transform="translate(-230.825 -190.518)" fill="#57565c"/>
      <path id="Trazado_174464" data-name="Trazado 174464" d="M255.358,210.629v.022l.011-.009-.012-.013" transform="translate(-230.824 -190.392)" fill="#57565c"/>
      <path id="Trazado_174465" data-name="Trazado 174465" d="M331.3,68.8a1.828,1.828,0,0,0,1.009-.549.522.522,0,0,0-.036-.066,5.034,5.034,0,0,1-1,.557l.029.057" transform="translate(-299.448 -61.631)" fill="#57565c"/>
      <path id="Trazado_174466" data-name="Trazado 174466" d="M341.742,67.216a1.008,1.008,0,0,0,.1-.176c-.045.038-.091.075-.138.11a.574.574,0,0,1,.036.066" transform="translate(-308.876 -60.599)" fill="#57565c"/>
      <path id="Trazado_174467" data-name="Trazado 174467" d="M171.812,24.283c1.889,1.09,3.793,2.156,5.658,3.286a.893.893,0,0,0,1.205-.057c-.869-.423-1.69-.932-2.523-1.418-1.335-.779-2.691-1.521-4.014-2.32-.505-.305-.523-.415-.032-.7q3.121-1.81,6.254-3.6a1.012,1.012,0,0,1,.225-.114,1.065,1.065,0,0,0-1.178.088c-2.437,1.444-4.9,2.841-7.353,4.26a.784.784,0,0,0-.255.194,2.378,2.378,0,0,1,.979.556l.013.026c.384-.567.4-.561,1.022-.2" transform="translate(-153.485 -17.371)" fill="#88878f"/>
      <path id="Trazado_174468" data-name="Trazado 174468" d="M168.029,22.544a.784.784,0,0,1,.255-.194c2.452-1.42,4.916-2.817,7.353-4.26A1.066,1.066,0,0,1,176.816,18a.249.249,0,0,1,.213.035,1.038,1.038,0,0,0-1.431-.069c-2.075,1.242-4.187,2.424-6.275,3.645a7.724,7.724,0,0,0-1.481.923.973.973,0,0,1,.188.009" transform="translate(-151.715 -16.015)" fill="#88878f"/>
      <path id="Trazado_174469" data-name="Trazado 174469" d="M170.418,68.516a2.379,2.379,0,0,0-.979-.556.284.284,0,0,0-.038.072l1.009.541.021-.031-.013-.026" transform="translate(-153.125 -61.431)" fill="#88878f"/>
      <path id="Trazado_174470" data-name="Trazado 174470" d="M167.841,67.859h0l.15.08a.28.28,0,0,1,.038-.072.965.965,0,0,0-.188-.009" transform="translate(-151.715 -61.338)" fill="#88878f"/>
      <path id="Trazado_174471" data-name="Trazado 174471" d="M190.45,24.394c-.491.285-.473.395.032.7,1.323.8,2.679,1.541,4.014,2.32.833.486,1.654,1,2.523,1.418l.051-.046-6.962-4.057c1.369-.791,2.657-1.55,3.96-2.283,1-.559,1.954-1.185,2.982-1.687a1.372,1.372,0,0,0-.12-.082,1.014,1.014,0,0,0-.225.114q-3.133,1.79-6.254,3.6" transform="translate(-171.828 -18.692)" fill="#88878f"/>
      <path id="Trazado_174472" data-name="Trazado 174472" d="M261.256,20.587a1.386,1.386,0,0,1,.12.082l.093-.046a.249.249,0,0,0-.213-.035" transform="translate(-236.155 -18.6)" fill="#88878f"/>
      <path id="Trazado_174473" data-name="Trazado 174473" d="M223.537,202.226q-1.116.636-2.231,1.276c-.123.071-.254.2-.41.065-.153.128-.306-.039-.44-.114-.723-.4-1.452-.8-2.154-1.236-.343-.214-.642-.371-.909.082a.12.12,0,0,1-.111.039c-.255.648.224.84.669,1.082.841.457,1.662.949,2.484,1.437a.875.875,0,0,0,1.012-.03c.9-.538,1.809-1.077,2.734-1.579.35-.19.53-.384.335-.779a.123.123,0,0,1,.012-.109h-.007a2.471,2.471,0,0,0-.645-.488c-.024.2-.2.272-.339.354" transform="translate(-196.342 -182.477)"/>
      <path id="Trazado_174474" data-name="Trazado 174474" d="M286.586,201.032a2.474,2.474,0,0,1,.645.488h.007a.281.281,0,0,1,.015-.026,2.361,2.361,0,0,1-.222-.358c-.1-.252-.258-.222-.443-.115,0,0,0,.006,0,.01" transform="translate(-259.052 -181.636)"/>
      <path id="Trazado_174475" data-name="Trazado 174475" d="M222.787,206.843c.195.394.016.589-.335.779-.925.5-1.829,1.041-2.734,1.579a.875.875,0,0,1-1.012.03c-.822-.489-1.643-.981-2.484-1.437-.445-.242-.924-.433-.669-1.082h-.02a.665.665,0,0,1-.073.173c-.27.333-.2.513.191.722,1.079.579,2.131,1.207,3.183,1.833a.584.584,0,0,0,.69.005c.982-.588,1.98-1.151,2.971-1.724.633-.366.642-.373.332-.984l-.029,0a.123.123,0,0,0-.012.109" transform="translate(-194.613 -186.85)"/>
      <path id="Trazado_174476" data-name="Trazado 174476" d="M293.4,206.713l-.014-.028c-.005.008-.01.017-.015.026l.029,0" transform="translate(-265.187 -186.827)"/>
      <path id="Trazado_174477" data-name="Trazado 174477" d="M217.936,202.164a.12.12,0,0,0,.111-.039c.268-.453.566-.3.909-.082.7.438,1.431.833,2.154,1.236.134.075.287.242.44.114l-.015-.013q-1.268-.718-2.535-1.437c-.658-.375-.667-.382-1.066.193l.008.008-.007.019" transform="translate(-196.995 -182.303)"/>
      <path id="Trazado_174478" data-name="Trazado 174478" d="M217.76,206.459l.007-.019-.008-.008-.019.027h.02" transform="translate(-196.82 -186.598)"/>
      <path id="Trazado_174479" data-name="Trazado 174479" d="M255.573,203.531c.156.136.287.006.41-.065q1.113-.642,2.231-1.276c.143-.082.315-.153.339-.354l-.008,0c-.964.577-1.915,1.177-2.933,1.659a.317.317,0,0,1-.039.039" transform="translate(-231.018 -182.441)"/>
      <path id="Trazado_174480" data-name="Trazado 174480" d="M286.509,201.78s0-.006,0-.01l-.01.006.008,0" transform="translate(-258.975 -182.384)"/>
      <path id="Trazado_174481" data-name="Trazado 174481" d="M255.474,219.1l-.053.026.015.013a.324.324,0,0,0,.039-.039" transform="translate(-230.881 -198.052)"/>
      <path id="Trazado_174482" data-name="Trazado 174482" d="M181.525,72.754c1.484.871,2.97,1.738,4.472,2.576a1.133,1.133,0,0,1,.638,1.118c-.018,2.151,0,4.3-.017,6.452,0,.441.078.741.551.824.009.01.016.021.023.032.611-.118.62-.559.614-1.079-.024-2.092,0-4.186-.02-6.278a1.087,1.087,0,0,1,.615-1.073q2.715-1.574,5.444-3.124c.45-.254.758-.5.615-1.027h0c-.519-.4-.52-.4-1.14-.049q-2.448,1.389-4.876,2.811a1.022,1.022,0,0,1-.617.216.693.693,0,0,1-1.027.267c-1.008-.541-1.985-1.138-2.978-1.708s-2.026-1.133-3.009-1.749c-.306-.191-.539-.258-.742.109a.173.173,0,0,1-.137.071.092.092,0,0,1,0,.037c-.077.643-.077.642.507.981.2.119.454.2.531.433a.71.71,0,0,1,.554.16" transform="translate(-162.614 -64.005)"/>
      <path id="Trazado_174483" data-name="Trazado 174483" d="M178.572,75.75c-.077-.233-.326-.315-.531-.433-.583-.339-.584-.337-.507-.981a.092.092,0,0,0,0-.037l-.031,0a.958.958,0,0,1-.1.212c-.251.3-.193.5.168.666.342.16.655.38.981.574l.025-.006" transform="translate(-160.215 -67.161)"/>
      <path id="Trazado_174484" data-name="Trazado 174484" d="M196.569,92.882c-.014,2.332,0,4.665-.015,7,0,.389.05.623.507.531a.71.71,0,0,1,.19.013h0l.033-.007c-.008-.011-.014-.021-.023-.032-.473-.083-.555-.383-.551-.824.022-2.15,0-4.3.017-6.452a1.133,1.133,0,0,0-.638-1.118c-1.5-.838-2.988-1.705-4.472-2.576a.71.71,0,0,0-.554-.16c0,.008,0,.016.007.024,1.7.978,3.4,1.963,5.117,2.927a.664.664,0,0,1,.383.678" transform="translate(-172.706 -80.664)"/>
      <path id="Trazado_174485" data-name="Trazado 174485" d="M190.836,89.421c0-.008,0-.016-.007-.024l-.025.006h0l.032.018" transform="translate(-172.472 -80.808)"/>
      <path id="Trazado_174486" data-name="Trazado 174486" d="M268.859,69.194c-.136-.383-.343-.346-.634-.152-.369.245-.765.451-1.151.671l-4.67,2.662c-.011.019-.022.036-.034.054a1.022,1.022,0,0,0,.617-.216q2.427-1.424,4.876-2.811c.62-.352.62-.352,1.14.049h0c-.005-.02-.01-.04-.017-.061a.922.922,0,0,1-.132-.194" transform="translate(-237.162 -62.28)"/>
      <path id="Trazado_174487" data-name="Trazado 174487" d="M256.535,86.353c0-2.25.005-4.5-.006-6.749a.624.624,0,0,1,.36-.639c1.953-1.111,3.892-2.247,5.839-3.37.655-.378.677-.385.361-1.016l-.012,0c.143.532-.165.773-.615,1.027q-2.732,1.545-5.444,3.124a1.086,1.086,0,0,0-.614,1.073c.024,2.092,0,4.186.02,6.278.006.52,0,.961-.614,1.079l0,.006c.72-.028.721-.041.721-.817" transform="translate(-231.232 -67.414)"/>
      <path id="Trazado_174488" data-name="Trazado 174488" d="M255.5,205.574l-.033.007h.037l0-.006" transform="translate(-230.921 -185.823)"/>
      <path id="Trazado_174489" data-name="Trazado 174489" d="M331.276,73.984c.007.021.011.041.017.061l.012,0-.029-.057" transform="translate(-299.448 -66.876)"/>
      <path id="Trazado_174490" data-name="Trazado 174490" d="M180.264,69.72c.2-.367.436-.3.742-.109.983.616,2,1.171,3.009,1.749s1.969,1.166,2.978,1.708a.693.693,0,0,0,1.027-.267h0L188,72.793a.893.893,0,0,1-1.205.057c-1.865-1.13-3.769-2.2-5.658-3.286-.626-.361-.638-.367-1.022.2a.208.208,0,0,1,.01.027.172.172,0,0,0,.137-.071" transform="translate(-162.812 -62.652)"/>
      <path id="Trazado_174491" data-name="Trazado 174491" d="M179.92,74.016l-.021.031.031,0a.212.212,0,0,0-.01-.027" transform="translate(-162.615 -66.905)"/>
      <path id="Trazado_174492" data-name="Trazado 174492" d="M262.237,105.068h0l-.051.046.016.008h0c.011-.018.023-.035.034-.054" transform="translate(-236.996 -94.973)"/>
      <path id="Trazado_174493" data-name="Trazado 174493" d="M27.264,334.861c.214.109.506.181.567.473l5.33,3.087c.165.139.08.327.081.49q.01,3.434,0,6.868c0,.667,0,.675.656.665.646-.1.68-.535.672-1.089-.029-2.1,0-4.206-.02-6.309a1.046,1.046,0,0,1,.6-1.032c1.909-1.09,3.8-2.213,5.723-3.277.449-.249.365-.556.343-.9-.515-.41-.516-.4-1.14-.041q-2.5,1.44-5,2.882c-.14.081-.278.2-.458.116-.34.5-.63.547-1.215.21-1.824-1.05-3.652-2.095-5.466-3.164-.461-.271-.852-.493-1.273,0-.226.585.157.8.6,1.024" transform="translate(-24.046 -301.485)"/>
      <path id="Trazado_174494" data-name="Trazado 174494" d="M27.3,332.029c.421-.489.812-.267,1.273,0,1.814,1.069,3.641,2.113,5.466,3.163.586.337.876.29,1.215-.21l-.022-.011a.849.849,0,0,1-1.2.1c-1.866-1.12-3.763-2.188-5.648-3.277-.669-.387-.668-.388-1.077.219h0l0,.013" transform="translate(-24.676 -299.676)"/>
      <path id="Trazado_174495" data-name="Trazado 174495" d="M110.545,334.737q2.5-1.443,5-2.882c.624-.36.625-.368,1.14.041,0-.015,0-.031,0-.046-.362-.578-.362-.579-.956-.236-.893.516-1.782,1.038-2.677,1.549-.976.557-1.958,1.1-2.938,1.654v0l-.022.032c.18.087.318-.035.458-.116" transform="translate(-99.51 -299.543)"/>
      <path id="Trazado_174496" data-name="Trazado 174496" d="M109.9,367.153v0l-.043.024.022.011.022-.032" transform="translate(-99.299 -331.875)"/>
      <path id="Trazado_174497" data-name="Trazado 174497" d="M109.905,336.748c.022.341.106.649-.343.9-1.923,1.065-3.814,2.187-5.723,3.277a1.046,1.046,0,0,0-.6,1.032c.019,2.1-.009,4.207.02,6.309.008.553-.026.99-.672,1.089h.022c.765-.031.765-.031.765-.812,0-2.233.01-4.467-.01-6.7a.737.737,0,0,1,.431-.748c1.94-1.1,3.869-2.222,5.8-3.336.64-.369.657-.38.331-1l-.013,0-.011-.009" transform="translate(-92.733 -304.394)"/>
      <path id="Trazado_174498" data-name="Trazado 174498" d="M178.7,336.313l.011.009.013,0-.027-.052c0,.016,0,.031,0,.046" transform="translate(-161.531 -303.959)"/>
      <path id="Trazado_174499" data-name="Trazado 174499" d="M25,337.586a10.549,10.549,0,0,1,1.047.615h0l.049.029c-.061-.292-.354-.364-.567-.473-.438-.224-.821-.439-.6-1.024l0,0a.847.847,0,0,1-.095.2c-.237.294-.215.487.162.657" transform="translate(-22.313 -304.38)"/>
      <path id="Trazado_174500" data-name="Trazado 174500" d="M27.281,336.612l0-.013-.006.015,0,0" transform="translate(-24.658 -304.259)"/>
      <path id="Trazado_174501" data-name="Trazado 174501" d="M336.905,337.314c-1.233-.728-2.48-1.43-3.717-2.152-.714-.417-1.448-.8-2.148-1.241-.335-.21-.6-.268-.818.126a.1.1,0,0,1-.076.042c.025.244-.158.4-.256.575.37.318.948.347,1.2.85h0c.139-.1.292-.014.426.062,1.637.93,3.265,1.876,4.893,2.822a.884.884,0,0,1,.371.876q0,2.824,0,5.649c0,.207.017.417,0,.622-.049.51-.026.97.584,1.121h0c.568-.136.6-.536.6-1.04-.026-2.071,0-4.143-.021-6.214a1.154,1.154,0,0,1,.642-1.155q2.674-1.533,5.345-3.073c.462-.265.958-.468.695-1.124h0c-.314-.375-.611-.317-1.019-.078-1.63.955-3.269,1.9-4.9,2.845a1.7,1.7,0,0,1-.52.232.477.477,0,0,1-.057,0,.857.857,0,0,1-1.21.248" transform="translate(-298.195 -301.69)"/>
      <path id="Trazado_174502" data-name="Trazado 174502" d="M415.56,335.255a1.7,1.7,0,0,0,.52-.232c1.634-.949,3.273-1.889,4.9-2.844.409-.24.705-.3,1.019.078h0c-.008-.02-.014-.038-.023-.058-.32-.539-.319-.538-.854-.231l-5.564,3.2c-.02.032-.04.063-.061.093a.464.464,0,0,0,.057,0" transform="translate(-375.582 -299.884)"/>
      <path id="Trazado_174503" data-name="Trazado 174503" d="M414.19,338.046q-2.674,1.534-5.345,3.073a1.154,1.154,0,0,0-.642,1.155c.025,2.071-.005,4.143.021,6.214.006.5-.03.9-.6,1.04h0l.022.006h0c.706-.042.706-.042.706-.782,0-2.252,0-4.5-.008-6.755a.631.631,0,0,1,.362-.643c1.954-1.113,3.9-2.248,5.844-3.373.7-.4.716-.412.344-1.059h-.01c.264.656-.232.859-.695,1.124" transform="translate(-368.462 -304.55)"/>
      <path id="Trazado_174504" data-name="Trazado 174504" d="M482.972,336.382l-.033-.057c.009.02.015.039.023.058h.01" transform="translate(-436.539 -304.012)"/>
      <path id="Trazado_174505" data-name="Trazado 174505" d="M348.052,361.666c.02-.206,0-.415,0-.622q0-2.824,0-5.649a.884.884,0,0,0-.371-.876c-1.628-.946-3.256-1.892-4.893-2.822-.134-.076-.286-.162-.426-.062,1.783,1.018,3.563,2.042,5.352,3.049.245.138.208.328.208.528q0,3.4,0,6.8c0,.741,0,.75.7.783l0,0c-.61-.151-.633-.612-.584-1.121" transform="translate(-309.472 -317.81)"/>
      <path id="Trazado_174506" data-name="Trazado 174506" d="M407.6,468.138l0,0h.024l-.022-.006" transform="translate(-368.44 -423.16)"/>
      <path id="Trazado_174507" data-name="Trazado 174507" d="M329.336,337.794c.1-.175.281-.33.256-.575a.335.335,0,0,1-.053.005,1.076,1.076,0,0,1-.11.208c-.265.312-.169.493.181.657a9.946,9.946,0,0,1,.924.555c-.25-.5-.827-.532-1.2-.85" transform="translate(-297.64 -304.82)"/>
      <path id="Trazado_174508" data-name="Trazado 174508" d="M338.861,335.475c-1.805-1.108-3.66-2.135-5.495-3.195-.629-.363-.649-.374-1.006.194l.014.012c0,.013,0,.026.005.038a.1.1,0,0,0,.076-.042c.221-.394.484-.336.818-.126.7.44,1.434.823,2.148,1.241,1.236.722,2.484,1.424,3.717,2.152a.857.857,0,0,0,1.21-.248.438.438,0,0,1-.047,0,1.12,1.12,0,0,1-1.44-.024" transform="translate(-300.428 -300.125)"/>
      <path id="Trazado_174509" data-name="Trazado 174509" d="M415.055,367.326c.021-.029.042-.06.061-.093-.036.033-.073.063-.109.092a.455.455,0,0,0,.048,0" transform="translate(-375.134 -331.95)"/>
      <path id="Trazado_174510" data-name="Trazado 174510" d="M332.048,336.715l-.014-.012-.035.055a.351.351,0,0,0,.053-.005c0-.013,0-.025,0-.038" transform="translate(-300.102 -304.353)"/>
      <path id="Trazado_174511" data-name="Trazado 174511" d="M432.88,417.369q1.711-1,3.425-1.989c.189-.11.435-.2.448-.455.014-.281.179-.626-.16-.82a1.056,1.056,0,0,0-1.075.237,1.121,1.121,0,0,1-.349.318c-.8.452-1.595.928-2.4,1.383-.143.081-.293.207-.471.109a.443.443,0,0,1-.313.329c-.382.156-.349.385-.157.673.146.218.275.447.429.659a1.555,1.555,0,0,1,.62-.443" transform="translate(-390.215 -374.26)" fill="#fefefe"/>
      <path id="Trazado_174512" data-name="Trazado 174512" d="M438.119,415.053c.8-.455,1.593-.931,2.4-1.383a1.12,1.12,0,0,0,.349-.318,1.056,1.056,0,0,1,1.075-.237c.339.194.174.539.16.82-.013.256-.259.345-.448.455q-1.712,1-3.425,1.989a1.553,1.553,0,0,0-.62.443c.015.02.028.041.043.061l4.277-2.507a1.5,1.5,0,0,0,.293-1.358.173.173,0,0,0-.116-.065c-.382,0-.765-.02-1.146,0-.262.016-.064.314-.209.418a1.812,1.812,0,0,1-.157.107l-2.943,1.674v0c.178.1.327-.028.471-.109" transform="translate(-395.563 -373.27)" fill="#fefefe"/>
      <path id="Trazado_174513" data-name="Trazado 174513" d="M429.835,437c-.192-.288-.225-.516.157-.673a.442.442,0,0,0,.313-.329l0,0c-.213.132-.429.26-.637.4-.069.046-.231.084-.166.182.246.372.324.865.75,1.11l.016-.028c-.154-.212-.284-.441-.429-.659" transform="translate(-388.22 -394.11)" fill="#fefefe"/>
      <path id="Trazado_174514" data-name="Trazado 174514" d="M437.5,453.37h0c-.015-.02-.029-.041-.043-.061l-.016.028c.019.011.038.023.059.033" transform="translate(-395.414 -409.756)" fill="#fefefe"/>
      <path id="Trazado_174515" data-name="Trazado 174515" d="M438.008,435.977l0,0h0v0" transform="translate(-395.922 -394.089)" fill="#fefefe"/>
      <path id="Trazado_174516" data-name="Trazado 174516" d="M471.479,364.443c.934,0,.826.105.832-.53.008-.905,0-.905-.7-.905-.826.009-.738-.088-.735.533,0,1.045-.115.9.6.9" transform="translate(-425.63 -328.13)" fill="#fdfdfd"/>
      <path id="Trazado_174517" data-name="Trazado 174517" d="M471.494,388.742c.769-.008.761-.008.76-.987,0-.856-.639-.4-.969-.43-.551-.058-.434-.172-.484.963-.031.687.438.39.693.454" transform="translate(-425.567 -350.028)" fill="#fdfdfd"/>
      <path id="Trazado_174518" data-name="Trazado 174518" d="M165.5,306.7a.8.8,0,0,0,.081-.464c0-.938-.014-1.877.007-2.815a.879.879,0,0,0-.515-.88c-.9-.482-1.772-1-2.642-1.53-.369-.223-.651-.274-.918.107H161.5a.086.086,0,0,1,.007.088c-.356.491-.016.673.358.885.665.379,1.333.754,1.991,1.147.146.087.335.133.361.347l0,0c.262.085.187.337.193.521.023.68.019,1.362.005,2.042-.008.382.133.553.526.535a1.142,1.142,0,0,1,.526.045.257.257,0,0,0,.033-.033" transform="translate(-145.855 -271.937)"/>
      <path id="Trazado_174519" data-name="Trazado 174519" d="M162.6,299.261c.267-.381.549-.33.918-.107.87.527,1.745,1.048,2.642,1.53a.879.879,0,0,1,.515.88c-.021.938-.006,1.877-.007,2.815a.794.794,0,0,1-.08.464.239.239,0,0,1-.033.033.506.506,0,0,1,.149.1c.118-.1.061-.238.062-.357,0-1.113-.008-2.226.01-3.338a.583.583,0,0,0-.355-.591c-.983-.548-1.954-1.118-2.93-1.679-.581-.334-.581-.333-.927.207a.2.2,0,0,1,.028.042h.009" transform="translate(-146.944 -270.077)"/>
      <path id="Trazado_174520" data-name="Trazado 174520" d="M162.225,305.858c-.658-.393-1.325-.768-1.99-1.147-.373-.213-.714-.394-.358-.885a.085.085,0,0,0-.006-.088l-.046,0a.671.671,0,0,1-.088.168c-.282.337-.252.54.176.766.894.471,1.751,1.014,2.623,1.527l.048.013,0,0c-.026-.214-.215-.26-.361-.347" transform="translate(-144.223 -274.553)"/>
      <path id="Trazado_174521" data-name="Trazado 174521" d="M162.425,303.365a.2.2,0,0,0-.028-.042c-.006.013-.012.026-.018.04l.046,0" transform="translate(-146.778 -274.181)"/>
      <path id="Trazado_174522" data-name="Trazado 174522" d="M192.2,332.626a1.142,1.142,0,0,0-.526-.045c-.393.018-.533-.153-.526-.535.014-.681.018-1.362-.005-2.042-.006-.184.069-.437-.193-.521l-.016.022c.1.122.049.275.05.411.006.485.012.969.013,1.454a1.527,1.527,0,0,1,.04.335,1.593,1.593,0,0,1,0,.239c-.047.393,0,.718.4.789.132-.008.264-.011.4-.01.121-.031.262-.015.361-.1" transform="translate(-172.586 -297.827)"/>
      <path id="Trazado_174523" data-name="Trazado 174523" d="M191.563,349.7a1.589,1.589,0,0,0,0-.239,1.524,1.524,0,0,0-.04-.335c0,.323,0,.646-.007.969s.105.418.41.4l.041,0c-.407-.071-.452-.4-.4-.789" transform="translate(-173.116 -315.586)"/>
      <path id="Trazado_174524" data-name="Trazado 174524" d="M200.345,362.3c.17,0,.34,0,.509,0a.5.5,0,0,0-.149-.1c-.1.083-.24.066-.361.1" transform="translate(-181.096 -327.401)"/>
      <path id="Trazado_174525" data-name="Trazado 174525" d="M190.6,329.347a.269.269,0,0,1,.032.035l.016-.022-.048-.013" transform="translate(-172.285 -297.704)"/>
      <path id="Trazado_174526" data-name="Trazado 174526" d="M307.03,304.067h0c.02-.255.247-.312.414-.414.677-.415,1.376-.794,2.062-1.2.329-.192.552-.378.284-.773a.147.147,0,0,1,0-.143h0c-.308-.355-.617-.311-.993-.071-.86.549-1.755,1.04-2.65,1.531a.862.862,0,0,0-.509.877c.028.828.02,1.658,0,2.487-.008.382.052.666.511.681a.227.227,0,0,1,.153.076c.459-.136.541-.475.514-.92-.033-.534-.011-1.072-.005-1.608a.829.829,0,0,1,.107-.5,1.021,1.021,0,0,1,.114-.016S307.03,304.071,307.03,304.067Z" transform="translate(-276.267 -272.337)"/>
      <path id="Trazado_174527" data-name="Trazado 174527" d="M305.3,305.015a.227.227,0,0,0-.153-.076c-.459-.015-.519-.3-.511-.681.018-.829.025-1.659,0-2.487a.862.862,0,0,1,.509-.877c.895-.49,1.79-.981,2.65-1.531.376-.24.685-.284.993.071h0a.289.289,0,0,1,.019-.037c-.349-.551-.349-.551-.933-.214-1,.578-2,1.165-3.011,1.729a.578.578,0,0,0-.338.6c.021.906.008,1.812.009,2.719,0,.733,0,.733.729.8l.036-.011" transform="translate(-275.271 -270.229)"/>
      <path id="Trazado_174528" data-name="Trazado 174528" d="M313.09,330.9c-.006.536-.028,1.074.005,1.608.027.445-.054.784-.514.92l.007.008c.665-.052.654-.068.67-.808a15.135,15.135,0,0,1,.053-2.244,1.051,1.051,0,0,0-.114.016.829.829,0,0,0-.108.5" transform="translate(-282.55 -298.638)"/>
      <path id="Trazado_174529" data-name="Trazado 174529" d="M312.244,362.062l-.036.011.042,0-.007-.008" transform="translate(-282.212 -327.276)"/>
      <path id="Trazado_174530" data-name="Trazado 174530" d="M322.956,304.086c.268.395.045.58-.285.772-.686.4-1.384.78-2.062,1.2-.167.1-.394.159-.414.414.777-.558,1.637-.975,2.456-1.463.673-.4.688-.4.339-1.065l-.037,0a.148.148,0,0,0,0,.143" transform="translate(-289.432 -274.738)"/>
      <path id="Trazado_174531" data-name="Trazado 174531" d="M348.941,303.616l-.018-.034a.276.276,0,0,0-.019.037l.037,0" transform="translate(-315.382 -274.415)"/>
      <path id="Trazado_174532" data-name="Trazado 174532" d="M98.673,468.446a.645.645,0,0,1,.081-.318,1.008,1.008,0,0,1-.382.094,1.466,1.466,0,0,1,.3.223" transform="translate(-88.921 -423.151)" fill="#54a2fe"/>
      <path id="Trazado_174533" data-name="Trazado 174533" d="M93.864,465.773c.052.032.106.062.16.091a.573.573,0,0,1-.069-.181.208.208,0,0,1-.091.09" transform="translate(-84.846 -420.941)" fill="#54a2fe"/>
      <path id="Trazado_174534" data-name="Trazado 174534" d="M101.51,468.271a.96.96,0,0,1,.128.156h0q0-.246,0-.492h0l-.045.018a.645.645,0,0,0-.081.318" transform="translate(-91.757 -422.977)" fill="#54a2fe"/>
      <path id="Trazado_174535" data-name="Trazado 174535" d="M93.384,466.863a.3.3,0,0,1-.273-.148c-.054-.029-.108-.059-.16-.091a.4.4,0,0,1-.1.036l.829.5c0-.026,0-.051,0-.076a1.475,1.475,0,0,0-.3-.223" transform="translate(-83.933 -421.792)" fill="#54a2fe"/>
      <path id="Trazado_174536" data-name="Trazado 174536" d="M101.479,471.509l.131.08a.964.964,0,0,0-.128-.156q0,.038,0,.076" transform="translate(-91.729 -426.139)" fill="#54a2fe"/>
      <path id="Trazado_174537" data-name="Trazado 174537" d="M94.9,391.8q0-3.434,0-6.868c0-.162.084-.35-.081-.49,0,2.473,0,4.946-.005,7.419,0,.12.056.275,0,.387a.578.578,0,0,0,.069.181c.091.049.184.1.273.148a1,1,0,0,0,.382-.094l.009-.016.014,0c-.655.01-.656,0-.656-.665" transform="translate(-85.704 -347.507)" fill="#54a2fe"/>
      <path id="Trazado_174538" data-name="Trazado 174538" d="M102.361,467.938l-.009.016.045-.018h-.022l-.014,0" transform="translate(-92.518 -422.977)" fill="#54a2fe"/>
      <path id="Trazado_174539" data-name="Trazado 174539" d="M95.806,467.716c-.089-.052-.182-.1-.273-.148a.3.3,0,0,0,.273.148" transform="translate(-86.354 -422.645)" fill="#54a2fe"/>
      <path id="Trazado_174540" data-name="Trazado 174540" d="M40.9,357.1a1.663,1.663,0,0,1,.044-.6,1.173,1.173,0,0,0-.5-.409q-2.194-1.272-4.391-2.539a1.011,1.011,0,0,1-.319-.21c-.027.372-.051.541-.186.621a.2.2,0,0,1,.163.106,2.261,2.261,0,0,1,.029,1.29c0,.03-.068.051-.12.073l.009.007c.192.606.134.863-.3.957l.169,0c.107,0,.256-.036.264.122a5.153,5.153,0,0,1-.024,1.237c-.006.031-.068.052-.12.075h0c.195.583.146.847-.252.952.277-.005.485.06.422.511-.033.236.236.276.389.365,1.266.738,2.534,1.473,3.812,2.191.252.142.3.243.147.506-.529.935-.515.938-1.438.414-1-.569-2.009-1.131-3.014-1.7a1.042,1.042,0,0,0,.377.336c1.6.912,3.2,1.826,4.794,2.761.087-2.354.012-4.709.041-7.063" transform="translate(-31.938 -319.386)" fill="#57a3fe"/>
      <path id="Trazado_174541" data-name="Trazado 174541" d="M26.415,375.094l-.009-.007-.034.016a1.963,1.963,0,0,0,0,.331c.062.411-.086.572-.517.535-.231-.02-.5-.115-.712.1l.979-.015c.431-.095.489-.351.3-.957" transform="translate(-22.723 -339.05)" fill="#57a3fe"/>
      <path id="Trazado_174542" data-name="Trazado 174542" d="M25.642,352.805c.208.019.493-.068.678-.038.135-.08.159-.248.186-.621a.326.326,0,0,1-.06-.126c-.031.071-.1.146-.087.211.059.422-.149.5-.522.487-.234-.011-.5-.117-.713.1a4.18,4.18,0,0,1,.518-.013" transform="translate(-22.71 -318.2)" fill="#57a3fe"/>
      <path id="Trazado_174543" data-name="Trazado 174543" d="M26.158,400.971c.4-.1.447-.369.252-.951h0l-.036.017a1.963,1.963,0,0,0,0,.331c.062.411-.086.572-.517.535-.231-.02-.5-.116-.712.1.271,0,.543,0,.813-.016.071-.005.141-.01.206-.011" transform="translate(-22.724 -361.585)" fill="#57a3fe"/>
      <path id="Trazado_174544" data-name="Trazado 174544" d="M38.375,433.557a1.041,1.041,0,0,1-.377-.336l-.106-.06c-.043.244.129.329.3.424.376.207.746.426,1.119.638l3.853,2.188c0-.031,0-.063,0-.094-1.59-.935-3.191-1.849-4.794-2.761" transform="translate(-34.245 -391.545)" fill="#57a3fe"/>
      <path id="Trazado_174545" data-name="Trazado 174545" d="M39.409,352.415a1.01,1.01,0,0,0,.319.21q2.194,1.271,4.391,2.539a1.173,1.173,0,0,1,.5.41.55.55,0,0,1,.106-.169l-5.33-3.087a.537.537,0,0,1,.012.086v.011" transform="translate(-35.613 -318.467)" fill="#57a3fe"/>
      <path id="Trazado_174546" data-name="Trazado 174546" d="M38.945,352.134a.54.54,0,0,0-.012-.086l-.049-.029h0a.327.327,0,0,0,.06.126v-.011" transform="translate(-35.148 -318.198)" fill="#57a3fe"/>
      <path id="Trazado_174547" data-name="Trazado 174547" d="M93.035,386.87a1.937,1.937,0,0,0-.039-.616.579.579,0,0,0-.027-.052,1.665,1.665,0,0,0-.044.6c-.029,2.354.045,4.709-.041,7.063l.017.01c.025.017.051.033.077.049a.208.208,0,0,0,.091-.09,1.506,1.506,0,0,1-.03-.315c-.008-2.218,0-4.436,0-6.653" transform="translate(-83.96 -349.097)" fill="#57a3fe"/>
      <path id="Trazado_174548" data-name="Trazado 174548" d="M92.951,466.07c-.026-.016-.052-.032-.077-.049l-.017-.01c0,.031,0,.063,0,.094a.4.4,0,0,0,.1-.036" transform="translate(-83.933 -421.238)" fill="#57a3fe"/>
      <path id="Trazado_174549" data-name="Trazado 174549" d="M93.8,384.663a1.933,1.933,0,0,1,.039.616c0,2.218,0,4.436,0,6.653a1.5,1.5,0,0,0,.03.315c.057-.112,0-.267,0-.387.008-2.473.005-4.946.005-7.419a.552.552,0,0,0-.106.169.567.567,0,0,1,.027.052" transform="translate(-84.76 -347.506)" fill="#57a3fe"/>
      <path id="Trazado_174550" data-name="Trazado 174550" d="M27.684,413.518c.979.564,1.964,1.119,2.943,1.682.458.263.462.257.8-.32.247-.426.24-.475-.213-.733-1.161-.662-2.318-1.332-3.478-2-.252-.144-.5-.281-.535-.618-.025-.263-.227-.258-.425-.271a5.187,5.187,0,0,1-.644-.008l-.011.008a1.148,1.148,0,0,0,.5,1.631,1.731,1.731,0,0,1,.535.392c.008.018.017.036.026.053.2-.052.349.091.5.181" transform="translate(-23.472 -371.74)" fill="#fefefe"/>
      <path id="Trazado_174551" data-name="Trazado 174551" d="M25.851,412.353a1.729,1.729,0,0,0-.535-.392,1.148,1.148,0,0,1-.5-1.631l.011-.007a.634.634,0,0,1-.24-.1,1.6,1.6,0,0,0,1.125,2.112c.041.012.071.061.106.092a.389.389,0,0,1,.061-.021c-.009-.017-.018-.035-.025-.053" transform="translate(-22.169 -370.81)" fill="#fefefe"/>
      <path id="Trazado_174552" data-name="Trazado 174552" d="M33.182,413.505c.149-.263.105-.364-.147-.506-1.278-.718-2.546-1.453-3.812-2.191-.153-.089-.422-.128-.389-.365.063-.452-.145-.517-.422-.511a2.07,2.07,0,0,1-.43.055.6.6,0,0,0-.349.072,5.163,5.163,0,0,0,.644.008c.2.014.4.008.425.272.032.338.283.474.535.618,1.16.664,2.317,1.334,3.478,2,.453.258.46.307.214.733-.333.577-.337.584-.8.32-.98-.563-1.964-1.118-2.943-1.682-.156-.09-.3-.233-.5-.181a.851.851,0,0,0,.045.08c1,.565,2.011,1.126,3.014,1.7.923.524.909.521,1.438-.414" transform="translate(-24.978 -370.547)" fill="#fefefe"/>
      <path id="Trazado_174553" data-name="Trazado 174553" d="M25.729,409.99a2.071,2.071,0,0,0,.43-.055c-.066,0-.135.006-.206.011-.27.019-.542.012-.813.016a.63.63,0,0,0,.24.1.6.6,0,0,1,.349-.072" transform="translate(-22.725 -370.549)" fill="#fefefe"/>
      <path id="Trazado_174554" data-name="Trazado 174554" d="M38.059,433.028a.851.851,0,0,1-.045-.08.4.4,0,0,0-.061.021l.106.06" transform="translate(-34.307 -391.351)" fill="#fefefe"/>
      <path id="Trazado_174555" data-name="Trazado 174555" d="M27.188,361.479a2.436,2.436,0,0,1-.606-.015.314.314,0,0,0-.039.048.673.673,0,0,0-.055.278c-.01.824-.037.912.748.865a.525.525,0,0,1,.358.094c.031-.272.051-.543.056-.817.006-.334-.143-.451-.463-.451" transform="translate(-23.94 -326.735)" fill="#fcfdfe"/>
      <path id="Trazado_174556" data-name="Trazado 174556" d="M25.6,361.624c-.785.047-.758-.041-.748-.865a.676.676,0,0,1,.055-.278.326.326,0,0,1,.039-.048.622.622,0,0,1-.227-.109c.006.444-.134.974.061,1.307.166.283.741.03,1.128.115l.046.012,0-.041a.524.524,0,0,0-.358-.094" transform="translate(-22.305 -325.705)" fill="#fcfdfe"/>
      <path id="Trazado_174557" data-name="Trazado 174557" d="M28.651,361.189a2.261,2.261,0,0,0-.029-1.29.2.2,0,0,0-.163-.106,1.242,1.242,0,0,1-.534.079c-.149,0-.316-.039-.435.081a2.436,2.436,0,0,0,.606.015c.319,0,.469.117.463.451-.005.274-.026.546-.056.817l.03.025c.052-.023.115-.043.12-.073" transform="translate(-24.848 -325.225)" fill="#fcfdfe"/>
      <path id="Trazado_174558" data-name="Trazado 174558" d="M25.786,359.812a1.241,1.241,0,0,0,.534-.079c-.185-.03-.47.057-.678.038a4.169,4.169,0,0,0-.518.013.62.62,0,0,0,.227.109c.119-.121.286-.077.435-.081" transform="translate(-22.71 -325.165)" fill="#fcfdfe"/>
      <path id="Trazado_174559" data-name="Trazado 174559" d="M37.984,374.826c0,.014,0,.027,0,.041l.034-.016-.03-.025" transform="translate(-34.331 -338.814)" fill="#fcfdfe"/>
      <path id="Trazado_174560" data-name="Trazado 174560" d="M27.223,386.456a3.476,3.476,0,0,1-.635-.014.3.3,0,0,0-.031.03.786.786,0,0,0-.085.462c-.012.654-.01.655.643.688a.826.826,0,0,1,.465.1,6.686,6.686,0,0,0,.054-.866c0-.286-.136-.391-.411-.4" transform="translate(-23.926 -349.314)" fill="#fcfdfe"/>
      <path id="Trazado_174561" data-name="Trazado 174561" d="M25.5,386.57c-.653-.032-.655-.034-.643-.687a.786.786,0,0,1,.085-.462.282.282,0,0,1,.031-.03.643.643,0,0,1-.247-.112c.005.444-.135.973.06,1.306.166.283.741.03,1.128.115l.046.012c0-.013,0-.026,0-.04a.827.827,0,0,0-.465-.1" transform="translate(-22.31 -348.262)" fill="#fcfdfe"/>
      <path id="Trazado_174562" data-name="Trazado 174562" d="M28.847,386.416a5.153,5.153,0,0,0,.024-1.237c-.008-.158-.157-.123-.264-.122l-.169,0a2.229,2.229,0,0,1-.367.042.552.552,0,0,0-.366.084,3.46,3.46,0,0,0,.635.013c.275.01.408.116.411.4a6.668,6.668,0,0,1-.054.866c.01.007.021.014.031.023.052-.023.114-.044.12-.075" transform="translate(-25.042 -348.058)" fill="#fcfdfe"/>
      <path id="Trazado_174563" data-name="Trazado 174563" d="M25.749,385.165a2.227,2.227,0,0,0,.367-.042l-.98.015a.641.641,0,0,0,.247.112.552.552,0,0,1,.366-.084" transform="translate(-22.722 -348.121)" fill="#fcfdfe"/>
      <path id="Trazado_174564" data-name="Trazado 174564" d="M37.985,399.782c0,.013,0,.027,0,.04l.036-.017c-.01-.009-.021-.015-.031-.023" transform="translate(-34.331 -361.372)" fill="#fcfdfe"/>
      <path id="Trazado_174565" data-name="Trazado 174565" d="M246.319,30.107c.068.119.153.225.3.121.184-.13.322-.029.476.06q1.7.977,3.4,1.943c.115.065.277.234.376.1a11.016,11.016,0,0,0,.607-.98c.021-.226-.131-.275-.251-.345q-2.084-1.208-4.169-2.416a.443.443,0,0,0-.485-.009c-.86.462-.862.457-.363,1.313.04.069.072.142.112.211" transform="translate(-222.247 -25.775)" fill="#fefefe"/>
      <path id="Trazado_174566" data-name="Trazado 174566" d="M203.162,53.13c-.423-.377-.638.241-.988.306-.155.029-.4.118-.24.4s.33.579.495.868c.042.074.1.123.252.1.3-.183.655-.392,1-.612.086-.055.035-.145,0-.212a3.293,3.293,0,0,0-.516-.849" transform="translate(-182.484 -47.915)" fill="#fefefe"/>
      <path id="Trazado_174567" data-name="Trazado 174567" d="M223.471,40.829c-.12.179.269.523.407.8.042.086.1.166.138.251.052.1.121.149.226.074.333-.238.885-.3.985-.686.084-.32-.288-.671-.483-.995-.049-.082-.1-.171-.219-.142a.522.522,0,0,0-.087.036c-.335.21-.767.357-.968.658" transform="translate(-201.98 -36.274)" fill="#fefefe"/>
    </g>
  </g>
</svg>
