<svg id="Grupo_948040" data-name="Grupo 948040" xmlns="http://www.w3.org/2000/svg" width="54.72" height="77.609" viewBox="0 0 54.72 77.609">
  <g id="Grupo_80154" data-name="Grupo 80154" transform="translate(0 0)">
    <g id="Grupo_80137" data-name="Grupo 80137" transform="translate(1.134 39.21)">
      <path id="Trazado_113581" data-name="Trazado 113581" d="M1913.506,1149.012c-10.269-5.929-26.866-5.933-37.072,0s-10.15,15.544.123,21.473,26.866,5.929,37.068,0S1923.779,1154.941,1913.506,1149.012Z" transform="translate(-1868.796 -1144.564)" fill="#fecc2b"/>
      <g id="Grupo_80134" data-name="Grupo 80134" transform="translate(0 15.105)">
        <path id="Trazado_113582" data-name="Trazado 113582" d="M1868.781,1187.44l-.021,8.036c-.01,3.445,1.994,6.894,6.007,9.709v-8.054C1870.768,1194.324,1868.774,1190.882,1868.781,1187.44Z" transform="translate(-1868.76 -1187.44)" fill="#ffb200"/>
        <path id="Trazado_113583" data-name="Trazado 113583" d="M1899.52,1222.46v8.046a35.636,35.636,0,0,0,6.535,2.008v-8.043A35.28,35.28,0,0,1,1899.52,1222.46Z" transform="translate(-1888.684 -1210.123)" fill="#ffb200"/>
        <path id="Trazado_113584" data-name="Trazado 113584" d="M1967.476,1198.54a36.028,36.028,0,0,1-15.525,4.344v8.036a36.051,36.051,0,0,0,15.5-4.344c5.07-2.945,7.606-6.8,7.617-10.661l.021-8.036C1975.082,1191.738,1972.545,1195.592,1967.476,1198.54Z" transform="translate(-1922.643 -1187.725)" fill="#fb9004"/>
        <path id="Trazado_113585" data-name="Trazado 113585" d="M1887.558,1216.08q-.936-.539-1.758-1.12v8.053c.542.38,1.117.75,1.734,1.106a28.423,28.423,0,0,0,3.1,1.532v-8.046A29.012,29.012,0,0,1,1887.558,1216.08Z" transform="translate(-1879.797 -1205.265)" fill="#ffd54f"/>
        <path id="Trazado_113586" data-name="Trazado 113586" d="M1918.07,1228.17v8.043a44.5,44.5,0,0,0,11.932.8v-8.036A44.345,44.345,0,0,1,1918.07,1228.17Z" transform="translate(-1900.698 -1213.821)" fill="#ffd54f"/>
      </g>
      <g id="Grupo_80135" data-name="Grupo 80135" transform="translate(4.638 2.591)">
        <path id="Trazado_113587" data-name="Trazado 113587" d="M1888.684,1157c8.142-4.731,21.384-4.731,29.579,0,5.788,3.34,7.5,8.145,5.15,12.348,3.34-4.562,1.783-10.044-4.664-13.768-8.465-4.886-22.142-4.886-30.551,0-6.373,3.7-7.884,9.152-4.558,13.7C1881.293,1165.1,1882.966,1160.328,1888.684,1157Z" transform="translate(-1881.925 -1151.918)" fill="#fb9004"/>
        <path id="Trazado_113588" data-name="Trazado 113588" d="M1889.564,1176.112c8.466,4.886,22.138,4.886,30.548,0a14.7,14.7,0,0,0,4.566-3.928c2.353-4.2.637-9.008-5.151-12.348-8.194-4.731-21.437-4.731-29.579,0-5.718,3.322-7.391,8.1-5.045,12.281A14.908,14.908,0,0,0,1889.564,1176.112Z" transform="translate(-1883.189 -1154.748)" fill="#ff9e01"/>
      </g>
      <g id="Grupo_80136" data-name="Grupo 80136" transform="translate(0.029 14.534)">
        <path id="Trazado_113589" data-name="Trazado 113589" d="M1913.647,1196.068c-10.206,5.929-26.8,5.929-37.069,0-4.922-2.839-7.49-6.528-7.715-10.248-.279,4.1,2.3,8.254,7.715,11.383,10.27,5.929,26.866,5.929,37.069,0,5.316-3.09,7.842-7.179,7.6-11.228C1920.992,1189.646,1918.466,1193.268,1913.647,1196.068Z" transform="translate(-1868.843 -1185.82)" fill="#feedb5"/>
      </g>
    </g>
    <g id="Grupo_80141" data-name="Grupo 80141" transform="translate(0 28.98)">
      <path id="Trazado_113590" data-name="Trazado 113590" d="M1910.286,1119.972c-10.27-5.929-26.866-5.932-37.072,0s-10.15,15.543.123,21.472,26.866,5.929,37.068,0S1920.555,1125.9,1910.286,1119.972Z" transform="translate(-1865.576 -1115.524)" fill="#fecc2b"/>
      <g id="Grupo_80138" data-name="Grupo 80138" transform="translate(0 15.109)">
        <path id="Trazado_113591" data-name="Trazado 113591" d="M1865.561,1158.41l-.021,8.036c-.01,3.446,1.994,6.895,6.007,9.709V1168.1C1867.548,1165.294,1865.551,1161.848,1865.561,1158.41Z" transform="translate(-1865.54 -1158.41)" fill="#ffb200"/>
        <path id="Trazado_113592" data-name="Trazado 113592" d="M1896.29,1193.43v8.046a35.576,35.576,0,0,0,6.535,2.008v-8.043A35.873,35.873,0,0,1,1896.29,1193.43Z" transform="translate(-1885.457 -1181.093)" fill="#ffb200"/>
        <path id="Trazado_113593" data-name="Trazado 113593" d="M1964.246,1169.507a36.083,36.083,0,0,1-15.525,4.347v8.036a36.044,36.044,0,0,0,15.5-4.344c5.07-2.945,7.606-6.8,7.617-10.66l.021-8.036C1971.852,1162.708,1969.315,1166.562,1964.246,1169.507Z" transform="translate(-1919.416 -1158.695)" fill="#fb9004"/>
        <path id="Trazado_113594" data-name="Trazado 113594" d="M1884.338,1187.04q-.935-.539-1.758-1.12v8.053c.543.38,1.117.75,1.733,1.106a28.445,28.445,0,0,0,3.1,1.532v-8.046A28.268,28.268,0,0,1,1884.338,1187.04Z" transform="translate(-1876.577 -1176.228)" fill="#ffd54f"/>
        <path id="Trazado_113595" data-name="Trazado 113595" d="M1914.84,1199.14v8.043a44.493,44.493,0,0,0,11.932.8v-8.036A44.5,44.5,0,0,1,1914.84,1199.14Z" transform="translate(-1897.472 -1184.791)" fill="#ffd54f"/>
      </g>
      <g id="Grupo_80139" data-name="Grupo 80139" transform="translate(4.638 2.594)">
        <path id="Trazado_113596" data-name="Trazado 113596" d="M1885.464,1127.972c8.141-4.731,21.384-4.731,29.579,0,5.788,3.34,7.5,8.145,5.15,12.348,3.34-4.562,1.783-10.044-4.665-13.768-8.465-4.886-22.141-4.886-30.551,0-6.373,3.7-7.885,9.152-4.559,13.7C1878.07,1136.068,1879.743,1131.294,1885.464,1127.972Z" transform="translate(-1878.705 -1122.888)" fill="#fb9004"/>
        <path id="Trazado_113597" data-name="Trazado 113597" d="M1886.334,1147.072c8.466,4.887,22.138,4.887,30.548,0a14.7,14.7,0,0,0,4.566-3.928c2.353-4.2.638-9.008-5.151-12.348-8.195-4.731-21.437-4.731-29.579,0-5.718,3.322-7.391,8.1-5.045,12.281A14.94,14.94,0,0,0,1886.334,1147.072Z" transform="translate(-1879.963 -1125.712)" fill="#ff9e01"/>
      </g>
      <g id="Grupo_80140" data-name="Grupo 80140" transform="translate(0.026 14.538)">
        <path id="Trazado_113598" data-name="Trazado 113598" d="M1910.416,1167.038c-10.206,5.929-26.8,5.929-37.068,0-4.922-2.839-7.49-6.528-7.716-10.248-.278,4.1,2.3,8.254,7.716,11.383,10.269,5.929,26.866,5.929,37.068,0,5.316-3.089,7.843-7.18,7.6-11.228C1917.765,1160.613,1915.235,1164.238,1910.416,1167.038Z" transform="translate(-1865.612 -1156.79)" fill="#feedb5"/>
      </g>
    </g>
    <g id="Grupo_80145" data-name="Grupo 80145" transform="translate(2.272 18.753)">
      <path id="Trazado_113599" data-name="Trazado 113599" d="M1916.736,1090.942c-10.269-5.929-26.866-5.933-37.072,0s-10.15,15.543.123,21.472,26.866,5.929,37.068,0S1927.005,1096.871,1916.736,1090.942Z" transform="translate(-1872.026 -1086.494)" fill="#fecc2b"/>
      <g id="Grupo_80142" data-name="Grupo 80142" transform="translate(0 15.105)">
        <path id="Trazado_113600" data-name="Trazado 113600" d="M1872.011,1129.37l-.021,8.036c-.01,3.446,1.994,6.895,6.007,9.709v-8.053C1874,1136.254,1872,1132.812,1872.011,1129.37Z" transform="translate(-1871.99 -1129.37)" fill="#ffb200"/>
        <path id="Trazado_113601" data-name="Trazado 113601" d="M1902.75,1164.39v8.047a35.649,35.649,0,0,0,6.535,2.008V1166.4A35.221,35.221,0,0,1,1902.75,1164.39Z" transform="translate(-1891.913 -1152.053)" fill="#ffb200"/>
        <path id="Trazado_113602" data-name="Trazado 113602" d="M1970.7,1140.47a36.027,36.027,0,0,1-15.526,4.344v8.036a36.057,36.057,0,0,0,15.5-4.344c5.07-2.945,7.606-6.8,7.617-10.66l.021-8.036C1978.305,1133.668,1975.765,1137.522,1970.7,1140.47Z" transform="translate(-1925.866 -1129.655)" fill="#fb9004"/>
        <path id="Trazado_113603" data-name="Trazado 113603" d="M1890.788,1158.01q-.936-.539-1.758-1.121v8.053c.542.381,1.117.751,1.733,1.106a28.36,28.36,0,0,0,3.1,1.532v-8.046A28.918,28.918,0,0,1,1890.788,1158.01Z" transform="translate(-1883.027 -1147.195)" fill="#ffd54f"/>
        <path id="Trazado_113604" data-name="Trazado 113604" d="M1921.3,1170.1v8.043a44.491,44.491,0,0,0,11.932.8v-8.036A44.332,44.332,0,0,1,1921.3,1170.1Z" transform="translate(-1903.929 -1155.751)" fill="#ffd54f"/>
      </g>
      <g id="Grupo_80143" data-name="Grupo 80143" transform="translate(4.638 2.591)">
        <path id="Trazado_113605" data-name="Trazado 113605" d="M1891.914,1098.932c8.141-4.731,21.384-4.731,29.578,0,5.788,3.34,7.5,8.145,5.151,12.348,3.34-4.562,1.782-10.044-4.664-13.768-8.466-4.886-22.142-4.886-30.551,0-6.373,3.706-7.884,9.152-4.558,13.7C1884.519,1107.028,1886.193,1102.258,1891.914,1098.932Z" transform="translate(-1885.155 -1093.848)" fill="#fb9004"/>
        <path id="Trazado_113606" data-name="Trazado 113606" d="M1892.784,1118.042c8.466,4.886,22.138,4.886,30.547,0a14.7,14.7,0,0,0,4.566-3.928c2.353-4.2.637-9.008-5.15-12.348-8.195-4.731-21.437-4.731-29.579,0-5.718,3.322-7.391,8.1-5.045,12.281A14.988,14.988,0,0,0,1892.784,1118.042Z" transform="translate(-1886.412 -1096.678)" fill="#ff9e01"/>
      </g>
      <g id="Grupo_80144" data-name="Grupo 80144" transform="translate(0.026 14.534)">
        <path id="Trazado_113607" data-name="Trazado 113607" d="M1916.866,1138c-10.206,5.929-26.8,5.929-37.068,0-4.922-2.84-7.49-6.528-7.715-10.248-.278,4.1,2.3,8.254,7.715,11.383,10.27,5.929,26.866,5.929,37.068,0,5.316-3.089,7.842-7.18,7.6-11.228C1924.215,1131.576,1921.686,1135.2,1916.866,1138Z" transform="translate(-1872.062 -1127.75)" fill="#feedb5"/>
      </g>
    </g>
    <g id="Grupo_80149" data-name="Grupo 80149" transform="translate(0 9.66)">
      <path id="Trazado_113608" data-name="Trazado 113608" d="M1910.286,1065.132c-10.27-5.929-26.866-5.933-37.072,0s-10.15,15.543.123,21.472,26.866,5.929,37.068,0S1920.555,1071.061,1910.286,1065.132Z" transform="translate(-1865.576 -1060.684)" fill="#fecc2b"/>
      <g id="Grupo_80146" data-name="Grupo 80146" transform="translate(0 15.109)">
        <path id="Trazado_113609" data-name="Trazado 113609" d="M1865.561,1103.57l-.021,8.036c-.01,3.445,1.994,6.894,6.007,9.709v-8.053C1867.548,1110.45,1865.551,1107.008,1865.561,1103.57Z" transform="translate(-1865.54 -1103.57)" fill="#ffb200"/>
        <path id="Trazado_113610" data-name="Trazado 113610" d="M1896.29,1138.58v8.047a35.613,35.613,0,0,0,6.535,2.008v-8.043A35.327,35.327,0,0,1,1896.29,1138.58Z" transform="translate(-1885.457 -1126.246)" fill="#ffb200"/>
        <path id="Trazado_113611" data-name="Trazado 113611" d="M1964.246,1114.667a36.083,36.083,0,0,1-15.525,4.347v8.036a36.054,36.054,0,0,0,15.5-4.344c5.07-2.945,7.606-6.8,7.617-10.661l.021-8.036C1971.852,1107.864,1969.315,1111.719,1964.246,1114.667Z" transform="translate(-1919.416 -1103.855)" fill="#fb9004"/>
        <path id="Trazado_113612" data-name="Trazado 113612" d="M1884.338,1132.2q-.935-.539-1.758-1.12v8.053c.543.38,1.117.75,1.733,1.106a28.445,28.445,0,0,0,3.1,1.532v-8.046A28.357,28.357,0,0,1,1884.338,1132.2Z" transform="translate(-1876.577 -1121.389)" fill="#ffd54f"/>
        <path id="Trazado_113613" data-name="Trazado 113613" d="M1914.84,1144.3v8.043a44.5,44.5,0,0,0,11.932.8v-8.036A44.655,44.655,0,0,1,1914.84,1144.3Z" transform="translate(-1897.472 -1129.951)" fill="#ffd54f"/>
      </g>
      <g id="Grupo_80147" data-name="Grupo 80147" transform="translate(4.638 2.591)">
        <path id="Trazado_113614" data-name="Trazado 113614" d="M1885.464,1073.122c8.141-4.731,21.384-4.731,29.579,0,5.788,3.34,7.5,8.145,5.15,12.348,3.34-4.562,1.783-10.044-4.665-13.767-8.465-4.886-22.141-4.886-30.551,0-6.373,3.7-7.885,9.152-4.559,13.7C1878.07,1081.218,1879.743,1076.448,1885.464,1073.122Z" transform="translate(-1878.705 -1068.038)" fill="#fb9004"/>
        <path id="Trazado_113615" data-name="Trazado 113615" d="M1886.334,1092.232c8.466,4.886,22.138,4.886,30.548,0a14.7,14.7,0,0,0,4.566-3.928c2.353-4.2.638-9.008-5.151-12.348-8.195-4.731-21.437-4.731-29.579,0-5.718,3.322-7.391,8.1-5.045,12.281A14.986,14.986,0,0,0,1886.334,1092.232Z" transform="translate(-1879.963 -1070.868)" fill="#ff9e01"/>
      </g>
      <g id="Grupo_80148" data-name="Grupo 80148" transform="translate(0.026 14.534)">
        <path id="Trazado_113616" data-name="Trazado 113616" d="M1910.416,1112.188c-10.206,5.929-26.8,5.929-37.068,0-4.922-2.84-7.49-6.528-7.716-10.248-.278,4.1,2.3,8.254,7.716,11.383,10.269,5.929,26.866,5.929,37.068,0,5.316-3.09,7.843-7.18,7.6-11.228C1917.765,1105.766,1915.235,1109.388,1910.416,1112.188Z" transform="translate(-1865.612 -1101.94)" fill="#feedb5"/>
      </g>
    </g>
    <g id="Grupo_80153" data-name="Grupo 80153">
      <path id="Trazado_113617" data-name="Trazado 113617" d="M1910.286,1037.712c-10.27-5.929-26.866-5.933-37.072,0s-10.15,15.543.123,21.472,26.866,5.929,37.068,0S1920.555,1043.641,1910.286,1037.712Z" transform="translate(-1865.576 -1033.264)" fill="#fecc2b"/>
      <g id="Grupo_80150" data-name="Grupo 80150" transform="translate(0 15.105)">
        <path id="Trazado_113618" data-name="Trazado 113618" d="M1865.561,1076.14l-.021,8.036c-.01,3.446,1.994,6.895,6.007,9.709v-8.053C1867.548,1083.024,1865.551,1079.582,1865.561,1076.14Z" transform="translate(-1865.54 -1076.14)" fill="#ffb200"/>
        <path id="Trazado_113619" data-name="Trazado 113619" d="M1896.29,1111.16v8.047a35.6,35.6,0,0,0,6.535,2.008v-8.043A35.346,35.346,0,0,1,1896.29,1111.16Z" transform="translate(-1885.457 -1098.823)" fill="#ffb200"/>
        <path id="Trazado_113620" data-name="Trazado 113620" d="M1964.246,1087.237a36.085,36.085,0,0,1-15.525,4.347v8.036a36.049,36.049,0,0,0,15.5-4.344c5.07-2.945,7.606-6.8,7.617-10.661l.021-8.036C1971.852,1080.438,1969.315,1084.292,1964.246,1087.237Z" transform="translate(-1919.416 -1076.425)" fill="#fb9004"/>
        <path id="Trazado_113621" data-name="Trazado 113621" d="M1884.338,1104.78q-.935-.539-1.758-1.12v8.053c.543.38,1.117.751,1.733,1.106a28.445,28.445,0,0,0,3.1,1.532v-8.047A28.334,28.334,0,0,1,1884.338,1104.78Z" transform="translate(-1876.577 -1093.965)" fill="#ffd54f"/>
        <path id="Trazado_113622" data-name="Trazado 113622" d="M1914.84,1116.87v8.043a44.5,44.5,0,0,0,11.932.8v-8.036A44.365,44.365,0,0,1,1914.84,1116.87Z" transform="translate(-1897.472 -1102.521)" fill="#ffd54f"/>
      </g>
      <g id="Grupo_80151" data-name="Grupo 80151" transform="translate(4.638 2.591)">
        <path id="Trazado_113623" data-name="Trazado 113623" d="M1885.464,1045.7c8.141-4.731,21.384-4.731,29.579,0,5.788,3.34,7.5,8.145,5.15,12.348,3.34-4.562,1.783-10.044-4.665-13.768-8.465-4.886-22.141-4.886-30.551,0-6.373,3.7-7.885,9.153-4.559,13.7C1878.07,1053.8,1879.743,1049.024,1885.464,1045.7Z" transform="translate(-1878.705 -1040.618)" fill="#fb9004"/>
        <path id="Trazado_113624" data-name="Trazado 113624" d="M1886.334,1064.812c8.466,4.886,22.138,4.886,30.548,0a14.7,14.7,0,0,0,4.566-3.928c2.353-4.2.638-9.008-5.151-12.348-8.195-4.731-21.437-4.731-29.579,0-5.718,3.322-7.391,8.1-5.045,12.281A14.988,14.988,0,0,0,1886.334,1064.812Z" transform="translate(-1879.963 -1043.448)" fill="#ff9e01"/>
      </g>
      <g id="Grupo_80152" data-name="Grupo 80152" transform="translate(0.026 14.534)">
        <path id="Trazado_113625" data-name="Trazado 113625" d="M1910.416,1084.769c-10.206,5.929-26.8,5.929-37.068,0-4.922-2.84-7.49-6.528-7.716-10.249-.278,4.1,2.3,8.254,7.716,11.383,10.269,5.929,26.866,5.929,37.068,0,5.316-3.089,7.843-7.18,7.6-11.228C1917.765,1078.346,1915.235,1081.968,1910.416,1084.769Z" transform="translate(-1865.612 -1074.52)" fill="#feedb5"/>
      </g>
    </g>
  </g>
  <g id="Grupo_80155" data-name="Grupo 80155" transform="translate(12.006 6.968)">
    <path id="Trazado_113626" data-name="Trazado 113626" d="M1926.3,1057.876a8.87,8.87,0,0,0-6.968-.6c.631-1.169.222-2.375-1.4-3.315-2.463-1.43-6.137-1.24-10.107.976l-2.272-1.321-3.656,2.11,2.265,1.314-4.542,2.621,16.167,9.4,4.541-2.621,2.184,1.268,3.657-2.11-2.184-1.268.219-.127C1928.476,1061.73,1929.093,1059.5,1926.3,1057.876Zm-16.3,3.477-3.812-2.216.8-.461,2.945-1.7q.38-.217.75-.391a4.211,4.211,0,0,1,3.981-.148c1.1.638.983,1.434-.247,2.318a7.047,7.047,0,0,1-.673.433l-2.945,1.7Zm11.175,1.332-.063.035-3.594,2.075-.8.462-3.994-2.322.8-.461,3.594-2.075.063-.035c1.927-1.1,3.6-1.314,4.943-.529C1923.488,1060.635,1923.062,1061.575,1921.167,1062.685Z" transform="translate(-1899.62 -1053.044)" fill="#feedb5"/>
  </g>
  <g id="Grupo_80156" data-name="Grupo 80156" transform="translate(12.006 6.401)">
    <path id="Trazado_113627" data-name="Trazado 113627" d="M1926.3,1056.266a8.868,8.868,0,0,0-6.968-.6c.631-1.17.222-2.375-1.4-3.315-2.463-1.43-6.137-1.24-10.107.976l-2.272-1.321-3.656,2.11,2.265,1.314-4.542,2.621,16.167,9.4,4.541-2.621,2.184,1.268,3.657-2.11-2.184-1.268.219-.127C1928.476,1060.117,1929.093,1057.89,1926.3,1056.266Zm-16.3,3.477-3.812-2.216.8-.462,2.945-1.7q.38-.217.75-.391a4.214,4.214,0,0,1,3.981-.148c1.1.634.983,1.434-.247,2.318a6.908,6.908,0,0,1-.673.433l-2.945,1.7Zm11.175,1.331-.063.035-3.594,2.075-.8.462-3.994-2.322.8-.462,3.594-2.075.063-.035c1.927-1.1,3.6-1.314,4.943-.528C1923.488,1059.025,1923.062,1059.965,1921.167,1061.075Z" transform="translate(-1899.62 -1051.434)" fill="#fecc2b"/>
  </g>
</svg>
