<svg xmlns="http://www.w3.org/2000/svg" xmlns:xlink="http://www.w3.org/1999/xlink" width="143.598" height="180.518" viewBox="0 0 143.598 180.518"><defs><linearGradient id="a" x1="0.5" x2="0.5" y2="1" gradientUnits="objectBoundingBox"><stop offset="0" stop-color="#004dba"/><stop offset="1" stop-color="#018af2"/></linearGradient></defs><g transform="translate(15.438 22.137)"><g transform="translate(34.575 102.317)"><path d="M91.133,378.664a2.319,2.319,0,0,1-2.1,0l-9.009-5.2a.639.639,0,0,1,0-1.211l64.808-37.417a2.319,2.319,0,0,1,2.1,0l9.01,5.2a.646.646,0,0,1,0,1.22Z" transform="translate(-79.592 -334.583)" fill="#e0e0e0"/></g><g transform="translate(6.469 -16.579)"><g transform="translate(0 55.446)"><path d="M12.806,257.327l5.775,3.334,9.506-5.488V184.858l6.337-3.659-10.871-8.358-5.775-3.334L6.469,190.67,12.244,194l.562-.324Z" transform="translate(-6.469 -169.507)" fill="#b0c0d2" opacity="0.8"/><path d="M27.831,266l9.506-5.488V190.2l6.337-3.659L32.8,178.181,21.494,199.345l6.337-3.659Z" transform="translate(-15.719 -174.847)" fill="#ba68c8"/><path d="M27.831,266l9.506-5.488V190.2l6.337-3.659L32.8,178.181,21.494,199.345l6.337-3.659Z" transform="translate(-15.719 -174.847)" opacity="0.7" fill="url(#a)"/><path d="M22.956,290.7l5.775,3.334V223.723l-5.775,3.334Z" transform="translate(-16.619 -202.885)" fill="#b0c0d2"/></g><g transform="translate(12.257)"><path d="M65.853,34.634l-27.5,15.874L52.106,25.253Z" transform="translate(-38.358 -25.253)" fill="#b0c0d2" opacity="0.5"/><path d="M65.853,64.67l-27.5,15.874L52.106,55.29Z" transform="translate(-38.358 -43.745)" fill="#727997" opacity="0.3"/><path d="M65.853,94.707l-27.5,15.874L52.106,85.326Z" transform="translate(-38.358 -62.236)" fill="#12263f" opacity="0.1"/></g><g transform="translate(15.534 89.513)"><path d="M51.633,319.94l4.328,2.5,7.123-4.113V269.645l4.749-2.742-8.147-6.264-4.328-2.5L46.884,274l4.328,2.5.421-.243Z" transform="translate(-46.884 -258.141)" fill="#727997"/><path d="M62.893,326.44l7.124-4.113V273.647l4.749-2.742-8.147-6.263L58.144,280.5l4.749-2.742Z" transform="translate(-53.816 -262.143)" fill="#afafaf"/><path d="M59.239,344.953l4.328,2.5V298.771l-4.328,2.5Z" transform="translate(-54.49 -283.154)" opacity="0.3"/></g></g><g transform="translate(41.371 -22.136)"><path d="M162.422,137.456V17.364c0-2.368-.1-4.285-2.612-5.8s-4.275-.548-6.325.635l-52.5,30.309a8.206,8.206,0,0,0-3.713,6.431V169.037c0,2.368,1.17,4.963,2.612,5.8s4.275.548,6.325-.635l52.5-30.31A6.985,6.985,0,0,0,162.422,137.456Z" transform="translate(-97.273 -10.794)" fill="#37474f"/><path d="M159.082,193.906,105.1,225.073l.017-120.642-6.755-3.9a7.59,7.59,0,0,0-1.087,3.658V224.283c0,2.368.278,4.411,2.612,5.8s4.275.548,6.325-.635l52.5-30.31a7.083,7.083,0,0,0,3.214-3.587l-.209-.12Z" transform="translate(-97.273 -66.04)" fill="#263238"/><path d="M168.353,24.387,115.7,54.786A5.77,5.77,0,0,0,113.1,59.3V178.355c0,2.542,1.806,3.581,4.008,2.308l51.249-29.586a6.55,6.55,0,0,0,2.953-5.114V26.092C171.305,24.215,169.976,23.449,168.353,24.387Z" transform="translate(-107.014 -18.916)" fill="#455a64"/><g transform="translate(8.651 10.672)"><path d="M172.851,41.091V151.925a6.211,6.211,0,0,1-2.8,4.861l-47.464,27.4c-1.548.9-2.8.176-2.8-1.616V70.874a6.269,6.269,0,0,1,1.968-4.227c.09-.081.176-.163.266-.24a4.829,4.829,0,0,1,.57-.39l13.35-7.708s.39-.227.871-.5.87-.056.87.5.416.768.93.467l15.558-8.982a2,2,0,0,0,.931-1.539,1.971,1.971,0,0,1,.78-1.458c.03-.021.06-.038.09-.056L169.023,39.2l.279-.163C171.256,37.914,172.851,38.836,172.851,41.091Z" transform="translate(-119.78 -38.56)" fill="#263238"/><path d="M169.023,40.237V150.325a6.222,6.222,0,0,1-2.8,4.862L119.78,182V71.906a6.268,6.268,0,0,1,1.968-4.227c.09-.081.176-.163.266-.24a4.827,4.827,0,0,1,.57-.39l13.35-7.708s.39-.227.871-.5.87-.056.87.5.416.768.93.467l15.558-8.982a2,2,0,0,0,.931-1.539,1.971,1.971,0,0,1,.78-1.458c.03-.021.06-.038.09-.056Z" transform="translate(-119.78 -39.593)"/><g transform="translate(20.417 8.784)"><path d="M173.669,72.037,180.8,67.92c.425-.246.77-.071.77.39a1.652,1.652,0,0,1-.77,1.279l-7.132,4.118c-.426.246-.77.071-.77-.39A1.652,1.652,0,0,1,173.669,72.037Z" transform="translate(-172.899 -65.35)" fill="#263238"/><g transform="translate(10.694)"><path d="M201.59,61.531c.479-.277.868-.053.868.5a1.918,1.918,0,0,1-.868,1.5c-.479.277-.868.053-.868-.5A1.917,1.917,0,0,1,201.59,61.531Z" transform="translate(-200.722 -61.412)" fill="#263238"/></g></g></g><g transform="translate(1.105 50.746)"><path d="M103.913,145.477A3.137,3.137,0,0,0,102.541,143a.91.91,0,0,0-.941-.077c-.172.1-.849.481-1.029.589a1.074,1.074,0,0,0-.424.974V154.84a3.136,3.136,0,0,0,1.372,2.481.928.928,0,0,0,.907.1c.189-.1.881-.5,1.061-.607a1.073,1.073,0,0,0,.425-.975Z" transform="translate(-100.148 -142.82)" fill="#455a64"/><path d="M102.892,147.006v10.359c0,.933-.615,1.335-1.372.9a3.137,3.137,0,0,1-1.373-2.481V145.421c0-.933.615-1.334,1.372-.9A3.137,3.137,0,0,1,102.892,147.006Z" transform="translate(-100.148 -143.761)" fill="#37474f"/><g transform="translate(0 18.131)"><path d="M103.913,192.648a3.137,3.137,0,0,0-1.372-2.481.91.91,0,0,0-.941-.077c-.172.1-.849.481-1.029.589a1.074,1.074,0,0,0-.424.974v10.359a3.136,3.136,0,0,0,1.372,2.481.927.927,0,0,0,.907.1c.189-.1.881-.5,1.061-.607a1.073,1.073,0,0,0,.425-.976Z" transform="translate(-100.148 -189.991)" fill="#455a64"/><path d="M102.892,194.177v10.359c0,.933-.615,1.335-1.372.9a3.136,3.136,0,0,1-1.373-2.481V192.592c0-.933.615-1.334,1.372-.9A3.137,3.137,0,0,1,102.892,194.177Z" transform="translate(-100.148 -190.932)" fill="#37474f"/></g></g></g><g transform="translate(51.284 34.33)"><g transform="translate(0 39.356)"><g transform="translate(0 0.001)"><path d="M150.064,275.568a2.408,2.408,0,0,1,.646-1.308l2.641-2.429a1.6,1.6,0,0,0,.443-1.3l-.5-2.88a.537.537,0,0,0-.253-.4l0,0-3.129-1.805v.005a.5.5,0,0,0-.546.05l-1.135.747,1.1-2.966a.652.652,0,0,0-.3-.82l.013-.008-3.131-1.806,0,0a.727.727,0,0,0-.207-.084l-1.989-.445a1.077,1.077,0,0,0-1.127.522l-1.87,3.564a1.855,1.855,0,0,1-.744.689l-.086-.286a.579.579,0,0,0-.252-.346v0l-3.14-1.812v0a.512.512,0,0,0-.588.081l-2.981,2.343a1.667,1.667,0,0,0-.566,1.265l.178,2.836a2.245,2.245,0,0,1-.464,1.372c-.489.584-.951,1.2-1.384,1.832a1.539,1.539,0,0,1-1.213.615l-1.916-.095a1.23,1.23,0,0,0-1.1.676l-1.8,4.039a.765.765,0,0,0,.308.97v0l2.124,1.226a.937.937,0,0,1,.05.549,17.84,17.84,0,0,0-.332,1.927,2.412,2.412,0,0,1-.646,1.309l-2.641,2.428a1.6,1.6,0,0,0-.443,1.3l.5,2.88a.544.544,0,0,0,.238.39l0,0,3.15,1.818v0a.5.5,0,0,0,.54-.054l1.135-.747-1.1,2.965a.659.659,0,0,0,.264.809l0,0,3.145,1.815,0-.01a.722.722,0,0,0,.22.1l1.989.445a1.078,1.078,0,0,0,1.127-.522l1.87-3.564a1.85,1.85,0,0,1,.745-.688l.086.285a.577.577,0,0,0,.256.348l0,0,3.114,1.8,0,0,.036.021v0a.515.515,0,0,0,.571-.089l2.981-2.344a1.668,1.668,0,0,0,.566-1.265l-.178-2.836a2.246,2.246,0,0,1,.464-1.373c.489-.584.951-1.2,1.384-1.832a1.537,1.537,0,0,1,1.213-.615l1.916.095a1.23,1.23,0,0,0,1.1-.676l1.8-4.039a.767.767,0,0,0-.4-1.022l-1.548-.66a.958.958,0,0,1-.531-1.067A17.933,17.933,0,0,0,150.064,275.568Zm-15.908,8.766c-.585-3.393,1.561-8.2,4.792-10.743a6.528,6.528,0,0,1,3.4-1.515,5.1,5.1,0,0,1,.372,1.249c.584,3.393-1.561,8.2-4.791,10.743a6.537,6.537,0,0,1-3.385,1.513A4.872,4.872,0,0,1,134.156,284.334Z" transform="translate(-123.064 -260.098)" fill="#b0c0d2"/></g><path d="M138.289,339.043a.76.76,0,0,0-1.059-.24l-1.507.991-1.1,2.966a.662.662,0,0,0,.264.806L138,345.357a.657.657,0,0,1-.234-.788l1.348-3.643a1.32,1.32,0,0,0-.308-1.256A5.169,5.169,0,0,1,138.289,339.043Zm9.176,4.542a.561.561,0,0,1-.253-.344l-.671-2.234a.681.681,0,0,0-.942-.431,8.379,8.379,0,0,1-1.225.406,1.575,1.575,0,0,0-.388.16l.086.289a.593.593,0,0,0,.258.345v.006Z" transform="translate(-130.155 -308.474)" opacity="0.1"/><path d="M159.443,305.047c-2.788,2.191-5.471,1.981-6.523-.3a6.492,6.492,0,0,0,3.385-1.507c3.231-2.542,5.379-7.348,4.794-10.745a4.943,4.943,0,0,0-.376-1.243c1.772-.154,3.145.911,3.514,3.053C164.822,297.7,162.674,302.505,159.443,305.047Z" transform="translate(-141.445 -279.266)" opacity="0.1"/><g transform="translate(0.054)"><path d="M130.115,272.676a1.293,1.293,0,0,1-.548.117l-1.92-.092a1.2,1.2,0,0,0-.794.289l3.139,1.809a1.228,1.228,0,0,1,.794-.289l1.92.092a1.274,1.274,0,0,0,.548-.1Zm6.468-10.228a.506.506,0,0,0-.585.08l-2.985,2.345a1.646,1.646,0,0,0-.492.781l3.139,1.809a1.6,1.6,0,0,1,.492-.781l2.978-2.338a.505.505,0,0,1,.591-.08v-.007Zm-10.364,20.979-2.609,2.4a1.535,1.535,0,0,0-.406.751l3.132,1.8a1.53,1.53,0,0,1,.412-.745l2.609-2.394ZM146,260.645a.575.575,0,0,0-.209-.08l-1.988-.449a1.086,1.086,0,0,0-1.126.523L140.8,264.2a1.617,1.617,0,0,1-.425.48l3.139,1.809a1.626,1.626,0,0,0,.425-.48l1.871-3.563a1.077,1.077,0,0,1,1.126-.523l1.988.449a.985.985,0,0,1,.2.074ZM150,265.439v.006a.517.517,0,0,0-.548.049l-1.132.751-.252.671a1.316,1.316,0,0,0,.314,1.262,5.168,5.168,0,0,1,.511.628,1.559,1.559,0,0,0,.135.154,1.42,1.42,0,0,0,.117.086.743.743,0,0,0,.265.1.68.68,0,0,0,.351-.018.525.525,0,0,0,.191-.086l2.64-1.735a.8.8,0,0,1,.2-.092.4.4,0,0,1,.222-.012.409.409,0,0,1,.123.037Z" transform="translate(-123.204 -260.096)" fill="#d2e1f1"/><path d="M130.115,272.676a1.293,1.293,0,0,1-.548.117l-1.92-.092a1.2,1.2,0,0,0-.794.289l3.139,1.809a1.228,1.228,0,0,1,.794-.289l1.92.092a1.274,1.274,0,0,0,.548-.1Zm6.468-10.228a.506.506,0,0,0-.585.08l-2.985,2.345a1.646,1.646,0,0,0-.492.781l3.139,1.809a1.6,1.6,0,0,1,.492-.781l2.978-2.338a.505.505,0,0,1,.591-.08v-.007Zm-10.364,20.979-2.609,2.4a1.535,1.535,0,0,0-.406.751l3.132,1.8a1.53,1.53,0,0,1,.412-.745l2.609-2.394ZM146,260.645a.575.575,0,0,0-.209-.08l-1.988-.449a1.086,1.086,0,0,0-1.126.523L140.8,264.2a1.617,1.617,0,0,1-.425.48l3.139,1.809a1.626,1.626,0,0,0,.425-.48l1.871-3.563a1.077,1.077,0,0,1,1.126-.523l1.988.449a.985.985,0,0,1,.2.074ZM150,265.439v.006a.517.517,0,0,0-.548.049l-1.132.751-.252.671a1.316,1.316,0,0,0,.314,1.262,5.168,5.168,0,0,1,.511.628,1.559,1.559,0,0,0,.135.154,1.42,1.42,0,0,0,.117.086.743.743,0,0,0,.265.1.68.68,0,0,0,.351-.018.525.525,0,0,0,.191-.086l2.64-1.735a.8.8,0,0,1,.2-.092.4.4,0,0,1,.222-.012.409.409,0,0,1,.123.037Z" transform="translate(-123.204 -260.096)" fill="#d2e1f1" opacity="0.7"/></g><g transform="translate(3.138 1.812)"><path d="M158.82,273.43l-.5-2.88a.474.474,0,0,0-.786-.341l-2.639,1.737a.766.766,0,0,1-1.059-.239,5.469,5.469,0,0,0-.514-.63,1.307,1.307,0,0,1-.309-1.257l1.346-3.641a.666.666,0,0,0-.492-.9l-1.989-.445a1.077,1.077,0,0,0-1.127.522l-1.87,3.564a1.96,1.96,0,0,1-1.13.85,9.5,9.5,0,0,0-1.225.4.678.678,0,0,1-.941-.43l-.673-2.232a.5.5,0,0,0-.841-.266l-2.981,2.343a1.67,1.67,0,0,0-.566,1.265l.178,2.836a2.243,2.243,0,0,1-.464,1.372c-.488.584-.951,1.2-1.384,1.832a1.538,1.538,0,0,1-1.213.615l-1.916-.095a1.23,1.23,0,0,0-1.1.676l-1.8,4.039a.767.767,0,0,0,.4,1.022l1.548.66a.958.958,0,0,1,.531,1.067,18.038,18.038,0,0,0-.332,1.927,2.41,2.41,0,0,1-.646,1.309l-2.641,2.428a1.6,1.6,0,0,0-.443,1.3l.5,2.88a.475.475,0,0,0,.787.341l2.639-1.737a.766.766,0,0,1,1.059.239,5.37,5.37,0,0,0,.514.63,1.309,1.309,0,0,1,.309,1.257l-1.346,3.64a.665.665,0,0,0,.492.9l1.989.445a1.078,1.078,0,0,0,1.128-.522l1.87-3.564a1.962,1.962,0,0,1,1.13-.849,9.515,9.515,0,0,0,1.225-.405.678.678,0,0,1,.941.43l.673,2.232a.5.5,0,0,0,.841.266l2.981-2.343a1.668,1.668,0,0,0,.566-1.265l-.178-2.836a2.247,2.247,0,0,1,.464-1.373c.489-.584.951-1.2,1.384-1.832a1.537,1.537,0,0,1,1.213-.615l1.916.095a1.23,1.23,0,0,0,1.1-.676l1.8-4.039a.767.767,0,0,0-.4-1.022l-1.548-.66a.958.958,0,0,1-.531-1.067,17.846,17.846,0,0,0,.331-1.927,2.409,2.409,0,0,1,.646-1.308l2.641-2.429A1.6,1.6,0,0,0,158.82,273.43Zm-12.73,15.349c-3.231,2.54-6.324,1.848-6.908-1.545s1.561-8.2,4.792-10.743,6.323-1.848,6.907,1.544S149.321,286.239,146.09,288.779Z" transform="translate(-131.228 -264.809)" fill="#727997"/><path d="M158.82,273.43l-.5-2.88a.474.474,0,0,0-.786-.341l-2.639,1.737a.766.766,0,0,1-1.059-.239,5.469,5.469,0,0,0-.514-.63,1.307,1.307,0,0,1-.309-1.257l1.346-3.641a.666.666,0,0,0-.492-.9l-1.989-.445a1.077,1.077,0,0,0-1.127.522l-1.87,3.564a1.96,1.96,0,0,1-1.13.85,9.5,9.5,0,0,0-1.225.4.678.678,0,0,1-.941-.43l-.673-2.232a.5.5,0,0,0-.841-.266l-2.981,2.343a1.67,1.67,0,0,0-.566,1.265l.178,2.836a2.243,2.243,0,0,1-.464,1.372c-.488.584-.951,1.2-1.384,1.832a1.538,1.538,0,0,1-1.213.615l-1.916-.095a1.23,1.23,0,0,0-1.1.676l-1.8,4.039a.767.767,0,0,0,.4,1.022l1.548.66a.958.958,0,0,1,.531,1.067,18.038,18.038,0,0,0-.332,1.927,2.41,2.41,0,0,1-.646,1.309l-2.641,2.428a1.6,1.6,0,0,0-.443,1.3l.5,2.88a.475.475,0,0,0,.787.341l2.639-1.737a.766.766,0,0,1,1.059.239,5.37,5.37,0,0,0,.514.63,1.309,1.309,0,0,1,.309,1.257l-1.346,3.64a.665.665,0,0,0,.492.9l1.989.445a1.078,1.078,0,0,0,1.128-.522l1.87-3.564a1.962,1.962,0,0,1,1.13-.849,9.515,9.515,0,0,0,1.225-.405.678.678,0,0,1,.941.43l.673,2.232a.5.5,0,0,0,.841.266l2.981-2.343a1.668,1.668,0,0,0,.566-1.265l-.178-2.836a2.247,2.247,0,0,1,.464-1.373c.489-.584.951-1.2,1.384-1.832a1.537,1.537,0,0,1,1.213-.615l1.916.095a1.23,1.23,0,0,0,1.1-.676l1.8-4.039a.767.767,0,0,0-.4-1.022l-1.548-.66a.958.958,0,0,1-.531-1.067,17.846,17.846,0,0,0,.331-1.927,2.409,2.409,0,0,1,.646-1.308l2.641-2.429A1.6,1.6,0,0,0,158.82,273.43Zm-12.73,15.349c-3.231,2.54-6.324,1.848-6.908-1.545s1.561-8.2,4.792-10.743,6.323-1.848,6.907,1.544S149.321,286.239,146.09,288.779Z" transform="translate(-131.228 -264.809)" fill="#727997" opacity="0.55"/><g transform="translate(0 0)" opacity="0.55"><path d="M151.686,265.193a.5.5,0,0,1,.11.012l1.989.445a.282.282,0,0,1,.216.4l-1.346,3.641a1.688,1.688,0,0,0,.391,1.655,5.066,5.066,0,0,1,.478.585,1.2,1.2,0,0,0,.972.525,1.114,1.114,0,0,0,.613-.186l2.639-1.737a.24.24,0,0,1,.123-.049c.04,0,.065.088.073.134l.5,2.881a1.23,1.23,0,0,1-.324.953l-2.641,2.428a2.783,2.783,0,0,0-.767,1.548,17.513,17.513,0,0,1-.325,1.885,1.347,1.347,0,0,0,.755,1.506l1.549.661a.382.382,0,0,1,.2.511l-1.8,4.039a.862.862,0,0,1-.706.449h-.024l-1.916-.095-.066,0a1.923,1.923,0,0,0-1.484.784c-.43.629-.888,1.235-1.361,1.8a2.615,2.615,0,0,0-.553,1.643l.178,2.836a1.3,1.3,0,0,1-.42.939l-2.981,2.343a.245.245,0,0,1-.131.06c-.06,0-.1-.112-.1-.135l-.673-2.232a1.044,1.044,0,0,0-1.013-.763,1.169,1.169,0,0,0-.44.087,9.147,9.147,0,0,1-1.175.389,2.353,2.353,0,0,0-1.376,1.044l-1.871,3.564a.705.705,0,0,1-.593.337.5.5,0,0,1-.11-.012l-1.989-.445a.282.282,0,0,1-.216-.4l1.346-3.64a1.688,1.688,0,0,0-.392-1.655,5.057,5.057,0,0,1-.478-.586,1.2,1.2,0,0,0-.972-.525,1.115,1.115,0,0,0-.613.186l-2.639,1.737a.24.24,0,0,1-.123.049c-.05,0-.072-.128-.073-.134l-.5-2.881a1.23,1.23,0,0,1,.325-.952l2.641-2.428a2.784,2.784,0,0,0,.768-1.548,17.632,17.632,0,0,1,.324-1.885,1.347,1.347,0,0,0-.755-1.506l-1.548-.66a.382.382,0,0,1-.2-.512l1.8-4.039a.861.861,0,0,1,.706-.449h.024l1.916.095.066,0a1.923,1.923,0,0,0,1.483-.784c.429-.628.887-1.234,1.361-1.8a2.614,2.614,0,0,0,.553-1.643l-.178-2.836a1.3,1.3,0,0,1,.42-.939l2.981-2.343a.246.246,0,0,1,.131-.06c.06,0,.1.112.1.135l.673,2.232a1.043,1.043,0,0,0,1.013.763,1.171,1.171,0,0,0,.44-.088,9.162,9.162,0,0,1,1.176-.389,2.351,2.351,0,0,0,1.375-1.044l1.87-3.564a.706.706,0,0,1,.593-.337h0m-9.309,25.5a6.594,6.594,0,0,0,3.95-1.614c3.325-2.614,5.538-7.6,4.933-11.11-.366-2.126-1.7-3.4-3.574-3.4a6.592,6.592,0,0,0-3.95,1.614c-3.325,2.614-5.538,7.6-4.933,11.11.366,2.126,1.7,3.4,3.574,3.4m9.309-25.886a1.087,1.087,0,0,0-.934.543l-1.87,3.564a1.958,1.958,0,0,1-1.13.85,9.511,9.511,0,0,0-1.225.4.787.787,0,0,1-.3.06.661.661,0,0,1-.645-.489l-.673-2.232a.506.506,0,0,0-.472-.408.6.6,0,0,0-.369.143l-2.981,2.344a1.669,1.669,0,0,0-.567,1.265l.178,2.836a2.243,2.243,0,0,1-.464,1.372c-.488.584-.951,1.2-1.384,1.832a1.552,1.552,0,0,1-1.166.616h-.047l-1.916-.095h-.043a1.236,1.236,0,0,0-1.057.677l-1.8,4.039a.767.767,0,0,0,.4,1.022l1.548.66a.958.958,0,0,1,.531,1.067,18.037,18.037,0,0,0-.332,1.927,2.407,2.407,0,0,1-.646,1.309l-2.641,2.428a1.6,1.6,0,0,0-.443,1.3l.5,2.88a.476.476,0,0,0,.452.453.618.618,0,0,0,.335-.112l2.639-1.737a.725.725,0,0,1,.4-.123.812.812,0,0,1,.658.361,5.37,5.37,0,0,0,.514.63,1.309,1.309,0,0,1,.309,1.257l-1.346,3.64a.666.666,0,0,0,.492.9l1.989.445a.888.888,0,0,0,.194.021,1.089,1.089,0,0,0,.934-.543l1.87-3.564a1.962,1.962,0,0,1,1.13-.849,9.524,9.524,0,0,0,1.225-.405.792.792,0,0,1,.3-.059.661.661,0,0,1,.645.489l.673,2.232a.506.506,0,0,0,.472.408.6.6,0,0,0,.369-.143l2.981-2.343a1.668,1.668,0,0,0,.566-1.265l-.178-2.836a2.247,2.247,0,0,1,.464-1.373c.489-.584.951-1.2,1.384-1.832a1.551,1.551,0,0,1,1.166-.616h.047l1.916.095h.043a1.236,1.236,0,0,0,1.057-.677l1.8-4.039a.767.767,0,0,0-.4-1.022l-1.548-.66a.958.958,0,0,1-.531-1.067,17.849,17.849,0,0,0,.331-1.927,2.406,2.406,0,0,1,.646-1.308l2.641-2.429a1.6,1.6,0,0,0,.443-1.3l-.5-2.88a.476.476,0,0,0-.452-.453.613.613,0,0,0-.335.112l-2.639,1.737a.725.725,0,0,1-.4.123.813.813,0,0,1-.658-.361,5.442,5.442,0,0,0-.514-.63,1.307,1.307,0,0,1-.309-1.257l1.346-3.641a.666.666,0,0,0-.492-.9l-1.989-.445a.883.883,0,0,0-.194-.021Zm-9.309,25.5c-1.619,0-2.849-1.062-3.2-3.076-.584-3.393,1.561-8.2,4.792-10.743a6.228,6.228,0,0,1,3.713-1.531c1.618,0,2.848,1.062,3.195,3.076.584,3.394-1.561,8.2-4.791,10.743a6.23,6.23,0,0,1-3.713,1.531Z" transform="translate(-131.228 -264.809)" fill="#727997"/></g></g></g><g transform="translate(5.295 0)"><g transform="translate(0 0.001)"><path d="M150.064,275.568a2.408,2.408,0,0,1,.646-1.308l2.641-2.429a1.6,1.6,0,0,0,.443-1.3l-.5-2.88a.537.537,0,0,0-.253-.4l0,0-3.129-1.805v.005a.5.5,0,0,0-.546.05l-1.135.747,1.1-2.966a.652.652,0,0,0-.3-.82l.013-.008-3.131-1.806,0,0a.727.727,0,0,0-.207-.084l-1.989-.445a1.077,1.077,0,0,0-1.127.522l-1.87,3.564a1.855,1.855,0,0,1-.744.689l-.086-.286a.579.579,0,0,0-.252-.346v0l-3.14-1.812v0a.512.512,0,0,0-.588.081l-2.981,2.343a1.667,1.667,0,0,0-.566,1.265l.178,2.836a2.245,2.245,0,0,1-.464,1.372c-.489.584-.951,1.2-1.384,1.832a1.539,1.539,0,0,1-1.213.615l-1.916-.095a1.23,1.23,0,0,0-1.1.676l-1.8,4.039a.765.765,0,0,0,.308.97v0l2.124,1.226a.937.937,0,0,1,.05.549,17.84,17.84,0,0,0-.332,1.927,2.412,2.412,0,0,1-.646,1.309l-2.641,2.428a1.6,1.6,0,0,0-.443,1.3l.5,2.88a.544.544,0,0,0,.238.39l0,0,3.15,1.818v0a.5.5,0,0,0,.54-.054l1.135-.747-1.1,2.965a.659.659,0,0,0,.264.809l0,0,3.145,1.815,0-.01a.722.722,0,0,0,.22.1l1.989.445a1.078,1.078,0,0,0,1.127-.522l1.87-3.564a1.85,1.85,0,0,1,.745-.688l.086.285a.577.577,0,0,0,.256.348l0,0,3.114,1.8,0,0,.036.021v0a.515.515,0,0,0,.571-.089l2.981-2.344a1.668,1.668,0,0,0,.566-1.265l-.178-2.836a2.246,2.246,0,0,1,.464-1.373c.489-.584.951-1.2,1.384-1.832a1.537,1.537,0,0,1,1.213-.615l1.916.095a1.23,1.23,0,0,0,1.1-.676l1.8-4.039a.767.767,0,0,0-.4-1.022l-1.548-.66a.958.958,0,0,1-.531-1.067A17.933,17.933,0,0,0,150.064,275.568Zm-15.908,8.766c-.585-3.393,1.561-8.2,4.792-10.743a6.528,6.528,0,0,1,3.4-1.515,5.1,5.1,0,0,1,.372,1.249c.584,3.393-1.561,8.2-4.791,10.743a6.537,6.537,0,0,1-3.385,1.513A4.872,4.872,0,0,1,134.156,284.334Z" transform="translate(-123.064 -260.098)" fill="#b0c0d2"/></g><path d="M138.289,339.043a.76.76,0,0,0-1.059-.24l-1.507.991-1.1,2.966a.662.662,0,0,0,.264.806L138,345.357a.657.657,0,0,1-.234-.788l1.348-3.643a1.32,1.32,0,0,0-.308-1.256A5.169,5.169,0,0,1,138.289,339.043Zm9.176,4.542a.561.561,0,0,1-.253-.344l-.671-2.234a.681.681,0,0,0-.942-.431,8.379,8.379,0,0,1-1.225.406,1.575,1.575,0,0,0-.388.16l.086.289a.593.593,0,0,0,.258.345v.006Z" transform="translate(-130.155 -308.474)" opacity="0.1"/><path d="M159.443,305.047c-2.788,2.191-5.471,1.981-6.523-.3a6.492,6.492,0,0,0,3.385-1.507c3.231-2.542,5.379-7.348,4.794-10.745a4.943,4.943,0,0,0-.376-1.243c1.772-.154,3.145.911,3.514,3.053C164.822,297.7,162.674,302.505,159.443,305.047Z" transform="translate(-141.445 -279.266)" opacity="0.1"/><g transform="translate(0.054)"><path d="M130.115,272.676a1.293,1.293,0,0,1-.548.117l-1.92-.092a1.2,1.2,0,0,0-.794.289l3.139,1.809a1.228,1.228,0,0,1,.794-.289l1.92.092a1.274,1.274,0,0,0,.548-.1Zm6.468-10.228a.506.506,0,0,0-.585.08l-2.985,2.345a1.646,1.646,0,0,0-.492.781l3.139,1.809a1.6,1.6,0,0,1,.492-.781l2.978-2.338a.505.505,0,0,1,.591-.08v-.007Zm-10.364,20.979-2.609,2.4a1.535,1.535,0,0,0-.406.751l3.132,1.8a1.53,1.53,0,0,1,.412-.745l2.609-2.394ZM146,260.645a.575.575,0,0,0-.209-.08l-1.988-.449a1.086,1.086,0,0,0-1.126.523L140.8,264.2a1.617,1.617,0,0,1-.425.48l3.139,1.809a1.626,1.626,0,0,0,.425-.48l1.871-3.563a1.077,1.077,0,0,1,1.126-.523l1.988.449a.985.985,0,0,1,.2.074ZM150,265.439v.006a.517.517,0,0,0-.548.049l-1.132.751-.252.671a1.316,1.316,0,0,0,.314,1.262,5.168,5.168,0,0,1,.511.628,1.559,1.559,0,0,0,.135.154,1.42,1.42,0,0,0,.117.086.743.743,0,0,0,.265.1.68.68,0,0,0,.351-.018.525.525,0,0,0,.191-.086l2.64-1.735a.8.8,0,0,1,.2-.092.4.4,0,0,1,.222-.012.409.409,0,0,1,.123.037Z" transform="translate(-123.204 -260.096)" fill="#d2e1f1"/><path d="M130.115,272.676a1.293,1.293,0,0,1-.548.117l-1.92-.092a1.2,1.2,0,0,0-.794.289l3.139,1.809a1.228,1.228,0,0,1,.794-.289l1.92.092a1.274,1.274,0,0,0,.548-.1Zm6.468-10.228a.506.506,0,0,0-.585.08l-2.985,2.345a1.646,1.646,0,0,0-.492.781l3.139,1.809a1.6,1.6,0,0,1,.492-.781l2.978-2.338a.505.505,0,0,1,.591-.08v-.007Zm-10.364,20.979-2.609,2.4a1.535,1.535,0,0,0-.406.751l3.132,1.8a1.53,1.53,0,0,1,.412-.745l2.609-2.394ZM146,260.645a.575.575,0,0,0-.209-.08l-1.988-.449a1.086,1.086,0,0,0-1.126.523L140.8,264.2a1.617,1.617,0,0,1-.425.48l3.139,1.809a1.626,1.626,0,0,0,.425-.48l1.871-3.563a1.077,1.077,0,0,1,1.126-.523l1.988.449a.985.985,0,0,1,.2.074ZM150,265.439v.006a.517.517,0,0,0-.548.049l-1.132.751-.252.671a1.316,1.316,0,0,0,.314,1.262,5.168,5.168,0,0,1,.511.628,1.559,1.559,0,0,0,.135.154,1.42,1.42,0,0,0,.117.086.743.743,0,0,0,.265.1.68.68,0,0,0,.351-.018.525.525,0,0,0,.191-.086l2.64-1.735a.8.8,0,0,1,.2-.092.4.4,0,0,1,.222-.012.409.409,0,0,1,.123.037Z" transform="translate(-123.204 -260.096)" fill="#d2e1f1" opacity="0.7"/></g><g transform="translate(3.138 1.812)"><path d="M158.82,273.43l-.5-2.88a.474.474,0,0,0-.786-.341l-2.639,1.737a.766.766,0,0,1-1.059-.239,5.469,5.469,0,0,0-.514-.63,1.307,1.307,0,0,1-.309-1.257l1.346-3.641a.666.666,0,0,0-.492-.9l-1.989-.445a1.077,1.077,0,0,0-1.127.522l-1.87,3.564a1.96,1.96,0,0,1-1.13.85,9.5,9.5,0,0,0-1.225.4.678.678,0,0,1-.941-.43l-.673-2.232a.5.5,0,0,0-.841-.266l-2.981,2.343a1.67,1.67,0,0,0-.566,1.265l.178,2.836a2.243,2.243,0,0,1-.464,1.372c-.488.584-.951,1.2-1.384,1.832a1.538,1.538,0,0,1-1.213.615l-1.916-.095a1.23,1.23,0,0,0-1.1.676l-1.8,4.039a.767.767,0,0,0,.4,1.022l1.548.66a.958.958,0,0,1,.531,1.067,18.038,18.038,0,0,0-.332,1.927,2.41,2.41,0,0,1-.646,1.309l-2.641,2.428a1.6,1.6,0,0,0-.443,1.3l.5,2.88a.475.475,0,0,0,.787.341l2.639-1.737a.766.766,0,0,1,1.059.239,5.37,5.37,0,0,0,.514.63,1.309,1.309,0,0,1,.309,1.257l-1.346,3.64a.665.665,0,0,0,.492.9l1.989.445a1.078,1.078,0,0,0,1.128-.522l1.87-3.564a1.962,1.962,0,0,1,1.13-.849,9.515,9.515,0,0,0,1.225-.405.678.678,0,0,1,.941.43l.673,2.232a.5.5,0,0,0,.841.266l2.981-2.343a1.668,1.668,0,0,0,.566-1.265l-.178-2.836a2.247,2.247,0,0,1,.464-1.373c.489-.584.951-1.2,1.384-1.832a1.537,1.537,0,0,1,1.213-.615l1.916.095a1.23,1.23,0,0,0,1.1-.676l1.8-4.039a.767.767,0,0,0-.4-1.022l-1.548-.66a.958.958,0,0,1-.531-1.067,17.846,17.846,0,0,0,.331-1.927,2.409,2.409,0,0,1,.646-1.308l2.641-2.429A1.6,1.6,0,0,0,158.82,273.43Zm-12.73,15.349c-3.231,2.54-6.324,1.848-6.908-1.545s1.561-8.2,4.792-10.743,6.323-1.848,6.907,1.544S149.321,286.239,146.09,288.779Z" transform="translate(-131.228 -264.809)" fill="#727997"/><path d="M158.82,273.43l-.5-2.88a.474.474,0,0,0-.786-.341l-2.639,1.737a.766.766,0,0,1-1.059-.239,5.469,5.469,0,0,0-.514-.63,1.307,1.307,0,0,1-.309-1.257l1.346-3.641a.666.666,0,0,0-.492-.9l-1.989-.445a1.077,1.077,0,0,0-1.127.522l-1.87,3.564a1.96,1.96,0,0,1-1.13.85,9.5,9.5,0,0,0-1.225.4.678.678,0,0,1-.941-.43l-.673-2.232a.5.5,0,0,0-.841-.266l-2.981,2.343a1.67,1.67,0,0,0-.566,1.265l.178,2.836a2.243,2.243,0,0,1-.464,1.372c-.488.584-.951,1.2-1.384,1.832a1.538,1.538,0,0,1-1.213.615l-1.916-.095a1.23,1.23,0,0,0-1.1.676l-1.8,4.039a.767.767,0,0,0,.4,1.022l1.548.66a.958.958,0,0,1,.531,1.067,18.038,18.038,0,0,0-.332,1.927,2.41,2.41,0,0,1-.646,1.309l-2.641,2.428a1.6,1.6,0,0,0-.443,1.3l.5,2.88a.475.475,0,0,0,.787.341l2.639-1.737a.766.766,0,0,1,1.059.239,5.37,5.37,0,0,0,.514.63,1.309,1.309,0,0,1,.309,1.257l-1.346,3.64a.665.665,0,0,0,.492.9l1.989.445a1.078,1.078,0,0,0,1.128-.522l1.87-3.564a1.962,1.962,0,0,1,1.13-.849,9.515,9.515,0,0,0,1.225-.405.678.678,0,0,1,.941.43l.673,2.232a.5.5,0,0,0,.841.266l2.981-2.343a1.668,1.668,0,0,0,.566-1.265l-.178-2.836a2.247,2.247,0,0,1,.464-1.373c.489-.584.951-1.2,1.384-1.832a1.537,1.537,0,0,1,1.213-.615l1.916.095a1.23,1.23,0,0,0,1.1-.676l1.8-4.039a.767.767,0,0,0-.4-1.022l-1.548-.66a.958.958,0,0,1-.531-1.067,17.846,17.846,0,0,0,.331-1.927,2.409,2.409,0,0,1,.646-1.308l2.641-2.429A1.6,1.6,0,0,0,158.82,273.43Zm-12.73,15.349c-3.231,2.54-6.324,1.848-6.908-1.545s1.561-8.2,4.792-10.743,6.323-1.848,6.907,1.544S149.321,286.239,146.09,288.779Z" transform="translate(-131.228 -264.809)" fill="#727997" opacity="0.55"/><g transform="translate(0 0)" opacity="0.55"><path d="M151.686,265.193a.5.5,0,0,1,.11.012l1.989.445a.282.282,0,0,1,.216.4l-1.346,3.641a1.688,1.688,0,0,0,.391,1.655,5.066,5.066,0,0,1,.478.585,1.2,1.2,0,0,0,.972.525,1.114,1.114,0,0,0,.613-.186l2.639-1.737a.24.24,0,0,1,.123-.049c.04,0,.065.088.073.134l.5,2.881a1.23,1.23,0,0,1-.324.953l-2.641,2.428a2.783,2.783,0,0,0-.767,1.548,17.513,17.513,0,0,1-.325,1.885,1.347,1.347,0,0,0,.755,1.506l1.549.661a.382.382,0,0,1,.2.511l-1.8,4.039a.862.862,0,0,1-.706.449h-.024l-1.916-.095-.066,0a1.923,1.923,0,0,0-1.484.784c-.43.629-.888,1.235-1.361,1.8a2.615,2.615,0,0,0-.553,1.643l.178,2.836a1.3,1.3,0,0,1-.42.939l-2.981,2.343a.245.245,0,0,1-.131.06c-.06,0-.1-.112-.1-.135l-.673-2.232a1.044,1.044,0,0,0-1.013-.763,1.169,1.169,0,0,0-.44.087,9.147,9.147,0,0,1-1.175.389,2.353,2.353,0,0,0-1.376,1.044l-1.871,3.564a.705.705,0,0,1-.593.337.5.5,0,0,1-.11-.012l-1.989-.445a.282.282,0,0,1-.216-.4l1.346-3.64a1.688,1.688,0,0,0-.392-1.655,5.057,5.057,0,0,1-.478-.586,1.2,1.2,0,0,0-.972-.525,1.115,1.115,0,0,0-.613.186l-2.639,1.737a.24.24,0,0,1-.123.049c-.05,0-.072-.128-.073-.134l-.5-2.881a1.23,1.23,0,0,1,.325-.952l2.641-2.428a2.784,2.784,0,0,0,.768-1.548,17.632,17.632,0,0,1,.324-1.885,1.347,1.347,0,0,0-.755-1.506l-1.548-.66a.382.382,0,0,1-.2-.512l1.8-4.039a.861.861,0,0,1,.706-.449h.024l1.916.095.066,0a1.923,1.923,0,0,0,1.483-.784c.429-.628.887-1.234,1.361-1.8a2.614,2.614,0,0,0,.553-1.643l-.178-2.836a1.3,1.3,0,0,1,.42-.939l2.981-2.343a.246.246,0,0,1,.131-.06c.06,0,.1.112.1.135l.673,2.232a1.043,1.043,0,0,0,1.013.763,1.171,1.171,0,0,0,.44-.088,9.162,9.162,0,0,1,1.176-.389,2.351,2.351,0,0,0,1.375-1.044l1.87-3.564a.706.706,0,0,1,.593-.337h0m-9.309,25.5a6.594,6.594,0,0,0,3.95-1.614c3.325-2.614,5.538-7.6,4.933-11.11-.366-2.126-1.7-3.4-3.574-3.4a6.592,6.592,0,0,0-3.95,1.614c-3.325,2.614-5.538,7.6-4.933,11.11.366,2.126,1.7,3.4,3.574,3.4m9.309-25.886a1.087,1.087,0,0,0-.934.543l-1.87,3.564a1.958,1.958,0,0,1-1.13.85,9.511,9.511,0,0,0-1.225.4.787.787,0,0,1-.3.06.661.661,0,0,1-.645-.489l-.673-2.232a.506.506,0,0,0-.472-.408.6.6,0,0,0-.369.143l-2.981,2.344a1.669,1.669,0,0,0-.567,1.265l.178,2.836a2.243,2.243,0,0,1-.464,1.372c-.488.584-.951,1.2-1.384,1.832a1.552,1.552,0,0,1-1.166.616h-.047l-1.916-.095h-.043a1.236,1.236,0,0,0-1.057.677l-1.8,4.039a.767.767,0,0,0,.4,1.022l1.548.66a.958.958,0,0,1,.531,1.067,18.037,18.037,0,0,0-.332,1.927,2.407,2.407,0,0,1-.646,1.309l-2.641,2.428a1.6,1.6,0,0,0-.443,1.3l.5,2.88a.476.476,0,0,0,.452.453.618.618,0,0,0,.335-.112l2.639-1.737a.725.725,0,0,1,.4-.123.812.812,0,0,1,.658.361,5.37,5.37,0,0,0,.514.63,1.309,1.309,0,0,1,.309,1.257l-1.346,3.64a.666.666,0,0,0,.492.9l1.989.445a.888.888,0,0,0,.194.021,1.089,1.089,0,0,0,.934-.543l1.87-3.564a1.962,1.962,0,0,1,1.13-.849,9.524,9.524,0,0,0,1.225-.405.792.792,0,0,1,.3-.059.661.661,0,0,1,.645.489l.673,2.232a.506.506,0,0,0,.472.408.6.6,0,0,0,.369-.143l2.981-2.343a1.668,1.668,0,0,0,.566-1.265l-.178-2.836a2.247,2.247,0,0,1,.464-1.373c.489-.584.951-1.2,1.384-1.832a1.551,1.551,0,0,1,1.166-.616h.047l1.916.095h.043a1.236,1.236,0,0,0,1.057-.677l1.8-4.039a.767.767,0,0,0-.4-1.022l-1.548-.66a.958.958,0,0,1-.531-1.067,17.849,17.849,0,0,0,.331-1.927,2.406,2.406,0,0,1,.646-1.308l2.641-2.429a1.6,1.6,0,0,0,.443-1.3l-.5-2.88a.476.476,0,0,0-.452-.453.613.613,0,0,0-.335.112l-2.639,1.737a.725.725,0,0,1-.4.123.813.813,0,0,1-.658-.361,5.442,5.442,0,0,0-.514-.63,1.307,1.307,0,0,1-.309-1.257l1.346-3.641a.666.666,0,0,0-.492-.9l-1.989-.445a.883.883,0,0,0-.194-.021Zm-9.309,25.5c-1.619,0-2.849-1.062-3.2-3.076-.584-3.393,1.561-8.2,4.792-10.743a6.228,6.228,0,0,1,3.713-1.531c1.618,0,2.848,1.062,3.195,3.076.584,3.394-1.561,8.2-4.791,10.743a6.23,6.23,0,0,1-3.713,1.531Z" transform="translate(-131.228 -264.809)" fill="#727997"/></g></g></g><g transform="translate(31.62 22.314)"><g transform="translate(0 0.001)"><path d="M227.168,228.272a1.948,1.948,0,0,1,.522-1.059l2.136-1.964a1.294,1.294,0,0,0,.358-1.052l-.4-2.33a.434.434,0,0,0-.2-.323l0,0-2.53-1.46v0a.405.405,0,0,0-.442.041l-.918.6.887-2.4a.527.527,0,0,0-.245-.663l.011-.007-2.532-1.461,0,0a.6.6,0,0,0-.168-.068l-1.609-.36a.872.872,0,0,0-.912.422l-1.513,2.883a1.5,1.5,0,0,1-.6.557l-.07-.231a.469.469,0,0,0-.2-.28v0l-2.539-1.465v0a.414.414,0,0,0-.476.065l-2.411,1.9a1.349,1.349,0,0,0-.458,1.023l.144,2.294a1.816,1.816,0,0,1-.375,1.11c-.4.472-.769.968-1.119,1.482a1.245,1.245,0,0,1-.981.5l-1.55-.076a.994.994,0,0,0-.89.547l-1.457,3.266a.618.618,0,0,0,.249.785v0l1.718.991a.759.759,0,0,1,.04.445,14.568,14.568,0,0,0-.268,1.558,1.948,1.948,0,0,1-.522,1.059L205.7,236.57a1.294,1.294,0,0,0-.358,1.052l.4,2.33a.439.439,0,0,0,.193.316l0,0,2.548,1.47v0a.407.407,0,0,0,.437-.044l.918-.6-.886,2.4a.533.533,0,0,0,.213.654l0,0,2.544,1.468,0-.008a.582.582,0,0,0,.178.08l1.608.359a.87.87,0,0,0,.912-.422l1.513-2.882a1.5,1.5,0,0,1,.6-.557l.07.231a.466.466,0,0,0,.207.281l0,0,2.519,1.453,0,0,.029.017v0a.417.417,0,0,0,.462-.072l2.411-1.9a1.35,1.35,0,0,0,.458-1.023l-.144-2.294a1.817,1.817,0,0,1,.375-1.11c.4-.472.769-.968,1.12-1.482a1.244,1.244,0,0,1,.981-.5l1.55.076a1,1,0,0,0,.89-.547l1.457-3.266a.62.62,0,0,0-.324-.826l-1.252-.534a.775.775,0,0,1-.43-.863A14.583,14.583,0,0,0,227.168,228.272Zm-12.867,7.09c-.472-2.744,1.263-6.635,3.876-8.689a5.279,5.279,0,0,1,2.748-1.225,4.134,4.134,0,0,1,.3,1.01c.473,2.744-1.263,6.635-3.876,8.689a5.288,5.288,0,0,1-2.737,1.224A3.95,3.95,0,0,1,214.3,235.362Z" transform="translate(-205.331 -215.759)" fill="#ba68c8"/><path d="M227.168,228.272a1.948,1.948,0,0,1,.522-1.059l2.136-1.964a1.294,1.294,0,0,0,.358-1.052l-.4-2.33a.434.434,0,0,0-.2-.323l0,0-2.53-1.46v0a.405.405,0,0,0-.442.041l-.918.6.887-2.4a.527.527,0,0,0-.245-.663l.011-.007-2.532-1.461,0,0a.6.6,0,0,0-.168-.068l-1.609-.36a.872.872,0,0,0-.912.422l-1.513,2.883a1.5,1.5,0,0,1-.6.557l-.07-.231a.469.469,0,0,0-.2-.28v0l-2.539-1.465v0a.414.414,0,0,0-.476.065l-2.411,1.9a1.349,1.349,0,0,0-.458,1.023l.144,2.294a1.816,1.816,0,0,1-.375,1.11c-.4.472-.769.968-1.119,1.482a1.245,1.245,0,0,1-.981.5l-1.55-.076a.994.994,0,0,0-.89.547l-1.457,3.266a.618.618,0,0,0,.249.785v0l1.718.991a.759.759,0,0,1,.04.445,14.568,14.568,0,0,0-.268,1.558,1.948,1.948,0,0,1-.522,1.059L205.7,236.57a1.294,1.294,0,0,0-.358,1.052l.4,2.33a.439.439,0,0,0,.193.316l0,0,2.548,1.47v0a.407.407,0,0,0,.437-.044l.918-.6-.886,2.4a.533.533,0,0,0,.213.654l0,0,2.544,1.468,0-.008a.582.582,0,0,0,.178.08l1.608.359a.87.87,0,0,0,.912-.422l1.513-2.882a1.5,1.5,0,0,1,.6-.557l.07.231a.466.466,0,0,0,.207.281l0,0,2.519,1.453,0,0,.029.017v0a.417.417,0,0,0,.462-.072l2.411-1.9a1.35,1.35,0,0,0,.458-1.023l-.144-2.294a1.817,1.817,0,0,1,.375-1.11c.4-.472.769-.968,1.12-1.482a1.244,1.244,0,0,1,.981-.5l1.55.076a1,1,0,0,0,.89-.547l1.457-3.266a.62.62,0,0,0-.324-.826l-1.252-.534a.775.775,0,0,1-.43-.863A14.583,14.583,0,0,0,227.168,228.272Zm-12.867,7.09c-.472-2.744,1.263-6.635,3.876-8.689a5.279,5.279,0,0,1,2.748-1.225,4.134,4.134,0,0,1,.3,1.01c.473,2.744-1.263,6.635-3.876,8.689a5.288,5.288,0,0,1-2.737,1.224A3.95,3.95,0,0,1,214.3,235.362Z" transform="translate(-205.331 -215.759)" fill="#fff" opacity="0.2"/></g><path d="M217.644,279.61a.614.614,0,0,0-.856-.194l-1.219.8-.886,2.4a.535.535,0,0,0,.214.652l2.514,1.448a.532.532,0,0,1-.189-.637l1.09-2.947a1.067,1.067,0,0,0-.249-1.016A4.219,4.219,0,0,1,217.644,279.61Zm7.421,3.673a.455.455,0,0,1-.2-.279l-.542-1.807a.551.551,0,0,0-.761-.348,6.83,6.83,0,0,1-.991.329,1.264,1.264,0,0,0-.314.129l.07.234a.48.48,0,0,0,.209.279v0Z" transform="translate(-211.066 -254.886)" opacity="0.1"/><path d="M234.754,252.114c-2.255,1.772-4.424,1.6-5.276-.244a5.248,5.248,0,0,0,2.737-1.219c2.613-2.056,4.35-5.943,3.877-8.69a3.984,3.984,0,0,0-.3-1.005,2.6,2.6,0,0,1,2.842,2.469C239.1,246.171,237.367,250.059,234.754,252.114Z" transform="translate(-220.197 -231.263)" opacity="0.1"/><g transform="translate(0.044)"><path d="M211.033,225.933a1.041,1.041,0,0,1-.443.095l-1.553-.075a.966.966,0,0,0-.642.234l2.538,1.463a.992.992,0,0,1,.642-.234l1.553.075a1.025,1.025,0,0,0,.443-.085Zm5.231-8.272a.409.409,0,0,0-.473.065l-2.414,1.9a1.333,1.333,0,0,0-.4.632l2.539,1.463a1.291,1.291,0,0,1,.4-.632l2.409-1.891a.41.41,0,0,1,.478-.065v-.005Zm-8.382,16.968-2.111,1.941a1.244,1.244,0,0,0-.328.607l2.533,1.458a1.233,1.233,0,0,1,.334-.6l2.11-1.936Zm16-18.426a.455.455,0,0,0-.17-.065l-1.607-.364a.878.878,0,0,0-.911.423l-1.513,2.882a1.318,1.318,0,0,1-.343.388l2.538,1.463a1.316,1.316,0,0,0,.344-.388l1.513-2.882a.871.871,0,0,1,.911-.423l1.608.364a.8.8,0,0,1,.164.06Zm3.24,3.877v0a.417.417,0,0,0-.443.04l-.916.607-.2.543a1.064,1.064,0,0,0,.254,1.02,4.186,4.186,0,0,1,.413.508,1.3,1.3,0,0,0,.11.125,1.145,1.145,0,0,0,.095.07.6.6,0,0,0,.214.085.548.548,0,0,0,.284-.015.422.422,0,0,0,.154-.07l2.136-1.4a.66.66,0,0,1,.159-.075.318.318,0,0,1,.179-.01.33.33,0,0,1,.1.03Z" transform="translate(-205.444 -215.758)" fill="#ba68c8"/><path d="M211.033,225.933a1.041,1.041,0,0,1-.443.095l-1.553-.075a.966.966,0,0,0-.642.234l2.538,1.463a.992.992,0,0,1,.642-.234l1.553.075a1.025,1.025,0,0,0,.443-.085Zm5.231-8.272a.409.409,0,0,0-.473.065l-2.414,1.9a1.333,1.333,0,0,0-.4.632l2.539,1.463a1.291,1.291,0,0,1,.4-.632l2.409-1.891a.41.41,0,0,1,.478-.065v-.005Zm-8.382,16.968-2.111,1.941a1.244,1.244,0,0,0-.328.607l2.533,1.458a1.233,1.233,0,0,1,.334-.6l2.11-1.936Zm16-18.426a.455.455,0,0,0-.17-.065l-1.607-.364a.878.878,0,0,0-.911.423l-1.513,2.882a1.318,1.318,0,0,1-.343.388l2.538,1.463a1.316,1.316,0,0,0,.344-.388l1.513-2.882a.871.871,0,0,1,.911-.423l1.608.364a.8.8,0,0,1,.164.06Zm3.24,3.877v0a.417.417,0,0,0-.443.04l-.916.607-.2.543a1.064,1.064,0,0,0,.254,1.02,4.186,4.186,0,0,1,.413.508,1.3,1.3,0,0,0,.11.125,1.145,1.145,0,0,0,.095.07.6.6,0,0,0,.214.085.548.548,0,0,0,.284-.015.422.422,0,0,0,.154-.07l2.136-1.4a.66.66,0,0,1,.159-.075.318.318,0,0,1,.179-.01.33.33,0,0,1,.1.03Z" transform="translate(-205.444 -215.758)" fill="#fff" opacity="0.7"/></g><g transform="translate(2.538 1.465)"><path d="M234.25,226.543l-.4-2.33a.384.384,0,0,0-.636-.276l-2.135,1.4a.619.619,0,0,1-.857-.193,4.355,4.355,0,0,0-.416-.51,1.056,1.056,0,0,1-.25-1.016l1.089-2.945a.538.538,0,0,0-.4-.731l-1.609-.36a.871.871,0,0,0-.912.422l-1.513,2.883a1.584,1.584,0,0,1-.914.687,7.769,7.769,0,0,0-.991.327.548.548,0,0,1-.761-.348L223,221.753a.4.4,0,0,0-.68-.215l-2.411,1.9a1.349,1.349,0,0,0-.458,1.023l.144,2.294a1.814,1.814,0,0,1-.375,1.11c-.4.472-.769.968-1.12,1.482a1.244,1.244,0,0,1-.981.5l-1.55-.076a1,1,0,0,0-.89.547l-1.458,3.267a.621.621,0,0,0,.324.826l1.252.534a.776.776,0,0,1,.43.863,14.374,14.374,0,0,0-.268,1.558,1.953,1.953,0,0,1-.522,1.059l-2.136,1.964a1.294,1.294,0,0,0-.358,1.052l.4,2.33a.384.384,0,0,0,.636.276l2.135-1.4a.619.619,0,0,1,.857.193,4.394,4.394,0,0,0,.416.51,1.058,1.058,0,0,1,.25,1.017l-1.089,2.944a.539.539,0,0,0,.4.732l1.609.359a.87.87,0,0,0,.912-.422l1.513-2.882a1.587,1.587,0,0,1,.914-.687,7.631,7.631,0,0,0,.991-.327.548.548,0,0,1,.761.348l.544,1.805a.4.4,0,0,0,.68.215l2.411-1.9a1.351,1.351,0,0,0,.458-1.023l-.144-2.294a1.817,1.817,0,0,1,.375-1.11c.4-.472.769-.968,1.12-1.482a1.245,1.245,0,0,1,.981-.5l1.549.076a1,1,0,0,0,.89-.547l1.457-3.266a.62.62,0,0,0-.324-.826l-1.252-.534a.775.775,0,0,1-.43-.863,14.571,14.571,0,0,0,.268-1.558,1.948,1.948,0,0,1,.522-1.059l2.136-1.964A1.3,1.3,0,0,0,234.25,226.543Zm-10.3,12.415c-2.613,2.054-5.114,1.495-5.587-1.25s1.263-6.635,3.876-8.689,5.114-1.5,5.587,1.249S226.567,236.9,223.954,238.957Z" transform="translate(-211.934 -219.57)" fill="#ba68c8"/><path d="M234.25,226.543l-.4-2.33a.384.384,0,0,0-.636-.276l-2.135,1.4a.619.619,0,0,1-.857-.193,4.355,4.355,0,0,0-.416-.51,1.056,1.056,0,0,1-.25-1.016l1.089-2.945a.538.538,0,0,0-.4-.731l-1.609-.36a.871.871,0,0,0-.912.422l-1.513,2.883a1.584,1.584,0,0,1-.914.687,7.769,7.769,0,0,0-.991.327.548.548,0,0,1-.761-.348L223,221.753a.4.4,0,0,0-.68-.215l-2.411,1.9a1.349,1.349,0,0,0-.458,1.023l.144,2.294a1.814,1.814,0,0,1-.375,1.11c-.4.472-.769.968-1.12,1.482a1.244,1.244,0,0,1-.981.5l-1.55-.076a1,1,0,0,0-.89.547l-1.458,3.267a.621.621,0,0,0,.324.826l1.252.534a.776.776,0,0,1,.43.863,14.374,14.374,0,0,0-.268,1.558,1.953,1.953,0,0,1-.522,1.059l-2.136,1.964a1.294,1.294,0,0,0-.358,1.052l.4,2.33a.384.384,0,0,0,.636.276l2.135-1.4a.619.619,0,0,1,.857.193,4.394,4.394,0,0,0,.416.51,1.058,1.058,0,0,1,.25,1.017l-1.089,2.944a.539.539,0,0,0,.4.732l1.609.359a.87.87,0,0,0,.912-.422l1.513-2.882a1.587,1.587,0,0,1,.914-.687,7.631,7.631,0,0,0,.991-.327.548.548,0,0,1,.761.348l.544,1.805a.4.4,0,0,0,.68.215l2.411-1.9a1.351,1.351,0,0,0,.458-1.023l-.144-2.294a1.817,1.817,0,0,1,.375-1.11c.4-.472.769-.968,1.12-1.482a1.245,1.245,0,0,1,.981-.5l1.549.076a1,1,0,0,0,.89-.547l1.457-3.266a.62.62,0,0,0-.324-.826l-1.252-.534a.775.775,0,0,1-.43-.863,14.571,14.571,0,0,0,.268-1.558,1.948,1.948,0,0,1,.522-1.059l2.136-1.964A1.3,1.3,0,0,0,234.25,226.543Zm-10.3,12.415c-2.613,2.054-5.114,1.495-5.587-1.25s1.263-6.635,3.876-8.689,5.114-1.5,5.587,1.249S226.567,236.9,223.954,238.957Z" transform="translate(-211.934 -219.57)" fill="#fff" opacity="0.55"/><g transform="translate(0 0)" opacity="0.55"><path d="M228.48,219.954h0a.337.337,0,0,1,.073.007l1.609.36a.155.155,0,0,1,.121.223l-1.089,2.945a1.442,1.442,0,0,0,.332,1.415,4.019,4.019,0,0,1,.379.465,1.044,1.044,0,0,0,.847.456.971.971,0,0,0,.536-.163l2.134-1.4a.226.226,0,0,1,.036-.02.235.235,0,0,1,.01.04l.4,2.33a.925.925,0,0,1-.24.7l-2.136,1.964a2.332,2.332,0,0,0-.644,1.3,14.042,14.042,0,0,1-.261,1.517,1.166,1.166,0,0,0,.654,1.3l1.252.534a.236.236,0,0,1,.124.316l-1.457,3.267a.627.627,0,0,1-.519.319h0l-1.55-.076h-.057a1.635,1.635,0,0,0-1.261.666c-.346.506-.715.995-1.1,1.452a2.2,2.2,0,0,0-.464,1.381l.144,2.293a.981.981,0,0,1-.312.7l-2.411,1.9c-.026.02-.044.028-.049.033a.182.182,0,0,1-.026-.057l-.544-1.805a.917.917,0,0,0-.889-.669,1.021,1.021,0,0,0-.383.076,7.363,7.363,0,0,1-.941.311,1.96,1.96,0,0,0-1.16.881l-1.513,2.883a.5.5,0,0,1-.415.233.318.318,0,0,1-.073-.008l-1.608-.359a.156.156,0,0,1-.122-.224L217,244.487a1.442,1.442,0,0,0-.332-1.415,4.021,4.021,0,0,1-.38-.465,1.043,1.043,0,0,0-.846-.456.977.977,0,0,0-.537.162l-2.134,1.4a.228.228,0,0,1-.036.02.224.224,0,0,1-.01-.04l-.4-2.33a.925.925,0,0,1,.24-.7L214.7,238.7a2.333,2.333,0,0,0,.644-1.3,14.16,14.16,0,0,1,.261-1.517,1.165,1.165,0,0,0-.654-1.3l-1.252-.534a.236.236,0,0,1-.124-.316l1.457-3.267a.627.627,0,0,1,.519-.319h0l1.55.076h.057a1.635,1.635,0,0,0,1.26-.666c.346-.506.715-.995,1.1-1.452a2.2,2.2,0,0,0,.464-1.381l-.144-2.293a.981.981,0,0,1,.312-.7l2.411-1.9c.026-.02.044-.028.048-.033a.18.18,0,0,1,.026.056l.544,1.805a.916.916,0,0,0,.889.669,1.021,1.021,0,0,0,.383-.076,7.384,7.384,0,0,1,.942-.311,1.96,1.96,0,0,0,1.16-.881l1.512-2.882a.5.5,0,0,1,.415-.233m-7.529,20.625a5.4,5.4,0,0,0,3.24-1.32c2.708-2.129,4.51-6.192,4.017-9.056a2.994,2.994,0,0,0-2.963-2.807,5.4,5.4,0,0,0-3.24,1.321c-2.708,2.129-4.511,6.192-4.017,9.056a2.994,2.994,0,0,0,2.963,2.807m7.529-21.01a.879.879,0,0,0-.755.439l-1.513,2.883a1.585,1.585,0,0,1-.914.687,7.771,7.771,0,0,0-.991.327.641.641,0,0,1-.239.048.534.534,0,0,1-.521-.4L223,221.753a.409.409,0,0,0-.382-.33.487.487,0,0,0-.3.115l-2.411,1.9a1.351,1.351,0,0,0-.458,1.023l.144,2.294a1.819,1.819,0,0,1-.375,1.11c-.4.472-.769.968-1.12,1.482a1.255,1.255,0,0,1-.943.5h-.038l-1.55-.076h-.035a1,1,0,0,0-.855.547l-1.457,3.267a.621.621,0,0,0,.324.826l1.252.534a.776.776,0,0,1,.43.863,14.374,14.374,0,0,0-.268,1.558,1.953,1.953,0,0,1-.522,1.059l-2.136,1.964a1.294,1.294,0,0,0-.358,1.052l.4,2.33a.385.385,0,0,0,.366.367.5.5,0,0,0,.271-.091l2.135-1.4a.587.587,0,0,1,.325-.1.657.657,0,0,1,.532.292,4.395,4.395,0,0,0,.416.51,1.058,1.058,0,0,1,.25,1.017l-1.089,2.944a.539.539,0,0,0,.4.732l1.609.359a.713.713,0,0,0,.157.017.879.879,0,0,0,.755-.439l1.513-2.882a1.587,1.587,0,0,1,.914-.687,7.631,7.631,0,0,0,.991-.327.641.641,0,0,1,.239-.048.536.536,0,0,1,.522.4l.544,1.805a.409.409,0,0,0,.382.33.488.488,0,0,0,.3-.115l2.411-1.9a1.35,1.35,0,0,0,.458-1.023l-.144-2.293a1.814,1.814,0,0,1,.376-1.11c.4-.472.769-.968,1.119-1.482a1.256,1.256,0,0,1,.943-.5h.038l1.549.076h.035a1,1,0,0,0,.855-.548l1.457-3.267a.62.62,0,0,0-.324-.826l-1.252-.534a.775.775,0,0,1-.429-.863,14.569,14.569,0,0,0,.268-1.558,1.948,1.948,0,0,1,.522-1.059l2.136-1.964a1.294,1.294,0,0,0,.358-1.052l-.4-2.33c-.041-.234-.185-.366-.366-.366a.5.5,0,0,0-.271.09l-2.135,1.4a.586.586,0,0,1-.325.1.657.657,0,0,1-.532-.293,4.4,4.4,0,0,0-.416-.51,1.057,1.057,0,0,1-.25-1.016l1.089-2.945a.538.538,0,0,0-.4-.731l-1.609-.36a.712.712,0,0,0-.157-.017ZM220.951,240.2a2.616,2.616,0,0,1-2.584-2.488c-.472-2.744,1.263-6.635,3.876-8.689a5.037,5.037,0,0,1,3-1.238,2.616,2.616,0,0,1,2.584,2.488c.472,2.744-1.263,6.635-3.876,8.689a5.038,5.038,0,0,1-3,1.238Z" transform="translate(-211.934 -219.57)" fill="#fff"/></g></g></g><g transform="translate(27.826 102.943)"><path d="M197.149,437.789l0,0a.421.421,0,0,0,.254.366l.968.5.565-.092a1.009,1.009,0,0,0,.734-.711,4.525,4.525,0,0,1,.222-.612.631.631,0,0,0-.269-.836l-2.256-1.167a.428.428,0,0,1-.257-.355Zm8.266-.97a2.585,2.585,0,0,0-.673,3.664,4.186,4.186,0,0,1,.707-.75c2.079-1.747,6.234-2.135,9.278-.871a5.359,5.359,0,0,1,2.4,1.779c1.124-1.64.184-3.606-2.441-4.7C211.647,434.681,207.493,435.073,205.414,436.82Zm-9.92,5.674,0,0a.551.551,0,0,0,.028.18l.5,1.572a.883.883,0,0,0,.813.585l3.2-.093a1.278,1.278,0,0,1,.494.105l0,0a1.329,1.329,0,0,1,.275.139l1.092-1.177a.553.553,0,0,0-.088-.828,7.959,7.959,0,0,1-.771-.7,1.683,1.683,0,0,0-.54-.352,1.255,1.255,0,0,0-.5-.107l-3.194.1a.888.888,0,0,1-.813-.585l-.5-1.575a.617.617,0,0,1-.03-.168Zm25.843-9.678a.448.448,0,0,1-.13.251l-1.252,1.353a.548.548,0,0,0,.088.828,7.54,7.54,0,0,1,.771.7,1.305,1.305,0,0,0,.267.207l.16-.175a.444.444,0,0,0,.131-.315l0,0Zm-20.8,15.574a.373.373,0,0,0,.05.176.465.465,0,0,0,.244.2l2.809,1.171a.643.643,0,0,0,.121.037.544.544,0,0,0,.092.02,1.527,1.527,0,0,0,.427,0c.029-.007.064-.012.093-.02l0,0a1.047,1.047,0,0,0,.359-.135l1.866-1.243a1.741,1.741,0,0,1,1.125-.215c.6.114,1.2.193,1.81.248a1.21,1.21,0,0,1,.612.262,1.035,1.035,0,0,1,.16.152.448.448,0,0,1,.065.08.531.531,0,0,1,.077.117l.711,1.381.019.033a.7.7,0,0,0,.074.1.59.59,0,0,0,.078.086.016.016,0,0,0,.01.009.819.819,0,0,0,.106.085,1.114,1.114,0,0,0,.229.126.928.928,0,0,0,.392.062l3.487-.329a.6.6,0,0,0,.54-.595l-.025-1.977a.735.735,0,0,1,.359-.251,14.1,14.1,0,0,0,1.45-.525,1.865,1.865,0,0,1,1.154-.066l.031.012,2.7.888a.641.641,0,0,0,.147.032h.024a.57.57,0,0,0,.16.005,1.187,1.187,0,0,0,.74-.241l1.764-1.487a.449.449,0,0,0,.174-.316l-.037-2.9a.437.437,0,0,1-.171.3l-1.766,1.483a1.029,1.029,0,0,1-.39.2,1.216,1.216,0,0,1-.68.007l-2.7-.884-.03-.012a1.9,1.9,0,0,0-1.156.062,13.261,13.261,0,0,1-1.45.525.757.757,0,0,0-.515.795l.179,1.346a.6.6,0,0,1-.535.685l-3.487.329a.879.879,0,0,1-.392-.062,1,1,0,0,1-.517-.443l-.714-1.384a1.036,1.036,0,0,0-.3-.345,1.211,1.211,0,0,0-.612-.262c-.607-.055-1.215-.138-1.811-.248a1.715,1.715,0,0,0-1.125.215l-1.863,1.241a.976.976,0,0,1-.364.142,1.271,1.271,0,0,1-.731-.041l-2.807-1.167a.422.422,0,0,1-.3-.381Zm22.367-8.73a1.021,1.021,0,0,0-.732.715,4.075,4.075,0,0,1-.224.608.633.633,0,0,0,.265.838l1.288.667,2.468-.4a.511.511,0,0,0,.444-.506l.006,0-.035-2.923a.514.514,0,0,1-.448.508Z" transform="translate(-195.459 -430.014)" fill="#e6e6e6"/><path d="M197.149,437.789l0,0a.421.421,0,0,0,.254.366l.968.5.565-.092a1.009,1.009,0,0,0,.734-.711,4.525,4.525,0,0,1,.222-.612.631.631,0,0,0-.269-.836l-2.256-1.167a.428.428,0,0,1-.257-.355Zm8.266-.97a2.585,2.585,0,0,0-.673,3.664,4.186,4.186,0,0,1,.707-.75c2.079-1.747,6.234-2.135,9.278-.871a5.359,5.359,0,0,1,2.4,1.779c1.124-1.64.184-3.606-2.441-4.7C211.647,434.681,207.493,435.073,205.414,436.82Zm-9.92,5.674,0,0a.551.551,0,0,0,.028.18l.5,1.572a.883.883,0,0,0,.813.585l3.2-.093a1.278,1.278,0,0,1,.494.105l0,0a1.329,1.329,0,0,1,.275.139l1.092-1.177a.553.553,0,0,0-.088-.828,7.959,7.959,0,0,1-.771-.7,1.683,1.683,0,0,0-.54-.352,1.255,1.255,0,0,0-.5-.107l-3.194.1a.888.888,0,0,1-.813-.585l-.5-1.575a.617.617,0,0,1-.03-.168Zm25.843-9.678a.448.448,0,0,1-.13.251l-1.252,1.353a.548.548,0,0,0,.088.828,7.54,7.54,0,0,1,.771.7,1.305,1.305,0,0,0,.267.207l.16-.175a.444.444,0,0,0,.131-.315l0,0Zm-20.8,15.574a.373.373,0,0,0,.05.176.465.465,0,0,0,.244.2l2.809,1.171a.643.643,0,0,0,.121.037.544.544,0,0,0,.092.02,1.527,1.527,0,0,0,.427,0c.029-.007.064-.012.093-.02l0,0a1.047,1.047,0,0,0,.359-.135l1.866-1.243a1.741,1.741,0,0,1,1.125-.215c.6.114,1.2.193,1.81.248a1.21,1.21,0,0,1,.612.262,1.035,1.035,0,0,1,.16.152.448.448,0,0,1,.065.08.531.531,0,0,1,.077.117l.711,1.381.019.033a.7.7,0,0,0,.074.1.59.59,0,0,0,.078.086.016.016,0,0,0,.01.009.819.819,0,0,0,.106.085,1.114,1.114,0,0,0,.229.126.928.928,0,0,0,.392.062l3.487-.329a.6.6,0,0,0,.54-.595l-.025-1.977a.735.735,0,0,1,.359-.251,14.1,14.1,0,0,0,1.45-.525,1.865,1.865,0,0,1,1.154-.066l.031.012,2.7.888a.641.641,0,0,0,.147.032h.024a.57.57,0,0,0,.16.005,1.187,1.187,0,0,0,.74-.241l1.764-1.487a.449.449,0,0,0,.174-.316l-.037-2.9a.437.437,0,0,1-.171.3l-1.766,1.483a1.029,1.029,0,0,1-.39.2,1.216,1.216,0,0,1-.68.007l-2.7-.884-.03-.012a1.9,1.9,0,0,0-1.156.062,13.261,13.261,0,0,1-1.45.525.757.757,0,0,0-.515.795l.179,1.346a.6.6,0,0,1-.535.685l-3.487.329a.879.879,0,0,1-.392-.062,1,1,0,0,1-.517-.443l-.714-1.384a1.036,1.036,0,0,0-.3-.345,1.211,1.211,0,0,0-.612-.262c-.607-.055-1.215-.138-1.811-.248a1.715,1.715,0,0,0-1.125.215l-1.863,1.241a.976.976,0,0,1-.364.142,1.271,1.271,0,0,1-.731-.041l-2.807-1.167a.422.422,0,0,1-.3-.381Zm22.367-8.73a1.021,1.021,0,0,0-.732.715,4.075,4.075,0,0,1-.224.608.633.633,0,0,0,.265.838l1.288.667,2.468-.4a.511.511,0,0,0,.444-.506l.006,0-.035-2.923a.514.514,0,0,1-.448.508Z" transform="translate(-195.459 -430.014)" opacity="0.1"/><path d="M256.785,463.152l2.7.884a1.215,1.215,0,0,0,.68-.007l.035,2.909a1.485,1.485,0,0,1-.349.055.571.571,0,0,1-.159-.005h-.024a.643.643,0,0,1-.147-.032l-2.7-.888Z" transform="translate(-233.213 -448.691)" fill="#e0e0e0"/><path d="M233.588,467.046a1.036,1.036,0,0,1,.3.345l.714,1.385a1,1,0,0,0,.517.443l.034,2.914a1.115,1.115,0,0,1-.229-.126.816.816,0,0,1-.106-.085.015.015,0,0,1-.01-.009.591.591,0,0,1-.078-.086.693.693,0,0,1-.074-.1l-.019-.033-.711-1.381a.53.53,0,0,0-.077-.117.9.9,0,0,0-.065-.08,1.964,1.964,0,0,0-.159-.143v-.009Z" transform="translate(-218.932 -451.088)" fill="#e0e0e0"/><path d="M199.758,438.2a.42.42,0,0,0,.261.352l2.256,1.168a.633.633,0,0,1,.265.838,4.089,4.089,0,0,0-.222.612,1.009,1.009,0,0,1-.734.711l-.561.09-.968-.5a.422.422,0,0,1-.258-.364l0,0Z" transform="translate(-198.106 -433.326)" fill="#e0e0e0"/><path d="M195.459,450.429a.617.617,0,0,0,.03.168l.5,1.576a.888.888,0,0,0,.813.585l3.194-.1a1.255,1.255,0,0,1,.5.107l.03,2.916a1.278,1.278,0,0,0-.494-.105l-3.2.093a.883.883,0,0,1-.813-.585l-.5-1.572a.551.551,0,0,1-.028-.18l0,0Z" transform="translate(-195.459 -440.858)" fill="#e0e0e0"/><path d="M208.59,465.745a.422.422,0,0,0,.3.381l2.807,1.167a1.271,1.271,0,0,0,.731.041l.038,2.912c-.029.007-.064.013-.093.02a1.526,1.526,0,0,1-.427,0,.538.538,0,0,1-.092-.02.639.639,0,0,1-.121-.037l-2.809-1.171a.465.465,0,0,1-.244-.2.373.373,0,0,1-.05-.176Z" transform="translate(-203.543 -450.287)" fill="#e0e0e0"/><path d="M212.165,443.8a.89.89,0,0,1-.734-.442l-.711-1.382a1.38,1.38,0,0,0-1.009-.674c-.611-.054-1.217-.138-1.8-.248a1.423,1.423,0,0,0-.26-.023,1.846,1.846,0,0,0-.956.257l-1.865,1.243a1.126,1.126,0,0,1-.6.157,1,1,0,0,1-.379-.067l-2.808-1.168a.33.33,0,0,1-.215-.22.317.317,0,0,1,.1-.278l1.252-1.352a.661.661,0,0,0,.18-.5.717.717,0,0,0-.281-.508,7.863,7.863,0,0,1-.761-.69,1.72,1.72,0,0,0-1.1-.5L197,437.5a.765.765,0,0,1-.693-.5l-.5-1.571a.43.43,0,0,1,.034-.36.406.406,0,0,1,.287-.184l3.031-.49a1.123,1.123,0,0,0,.832-.8A4.161,4.161,0,0,1,200.2,433a.752.752,0,0,0-.321-1l-2.255-1.167a.318.318,0,0,1-.192-.23.3.3,0,0,1,.128-.254l1.767-1.484a1.111,1.111,0,0,1,.678-.219.877.877,0,0,1,.273.04l2.728.9a1.622,1.622,0,0,0,.5.07,1.966,1.966,0,0,0,.745-.136,13.655,13.655,0,0,1,1.437-.522.871.871,0,0,0,.6-.927l-.176-1.346a.488.488,0,0,1,.1-.372.466.466,0,0,1,.324-.174l3.488-.329.054,0a.89.89,0,0,1,.733.442l.712,1.382a1.378,1.378,0,0,0,1.009.674c.611.055,1.217.138,1.8.248a1.429,1.429,0,0,0,.261.022,1.845,1.845,0,0,0,.956-.256l1.864-1.243a1.124,1.124,0,0,1,.6-.157,1,1,0,0,1,.38.067l2.808,1.167a.329.329,0,0,1,.214.219.317.317,0,0,1-.1.279l-1.252,1.352a.657.657,0,0,0-.18.5.719.719,0,0,0,.281.508,7.779,7.779,0,0,1,.761.689,1.716,1.716,0,0,0,1.1.5l3.218-.093a.765.765,0,0,1,.693.5l.5,1.57a.428.428,0,0,1-.033.359.405.405,0,0,1-.288.185l-3.03.491a1.139,1.139,0,0,0-.832.8,4.141,4.141,0,0,1-.216.592.753.753,0,0,0,.322,1l2.255,1.167a.315.315,0,0,1,.191.23.3.3,0,0,1-.128.254l-1.766,1.484a1.116,1.116,0,0,1-.679.219.9.9,0,0,1-.272-.039l-2.728-.9a1.627,1.627,0,0,0-.5-.07,1.961,1.961,0,0,0-.746.136,13.677,13.677,0,0,1-1.437.522.873.873,0,0,0-.6.927l.176,1.346a.487.487,0,0,1-.1.372.465.465,0,0,1-.324.174l-3.488.329Zm-1.22-13a8.666,8.666,0,0,0-5.414,1.645,2.887,2.887,0,0,0-1.18,2.647c.186,1.213,1.264,2.312,2.956,3.016a10.485,10.485,0,0,0,3.989.752,8.668,8.668,0,0,0,5.414-1.644,2.889,2.889,0,0,0,1.18-2.647c-.186-1.213-1.263-2.313-2.956-3.017A10.488,10.488,0,0,0,210.945,430.792Z" transform="translate(-195.655 -425.724)" fill="#f5f5f5"/><path d="M209.879,425.773h0a.769.769,0,0,1,.624.375l.711,1.382a1.494,1.494,0,0,0,1.108.741c.607.053,1.208.136,1.788.246a1.518,1.518,0,0,0,.283.025,1.973,1.973,0,0,0,1.023-.277l1.865-1.243a1.013,1.013,0,0,1,.53-.136.9.9,0,0,1,.332.057l2.808,1.168a.217.217,0,0,1,.142.133.2.2,0,0,1-.068.169l-1.252,1.352a.781.781,0,0,0-.212.593.839.839,0,0,0,.327.594,7.715,7.715,0,0,1,.749.678,1.827,1.827,0,0,0,1.192.534h.03l3.2-.093a.639.639,0,0,1,.561.415l.5,1.571a.31.31,0,0,1-.022.258.284.284,0,0,1-.2.127l-3.031.491a1.25,1.25,0,0,0-.93.889,4.049,4.049,0,0,1-.209.575.874.874,0,0,0,.377,1.156l2.255,1.167c.074.038.121.088.126.135a.19.19,0,0,1-.085.146l-1.766,1.484a1,1,0,0,1-.6.19.761.761,0,0,1-.234-.033l-2.728-.9a1.742,1.742,0,0,0-.535-.076,2.088,2.088,0,0,0-.794.146,13.727,13.727,0,0,1-1.424.517,1,1,0,0,0-.685,1.06l.176,1.346a.367.367,0,0,1-.075.28.347.347,0,0,1-.24.129l-3.488.328-.043,0a.767.767,0,0,1-.624-.376l-.712-1.382a1.492,1.492,0,0,0-1.108-.741c-.606-.053-1.207-.136-1.788-.246a1.554,1.554,0,0,0-.283-.025,1.975,1.975,0,0,0-1.024.277l-1.865,1.243a1.011,1.011,0,0,1-.53.136.9.9,0,0,1-.332-.058L200.9,441.14a.218.218,0,0,1-.142-.133.2.2,0,0,1,.068-.169l1.252-1.352a.779.779,0,0,0,.212-.593.839.839,0,0,0-.327-.595,7.678,7.678,0,0,1-.749-.678,1.829,1.829,0,0,0-1.192-.534h-.03l-3.2.093a.639.639,0,0,1-.561-.415l-.5-1.571a.308.308,0,0,1,.022-.258.283.283,0,0,1,.2-.127l3.031-.491a1.249,1.249,0,0,0,.93-.889,4.106,4.106,0,0,1,.209-.575.874.874,0,0,0-.377-1.156l-2.255-1.167c-.074-.038-.121-.088-.126-.135a.19.19,0,0,1,.085-.146l1.766-1.484a1,1,0,0,1,.6-.19.763.763,0,0,1,.234.033l2.728.9a1.746,1.746,0,0,0,.535.076,2.088,2.088,0,0,0,.794-.146,13.476,13.476,0,0,1,1.424-.517,1,1,0,0,0,.685-1.06l-.176-1.347a.365.365,0,0,1,.075-.279.344.344,0,0,1,.24-.129l3.488-.328.043,0m1.22,13a8.791,8.791,0,0,0,5.493-1.673,3.006,3.006,0,0,0,1.223-2.759c-.193-1.256-1.3-2.391-3.03-3.111a10.6,10.6,0,0,0-4.036-.761,8.79,8.79,0,0,0-5.493,1.674,3.005,3.005,0,0,0-1.223,2.759c.193,1.256,1.3,2.39,3.03,3.111a10.6,10.6,0,0,0,4.037.762m-1.22-13.25c-.022,0-.044,0-.066,0l-3.488.328a.6.6,0,0,0-.535.684l.176,1.347a.75.75,0,0,1-.513.793,13.873,13.873,0,0,0-1.45.527,1.857,1.857,0,0,1-.7.126,1.5,1.5,0,0,1-.459-.063l-2.728-.9a1,1,0,0,0-.311-.046,1.233,1.233,0,0,0-.757.247l-1.766,1.484a.386.386,0,0,0,.086.687l2.255,1.167a.631.631,0,0,1,.266.838,4.32,4.32,0,0,0-.222.609,1.011,1.011,0,0,1-.733.713l-3.031.491a.524.524,0,0,0-.419.7l.5,1.571a.884.884,0,0,0,.794.585h.019l3.191-.093h.023a1.6,1.6,0,0,1,1.016.459,7.883,7.883,0,0,0,.773.7.553.553,0,0,1,.087.829l-1.252,1.352a.406.406,0,0,0,.16.695l2.808,1.168a1.132,1.132,0,0,0,.427.076,1.246,1.246,0,0,0,.667-.178l1.865-1.243a1.731,1.731,0,0,1,.888-.236,1.278,1.278,0,0,1,.237.02c.6.112,1.2.195,1.812.249a1.257,1.257,0,0,1,.911.608l.712,1.382a1.01,1.01,0,0,0,.842.509l.066,0,3.488-.328a.6.6,0,0,0,.535-.684l-.176-1.347a.751.751,0,0,1,.513-.793,13.781,13.781,0,0,0,1.45-.527,1.863,1.863,0,0,1,.7-.126,1.5,1.5,0,0,1,.459.063l2.728.9a1,1,0,0,0,.311.046,1.233,1.233,0,0,0,.758-.247l1.766-1.484a.386.386,0,0,0-.086-.686l-2.255-1.167a.631.631,0,0,1-.266-.837,4.292,4.292,0,0,0,.222-.609,1.012,1.012,0,0,1,.733-.713l3.031-.491a.523.523,0,0,0,.418-.7l-.5-1.571a.884.884,0,0,0-.794-.585h-.019l-3.191.093h-.023a1.6,1.6,0,0,1-1.015-.458,7.83,7.83,0,0,0-.773-.7.553.553,0,0,1-.087-.829l1.251-1.352a.406.406,0,0,0-.159-.695l-2.808-1.168a1.132,1.132,0,0,0-.427-.076,1.248,1.248,0,0,0-.667.178l-1.865,1.243a1.73,1.73,0,0,1-.887.236,1.3,1.3,0,0,1-.238-.02c-.6-.113-1.2-.2-1.812-.249a1.257,1.257,0,0,1-.911-.608l-.712-1.382a1.011,1.011,0,0,0-.842-.509Zm1.22,13a10.4,10.4,0,0,1-3.942-.743c-3.043-1.265-3.824-3.708-1.743-5.456a8.521,8.521,0,0,1,5.335-1.616,10.4,10.4,0,0,1,3.942.743c3.043,1.265,3.824,3.708,1.743,5.456a8.519,8.519,0,0,1-5.335,1.616Z" transform="translate(-195.459 -425.528)" fill="#e0e0e0"/></g><g transform="translate(52.189 91.28)"><path d="M260.191,404.962l0,0a.336.336,0,0,0,.2.292l.772.4.45-.073a.8.8,0,0,0,.585-.567,3.531,3.531,0,0,1,.177-.487.5.5,0,0,0-.214-.666l-1.8-.931a.341.341,0,0,1-.2-.282Zm6.59-.773a2.061,2.061,0,0,0-.537,2.921,3.318,3.318,0,0,1,.563-.6c1.657-1.393,4.971-1.7,7.4-.695a4.276,4.276,0,0,1,1.917,1.419c.9-1.307.147-2.875-1.946-3.745C271.75,402.484,268.439,402.8,266.781,404.189Zm-7.909,4.523,0,0a.438.438,0,0,0,.022.143l.4,1.253a.7.7,0,0,0,.648.466l2.548-.074a1.017,1.017,0,0,1,.393.084l0,0a1.049,1.049,0,0,1,.219.111l.871-.939a.441.441,0,0,0-.07-.66,6.3,6.3,0,0,1-.615-.56,1.342,1.342,0,0,0-.431-.281,1.006,1.006,0,0,0-.4-.086l-2.546.077a.708.708,0,0,1-.648-.466l-.4-1.256a.477.477,0,0,1-.024-.134Zm20.6-7.716a.356.356,0,0,1-.1.2l-1,1.078a.437.437,0,0,0,.07.66,5.942,5.942,0,0,1,.615.56,1.055,1.055,0,0,0,.213.165l.128-.14a.355.355,0,0,0,.1-.251l0,0ZM262.9,413.413a.3.3,0,0,0,.04.141.374.374,0,0,0,.194.16l2.239.933a.461.461,0,0,0,.1.03.433.433,0,0,0,.073.016,1.231,1.231,0,0,0,.34,0l.075-.016,0,0a.832.832,0,0,0,.287-.107l1.487-.991a1.387,1.387,0,0,1,.9-.171c.477.091.96.154,1.444.2a.963.963,0,0,1,.488.209.827.827,0,0,1,.127.121.386.386,0,0,1,.052.063.435.435,0,0,1,.061.093l.567,1.1.015.026a.539.539,0,0,0,.059.083.463.463,0,0,0,.063.069.013.013,0,0,0,.008.007.663.663,0,0,0,.085.068.861.861,0,0,0,.183.1.736.736,0,0,0,.313.05l2.779-.263a.475.475,0,0,0,.431-.474l-.02-1.576a.586.586,0,0,1,.286-.2,11.435,11.435,0,0,0,1.156-.418,1.486,1.486,0,0,1,.92-.053l.024.009,2.151.708a.536.536,0,0,0,.117.026h.019a.458.458,0,0,0,.128,0,.945.945,0,0,0,.59-.193l1.406-1.185a.357.357,0,0,0,.139-.252l-.03-2.314a.348.348,0,0,1-.137.243l-1.408,1.182a.831.831,0,0,1-.311.156.972.972,0,0,1-.542.005l-2.149-.7-.024-.009a1.514,1.514,0,0,0-.922.05,10.5,10.5,0,0,1-1.156.418.6.6,0,0,0-.41.634l.143,1.073a.48.48,0,0,1-.427.546l-2.78.263a.7.7,0,0,1-.312-.05.793.793,0,0,1-.412-.353l-.569-1.1a.821.821,0,0,0-.238-.275.966.966,0,0,0-.488-.209c-.484-.044-.969-.11-1.443-.2a1.368,1.368,0,0,0-.9.171l-1.485.99a.78.78,0,0,1-.29.113,1.016,1.016,0,0,1-.583-.033l-2.237-.93a.338.338,0,0,1-.236-.3Zm17.833-6.961a.814.814,0,0,0-.583.57,3.188,3.188,0,0,1-.179.484.5.5,0,0,0,.211.668l1.027.532,1.967-.319a.407.407,0,0,0,.354-.4h0l-.028-2.33a.409.409,0,0,1-.357.4Z" transform="translate(-258.844 -398.763)" fill="#e6e6e6"/><path d="M260.191,404.962l0,0a.336.336,0,0,0,.2.292l.772.4.45-.073a.8.8,0,0,0,.585-.567,3.531,3.531,0,0,1,.177-.487.5.5,0,0,0-.214-.666l-1.8-.931a.341.341,0,0,1-.2-.282Zm6.59-.773a2.061,2.061,0,0,0-.537,2.921,3.318,3.318,0,0,1,.563-.6c1.657-1.393,4.971-1.7,7.4-.695a4.276,4.276,0,0,1,1.917,1.419c.9-1.307.147-2.875-1.946-3.745C271.75,402.484,268.439,402.8,266.781,404.189Zm-7.909,4.523,0,0a.438.438,0,0,0,.022.143l.4,1.253a.7.7,0,0,0,.648.466l2.548-.074a1.017,1.017,0,0,1,.393.084l0,0a1.049,1.049,0,0,1,.219.111l.871-.939a.441.441,0,0,0-.07-.66,6.3,6.3,0,0,1-.615-.56,1.342,1.342,0,0,0-.431-.281,1.006,1.006,0,0,0-.4-.086l-2.546.077a.708.708,0,0,1-.648-.466l-.4-1.256a.477.477,0,0,1-.024-.134Zm20.6-7.716a.356.356,0,0,1-.1.2l-1,1.078a.437.437,0,0,0,.07.66,5.942,5.942,0,0,1,.615.56,1.055,1.055,0,0,0,.213.165l.128-.14a.355.355,0,0,0,.1-.251l0,0ZM262.9,413.413a.3.3,0,0,0,.04.141.374.374,0,0,0,.194.16l2.239.933a.461.461,0,0,0,.1.03.433.433,0,0,0,.073.016,1.231,1.231,0,0,0,.34,0l.075-.016,0,0a.832.832,0,0,0,.287-.107l1.487-.991a1.387,1.387,0,0,1,.9-.171c.477.091.96.154,1.444.2a.963.963,0,0,1,.488.209.827.827,0,0,1,.127.121.386.386,0,0,1,.052.063.435.435,0,0,1,.061.093l.567,1.1.015.026a.539.539,0,0,0,.059.083.463.463,0,0,0,.063.069.013.013,0,0,0,.008.007.663.663,0,0,0,.085.068.861.861,0,0,0,.183.1.736.736,0,0,0,.313.05l2.779-.263a.475.475,0,0,0,.431-.474l-.02-1.576a.586.586,0,0,1,.286-.2,11.435,11.435,0,0,0,1.156-.418,1.486,1.486,0,0,1,.92-.053l.024.009,2.151.708a.536.536,0,0,0,.117.026h.019a.458.458,0,0,0,.128,0,.945.945,0,0,0,.59-.193l1.406-1.185a.357.357,0,0,0,.139-.252l-.03-2.314a.348.348,0,0,1-.137.243l-1.408,1.182a.831.831,0,0,1-.311.156.972.972,0,0,1-.542.005l-2.149-.7-.024-.009a1.514,1.514,0,0,0-.922.05,10.5,10.5,0,0,1-1.156.418.6.6,0,0,0-.41.634l.143,1.073a.48.48,0,0,1-.427.546l-2.78.263a.7.7,0,0,1-.312-.05.793.793,0,0,1-.412-.353l-.569-1.1a.821.821,0,0,0-.238-.275.966.966,0,0,0-.488-.209c-.484-.044-.969-.11-1.443-.2a1.368,1.368,0,0,0-.9.171l-1.485.99a.78.78,0,0,1-.29.113,1.016,1.016,0,0,1-.583-.033l-2.237-.93a.338.338,0,0,1-.236-.3Zm17.833-6.961a.814.814,0,0,0-.583.57,3.188,3.188,0,0,1-.179.484.5.5,0,0,0,.211.668l1.027.532,1.967-.319a.407.407,0,0,0,.354-.4h0l-.028-2.33a.409.409,0,0,1-.357.4Z" transform="translate(-258.844 -398.763)" opacity="0.1"/><path d="M307.736,425.182l2.149.7a.972.972,0,0,0,.542-.005l.028,2.318a1.19,1.19,0,0,1-.278.043.458.458,0,0,1-.128,0h-.019a.533.533,0,0,1-.117-.026l-2.151-.708Z" transform="translate(-288.944 -413.653)" fill="#e0e0e0"/><path d="M289.242,428.287a.82.82,0,0,1,.238.275l.569,1.1a.793.793,0,0,0,.412.353l.027,2.323a.86.86,0,0,1-.183-.1.656.656,0,0,1-.085-.068.012.012,0,0,1-.008-.007.456.456,0,0,1-.063-.069.541.541,0,0,1-.059-.083l-.015-.026-.567-1.1a.438.438,0,0,0-.061-.093.8.8,0,0,0-.052-.063,1.57,1.57,0,0,0-.126-.114v-.007Z" transform="translate(-277.558 -415.564)" fill="#e0e0e0"/><path d="M262.271,405.285a.335.335,0,0,0,.208.281l1.8.931a.5.5,0,0,1,.211.668,3.191,3.191,0,0,0-.177.487.8.8,0,0,1-.585.567l-.447.072-.772-.4a.337.337,0,0,1-.206-.29h0Z" transform="translate(-260.954 -401.403)" fill="#e0e0e0"/><path d="M258.844,415.039a.478.478,0,0,0,.024.134l.4,1.256a.708.708,0,0,0,.648.466l2.546-.077a1.006,1.006,0,0,1,.4.086l.024,2.325a1.019,1.019,0,0,0-.393-.084l-2.548.074a.7.7,0,0,1-.648-.466l-.4-1.253a.438.438,0,0,1-.022-.143l0,0Z" transform="translate(-258.844 -407.408)" fill="#e0e0e0"/><path d="M269.312,427.249a.338.338,0,0,0,.236.3l2.237.93a1.017,1.017,0,0,0,.583.033l.03,2.321-.075.016a1.229,1.229,0,0,1-.34,0,.435.435,0,0,1-.073-.016.461.461,0,0,1-.1-.03l-2.239-.933a.374.374,0,0,1-.194-.16.3.3,0,0,1-.04-.141Z" transform="translate(-265.288 -414.925)" fill="#e0e0e0"/><g transform="translate(0.122 0.123)"><path d="M272.2,409.766a.683.683,0,0,1-.562-.339l-.567-1.1a1.126,1.126,0,0,0-.824-.551c-.484-.043-.966-.109-1.432-.2a1.161,1.161,0,0,0-.212-.018,1.5,1.5,0,0,0-.776.208l-1.487.991a.87.87,0,0,1-.463.121.782.782,0,0,1-.293-.052l-2.239-.931a.24.24,0,0,1-.156-.158.227.227,0,0,1,.073-.2l1-1.078a.548.548,0,0,0,.15-.418.6.6,0,0,0-.233-.422,6.181,6.181,0,0,1-.6-.547,1.4,1.4,0,0,0-.9-.4l-2.567.074a.582.582,0,0,1-.528-.381l-.4-1.252a.318.318,0,0,1,.025-.267.3.3,0,0,1,.211-.135l2.417-.391a.92.92,0,0,0,.683-.656,3.377,3.377,0,0,1,.171-.469.624.624,0,0,0-.268-.827l-1.8-.93a.229.229,0,0,1-.14-.164.216.216,0,0,1,.093-.181l1.408-1.183a.861.861,0,0,1,.525-.168.68.68,0,0,1,.21.03l2.175.714a1.315,1.315,0,0,0,.4.057,1.6,1.6,0,0,0,.6-.11,10.739,10.739,0,0,1,1.143-.415.721.721,0,0,0,.5-.766l-.141-1.074a.362.362,0,0,1,.075-.278.346.346,0,0,1,.242-.13l2.78-.262.04,0a.682.682,0,0,1,.563.339l.567,1.1a1.126,1.126,0,0,0,.824.551c.489.043.971.11,1.432.2a1.191,1.191,0,0,0,.212.018,1.5,1.5,0,0,0,.776-.208l1.486-.991a.867.867,0,0,1,.464-.121.774.774,0,0,1,.292.052l2.239.931a.239.239,0,0,1,.156.158.227.227,0,0,1-.073.2l-1,1.078a.552.552,0,0,0-.15.419.6.6,0,0,0,.233.422,6.183,6.183,0,0,1,.6.547,1.4,1.4,0,0,0,.9.4l2.566-.074a.582.582,0,0,1,.528.381l.4,1.253a.318.318,0,0,1-.024.266.3.3,0,0,1-.212.136l-2.417.391a.919.919,0,0,0-.683.656,3.3,3.3,0,0,1-.171.469.625.625,0,0,0,.268.827l1.8.93a.229.229,0,0,1,.14.164.216.216,0,0,1-.094.181l-1.408,1.183a.862.862,0,0,1-.525.168.686.686,0,0,1-.209-.03l-2.175-.714a1.313,1.313,0,0,0-.4-.057,1.592,1.592,0,0,0-.6.111,10.95,10.95,0,0,1-1.143.415.721.721,0,0,0-.5.766l.141,1.073a.364.364,0,0,1-.075.278.346.346,0,0,1-.242.13l-2.78.262ZM271.23,399.4a6.938,6.938,0,0,0-4.333,1.317,2.325,2.325,0,0,0-.95,2.132,3.5,3.5,0,0,0,2.372,2.425,8.387,8.387,0,0,0,3.19.6,6.934,6.934,0,0,0,4.332-1.317,2.326,2.326,0,0,0,.95-2.133A3.505,3.505,0,0,0,274.419,400,8.377,8.377,0,0,0,271.23,399.4Z" transform="translate(-259.163 -395.505)" fill="#f5f5f5"/></g><path d="M270.34,395.431h0a.567.567,0,0,1,.454.273l.567,1.1a1.246,1.246,0,0,0,.923.617c.482.042.96.108,1.421.2a1.289,1.289,0,0,0,.235.02,1.624,1.624,0,0,0,.843-.229l1.487-.991a.755.755,0,0,1,.4-.1.66.66,0,0,1,.246.042l2.238.931c.056.023.08.052.084.071a.122.122,0,0,1-.043.09l-1,1.078a.672.672,0,0,0-.182.51.718.718,0,0,0,.279.509,6.068,6.068,0,0,1,.592.536,1.513,1.513,0,0,0,.986.441h.025l2.553-.074a.462.462,0,0,1,.4.3l.4,1.252a.2.2,0,0,1-.012.165.175.175,0,0,1-.127.078l-2.417.391a1.048,1.048,0,0,0-.781.744,3.194,3.194,0,0,1-.164.451.746.746,0,0,0,.323.986l1.8.931c.052.027.072.056.074.068s-.008.038-.051.073l-1.408,1.183a.744.744,0,0,1-.446.14.558.558,0,0,1-.171-.024l-2.175-.714a1.442,1.442,0,0,0-.442-.063,1.714,1.714,0,0,0-.653.121,10.825,10.825,0,0,1-1.13.41.846.846,0,0,0-.581.9l.141,1.074a.242.242,0,0,1-.05.185.224.224,0,0,1-.157.084l-2.781.262h-.029a.566.566,0,0,1-.454-.273l-.567-1.1a1.244,1.244,0,0,0-.923-.617c-.482-.043-.96-.108-1.421-.2a1.284,1.284,0,0,0-.235-.02,1.623,1.623,0,0,0-.843.229l-1.487.991a.757.757,0,0,1-.4.1.667.667,0,0,1-.246-.042l-2.239-.931c-.056-.023-.08-.051-.084-.07a.12.12,0,0,1,.043-.09l1-1.078a.67.67,0,0,0,.182-.51.718.718,0,0,0-.279-.509,6.03,6.03,0,0,1-.592-.537,1.512,1.512,0,0,0-.986-.44h-.025l-2.552.074a.462.462,0,0,1-.4-.3l-.4-1.252a.2.2,0,0,1,.012-.165.175.175,0,0,1,.127-.078l2.416-.391a1.047,1.047,0,0,0,.781-.744,3.243,3.243,0,0,1,.165-.451.746.746,0,0,0-.323-.986l-1.8-.931c-.052-.027-.073-.056-.074-.068s.008-.038.05-.073l1.408-1.183a.742.742,0,0,1,.446-.14.558.558,0,0,1,.171.024l2.175.714a1.453,1.453,0,0,0,.442.063,1.714,1.714,0,0,0,.653-.121,10.765,10.765,0,0,1,1.13-.41.846.846,0,0,0,.581-.9l-.14-1.074a.243.243,0,0,1,.049-.186.228.228,0,0,1,.157-.084l2.781-.261.029,0m.973,10.368a6.957,6.957,0,0,0,4.411-1.346,2.442,2.442,0,0,0,.992-2.245,3.617,3.617,0,0,0-2.446-2.519,8.5,8.5,0,0,0-3.237-.611,6.961,6.961,0,0,0-4.411,1.346,2.443,2.443,0,0,0-.992,2.245,3.619,3.619,0,0,0,2.445,2.519,8.508,8.508,0,0,0,3.238.611m-.973-10.613a.464.464,0,0,0-.052,0l-2.781.261a.478.478,0,0,0-.427.546l.141,1.074a.6.6,0,0,1-.409.633,10.947,10.947,0,0,0-1.156.42,1.482,1.482,0,0,1-.556.1,1.212,1.212,0,0,1-.366-.05l-2.175-.714a.8.8,0,0,0-.248-.036.983.983,0,0,0-.6.2L260.3,398.8a.308.308,0,0,0,.068.547l1.8.93a.5.5,0,0,1,.212.668,3.465,3.465,0,0,0-.177.486.806.806,0,0,1-.584.568l-2.417.391a.417.417,0,0,0-.333.56l.4,1.252a.705.705,0,0,0,.633.467h.015l2.544-.074h.018a1.276,1.276,0,0,1,.809.366,6.323,6.323,0,0,0,.616.558.441.441,0,0,1,.07.661l-1,1.078a.324.324,0,0,0,.127.554l2.239.931a.9.9,0,0,0,.34.061.99.99,0,0,0,.531-.142l1.486-.991a1.38,1.38,0,0,1,.708-.188,1.045,1.045,0,0,1,.189.016c.476.09.959.156,1.444.2a1,1,0,0,1,.726.485l.567,1.1a.807.807,0,0,0,.672.406l.052,0,2.781-.262a.477.477,0,0,0,.427-.545l-.14-1.074a.6.6,0,0,1,.409-.633,10.98,10.98,0,0,0,1.156-.42,1.482,1.482,0,0,1,.556-.1,1.21,1.21,0,0,1,.366.05l2.175.714a.8.8,0,0,0,.247.036.986.986,0,0,0,.6-.2l1.408-1.183a.308.308,0,0,0-.068-.547l-1.8-.931a.5.5,0,0,1-.213-.668,3.437,3.437,0,0,0,.177-.485.807.807,0,0,1,.584-.568l2.417-.391a.417.417,0,0,0,.333-.56l-.4-1.252a.7.7,0,0,0-.633-.467h-.015l-2.545.074h-.018a1.275,1.275,0,0,1-.809-.366,6.322,6.322,0,0,0-.616-.558.441.441,0,0,1-.07-.661l1-1.078a.324.324,0,0,0-.127-.554l-2.238-.931a.9.9,0,0,0-.34-.061.994.994,0,0,0-.531.142l-1.487.991a1.381,1.381,0,0,1-.707.188,1.048,1.048,0,0,1-.189-.016c-.476-.09-.959-.156-1.445-.2a1,1,0,0,1-.726-.485l-.567-1.1a.806.806,0,0,0-.671-.406Zm.973,10.368a8.293,8.293,0,0,1-3.143-.592c-2.426-1.009-3.049-2.957-1.39-4.35a6.793,6.793,0,0,1,4.253-1.288,8.29,8.29,0,0,1,3.143.592c2.426,1.009,3.049,2.957,1.39,4.35a6.792,6.792,0,0,1-4.253,1.288Z" transform="translate(-258.844 -395.186)" fill="#e0e0e0"/></g></g><g transform="translate(65.522 -2.628)"><path d="M162,207.7a1.171,1.171,0,0,1-.951-.444,2.146,2.146,0,0,1-.383-1.344V94.206a6.084,6.084,0,0,1,1.9-4.07l.079-.072c.06-.055.119-.11.18-.162a4.516,4.516,0,0,1,.539-.367l13.35-7.709s.39-.227.869-.5a.587.587,0,0,1,.284-.091c.24,0,.266.284.266.407a.727.727,0,0,0,.707.818h0a1.091,1.091,0,0,0,.546-.165l15.558-8.981a2.2,2.2,0,0,0,1.037-1.725,1.751,1.751,0,0,1,.689-1.282c.025-.017.049-.031.072-.045L209.8,62.722l.279-.163a3.027,3.027,0,0,1,1.471-.452c1.084,0,1.757.888,1.757,2.316V175.258a5.964,5.964,0,0,1-2.7,4.676l-47.464,27.4A2.347,2.347,0,0,1,162,207.7Z" transform="translate(-160.451 -61.893)" fill="#fff" opacity="0.85"/><path d="M211.207,61.978h0c.966,0,1.542.786,1.542,2.1V174.914a5.814,5.814,0,0,1-2.59,4.491l-47.465,27.4a2.138,2.138,0,0,1-1.04.329c-.7,0-1.119-.588-1.119-1.575V93.863a5.85,5.85,0,0,1,1.827-3.909l.088-.08c.056-.052.111-.1.156-.141a4.345,4.345,0,0,1,.519-.355l13.352-7.71s.389-.226.87-.5a.387.387,0,0,1,.184-.063.315.315,0,0,1,.042.194.938.938,0,0,0,.921,1.032,1.3,1.3,0,0,0,.652-.193l15.559-8.982a2.434,2.434,0,0,0,1.144-1.91,1.539,1.539,0,0,1,.6-1.109.609.609,0,0,1,.055-.033l13.061-7.538.276-.161a2.818,2.818,0,0,1,1.365-.424m0-.429a3.21,3.21,0,0,0-1.579.481l-.279.163L196.291,69.73a1.035,1.035,0,0,0-.09.056,1.97,1.97,0,0,0-.78,1.458,2,2,0,0,1-.93,1.539l-15.558,8.982a.886.886,0,0,1-.438.136c-.293,0-.492-.22-.492-.6s-.2-.622-.48-.622a.79.79,0,0,0-.39.12c-.48.274-.87.5-.87.5l-13.35,7.708a4.78,4.78,0,0,0-.57.39c-.09.077-.176.158-.266.24a6.269,6.269,0,0,0-1.968,4.227v111.7c0,1.27.63,2,1.548,2a2.536,2.536,0,0,0,1.256-.387l47.464-27.4a6.211,6.211,0,0,0,2.8-4.862V64.08c0-1.6-.8-2.531-1.971-2.531Z" transform="translate(-160.107 -61.549)" fill="#455a64"/><g transform="translate(15.719 28.648)"><path d="M237.72,145.561c0-6.209-2.939-9.8-7.064-9.454l-1.039,4.346c2.983-.253,5.11,2.349,5.11,6.836a19.921,19.921,0,0,1-5.016,12.63l-.816-2.468-3.392,9.118,6.071-1.017-.823-2.488A27.545,27.545,0,0,0,237.72,145.561Z" transform="translate(-216.087 -136.084)" opacity="0.25"/><path d="M209.012,145.229l.816,2.468,3.392-9.118-6.071,1.017.823,2.488a27.544,27.544,0,0,0-6.968,17.5c0,6.209,2.939,9.8,7.063,9.454l1.039-4.346c-2.983.253-5.11-2.349-5.11-6.836A19.92,19.92,0,0,1,209.012,145.229Z" transform="translate(-201.004 -137.62)" opacity="0.25"/><g transform="translate(1.386 0.824)"><g transform="translate(9.417)"><path d="M244.448,149.509c0-4.353-1.445-7.418-3.729-8.743-.525-.3-2.625-1.519-3.159-1.825a5.6,5.6,0,0,0-3.3-.69l-1.039,4.345,3.123,1.8a4.5,4.5,0,0,1,.659,0,8.675,8.675,0,0,1,1.328,5.037,19.944,19.944,0,0,1-3.9,11.276L232.5,159.6l-3.392,9.118,3.123,1.8L238.3,169.5l-.823-2.488A27.544,27.544,0,0,0,244.448,149.509Z" transform="translate(-229.109 -138.228)" fill="#12263f"/><path d="M235.623,195.622l-3.123-1.8-3.392,9.118,3.123,1.8Z" transform="translate(-229.109 -172.452)" fill="#b0c0d2"/><g transform="translate(3.123 1.803)" opacity="0.2"><path d="M242.93,143.111c3.844,0,6.328,3.645,6.328,9.285a27.507,27.507,0,0,1-6.917,17.372l-.077.083.036.108.752,2.275-5.522.925,3.085-8.294.645,1.949.1.311.221-.241a19.969,19.969,0,0,0,5.066-12.76c0-4.28-1.926-7.045-4.908-7.045l-.147,0,.946-3.957c.131-.008.261-.012.389-.012m0-.192q-.268,0-.544.023l-1.038,4.346q.2-.017.394-.017c2.774,0,4.715,2.566,4.715,6.853a19.92,19.92,0,0,1-5.016,12.63l-.816-2.468-3.392,9.118,6.071-1.017-.823-2.488a27.544,27.544,0,0,0,6.969-17.5c0-5.933-2.684-9.477-6.52-9.477Z" transform="translate(-237.233 -142.919)" fill="#fafafa"/></g><path d="M248.816,140.676a5.642,5.642,0,0,0-3.179-.623l-3.121-1.8a5.57,5.57,0,0,1,3.3.692C246.306,139.223,248.116,140.268,248.816,140.676Z" transform="translate(-237.363 -138.227)" fill="#b0c0d2"/></g><g transform="translate(0 0.959)"><path d="M216.556,151.644l3.392-9.118-3.123-1.8-6.071,1.017.823,2.488a27.542,27.542,0,0,0-6.968,17.5c0,4.361,1.451,7.43,3.743,8.75.521.3,2.6,1.5,3.12,1.8a5.593,5.593,0,0,0,3.324.7l1.039-4.346-3.123-1.8a4.547,4.547,0,0,1-.659,0,8.674,8.674,0,0,1-1.328-5.037,19.948,19.948,0,0,1,3.9-11.276Z" transform="translate(-204.609 -140.723)" fill="#727997"/><g transform="translate(3.123 1.803)" opacity="0.2"><path d="M224.654,145.658l-3.085,8.294L220.924,152l-.1-.311-.221.241a19.968,19.968,0,0,0-5.066,12.76c0,4.28,1.926,7.045,4.908,7.045l.147,0-.946,3.957c-.131.008-.261.012-.389.012-3.844,0-6.327-3.645-6.327-9.285a27.507,27.507,0,0,1,6.917-17.373l.076-.083-.035-.108-.752-2.275,5.522-.925m.3-.244-6.071,1.017.823,2.488a27.544,27.544,0,0,0-6.968,17.5c0,5.933,2.683,9.477,6.52,9.477q.268,0,.544-.023l1.039-4.346c-.133.011-.265.017-.394.017-2.774,0-4.716-2.566-4.716-6.853a19.92,19.92,0,0,1,5.016-12.63l.816,2.468,3.392-9.118Z" transform="translate(-212.734 -145.414)" fill="#fafafa"/></g><g transform="translate(6.145 1.017)"><path d="M221.42,145.858l3.123,1.8-.823-2.488-3.123-1.8Z" transform="translate(-220.598 -143.37)" fill="#12263f"/><path d="M221.42,145.858l3.123,1.8-.823-2.488-3.123-1.8Z" transform="translate(-220.598 -143.37)" fill="#12263f" opacity="0.25"/></g><g transform="translate(7.443 8.454)"><path d="M227.661,162.718c-.384.423-.757.876-1.111,1.353l1.93,1.115Zm-3.687,17.666a4.047,4.047,0,0,0,3.783,1.8l-3.125-1.8A4.184,4.184,0,0,1,223.974,180.384Z" transform="translate(-223.974 -162.718)" fill="#12263f"/><path d="M227.661,162.718c-.384.423-.757.876-1.111,1.353l1.93,1.115Zm-3.687,17.666a4.047,4.047,0,0,0,3.783,1.8l-3.125-1.8A4.184,4.184,0,0,1,223.974,180.384Z" transform="translate(-223.974 -162.718)" fill="#12263f" opacity="0.25"/></g></g></g></g><g transform="translate(6.437 61.857)"><path d="M217.052,224.112c0-1.457-1.023-2.047-2.284-1.319l-35.628,20.581a5.049,5.049,0,0,0-2.284,3.956v.179c0,1.457,1.023,2.047,2.284,1.319l35.628-20.581a5.05,5.05,0,0,0,2.284-3.957Z" transform="translate(-176.855 -222.481)" opacity="0.25"/><g transform="translate(1.406 0.966)"><path d="M220.041,225.148a1.605,1.605,0,0,0-1.616.16L182.8,245.889a5.048,5.048,0,0,0-2.284,3.957v.179a1.606,1.606,0,0,0,.669,1.479l2.236,1.29a1.605,1.605,0,0,0,1.615-.16l35.628-20.581a5.05,5.05,0,0,0,2.284-3.957v-.179a1.606,1.606,0,0,0-.667-1.477C221.864,226.2,220.454,225.387,220.041,225.148Z" transform="translate(-180.512 -224.995)" fill="#455a64"/><path d="M180.512,286.042v.179a1.606,1.606,0,0,0,.669,1.479l2.236,1.29a1.568,1.568,0,0,0,1.541-.121V286l-3.777-2.2A4.667,4.667,0,0,0,180.512,286.042Z" transform="translate(-180.512 -261.193)" fill="#263238"/><path d="M226.526,229.982c0-1.457-1.023-2.047-2.284-1.319l-35.628,20.581a5.048,5.048,0,0,0-2.284,3.957v.179c0,1.457,1.023,2.047,2.284,1.319l35.628-20.581a5.05,5.05,0,0,0,2.284-3.957Z" transform="translate(-184.093 -227.061)" fill="#37474f"/><g transform="translate(3.004 2.058)"><path d="M188.328,292.992v0Z" transform="translate(-188.328 -268.912)" fill="#37474f"/><path d="M188.824,286.954a1.306,1.306,0,0,0,.635-.209l2.735-1.58v-3.679l-1.966,1.136a4.269,4.269,0,0,0-1.9,3.285v.184C188.329,286.414,188.393,286.954,188.824,286.954Z" transform="translate(-188.329 -261.832)" fill="#ffd800"/><path d="M198.387,277.909v3.679l3.866-2.233v-3.679Z" transform="translate(-194.521 -258.255)" fill="#ecce26"/><path d="M208.445,272.1v3.679l3.866-2.233v-3.679Z" transform="translate(-200.713 -254.678)" fill="#dcc129"/><path d="M218.5,266.289v3.679l3.866-2.233v-3.679Z" transform="translate(-206.905 -251.101)" fill="#bfa619"/><path d="M228.561,260.479v3.679l3.866-2.233v-3.679Z" transform="translate(-213.097 -247.524)" fill="#b3990d"/><path d="M238.619,254.669v3.679l3.866-2.233v-3.679Z" transform="translate(-219.289 -243.947)" fill="#937e05"/><path d="M248.677,248.858v3.679l3.866-2.233v-3.679Z" transform="translate(-225.481 -240.37)" fill="#aea263"/><path d="M258.735,243.048v3.679l3.866-2.233v-3.679Z" transform="translate(-231.673 -236.793)" fill="#dace8e"/><path d="M268.793,240.917l3.866-2.233V235l-3.866,2.233Z" transform="translate(-237.865 -233.216)" fill="#f6ebaf"/><path d="M282.222,230.351a1.3,1.3,0,0,0-.636.209l-2.735,1.58v3.678l1.966-1.135a4.27,4.27,0,0,0,1.9-3.291v-.179C282.717,230.891,282.653,230.351,282.222,230.351Z" transform="translate(-244.057 -230.351)" fill="#fffbe8"/></g></g><g transform="translate(14.852 20.756)"><path d="M217.1,295.048a.051.051,0,0,1,.066,0,.115.115,0,0,1,.028.085v.378a.268.268,0,0,1-.028.117.171.171,0,0,1-.066.081l-1.515.875a.05.05,0,0,1-.066-.005.112.112,0,0,1-.028-.085v-3.44a.276.276,0,0,1,.028-.118.175.175,0,0,1,.066-.08l.28-.162a.05.05,0,0,1,.066,0,.115.115,0,0,1,.028.085v2.918Z" transform="translate(-215.495 -286.46)" fill="#455a64"/><path d="M221.365,291.26a.684.684,0,0,1,.344-.108.407.407,0,0,1,.266.1.654.654,0,0,1,.18.269,1.314,1.314,0,0,1,.078.413c0,.031,0,.071,0,.121v.3q0,.072,0,.122a2.551,2.551,0,0,1-.08.5,2.371,2.371,0,0,1-.178.474,2.023,2.023,0,0,1-.266.4,1.364,1.364,0,0,1-.344.289.7.7,0,0,1-.344.108.417.417,0,0,1-.266-.094.624.624,0,0,1-.178-.268,1.417,1.417,0,0,1-.08-.412c0-.031,0-.07,0-.117s0-.1,0-.145,0-.1,0-.15,0-.092,0-.126a2.335,2.335,0,0,1,.078-.5,2.565,2.565,0,0,1,.18-.477,1.994,1.994,0,0,1,.266-.4A1.317,1.317,0,0,1,221.365,291.26Zm.419.956a.725.725,0,0,0-.05-.245.235.235,0,0,0-.1-.116.185.185,0,0,0-.128-.014.532.532,0,0,0-.142.058.8.8,0,0,0-.142.106.736.736,0,0,0-.128.161,1.01,1.01,0,0,0-.1.23,1.341,1.341,0,0,0-.05.3c0,.03,0,.066-.005.11s0,.088,0,.135,0,.091,0,.135,0,.077.005.1a.713.713,0,0,0,.05.246.231.231,0,0,0,.1.116.18.18,0,0,0,.128.013.506.506,0,0,0,.142-.058.8.8,0,0,0,.142-.106.708.708,0,0,0,.128-.161.994.994,0,0,0,.1-.23,1.356,1.356,0,0,0,.05-.3c0-.026,0-.061,0-.105v-.269C221.788,292.279,221.786,292.244,221.784,292.217Z" transform="translate(-218.57 -285.514)" fill="#455a64"/><path d="M225.868,289.4a1.484,1.484,0,0,1,.064-.277,1.83,1.83,0,0,1,.142-.321,1.779,1.779,0,0,1,.225-.314,1.259,1.259,0,0,1,.31-.25.759.759,0,0,1,.318-.112.346.346,0,0,1,.244.07.508.508,0,0,1,.157.258,1.546,1.546,0,0,1,.055.45v1.566a.272.272,0,0,1-.027.117.179.179,0,0,1-.066.081l-.263.152a.051.051,0,0,1-.066-.005.112.112,0,0,1-.028-.085v-.176a1.6,1.6,0,0,1-.209.384,1.118,1.118,0,0,1-.348.31.624.624,0,0,1-.266.092.273.273,0,0,1-.2-.059.412.412,0,0,1-.123-.193.956.956,0,0,1-.043-.307,1.362,1.362,0,0,1,.169-.673,1.931,1.931,0,0,1,.453-.544l.564-.475c0-.146-.031-.23-.093-.255a.271.271,0,0,0-.231.044.436.436,0,0,0-.135.115,1.009,1.009,0,0,0-.093.156.583.583,0,0,1-.057.091.218.218,0,0,1-.057.049l-.322.186a.05.05,0,0,1-.058,0C225.869,289.464,225.863,289.439,225.868,289.4Zm.578,1.168a.826.826,0,0,0,.209-.171,1.1,1.1,0,0,0,.154-.224,1.134,1.134,0,0,0,.093-.246.976.976,0,0,0,.031-.236v-.053l-.47.4a.886.886,0,0,0-.2.227.451.451,0,0,0-.063.231c0,.074.025.115.075.122A.28.28,0,0,0,226.445,290.569Z" transform="translate(-221.807 -283.65)" fill="#455a64"/><path d="M231.759,283.162a.629.629,0,0,1,.191-.079.414.414,0,0,1,.149-.006.268.268,0,0,1,.109.041.334.334,0,0,1,.073.061v-1.134a.274.274,0,0,1,.028-.118.177.177,0,0,1,.066-.08l.263-.151a.05.05,0,0,1,.066,0,.115.115,0,0,1,.028.086v3.494a.268.268,0,0,1-.028.116.173.173,0,0,1-.066.081l-.263.152a.049.049,0,0,1-.066,0,.114.114,0,0,1-.028-.085v-.123c-.018.043-.043.091-.073.146a1.3,1.3,0,0,1-.109.167,1.4,1.4,0,0,1-.149.166,1,1,0,0,1-.191.143.476.476,0,0,1-.313.077.39.39,0,0,1-.239-.139.84.84,0,0,1-.156-.309,1.707,1.707,0,0,1-.064-.435q0-.077,0-.184c0-.07,0-.133,0-.188a2.706,2.706,0,0,1,.064-.508,2.743,2.743,0,0,1,.156-.49,1.957,1.957,0,0,1,.239-.414A1.056,1.056,0,0,1,231.759,283.162Zm-.322,1.474a2.146,2.146,0,0,0,0,.3c.014.223.06.363.138.418a.251.251,0,0,0,.287-.014.761.761,0,0,0,.285-.319,1.273,1.273,0,0,0,.133-.519q.007-.084.007-.206c0-.082,0-.148-.007-.2a.49.49,0,0,0-.133-.36.237.237,0,0,0-.285.005.771.771,0,0,0-.287.317A1.4,1.4,0,0,0,231.437,284.636Z" transform="translate(-225.031 -279.686)" fill="#455a64"/><path d="M237.116,280.277a.05.05,0,0,1,.066,0,.116.116,0,0,1,.028.085v.415a.28.28,0,0,1-.028.117.176.176,0,0,1-.066.08l-.3.172a.05.05,0,0,1-.066,0,.114.114,0,0,1-.028-.085v-.416a.271.271,0,0,1,.028-.117.172.172,0,0,1,.066-.08Zm.076,3.594a.269.269,0,0,1-.028.117.173.173,0,0,1-.066.081l-.263.151a.05.05,0,0,1-.066,0,.114.114,0,0,1-.028-.085v-2.482a.275.275,0,0,1,.028-.118.179.179,0,0,1,.066-.081l.263-.151a.052.052,0,0,1,.066,0,.115.115,0,0,1,.028.086Z" transform="translate(-228.565 -278.812)" fill="#455a64"/><path d="M240.871,282.615a.27.27,0,0,1-.028.117.175.175,0,0,1-.065.081l-.263.151a.05.05,0,0,1-.066,0,.114.114,0,0,1-.027-.085v-1.353a.805.805,0,0,0-.1-.455q-.1-.136-.3-.02a.711.711,0,0,0-.289.359,1.469,1.469,0,0,0-.105.572v1.353a.268.268,0,0,1-.028.116.171.171,0,0,1-.066.081l-.263.152a.05.05,0,0,1-.066,0,.114.114,0,0,1-.028-.085v-2.482a.278.278,0,0,1,.028-.117.177.177,0,0,1,.066-.081l.263-.152a.052.052,0,0,1,.066,0,.115.115,0,0,1,.028.085v.123a1.949,1.949,0,0,1,.211-.351.953.953,0,0,1,.287-.256.59.59,0,0,1,.353-.1.329.329,0,0,1,.228.14.8.8,0,0,1,.123.326,2.665,2.665,0,0,1,.037.456Z" transform="translate(-230.078 -278.807)" fill="#455a64"/><path d="M245.423,280.249a.706.706,0,0,0,.149-.121.916.916,0,0,0,.138-.189,1.167,1.167,0,0,0,.1-.248,1.048,1.048,0,0,0,.04-.292v-.2q-.028.063-.073.146a1.309,1.309,0,0,1-.109.167,1.438,1.438,0,0,1-.149.166,1.02,1.02,0,0,1-.192.143.473.473,0,0,1-.313.077.386.386,0,0,1-.239-.139.844.844,0,0,1-.156-.309,1.712,1.712,0,0,1-.063-.435c0-.052,0-.113,0-.185s0-.134,0-.189a2.7,2.7,0,0,1,.063-.507,2.765,2.765,0,0,1,.156-.49,1.963,1.963,0,0,1,.239-.415,1.06,1.06,0,0,1,.313-.284.637.637,0,0,1,.192-.079.422.422,0,0,1,.149-.006.276.276,0,0,1,.109.042.339.339,0,0,1,.073.061v-.123a.28.28,0,0,1,.028-.117.175.175,0,0,1,.066-.08l.263-.152a.051.051,0,0,1,.066,0,.116.116,0,0,1,.027.086v2.5a2.431,2.431,0,0,1-.233,1.107,1.636,1.636,0,0,1-.645.7.826.826,0,0,1-.327.117.464.464,0,0,1-.261-.042.419.419,0,0,1-.177-.17.579.579,0,0,1-.073-.269.228.228,0,0,1,.026-.116.186.186,0,0,1,.067-.082l.236-.136a.066.066,0,0,1,.083,0,.641.641,0,0,1,.058.06.184.184,0,0,0,.123.078A.424.424,0,0,0,245.423,280.249Zm-.415-1.827a2.147,2.147,0,0,0,0,.3c.014.223.06.362.138.418a.251.251,0,0,0,.287-.014.764.764,0,0,0,.285-.319,1.262,1.262,0,0,0,.133-.52q.007-.083.007-.206c0-.082,0-.147-.007-.2a.486.486,0,0,0-.133-.36.236.236,0,0,0-.285.005.771.771,0,0,0-.287.317A1.407,1.407,0,0,0,245.008,278.422Z" transform="translate(-233.385 -276.483)" fill="#455a64"/><path d="M250.65,280.173a.05.05,0,0,1,.066.005.113.113,0,0,1,.028.085v.523a.271.271,0,0,1-.028.117.174.174,0,0,1-.066.08l-.322.186a.05.05,0,0,1-.066-.005.112.112,0,0,1-.027-.085v-.522a.272.272,0,0,1,.027-.117.182.182,0,0,1,.066-.081Z" transform="translate(-236.882 -278.749)" fill="#455a64"/><path d="M253,278.817a.05.05,0,0,1,.066.005.115.115,0,0,1,.028.085v.522a.274.274,0,0,1-.028.117.176.176,0,0,1-.066.081l-.322.185a.049.049,0,0,1-.066,0,.114.114,0,0,1-.028-.085V279.2a.272.272,0,0,1,.028-.117.169.169,0,0,1,.066-.08Z" transform="translate(-238.328 -277.914)" fill="#455a64"/><path d="M255.346,277.461a.05.05,0,0,1,.066,0,.115.115,0,0,1,.028.085v.522a.273.273,0,0,1-.028.117.173.173,0,0,1-.066.08l-.322.186a.05.05,0,0,1-.066-.005.115.115,0,0,1-.028-.085v-.522a.28.28,0,0,1,.028-.117.175.175,0,0,1,.066-.08Z" transform="translate(-239.773 -277.079)" fill="#455a64"/></g></g><g transform="translate(8.581 89.712)"><path d="M182.432,326.389V316.4a2.207,2.207,0,0,1,1-1.73l33.913-19.579c.551-.318,1-.06,1,.577v9.99a2.208,2.208,0,0,1-1,1.73l-33.913,19.58C182.879,327.284,182.432,327.025,182.432,326.389Z" transform="translate(-182.432 -294.953)" opacity="0.2"/><g transform="translate(1.289 0.698)"><path d="M224.384,299.175v9.554a2.182,2.182,0,0,1-.986,1.709l-33.847,19.553a2.178,2.178,0,0,1-1.971,0l-.808-.465a2.189,2.189,0,0,1-.981-1.708v-9.554a2.181,2.181,0,0,1,.986-1.709l33.847-19.548a2.178,2.178,0,0,1,1.971,0l.8.46A2.188,2.188,0,0,1,224.384,299.175Z" transform="translate(-185.789 -296.771)" fill="#12263f"/><path d="M185.785,360.688a2.18,2.18,0,0,0,.986,1.708l.8.464a2.2,2.2,0,0,0,1.8.079c-.464.176-.818-.086-.818-.648v-9.555a2.016,2.016,0,0,1,.289-.972l-2.774-1.6a2.016,2.016,0,0,0-.289.972Z" transform="translate(-185.785 -329.64)" opacity="0.2"/><path d="M224.815,298.9c-.115-.419-.5-.552-.952-.29L190.012,318.16a1.952,1.952,0,0,0-.694.736l-2.774-1.6a1.992,1.992,0,0,1,.695-.736l33.849-19.552a2.188,2.188,0,0,1,1.971,0l.8.464A2.177,2.177,0,0,1,224.815,298.9Z" transform="translate(-186.252 -296.771)" fill="#fff" opacity="0.3"/></g><g transform="translate(5.893 6.244)"><path d="M198.163,363.135a.409.409,0,0,1-.34-.082.583.583,0,0,1-.043-.09.353.353,0,0,1-.015-.115,1.61,1.61,0,0,1,.058-.4c.038-.149.082-.236.13-.265a.12.12,0,0,1,.1,0c.042.013.069.021.082.023a.5.5,0,0,0,.448-.051.861.861,0,0,0,.311-.327,1.062,1.062,0,0,0,.128-.534.571.571,0,0,0-.114-.417.779.779,0,0,0-.349-.162,1.125,1.125,0,0,1-.4-.172.734.734,0,0,1-.246-.348,1.855,1.855,0,0,1-.09-.642,2.616,2.616,0,0,1,.279-1.212,1.9,1.9,0,0,1,.728-.8,1.011,1.011,0,0,1,.337-.124.47.47,0,0,1,.28.02c.045.023.067.078.067.162a1.8,1.8,0,0,1-.053.394c-.035.154-.075.244-.12.27a.224.224,0,0,1-.111.012.625.625,0,0,0-.362.09.75.75,0,0,0-.306.332,1.022,1.022,0,0,0-.1.445.7.7,0,0,0,.065.337.311.311,0,0,0,.15.148c.056.022.158.055.306.1a.86.86,0,0,1,.506.328,1.456,1.456,0,0,1,.164.8,3.09,3.09,0,0,1-.118.847,2.49,2.49,0,0,1-.352.753,1.752,1.752,0,0,1-.562.524A1.182,1.182,0,0,1,198.163,363.135Z" transform="translate(-197.765 -339.644)" fill="#fff"/><path d="M203.8,359.041v-2.078l-.766-2.177a.357.357,0,0,1-.038-.148c0-.094.085-.19.255-.288l.193-.111a.412.412,0,0,1,.161-.063.065.065,0,0,1,.075.06l.458,1.65.453-2.184a.268.268,0,0,1,.077-.145.818.818,0,0,1,.164-.12l.154-.09q.265-.153.265-.012a1.31,1.31,0,0,1-.033.19l-.771,3.088v2.056a.413.413,0,0,1-.246.357l-.149.086Q203.8,359.256,203.8,359.041Z" transform="translate(-200.985 -337.097)" fill="#fff"/><path d="M209.714,356.466a.411.411,0,0,1-.34-.082.6.6,0,0,1-.043-.09.35.35,0,0,1-.015-.114,1.631,1.631,0,0,1,.058-.4c.039-.148.082-.236.13-.265a.124.124,0,0,1,.1,0,.838.838,0,0,0,.082.023.5.5,0,0,0,.448-.051.863.863,0,0,0,.311-.328,1.06,1.06,0,0,0,.128-.534.57.57,0,0,0-.113-.417.776.776,0,0,0-.349-.162,1.122,1.122,0,0,1-.4-.172.737.737,0,0,1-.246-.348,1.86,1.86,0,0,1-.089-.642,2.612,2.612,0,0,1,.279-1.212,1.9,1.9,0,0,1,.728-.8,1.018,1.018,0,0,1,.337-.124.471.471,0,0,1,.279.02c.045.024.067.078.067.162a1.786,1.786,0,0,1-.053.394c-.035.154-.075.244-.12.27a.218.218,0,0,1-.111.012.627.627,0,0,0-.362.09.751.751,0,0,0-.306.332,1.024,1.024,0,0,0-.1.446.693.693,0,0,0,.065.337.308.308,0,0,0,.149.148c.056.022.158.055.306.1a.858.858,0,0,1,.506.327,1.457,1.457,0,0,1,.164.8,3.09,3.09,0,0,1-.118.848,2.487,2.487,0,0,1-.352.753,1.749,1.749,0,0,1-.562.524A1.183,1.183,0,0,1,209.714,356.466Z" transform="translate(-204.876 -335.538)" fill="#fff"/><path d="M215.309,352.562V348.4l-.588.34c-.045.026-.077.018-.1-.022a.6.6,0,0,1-.029-.224V348.3a.93.93,0,0,1,.029-.258.218.218,0,0,1,.1-.133l1.823-1.052c.045-.026.078-.02.1.017a.537.537,0,0,1,.032.227v.193a.859.859,0,0,1-.032.263.225.225,0,0,1-.1.131l-.588.339v4.163a.413.413,0,0,1-.246.358l-.154.089C215.39,352.73,215.309,352.706,215.309,352.562Z" transform="translate(-208.126 -333.14)" fill="#fff"/><path d="M220.98,349.774a.3.3,0,0,1-.039-.189V344.94a.572.572,0,0,1,.039-.234.292.292,0,0,1,.125-.135l1.407-.813c.045-.026.077-.018.1.022a.594.594,0,0,1,.029.225v.193a.923.923,0,0,1-.029.258.221.221,0,0,1-.1.133l-.93.537v1.292l.829-.479c.045-.027.077-.019.1.022a.588.588,0,0,1,.029.225v.193a.9.9,0,0,1-.029.258.221.221,0,0,1-.1.134l-.829.479v1.41l.935-.54c.042-.024.072-.017.092.021a.59.59,0,0,1,.029.228v.193a.9.9,0,0,1-.029.261.217.217,0,0,1-.092.128l-1.412.815C221.047,349.8,221.006,349.8,220.98,349.774Z" transform="translate(-212.033 -331.233)" fill="#fff"/><path d="M227.829,343.194c-.026-.007-.047-.033-.063-.079l-.429-1.013c-.019-.044-.04-.1-.063-.172s-.04-.125-.053-.162l-.019.018c.019.187.029.333.029.436v2.85a.344.344,0,0,1-.058.2.554.554,0,0,1-.188.161l-.13.075c-.086.05-.149.069-.188.056s-.058-.056-.058-.13v-4.794a.343.343,0,0,1,.058-.2.572.572,0,0,1,.188-.16l.135-.078a.255.255,0,0,1,.16-.047.134.134,0,0,1,.091.088l.66,1.563a2.555,2.555,0,0,1,.087.306,2.58,2.58,0,0,1,.082-.4l.656-2.323a.591.591,0,0,1,.094-.2.536.536,0,0,1,.162-.138l.13-.075a.272.272,0,0,1,.188-.057c.039.012.058.056.058.13v4.794a.341.341,0,0,1-.058.2.56.56,0,0,1-.188.161l-.125.072q-.13.076-.188.057t-.058-.13v-2.85q0-.156.029-.469l-.019,0q-.063.289-.12.47l-.424,1.507a.555.555,0,0,1-.065.153.285.285,0,0,1-.1.09l-.111.064A.139.139,0,0,1,227.829,343.194Z" transform="translate(-215.522 -328.263)" fill="#fff"/><path d="M237.241,339.592a1.206,1.206,0,0,1-.3-.97v-3.5a.413.413,0,0,1,.246-.357l.149-.086q.246-.142.246.073v3.458a.649.649,0,0,0,.135.468q.135.134.357.006a.906.906,0,0,0,.354-.416,1.444,1.444,0,0,0,.137-.625V334.19a.414.414,0,0,1,.246-.357l.145-.083q.246-.142.246.073v3.5a2.844,2.844,0,0,1-.3,1.314,2.109,2.109,0,0,1-.832.888Q237.54,339.828,237.241,339.592Z" transform="translate(-221.884 -325.046)" fill="#fff"/><path d="M244.3,336.54v-4.72a.561.561,0,0,1,.041-.232.31.31,0,0,1,.132-.143l.819-.473a.616.616,0,0,1,.651-.045q.284.166.284,1.071a3.2,3.2,0,0,1-.164,1.089,2.285,2.285,0,0,1-.366.69,1.489,1.489,0,0,1-.361.331l-.4.231v1.833a.417.417,0,0,1-.251.36l-.13.076C244.389,336.707,244.3,336.684,244.3,336.54Zm.974-3.219a.62.62,0,0,0,.229-.3,1.72,1.72,0,0,0,.1-.658.853.853,0,0,0-.1-.515.176.176,0,0,0-.239-.025l-.332.192v1.507Z" transform="translate(-226.416 -323.299)" fill="#fff"/><path d="M252.291,328.969v2.182a.929.929,0,0,1-.292.584,2.554,2.554,0,0,1-.62.513q-.65.376-.967-.088a3.547,3.547,0,0,1-.316-1.814,6.21,6.21,0,0,1,.323-2.187,2.3,2.3,0,0,1,.984-1.224,1.311,1.311,0,0,1,.4-.156.561.561,0,0,1,.316.011.172.172,0,0,1,.12.168,1.455,1.455,0,0,1-.091.409.661.661,0,0,1-.163.318.2.2,0,0,1-.1-.007.6.6,0,0,0-.19-.005.706.706,0,0,0-.256.1,1.2,1.2,0,0,0-.515.736,5.171,5.171,0,0,0-.16,1.435,3.6,3.6,0,0,0,.154,1.276q.154.356.472.173a1.277,1.277,0,0,0,.279-.213v-1.284l-.3.175c-.045.026-.077.019-.1-.023a.6.6,0,0,1-.028-.224v-.193a.93.93,0,0,1,.028-.258.221.221,0,0,1,.1-.134l.766-.443C252.236,328.733,252.291,328.791,252.291,328.969Z" transform="translate(-229.982 -320.78)" fill="#fff"/><path d="M257.283,329.026v-4.72a.568.568,0,0,1,.041-.231.3.3,0,0,1,.128-.141l.776-.448q.969-.559.969.851a2.532,2.532,0,0,1-.453,1.516v.03q.193.052.328.62l.289,1.265c0,.013.007.027.01.043a.205.205,0,0,1,.005.045c0,.113-.086.221-.261.321l-.14.081c-.151.087-.234.078-.251-.026l-.265-1.272a.506.506,0,0,0-.133-.272c-.05-.035-.126-.024-.229.036l-.178.1v1.833a.424.424,0,0,1-.256.362l-.13.075C257.367,329.194,257.283,329.171,257.283,329.026Zm.979-3.3a.6.6,0,0,0,.221-.328,1.733,1.733,0,0,0,.091-.588.845.845,0,0,0-.089-.471.168.168,0,0,0-.244-.027l-.328.189v1.425Z" transform="translate(-234.406 -318.665)" fill="#fff"/><path d="M263.014,325.577c0-.015,0-.058.01-.132l.79-5.221a.471.471,0,0,1,.26-.336l.256-.147q.231-.134.265.032l.786,4.311c.006.066.01.106.01.121q0,.149-.2.262l-.193.111q-.207.119-.227-.01l-.154-.928-.839.484-.154,1.106a.365.365,0,0,1-.207.261l-.193.111Q263.014,325.726,263.014,325.577Zm1.514-2.67-.261-1.579c-.023-.146-.042-.31-.058-.494l-.024.014q-.024.3-.058.56l-.255,1.877Z" transform="translate(-237.935 -316.421)" fill="#fff"/><path d="M270.113,321.675a.3.3,0,0,1-.038-.189v-4.645a.582.582,0,0,1,.038-.234.294.294,0,0,1,.125-.135l.878-.507q.612-.353.915.106a3.566,3.566,0,0,1,.3,1.787,6.207,6.207,0,0,1-.3,2.139,2.144,2.144,0,0,1-.915,1.163l-.878.507C270.181,321.7,270.139,321.7,270.113,321.675Zm.984-1.336a1.068,1.068,0,0,0,.438-.665,5.418,5.418,0,0,0,.145-1.438,3.643,3.643,0,0,0-.145-1.271q-.145-.329-.438-.159l-.371.214v3.533Z" transform="translate(-242.282 -314.038)" fill="#fff"/><path d="M277.35,317.229a.3.3,0,0,1-.039-.189v-4.645a.565.565,0,0,1,.039-.234.29.29,0,0,1,.125-.135l1.408-.813c.045-.026.077-.018.1.022a.59.59,0,0,1,.029.224v.193a.921.921,0,0,1-.029.258.22.22,0,0,1-.1.133l-.931.537v1.292l.829-.479c.045-.026.077-.019.1.022a.59.59,0,0,1,.029.225v.193a.9.9,0,0,1-.029.258.223.223,0,0,1-.1.134l-.829.479v1.41l.936-.54c.042-.024.072-.017.091.021a.591.591,0,0,1,.029.228v.193a.909.909,0,0,1-.029.261.216.216,0,0,1-.091.128l-1.413.815C277.417,317.254,277.375,317.257,277.35,317.229Z" transform="translate(-246.736 -311.198)" fill="#fff"/></g></g></g><g transform="translate(-15.438 1.509)"><path d="M159.115,25.524l-1.867-3.511,1.5-4.337V15.021l-4.6,2.655v2.655l1.977,3.424a.286.286,0,0,0,.135.119v0Z" transform="translate(-146.821 7.163)" fill="#b1b1b1"/><path d="M157.248,22.013l1.5-4.337V15.021l-4.6,2.655v2.655l1.977,3.424a.286.286,0,0,0,.135.119v0Z" transform="translate(-146.821 7.163)" opacity="0.1"/><path d="M156.985-39.813a3.047,3.047,0,0,0-1.379-2.388l-.279-.165a3.046,3.046,0,0,0-2.757,0l-16.113,9.275a3.047,3.047,0,0,0-1.378,2.388v17.946a3.047,3.047,0,0,0,1.378,2.388l.28.165a3.046,3.046,0,0,0,2.757,0l5.8-3.326,1.973,3.417a.294.294,0,0,0,.533-.051l2.085-6.018,5.719-3.3a3.046,3.046,0,0,0,1.378-2.388Z" transform="translate(-135.078 42.696)" fill="#636363"/><path d="M135.078,4.276a3.047,3.047,0,0,0,1.378,2.388l.28.165a3.08,3.08,0,0,0,2.521.111c-.649.245-1.143-.121-1.143-.907V-11.913a2.822,2.822,0,0,1,.4-1.359l-3.036-1.757a2.817,2.817,0,0,0-.4,1.359Z" transform="translate(-135.078 25.663)" fill="#b1b1b1"/><path d="M157.594-40.2c-.161-.585-.695-.772-1.331-.405l-16.116,9.277a2.73,2.73,0,0,0-.971,1.029l-3.035-1.755a2.782,2.782,0,0,1,.971-1.029l16.11-9.278a3.064,3.064,0,0,1,2.759,0l.283.167A3.041,3.041,0,0,1,157.594-40.2Z" transform="translate(-135.732 42.692)" fill="#fff" opacity="0.5"/><path d="M163.593-13.994v-1.9a.123.123,0,0,0-.187-.121l-1.465.661a.174.174,0,0,1-.244-.113,3.281,3.281,0,0,0-.327-.726.406.406,0,0,1-.022-.355l.977-1.969a.222.222,0,0,0-.086-.287l-1.06-.612a.222.222,0,0,0-.292.068l-1.217,1.83a.4.4,0,0,1-.319.158,3.29,3.29,0,0,0-.793.08.173.173,0,0,1-.219-.155l-.161-1.6a.123.123,0,0,0-.2-.1l-1.646.951a.443.443,0,0,0-.2.307l-.165,1.832a.614.614,0,0,1-.171.342,9.966,9.966,0,0,0-.914.968.315.315,0,0,1-.324.092l-1.057-.369a.258.258,0,0,0-.3.11l-1.21,2.1a.258.258,0,0,0,.053.312l.848.731a.315.315,0,0,1,.082.326,9.9,9.9,0,0,0-.381,1.276.613.613,0,0,1-.211.319l-1.5,1.059a.444.444,0,0,0-.168.324v1.9a.123.123,0,0,0,.188.121l1.465-.66a.174.174,0,0,1,.244.113,3.28,3.28,0,0,0,.327.726.4.4,0,0,1,.022.355l-.977,1.969a.222.222,0,0,0,.087.287l1.06.612a.222.222,0,0,0,.292-.068l1.217-1.83a.405.405,0,0,1,.319-.158,3.268,3.268,0,0,0,.793-.081.174.174,0,0,1,.22.155l.161,1.6a.123.123,0,0,0,.2.1l1.646-.951a.443.443,0,0,0,.2-.307l.165-1.832a.612.612,0,0,1,.171-.342,9.914,9.914,0,0,0,.914-.967.315.315,0,0,1,.324-.092l1.057.369a.258.258,0,0,0,.3-.11l1.21-2.1a.257.257,0,0,0-.053-.312l-.848-.731a.316.316,0,0,1-.082-.326,9.921,9.921,0,0,0,.381-1.276.61.61,0,0,1,.211-.319l1.5-1.059A.443.443,0,0,0,163.593-13.994Zm-6.437,5.978c-1.536.887-2.781.168-2.781-1.606a6.147,6.147,0,0,1,2.781-4.817c1.536-.887,2.781-.168,2.781,1.605A6.147,6.147,0,0,1,157.156-8.017Z" transform="translate(-144.707 28.383)" fill="#fafafa"/></g></g></svg>