<svg xmlns="http://www.w3.org/2000/svg" width="113.579" height="158.762" viewBox="0 0 113.579 158.762"><g transform="translate(-1220.494 -1032.482)"><path d="M1584.842,1280.264c3.17.526,5.45,2.168,6.22,5.377a6.839,6.839,0,0,1-5.258,8.419l-.944.212a8.05,8.05,0,0,1-5.388-1.884l-.577-.692a7.621,7.621,0,0,1-1.553-5.179l.225-.982a6.9,6.9,0,0,1,2.493-3.776l.84-.583a10.222,10.222,0,0,1,2.978-.922Z" transform="translate(-264.399 -183.59)" fill="#12263f"/><path d="M1605.835,1102.756c2.284-3.369,5.071-4.613,8.274-3.69a6.947,6.947,0,0,1-1.54,13.622c-.258.013-.516.023-.775.034l-.97-.073a7.126,7.126,0,0,1-5.275-9.088Z" transform="translate(-285.104 -49.118)" fill="#12263f"/><path d="M1511.693,1593.3a7.1,7.1,0,0,1,1.656,7.645,6.924,6.924,0,0,1-13.365-1.817c-.038-.342-.066-.685-.1-1.028a1.552,1.552,0,0,0,.1-.989,9.316,9.316,0,0,1,1.461-3.14l.685-.731a9.12,9.12,0,0,1,2.363-1.37l.988-.32a7.883,7.883,0,0,1,5.621,1.247Z" transform="translate(-207.017 -414.163)" fill="#12263f"/><path d="M1288.714,1178.491c-2.848-1.519-4.425-4.133-4.132-6.85a6.957,6.957,0,0,1,5.3-6.261,8.759,8.759,0,0,1,3.333-.062l.838.343c4.093,1.645,5.458,5.607,3.5,10.146a1.592,1.592,0,0,0-.587.786,7.2,7.2,0,0,1-7.3,2.26Z" transform="translate(-47.461 -98.329)" fill="#12263f"/><path d="M1298.523,1431.08c-3.835-1.654-5.39-3.932-5.143-7.527a7.553,7.553,0,0,1,2.3-4.612l.614-.465c4.787-2.275,8.407-1.1,10.585,3.438l.259.881a8.343,8.343,0,0,1-.571,4.631l-.486.813a7.8,7.8,0,0,1-6.626,3.075C1299.206,1431,1298.857,1431.064,1298.523,1431.08Z" transform="translate(-53.986 -285.169)" fill="#12263f"/><path d="M1473.112,1082.119a8.187,8.187,0,0,1,4.672-3.175,7,7,0,0,1,8.42,7.291,1.4,1.4,0,0,0-.129.951,7.161,7.161,0,0,1-4.289,5.044l-.928.34a13.615,13.615,0,0,1-2.9.093,1.326,1.326,0,0,0-.963-.221,8.021,8.021,0,0,1-3.647-2.919c-1.512-2.409-1.288-4.863-.248-7.35Z" transform="translate(-186.555 -34.322)" fill="#12263f"/><path d="M1232.555,1354.2c-2.214,1.906-4.675,2.688-7.523,1.62a6.947,6.947,0,0,1,2.348-13.454c.388-.006.777-.017,1.165-.025l.74.216a8.1,8.1,0,0,1,2.67,1.41l.818.716.928,1.339a2.106,2.106,0,0,0,.451,1.049,7.56,7.56,0,0,1-1.027,6.413Z" transform="translate(0 -229.595)" fill="#12263f"/><path d="M1283.375,1562.666c-.975,3.635-3.913,5.612-7.787,5.241a6.933,6.933,0,0,1-5.944-6.5,7.026,7.026,0,0,1,5.224-7.107,11.475,11.475,0,0,1,2.7-.171l.748.059c3.51,1.28,5.373,3.716,5.283,7.523Z" transform="translate(-36.399 -386.516)" fill="#12263f"/><path d="M1601.973,1460.036a6.94,6.94,0,0,1,1.392,13.63,7.881,7.881,0,0,1-4.917-.366l-.8-.483c-3.154-2.626-3.794-5.115-2.353-9.149a.167.167,0,0,1,.043-.12,7.317,7.317,0,0,1,5.693-3.514Z" transform="translate(-277.173 -316.798)" fill="#12263f"/><path d="M1355.354,1044.647a7.052,7.052,0,0,1,.767-10.88,6.7,6.7,0,0,1,7.191-.442,6.458,6.458,0,0,1,3.684,6.169q-.011.709-.024,1.418l-.243.861a7.735,7.735,0,0,1-4.5,4.419c-.336.015-.695-.074-.969.217a8.384,8.384,0,0,1-5.118-1.091Z" transform="translate(-98.292)" fill="#12263f"/><path d="M1322.724,1584.354l.221-.958c.337.069.672.148,1.011.206q13.478,2.282,26.958,4.559,8.9,1.5,17.806,2.99a1.55,1.55,0,0,1-.1.989q-12.014-2.046-24.027-4.092Q1333.658,1586.193,1322.724,1584.354Z" transform="translate(-75.748 -408.204)" fill="#12263f"/><path d="M1252.31,1249.348l-.74-.216a41.617,41.617,0,0,1,2.444-6.6c3.389-8.675,6.838-17.328,10.266-25.988l.95.359a3.4,3.4,0,0,0-.179.34Q1258.678,1233.295,1252.31,1249.348Z" transform="translate(-23.026 -136.382)" fill="#12263f"/><path d="M1608.851,1152.347l.97.073q-3.1,16.278-6.188,32.555c-.032.169-.04.342-.059.513l-.965-.007q1.08-5.756,2.161-11.512Q1606.807,1163.158,1608.851,1152.347Z" transform="translate(-283.131 -88.815)" fill="#12263f"/><path d="M1610.74,1366.313l-.938,0c-.391-3.8-.774-7.607-1.173-11.41q-1.108-10.573-2.229-21.144l.944-.212q1.709,16.191,3.417,32.382A2.306,2.306,0,0,1,1610.74,1366.313Z" transform="translate(-285.941 -223.075)" fill="#12263f"/><path d="M1559.6,1509.381l.8.483q-8.073,11.1-16.15,22.2a3.662,3.662,0,0,1-.449.438l-.584-.5c.2-.327.383-.67.609-.979Q1551.707,1520.194,1559.6,1509.381Z" transform="translate(-239.121 -353.362)" fill="#12263f"/><path d="M1329.32,1079.445l.789.671-11.259,22.012-.838-.342c1.607-3.212,3.2-6.432,4.825-9.636Q1326.061,1085.788,1329.32,1079.445Z" transform="translate(-72.257 -34.798)" fill="#12263f"/><path d="M1301.045,1492.069l-.748-.059c.207-3.04.876-6.011,1.336-9.013.648-4.234,1.353-8.459,2.034-12.687.335-.015.683-.084.934.234-.474,2.931-.938,5.863-1.423,8.791Q1302.123,1485.7,1301.045,1492.069Z" transform="translate(-59.131 -324.399)" fill="#12263f"/><path d="M1525.5,1108.442a1.4,1.4,0,0,1,.129-.951c5.066.382,10.134.747,15.2,1.156a41.259,41.259,0,0,1,5.884.57l-.285.806Z" transform="translate(-225.98 -55.578)" fill="#12263f"/><path d="M1405.576,1065.885l.243-.861c5.831,1.985,11.659,3.979,17.5,5.94.6.2.541.514.379.944l-.01.054a2.96,2.96,0,0,1-1.343-.338Q1413.959,1068.757,1405.576,1065.885Z" transform="translate(-137.138 -24.112)" fill="#12263f"/><path d="M1267.053,1386.079l.569-.716c1.852,1.864,3.723,3.709,5.549,5.6a34.424,34.424,0,0,1,3.636,3.816l-.614.465C1273.086,1392.248,1270.012,1389.22,1267.053,1386.079Z" transform="translate(-34.498 -261.47)" fill="#12263f"/><path d="M1506.349,1130.635q4.823,9.02,9.647,18.038,5.8,10.825,11.623,21.641l-.84.583-12.8-23.927q-4.279-8-8.556-16Z" transform="translate(-211.119 -72.727)" fill="#12263f"/><path d="M1460.1,1340.762q6.341-3.264,12.682-6.526,9.62-4.919,19.251-9.817l.577.692c-3.08,1.873-6.373,3.342-9.572,4.988-7.444,3.833-14.919,7.607-22.382,11.4Z" transform="translate(-177.537 -216.314)" fill="#12263f"/><path d="M1499.023,1284.231q-8.99-2.008-17.98-4.02c-3.141-.708-6.276-1.449-9.413-2.175l.437-.866q11.322,2.548,22.645,5.094c1.51.339,3.025.657,4.537.985Q1499.136,1283.741,1499.023,1284.231Z" transform="translate(-186.081 -181.303)" fill="#12263f"/><path d="M1342.977,1456.253q11.888,10.272,23.775,20.546,9.39,8.126,18.762,16.272l-.685.731c-4.084-3.567-8.158-7.146-12.255-10.7q-15.032-13.03-30.082-26.04Z" transform="translate(-90.395 -313.996)" fill="#12263f"/><path d="M1468.514,1470.162q-3.534-8.777-7.07-17.554-5.05-12.472-10.125-24.934a1.309,1.309,0,0,1,.833-.49q3.919,9.58,7.834,19.161,4.774,11.741,9.515,23.5Z" transform="translate(-171.032 -292.457)" fill="#12263f"/><path d="M1333.059,1206.174l21.847,12.284c.373.21.75.413,1.125.619l-.305.975-23.254-13.091A1.592,1.592,0,0,1,1333.059,1206.174Z" transform="translate(-82.971 -128.698)" fill="#12263f"/><path d="M1345.569,1420.1l17.8-5.2.321.833-17.861,5.247Z" transform="translate(-92.675 -283.36)" fill="#12263f"/><path d="M1455.336,1160.045q3.989-12.483,7.976-24.966c.39-1.222.759-2.451,1.138-3.677a1.326,1.326,0,0,1,.963.221q-4.382,13.644-8.768,27.287c-.156.486-.36.957-.541,1.435Z" transform="translate(-174.008 -73.281)" fill="#12263f"/><path d="M1306.129,1279.436q-19.941,8.806-39.881,17.612c-.235.1-.463.223-.7.336l-.818-.716q20.034-8.85,40.066-17.7c.312-.138.609-.307.914-.461Z" transform="translate(-32.781 -182.292)" fill="#12263f"/><path d="M1271.476,1356.556l37.811,8.288a1.589,1.589,0,0,1-.5.854l-36.861-8.094A2.106,2.106,0,0,1,1271.476,1356.556Z" transform="translate(-37.776 -240.125)" fill="#12263f"/><path d="M1499.583,1425.372a90.781,90.781,0,0,1-8.388-3.825c-8.615-4.034-17.206-8.122-25.806-12.189l.154-1.009q16.668,7.893,33.334,15.791c.445.211,1.194.275.75,1.111A.167.167,0,0,0,1499.583,1425.372Z" transform="translate(-181.457 -278.502)" fill="#12263f"/><path d="M1385.438,1085.4q3.467,11.937,6.935,23.873,2.521,8.657,5.064,17.308l-.757.5c-1.221-4.063-2.462-8.12-3.657-12.191q-4.295-14.629-8.554-29.269C1384.743,1085.326,1385.1,1085.416,1385.438,1085.4Z" transform="translate(-121.499 -39.209)" fill="#12263f"/><path d="M1426.267,1385.839l-.154,1.009a8.562,8.562,0,0,1-2.811,3.87,1.307,1.307,0,0,0-.833.49c-4.051,1.369-6.6.59-9.274-2.838l-.32-.833a7.307,7.307,0,0,1,.319-5.972,1.591,1.591,0,0,0,.5-.855,7.177,7.177,0,0,1,6.142-2.718l.789.032a7.875,7.875,0,0,1,4.121,2.414l.557.743A8.027,8.027,0,0,1,1426.267,1385.839Z" transform="translate(-142.181 -255.991)" fill="#12263f"/><path d="M1423.715,1242.534l.757-.5a8.1,8.1,0,0,1,5.389-.61l.768.3c3.653,1.995,4.785,4.556,3.89,8.8l-.437.866a7.158,7.158,0,0,1-5.773,3.767.787.787,0,0,0-.848,0,7.646,7.646,0,0,1-5.58-3.355l-.414-.932a7.32,7.32,0,0,1-.179-4.859l.305-.975A13.181,13.181,0,0,1,1423.715,1242.534Z" transform="translate(-148.533 -154.666)" fill="#12263f"/><path d="M1441.939,1294.693a.787.787,0,0,1,.848,0q-.433,7.221-.869,14.442c-.145,2.365-.309,4.728-.465,7.092l-.789-.032c-.4-1.192.02-2.374.09-3.551C1441.107,1306.658,1441.537,1300.676,1441.939,1294.693Z" transform="translate(-163.012 -194.193)" fill="#12263f"/></g></svg>