<svg xmlns="http://www.w3.org/2000/svg" width="209.571" height="209.691" viewBox="0 0 209.571 209.691"><g transform="translate(-910.492 -3521.414)"><g transform="translate(910.492 3521.414)"><path d="M1120.063,3695.913c-1.269,3.565-4.019,5.507-7.3,7.1-9.1,4.424-18.1,9.042-27.184,13.5a8.941,8.941,0,0,1-3.8.9q-44.886.074-89.771.019a4.056,4.056,0,0,0-3.3,1.325c-10.441,10.913-23.167,14.876-37.665,10.745-14.4-4.1-23.2-14.074-26.36-28.742-.731-3.4-.62-6.974-.908-10.621-.848-.3-1.927-.595-2.925-1.059-6.605-3.074-10.315-8.2-10.325-15.554q-.085-57.453-.019-114.907a16.729,16.729,0,0,1,16.858-16.91q33.8-.039,67.592,0a16.75,16.75,0,0,1,16.922,17.062q.029,37.07.007,74.14v2.826c3.022-3.171,5.689-5.919,8.261-8.753.257-.283.069-1.161-.153-1.656-2.32-5.175-1.826-10.088,1.731-14.448a12.705,12.705,0,0,1,13.406-4.609c5.617,1.28,8.974,4.948,10.322,10.506a2.547,2.547,0,0,1,.174,1.032c-.635,2.958,1.142,3.882,3.531,4.778,6.56,2.461,13.028,5.165,19.579,7.792a17.709,17.709,0,0,1,10.69-7.275v-27.115c-3.219-.858-6.417-1.45-9.425-2.557-15.941-5.867-26.065-22.07-24.205-38.509a37.3,37.3,0,0,1,31.669-33.122,7.343,7.343,0,0,0,1.186-.389h8.45a8.452,8.452,0,0,0,1.184.391c15.314,2.726,25.342,11.565,30.254,26.25.684,2.045,1.02,4.207,1.518,6.315v8.45a8.586,8.586,0,0,0-.393,1.189c-2.749,15.34-11.6,25.386-26.345,30.25a71.242,71.242,0,0,1-6.984,1.574v27.235c10.79,2.731,15.406,13.009,12.709,21.6a17.006,17.006,0,0,1-18.46,11.856,16.745,16.745,0,0,1-14.52-16.991c.07-2.351-.687-3.269-2.754-4.027-5.207-1.909-10.323-4.068-15.477-6.121-1.606-.64-3.219-1.262-4.745-1.86-5.247,5.7-9.745,6.661-17.568,3.834-4.288,4.493-8.636,9-12.9,13.584a3.669,3.669,0,0,0-.705,2.275c-.069,4.013-.032,8.027-.032,12.041v10.89h2.5q33.7,0,67.39.039a8.956,8.956,0,0,1,3.8.9c9.083,4.461,18.089,9.08,27.189,13.5,3.277,1.594,6.033,3.53,7.3,7.1ZM984.343,3664.6c6.558-6.865,13.056-13.6,19.445-20.438a5.272,5.272,0,0,0,1.3-3.279q.107-40.439.054-80.879c0-7.511-4.081-11.555-11.649-11.556q-32.2,0-64.408,0c-7.865,0-11.839,3.955-11.84,11.785q0,55.856,0,111.711c0,.7-.024,1.41.03,2.11.369,4.776,3.875,8.709,8.154,9.126l2.71-6.745A7.267,7.267,0,0,1,924,3668.9c.122-1.893-.011-3.8.032-5.7a6.64,6.64,0,0,1,6.6-6.563c1.548-.034,3.1.091,4.644-.027,3.718-.285,6.873.525,8.546,4.178C958.172,3654.128,971.556,3655.367,984.343,3664.6Zm68.114-105.971a30.425,30.425,0,1,0,30.333-30.46A30.613,30.613,0,0,0,1052.457,3558.629Zm-91.225,104.745a30.426,30.426,0,1,0,30.39,30.407A30.6,30.6,0,0,0,961.232,3663.375Zm115.207,33.892H998.692l-3.834,13.285H1076.4c-1.227-1.862-2.231-3.549-3.4-5.109a2.119,2.119,0,0,1-.041-2.976C1074.14,3700.907,1075.147,3699.217,1076.439,3697.266Zm-77.761-6.957h77.745c-1.217-1.845-2.2-3.522-3.376-5.059a2.231,2.231,0,0,1-.03-3.158c1.193-1.566,2.182-3.288,3.328-5.05H994.863Zm85.382,19.374c9.424-4.723,18.719-9.336,27.963-14.051,1.746-.891,1.661-2.576.03-3.673a8.26,8.26,0,0,0-.929-.493q-12.806-6.416-25.617-12.823a14.629,14.629,0,0,0-1.539-.566c-1.062,1.583-2.136,2.985-2.964,4.52a2.544,2.544,0,0,0,.023,2.151c1.614,2.635,3.343,5.2,5.124,7.73a1.949,1.949,0,0,1,0,2.622c-1.781,2.527-3.487,5.109-5.137,7.723a2.155,2.155,0,0,0-.238,1.8C1081.732,3706.322,1082.882,3707.908,1084.059,3709.683Zm8.957-69.94a10.136,10.136,0,1,0-10.11,10.112A10.3,10.3,0,0,0,1093.016,3639.743Zm-87.992,13.093-15.767,16.537.317.54h15.45Zm27.256-26.643a6.756,6.756,0,1,0-6.857-6.654A6.939,6.939,0,0,0,1032.281,3626.193ZM930.85,3663.467V3670c2.293.121,6.784-4.521,6.4-6.536Z" transform="translate(-910.492 -3521.414)" fill="#12263f"/><path d="M979.829,3601.268q14.787,0,29.574,0c4.672,0,7.377,2.667,7.383,7.28q.018,12.991,0,25.983c-.006,4.53-2.7,7.273-7.178,7.276q-30,.015-59.992,0c-4.384,0-7.16-2.74-7.168-7.071q-.025-13.2,0-26.405c.008-4.305,2.808-7.056,7.173-7.062Q964.725,3601.253,979.829,3601.268Zm30.065,33.707v-26.794H949.3v26.794Z" transform="translate(-928.911 -3567.459)" fill="#12263f"/><path d="M1026.4,3722.969c.639,7.715-2.3,10.31-10.225,10.291-7.532-.018-10.2-2.463-10.182-10.261.018-7.728,2.427-10.3,10.364-10.287C1023.958,3712.722,1027.05,3715.234,1026.4,3722.969Zm-6.892,3.307v-6.512h-6.518v6.512Z" transform="translate(-965.558 -3631.722)" fill="#12263f"/><path d="M1080.089,3733.281c-7.62.662-10.656-2.512-10.034-9.929.1-1.188,0-2.393.018-3.589a6.643,6.643,0,0,1,6.648-6.737q3.484-.06,6.97,0a6.614,6.614,0,0,1,6.637,6.748q.049,3.379,0,6.758a6.64,6.64,0,0,1-6.647,6.744C1082.484,3733.3,1081.286,3733.281,1080.089,3733.281Zm-3.133-13.417v6.512h6.528v-6.512Z" transform="translate(-1002.456 -3631.886)" fill="#12263f"/><path d="M952.566,3712.931c7.566-.643,10.171,2.355,10.174,10.13,0,7.818-2.653,10.255-10.172,10.277-7.93.023-10.873-2.574-10.247-10.276.068-.839.008-1.689.009-2.534.009-5.023,2.611-7.59,7.7-7.6Q951.3,3712.929,952.566,3712.931Zm3.131,13.429v-6.512H949.19v6.512Z" transform="translate(-928.798 -3631.801)" fill="#12263f"/><path d="M952.457,3797.057c-7.82.649-10.345-2.363-10.34-10.172,0-7.728,2.566-10.718,10.208-10.106,1.259.1,2.535-.02,3.8.026a6.643,6.643,0,0,1,6.38,6.356c.073,2.392.048,4.787.011,7.181a6.644,6.644,0,0,1-6.679,6.711C954.71,3797.077,953.584,3797.057,952.457,3797.057Zm-3.377-6.914h6.586v-6.474H949.08Z" transform="translate(-928.728 -3668.621)" fill="#12263f"/><path d="M1016.351,3776.8c7.611-.646,10.195,2.383,10.187,10.115s-2.448,10.311-10.365,10.292c-7.537-.017-10.2-2.466-10.184-10.26C1006.005,3779.216,1008.419,3776.155,1016.351,3776.8Zm-3.373,13.378h6.512v-6.528h-6.512Z" transform="translate(-965.558 -3668.63)" fill="#12263f"/><path d="M1090.265,3786.964c.654,7.7-2.434,10.229-10.067,10.236-7.816.007-10.344-2.5-10.339-10.316.005-7.719,2.56-10.719,10.21-10.1,1.189.1,2.393-.009,3.589.02a6.64,6.64,0,0,1,6.6,6.574C1090.29,3784.57,1090.264,3785.768,1090.265,3786.964Zm-13.424,3.235h6.547v-6.51h-6.547Z" transform="translate(-1002.388 -3668.621)" fill="#12263f"/><path d="M1295.923,3560.167v-6.529h6.638v6.623h10.116v10H1306.1v-3.141c-3.7,0-7.27-.168-10.812.071a2.974,2.974,0,0,0-2.718,3.453,3.2,3.2,0,0,0,3.179,3.1,41.017,41.017,0,0,0,5.909.034,10.227,10.227,0,0,1,11.1,9.24c.4,6.032-3.505,10.4-10.1,11.16v6.534h-6.689v-6.623h-10.117v-10h6.575v3.138c3.7,0,7.27.168,10.812-.071a2.973,2.973,0,0,0,2.715-3.454,3.2,3.2,0,0,0-3.182-3.1,41.262,41.262,0,0,0-5.909-.032,10.238,10.238,0,0,1-11.092-9.246C1285.388,3565.279,1289.283,3560.918,1295.923,3560.167Z" transform="translate(-1126.876 -3539.995)" fill="#12263f"/><path d="M1018.592,3889.633v-3.184c-3.5,0-6.864-.08-10.218.031a3.36,3.36,0,0,0-3.265,3.268,3.437,3.437,0,0,0,3.346,3.413c2.106.115,4.223.034,6.335.042,5.771.021,10.3,4.023,10.56,9.338.288,5.827-3.468,10.194-9.4,10.931a6.586,6.586,0,0,0-.709.182v6.428h-6.7v-6.529H998.468v-10.036h6.5c.066.956.136,1.97.219,3.182,3.421,0,6.782.081,10.137-.032a3.381,3.381,0,0,0,3.263-3.272,3.424,3.424,0,0,0-3.35-3.41c-2.106-.112-4.223-.032-6.335-.04-5.761-.022-10.3-4.043-10.555-9.344-.279-5.843,3.472-10.2,9.4-10.927a6.6,6.6,0,0,0,.71-.181v-6.428h6.7v6.529h10.073v10.036Z" transform="translate(-961.143 -3724.189)" fill="#12263f"/></g></g></svg>