<svg xmlns="http://www.w3.org/2000/svg" width="231.827" height="226.797" viewBox="0 0 231.827 226.797"><g transform="translate(6651.049 8312.309)"><path d="M756.392,2644.667c-.955-15.365,10.364-27.682,25.679-27.942,15.357-.262,27.4,11.523,26.322,27.033-.458,6.585,1.535,9.432,7.25,12.011,10.256,4.625,20.132,10.112,30.056,15.445,3.147,1.691,5.214,1.939,8.212-.848,10.139-9.425,23.568-10.062,34.255-2.223,9.781,7.175,12.995,21.029,7.513,32.391-5.677,11.768-17.671,17.02-31.539,13.3-3.24-.87-5.1-.486-6.614,2.306a14.177,14.177,0,0,1-.734,1.273c-9.886,14.481-9.753,14.394-.352,29.05,2.662,4.151,4.816,5.98,10.362,4.515,12.231-3.233,24.449,3.459,29.521,14.958a26.04,26.04,0,0,1-8.745,31.448c-10.18,7.419-24,7.114-33.006-1.938-4.241-4.266-7.338-3.922-11.944-1.675q-14.526,7.09-29.393,13.469c-3.735,1.6-4.879,3.539-4.623,7.731,1.008,16.487-10.614,28.794-26.384,28.546-15.536-.244-26.992-12.629-25.681-28.581.365-4.448-1.143-6-4.7-7.562-10.318-4.525-20.623-9.118-30.681-14.187-4.256-2.144-6.66-1.427-9.956,1.847a25.549,25.549,0,0,1-30.538,4.32,26.14,26.14,0,0,1-13.367-27.9c1.844-10.763,10.457-19.143,21.833-20.988,2.373-.386,5.2-.849,7.232.054,7.315,3.256,10.346-.927,13.716-6.354,8.115-13.071,7.6-17.68-3.412-29.049-2.686-2.769-4.877-1.193-7.294-.649-10.9,2.456-20.027-.63-26.817-9.322s-7.818-18.547-2.65-28.3c5.3-10.01,14.16-14.663,25.529-13.913,6.048.4,11.581,2.579,15.641,7.209,2.93,3.34,5.331,2.759,8.839.834,10.092-5.537,20.438-10.611,30.69-15.854C756.84,2651.935,756.846,2651.947,756.392,2644.667Zm48.794,147.228c-.749.933-1.514,1.854-2.245,2.8-1.38,1.786-2.538,3.37-.5,5.716,2.093,2.406,3.941,2.008,6.338.746,3.844-2.028,7.809-3.823,11.724-5.715,6.925-3.061,13.651-6.753,20.826-9.022,9-2.846,3.242-9.928,5.093-14.749,1.594-4.154-1.861-5.381-4.7-6.89-13.27-7.047-13.273-7.078-21.936,5.658-1.5,2.209-2.824,4.543-4.229,6.817A82.334,82.334,0,0,0,805.186,2791.895Zm-13.508.872c3.365,1.587,4.207-1.342,5.52-3.2,6.207-8.771,12.449-17.519,18.482-26.406,6.558-9.66,7.6-7.462-3.418-13.606-5.133-2.862-8.691-3.814-13.875,1.019-8.645,8.056-23.039,8.068-31.614.093-5.365-4.991-9.406-4.163-14.469-.877a31.916,31.916,0,0,1-5.137,2.807c-3.053,1.261-3.327,2.784-1.41,5.479,7.784,10.945,15.41,22,23.069,33.034,1.249,1.8,2.549,2.581,4.9,1.7A26.377,26.377,0,0,1,791.678,2792.767Zm28.753-86.274c-.717-1.171-1.554-2.652-2.5-4.062-6.113-9.154-12.427-18.179-18.306-27.481-3.3-5.225-6.121-9.7-13.626-6.416-2.6,1.138-6.526.666-9.341-.4-4.884-1.853-7.013.311-9.368,4.007-5.78,9.072-11.843,17.967-17.879,26.874-6.064,8.948-5.971,8.644,3.919,13.676,4.743,2.414,7.544,2.479,11.7-1.718,10.009-10.117,25.987-9.481,36.146,1,2.943,3.039,4.977,3.9,8.563,1.5,2.406-1.607,5.326-2.437,7.98-3.687C818.976,2709.2,820.608,2708.853,820.431,2706.493Zm-101.388,68.713c.883,3.622-2.556,8.08,3.482,10.567,11.534,4.75,22.758,10.252,34.083,15.5,2.128.988,3.835,1.638,5.836-.552s1.283-3.824-.085-5.779c-7.721-11.024-15.388-22.088-23.125-33.1-.94-1.336-1.985-3.705-3.743-2.928A115,115,0,0,0,719.865,2767C716.84,2768.934,719.771,2772.49,719.043,2775.206Zm41.541-116.623c-.962.437-1.639.711-2.285,1.044q-18.534,9.567-37.069,19.135c-1.33.685-2.354,1.358-2.668,3.1-1.819,10.134.714,14.973,10.427,19.467,1.551.718,3.115,1.4,4.66,2.135,1.775.84,3.2.688,4.388-1.1,8.391-12.584,16.872-25.107,25.207-37.726C765.425,2661.342,762.69,2660.036,760.583,2658.583Zm85.842,25.167c1.3-3.438-1.461-4.383-3.892-5.639-11.534-5.952-23.042-11.955-34.576-17.906-1.873-.967-3.683-2.593-5.83-.14-2,2.284-.771,3.992.484,5.87,7.9,11.809,15.839,23.591,23.637,35.468,1.655,2.521,3.281,3.137,6.055,1.789,7.561-3.676,17.467-5.384,13.882-17.752A4.979,4.979,0,0,1,846.425,2683.75Zm-45.287,133.677A18.52,18.52,0,1,0,782.5,2836C792.531,2836.188,801.085,2827.666,801.138,2817.427Zm-18.616-105.984a18.5,18.5,0,0,0-18.625,18.606,18.635,18.635,0,0,0,37.269.034A18.553,18.553,0,0,0,782.522,2711.443Zm-.333-49.969a18.6,18.6,0,1,0,.6-37.191,18.6,18.6,0,1,0-.6,37.191Zm-89.956,96.948c-10.256-.122-17.766,7.3-17.827,17.623-.062,10.371,8.285,19.24,18.03,19.159,9.207-.076,19.144-9.962,19.236-19.137C711.763,2766.926,702.529,2758.544,692.233,2758.421Zm64.262-26.807c-.362-9.437-.331-9.5-3.963-11.184-3.994-1.848-7.99-3.729-12.116-5.234-1.5-.549-12.261,14.092-12.32,16.444-.051,2.059,10.614,16.522,11.928,15.915a148.991,148.991,0,0,0,15.653-8.06C758.915,2737.5,755.942,2734.042,756.5,2731.614Zm52.446-1.449c-.965,5.537-1.707,9.442,3.844,11.36,4.108,1.418,7.77,4.085,11.774,5.873,1.542.689,12.027-12.6,12.24-15.27.231-2.891-10.333-17.561-12.365-16.8a81.385,81.385,0,0,0-14.621,6.641C806.28,2724.161,809.654,2728.384,808.941,2730.165Zm63.048,64.864a18.837,18.837,0,1,0-.109-37.672c-10.031.08-18.525,8.778-18.478,18.924A18.875,18.875,0,0,0,871.99,2795.029ZM711.707,2689.288a18.6,18.6,0,1,0-37.188-.608c.046,11.234,6.294,18.039,17.7,19.39C702.148,2709.247,711.625,2699.49,711.707,2689.288ZM872.4,2670.252a18.917,18.917,0,0,0-19,18.323,18.749,18.749,0,1,0,19-18.323ZM731.272,2750.2c-2.222-3.1-4.069-7.908-7.527-9.86-3.229-1.825-3.985,3.66-5.9,5.793-2.1,2.341-3.538,5.271-5.409,7.84-1.435,1.969-1.057,3.555.471,5.209,1.473,1.6,3.011,1.211,4.631.371,3.907-2.027,7.834-4.017,11.7-6.109C730.232,2752.905,731.565,2752.453,731.272,2750.2Zm110.543-10.674c-.468.409-.806.749-1.187,1.035-7.859,5.885-7.547,11.613.886,15.889q3.567,1.809,7.18,3.53a3.015,3.015,0,0,0,3.864-.99c1.012-1.161,1.748-2.335.717-3.875-3.242-4.835-6.448-9.695-9.736-14.5C843.179,2740.09,842.38,2739.868,841.815,2739.523Zm12.008-30.977c-1.719-2.451-2.454-5.535-6.092-4.276a50.709,50.709,0,0,0-4.631,2.122c-11.016,5.118-11.253,6.382-3.019,15.7.771.872,1.878,2.642,2.681,1.631C846.652,2718.821,850.175,2713.629,853.823,2708.547ZM731.656,2712.2c-.6-.833-.89-1.658-1.446-1.928-4.391-2.122-8.8-4.226-13.278-6.145-2.044-.876-2.942,1.012-4.122,2.213-1.925,1.957-.827,3.549.472,5.092,3.379,4.014,5.161,9.283,9.735,12.343.109.073.517-.1.634-.269C726.331,2719.751,728.987,2715.979,731.656,2712.2Z" transform="translate(-7317.697 -10929.029)" fill="#12263f"/><g transform="translate(-6974.581 -10934.658)"><g transform="translate(424.52 2719.188)"><path d="M453.006,2738.03v9.439H425.893v-9.455c-.146-.028-.274-.042-.4-.078a1.286,1.286,0,0,1-.972-1.277c-.009-1.327,0-2.653,0-3.98,0-.029.005-.059.009-.094h4.07v1.322h.669v-1.321h4.057v1.315h.684v-3.319a5.289,5.289,0,0,1-.7-.243,1.148,1.148,0,0,1-.643-1.045c-.022-1.387-.008-2.775-.008-4.19h.2c.762,0,1.523,0,2.285,0a.253.253,0,0,0,.238-.126q2-2.866,4-5.727a.885.885,0,0,1,.061-.067c.245.349.484.687.722,1.026q1.675,2.4,3.354,4.788a.29.29,0,0,0,.208.1c.755.007,1.511,0,2.266,0h.225v.206c0,1.265-.007,2.53,0,3.8a1.333,1.333,0,0,1-1.276,1.423.722.722,0,0,0-.079.014v3.362h.674v-1.317h4.064v1.32h.675v-1.322h4.072c0,.056.009.109.009.163,0,1.278.006,2.555,0,3.833a1.289,1.289,0,0,1-.763,1.277A4.252,4.252,0,0,1,453.006,2738.03Zm-17.614-5.446h2.686c0,.05.007.08.007.11q0,2.027,0,4.053a.8.8,0,0,1-.021.182,1.323,1.323,0,0,1-1.4,1.071h-9.4v8.122h8.128v-.2c0-.859,0-1.719,0-2.579a3.767,3.767,0,0,1,.473-1.847,4.062,4.062,0,0,1,7.643,1.707c.019.9.012,1.805.006,2.708,0,.176.046.226.224.226q3.85-.009,7.7,0h.206V2738h-.225q-4.587,0-9.174,0a1.755,1.755,0,0,1-.471-.059,1.272,1.272,0,0,1-.958-1.262c-.005-1.265,0-2.53,0-3.795,0-.1,0-.193,0-.307h2.686v-2.032h-8.1Zm6.749,13.542c0-1,.044-1.987-.01-2.965a2.707,2.707,0,0,0-5.4.285c0,.841,0,1.681,0,2.522,0,.053.006.1.01.158Zm-8.107-16.957H444.85v-2.689H443.5v1.334h-3.392v-1.334h-1.346v1.333h-3.392v-1.336h-1.341Zm2.682,7.463v-2.7h-1.336v1.337H431.99v-1.335h-1.353v1.335h-3.395v-1.33H425.9v2.7Zm5.459-.008h10.818v-2.692h-1.35v1.332h-3.4v-1.343c-.423,0-.827,0-1.232,0-.106,0-.118.059-.117.142,0,.227,0,.454,0,.682,0,.175,0,.349,0,.521h-3.4v-1.335h-1.329Zm-.014-10.166c0-.337,0-.661,0-.985a.342.342,0,0,0-.079-.161q-1-1.432-2-2.862c-.208-.3-.421-.593-.64-.9-.873,1.248-1.732,2.477-2.59,3.706-.045.064-.112.135-.114.2-.012.329-.005.659-.005.995h.691v-1.338h4.056v1.34Z" transform="translate(-424.52 -2719.188)" fill="#12263f" stroke="#12263f" stroke-width="2"/><path d="M1032.991,3287.389c-.43,0-.839,0-1.249-.005a.151.151,0,0,1-.1-.107c-.005-.662-.021-1.325,0-1.986a.674.674,0,0,1,1.346.083C1032.991,3286.035,1032.991,3286.7,1032.991,3287.389Z" transform="translate(-1009.259 -3263.832)" fill="#12263f" stroke="#12263f" stroke-width="2"/><path d="M590.443,3287.419c0-.527,0-1.029,0-1.531,0-.159,0-.319,0-.478a.629.629,0,0,1,.624-.708.641.641,0,0,1,.728.667c.013.638,0,1.275,0,1.913,0,.086-.016.139-.12.138C591.278,3287.417,590.874,3287.419,590.443,3287.419Z" transform="translate(-584.328 -3263.862)" fill="#12263f" stroke="#12263f" stroke-width="2"/></g></g><text transform="translate(-6535 -8103)" fill="#12263f" font-size="25" font-family="Roboto-Bold, Roboto" font-weight="700"><tspan x="-7.977" y="0">B</tspan></text><text transform="translate(-6625 -8144)" fill="#12263f" font-size="25" font-family="Roboto-Bold, Roboto" font-weight="700"><tspan x="-7.977" y="0">B</tspan></text><text transform="translate(-6625 -8231)" fill="#12263f" font-size="25" font-family="Roboto-Bold, Roboto" font-weight="700"><tspan x="-7.977" y="0">B</tspan></text><text transform="translate(-6535 -8278)" fill="#12263f" font-size="25" font-family="Roboto-Bold, Roboto" font-weight="700"><tspan x="-7.977" y="0">B</tspan></text><text transform="translate(-6446 -8231)" fill="#12263f" font-size="25" font-family="Roboto-Bold, Roboto" font-weight="700"><tspan x="-7.977" y="0">B</tspan></text><text transform="translate(-6446 -8145)" fill="#12263f" font-size="25" font-family="Roboto-Bold, Roboto" font-weight="700"><tspan x="-7.977" y="0">B</tspan></text></g></svg>