<svg xmlns="http://www.w3.org/2000/svg" width="264" height="267" viewBox="0 0 264 267"><g transform="translate(5831 8705)"><g transform="translate(-4867.151 -10298.059)"><g transform="translate(-952.969 1635.738)"><g transform="translate(0 0)"><path d="M-910.491,1729a16.74,16.74,0,0,1-5.337-.755,8.778,8.778,0,0,1-1.45-.683,1.613,1.613,0,0,1-.821-1.768,5.346,5.346,0,0,1,4.3-4.665.362.362,0,0,1,.255.048,5.015,5.015,0,0,0,3.347.859,4.707,4.707,0,0,0,2.472-.866.318.318,0,0,1,.215-.051,5.309,5.309,0,0,1,4.3,4.537c.014.108.02.217.037.324a1.5,1.5,0,0,1-.76,1.543,7.2,7.2,0,0,1-2.4.986,15.678,15.678,0,0,1-3.141.444C-909.868,1728.97-910.253,1728.989-910.491,1729Z" transform="translate(918.12 -1712.507)" fill="#12263f" stroke="#12263f" stroke-width="1"/><path d="M-898.376,1690.733a3.7,3.7,0,0,1-2.3-.957,4.777,4.777,0,0,1-1.7-3.614,3.978,3.978,0,0,1,3.508-3.986,3.987,3.987,0,0,1,4.471,3.563,4.733,4.733,0,0,1-2.981,4.784A9.148,9.148,0,0,1-898.376,1690.733Z" transform="translate(905.857 -1682.143)" fill="#12263f" stroke="#12263f" stroke-width="1"/></g></g><g transform="translate(-913.052 1634.366)"><g transform="translate(0)"><path d="M-729.785,1722.788a16.737,16.737,0,0,1-5.337-.755,8.783,8.783,0,0,1-1.45-.683,1.613,1.613,0,0,1-.821-1.768,5.346,5.346,0,0,1,4.3-4.665.361.361,0,0,1,.255.049,5.018,5.018,0,0,0,3.347.859,4.712,4.712,0,0,0,2.472-.866.316.316,0,0,1,.215-.051,5.31,5.31,0,0,1,4.3,4.537c.014.108.02.217.037.324a1.5,1.5,0,0,1-.76,1.543,7.2,7.2,0,0,1-2.4.986,15.691,15.691,0,0,1-3.141.443C-729.162,1722.758-729.547,1722.777-729.785,1722.788Z" transform="translate(737.414 -1706.296)" fill="#12263f" stroke="#12263f" stroke-width="1"/><path d="M-717.67,1684.521a3.7,3.7,0,0,1-2.3-.957,4.779,4.779,0,0,1-1.7-3.615,3.978,3.978,0,0,1,3.508-3.986,3.987,3.987,0,0,1,4.471,3.563,4.733,4.733,0,0,1-2.981,4.784A9.169,9.169,0,0,1-717.67,1684.521Z" transform="translate(725.151 -1675.932)" fill="#12263f" stroke="#12263f" stroke-width="1"/></g></g><g transform="translate(-828.573 1660.607)"><path d="M-341.576,1876.993a29.4,29.4,0,0,1-9.37-1.326,15.4,15.4,0,0,1-2.546-1.2,2.832,2.832,0,0,1-1.441-3.1,9.386,9.386,0,0,1,7.544-8.19.635.635,0,0,1,.447.086,8.808,8.808,0,0,0,5.876,1.508,8.271,8.271,0,0,0,4.34-1.521.558.558,0,0,1,.378-.089,9.322,9.322,0,0,1,7.541,7.966c.025.189.036.381.065.569a2.631,2.631,0,0,1-1.335,2.71,12.647,12.647,0,0,1-4.215,1.731,27.574,27.574,0,0,1-5.515.779C-340.484,1876.94-341.158,1876.973-341.576,1876.993Z" transform="translate(354.971 -1848.038)" fill="#12263f" stroke="#12263f" stroke-width="1"/><path d="M-320.307,1809.809a6.492,6.492,0,0,1-4.042-1.681,8.387,8.387,0,0,1-2.986-6.345,6.985,6.985,0,0,1,6.158-7,7,7,0,0,1,7.849,6.256,8.31,8.31,0,0,1-5.233,8.4A16.087,16.087,0,0,1-320.307,1809.809Z" transform="translate(333.441 -1794.729)" fill="#12263f" stroke="#12263f" stroke-width="1"/></g><g transform="translate(-828.573 1709.393)"><g transform="translate(0 0)"><path d="M-341.576,2097.845a29.4,29.4,0,0,1-9.37-1.326,15.38,15.38,0,0,1-2.546-1.2,2.832,2.832,0,0,1-1.441-3.1,9.386,9.386,0,0,1,7.544-8.19.634.634,0,0,1,.447.085,8.809,8.809,0,0,0,5.876,1.508,8.271,8.271,0,0,0,4.34-1.521.556.556,0,0,1,.378-.089,9.322,9.322,0,0,1,7.541,7.966c.025.19.036.381.065.57a2.63,2.63,0,0,1-1.335,2.709,12.652,12.652,0,0,1-4.215,1.731,27.574,27.574,0,0,1-5.515.779C-340.484,2097.793-341.158,2097.826-341.576,2097.845Z" transform="translate(354.971 -2068.891)" fill="#12263f" stroke="#12263f" stroke-width="1"/><path d="M-320.307,2030.662a6.491,6.491,0,0,1-4.042-1.681,8.388,8.388,0,0,1-2.986-6.345,6.984,6.984,0,0,1,6.158-7,7,7,0,0,1,7.849,6.256,8.31,8.31,0,0,1-5.233,8.4A16.058,16.058,0,0,1-320.307,2030.662Z" transform="translate(333.441 -2015.582)" fill="#12263f" stroke="#12263f" stroke-width="1"/></g></g><g transform="translate(-828.573 1756.275)"><g transform="translate(0 0)"><path d="M-341.576,2310.084a29.4,29.4,0,0,1-9.37-1.326,15.38,15.38,0,0,1-2.546-1.2,2.831,2.831,0,0,1-1.441-3.1,9.386,9.386,0,0,1,7.544-8.19.634.634,0,0,1,.447.085,8.809,8.809,0,0,0,5.876,1.508,8.271,8.271,0,0,0,4.34-1.521.558.558,0,0,1,.378-.089,9.322,9.322,0,0,1,7.541,7.966c.025.189.036.381.065.57a2.63,2.63,0,0,1-1.335,2.71,12.647,12.647,0,0,1-4.215,1.731,27.574,27.574,0,0,1-5.515.779C-340.484,2310.032-341.158,2310.065-341.576,2310.084Z" transform="translate(354.971 -2281.13)" fill="#12263f" stroke="#12263f" stroke-width="1"/><path d="M-320.307,2242.9a6.49,6.49,0,0,1-4.042-1.681,8.387,8.387,0,0,1-2.986-6.345,6.984,6.984,0,0,1,6.158-7,7,7,0,0,1,7.849,6.255,8.31,8.31,0,0,1-5.233,8.4A16,16,0,0,1-320.307,2242.9Z" transform="translate(333.441 -2227.821)" fill="#12263f" stroke="#12263f" stroke-width="1"/></g></g><g transform="translate(-924.534 1670.79)"><g transform="translate(0 0)"><path d="M-781.767,1887.682a16.749,16.749,0,0,1-5.337-.755,8.746,8.746,0,0,1-1.45-.683,1.613,1.613,0,0,1-.821-1.767,5.346,5.346,0,0,1,4.3-4.665.362.362,0,0,1,.255.048,5.017,5.017,0,0,0,3.347.859,4.712,4.712,0,0,0,2.472-.866.317.317,0,0,1,.215-.051,5.31,5.31,0,0,1,4.3,4.537c.014.108.02.217.037.324a1.5,1.5,0,0,1-.76,1.543,7.2,7.2,0,0,1-2.4.986,15.69,15.69,0,0,1-3.141.443C-781.144,1887.652-781.529,1887.67-781.767,1887.682Z" transform="translate(789.396 -1871.189)" fill="#12263f" stroke="#12263f" stroke-width="1"/><path d="M-769.652,1849.415a3.7,3.7,0,0,1-2.3-.958,4.776,4.776,0,0,1-1.7-3.614,3.978,3.978,0,0,1,3.508-3.986,3.987,3.987,0,0,1,4.471,3.563,4.733,4.733,0,0,1-2.981,4.784A9.184,9.184,0,0,1-769.652,1849.415Z" transform="translate(777.133 -1840.826)" fill="#12263f" stroke="#12263f" stroke-width="1"/></g></g><g transform="translate(-927.653 1729.285)"><g transform="translate(0)"><path d="M-795.884,2152.492a16.747,16.747,0,0,1-5.337-.755,8.756,8.756,0,0,1-1.45-.682,1.613,1.613,0,0,1-.821-1.768,5.346,5.346,0,0,1,4.3-4.665.361.361,0,0,1,.255.049,5.018,5.018,0,0,0,3.347.859,4.715,4.715,0,0,0,2.472-.866.318.318,0,0,1,.215-.051,5.31,5.31,0,0,1,4.3,4.538c.014.108.02.217.037.324a1.5,1.5,0,0,1-.761,1.543,7.2,7.2,0,0,1-2.4.986,15.707,15.707,0,0,1-3.141.443C-795.262,2152.462-795.646,2152.481-795.884,2152.492Z" transform="translate(803.514 -2135.999)" fill="#12263f" stroke="#12263f" stroke-width="1"/><path d="M-783.769,2114.225a3.7,3.7,0,0,1-2.3-.958,4.776,4.776,0,0,1-1.7-3.614,3.978,3.978,0,0,1,3.508-3.986,3.987,3.987,0,0,1,4.471,3.563,4.733,4.733,0,0,1-2.981,4.784A9.234,9.234,0,0,1-783.769,2114.225Z" transform="translate(791.25 -2105.635)" fill="#12263f" stroke="#12263f" stroke-width="1"/></g></g><g transform="translate(-939.135 1766.458)"><g transform="translate(0)"><path d="M-847.866,2320.773a16.748,16.748,0,0,1-5.337-.755,8.778,8.778,0,0,1-1.45-.683,1.613,1.613,0,0,1-.821-1.767,5.346,5.346,0,0,1,4.3-4.665.361.361,0,0,1,.254.049,5.018,5.018,0,0,0,3.346.859,4.711,4.711,0,0,0,2.472-.866.319.319,0,0,1,.215-.051,5.31,5.31,0,0,1,4.3,4.537c.014.108.02.217.037.325a1.5,1.5,0,0,1-.761,1.543,7.2,7.2,0,0,1-2.4.986,15.726,15.726,0,0,1-3.141.444C-847.243,2320.744-847.628,2320.762-847.866,2320.773Z" transform="translate(855.495 -2304.281)" fill="#12263f" stroke="#12263f" stroke-width="1"/><path d="M-835.751,2282.507a3.7,3.7,0,0,1-2.3-.957,4.777,4.777,0,0,1-1.7-3.614,3.979,3.979,0,0,1,3.508-3.986,3.987,3.987,0,0,1,4.471,3.563,4.733,4.733,0,0,1-2.981,4.784A9.28,9.28,0,0,1-835.751,2282.507Z" transform="translate(843.232 -2273.917)" fill="#12263f" stroke="#12263f" stroke-width="1"/></g></g><g transform="translate(-928.907 1799.389)"><g transform="translate(0 0)"><path d="M-801.56,2469.856a16.733,16.733,0,0,1-5.337-.755,8.751,8.751,0,0,1-1.45-.682,1.613,1.613,0,0,1-.821-1.767,5.346,5.346,0,0,1,4.3-4.665.361.361,0,0,1,.254.049,5.017,5.017,0,0,0,3.347.859,4.714,4.714,0,0,0,2.472-.867.317.317,0,0,1,.215-.051,5.31,5.31,0,0,1,4.3,4.538c.014.108.02.217.037.324a1.5,1.5,0,0,1-.761,1.543,7.2,7.2,0,0,1-2.4.986,15.708,15.708,0,0,1-3.141.443C-800.938,2469.826-801.322,2469.844-801.56,2469.856Z" transform="translate(809.19 -2453.364)" fill="#12263f" stroke="#12263f" stroke-width="1"/><path d="M-789.445,2431.589a3.7,3.7,0,0,1-2.3-.957,4.778,4.778,0,0,1-1.7-3.615,3.978,3.978,0,0,1,3.508-3.986,3.987,3.987,0,0,1,4.471,3.563,4.733,4.733,0,0,1-2.981,4.784A9.167,9.167,0,0,1-789.445,2431.589Z" transform="translate(796.926 -2423)" fill="#12263f" stroke="#12263f" stroke-width="1"/></g></g><g transform="translate(-953.228 1685.135)"><g transform="translate(0)"><path d="M-911.662,1952.623a16.747,16.747,0,0,1-5.337-.755,8.771,8.771,0,0,1-1.45-.683,1.613,1.613,0,0,1-.821-1.767,5.346,5.346,0,0,1,4.3-4.665.362.362,0,0,1,.254.049,5.016,5.016,0,0,0,3.347.859,4.711,4.711,0,0,0,2.472-.866.316.316,0,0,1,.215-.051,5.31,5.31,0,0,1,4.3,4.537c.014.108.02.217.037.324a1.5,1.5,0,0,1-.76,1.543,7.2,7.2,0,0,1-2.4.986,15.69,15.69,0,0,1-3.141.444C-911.04,1952.593-911.424,1952.612-911.662,1952.623Z" transform="translate(919.292 -1936.13)" fill="#12263f" stroke="#12263f" stroke-width="1"/><path d="M-899.547,1914.356a3.7,3.7,0,0,1-2.3-.957,4.778,4.778,0,0,1-1.7-3.614,3.978,3.978,0,0,1,3.508-3.986,3.986,3.986,0,0,1,4.471,3.563,4.733,4.733,0,0,1-2.981,4.784A9.109,9.109,0,0,1-899.547,1914.356Z" transform="translate(907.028 -1905.767)" fill="#12263f" stroke="#12263f" stroke-width="1"/></g></g><g transform="translate(-901.671 1663.621)"><g transform="translate(0)"><path d="M-681.093,1837.842a10.533,10.533,0,0,1-3.357-.475,5.524,5.524,0,0,1-.912-.429,1.015,1.015,0,0,1-.516-1.112,3.363,3.363,0,0,1,2.7-2.934.228.228,0,0,1,.16.031,3.152,3.152,0,0,0,2.1.54,2.961,2.961,0,0,0,1.555-.545.2.2,0,0,1,.135-.032,3.34,3.34,0,0,1,2.7,2.854c.009.068.013.137.023.2a.942.942,0,0,1-.478.97,4.528,4.528,0,0,1-1.51.62,9.861,9.861,0,0,1-1.976.279Z" transform="translate(685.892 -1827.468)" fill="#12263f" stroke="#12263f" stroke-width="1"/><path d="M-673.473,1813.772a2.325,2.325,0,0,1-1.448-.6,3,3,0,0,1-1.07-2.273,2.5,2.5,0,0,1,2.206-2.507,2.508,2.508,0,0,1,2.812,2.241,2.977,2.977,0,0,1-1.875,3.009A5.761,5.761,0,0,1-673.473,1813.772Z" transform="translate(678.178 -1808.369)" fill="#12263f" stroke="#12263f" stroke-width="1"/></g></g><g transform="translate(-914.28 1705.034)"><g transform="translate(0)"><path d="M-738.175,2025.324a10.518,10.518,0,0,1-3.357-.475,5.527,5.527,0,0,1-.912-.429,1.015,1.015,0,0,1-.516-1.112,3.363,3.363,0,0,1,2.7-2.934.226.226,0,0,1,.16.031,3.156,3.156,0,0,0,2.105.54,2.959,2.959,0,0,0,1.555-.545.2.2,0,0,1,.136-.032,3.34,3.34,0,0,1,2.7,2.854c.009.068.013.136.023.2a.942.942,0,0,1-.478.971,4.53,4.53,0,0,1-1.51.62,9.864,9.864,0,0,1-1.976.279Z" transform="translate(742.974 -2014.95)" fill="#12263f" stroke="#12263f" stroke-width="1"/><path d="M-730.554,2001.254a2.322,2.322,0,0,1-1.448-.6,3,3,0,0,1-1.07-2.273,2.5,2.5,0,0,1,2.206-2.507,2.507,2.507,0,0,1,2.812,2.241,2.977,2.977,0,0,1-1.875,3.009A5.747,5.747,0,0,1-730.554,2001.254Z" transform="translate(735.259 -1995.851)" fill="#12263f" stroke="#12263f" stroke-width="1"/></g></g><g transform="translate(-949.207 1747.446)"><g transform="translate(0)"><path d="M-896.292,2217.323a10.527,10.527,0,0,1-3.357-.475,5.484,5.484,0,0,1-.912-.429,1.015,1.015,0,0,1-.516-1.112,3.363,3.363,0,0,1,2.7-2.934.226.226,0,0,1,.16.031,3.155,3.155,0,0,0,2.105.54,2.962,2.962,0,0,0,1.555-.545.2.2,0,0,1,.135-.032,3.341,3.341,0,0,1,2.7,2.854c.009.068.013.136.023.2a.942.942,0,0,1-.478.971,4.527,4.527,0,0,1-1.51.62,9.879,9.879,0,0,1-1.976.279Z" transform="translate(901.091 -2206.95)" fill="#12263f" stroke="#12263f" stroke-width="1"/><path d="M-888.672,2193.253a2.325,2.325,0,0,1-1.448-.6,3.007,3.007,0,0,1-1.07-2.274,2.5,2.5,0,0,1,2.207-2.507,2.508,2.508,0,0,1,2.812,2.241,2.977,2.977,0,0,1-1.875,3.009A5.863,5.863,0,0,1-888.672,2193.253Z" transform="translate(893.377 -2187.85)" fill="#12263f" stroke="#12263f" stroke-width="1"/></g></g><g transform="translate(-908.781 1762.049)"><g transform="translate(0 0)"><path d="M-713.279,2283.431a10.539,10.539,0,0,1-3.357-.475,5.5,5.5,0,0,1-.912-.429,1.015,1.015,0,0,1-.516-1.112,3.363,3.363,0,0,1,2.7-2.934.228.228,0,0,1,.16.031,3.157,3.157,0,0,0,2.105.54,2.965,2.965,0,0,0,1.555-.545.2.2,0,0,1,.135-.032,3.34,3.34,0,0,1,2.7,2.854c.009.068.013.136.023.2a.942.942,0,0,1-.478.971,4.53,4.53,0,0,1-1.51.62,9.86,9.86,0,0,1-1.976.279Z" transform="translate(718.078 -2273.058)" fill="#12263f" stroke="#12263f" stroke-width="1"/><path d="M-705.659,2259.361a2.325,2.325,0,0,1-1.448-.6,3,3,0,0,1-1.07-2.273,2.5,2.5,0,0,1,2.206-2.508,2.508,2.508,0,0,1,2.812,2.241,2.978,2.978,0,0,1-1.875,3.009A5.793,5.793,0,0,1-705.659,2259.361Z" transform="translate(710.364 -2253.958)" fill="#12263f" stroke="#12263f" stroke-width="1"/></g></g><g transform="translate(-904.076 1782.95)"><g transform="translate(0 0)"><path d="M-691.98,2378.051a10.532,10.532,0,0,1-3.357-.475,5.539,5.539,0,0,1-.912-.429,1.014,1.014,0,0,1-.516-1.112,3.363,3.363,0,0,1,2.7-2.935.228.228,0,0,1,.16.031,3.157,3.157,0,0,0,2.105.54,2.961,2.961,0,0,0,1.555-.545.2.2,0,0,1,.135-.032,3.34,3.34,0,0,1,2.7,2.854c.009.068.013.137.023.2a.943.943,0,0,1-.478.971,4.53,4.53,0,0,1-1.51.62,9.863,9.863,0,0,1-1.976.279Z" transform="translate(696.779 -2367.677)" fill="#12263f" stroke="#12263f" stroke-width="1"/><path d="M-684.36,2353.981a2.33,2.33,0,0,1-1.448-.6,3.006,3.006,0,0,1-1.07-2.274,2.5,2.5,0,0,1,2.206-2.507,2.508,2.508,0,0,1,2.812,2.241,2.977,2.977,0,0,1-1.875,3.009A5.679,5.679,0,0,1-684.36,2353.981Z" transform="translate(689.065 -2348.578)" fill="#12263f" stroke="#12263f" stroke-width="1"/></g></g><g transform="translate(-952.6 1795.923)"><g transform="translate(0 0)"><path d="M-911.651,2436.78a10.526,10.526,0,0,1-3.357-.475,5.513,5.513,0,0,1-.912-.429,1.015,1.015,0,0,1-.516-1.112,3.363,3.363,0,0,1,2.7-2.935.227.227,0,0,1,.16.031,3.155,3.155,0,0,0,2.105.54,2.961,2.961,0,0,0,1.555-.545.2.2,0,0,1,.135-.032,3.34,3.34,0,0,1,2.7,2.854c.009.068.013.136.023.2a.942.942,0,0,1-.478.971,4.536,4.536,0,0,1-1.51.62,9.847,9.847,0,0,1-1.976.279Z" transform="translate(916.45 -2426.407)" fill="#12263f" stroke="#12263f" stroke-width="1"/><path d="M-904.03,2412.71a2.323,2.323,0,0,1-1.448-.6,3.005,3.005,0,0,1-1.07-2.273,2.5,2.5,0,0,1,2.206-2.507,2.508,2.508,0,0,1,2.812,2.241,2.977,2.977,0,0,1-1.875,3.009A5.692,5.692,0,0,1-904.03,2412.71Z" transform="translate(908.735 -2407.307)" fill="#12263f" stroke="#12263f" stroke-width="1"/></g></g><g transform="translate(-897.44 1723.87)"><g transform="translate(0)"><path d="M-661.94,2110.594a10.539,10.539,0,0,1-3.357-.475,5.531,5.531,0,0,1-.912-.43,1.014,1.014,0,0,1-.516-1.111,3.362,3.362,0,0,1,2.7-2.935.226.226,0,0,1,.16.031,3.158,3.158,0,0,0,2.105.54,2.965,2.965,0,0,0,1.555-.545.2.2,0,0,1,.135-.032,3.34,3.34,0,0,1,2.7,2.854c.009.068.013.137.023.2a.943.943,0,0,1-.478.971,4.534,4.534,0,0,1-1.51.62,9.864,9.864,0,0,1-1.976.279Z" transform="translate(666.739 -2100.22)" fill="#12263f" stroke="#12263f" stroke-width="1"/><path d="M-654.319,2086.524a2.326,2.326,0,0,1-1.448-.6,3.005,3.005,0,0,1-1.07-2.273,2.5,2.5,0,0,1,2.206-2.508,2.508,2.508,0,0,1,2.812,2.241,2.977,2.977,0,0,1-1.875,3.009A5.745,5.745,0,0,1-654.319,2086.524Z" transform="translate(659.024 -2081.121)" fill="#12263f" stroke="#12263f" stroke-width="1"/></g></g><g transform="translate(-953.228 1718.683)"><g transform="translate(0)"><path d="M-914.492,2087.113a10.54,10.54,0,0,1-3.357-.475,5.493,5.493,0,0,1-.912-.43,1.014,1.014,0,0,1-.516-1.112,3.363,3.363,0,0,1,2.7-2.935.228.228,0,0,1,.16.031,3.155,3.155,0,0,0,2.105.54,2.96,2.96,0,0,0,1.555-.545.2.2,0,0,1,.135-.032,3.339,3.339,0,0,1,2.7,2.854c.009.068.013.136.023.2a.942.942,0,0,1-.478.971,4.53,4.53,0,0,1-1.51.62,9.865,9.865,0,0,1-1.976.279C-914.1,2087.094-914.343,2087.106-914.492,2087.113Z" transform="translate(919.292 -2076.74)" fill="#12263f" stroke="#12263f" stroke-width="1"/><path d="M-906.872,2063.043a2.326,2.326,0,0,1-1.448-.6,3.006,3.006,0,0,1-1.07-2.273,2.5,2.5,0,0,1,2.206-2.508,2.508,2.508,0,0,1,2.812,2.241,2.977,2.977,0,0,1-1.875,3.009A5.627,5.627,0,0,1-906.872,2063.043Z" transform="translate(911.577 -2057.64)" fill="#12263f" stroke="#12263f" stroke-width="1"/></g></g><g transform="translate(-952.969 1662.997)"><g transform="translate(0 0)"><path d="M-913.321,1835.018a10.529,10.529,0,0,1-3.357-.475,5.486,5.486,0,0,1-.912-.43,1.014,1.014,0,0,1-.516-1.111,3.363,3.363,0,0,1,2.7-2.934.228.228,0,0,1,.16.031,3.154,3.154,0,0,0,2.1.54,2.964,2.964,0,0,0,1.555-.545.2.2,0,0,1,.135-.032,3.34,3.34,0,0,1,2.7,2.854c.009.068.013.136.023.2a.943.943,0,0,1-.478.971,4.53,4.53,0,0,1-1.51.62,9.861,9.861,0,0,1-1.976.279Z" transform="translate(918.12 -1824.645)" fill="#12263f" stroke="#12263f" stroke-width="1"/><path d="M-905.7,1810.948a2.326,2.326,0,0,1-1.448-.6,3.005,3.005,0,0,1-1.07-2.274,2.5,2.5,0,0,1,2.206-2.507,2.508,2.508,0,0,1,2.812,2.241,2.977,2.977,0,0,1-1.875,3.009A5.736,5.736,0,0,1-905.7,1810.948Z" transform="translate(910.406 -1805.545)" fill="#12263f" stroke="#12263f" stroke-width="1"/></g></g><rect width="36.801" height="36.801" transform="translate(-834.492 1657.59)" fill="none" stroke="#12263f" stroke-miterlimit="10" stroke-width="2"/><rect width="36.801" height="36.801" transform="translate(-834.492 1754.022)" fill="none" stroke="#12263f" stroke-miterlimit="10" stroke-width="2"/><rect width="36.801" height="36.801" transform="translate(-834.492 1705.469)" fill="none" stroke="#12263f" stroke-miterlimit="10" stroke-width="2"/><rect width="11.175" height="11.175" transform="translate(-730.334 1757.924)" fill="#12263f" stroke="#12263f" stroke-miterlimit="10" stroke-width="1"/><path d="M71.282,2228.861l-5.239-5.587V2212.7H78.018l4.439,4.99" transform="translate(-801.616 -459.763)" fill="none" stroke="#12263f" stroke-miterlimit="10" stroke-width="1"/><line x2="5.239" y2="4.99" transform="translate(-735.573 1752.934)" fill="none" stroke="#12263f" stroke-miterlimit="10" stroke-width="1"/><rect width="11.175" height="11.175" transform="translate(-730.334 1794.708)" fill="#12263f" stroke="#12263f" stroke-miterlimit="10" stroke-width="1"/><path d="M71.282,2395.386l-5.239-5.587v-10.577H78.018l4.439,4.99" transform="translate(-801.616 -589.503)" fill="none" stroke="#12263f" stroke-miterlimit="10" stroke-width="1"/><line x2="5.239" y2="4.99" transform="translate(-735.573 1789.719)" fill="none" stroke="#12263f" stroke-miterlimit="10" stroke-width="1"/><rect width="11.175" height="11.175" transform="translate(-730.334 1720.777)" fill="#12263f" stroke="#12263f" stroke-miterlimit="10" stroke-width="1"/><path d="M71.282,2060.7l-5.239-5.587v-10.577H78.018l4.439,4.99" transform="translate(-801.616 -328.745)" fill="none" stroke="#12263f" stroke-miterlimit="10" stroke-width="1"/><line x2="5.239" y2="4.99" transform="translate(-735.573 1715.788)" fill="none" stroke="#12263f" stroke-miterlimit="10" stroke-width="1"/><path d="M-742.973,1714.817" transform="translate(-171.307 -71.862)" fill="none" stroke="#12263f" stroke-miterlimit="10" stroke-width="2"/><line x2="103.518" y2="24.883" transform="translate(-938.01 1645.907)" fill="none" stroke="#12263f" stroke-miterlimit="10" stroke-width="1"/><line x2="62.475" y2="25.425" transform="translate(-896.967 1642.975)" fill="none" stroke="#12263f" stroke-miterlimit="10" stroke-width="1"/><line y1="0.019" x2="23.73" transform="translate(-938.01 1642.955)" fill="none" stroke="#12263f" stroke-miterlimit="10" stroke-width="1"/><line x2="57.77" y2="5.223" transform="translate(-892.261 1668.147)" fill="none" stroke="#12263f" stroke-miterlimit="10" stroke-width="1"/><line y1="2.153" x2="75.083" transform="translate(-909.575 1675.688)" fill="none" stroke="#12263f" stroke-miterlimit="10" stroke-width="1"/><line y1="13.721" x2="101.167" transform="translate(-935.659 1677.841)" fill="none" stroke="#12263f" stroke-miterlimit="10" stroke-width="1"/><line y1="31.401" x2="21.195" transform="translate(-944.503 1687.282)" fill="none" stroke="#12263f" stroke-miterlimit="10" stroke-width="1"/><line y1="30.412" x2="23.786" transform="translate(-936.841 1652.23)" fill="none" stroke="#12263f" stroke-miterlimit="10" stroke-width="1"/><line x1="3.303" y1="12.139" transform="translate(-902.787 1650.858)" fill="none" stroke="#12263f" stroke-miterlimit="10" stroke-width="1"/><line x2="35.28" y2="16.811" transform="translate(-938.067 1648.887)" fill="none" stroke="#12263f" stroke-miterlimit="10" stroke-width="1"/><line y1="3.57" x2="5.854" transform="translate(-909.576 1671.515)" fill="none" stroke="#12263f" stroke-miterlimit="10" stroke-width="1"/><line y1="4.729" x2="9.514" transform="translate(-935.659 1683.341)" fill="none" stroke="#12263f" stroke-miterlimit="10" stroke-width="1"/><line y1="7.557" transform="translate(-947.02 1675.085)" fill="none" stroke="#12263f" stroke-miterlimit="10" stroke-width="1"/><line y1="9.644" x2="1.681" transform="translate(-947.02 1652.23)" fill="none" stroke="#12263f" stroke-miterlimit="10" stroke-width="1"/><line y2="12.037" transform="translate(-947.02 1705.034)" fill="none" stroke="#12263f" stroke-miterlimit="10" stroke-width="1"/><line x2="3.292" y2="16.749" transform="translate(-947.795 1729.028)" fill="none" stroke="#12263f" stroke-miterlimit="10" stroke-width="1"/><line y1="4.116" x2="7.108" transform="translate(-938.01 1744.764)" fill="none" stroke="#12263f" stroke-miterlimit="10" stroke-width="1"/><line y1="9.365" x2="24.93" transform="translate(-941.986 1712.02)" fill="none" stroke="#12263f" stroke-miterlimit="10" stroke-width="1"/><line x1="3.805" y1="15.746" transform="translate(-915.898 1687.237)" fill="none" stroke="#12263f" stroke-miterlimit="10" stroke-width="1"/><line x2="17.504" y2="37.077" transform="translate(-912.757 1686.793)" fill="none" stroke="#12263f" stroke-miterlimit="10" stroke-width="1"/><line x2="5.82" y2="7.435" transform="translate(-902.787 1717.072)" fill="none" stroke="#12263f" stroke-miterlimit="10" stroke-width="1"/><line y1="11.957" x2="4.361" transform="translate(-917.055 1717.072)" fill="none" stroke="#12263f" stroke-miterlimit="10" stroke-width="1"/><line y1="4.491" x2="10.204" transform="translate(-909.575 1730.731)" fill="none" stroke="#12263f" stroke-miterlimit="10" stroke-width="1"/><line x1="5.113" y2="15.87" transform="translate(-928.421 1748.88)" fill="none" stroke="#12263f" stroke-miterlimit="10" stroke-width="1"/><line x2="6.14" y2="8.946" transform="translate(-941.799 1757.512)" fill="none" stroke="#12263f" stroke-miterlimit="10" stroke-width="1"/><line x2="7.221" y2="11.975" transform="translate(-914.28 1748.88)" fill="none" stroke="#12263f" stroke-miterlimit="10" stroke-width="1"/><line y1="26.612" x2="7.221" transform="translate(-901.671 1734.244)" fill="none" stroke="#12263f" stroke-miterlimit="10" stroke-width="1"/><line y1="3.896" x2="11.482" transform="translate(-921.058 1768.527)" fill="none" stroke="#12263f" stroke-miterlimit="10" stroke-width="1"/><line y1="1.842" x2="87.38" transform="translate(-921.872 1773.205)" fill="none" stroke="#12263f" stroke-miterlimit="10" stroke-width="1"/><line x2="64.879" y2="4.295" transform="translate(-899.371 1766.458)" fill="none" stroke="#12263f" stroke-miterlimit="10" stroke-width="1"/><line y1="10.852" x2="57.77" transform="translate(-892.261 1775.824)" fill="none" stroke="#12263f" stroke-miterlimit="10" stroke-width="1"/><line x1="78.265" y2="25.374" transform="translate(-912.757 1778.31)" fill="none" stroke="#12263f" stroke-miterlimit="10" stroke-width="1"/><line x1="11.085" y1="2.807" transform="translate(-941.986 1802.394)" fill="none" stroke="#12263f" stroke-miterlimit="10" stroke-width="1"/><line y1="10.665" x2="6.493" transform="translate(-944.502 1784.244)" fill="none" stroke="#12263f" stroke-miterlimit="10" stroke-width="1"/><line x2="3.887" y2="13.394" transform="translate(-928.421 1785.229)" fill="none" stroke="#12263f" stroke-miterlimit="10" stroke-width="1"/><line y1="6.066" x2="6.163" transform="translate(-912.757 1793.323)" fill="none" stroke="#12263f" stroke-miterlimit="10" stroke-width="1"/><line x1="15.278" y1="6.222" transform="translate(-921.872 1779.008)" fill="none" stroke="#12263f" stroke-miterlimit="10" stroke-width="1"/><line x1="2.432" y1="8.857" transform="translate(-903.348 1772.394)" fill="none" stroke="#12263f" stroke-miterlimit="10" stroke-width="1"/><line y1="11.724" x2="75.183" transform="translate(-909.675 1725.679)" fill="none" stroke="#12263f" stroke-miterlimit="10" stroke-width="1"/><line y1="4.942" x2="52.391" transform="translate(-886.883 1724.086)" fill="none" stroke="#12263f" stroke-miterlimit="10" stroke-width="1"/><line x2="69.513" y2="10.352" transform="translate(-904.005 1710.437)" fill="none" stroke="#12263f" stroke-miterlimit="10" stroke-width="1"/><line y1="23.576" x2="104.237" transform="translate(-938.729 1727.363)" fill="none" stroke="#12263f" stroke-miterlimit="10" stroke-width="1"/><line x2="56.629" transform="translate(-797.69 1723.87)" fill="none" stroke="#12263f" stroke-miterlimit="10" stroke-width="2"/><path d="M41.2,2068.894l2.7,2.7-2.7,2.7Z" transform="translate(-782.257 -347.725)" fill="none" stroke="#12263f" stroke-width="1"/><line y2="102.661" transform="translate(-771.498 1727.363)" stroke="#12263f" stroke-miterlimit="10" stroke-width="1" stroke-dasharray="3"/><line y2="35.315" transform="translate(-860.687 1794.708)" stroke="#12263f" stroke-miterlimit="10" stroke-width="1" stroke-dasharray="3"/><rect width="82.703" height="205.073" transform="translate(-962.849 1622.581)" fill="none" stroke="#12263f" stroke-miterlimit="10" stroke-width="2"/><rect width="51.192" height="205.073" transform="translate(-841.602 1622.581)" fill="none" stroke="#12263f" stroke-miterlimit="10" stroke-width="2"/><rect width="51.192" height="205.073" transform="translate(-752.962 1622.581)" fill="none" stroke="#12263f" stroke-miterlimit="10" stroke-width="2"/><line y2="14.926" transform="translate(-727.366 1772.321)" fill="none" stroke="#12263f" stroke-miterlimit="10" stroke-width="1"/><line y2="14.926" transform="translate(-727.366 1734.785)" fill="none" stroke="#12263f" stroke-miterlimit="10" stroke-width="1"/><line y1="30.457" x2="1.007" transform="translate(-945.339 1652.185)" fill="none" stroke="#12263f" stroke-miterlimit="10" stroke-width="1"/></g><text transform="translate(-5789 -8695)" fill="#12263f" font-size="10" font-family="Roboto-BoldItalic, Roboto" font-weight="700" font-style="italic"><tspan x="-19.756" y="0">Network </tspan><tspan x="-26.433" y="12">participants</tspan></text><text transform="translate(-5730 -8453)" fill="#12263f" font-size="10" font-family="Roboto-BoldItalic, Roboto" font-weight="700" font-style="italic"><tspan x="-10.159" y="0">Vote</tspan></text><text transform="translate(-5638 -8453)" fill="#12263f" font-size="10" font-family="Roboto-BoldItalic, Roboto" font-weight="700" font-style="italic"><tspan x="-20.837" y="0">Produces</tspan><tspan x="-12" y="12">block</tspan></text><text transform="translate(-5592 -8683)" fill="#12263f" font-size="10" font-family="Roboto-BoldItalic, Roboto" font-weight="700" font-style="italic"><tspan x="-24.287" y="0">Blockchain</tspan></text><text transform="translate(-5683 -8695)" fill="#12263f" font-size="10" font-family="Roboto-BoldItalic, Roboto" font-weight="700" font-style="italic"><tspan x="-16.328" y="0">Elected</tspan><tspan x="-21.604" y="12">delegates</tspan></text></g></svg>