<svg xmlns="http://www.w3.org/2000/svg" xmlns:xlink="http://www.w3.org/1999/xlink" width="385.141" height="287.832" viewBox="0 0 385.141 287.832"><defs><clipPath id="a"><rect width="385.141" height="287.832" fill="none"/></clipPath><clipPath id="b"><rect width="385.14" height="287.832" fill="none"/></clipPath><clipPath id="c"><rect width="195.479" height="38.674" fill="#f4a338"/></clipPath><clipPath id="e"><path d="M988.082,1344.364,949.845,1382.6l109.376.437v-38.674Z" transform="translate(-949.845 -1344.364)" fill="#f4a338"/></clipPath><clipPath id="g"><rect width="106.334" height="23.039" fill="none"/></clipPath><clipPath id="h"><path d="M1781.725,1001.867h-98.861a3.736,3.736,0,0,1-3.736-3.736V982.564a3.736,3.736,0,0,1,3.736-3.736h98.861a3.736,3.736,0,0,1,3.736,3.736v15.567a3.736,3.736,0,0,1-3.736,3.736" transform="translate(-1679.128 -978.828)" fill="none"/></clipPath><linearGradient id="i" x1="-2.622" y1="5.439" x2="-2.62" y2="5.439" gradientUnits="objectBoundingBox"><stop offset="0" stop-color="#343d4f"/><stop offset="0.458" stop-color="#2f384b"/><stop offset="0.943" stop-color="#232c41"/><stop offset="1" stop-color="#212b40"/></linearGradient><linearGradient id="j" x1="0.5" x2="0.5" y2="1" gradientUnits="objectBoundingBox"><stop offset="0" stop-color="#4adbd1"/><stop offset="1" stop-color="#5573c6"/></linearGradient><clipPath id="n"><path d="M583.142,1131.5l9.691,1.922-6.534-16.214-10.344-1.087Z" transform="translate(-575.955 -1116.122)" fill="none"/></clipPath><linearGradient id="o" x1="-4.668" y1="5.24" x2="-4.66" y2="5.24" gradientUnits="objectBoundingBox"><stop offset="0" stop-color="#ff9f55"/><stop offset="1" stop-color="#ffd255"/></linearGradient><linearGradient id="q" x1="0.5" x2="0.5" y2="1" gradientUnits="objectBoundingBox"><stop offset="0" stop-color="#039be5"/><stop offset="1" stop-color="#027fbc"/></linearGradient></defs><g transform="translate(8900.48 7131.056)"><g transform="translate(-8900.48 -7131.056)"><g clip-path="url(#a)"><path d="M0,0H192.688V27.55H0Z" transform="translate(170.325 231.768)" fill="#b0c0d2"/><g transform="translate(0 -0.001)"><g clip-path="url(#b)"><path d="M364.876,259.316A129.69,129.69,0,0,1,314.4,10.192,129.561,129.561,0,0,1,456.559,37.973a131.411,131.411,0,0,1,11.785,13.515A129.629,129.629,0,0,1,364.876,259.316m0-231.769a102.11,102.11,0,1,0,102.11,102.11,102.226,102.226,0,0,0-102.11-102.11" transform="translate(-196.161 0.003)" fill="#fff"/><rect width="151.867" height="27.551" transform="translate(16.847 231.768)" fill="#b0c0d2"/><g transform="translate(80.404 71.856)" opacity="0.68"><g transform="translate(0 0)"><path d="M0,0H175.133V165.9H0Z" fill="#12263f"/></g></g><rect width="31.759" height="3.252" transform="translate(96.702 84.558)" fill="#e0e0e0"/><rect width="22.93" height="3.252" transform="translate(137.348 109.044)" fill="#e0e0e0"/><rect width="15.216" height="3.252" transform="translate(163.85 109.044)" fill="#6f8de0"/><rect width="15.216" height="3.252" transform="translate(194.938 207.349)" fill="#6f8de0"/><rect width="15.216" height="3.252" transform="translate(97.062 170.62)" fill="#6f8de0"/><rect width="36.738" height="3.252" transform="translate(182.073 109.044)" fill="#e0e0e0"/><rect width="23.607" height="3.252" transform="translate(97.062 158.287)" fill="#e0e0e0"/><rect width="23.607" height="3.252" transform="translate(160.494 182.863)" fill="#e0e0e0"/><rect width="14.411" height="3.252" transform="translate(129.969 182.863)" fill="#e0e0e0"/><rect width="28.553" height="3.252" transform="translate(97.062 182.863)" fill="#1487e3"/><rect width="15.748" height="3.252" transform="translate(97.062 195.106)" fill="#e0e0e0"/><rect width="22.545" height="3.252" transform="translate(134.639 84.558)" fill="#78c2ff"/><rect width="22.545" height="3.252" transform="translate(134.639 121.287)" fill="#6f8de0"/><rect width="9.633" height="3.252" transform="translate(123.366 133.53)" fill="#e0e0e0"/><rect width="21.637" height="3.252" transform="translate(113.733 145.953)" fill="#78c2ff"/><rect width="29.87" height="3.252" transform="translate(138.641 145.953)" fill="#6f8de0"/><rect width="22.545" height="3.252" transform="translate(97.062 133.62)" fill="#6f8de0"/><rect width="13.377" height="3.252" transform="translate(97.062 145.953)" fill="#6f8de0"/><rect width="12.621" height="3.252" transform="translate(137.541 133.62)" fill="#4adbd1"/><rect width="12.621" height="3.252" transform="translate(97.44 207.349)" fill="#4adbd1"/><rect width="22.545" height="3.252" transform="translate(96.972 109.044)" fill="#78c2ff"/><rect width="22.545" height="3.252" transform="translate(116.91 170.62)" fill="#78c2ff"/><rect width="22.545" height="3.252" transform="translate(117.188 195.106)" fill="#78c2ff"/><rect width="22.545" height="3.252" transform="translate(157.238 195.106)" fill="#78c2ff"/><rect width="32.139" height="3.252" transform="translate(96.971 121.287)" fill="#78c2ff"/><rect width="22.545" height="3.252" transform="translate(167.259 207.349)" fill="#78c2ff"/><rect width="28.724" height="3.252" transform="translate(163.254 84.558)" fill="#6f8de0"/><rect width="28.724" height="3.252" transform="translate(114.826 207.349)" fill="#6f8de0"/><rect width="28.724" height="3.252" transform="translate(214.984 207.349)" fill="#1487e3"/><rect width="28.724" height="3.252" transform="translate(210.563 182.863)" fill="#6f8de0"/><rect width="28.724" height="3.252" transform="translate(202.546 121.287)" fill="#6f8de0"/><rect width="6.192" height="3.252" transform="translate(148.892 182.863)" fill="#4adbd1"/><rect width="28.724" height="3.252" transform="translate(213.223 84.558)" fill="#4adbd1"/><rect width="16.842" height="3.252" transform="translate(180.447 121.287)" fill="#4adbd1"/><rect width="16.842" height="3.252" transform="translate(167.259 170.801)" fill="#4adbd1"/><rect width="10.514" height="3.252" transform="translate(197.289 84.558)" fill="#e0e0e0"/><rect width="10.514" height="3.252" transform="translate(163.254 121.287)" fill="#e0e0e0"/><rect width="16.448" height="3.252" transform="translate(96.702 96.801)" fill="#6f8de0"/><rect width="12.987" height="3.252" transform="translate(140.589 158.377)" fill="#1487e3"/><rect width="5.311" height="3.252" transform="translate(117.188 96.801)" fill="#6f8de0"/><rect width="43.898" height="3.252" transform="translate(184.101 195.106)" fill="#e0e0e0"/><rect width="5.42" height="3.252" transform="translate(126.401 96.801)" fill="#4adbd1"/><rect width="14.362" height="3.252" transform="translate(207.803 96.801)" fill="#6f8de0"/><rect width="14.362" height="3.252" transform="translate(222.165 109.044)" fill="#4adbd1"/><rect width="14.362" height="3.252" transform="translate(190.108 182.863)" fill="#4adbd1"/><rect width="14.362" height="3.252" transform="translate(148.314 207.349)" fill="#4adbd1"/><rect width="30.558" height="3.252" transform="translate(173.443 96.801)" fill="#6f8de0"/><rect width="17.853" height="3.252" transform="translate(144.999 170.801)" fill="#6f8de0"/><rect width="8.927" height="3.252" transform="translate(143.851 195.106)" fill="#6f8de0"/><rect width="10.514" height="3.252" transform="translate(158.593 96.801)" fill="#78c2ff"/><rect width="10.514" height="3.252" transform="translate(123.203 109.044)" fill="#4adbd1"/><rect width="10.514" height="3.252" transform="translate(125.299 158.377)" fill="#4adbd1"/><rect width="18.318" height="3.252" transform="translate(136.264 96.801)" fill="#6f8de0"/><path d="M558.082,1325.156a.02.02,0,0,0-.014,0c.058.026.067.028.014,0" transform="translate(-465.405 -1105.122)" fill="#323657"/><path d="M1334.777,333.192H1340l-1.6-3.313h-5.219Z" transform="translate(-1111.815 -275.104)" fill="#fff"/><path d="M1320.068,333.192h1.244l-1.6-3.313h-1.244Z" transform="translate(-1099.549 -275.104)" fill="#fff"/><path d="M1215.97,317.748H1237.1l-.7-1.657h-21.134Z" transform="translate(-1013.483 -263.606)" fill="#fff"/><rect width="16.622" height="1.165" transform="translate(309.677 139.972)" fill="#fff"/><rect width="16.622" height="4.899" transform="translate(309.677 142.169)" fill="#fff"/><rect width="9.806" height="0.732" transform="translate(301.869 148.714)" fill="#fff"/><rect width="9.806" height="1.982" transform="translate(301.869 149.767)" fill="#fff"/><rect width="0.732" height="13.725" transform="translate(306.84 132.491)" fill="#fff"/><rect width="13.093" height="2.372" transform="translate(94.305 38.972)" fill="#939fc2"/><rect width="13.093" height="0.446" transform="translate(94.305 37.865)" fill="#939fc2"/><path d="M1419.565,1023.183l17.418-17.418H1463.5v-.867h-26.878l-17.672,17.672Z" transform="translate(-1183.345 -838.041)" fill="#6f8de0"/><path d="M1346.764,426.395l17-17h69.856v-.867h-70.216l-17.257,17.258Z" transform="translate(-1122.632 -340.691)" fill="#4adbd1"/></g></g><g transform="translate(71.612 223.222)"><g clip-path="url(#c)"><rect width="195.479" height="38.674" transform="translate(0)" fill="#f4a338"/></g></g><g transform="translate(0 -0.001)"><g clip-path="url(#b)"><path d="M230.031,583.92l.613-.613-32.493-32.494h-61.5v.867h61.137Z" transform="translate(-113.964 -459.354)" fill="#78c2ff"/><path d="M760.576,373.978l.613-.613L733.765,345.94H695.2v.867h38.211Z" transform="translate(-579.763 -288.499)" fill="#6f8de0"/></g></g><g transform="translate(157.715 223.222)"><g clip-path="url(#e)"><rect width="109.376" height="38.674" transform="translate(0)" fill="#f4a338"/></g></g><g transform="translate(0 -0.001)"><g clip-path="url(#b)"><rect width="19.662" height="1.167" transform="translate(239.805 228.77)" fill="#e2d2ca"/><rect width="1.723" height="53.08" transform="translate(255.109 232.974)" fill="#f2e2d9"/><rect width="13.667" height="1.667" transform="translate(229.216 228.438)" fill="#ccbdb7"/><rect width="5.175" height="15.719" transform="translate(233.461 214.217)" fill="#ccbdb7"/><rect width="75.724" height="3.018" transform="translate(190.797 229.956)" fill="#948a84"/><path d="M1650.64,1249.441s.828,11.614-1.441,13c-1.422.871-7.09,3.808-6.922,4.359s3.2,4.9,3.2,4.9,10.888-7.17,11.239-9.429c.343-2.208-.536-17.006-2.032-17.687-1.121-.51-1.712-.088-3.125.961a3.306,3.306,0,0,0-.919,3.893" transform="translate(-1369.587 -1037.752)" fill="#373f51"/><path d="M1568.337,1279.319l-.96-.355s1.2-2.809,1.719-2.741a13.059,13.059,0,0,1,1.353.277Z" transform="translate(-1307.126 -1064.314)" fill="#ead8cf"/><path d="M1571.836,1278.86c.123-.091,2.04-3.769,2.04-3.769l4.1.557-2.213,4.356Z" transform="translate(-1310.844 -1063.371)" fill="#da9b5b"/><path d="M1611.986,1677.6s.338,2.35.381,2.7,3.767-.208,3.767-.208l.3-2.8s-3.983-.029-4.449.3" transform="translate(-1344.328 -1398.797)" fill="#424773"/><path d="M1581.583,1692.807a10.049,10.049,0,0,1-2.321,2.033c-1.141.617-2.935.862-3.609,1.5-.487.461-1.774,2.447,2.966,2.407s7.024.281,7.532-.481-.735-5.619-.735-5.619a10.039,10.039,0,0,1-3.833.159" transform="translate(-1313.584 -1411.596)" fill="#292c47"/><path d="M1468.293,1677.738s.339,2.35.381,2.7,3.766-.208,3.766-.208l.3-2.8s-3.983-.029-4.449.3" transform="translate(-1224.494 -1398.908)" fill="#424773"/><path d="M1426.895,1692.94a10.056,10.056,0,0,1-2.321,2.033c-1.141.617-5.341,1.124-6.015,1.763-.487.461-1.3,2.318,5.372,2.144,4.738-.123,7.025.281,7.533-.481s-.735-5.619-.735-5.619a9.1,9.1,0,0,1-3.833.159" transform="translate(-1182.754 -1411.707)" fill="#292c47"/><path d="M1489.141,1434.647s-13.539,2.291-16.6,2.771-19.639,4.606-21.712,5.863c-1.65,1,.866,25.035,1.453,34.2h6.531l.474-27.506c7.837.2,13.429-1.833,19.136-.967s10.465,2.1,14.091-2.766c0,0,.135-10.538-3.376-11.6" transform="translate(-1209.472 -1196.434)" fill="#292c47"/><path d="M1593.8,1492.214l6.365-.393.62-27.135a38.7,38.7,0,0,0,7.261-.461l5.138-11.944c-4.5.9-18.932,4.54-20.856,5.706-1.651,1,.885,25.057,1.472,34.227" transform="translate(-1327.473 -1211.14)" fill="#292c47"/><path d="M1607.189,1127.815s-4.963-1.372-6.857,2.481-1.035,11.157,1.467,11.844,6.1-.1,7.137-2.5a18.406,18.406,0,0,0,1.618-8.012,4.836,4.836,0,0,0-3.365-3.811" transform="translate(-1333.752 -940.352)" fill="#eea886"/><path d="M1620.736,1193.692a15.162,15.162,0,0,1-.269,3.555c-.323.625,6.911.468,6.911.468a14.686,14.686,0,0,1-.493-6.516c.64-2.967-6.149,2.494-6.149,2.494" transform="translate(-1351.392 -992.672)" fill="#eea886"/><path d="M1608.86,1135.3s-.387.786-2.259.659-4.342-2.386-5.137-2.588-.842-.654-.842-.654l-.421.748-.815.124s.554-2.264-.652-3.061.543-7.218,6.649-5.67c0,0,4.66.854,4.722,3.456s-.341,5.608-1.245,6.986" transform="translate(-1332.977 -937.887)" fill="#3a3f47"/><path d="M1618.229,1221.932s.02-1.194.561-1.308,5.686-.822,6.35-.561l.285,1.576s-1.279.788-7.2.293" transform="translate(-1349.534 -1017.432)" fill="#373f51"/><path d="M1608.938,1163.529c.139-.978,1.251-2.1,1.888-.578s-.43,3.743-1.144,3.624-.932-1.718-.744-3.045" transform="translate(-1341.732 -969.228)" fill="#eea886"/><path d="M1488.319,1316.53h.009c-.037.016-.042.018-.009,0" transform="translate(-1241.176 -1097.929)" fill="#323657"/><path d="M1655.508,1133.211s6.052-.285,1.056,9.162Z" transform="translate(-1380.623 -945.048)" fill="#3a3f47"/><path d="M1638.918,1676.048l-.45,1.266-19.02-5.893.912-2.564Z" transform="translate(-1350.55 -1391.755)" fill="#918783"/><rect width="2.162" height="20.679" transform="translate(268.245 258.085)" fill="#918783"/><rect width="12.751" height="1.219" transform="translate(262.95 256.986)" fill="#5e5854"/><path d="M1506.34,1675.239l.45,1.266,19.02-5.893-.836-2.725Z" transform="translate(-1256.223 -1390.946)" fill="#918783"/><path d="M1587.049,1676.37v1.473l6.069-7.231-.836-2.725Z" transform="translate(-1323.531 -1390.946)" fill="#918783"/><path d="M1495.634,1713.848a1.778,1.778,0,1,0,1.778-1.778,1.778,1.778,0,0,0-1.778,1.778" transform="translate(-1247.295 -1427.793)" fill="#bfb2ac"/><path d="M1586.139,1713.848a1.778,1.778,0,1,0,1.778-1.778,1.778,1.778,0,0,0-1.778,1.778" transform="translate(-1322.772 -1427.793)" fill="#bfb2ac"/><path d="M1726.005,1713.848a1.778,1.778,0,1,0,1.777-1.778,1.778,1.778,0,0,0-1.777,1.778" transform="translate(-1439.415 -1427.793)" fill="#bfb2ac"/><path d="M1532.839,1524.526h25.651a2.278,2.278,0,0,0,2.279-2.278v-.059a2.279,2.279,0,0,0-2.279-2.279h-25.651a2.279,2.279,0,0,0-2.279,2.279v.059a2.279,2.279,0,0,0,2.279,2.278" transform="translate(-1276.422 -1267.54)" fill="#e2d2ca"/><rect width="1.723" height="53.08" transform="translate(200.485 232.974)" fill="#f2e2d9"/><path d="M1289.32,1177.393h40.143a2.273,2.273,0,0,0,2.273-2.273v-26.98a2.273,2.273,0,0,0-2.273-2.273H1289.32a2.273,2.273,0,0,0-2.273,2.273v26.98a2.273,2.273,0,0,0,2.273,2.273" transform="translate(-1073.342 -955.604)" fill="#f2e2d9"/><rect width="41.189" height="24.881" transform="translate(215.455 191.967)" fill="#f5f7ff"/><path d="M1412.938,1312.236a1.441,1.441,0,1,0,1.441-1.442,1.442,1.442,0,0,0-1.441,1.442" transform="translate(-1178.33 -1093.146)" fill="#918681"/><path d="M1365.9,1364.818v-.561s.789-3.49,6.368-3.49,5.466,4.051,5.466,4.051Z" transform="translate(-1139.103 -1134.821)" fill="#1d3b54"/><path d="M1387.266,1353.033a5.5,5.5,0,0,1-1.656-.362c-.444-.268-3.1-2.055-3.724-1.769s-4.777,1.558-4.633,2.165.528.549.822.441a21.361,21.361,0,0,1,3.574-.634s-2.962,1.081-2.974,1.869.62.98.9,1.279.618,1.039,1.381,1.1,4.488-1.239,5.254-1.3a18.723,18.723,0,0,0,2.282-.077,21.206,21.206,0,0,0-1.228-2.709" transform="translate(-1148.567 -1126.569)" fill="#eea886"/><path d="M1453.348,1231.789c3.864-.679,7.932-1.654,7.932-1.654l7.2-.293a70.054,70.054,0,0,1,9.206,2.629c.247.111.248,5.893.925,7.409l-2.157,4.55s-1.246,9.012-1.5,13.021c-.119,1.84.336,17.784.336,17.784s-.646.319-5.558.86-17.184-.2-17.261-.776,2.376-21.6,2.485-22.69c.167-1.671-.483-9.391-.483-9.391-.925,1.243-3.284,6.857-5.744,9.528-1.447,1.571-8.609,2.534-9.959,2.579-2.939.1-8.3.683-8.457.4-.125-.172-.467-4.759-.131-4.871.294-.1,10.25-.671,12.8-2.025.933-.5,3.722-6.578,3.722-6.578s4.519-9.521,6.651-10.479" transform="translate(-1192.585 -1025.635)" fill="#373f51"/><path d="M1633.9,1355.529h12.082a4.375,4.375,0,0,0,4.375-4.375v-20.1a4.375,4.375,0,0,0-4.375-4.375H1633.9a4.375,4.375,0,0,0-4.375,4.375v20.1a4.375,4.375,0,0,0,4.375,4.375" transform="translate(-1358.956 -1106.392)" fill="#e2d2ca"/><path d="M1645.939,1454.741a9.544,9.544,0,0,0,7.4-3.066c4.164-4.6,3.416-12.68,3.382-13.022a1.159,1.159,0,0,0-2.307.228c.009.092.672,7.418-2.8,11.242a7.227,7.227,0,0,1-5.682,2.3,1.159,1.159,0,1,0,0,2.318" transform="translate(-1371.677 -1198.904)" fill="#e2d2ca"/><path d="M1455.725,1169.38h11.414a.326.326,0,0,0,.326-.326v-.663a.326.326,0,0,0-.326-.326h-11.414a.326.326,0,0,0-.326.326v.663a.326.326,0,0,0,.326.326" transform="translate(-1213.741 -974.117)" fill="#dfe1e8"/><path d="M1455.725,1186.361h11.414a.326.326,0,0,0,.326-.326v-.663a.326.326,0,0,0-.326-.326h-11.414a.326.326,0,0,0-.326.326v.663a.326.326,0,0,0,.326.326" transform="translate(-1213.741 -988.277)" fill="#dfe1e8"/><path d="M1456.495,1219.386h9.874a1.1,1.1,0,0,0,1.1-1.1v-12.673a1.1,1.1,0,0,0-1.1-1.1h-9.874a1.1,1.1,0,0,0-1.1,1.1v12.673a1.1,1.1,0,0,0,1.1,1.1" transform="translate(-1213.741 -1004.52)" fill="#dfe1e8"/><path d="M1313.063,1188.983h18.017a1.734,1.734,0,0,0,1.734-1.734V1169.8a1.734,1.734,0,0,0-1.734-1.734h-18.017a1.734,1.734,0,0,0-1.734,1.734v17.449a1.734,1.734,0,0,0,1.734,1.734" transform="translate(-1093.592 -974.116)" fill="#dfe1e8"/><rect width="6.167" height="18.731" transform="translate(273.094 45.412)" fill="#12263f"/><path d="M1553.48,139.155h-47.835a2.708,2.708,0,0,1-2.708-2.708V104.3a2.708,2.708,0,0,1,2.708-2.708h47.835a2.708,2.708,0,0,1,2.708,2.708v32.15a2.708,2.708,0,0,1-2.708,2.708" transform="translate(-1253.385 -84.72)" fill="#12263f"/><rect width="49.081" height="29.536" transform="translate(251.637 19.012)" fill="#fff"/><rect width="27.745" height="1.414" transform="translate(262.305 63.436)" fill="#12263f"/><rect width="15.775" height="18.236" transform="translate(282.339 27.976)" fill="#d7d7e6"/><rect width="16.253" height="2.273" transform="translate(263.648 27.976)" fill="#d7d7e6"/><rect width="16.253" height="2.273" transform="translate(263.648 32.643)" fill="#d7d7e6"/><rect width="16.253" height="9.377" transform="translate(263.648 36.834)" fill="#d7d7e6"/><rect width="6.896" height="18.755" transform="translate(254.455 27.457)" fill="#d7d7e6"/><rect width="43.658" height="4.683" transform="translate(254.616 21.287)" fill="#d7d7e6"/><path d="M731.035,129.438h21.854a2.592,2.592,0,0,0,2.592-2.591V93.808a2.592,2.592,0,0,0-2.592-2.592H731.035a2.592,2.592,0,0,0-2.591,2.592v33.039a2.591,2.591,0,0,0,2.591,2.591" transform="translate(-607.491 -76.07)" fill="#12263f"/><rect width="24.048" height="31.367" transform="translate(122.447 16.913)" fill="#fff"/><rect width="20.93" height="4.175" transform="translate(124.063 19.169)" fill="#d7d7e6"/><rect width="8.615" height="20.467" transform="translate(136.378 24.963)" fill="#d7d7e6"/><rect width="10.715" height="2.37" transform="translate(124.063 24.963)" fill="#d7d7e6"/><rect width="10.715" height="2.37" transform="translate(124.063 29.061)" fill="#d7d7e6"/><rect width="10.715" height="2.37" transform="translate(124.063 33.159)" fill="#d7d7e6"/><rect width="10.715" height="8.174" transform="translate(124.063 37.256)" fill="#d7d7e6"/><path d="M195.313,375.586h42.146V348.867a1.9,1.9,0,0,0-1.9-1.9H197.212a1.9,1.9,0,0,0-1.9,1.9Z" transform="translate(-162.883 -289.356)" fill="#12263f"/><rect width="39.794" height="25.572" transform="translate(33.606 59.135)" fill="#fff"/><path d="M183.07,519.322h46.212v.444a1.659,1.659,0,0,1-1.659,1.659H184.729a1.659,1.659,0,0,1-1.659-1.659Z" transform="translate(-152.673 -433.092)" fill="#727997"/><rect width="36.425" height="3.556" transform="translate(35.27 60.994)" fill="#d7d7e6"/><rect width="12.489" height="16.29" transform="translate(59.207 66.558)" fill="#d7d7e6"/><rect width="12.488" height="16.29" transform="translate(45.118 66.558)" fill="#d7d7e6"/><rect width="7.616" height="2.328" transform="translate(35.27 66.558)" fill="#d7d7e6"/><rect width="7.616" height="2.328" transform="translate(35.27 70.156)" fill="#d7d7e6"/><rect width="7.616" height="9.094" transform="translate(35.27 73.755)" fill="#d7d7e6"/><path d="M1565.453,814.258l13.316.056a2.02,2.02,0,0,0,2.029-2.012l.117-27.792a2.02,2.02,0,0,0-2.012-2.029l-13.316-.056a2.02,2.02,0,0,0-2.029,2.012l-.117,27.792a2.02,2.02,0,0,0,2.012,2.029" transform="translate(-1303.843 -652.509)" fill="#12263f"/><path d="M1574.324,821.209l10.629.045a1.888,1.888,0,0,0,1.9-1.88l.088-21.009a1.888,1.888,0,0,0-1.88-1.9l-10.629-.045a1.888,1.888,0,0,0-1.9,1.88l-.089,21.008a1.888,1.888,0,0,0,1.88,1.9" transform="translate(-1311.351 -664.184)" fill="#fff"/><path d="M1603.993,788.79l3.676.015a.272.272,0,0,1,0,.545l-3.676-.016a.272.272,0,0,1,0-.545" transform="translate(-1337.434 -657.817)" fill="#787878"/><path d="M1608.632,952.943a1.177,1.177,0,1,0,1.182-1.172,1.177,1.177,0,0,0-1.182,1.172" transform="translate(-1341.531 -793.736)" fill="#787878"/><rect width="11.043" height="4.452" transform="translate(262.867 133.802)" fill="#d7d7e6"/><rect width="11.043" height="1.85" transform="translate(262.867 139.41)" fill="#d7d7e6"/><rect width="11.043" height="1.85" transform="translate(262.867 142.417)" fill="#d7d7e6"/><rect width="11.043" height="9.887" transform="translate(262.867 145.423)" fill="#d7d7e6"/><path d="M1921.518,1097.336s-.41-1.555.027-2.23a6.873,6.873,0,0,0,.758-2.1c.084-.46.874-1.848.291-1.88s-1.407,2.241-1.673,2.7-.993-1.539-1.436-1.762-3.949,1.6-3.279,2.893,2.325,2.117,2.394,2.374a7.941,7.941,0,0,0,.447.963Z" transform="translate(-1597.963 -909.949)" fill="#eea886"/><path d="M1906.922,1078.693s-2.341-3.781-2.732-3.876-.613.071-.41.436,2.144,3.732,2.144,3.732-3.61-3.914-3.9-4.063c-.172-.087-.616.21-.528.418s3.41,4.319,3.41,4.319a51.532,51.532,0,0,0-3.672-3.695c-.257-.042-.608.323-.379.613s3.143,3.876,3.143,3.876-2.652-2.479-2.945-2.371c-.179.066-.573.307.135.923s2.2,2.263,2.2,2.263Z" transform="translate(-1585.166 -896.33)" fill="#eea886"/><g transform="translate(278.807 162.528)" opacity="0.68"><g clip-path="url(#g)"><g transform="translate(0)"><g clip-path="url(#h)"><rect width="106.333" height="23.039" transform="translate(0 0)" fill="url(#i)"/></g></g></g></g><rect width="17.218" height="1.763" transform="translate(284.493 169.596)" fill="#e0e0e0"/><rect width="12.223" height="1.763" transform="translate(305.061 169.596)" fill="#e0e0e0"/><rect width="11.414" height="1.763" transform="translate(305.061 176.234)" fill="#e0e0e0"/><rect width="12.223" height="1.763" transform="translate(366.29 169.596)" fill="#78c2ff"/><rect width="15.573" height="1.763" transform="translate(320.575 169.596)" fill="#6f8de0"/><rect width="15.573" height="1.763" transform="translate(347.667 169.596)" fill="#ffc055"/><rect width="5.7" height="1.763" transform="translate(339.028 169.596)" fill="#e0e0e0"/><rect width="8.918" height="1.763" transform="translate(284.493 176.234)" fill="#78c2ff"/><rect width="2.88" height="1.763" transform="translate(295.6 176.234)" fill="#1487e3"/><rect width="23.8" height="1.763" transform="translate(354.714 176.234)" fill="#e0e0e0"/><rect width="2.938" height="1.763" transform="translate(300.595 176.234)" fill="#ffc455"/><rect width="7.787" height="1.763" transform="translate(344.728 176.234)" fill="#6f8de0"/><rect width="16.567" height="1.763" transform="translate(326.099 176.234)" fill="#78c2ff"/><rect width="5.7" height="1.763" transform="translate(318.049 176.234)" fill="#e0e0e0"/><path d="M1888.731,1598.01s-2.248,2.257-4.181,2.5-4.176.97-4.439,2.427,5.726,3,8.085,1.865c3.521-1.7,4.543-1.025,5.079-2.067s.436-4.641.518-4.986c.1-.427-5.062.262-5.062.262" transform="translate(-1567.925 -1332.337)" fill="#202338"/><path d="M2148.476,1552.353s-.651,3.088-2.084,4.273-2.866,2.944-2.329,4.339,5.645,1.23,7.472-2.458c1.155-2.33,2.5-2.734,2.392-3.908s-1.889-3.685-2-4.026c-.137-.421-3.451,1.781-3.451,1.781" transform="translate(-1787.961 -1293.066)" fill="#202338"/><path d="M1939.784,1278.726s-7.746,16.045-9.5,20.114a58.312,58.312,0,0,0-3.511,13.19c-.281,3.331-3.47,16.876-3.667,17.85s6.752.389,6.752.389,6.054-23.077,7.658-26.35c1.07-2.184,9.11-16.72,9.821-15.818s5.032,11.763,5.558,14.368,10.426,21.98,10.426,21.98,4.622-.338,5.532-2.1c0,0-7.385-19.635-8.2-23.209-.417-1.818-1.947-13.275-3.876-22.059-.991-4.517-16.993,1.643-16.993,1.643" transform="translate(-1603.789 -1063.651)" fill="#1c4054"/><path d="M2127.483,1148.124s-2.664,8.015-2.6,9.923-1.477-9.327,2.6-9.923" transform="translate(-1771.863 -957.486)" fill="#dce6fa"/><path d="M1947.754,1130.058a19.489,19.489,0,0,1-.957,2.439h0a16.06,16.06,0,0,1-.8,1.506c-.054.088-.109.176-.165.263a10.1,10.1,0,0,1-.7.972,4.291,4.291,0,0,1-2.861,1.778c-2.276.168-10.454-12.333-10.454-12.333l3.906-1.775s5.176,7.471,5.98,7.061,1.635-3.445,1.635-3.445c.951-.524,2.4.927,3.38,2.126q.1.117.184.23c.515.651.859,1.176.859,1.176" transform="translate(-1611.047 -936.458)" fill="#dce6fa"/><path d="M2020.35,1125.485c-4.427,3.964-18.571,2.651-18.571,2.651.2-.49,1.638-15.236,1.137-18.568s-.218-6.162-.662-6.291-3.486-1.19-3.486-1.19a57.582,57.582,0,0,1,2.3-6.258c.677-1.115,5.521-2.745,5.521-2.745a19.222,19.222,0,0,1,7.752-.877c6.666.788,7.467,2.75,7.467,2.75l-1.548,9.9s0,.037,0,.107c-.008.222-.028.777-.055,1.544-.113,3.182-.351,10-.384,11.623a69.33,69.33,0,0,0,.537,7.352" transform="translate(-1666.887 -910.77)" fill="#dce6fa"/><path d="M2056.683,1067.6a9.9,9.9,0,0,1-.859,1.322,5.888,5.888,0,0,1-4.495,2.588,3.2,3.2,0,0,1-2.673-1.943,4.885,4.885,0,0,1-.431-1.413l.878-.316a3.92,3.92,0,0,0,.129-.891c.013-.189.017-.388.019-.592,0-.176,0-.354-.006-.528,0-.07,0-.14-.007-.208-.028-.747-.085-1.368-.085-1.368s6.314-3.413,5.8-1.005a5.819,5.819,0,0,0-.04,2.6,1.989,1.989,0,0,0,.817,1.328c.6.289.952.427.952.427" transform="translate(-1708.133 -885.985)" fill="#eea987"/><path d="M1968.5,1108.75a1.265,1.265,0,0,1-.387-.684c-.069-.643.574-1.471-.164-2.056s-3.386,1.2-3.656,1.752.455,1.633,2.158,2.666,2.05-1.679,2.05-1.679" transform="translate(-1638.092 -922.268)" fill="#eea886"/><path d="M1958.157,1084.463a25.7,25.7,0,0,0-1.479-2.531c-.758-1.134-1.824-2.337-2.132-2.13-.422.283.539,1.13,1.21,2.306.618,1.082.3.974.3.974s.092.026-.826-1.02c-.987-1.125-2.193-2.318-2.472-2.069-.175.157-.212.159.075.626-.226-.233-.327-.2-.44-.119-.587.438.586,2.316,1.052,3.062-.362-.571-.693-.95-.878-.463-.212.557,1.574,3.137,2.119,4.123.594,1.075,3.469-2.756,3.469-2.756" transform="translate(-1628.08 -900.488)" fill="#eea886"/><path d="M1997.753,1114.534c2.861-3.483-.68-7.8-.68-7.8-2.094-1.784-6.676,5.7-7.253,6.434s-4.96,4.649-6.183,5.971c-.624.675-3.247-2.2-4.45-3.35-.722-.689-6.355-7.3-6.355-7.3s-3.877,2.8-3.552,2.564,11.48,14.37,13.55,14.48a35.81,35.81,0,0,0,14.921-11" transform="translate(-1642.281 -922.74)" fill="#dce6fa"/><path d="M1999.795,1169.268c-.054.088-.108.176-.164.263a10.105,10.105,0,0,1-.7.972,56.839,56.839,0,0,1-2.6-5.309Z" transform="translate(-1664.849 -971.722)" fill="#89909c"/><path d="M2066.2,1175.531a55.716,55.716,0,0,1-5.534,4.406c-1.948,1.189-5.2,2.809-5.56,2.95,0,0,8.607-1.679,11.094-7.355" transform="translate(-1713.869 -980.342)" fill="#89909c"/><path d="M2026,1004.936s-1.371,2.542-.692,2.937c.562.327-.658,2.821-.818,3.229s1.017.7,1.267.966.991,3.49,1.96,3.587,5.335-1.421,6.525-2.657,2.165-6.82,1.371-9.176-7.193-3.327-9.613,1.113" transform="translate(-1688.325 -835.483)" fill="#eea886"/><path d="M2030.073,996.69a3.905,3.905,0,0,1,1.142-4.782c2.542-2.036,7.23,1.538,7.759,1.674s3.526.342,2.013,5.606a34.346,34.346,0,0,1-1.481,4.71s-.97-2.618-1.52-3.017a5.246,5.246,0,0,0-2.741-.473s.9-2.381-.5-2.718-3.249-1.525-4.667-1" transform="translate(-1692.674 -826.687)" fill="#252e3b"/><path d="M2070.392,1032.189c.124-.327.523-1.73,1.728-.906s-.75,3.47-.96,3.5-1.808.15-.767-2.6" transform="translate(-1726.328 -859.833)" fill="#eea886"/><path d="M2058.983,1069.827s-1.027,2.026-4.688,3.326c.013-.189.017-.388.019-.592,0-.176,0-.354-.006-.528a15.767,15.767,0,0,0,4.675-2.206" transform="translate(-1713.195 -892.19)" fill="#a77860"/><path d="M543.4,1269.415s1.461.65,2.154.355a6.463,6.463,0,0,1,2.1-.353c.452,0,1.867-.506,1.842.047s-2.3.938-2.762,1.111,1.391,1.195,1.564,1.649-1.923,3.434-3.105,2.585-1.822-2.544-2.063-2.651a8.6,8.6,0,0,1-.887-.583Z" transform="translate(-452.211 -1058.463)" fill="#eea886"/><path d="M563.186,1285.792s3.427,2.842,3.481,3.226-.127.563-.459.311-3.4-2.648-3.4-2.648,3.434,4.056,3.55,4.357c.068.176-.261.543-.453.424s-3.844-3.937-3.844-3.937,3.2,3.793,3.216,4.077a.372.372,0,0,1-.628.251c-.258-.264-3.442-3.611-3.442-3.611s2.141,2.912,2.009,3.168c-.081.157-.351.486-.878-.284s-1.975-2.448-1.975-2.448Z" transform="translate(-467.319 -1072.295)" fill="#eea886"/><path d="M398.37,1604.355s-.133,4.656.531,4.936,3.182-1.339,4.292-2.94-1.391-5.328-1.8-7.384c-.172-.861-2.127-2.409-3.081-1.966a4.658,4.658,0,0,0-1.65,1.581s2.426,1.662,1.709,5.773" transform="translate(-330.798 -1331.765)" fill="#ebebeb"/><path d="M396.661,1598.975a25.654,25.654,0,0,1,1.25,2.822c.424,1.233.5,4.647.771,4.884s2.376-.827,2.658-2.1-.574-3.829-1.388-5.17a8.336,8.336,0,0,0-1.642-2.013,2.118,2.118,0,0,0-1.65,1.581" transform="translate(-330.798 -1332.158)" fill="#de9673"/><path d="M425.15,1609.233l2.266,3.307-.429.294-1.751-2.556Z" transform="translate(-354.557 -1342.031)" fill="#ebebeb"/><path d="M347.644,1426.711s1.292,6.855,1.292,8.494a15.086,15.086,0,0,0,1.49,6.309c1.043,1.987,5.621,15.561,6.018,17.143s.738,3.074.738,3.074,2.285-1.043,2.285-2.534-1.987-13.809-2.335-16.243-3.229-14.9-3.229-14.9Z" transform="translate(-289.92 -1189.816)" fill="#de9673"/><path d="M389.024,1422.522s-.447,5.712-.4,7.2.745,4.868.745,5.762,0,19.42-.741,21.655,2.082.7,2.082.7,4.918-12.186,4.918-17.269-.6-7.617-.248-10.846a27.166,27.166,0,0,1,2.533-7.5Z" transform="translate(-323.998 -1186.074)" fill="#eea886"/><path d="M370,967s-4.57,4.6-3.013,10.531,4.057,5.961,6.814,3.411,4.38-5.232,4.744-8.213S374.17,962.9,370,967" transform="translate(-305.779 -805.375)" fill="#eea886"/><path d="M381.371,1050.708a27.027,27.027,0,0,0,1.153-3.3c.084-.308.161-.621.227-.934a6.035,6.035,0,0,0,.077-2.922c-.728-2.153,4.57-.662,4.57-.662s-1.027,5.7,0,7.617-6.027.2-6.027.2" transform="translate(-318.047 -869.309)" fill="#eea886"/><path d="M351.192,1258.427s3.291,4.844,3.986,9.166-.612,10.753-1.153,13.112c-.474,2.068-1.182,8.5-1.232,9.192,0,0-10.332,2.682-17.087.546,0,0-1.047-10.612-1.444-14.536s2.358-17.181,2.358-17.181Z" transform="translate(-278.728 -1049.474)" fill="#20477a"/><path d="M353.442,1115.61l-1.854,2.1s-11.078-8.991-11.574-10.183-4.25-7.9-4.4-8.6c0,0-.719,1.858-1.316,3.668-.248.752-.571,2.121-.717,2.719a17.579,17.579,0,0,0,.21,8.047s-8.975,3.345-14.571.3c0,0,.6-4.868-.3-8.014s-5.564-14.108-5.564-14.108,2.484-4.6,5.067-5.5,5.531-1.562,5.531-1.562h6.123s4.03,1.05,4.932,1.334a5.909,5.909,0,0,1,3.413,4.393c.3,1.838,4.52,14.39,5.017,14.738s10,10.67,10,10.67" transform="translate(-261.329 -904.405)" fill="#dce6fa"/><path d="M336.229,1214.81a45.053,45.053,0,0,0,4.592,0c.618-.155,4.742-1.943,4.99-3.709s-9.582,1.583-9.582,1.583Z" transform="translate(-280.401 -1009.577)" fill="#eea886"/><path d="M361.384,1636.779s-3.071,3.582-2.726,4.226,3.359.972,5.253.418,2.3-5.083,3.285-6.963c.413-.788-.141-3.253-1.175-3.511a4.72,4.72,0,0,0-2.306.194s.852,2.855-2.332,5.635" transform="translate(-299.083 -1360.076)" fill="#fff"/><path d="M372.59,1630.309a26.025,26.025,0,0,1-.813,3.019c-.451,1.241-2.563,3.981-2.5,4.338s2.4.862,3.433.036,1.987-3.381,2.2-4.956a11.7,11.7,0,0,0,.1-2.592,2.31,2.31,0,0,0-2.418.155" transform="translate(-307.957 -1359.24)" fill="#eea886"/><path d="M405.961,1652.493l-.322,4.048-.525-.042.249-3.129Z" transform="translate(-337.848 -1378.108)" fill="#fff"/><path d="M329.487,1193.3l-16.128-1.888,7.286,5.928Z" transform="translate(-261.328 -993.587)" fill="#4c5285"/><path d="M280.05,1207.358a12.245,12.245,0,0,0,0,2.484s-9.946-.994-10.873-2.384a6,6,0,0,1-.894-3.08Z" transform="translate(-223.736 -1004.399)" fill="#eddad3"/><path d="M371.6,969.108a37.4,37.4,0,0,0,3.543,5.4,3.4,3.4,0,0,1,1.2,2.555s5.292-6.529,1.517-10.47-8.644-2.351-10.068,1.093a17.432,17.432,0,0,0-.9,7.651s.042-4.042,4.711-6.227" transform="translate(-305.894 -804.167)" fill="#fccca2"/><path d="M404.324,947.056s-.529-2.909,4.034-4.066,6.612,4.1,6.05,7.306-4.463,11.339-2.347,12.4A2.06,2.06,0,0,0,415,961.469s-.661,4-3.6,3.075-2.546-7.426-2.1-10.017-4.973-7.471-4.973-7.471" transform="translate(-337.173 -786.276)" fill="#fccca2"/><path d="M377.183,1075.858a7.074,7.074,0,0,0,.375-1.507,68.733,68.733,0,0,1,7.241-.137s.117,1.631.1,2-6.682,1.482-7.719-.355" transform="translate(-314.555 -895.789)" fill="#dce6fa"/><path d="M355.741,1206.821l8.842-3.014v-1.027l-9.14,2.932Z" transform="translate(-296.425 -1003.067)" fill="#323657"/><path d="M243.8,1129.81l-4.7-17.486-17.883-1.888,4.9,16.1Z" transform="translate(-184.483 -926.056)" fill="#323657"/><path d="M392.457,1053.91a5.568,5.568,0,0,1-4.144,3.109c.084-.308.161-.622.228-.934,0,0,1.629.328,3.916-2.175" transform="translate(-323.836 -878.916)" fill="#a77860"/><path d="M439.66,1144.083s-.719,1.858-1.316,3.668a31.852,31.852,0,0,1,.211-9.126,19.086,19.086,0,0,0,1.105,5.458" transform="translate(-365.373 -949.564)" fill="#cfbeb8"/><path d="M408.7,963.727a8,8,0,0,1,4.853,3.26s-.328-2.389-1.939-3.077a4.132,4.132,0,0,0-2.914-.183" transform="translate(-340.836 -803.557)" fill="#eddad3"/><path d="M174.3,739.025l-9.38-5.415v3.571H150.979v3.689h13.944v3.571Z" transform="translate(-125.91 -611.798)" fill="#373f51"/><path d="M150.98,667.487l9.379,5.415v-3.571H174.3v-3.689H160.359v-3.571Z" transform="translate(-125.91 -552.14)" fill="#373f51"/><path d="M1029.09,281.069l-7.03-4.058v2.676H1011.61v2.765h10.451v2.676Z" transform="translate(-843.639 -231.015)" fill="#373f51"/><path d="M1011.609,227.455l7.03,4.058v-2.676h10.451v-2.765h-10.451V223.4Z" transform="translate(-843.639 -186.303)" fill="#373f51"/><path d="M1648.383,570.24a4.272,4.272,0,0,1-2.469-.993,3.2,3.2,0,0,1-1.174-2.445,19.418,19.418,0,0,0-1.163-4.99,8.586,8.586,0,1,1,10.289.3,18.48,18.48,0,0,0-1.143,4.741,3.753,3.753,0,0,1-4.015,3.4q-.164,0-.325-.013m1.138-23a7.882,7.882,0,0,0-5.433,14.084l.079.062.035.094a20.25,20.25,0,0,1,1.24,5.289v.027a2.508,2.508,0,0,0,.93,1.922,3.616,3.616,0,0,0,2.341.837,3.055,3.055,0,0,0,3.307-2.715v-.026a19.3,19.3,0,0,1,1.224-5.043l.039-.1.092-.063a7.882,7.882,0,0,0-3.856-14.364" transform="translate(-1367.973 -455.766)" fill="#f4a338"/><path d="M1673.551,624.731l-1.124-9.356,1.951,1.614,1.21-1.342,1.045,1.259,1.823-1.545-1.109,9.371-.7-.083.9-7.6-1,.85-.98-1.18-1.117,1.239-1.115-.922.915,7.61Z" transform="translate(-1394.732 -513.184)" fill="#12263f"/><rect width="2.454" height="6.089" transform="translate(277.674 116.065) rotate(-89.616)" fill="#12263f"/><rect width="3.95" height="8.048" transform="translate(276.702 115.048) rotate(-89.615)" fill="#f4a338"/><path d="M654.017,956.754s-4.16,2.035-3.131,7.569,1.484,6.281.333,8.444-2.508,11.388-1.472,13.137,12.815-7.684,14.449-15.6-1.035-11.435-1.979-12.746-4.527-2.669-8.2-.805" transform="translate(-541.554 -797.13)" fill="#0e2d3d"/><path d="M640.153,1081.675a5.792,5.792,0,0,0-3.306,2.181c-.827,1.217-.894,3.922-1.013,4.431s-1.7,6.273-1.7,6.273l4.41,2.955Z" transform="translate(-528.842 -902.07)" fill="url(#j)"/><path d="M559.589,1644.423s-2.878,3.874-2.483,4.489,3.421.7,5.263,0,1.886-5.243,2.72-7.194c.349-.817-.4-3.227-1.448-3.4a4.424,4.424,0,0,0-2.192.339s1.089,2.748-1.861,5.769" transform="translate(-464.572 -1366.255)" fill="#1d3b54"/><path d="M569.313,1638.344a18.3,18.3,0,0,0-.827,3.225c-.184,1.307-2.05,4.081-1.963,4.431s2.456.669,3.421-.236,1.586-3.535,1.8-5.109a12.648,12.648,0,0,1,.447-2.19s-1.957-1.087-2.878-.122" transform="translate(-472.454 -1365.976)" fill="#eea886"/><path d="M710.969,1644.5s-2.774,3.81-2.379,4.424,3.421.7,5.264,0,1.886-5.243,2.719-7.194c.349-.817-.4-3.227-1.447-3.4a4.713,4.713,0,0,0-2.281.376s1.074,2.775-1.875,5.8" transform="translate(-590.902 -1366.264)" fill="#1d3b54"/><path d="M720.734,1637.98a25.974,25.974,0,0,1-.57,3.07c-.351,1.272-2.237,4.167-2.149,4.518s2.456.669,3.422-.236,1.71-3.523,1.8-5.109a8.436,8.436,0,0,0-.219-2.62,2.143,2.143,0,0,0-2.281.376" transform="translate(-598.791 -1365.543)" fill="#eea886"/><path d="M593.689,1218.813s-2.47,11.489-3.037,14.381-2.155,16.9-2.325,19.284-2.577,11.358-2.464,12.209-3.568,17.941-3.568,17.941a2.214,2.214,0,0,0,2.583.091c.682-.474,8.078-16,8.078-20.254,0-5.88,4.348-13.555,4.909-14.871,5.212-12.221,4.186-15.957,4.866-16.751s.74.49,1.137,2.249,1.247,16.959,1.758,18.887.114,8.451.4,11.74,1.529,18.17,1.529,18.17a1.352,1.352,0,0,0,2.317.039c.291-.317,2.336-16.576,2.392-20.489s.117-9.311.227-11c1.051-16.217,3.633-18.533-.434-30.011-7.616-21.49-18.365-1.612-18.365-1.612" transform="translate(-485.609 -1009.453)" fill="#eea886"/><path d="M642.2,1241.537s7.036,9.847,4.007,30.793c0,0-16.688,2.27-25.628-2.625,0,0,3.7-21.6,5.037-24.957s16.585-3.211,16.585-3.211" transform="translate(-517.539 -1035.388)" fill="#1d3b54"/><path d="M603.191,1656.937v4.057h-.526v-3.135Z" transform="translate(-502.597 -1381.814)" fill="#1d3b54"/><path d="M754.682,1656.937v4.057h-.526v-3.135Z" transform="translate(-628.934 -1381.814)" fill="#1d3b54"/><path d="M650.059,1072.346a27.11,27.11,0,0,1-3.492,1.4c-.9.18-4.392,4.716-5,6.372s0,4.14,1.26,7.056.072,3.888.648,6.8a67.861,67.861,0,0,1,.972,10.71c-.108,1.62,14.561,1.926,17.909-1.026,0,0-3.365-5.04-3.8-5.76s-.072-4.644.324-5.652,3.032-9.58,3.032-9.58,2.156-6.583.208-8.1c-1.692-1.314-6.3-1.782-7.131-2.07a14.144,14.144,0,0,0-4.929-.162" transform="translate(-534.837 -894.177)" fill="#eddad3"/><path d="M681.036,1074.174l-1.575-1.844,1.367-4.856a32.045,32.045,0,0,1,.208,6.7" transform="translate(-566.642 -890.227)" fill="#d6c5be"/><path d="M686.481,1037.192s.071.65.155,1.548c.036.4.076.846.113,1.307a29.642,29.642,0,0,1,.141,3.447s2.694,2.7,5.757-3.15a8.032,8.032,0,0,1-.319-5.7c.97-3.285-5.847,2.544-5.847,2.544" transform="translate(-572.496 -862.015)" fill="#eea886"/><path d="M688.947,1092.973v2.466l3.1-2.316Z" transform="translate(-574.553 -911.493)" fill="#eea886"/><path d="M688.947,1078.124l1.287-1.593,4.335-4.32,1.4,1.35Z" transform="translate(-574.553 -894.178)" fill="#d6c5be"/><path d="M707.218,1074.7s-3.638,5.521-3.812,7.951,1.352,20.607,2.574,26.45,10.051-.659,10.051-.659-5.933-9.6-3.656-17.292,3.105-10.764,3.105-10.764-.784-4.282-3.561-4.885c-2.435-.528-4.7-.8-4.7-.8" transform="translate(-586.599 -896.253)" fill="url(#j)"/><path d="M640.943,1085.821s-.656,2.322,1.9,7.454c0,0-.041,6.568-.113,8.62s-1.523,9.431-1.523,9.431l3.493,1.86a.713.713,0,0,0,1.069-.7c-.716-5.905-3.045-28.3,1.986-34.326l-2.019.6a16.341,16.341,0,0,0-4.793,7.066" transform="translate(-534.456 -899.138)" fill="url(#j)"/><path d="M669.494,1072.33l-1.985.548,3.352-5.4Z" transform="translate(-556.674 -890.228)" fill="#fae6de"/><path d="M696.7,1076.531l1.813,2.376,3.722-6.2-1.2-.493Z" transform="translate(-581.016 -894.178)" fill="#fae6de"/><rect width="7.762" height="0.656" transform="translate(107.725 197.641) rotate(-51.635)" fill="#eb4747"/><path d="M664.731,1180.994a1.407,1.407,0,0,1-.763-.219c-.522-.394-.71-1.364-1.632-1.293s-1.349,2.962-1.119,3.509,1.511.821,3.4.444.111-2.44.111-2.44" transform="translate(-551.376 -983.634)" fill="#eea886"/><path d="M635.471,1174.267a28.822,28.822,0,0,0-2.855-.782c-1.342-.29-2.945-.385-3.1-.153-.174.259,1.307.483,2.622.856,1.211.344.922.47.922.47s.08-.041-1.3-.169c-1.486-.139-3.017-.136-3.168.161-.074.145-.022.242.513.378-.322-.015-.367.069-.38.2-.064.669,2.1,1.2,2.965,1.413-.662-.158-1.162-.207-.924.242.273.513,3.366,1.134,4.457,1.458,1.19.354.25-4.072.25-4.072" transform="translate(-524.194 -978.4)" fill="#eea886"/><path d="M691.2,1079.865c.912-.295,3.588.654,4.04,3.4s.633,5.789,1.055,7.266,1.5,8.024.593,8.566a10.246,10.246,0,0,1-5.02,1.039c-2.481,0-12.1.432-12.1.432l-.6-3.417s3.654-.189,5.547-.476c1.685-.255,4.021-.973,6.771-1.274a46.093,46.093,0,0,0-1.005-5.2c-.422-1.146-3.376-9.006.724-10.333" transform="translate(-566.395 -900.518)" fill="url(#j)"/><path d="M643.418,1185.8l-.451,1.1.966-.692Z" transform="translate(-536.207 -988.903)" fill="#eea886"/></g></g><g transform="translate(95.633 185.324)"><g clip-path="url(#n)"><rect width="20.137" height="19.8" transform="translate(-3.16 16.703) rotate(-79.287)" fill="url(#o)"/></g></g><g transform="translate(0 -0.001)"><g clip-path="url(#b)"><path d="M597.431,1168.9a7.857,7.857,0,0,1-1-1.184,17.622,17.622,0,0,1-1.88-3.492,5.263,5.263,0,0,1,2.857.153c.417.375-.41.522-.41.522s1.257.13,1.167.484-.847.257-.847.257,1.012.194.858.506-.64.308-.64.308.9.113.786.453-1.529.661-1.34.944a6.68,6.68,0,0,1,.452,1.049" transform="translate(-495.819 -970.804)" fill="#eea886"/><path d="M662.184,964.151s-6.039,1.9-2.761,12.32,11.527-1.208,10.664-7.558-7.9-4.762-7.9-4.762" transform="translate(-549.118 -803.914)" fill="#eea987"/><path d="M658.475,966.028a13.624,13.624,0,0,0,8.023,3.313s1.93,2.263,2.078,3.151c0,0,4.481-7.637-1.027-12.216s-11.1,3.865-9.074,5.752" transform="translate(-548.787 -799.709)" fill="#0e2d3d"/><path d="M708.526,1012.388c.039-.759.506-2.485,1.633-2s-.069,4-.817,3.782c0,0-.909.014-.817-1.781" transform="translate(-590.875 -842.549)" fill="#eea987"/><path d="M687.413,1049.368c.036.4.076.846.113,1.307h0c3.492-1.724,4.027-4.21,4.042-4.287-2.487,3.215-4.156,2.98-4.156,2.98" transform="translate(-573.273 -872.642)" fill="#a77860"/></g></g></g></g><g transform="translate(-8608.128 -7027.459)"><rect width="66.663" height="33.308" transform="translate(0 0)" fill="#fff"/><line x2="62.187" transform="translate(2.238 4.112)" fill="none" stroke="#12263f" stroke-miterlimit="10" stroke-width="0.742"/><ellipse cx="0.705" cy="0.705" rx="0.705" ry="0.705" transform="translate(4.892 1.351)" fill="none" stroke="#12263f" stroke-miterlimit="10" stroke-width="0.742"/><ellipse cx="0.705" cy="0.705" rx="0.705" ry="0.705" transform="translate(9.232 1.351)" fill="none" stroke="#12263f" stroke-miterlimit="10" stroke-width="0.742"/><path d="M381.944,189.246a.705.705,0,1,1-.7-.7A.705.705,0,0,1,381.944,189.246Z" transform="translate(-366.962 -187.19)" fill="none" stroke="#12263f" stroke-miterlimit="10" stroke-width="0.742"/><g transform="translate(17.601 2.893)"><circle cx="11.123" cy="11.123" r="11.123" transform="translate(0 15.73) rotate(-45)" fill="#00223d"/></g><g transform="translate(27.508 11.208)"><path d="M4106.112-850.9c-.637-.151-.636-.151-.636-.725,0-.97,0-1.94,0-2.976-.5,0-.981-.015-1.458.005-.333.014-.464-.108-.453-.443.017-.481,0-.964,0-1.494h-.476c-1.55,0-3.1.008-4.65-.006-.377,0-.525.107-.524.507q.02,4.49,0,8.979c0,.4.15.516.523.508.768-.018,1.537-.005,2.305-.005.548,0,.548,0,.737.618h-.962c-.917,0-1.833-.015-2.75.007-.379.009-.487-.135-.485-.5q.015-5.137,0-10.274c0-.354.127-.475.473-.473,1.833.009,3.667,0,5.5.014a.839.839,0,0,1,.521.222c.718.692,1.417,1.4,2.116,2.117a.635.635,0,0,1,.206.365C4106.118-853.28,4106.112-852.108,4106.112-850.9Z" transform="translate(-4097.286 857.17)" fill="#fff"/><path d="M4156.662-772.036l2.7,1.81c.465.313.585.757.3,1.121a.736.736,0,0,1-1.158,0c-.794-.728-1.585-1.46-2.407-2.216a3.12,3.12,0,0,1-2.848.717,2.957,2.957,0,0,1-1.71-1.145,3.06,3.06,0,0,1,.21-3.873,3.049,3.049,0,0,1,3.873-.51C4156.968-775.279,4157.362-773.771,4156.662-772.036Zm-2.658.776a2.312,2.312,0,0,0,2.292-2.292,2.322,2.322,0,0,0-2.316-2.312,2.308,2.308,0,0,0-2.285,2.3A2.3,2.3,0,0,0,4154-771.26Z" transform="translate(-4146.605 783.124)" fill="#fff"/><path d="M4120.308-809.964q-1.214,0-2.427,0c-.181,0-.4.01-.337-.251a.423.423,0,0,1,.33-.214q2.447-.021,4.894,0c.11,0,.218.146.328.224-.106.08-.211.228-.32.231C4121.953-809.955,4121.131-809.964,4120.308-809.964Z" transform="translate(-4115.895 814.221)" fill="#fff"/><path d="M4120.245-790.865c-.8,0-1.591.009-2.387-.01-.117,0-.31-.117-.331-.211-.058-.256.153-.255.338-.255h4.854c.171,0,.364-.036.364.244s-.208.228-.371.229C4121.891-790.862,4121.068-790.864,4120.245-790.865Z" transform="translate(-4115.881 796.666)" fill="#fff"/><path d="M4121.773-829.555c.125.367.026.484-.313.48-1.2-.014-2.392-.006-3.589-.005-.179,0-.4.016-.339-.247a.411.411,0,0,1,.319-.219C4119.153-829.561,4120.456-829.555,4121.773-829.555Z" transform="translate(-4115.885 831.79)" fill="#fff"/><path d="M4120.8-772.148a.768.768,0,0,1-.812.475c-.751-.027-1.5,0-2.255-.017-.092,0-.181-.131-.271-.2.09-.086.179-.244.271-.245.886-.019,1.772-.011,2.659-.011Z" transform="translate(-4115.826 779.027)" fill="#fff"/><path d="M4119.787-752.964c.043.348-.068.48-.394.468-.536-.021-1.073.006-1.609-.015-.106,0-.208-.131-.312-.2.1-.084.206-.237.313-.241C4118.452-752.975,4119.12-752.964,4119.787-752.964Z" transform="translate(-4115.838 761.397)" fill="#fff"/><path d="M4167.084-752.089c.525-.466,1.018-.9,1.509-1.341.181-.161.375-.32.59-.087.233.253.041.437-.15.606-.554.491-1.111.978-1.659,1.475a.4.4,0,0,1-.679-.048c-.215-.276-.438-.545-.662-.814-.156-.188-.225-.395-.009-.564s.4-.038.547.148S4166.895-752.318,4167.084-752.089Z" transform="translate(-4160.339 762.01)" fill="#fff"/></g></g><path d="M2.736,0H73.877a2.921,2.921,0,0,1,2.736,3.076V21.531a2.921,2.921,0,0,1-2.736,3.076H2.736A2.921,2.921,0,0,1,0,21.531V3.076A2.921,2.921,0,0,1,2.736,0Z" transform="translate(-8717.16 -6960.45)" fill="url(#q)"/><g transform="translate(-8712.526 -6954.609)"><g transform="translate(0 0)"><text transform="translate(-0.194 11.655)" fill="#fff" font-size="11" font-family="Roboto-Bold, Roboto" font-weight="700"><tspan x="0" y="0">TOKENS</tspan></text><g transform="translate(50.265 0.476)"><g transform="translate(0 0)"><path d="M1268.309,684.028c-1.821,0-3.643-.019-5.464.009a1.1,1.1,0,0,1-1.2-1.2c.021-2.242.008-4.484.01-6.726a1.014,1.014,0,0,1,1.133-1.138q5.568-.006,11.137,0a1,1,0,0,1,1.051,1.111q0,3.311,0,6.621c0,.088,0,.175,0,.263a1,1,0,0,1-1.053,1.054q-2.81,0-5.621,0Zm5.548-7.921h-11.068v6.8h11.068Z" transform="translate(-1261.651 -672.456)" fill="#fff"/><path d="M1318.783,635.818v-1.1h.75v-6.518h-11.373v.595h-1.1a6.33,6.33,0,0,1,.008-.913.946.946,0,0,1,.986-.805c1.392-.006,2.785,0,4.177,0q3.665,0,7.329,0a1,1,0,0,1,1.1,1.082q0,3.271,0,6.542a1.012,1.012,0,0,1-1.116,1.126C1319.3,635.819,1319.058,635.818,1318.783,635.818Z" transform="translate(-1304.663 -627.067)" fill="#fff"/><path d="M1294.988,716.3l2.2,1.719,2.653-3.241,1.957,3.24,1.844-1.909v.5q0,1.432,0,2.865c0,.456-.144.6-.6.6l-8.775,0c-.482,0-.607-.125-.608-.6,0-.517-.01-1.034.005-1.55a.619.619,0,0,1,.146-.366C1294.187,717.13,1294.584,716.724,1294.988,716.3Z" transform="translate(-1291.972 -710.168)" fill="#fff"/><path d="M1345.34,722.6a.706.706,0,1,1,.706-.691A.7.7,0,0,1,1345.34,722.6Z" transform="translate(-1340.282 -716.243)" fill="#fff"/></g></g></g></g><g transform="translate(-8603.884 -6909.757)"><g transform="translate(0 0)"><g transform="translate(0.827 28.596)"><path d="M1901.408,1147.808c-7.489-4.324-19.594-4.327-27.036,0s-7.4,11.336.09,15.66,19.593,4.324,27.034,0S1908.9,1152.132,1901.408,1147.808Z" transform="translate(-1868.802 -1144.564)" fill="#fecc2b"/><g transform="translate(0 11.016)"><path d="M1868.776,1187.44l-.016,5.861c-.008,2.513,1.454,5.028,4.381,7.081v-5.874C1870.224,1192.46,1868.77,1189.95,1868.776,1187.44Z" transform="translate(-1868.76 -1187.44)" fill="#ffb200"/><path d="M1899.52,1222.46v5.868a26,26,0,0,0,4.766,1.464v-5.865A25.726,25.726,0,0,1,1899.52,1222.46Z" transform="translate(-1891.617 -1213.463)" fill="#ffb200"/><path d="M1963.273,1195.655a26.276,26.276,0,0,1-11.323,3.168v5.86a26.289,26.289,0,0,0,11.307-3.168c3.7-2.148,5.547-4.959,5.555-7.775l.015-5.86C1968.82,1190.694,1966.97,1193.5,1963.273,1195.655Z" transform="translate(-1930.577 -1187.767)" fill="#fb9004"/><path d="M1887.082,1215.777q-.682-.393-1.282-.817v5.873c.4.277.815.547,1.264.807a20.733,20.733,0,0,0,2.258,1.118v-5.868A21.142,21.142,0,0,1,1887.082,1215.777Z" transform="translate(-1881.422 -1207.89)" fill="#ffd54f"/><path d="M1918.07,1228.17v5.866a32.455,32.455,0,0,0,8.7.586v-5.861A32.34,32.34,0,0,1,1918.07,1228.17Z" transform="translate(-1905.401 -1217.706)" fill="#ffd54f"/></g><g transform="translate(3.383 1.889)"><path d="M1886.854,1155.626c5.938-3.451,15.6-3.451,21.571,0,4.221,2.436,5.473,5.94,3.756,9.005,2.436-3.327,1.3-7.325-3.4-10.041-6.174-3.564-16.148-3.564-22.281,0-4.648,2.7-5.75,6.675-3.324,9.992C1881.464,1161.53,1882.685,1158.051,1886.854,1155.626Z" transform="translate(-1881.925 -1151.918)" fill="#fb9004"/><path d="M1888.024,1170.745c6.174,3.564,16.145,3.564,22.278,0a10.718,10.718,0,0,0,3.33-2.865c1.716-3.065.465-6.57-3.756-9.005-5.976-3.451-15.634-3.451-21.572,0-4.17,2.423-5.39,5.9-3.679,8.957A10.869,10.869,0,0,0,1888.024,1170.745Z" transform="translate(-1883.375 -1155.165)" fill="#ff9e01"/></g><g transform="translate(0.021 10.6)"><path d="M1901.518,1193.294c-7.443,4.324-19.544,4.324-27.034,0-3.589-2.071-5.462-4.761-5.627-7.474-.2,2.988,1.675,6.02,5.627,8.3,7.49,4.324,19.593,4.324,27.034,0,3.877-2.253,5.719-5.236,5.539-8.188C1906.875,1188.61,1905.032,1191.251,1901.518,1193.294Z" transform="translate(-1868.843 -1185.82)" fill="#feedb5"/></g></g><g transform="translate(0 21.135)"><path d="M1898.188,1118.768c-7.49-4.324-19.593-4.327-27.037,0s-7.4,11.336.09,15.66,19.593,4.324,27.034,0S1905.677,1123.092,1898.188,1118.768Z" transform="translate(-1865.581 -1115.524)" fill="#fecc2b"/><g transform="translate(0 11.019)"><path d="M1865.555,1158.41l-.015,5.86c-.008,2.513,1.454,5.028,4.381,7.081v-5.873C1867,1163.43,1865.548,1160.917,1865.555,1158.41Z" transform="translate(-1865.54 -1158.41)" fill="#ffb200"/><path d="M1896.29,1193.43v5.868a25.938,25.938,0,0,0,4.766,1.464V1194.9A26.158,26.158,0,0,1,1896.29,1193.43Z" transform="translate(-1888.39 -1184.432)" fill="#ffb200"/><path d="M1960.043,1166.622a26.315,26.315,0,0,1-11.323,3.17v5.86a26.286,26.286,0,0,0,11.307-3.168c3.7-2.148,5.547-4.958,5.555-7.775l.016-5.861C1965.59,1161.663,1963.74,1164.474,1960.043,1166.622Z" transform="translate(-1927.349 -1158.737)" fill="#fb9004"/><path d="M1883.862,1186.737q-.682-.393-1.282-.817v5.873c.4.277.815.547,1.264.807a20.753,20.753,0,0,0,2.258,1.118v-5.868A20.624,20.624,0,0,1,1883.862,1186.737Z" transform="translate(-1878.202 -1178.852)" fill="#ffd54f"/><path d="M1914.84,1199.14v5.866a32.45,32.45,0,0,0,8.7.586v-5.86A32.458,32.458,0,0,1,1914.84,1199.14Z" transform="translate(-1902.174 -1188.676)" fill="#ffd54f"/></g><g transform="translate(3.383 1.892)"><path d="M1883.635,1126.6c5.937-3.451,15.6-3.451,21.572,0,4.221,2.436,5.472,5.94,3.756,9.005,2.436-3.327,1.3-7.325-3.4-10.041-6.174-3.564-16.147-3.564-22.28,0-4.648,2.7-5.75,6.675-3.325,9.992C1878.242,1132.5,1879.462,1129.019,1883.635,1126.6Z" transform="translate(-1878.705 -1122.888)" fill="#fb9004"/><path d="M1884.794,1141.705c6.174,3.564,16.145,3.564,22.278,0a10.72,10.72,0,0,0,3.33-2.865c1.716-3.065.465-6.569-3.756-9.005-5.976-3.45-15.634-3.45-21.572,0-4.17,2.423-5.39,5.9-3.679,8.956A10.9,10.9,0,0,0,1884.794,1141.705Z" transform="translate(-1880.148 -1126.127)" fill="#ff9e01"/></g><g transform="translate(0.019 10.602)"><path d="M1898.288,1164.264c-7.443,4.324-19.544,4.324-27.033,0-3.59-2.071-5.463-4.761-5.627-7.474-.2,2.988,1.675,6.02,5.627,8.3,7.489,4.324,19.593,4.324,27.033,0,3.877-2.253,5.719-5.236,5.539-8.188C1903.647,1159.578,1901.8,1162.222,1898.288,1164.264Z" transform="translate(-1865.612 -1156.79)" fill="#feedb5"/></g></g><g transform="translate(1.657 13.676)"><path d="M1904.638,1089.738c-7.489-4.324-19.593-4.327-27.036,0s-7.4,11.336.09,15.66,19.593,4.324,27.034,0S1912.128,1094.062,1904.638,1089.738Z" transform="translate(-1872.031 -1086.494)" fill="#fecc2b"/><g transform="translate(0 11.016)"><path d="M1872.005,1129.37l-.016,5.861c-.007,2.513,1.454,5.028,4.381,7.081v-5.873C1873.455,1134.39,1872,1131.88,1872.005,1129.37Z" transform="translate(-1871.99 -1129.37)" fill="#ffb200"/><path d="M1902.75,1164.39v5.868a26,26,0,0,0,4.766,1.464v-5.866A25.684,25.684,0,0,1,1902.75,1164.39Z" transform="translate(-1894.847 -1155.393)" fill="#ffb200"/><path d="M1966.493,1137.585a26.273,26.273,0,0,1-11.323,3.168v5.861a26.3,26.3,0,0,0,11.307-3.168c3.7-2.148,5.547-4.959,5.555-7.775l.015-5.861C1972.043,1132.624,1970.19,1135.434,1966.493,1137.585Z" transform="translate(-1933.799 -1129.697)" fill="#fb9004"/><path d="M1890.312,1157.707q-.682-.393-1.282-.817v5.873c.4.278.814.547,1.264.807a20.712,20.712,0,0,0,2.259,1.118v-5.868A21.083,21.083,0,0,1,1890.312,1157.707Z" transform="translate(-1884.652 -1149.819)" fill="#ffd54f"/><path d="M1921.3,1170.1v5.866a32.448,32.448,0,0,0,8.7.586v-5.86A32.331,32.331,0,0,1,1921.3,1170.1Z" transform="translate(-1908.631 -1159.635)" fill="#ffd54f"/></g><g transform="translate(3.382 1.889)"><path d="M1890.084,1097.556c5.937-3.45,15.6-3.45,21.571,0,4.221,2.436,5.473,5.94,3.756,9.005,2.436-3.327,1.3-7.325-3.4-10.041-6.174-3.564-16.148-3.564-22.281,0-4.648,2.7-5.75,6.675-3.324,9.992C1884.692,1103.46,1885.912,1099.981,1890.084,1097.556Z" transform="translate(-1885.155 -1093.848)" fill="#fb9004"/><path d="M1891.244,1112.676c6.174,3.564,16.145,3.564,22.278,0a10.72,10.72,0,0,0,3.33-2.865c1.716-3.065.465-6.57-3.756-9.005-5.976-3.45-15.634-3.45-21.572,0-4.17,2.423-5.391,5.9-3.679,8.956A10.933,10.933,0,0,0,1891.244,1112.676Z" transform="translate(-1886.598 -1097.095)" fill="#ff9e01"/></g><g transform="translate(0.019 10.6)"><path d="M1904.738,1135.224c-7.443,4.324-19.544,4.324-27.034,0-3.589-2.071-5.462-4.761-5.627-7.474-.2,2.988,1.675,6.02,5.627,8.3,7.49,4.324,19.593,4.324,27.034,0,3.877-2.253,5.719-5.236,5.54-8.188C1910.1,1130.54,1908.252,1133.182,1904.738,1135.224Z" transform="translate(-1872.062 -1127.75)" fill="#feedb5"/></g></g><g transform="translate(0 7.045)"><path d="M1898.188,1063.928c-7.49-4.324-19.593-4.327-27.037,0s-7.4,11.335.09,15.66,19.593,4.324,27.034,0S1905.677,1068.252,1898.188,1063.928Z" transform="translate(-1865.581 -1060.684)" fill="#fecc2b"/><g transform="translate(0 11.019)"><path d="M1865.555,1103.57l-.015,5.86c-.008,2.513,1.454,5.028,4.381,7.081v-5.873C1867,1108.588,1865.548,1106.078,1865.555,1103.57Z" transform="translate(-1865.54 -1103.57)" fill="#ffb200"/><path d="M1896.29,1138.58v5.868a25.966,25.966,0,0,0,4.766,1.464v-5.865A25.771,25.771,0,0,1,1896.29,1138.58Z" transform="translate(-1888.39 -1129.585)" fill="#ffb200"/><path d="M1960.043,1111.782a26.313,26.313,0,0,1-11.323,3.171v5.86a26.3,26.3,0,0,0,11.307-3.168c3.7-2.148,5.547-4.959,5.555-7.775l.016-5.861C1965.59,1106.821,1963.74,1109.632,1960.043,1111.782Z" transform="translate(-1927.349 -1103.897)" fill="#fb9004"/><path d="M1883.862,1131.9q-.682-.393-1.282-.817v5.873c.4.277.815.547,1.264.807a20.73,20.73,0,0,0,2.258,1.118v-5.868A20.713,20.713,0,0,1,1883.862,1131.9Z" transform="translate(-1878.202 -1124.012)" fill="#ffd54f"/><path d="M1914.84,1144.3v5.866a32.455,32.455,0,0,0,8.7.586v-5.86A32.563,32.563,0,0,1,1914.84,1144.3Z" transform="translate(-1902.174 -1133.835)" fill="#ffd54f"/></g><g transform="translate(3.383 1.889)"><path d="M1883.635,1071.746c5.937-3.451,15.6-3.451,21.572,0,4.221,2.436,5.472,5.94,3.756,9.005,2.436-3.327,1.3-7.325-3.4-10.04-6.174-3.564-16.147-3.564-22.28,0-4.648,2.7-5.75,6.675-3.325,9.992C1878.242,1077.65,1879.462,1074.171,1883.635,1071.746Z" transform="translate(-1878.705 -1068.038)" fill="#fb9004"/><path d="M1884.794,1086.865c6.174,3.564,16.145,3.564,22.278,0a10.723,10.723,0,0,0,3.33-2.865c1.716-3.065.465-6.569-3.756-9.005-5.976-3.45-15.634-3.45-21.572,0-4.17,2.423-5.39,5.9-3.679,8.956A10.931,10.931,0,0,0,1884.794,1086.865Z" transform="translate(-1880.148 -1071.285)" fill="#ff9e01"/></g><g transform="translate(0.019 10.6)"><path d="M1898.288,1109.414c-7.443,4.324-19.544,4.324-27.033,0-3.59-2.071-5.463-4.761-5.627-7.474-.2,2.988,1.675,6.02,5.627,8.3,7.489,4.324,19.593,4.324,27.033,0,3.877-2.253,5.719-5.236,5.539-8.188C1903.647,1104.73,1901.8,1107.372,1898.288,1109.414Z" transform="translate(-1865.612 -1101.94)" fill="#feedb5"/></g></g><path d="M1898.188,1036.508c-7.49-4.324-19.593-4.327-27.037,0s-7.4,11.336.09,15.66,19.593,4.324,27.034,0S1905.677,1040.832,1898.188,1036.508Z" transform="translate(-1865.581 -1033.264)" fill="#fecc2b"/><g transform="translate(0 11.016)"><path d="M1865.555,1076.14l-.015,5.86c-.008,2.513,1.454,5.028,4.381,7.081v-5.873C1867,1081.161,1865.548,1078.65,1865.555,1076.14Z" transform="translate(-1865.54 -1076.14)" fill="#ffb200"/><path d="M1896.29,1111.16v5.868a25.956,25.956,0,0,0,4.766,1.464v-5.865A25.781,25.781,0,0,1,1896.29,1111.16Z" transform="translate(-1888.39 -1102.163)" fill="#ffb200"/><path d="M1960.043,1084.352a26.315,26.315,0,0,1-11.323,3.17v5.86a26.29,26.29,0,0,0,11.307-3.168c3.7-2.148,5.547-4.959,5.555-7.775l.016-5.86C1965.59,1079.393,1963.74,1082.2,1960.043,1084.352Z" transform="translate(-1927.349 -1076.467)" fill="#fb9004"/><path d="M1883.862,1104.477q-.682-.393-1.282-.817v5.873c.4.278.815.547,1.264.807a20.731,20.731,0,0,0,2.258,1.118v-5.868A20.713,20.713,0,0,1,1883.862,1104.477Z" transform="translate(-1878.202 -1096.589)" fill="#ffd54f"/><path d="M1914.84,1116.87v5.866a32.455,32.455,0,0,0,8.7.586v-5.86A32.359,32.359,0,0,1,1914.84,1116.87Z" transform="translate(-1902.174 -1106.406)" fill="#ffd54f"/></g><g transform="translate(3.383 1.889)"><path d="M1883.635,1044.326c5.937-3.451,15.6-3.451,21.572,0,4.221,2.436,5.472,5.94,3.756,9.005,2.436-3.327,1.3-7.325-3.4-10.041-6.174-3.563-16.147-3.563-22.28,0-4.648,2.7-5.75,6.675-3.325,9.992C1878.242,1050.23,1879.462,1046.749,1883.635,1044.326Z" transform="translate(-1878.705 -1040.618)" fill="#fb9004"/><path d="M1884.794,1059.445c6.174,3.564,16.145,3.564,22.278,0a10.725,10.725,0,0,0,3.33-2.865c1.716-3.065.465-6.57-3.756-9.005-5.976-3.451-15.634-3.451-21.572,0-4.17,2.423-5.39,5.9-3.679,8.956A10.932,10.932,0,0,0,1884.794,1059.445Z" transform="translate(-1880.148 -1043.865)" fill="#ff9e01"/></g><g transform="translate(0.019 10.6)"><path d="M1898.288,1081.994c-7.443,4.324-19.544,4.324-27.033,0-3.59-2.071-5.463-4.761-5.627-7.474-.2,2.988,1.675,6.02,5.627,8.3,7.489,4.324,19.593,4.324,27.033,0,3.877-2.253,5.719-5.236,5.539-8.188C1903.647,1077.311,1901.8,1079.951,1898.288,1081.994Z" transform="translate(-1865.612 -1074.52)" fill="#feedb5"/></g></g><g transform="translate(8.756 5.082)"><path d="M1919.075,1056.568a6.469,6.469,0,0,0-5.082-.439c.46-.853.162-1.732-1.018-2.418-1.8-1.043-4.476-.9-7.371.712l-1.657-.964L1901.28,1055l1.652.958-3.312,1.911,11.79,6.852,3.312-1.912,1.593.925,2.667-1.539-1.593-.925.159-.093C1920.665,1059.379,1921.115,1057.755,1919.075,1056.568Zm-11.891,2.536-2.78-1.616.581-.336,2.148-1.241q.278-.158.547-.285a3.071,3.071,0,0,1,2.9-.108c.8.465.717,1.046-.18,1.69a5.155,5.155,0,0,1-.491.316l-2.148,1.241Zm8.15.971-.046.026-2.621,1.513-.581.337-2.913-1.693.58-.337,2.621-1.513.046-.026c1.406-.8,2.623-.958,3.6-.385C1917.027,1058.58,1916.716,1059.266,1915.334,1060.075Z" transform="translate(-1899.62 -1053.044)" fill="#feedb5"/></g><g transform="translate(8.756 4.668)"><path d="M1919.075,1054.958a6.468,6.468,0,0,0-5.082-.439c.46-.853.162-1.732-1.018-2.418-1.8-1.043-4.476-.9-7.371.712l-1.657-.963-2.667,1.539,1.652.958-3.312,1.911,11.79,6.852,3.312-1.911,1.593.925,2.667-1.539-1.593-.925.159-.093C1920.665,1057.766,1921.115,1056.142,1919.075,1054.958Zm-11.891,2.536-2.78-1.616.581-.337,2.148-1.241q.278-.158.547-.285a3.073,3.073,0,0,1,2.9-.108c.8.463.717,1.046-.18,1.691a5.061,5.061,0,0,1-.491.316l-2.148,1.241Zm8.15.971-.046.026-2.621,1.513-.581.337-2.913-1.693.58-.337,2.621-1.513.046-.026c1.406-.8,2.623-.958,3.6-.385C1917.027,1056.97,1916.716,1057.656,1915.334,1058.465Z" transform="translate(-1899.62 -1051.434)" fill="#fecc2b"/></g></g><g transform="translate(-8726.004 -7118.507)"><rect width="53.23" height="13.746" transform="translate(2.819)" fill="#1565c0"/><path d="M32.293,141.858,28.978,151h-2.55l-2.057-5.678L22.247,151H19.7l-3.3-9.146h2.5l2.159,6.187,2.244-6.187h2.245l2.176,6.187,2.226-6.187Z" transform="translate(-10.745 -139.663)" fill="#fff"/><path d="M49.432,141.858,46.117,151h-2.55l-2.057-5.678L39.385,151h-2.55l-3.3-9.146h2.5l2.159,6.187,2.244-6.187h2.245l2.176,6.187,2.227-6.187Z" transform="translate(-12.176 -139.663)" fill="#fff"/><path d="M66.571,141.858,63.256,151h-2.55l-2.057-5.678L56.524,151h-2.55l-3.3-9.146h2.5l2.159,6.187,2.244-6.187h2.244L62,148.046l2.227-6.187Z" transform="translate(-13.606 -139.663)" fill="#fff"/><line x2="5.637" transform="translate(0)" fill="none" stroke="#38356e" stroke-miterlimit="10" stroke-width="1"/><line x2="5.637" transform="translate(0 13.746)" fill="none" stroke="#38356e" stroke-miterlimit="10" stroke-width="1"/><line y2="13.746" transform="translate(2.819)" fill="none" stroke="#38356e" stroke-miterlimit="10" stroke-width="1"/></g></g></svg>