<svg xmlns="http://www.w3.org/2000/svg" width="409.299" height="260.987" viewBox="0 0 409.299 260.987"><g transform="translate(9650.653 6511.495)"><g transform="translate(-10775.653 -7720.585)"><g transform="translate(1125 1209.09)"><g transform="translate(123.444 99.105)"><rect width="210.546" height="137.484" rx="7.462" transform="translate(0 0)" fill="#262f43"/><path d="M217.811,343.867H418.546v-124.7a4.792,4.792,0,0,0-4.791-4.792H222.6a4.792,4.792,0,0,0-4.792,4.792Z" transform="translate(-212.906 -209.251)" fill="#cbd7f2"/><path d="M222.2,341.257H415.343V222.507a4.588,4.588,0,0,0-4.611-4.563H226.806a4.587,4.587,0,0,0-4.611,4.563Z" transform="translate(-213.497 -209.733)" fill="#e3e9f9"/><path d="M218.6,364.579H416.231a6.457,6.457,0,0,0,6.457-6.457V346.871H212.143v11.251A6.456,6.456,0,0,0,218.6,364.579Z" transform="translate(-212.143 -227.095)" fill="#262f43"/><path d="M336.786,356.552a3.537,3.537,0,1,1-3.537-3.538A3.537,3.537,0,0,1,336.786,356.552Z" transform="translate(-227.976 -227.922)" fill="#e3e9f9"/><rect width="81.752" height="6.69" transform="translate(64.397 155.192)" fill="#9faadd"/><path d="M347.077,385.043H315.94l5.608-17.708H342.4Z" transform="translate(-226.121 -229.851)" fill="#e3e9f9"/><path d="M344.52,373.127l-1.528-5.792H322.135l-1.834,5.792Z" transform="translate(-226.708 -229.851)" fill="#c3cee6"/></g><g transform="translate(159.094 106.933)"><g transform="translate(43.13)"><rect width="1.436" height="16.036" transform="translate(1.589 13.789)" fill="#2947ab"/><rect width="1.436" height="25.449" transform="translate(15.87 4.375)" fill="#2947ab"/><rect width="1.436" height="16.036" transform="translate(30.15 13.789)" fill="#2947ab"/><rect width="1.436" height="25.449" transform="translate(44.431 4.375)" fill="#2947ab"/><path d="M357.3,219.808A2.307,2.307,0,1,1,355,217.5,2.308,2.308,0,0,1,357.3,219.808Z" transform="translate(-309.849 -217.501)" fill="#9faadd"/><path d="M324.3,219.808a2.307,2.307,0,1,1-2.307-2.307A2.307,2.307,0,0,1,324.3,219.808Z" transform="translate(-305.404 -217.501)" fill="#9faadd"/><path d="M307.8,231.974a2.307,2.307,0,1,1-2.308-2.307A2.307,2.307,0,0,1,307.8,231.974Z" transform="translate(-303.182 -219.139)" fill="#9faadd"/><path d="M340.8,231.974a2.307,2.307,0,1,1-2.307-2.307A2.306,2.306,0,0,1,340.8,231.974Z" transform="translate(-307.627 -219.139)" fill="#9faadd"/></g><g transform="translate(43.13 78.649)"><rect width="1.436" height="16.036" transform="translate(44.431)" fill="#2947ab"/><rect width="1.436" height="25.449" transform="translate(30.15)" fill="#2947ab"/><rect width="1.436" height="16.036" transform="translate(15.87)" fill="#2947ab"/><rect width="1.436" height="25.449" transform="translate(1.589)" fill="#2947ab"/><path d="M303.182,339.831a2.307,2.307,0,1,1,2.307,2.307A2.307,2.307,0,0,1,303.182,339.831Z" transform="translate(-303.182 -312.314)" fill="#9faadd"/><path d="M336.188,339.831a2.307,2.307,0,1,1,2.307,2.307A2.307,2.307,0,0,1,336.188,339.831Z" transform="translate(-307.627 -312.314)" fill="#9faadd"/><path d="M352.691,327.665A2.307,2.307,0,1,1,355,329.973,2.307,2.307,0,0,1,352.691,327.665Z" transform="translate(-309.849 -310.675)" fill="#9faadd"/><path d="M319.685,327.665a2.307,2.307,0,1,1,2.307,2.308A2.307,2.307,0,0,1,319.685,327.665Z" transform="translate(-305.404 -310.675)" fill="#9faadd"/></g><g transform="translate(100.238 30.509)"><rect width="19.774" height="1.436" transform="translate(0 1.589)" fill="#2947ab"/><rect width="29.188" height="1.436" transform="translate(0 15.87)" fill="#2947ab"/><rect width="19.774" height="1.436" transform="translate(0 30.15)" fill="#2947ab"/><rect width="29.188" height="1.436" transform="translate(0 44.431)" fill="#2947ab"/><path d="M404.939,306.881a2.307,2.307,0,1,1,2.307-2.307A2.307,2.307,0,0,1,404.939,306.881Z" transform="translate(-373.683 -259.425)" fill="#9faadd"/><path d="M404.939,273.876a2.307,2.307,0,1,1,2.307-2.308A2.308,2.308,0,0,1,404.939,273.876Z" transform="translate(-373.683 -254.98)" fill="#9faadd"/><path d="M392.773,257.373a2.307,2.307,0,1,1,2.308-2.307A2.307,2.307,0,0,1,392.773,257.373Z" transform="translate(-372.045 -252.758)" fill="#9faadd"/><path d="M392.773,290.379a2.307,2.307,0,1,1,2.308-2.308A2.308,2.308,0,0,1,392.773,290.379Z" transform="translate(-372.045 -257.203)" fill="#9faadd"/></g><g transform="translate(0 30.509)"><rect width="19.774" height="1.436" transform="translate(13.789 44.431)" fill="#2947ab"/><rect width="29.188" height="1.436" transform="translate(4.375 30.15)" fill="#2947ab"/><rect width="19.774" height="1.436" transform="translate(13.789 15.87)" fill="#2947ab"/><rect width="29.188" height="1.436" transform="translate(4.375 1.589)" fill="#2947ab"/><path d="M255.648,252.758a2.307,2.307,0,1,1-2.308,2.308A2.308,2.308,0,0,1,255.648,252.758Z" transform="translate(-253.34 -252.758)" fill="#9faadd"/><path d="M255.648,285.764a2.307,2.307,0,1,1-2.308,2.307A2.307,2.307,0,0,1,255.648,285.764Z" transform="translate(-253.34 -257.203)" fill="#9faadd"/><path d="M267.813,302.267a2.307,2.307,0,1,1-2.307,2.307A2.308,2.308,0,0,1,267.813,302.267Z" transform="translate(-254.978 -259.425)" fill="#9faadd"/><path d="M267.813,269.261a2.307,2.307,0,1,1-2.307,2.307A2.308,2.308,0,0,1,267.813,269.261Z" transform="translate(-254.978 -254.98)" fill="#9faadd"/></g><g transform="translate(29.446 26.806)"><rect width="74.824" height="54.863" rx="3.507" fill="#12263f"/><rect width="68.391" height="48.787" rx="4.458" transform="translate(3.216 3.038)" fill="#8792c9"/><path d="M353.789,298.244h-56.1a3.13,3.13,0,0,1-3.193-3.064V258.519a3.131,3.131,0,0,1,3.193-3.065h56.1a3.131,3.131,0,0,1,3.192,3.065V295.18A3.13,3.13,0,0,1,353.789,298.244Z" transform="translate(-288.329 -249.418)" fill="#fff"/><path d="M351.772,296.563H300.481a3.037,3.037,0,0,1-3.113-2.946V260.7a3.037,3.037,0,0,1,3.113-2.946h51.291a3.037,3.037,0,0,1,3.113,2.946v32.914A3.037,3.037,0,0,1,351.772,296.563Zm-51.291-38.417a2.647,2.647,0,0,0-2.724,2.557v32.914a2.647,2.647,0,0,0,2.724,2.556h51.291a2.647,2.647,0,0,0,2.724-2.556V260.7a2.647,2.647,0,0,0-2.724-2.557Z" transform="translate(-288.715 -249.728)" fill="#2947ab"/></g></g><text transform="translate(221.793 168.333)" fill="#2947ab" font-size="21" font-family="Montserrat-Bold, Montserrat" font-weight="700"><tspan x="-21.735" y="0">NFT</tspan></text><g transform="translate(59.963 0)"><g transform="translate(83.419 37.317)"><circle cx="38.225" cy="38.225" r="38.225" transform="translate(1.757 1.757)" fill="#12263f"/><circle cx="33.155" cy="33.155" r="33.155" transform="translate(0 64.476) rotate(-76.492)" fill="#a7b6d4"/><circle cx="30.792" cy="30.792" r="30.792" transform="translate(9.19 9.19)" fill="#e3e9f9"/><circle cx="23.443" cy="23.443" r="23.443" transform="translate(16.539 16.539)" fill="#fff"/><g transform="translate(22.638 13.055)"><path d="M281.386,152.137v38.932l16.768-11.538Z" transform="translate(-264.044 -152.137)" fill="#af5e46"/><path d="M281.386,176.3v18.02l16.768-11.538Z" transform="translate(-264.044 -155.391)" fill="#8f4d39"/><path d="M278.776,152.137v38.932l-16.768-11.538Z" transform="translate(-261.434 -152.137)" fill="#f76846"/><path d="M278.776,176.3v18.02l-16.768-11.538Z" transform="translate(-261.434 -155.391)" fill="#af5e46"/><g transform="translate(0 30.022)"><path d="M281.386,210.663l17.4-23.832-17.4,12.366Z" transform="translate(-264.044 -186.831)" fill="#af5e46"/><path d="M278.746,210.663l-17.4-23.832,17.4,12.366Z" transform="translate(-261.345 -186.831)" fill="#f76846"/></g></g></g><g transform="translate(152.733 23.342)"><path d="M316.389,120.9H352.4a1.1,1.1,0,0,1,1.1,1.1V140.7a1.1,1.1,0,0,1-1.1,1.1H327.78L325,147.264l-3.569-5.46h-5.04a1.1,1.1,0,0,1-1.1-1.1V122.005A1.1,1.1,0,0,1,316.389,120.9Z" transform="translate(-315.285 -120.901)" fill="#8e9acb"/><g transform="translate(3.401 8.372)"><path d="M350.547,132.728a2.152,2.152,0,1,0,2.151-2.152A2.151,2.151,0,0,0,350.547,132.728Z" transform="translate(-323.434 -130.576)" fill="#fff"/><path d="M340.1,132.728a2.152,2.152,0,1,0,2.151-2.152A2.151,2.151,0,0,0,340.1,132.728Z" transform="translate(-322.028 -130.576)" fill="#fff"/><path d="M329.659,132.728a2.152,2.152,0,1,0,2.151-2.152A2.151,2.151,0,0,0,329.659,132.728Z" transform="translate(-320.621 -130.576)" fill="#fff"/><path d="M319.215,132.728a2.152,2.152,0,1,0,2.151-2.152A2.151,2.151,0,0,0,319.215,132.728Z" transform="translate(-319.215 -130.576)" fill="#fff"/></g></g><g transform="translate(99.958 2.51)"><path d="M286.816,107.924a5.114,5.114,0,0,1,3.637-6.252l-1.281-4.845L254.3,106.048l1.282,4.845a5.114,5.114,0,1,1,2.614,9.889l1.281,4.845,34.876-9.221-1.281-4.845A5.114,5.114,0,0,1,286.816,107.924Z" transform="translate(-254.296 -96.827)" fill="#2947ab"/><path d="M274.314,104.945l3.289,3.774,4.973-.57L280,112.442,282.084,117l-4.879-1.12-3.688,3.385-.443-4.986-4.359-2.462,4.605-1.962Z" transform="translate(-256.238 -97.92)" fill="#fff"/><g transform="translate(7.614 4.313)"><rect width="0.712" height="15.585" transform="matrix(0.967, -0.256, 0.256, 0.967, 0, 5.54)" fill="#5f7acf"/><rect width="0.712" height="15.585" transform="translate(20.268 0.182) rotate(-14.81)" fill="#5f7acf"/></g></g><g transform="translate(285.537 102.136)"><path d="M474.019,247.739l-5.263-4.044,5.263-4.044,5.263,4.044Z" transform="translate(-468.756 -215.687)" fill="#f78f5f"/><path d="M468.756,270.593l5.263,4.044V248.368l-5.263-4.044Z" transform="translate(-468.756 -216.316)" fill="#f76846"/><path d="M480.1,270.593l-5.263,4.044V248.368l5.263-4.044Z" transform="translate(-469.575 -216.316)" fill="#af5e46"/><path d="M493.2,229.837l-5.263-4.044,5.263-4.044,5.263,4.044Z" transform="translate(-471.34 -213.276)" fill="#8da1de"/><path d="M487.941,268.182l5.263,4.044v-41.76l-5.263-4.044Z" transform="translate(-471.34 -213.906)" fill="#5f7acf"/><path d="M499.287,268.182l-5.263,4.044v-41.76l5.263-4.044Z" transform="translate(-472.159 -213.906)" fill="#2947ab"/><path d="M512.39,220.046,507.127,216l5.263-4.044L517.653,216Z" transform="translate(-473.923 -211.958)" fill="#e3e9f9"/><path d="M507.127,266.863l5.263,4.044V220.675l-5.263-4.044Z" transform="translate(-473.923 -212.587)" fill="#becae5"/><path d="M518.472,266.863l-5.263,4.044V220.675l5.263-4.044Z" transform="translate(-474.742 -212.587)" fill="#9dabc9"/></g><g transform="translate(240.652 189.367)"><rect width="66.749" height="60.404" fill="#becae5"/><rect width="66.749" height="8.854" fill="#8e9acb"/><circle cx="1.992" cy="1.992" r="1.992" transform="translate(2.066 2.435)" fill="#f76846"/><circle cx="1.992" cy="1.992" r="1.992" transform="translate(8.411 2.435)" fill="#fff"/><circle cx="1.992" cy="1.992" r="1.992" transform="translate(14.757 2.435)" fill="#f7a463"/><circle cx="19.855" cy="19.855" r="19.855" transform="matrix(0.169, -0.986, 0.986, 0.169, 10.451, 51.045)" fill="#fff"/><path d="M468.067,350.711,447.62,362.257V339.165Z" transform="translate(-421.025 -316.319)" fill="#ffd800"/></g><g transform="translate(300.121 170.618)"><rect width="49.215" height="43.419" fill="#e3e9f9"/><rect width="42.794" height="36.998" transform="translate(3.21 3.21)" fill="#becae5"/><path d="M489.32,333.92V322.512l10.771-12,16.168,23.406Z" transform="translate(-486.11 -293.711)" fill="#8e9acb"/><path d="M519.474,334.426l-6.277-9.088,12.581-11.065,9.551,8v12.155Z" transform="translate(-489.325 -294.218)" fill="#7e92be"/><circle cx="6.609" cy="6.609" r="6.609" transform="translate(18.862 7.651)" fill="#fff"/></g><g transform="translate(0 154.417)"><path d="M160.706,321.973H143.694a4.913,4.913,0,0,1-4.913-4.913V296.844h26.836v20.217A4.913,4.913,0,0,1,160.706,321.973Z" transform="translate(-138.782 -275.669)" fill="#262f43"/><circle cx="6.674" cy="6.674" r="6.674" transform="translate(5.389 38.702) rotate(-76.718)" fill="#dee4f0"/><path d="M142.053,282.961v10.587h3.316V282.776a7.271,7.271,0,0,1,7.271-7.271h0a7.271,7.271,0,0,1,7.271,7.271v4.94h3.317v-4.755a10.588,10.588,0,0,0-10.588-10.587h0A10.588,10.588,0,0,0,142.053,282.961Z" transform="translate(-139.222 -272.374)" fill="#12263f"/></g><g transform="translate(18.912)"><path d="M192.2,114.413l5.907-1.309-.723-5.7-6.054.206a12.928,12.928,0,0,0-.96-1.88l3.684-4.8-4.218-3.9-4.5,4.048a12.856,12.856,0,0,0-1.945-.816l-.263-6.051-5.742-.279-.848,6a12.926,12.926,0,0,0-2.015.624l-4.09-4.465-4.578,3.477,3.2,5.134a12.957,12.957,0,0,0-1.138,1.778l-6.005-.792-1.271,5.606,5.752,1.874a12.876,12.876,0,0,0,.273,2.093l-5.111,3.254,2.63,5.112,5.61-2.261a13.028,13.028,0,0,0,1.555,1.43l-1.822,5.774,5.3,2.226,2.848-5.344c.347.045.695.087,1.051.1s.707.009,1.057,0l2.316,5.6,5.491-1.7-1.254-5.925a12.934,12.934,0,0,0,1.687-1.273l5.364,2.794L196.5,120.2l-4.771-3.735A12.91,12.91,0,0,0,192.2,114.413Zm-13.216,5.778a7.617,7.617,0,1,1,7.977-7.238A7.617,7.617,0,0,1,178.983,120.191Z" transform="translate(-160.637 -93.926)" fill="#e3e9f9"/><path d="M180.639,103.248a10.59,10.59,0,1,0,10.59,10.59A10.59,10.59,0,0,0,180.639,103.248Zm-.389,18.2a7.617,7.617,0,1,1,7.977-7.238A7.617,7.617,0,0,1,180.25,121.446Z" transform="translate(-161.904 -95.181)" fill="#becae5"/></g><g transform="translate(285.851 60.216)"><path d="M489.9,177l3.89-.862-.475-3.756-3.987.136a8.492,8.492,0,0,0-.632-1.238l2.426-3.16-2.779-2.571-2.966,2.665a8.527,8.527,0,0,0-1.281-.537l-.173-3.984-3.781-.184-.558,3.949a8.522,8.522,0,0,0-1.327.411l-2.693-2.94-3.015,2.29,2.108,3.381a8.548,8.548,0,0,0-.749,1.171l-3.955-.521-.838,3.691,3.788,1.234a8.517,8.517,0,0,0,.18,1.378l-3.365,2.143,1.731,3.366,3.694-1.488a8.591,8.591,0,0,0,1.025.941l-1.2,3.8,3.491,1.465,1.875-3.519c.229.029.458.057.692.069s.465.006.695,0l1.526,3.685,3.616-1.121-.826-3.9a8.6,8.6,0,0,0,1.11-.838l3.532,1.84,2.05-3.183-3.142-2.459A8.426,8.426,0,0,0,489.9,177Zm-8.7,3.8a5.016,5.016,0,1,1,5.253-4.766A5.016,5.016,0,0,1,481.2,180.809Z" transform="translate(-469.119 -163.513)" fill="#e3e9f9"/><path d="M482.291,169.652a6.974,6.974,0,1,0,6.974,6.974A6.973,6.973,0,0,0,482.291,169.652Zm-.255,11.984a5.016,5.016,0,1,1,5.253-4.766A5.016,5.016,0,0,1,482.035,181.636Z" transform="translate(-469.954 -164.34)" fill="#becae5"/></g><g transform="translate(63.692 16.681)"><path d="M230.927,127.252l3.644.042.357-3.445-3.58-.709a7.868,7.868,0,0,0-.306-1.234l2.819-2.311-1.941-2.869-3.2,1.758a7.818,7.818,0,0,0-1.03-.745l.674-3.586-3.331-.95-1.319,3.4a7.811,7.811,0,0,0-1.267.09l-1.789-3.18-3.162,1.413,1.176,3.451a7.87,7.87,0,0,0-.911.887l-3.415-1.287-1.514,3.115,3.119,1.887a7.787,7.787,0,0,0-.127,1.266l-3.443,1.209.843,3.359,3.6-.558a7.856,7.856,0,0,0,.717,1.052l-1.86,3.139,2.8,2.032,2.4-2.746c.2.074.4.146.6.205s.414.1.62.143l.593,3.6,3.454-.246.075-3.647a7.853,7.853,0,0,0,1.164-.516l2.765,2.373,2.488-2.409-2.288-2.844A7.714,7.714,0,0,0,230.927,127.252Zm-8.545,1.58a4.589,4.589,0,1,1,5.671-3.154A4.589,4.589,0,0,1,222.382,128.832Z" transform="translate(-212.386 -113.203)" fill="#8e9acb"/><path d="M224.439,118.949a6.244,6.244,0,1,0,6.243,6.243A6.244,6.244,0,0,0,224.439,118.949Zm4.4,7.5a4.589,4.589,0,1,1-3.155-5.671A4.589,4.589,0,0,1,228.836,126.451Z" transform="translate(-213.168 -113.977)" fill="#747ea6"/></g></g><path d="M193.38,371.149l-.393,14.363,8.264.836.984-16.626Z" transform="translate(-86.119 -131.067)" fill="#ffa476"/><path d="M170.056,394.124h29.71s.836-3,0-4.969-.639-2.951-.935-3.394-.935-.984-3.05,0-3.492,1.328-4.131.738-1.328-1.795-2.607-1.291-3.443,2.226-5.8,3.062-11.018,2.8-12.248,3.1S169.81,393.336,170.056,394.124Z" transform="translate(-83.012 -133.137)" fill="#ff5422"/><g transform="translate(253.551 6.515)"><path d="M392.025,305.341l-2.951,17.019-7.477-2.887,1.672-15.8Z" transform="translate(-365.069 -128.687)" fill="#ffa476"/><path d="M450.181,297.851l3.671,16.879-8.014.139-4.4-15.272Z" transform="translate(-373.128 -127.903)" fill="#ffa476"/><path d="M446.4,324.116c.364-.148,28.255-4.682,28.6-5.141s-.934-3.868-.934-3.868-10.739.752-15.481-1.25-5.4-2.054-6.491-1.08-1.9,2.392-4.353,1.571-3.087,1.027-2.9,2.013,1.539,4.047,1.49,5.235A23.031,23.031,0,0,0,446.4,324.116Z" transform="translate(-373.582 -129.83)" fill="#1565c0"/><path d="M446.564,322.236c0,.035,0,.073,0,.1a23.029,23.029,0,0,0,.068,2.521c.364-.149,28.255-4.682,28.6-5.141.167-.222-.049-1.14-.314-2.026C466.961,318.981,453.372,321.17,446.564,322.236Z" transform="translate(-373.817 -130.576)" fill="#b05a46"/><path d="M363.758,190.866s-1.328,10.8,1.623,13.456,21.545,10.477,21.471,10.773-6.567,64.782-7.305,74.816c0,0,6.493,3.247,11.511.738l12.4-79.835,7.673,2.952L431.2,290.7s7.87,0,10.822-3.542c0,0-18.692-85.393-20.07-86.573s-22.332-10.034-22.332-10.034Z" transform="translate(-362.627 -113.453)" fill="#12263f"/><path d="M410.112,149.56c-.984-.689-4.918-8.9-8.067-11.412-4.365-3.478-11.488-5.312-11.488-5.312l-10.647-1.918c-6.072-.145-10.625,1.525-12.3,3s-4.821,22.135-4.526,24.89a8.444,8.444,0,0,0,2.164,4.623s-.492,9.346-1.475,11.608-1.279,8.793-1.279,8.793,1.082-.332,13.675-.036a154.862,154.862,0,0,0,23.315-1.279,47.589,47.589,0,0,1-.316-6.592l4.939,1.476c2.361-1.378,3.049-7.674,3.049-7.674l-7.378-3.148-.2-10.92s4.231,4.23,5.116,5.017,14.166-.689,21.349-1.574,18.2-2.755,18.2-2.755l3.247-5.8C439.723,150.052,410.112,149.56,410.112,149.56Z" transform="translate(-362.497 -105.421)" fill="#1565c0"/><path d="M384.784,124.723s.246,4.623-.541,4.968a5.375,5.375,0,0,1-1.623.394s1.574,4.771,6.443,5.164c4.511.365,4.733-2.852,4.733-2.852a11.656,11.656,0,0,1,.826-4.132C395.359,127.035,384.784,124.723,384.784,124.723Z" transform="translate(-365.207 -104.588)" fill="#ffa476"/><path d="M385.113,124.723a27.092,27.092,0,0,1-.05,3.5c1.98.7,4.443,2.216,5.493,2.6,1.1.407,2.967-.556,3.886-1.1a5.027,5.027,0,0,1,.509-1.458C395.688,127.035,385.113,124.723,385.113,124.723Z" transform="translate(-365.536 -104.588)" fill="#d59470"/><path d="M398.119,114.24a10.066,10.066,0,0,0,2.19-2.358,5.182,5.182,0,0,0,.751-3.312,4.261,4.261,0,0,0-1.687-2.91,9.544,9.544,0,0,1-.811-.571,10.969,10.969,0,0,1-1.3-1.957,4.655,4.655,0,0,0-4.054-1.668,11.864,11.864,0,0,0-4.337,1.355c-1.846-.657-3.913-1.206-5.676-.352s-2.708,2.814-3.447,4.645a6.631,6.631,0,0,0-.567,2.023,8,8,0,0,1-.085,1.638,6.4,6.4,0,0,1-.453,1,4.429,4.429,0,0,0,.914,4.945,2.336,2.336,0,0,1,.542.62,2.491,2.491,0,0,1,.152.724,4.32,4.32,0,0,0,3.858,3.389,7.294,7.294,0,0,0,5.117-1.7c.626-.484,1.2-1.032,1.786-1.565C393.011,116.37,396.051,115.986,398.119,114.24Z" transform="translate(-364.618 -101.455)" fill="#4b1417"/><path d="M383.8,118.2s-.553,3.246.959,5.275,3.32,4.611,6.309,4.8,5.94-3.985,6.751-6.826a61.3,61.3,0,0,0,1.254-8.78,5.066,5.066,0,0,1-2.408-.508,9.443,9.443,0,0,1-1.918-1.452,7.092,7.092,0,0,1-3.91.511,12.768,12.768,0,0,1-3.78-1.253,11.777,11.777,0,0,1-1.413,4.4,1.324,1.324,0,0,1-.326.449.49.49,0,0,1-.523.078.6.6,0,0,1-.216-.234,3.9,3.9,0,0,1-.377-2.024c0-.374-.53-.6-.9-.593a1.59,1.59,0,0,0-1.334.927,3.075,3.075,0,0,0-.225,1.672,2.218,2.218,0,0,0,.168.706,2.341,2.341,0,0,0,.474.632,9.53,9.53,0,0,0,1.581,1.313A6.227,6.227,0,0,0,383.8,118.2Z" transform="translate(-365.085 -102.6)" fill="#ffa476"/><path d="M394.672,122.5a.162.162,0,0,1-.124-.055.165.165,0,0,1,.016-.231,5.812,5.812,0,0,0,.548-.544,1.213,1.213,0,0,0,.2-.28,1.454,1.454,0,0,0,0-.843,12.251,12.251,0,0,1-.137-3.627.155.155,0,0,1,.181-.144.163.163,0,0,1,.144.181,11.88,11.88,0,0,0,.128,3.5,1.763,1.763,0,0,1-.017,1.07,1.506,1.506,0,0,1-.253.36,6.328,6.328,0,0,1-.577.575A.163.163,0,0,1,394.672,122.5Z" transform="translate(-366.808 -103.518)" fill="#4b1417"/><path d="M392.526,114.639a.162.162,0,0,1-.107-.039,3.4,3.4,0,0,0-3-.71.164.164,0,0,1-.079-.318,3.743,3.743,0,0,1,3.289.779.163.163,0,0,1-.106.287Z" transform="translate(-366.096 -103.073)" fill="#4b1417"/><path d="M399.938,115.7a.187.187,0,0,1-.053-.009,5.692,5.692,0,0,0-2.843-.209.157.157,0,0,1-.189-.132.163.163,0,0,1,.131-.19,6.049,6.049,0,0,1,3.006.22.164.164,0,0,1-.052.319Z" transform="translate(-367.123 -103.287)" fill="#4b1417"/><path d="M398.768,116.946c-.082.395-.344.673-.582.623s-.367-.41-.284-.8.343-.673.582-.623S398.851,116.552,398.768,116.946Z" transform="translate(-367.262 -103.432)" fill="#4b1417"/><path d="M391.283,115.569c-.082.394-.344.672-.582.622s-.367-.41-.284-.8.344-.672.582-.622S391.366,115.175,391.283,115.569Z" transform="translate(-366.254 -103.246)" fill="#4b1417"/><path d="M394.758,126h-.012a6.588,6.588,0,0,1-3.458-.948.164.164,0,1,1,.2-.263,6.33,6.33,0,0,0,3.287.885.163.163,0,0,1-.013.326Z" transform="translate(-366.365 -104.593)" fill="#4b1417"/><path d="M379.017,158.681c-.424-14.39-1.968-18.042-1.968-18.042s1.279,10.6.394,18.042Z" transform="translate(-364.457 -106.732)" fill="#79ace6"/><path d="M375.4,160.923c8.117,1.918,26.12,9.69,26.12,9.69l-.027-1.484C378.585,159.575,375.4,160.923,375.4,160.923Z" transform="translate(-364.235 -109.455)" fill="#79ace6"/><path d="M365.644,168.493s-.078,1.48-.234,3.4c9.182,5.251,30.315,9.449,34.148,10.181,0-.659.006-1.089.006-1.089S375.014,174.74,365.644,168.493Z" transform="translate(-362.889 -110.483)" fill="#79ace6"/><path d="M405.343,157.721s1.233,1.232,2.506,2.49c-1-4.816-2.506-14-2.506-14C405.147,150.047,405.343,157.721,405.343,157.721Z" transform="translate(-368.255 -107.482)" fill="#79ace6"/><path d="M413.466,214.024c-.429-2.622-1.186-6.538-2.124-8.32-1.475-2.8-14.511-7.083-14.511-7.083,2.853,2.361,12,7.772,12,8.362s-.885,4.919-.885,4.919Z" transform="translate(-367.121 -114.54)" fill="#293272"/><path d="M378.527,328.368c.394,0,27.94,6.3,28.431,6s.59-3.935.59-3.935-10.232-3.345-13.871-6.985-4.231-3.936-5.607-3.443-2.657,1.5-4.624-.183-3.246-.21-3.443.774-.1,4.328-.59,5.411A23.079,23.079,0,0,0,378.527,328.368Z" transform="translate(-364.656 -130.759)" fill="#1565c0"/><path d="M379.449,326.976c-.012.032-.023.068-.036.1a23.086,23.086,0,0,0-.885,2.361c.394,0,27.94,6.3,28.431,6,.239-.143.384-1.074.472-1.995C399.573,331.637,386.158,328.551,379.449,326.976Z" transform="translate(-364.656 -131.826)" fill="#b05a46"/><g transform="translate(50.967 20.135)"><path d="M457.111,151.074a1.867,1.867,0,0,1,2.546-.7l1.191-2.1a1.867,1.867,0,0,1,1.842-3.248l1.027-1.811a1.867,1.867,0,0,1,1.842-3.248l2.432-4.288-1.709-8.807-3.785-2.146-26.072,45.971,8.858,5.023,12.532-22.1A1.868,1.868,0,0,1,457.111,151.074Z" transform="translate(-423.42 -124.723)" fill="#9dabc9"/><rect width="44.29" height="1.107" transform="translate(17.71 43.804) rotate(-60.442)" fill="#778aad"/><path d="M441.014,176.034a13.135,13.135,0,1,0,4.945,17.906A13.135,13.135,0,0,0,441.014,176.034Zm-.923,14.577a6.389,6.389,0,1,1-2.406-8.709A6.388,6.388,0,0,1,440.091,190.611Z" transform="translate(-421.396 -131.402)" fill="#becae5"/><path d="M439.73,179.932a9.334,9.334,0,1,0,3.514,12.725A9.334,9.334,0,0,0,439.73,179.932Zm.952,11.271a6.389,6.389,0,1,1-2.406-8.709A6.388,6.388,0,0,1,440.682,191.2Z" transform="translate(-421.987 -131.994)" fill="#9dabc9"/></g><g transform="translate(42.229 64.9)"><path d="M413.653,176.455s6.277,2.161,6.867,2.161,2.607-.883,3.689-.787l-1.623,1.968a18.6,18.6,0,0,0,3.985,1.672c2.558.787,4.771,1.033,4.968,1.132s1.082,1.389-1.673,1.242c0,0,1.771.677,2.386.824s.689,1.23-.369,1.328-7.846-1.623-7.846-1.623a.527.527,0,0,0,.32.542c.369.147,5.73,2.311,5.9,2.533a.668.668,0,0,1-.394,1.033c-.614.123-6-1.648-6-1.648a3.9,3.9,0,0,0,1.279,1.033c.881.367.562.669.136.741a8.031,8.031,0,0,1-3.32-.665,26.544,26.544,0,0,1-3.923-2.88c-.836-.713-6.738-2.484-6.738-2.484Z" transform="translate(-411.298 -176.455)" fill="#ffa476"/><path d="M425.537,183.268c2.554.652,5.011,1.179,6.563,1.494a2.642,2.642,0,0,0,1.371-.236C426.476,182.906,425.537,183.268,425.537,183.268Z" transform="translate(-413.216 -177.368)" fill="#d59470"/><path d="M428.494,189.229a20.3,20.3,0,0,0-4.492-1.75,8.5,8.5,0,0,0,1.648.922c-.044-.05-.074-.087-.074-.087S427.017,188.788,428.494,189.229Z" transform="translate(-413.009 -177.94)" fill="#d59470"/></g></g><g transform="translate(0 41.887)"><path d="M193.514,154.121s-2.305-2.58-2.01-5.137,1.918-5.658,4.427-6.248,8.485-.664,9.371.665,2.73,1.18,3.468,1.844a12.064,12.064,0,0,1,3.172,7.452c.222,3.91,4.058,16.306,5.607,17.561s-3.246.59-3.837.517-8.794-1.328-9.045-1.623-3.645-10.92-3.645-10.92Z" transform="translate(-85.915 -142.331)" fill="#4b1417"/><path d="M276.924,350.327l10.86,9.408,5.884-5.862-12.237-11.3Z" transform="translate(-97.422 -169.298)" fill="#ffa476"/><path d="M280.544,380.627l18.83-22.981s-1.79-2.548-3.842-3.149-2.689-1.376-3.218-1.428-1.353.1-1.932,2.359-1.186,3.543-2.048,3.663-2.23-.11-2.651,1.2-.46,4.074-1.31,6.43-4.815,10.3-5.366,11.438S279.779,380.318,280.544,380.627Z" transform="translate(-97.685 -170.71)" fill="#ff5422"/><path d="M221.688,223.867a266.483,266.483,0,0,1,3.993,58.634s30.947,27.349,48.008,46.827c0,0-1.4,6.69-5.468,8.068,0,0-50.074-40.729-53.419-44.861s-5.509-26.759-5.509-26.759L202.6,352.94a14.168,14.168,0,0,1-11.216-.984s-.937-66.748.023-89.844.961-39.29.961-39.29Z" transform="translate(-85.848 -153.171)" fill="#12263f"/><path d="M200.966,170.08s10.723,2.755,12.789,5.51.492,15.74,0,18.888.689,18.791,1.771,22.529a57.959,57.959,0,0,1-14.069,2.066c-7.476.1-18.2-.688-18.2-.688s0-5.017.491-6.591l-6.591.688-.59-5.115s5.162-1.87,7.795-2.46a33.064,33.064,0,0,0-.663-8.067c-1.3-4.747-.59-10.92,0-12.3,0,0-12,11.608-14.436,12.863s-29.735,7.747-29.735,7.747l-.885-6.125s27.89-9.444,30.178-10.846,10.108-14.388,11.436-15.2,9.494-3.3,9.494-3.3Z" transform="translate(-78.8 -146.015)" fill="#ff5422"/><path d="M206.147,160.535s.049,7.427.738,7.722a15.388,15.388,0,0,0,1.968.59s-1.821,8.363-9.887,8.363c0,0-2.8-.885-1.328-8.755,0,0,1.164-.347,1.36-.839a61.58,61.58,0,0,0-.228-6.294Z" transform="translate(-86.687 -144.783)" fill="#ffa476"/><path d="M202.605,160.941l-3.416,2.736c.021.354.042.721.059,1.084a5.713,5.713,0,0,0,2.7,1.086,31.958,31.958,0,0,1,4.659-.246c-.176-2.236-.2-5.066-.2-5.066Z" transform="translate(-86.954 -144.783)" fill="#d59470"/><path d="M193.552,151.4s-.728,9.634,6.378,11.867a2.935,2.935,0,0,0,1.858-.022c1.584-.555,4.591-2.225,4.7-6.926,0,0,1.18-.1,1.327-1.918s-.3-3.443-1.032-3-.247,1.82-.984,1.968-1.623-1.968-1.574-2.558-7.695,2.263-10.7-.787Z" transform="translate(-86.192 -143.367)" fill="#ffa476"/><path d="M201.041,159.08a.1.1,0,0,1-.028,0,3.286,3.286,0,0,1-.679-.191.445.445,0,0,1-.229-.171.457.457,0,0,1-.049-.269l.092-1.665q.036-.67.075-1.34a.162.162,0,0,1,.173-.154.164.164,0,0,1,.154.173c-.027.447-.051.892-.076,1.339l-.091,1.664a.287.287,0,0,0,0,.083.235.235,0,0,0,.071.036,3.038,3.038,0,0,0,.613.173.163.163,0,0,1-.028.325Z" transform="translate(-87.07 -144.076)" fill="#4b1417"/><path d="M215.618,211.513c1.841-1.166,3.813-4.514,5.079-6.96a50.457,50.457,0,0,1-.038-5.711h0c-.455,3.5-3.64,10.162-5.558,11.639s-24.4,5.239-24.4,5.239a18.748,18.748,0,0,0-.422,3.711C195.94,217.882,213.1,213.111,215.618,211.513Z" transform="translate(-85.754 -149.942)" fill="#b05a46"/><path d="M212.754,203a98.765,98.765,0,0,0-21.262,4.363c.019,1.2-.014,2.031-.014,2.031S204.667,204.547,212.754,203Z" transform="translate(-85.915 -150.501)" fill="#b05a46"/><path d="M210.665,201.307l1.168-.461a97.715,97.715,0,0,1,5.645-18.483S211.55,193.633,210.665,201.307Z" transform="translate(-88.499 -147.722)" fill="#b05a46"/><path d="M210.63,279.043l.816-10.632s-1.033-14.216-4.28-26.021A125.812,125.812,0,0,0,210.63,279.043Z" transform="translate(-88.002 -155.806)" fill="#293272"/><path d="M224.363,240.8a.228.228,0,0,1-.158-.062,28.044,28.044,0,0,1-6.4-9.038.233.233,0,0,1,.434-.173,27.569,27.569,0,0,0,6.287,8.867.234.234,0,0,1-.158.406Z" transform="translate(-89.458 -154.323)" fill="#8d9cc9"/><g transform="translate(0 8.694)"><path d="M156.962,165.222c-13.009-1.537-22.032-12.844-22.032-12.844l-19.312,5.459-14.769,4.174-19.312,5.458s-1.77,14.357-12.05,22.476c0,0,12.1,51.48,66.134,66.877C173.6,215.418,156.962,165.222,156.962,165.222Z" transform="translate(-69.487 -152.378)" fill="#12263f"/><path d="M153.2,171.764c-11.4-1.346-19.306-11.255-19.306-11.255l-16.923,4.783-12.941,3.658-16.922,4.784s-1.551,12.58-10.558,19.695c0,0,10.6,45.11,57.949,58.6C167.781,215.748,153.2,171.764,153.2,171.764Z" transform="translate(-70.438 -153.473)" fill="#becae5"/><path d="M151.619,174.813c-10.635-1.257-18.011-10.5-18.011-10.5l-15.787,4.462-12.073,3.412-15.787,4.462s-1.446,11.737-9.85,18.374c0,0,9.889,42.084,54.062,54.67C165.222,215.847,151.619,174.813,151.619,174.813Z" transform="translate(-70.918 -153.985)" fill="#e3e9f9"/><circle cx="22.951" cy="22.951" r="22.951" transform="translate(22.866 65.245) rotate(-80.358)" fill="#fff"/><circle cx="18.306" cy="18.306" r="18.306" transform="matrix(0.64, -0.768, 0.768, 0.64, 23.554, 48.805)" fill="#1565c0"/><path d="M117.707,207.614l7.43,2.7,5.435-15.457,2.719.6-6.41,18.6-10.218-3.476Z" transform="translate(-75.84 -158.099)" fill="#fff"/></g><g transform="translate(79.543 59.874)"><path d="M179.665,212.915s-4.265.556-4.821.325a26.125,26.125,0,0,1-2.55-1.715,13.361,13.361,0,0,1-.278,2.55,39.676,39.676,0,0,1-7.277,0c-2.689-.232-2.249.533-1.994.88s2.156.719,2.156.719-2.735-.371-3.152,0-.486.718,0,1.043,6.838.858,6.838.858-4.358.069-5.91.116-1.229,1.113.069,1.321,5.818.116,5.818.116-1.9.417-2.016.787.51.928,2.109.7,4.891-.116,6.49-1.229a22.184,22.184,0,0,1,5.025-2.083Z" transform="translate(-161.409 -211.524)" fill="#ffa476"/><path d="M169.679,216.545a38.7,38.7,0,0,1-6.932-1.678.666.666,0,0,0,.177.537c.255.348,2.156.719,2.156.719l-.057-.008A20.424,20.424,0,0,0,169.679,216.545Z" transform="translate(-161.587 -211.974)" fill="#d88876"/></g><path d="M201.573,161.941a.163.163,0,0,1,0-.326,4.944,4.944,0,0,0,1.574-.264,1.382,1.382,0,0,0,.415-.2.164.164,0,0,1,.229.027.163.163,0,0,1-.026.229,1.705,1.705,0,0,1-.513.256,5.277,5.277,0,0,1-1.679.28Z" transform="translate(-87.253 -144.861)" fill="#4b1417"/><path d="M203.949,154.81c.05.359-.106.678-.348.711s-.479-.23-.529-.589.106-.677.348-.71S203.9,154.451,203.949,154.81Z" transform="translate(-87.476 -143.932)" fill="#4b1417"/><path d="M197.577,155.313c.049.359-.106.678-.348.711s-.479-.23-.529-.589.106-.677.348-.71S197.527,154.954,197.577,155.313Z" transform="translate(-86.617 -144)" fill="#4b1417"/><path d="M195.661,154.417a.163.163,0,0,1-.067-.312,4.117,4.117,0,0,1,1.972-.326.164.164,0,0,1,.139.185.168.168,0,0,1-.185.139,3.79,3.79,0,0,0-1.791.3A.168.168,0,0,1,195.661,154.417Z" transform="translate(-86.457 -143.87)" fill="#4b1417"/><path d="M202.354,153.894a.164.164,0,0,1-.069-.312,4,4,0,0,1,2.181-.234.164.164,0,1,1-.056.323,3.766,3.766,0,0,0-1.989.209A.156.156,0,0,1,202.354,153.894Z" transform="translate(-87.358 -143.807)" fill="#4b1417"/></g></g></g></g></svg>