<svg xmlns="http://www.w3.org/2000/svg" xmlns:xlink="http://www.w3.org/1999/xlink" width="403.722" height="282.904" viewBox="0 0 403.722 282.904"><defs><linearGradient id="a" x1="0.5" x2="0.5" y2="1" gradientUnits="objectBoundingBox"><stop offset="0" stop-color="#fff"/><stop offset="1" stop-color="#d2e6ee"/></linearGradient><linearGradient id="i" x1="0.13" y1="0.5" x2="11.341" y2="0.5" gradientUnits="objectBoundingBox"><stop offset="0" stop-color="#41d1da"/><stop offset="1" stop-color="#038be1"/></linearGradient><linearGradient id="j" x1="-1.539" y1="0.5" x2="8.766" y2="0.5" xlink:href="#i"/><linearGradient id="k" x1="-1.233" y1="0.5" x2="1.677" y2="0.5" xlink:href="#i"/><linearGradient id="l" x1="2.495" y1="-0.281" x2="1.818" y2="0.013" xlink:href="#i"/><linearGradient id="m" x1="-0.619" y1="0.386" x2="2.825" y2="0.737" xlink:href="#i"/><linearGradient id="n" x1="0.13" y1="0.5" x2="11.341" y2="0.5" xlink:href="#i"/><linearGradient id="o" x1="-1.538" y1="0.5" x2="8.766" y2="0.5" xlink:href="#i"/><linearGradient id="p" x1="-1.233" y1="0.5" x2="1.677" y2="0.5" xlink:href="#i"/><linearGradient id="q" x1="2.495" y1="-0.281" x2="1.818" y2="0.013" xlink:href="#i"/><linearGradient id="r" x1="-0.619" y1="0.386" x2="2.825" y2="0.737" xlink:href="#i"/><linearGradient id="s" x1="0.13" y1="0.5" x2="11.341" y2="0.5" xlink:href="#i"/><linearGradient id="t" x1="-1.538" y1="0.5" x2="8.766" y2="0.5" xlink:href="#i"/><linearGradient id="u" x1="-1.233" y1="0.5" x2="1.677" y2="0.5" xlink:href="#i"/><linearGradient id="v" x1="2.495" y1="-0.281" x2="1.818" y2="0.013" xlink:href="#i"/></defs><g transform="translate(-253.2 10536.41)"><g transform="translate(272.789 -10536.41)"><g transform="translate(15.419 244.223)"><path d="M336.984,353.884c0,4.953,62.858,8.972,140.4,8.972s140.394-4.019,140.394-8.972-62.858-8.974-140.394-8.974S336.984,348.928,336.984,353.884Z" transform="translate(-336.984 -344.91)" fill="#f1f1f1"/></g><path d="M419.852,362.145c0,3.1-15.957,5.614-35.642,5.614s-35.642-2.513-35.642-5.614,15.957-5.614,35.642-5.614S419.852,359.044,419.852,362.145Z" transform="translate(-318.758 -97.871)" fill="#f1f1f1"/><g transform="translate(0 31.984)"><g transform="translate(151.304 60.611)" opacity="0.35"><rect width="142.041" height="95.476" rx="5.01" fill="#fff"/></g><path d="M574.148,210.9H540.886q.341,16.179.549,32.361a12.828,12.828,0,0,1-.6,4.876l-.051,0c-.441-.024-.246.114-.4.9,0,.011-.007.025-.01.036-1.345,2.2-3.97,3.4-6.526,3.963a.648.648,0,0,0,.041.357.818.818,0,0,0-.257,1.005c.155.36,2.067.849,4.664.569a12.384,12.384,0,0,0,2.881-.8,4.472,4.472,0,0,0,1.061-.723,3.662,3.662,0,0,0,.973-.235l.106.1,2.977-1.3s-.326-1.878-.583-2.856a1.7,1.7,0,0,0-.2-.46,136.415,136.415,0,0,0,5.84-20.758c-.542,8.762-3.69,26.56-3.923,27.173a4.568,4.568,0,0,1-3.783,2.656c-.7.058-4.169-.142-3.8,1.452.089.38,1.888,1.194,4.495,1.368a12.346,12.346,0,0,0,2.975-.287,5.52,5.52,0,0,0,1.855-1.01l.4.535,3.155-.76s0-.821-.025-1.81a4.026,4.026,0,0,0-.676-1.924l.044-1.8,1.749-.206s3.513-11.363,5.182-15.228a34.007,34.007,0,0,0,1.888-4.841,35.044,35.044,0,0,0,.724-6.057,53.549,53.549,0,0,1,2.032-10.936,1.613,1.613,0,0,1,.3-.639,1.7,1.7,0,0,1,1.15-.4c4.471-.41,6.521.35,9.319-.517,3.688-1.144,4.08-2.818,4.26-2.9A11.609,11.609,0,0,0,574.148,210.9Z" transform="translate(-273.936 -165.141)" fill="#5851bc" opacity="0.35" style="mix-blend-mode:multiply;isolation:isolate"/><g transform="translate(0 0)"><path d="M1166.53-233.543l-156.359-1.093a.654.654,0,0,0-.66.65l-1.433,204.8a.655.655,0,0,0,.65.659l156.139,1.092a.656.656,0,0,0,.66-.651l1.433-205.024A.435.435,0,0,0,1166.53-233.543Z" transform="translate(-1008.079 248.641)" fill="#727997"/><rect width="147.052" height="194.644" transform="translate(5.917 19.397)" fill="#fff"/><path d="M1120.235-236.475l-23.446-.164c.031-.315.053-.632.055-.955a10.5,10.5,0,0,0-10.424-10.57,10.5,10.5,0,0,0-10.569,10.424c0,.322.015.639.042.955l-23.446-.165a8.093,8.093,0,0,0-8.149,8.036l-.077,11.03a1.87,1.87,0,0,0,1.857,1.883l80.232.561a1.87,1.87,0,0,0,1.883-1.857l.078-11.03A8.093,8.093,0,0,0,1120.235-236.475Zm-33.934,5.488a6.679,6.679,0,0,1-6.632-6.726,6.679,6.679,0,0,1,6.727-6.632,6.679,6.679,0,0,1,6.632,6.726A6.679,6.679,0,0,1,1086.3-230.987Z" transform="translate(-1006.803 248.163)" fill="#12263f"/><g transform="translate(13.299 40.251)"><rect width="63.099" height="1.604" rx="0.264" transform="translate(0.356)" fill="#a2acc2"/><rect width="63.099" height="1.604" rx="0.264" transform="translate(0.356 11.764)" fill="#a2acc2"/><rect width="63.099" height="1.604" rx="0.264" transform="translate(25.488 58.821)" fill="#a2acc2"/><rect width="63.099" height="1.604" rx="0.264" transform="translate(25.488 71.655)" fill="#a2acc2"/><rect width="87.162" height="1.604" rx="0.264" transform="translate(25.488 65.238)" fill="#a2acc2"/><rect width="32.619" height="1.604" rx="0.264" transform="translate(91.795 58.821)" fill="#a2acc2"/><rect width="63.099" height="1.604" rx="0.264" transform="translate(0.356 43.848)" fill="#a2acc2"/><rect width="63.099" height="1.604" rx="0.264" transform="translate(66.128 11.764)" fill="#a2acc2"/><rect width="128.871" height="1.604" rx="0.264" transform="translate(0.356 19.785)" fill="#a2acc2"/><rect width="128.871" height="1.604" rx="0.264" transform="translate(0.356 28.876)" fill="#a2acc2"/><rect width="128.871" height="1.604" rx="0.264" transform="translate(0.356 36.362)" fill="#a2acc2"/><path d="M1039.46-136.5h-18.18a.356.356,0,0,1-.356-.356v-18.181a.356.356,0,0,1,.356-.356h18.18a.356.356,0,0,1,.356.356v18.181A.356.356,0,0,1,1039.46-136.5Zm-17.825-.712H1039.1v-17.469h-17.469Z" transform="translate(-1020.924 211.188)" fill="#a2acc2"/><path d="M1029.047-139.361h-.029a.473.473,0,0,1-.419-.319,32.114,32.114,0,0,0-5.08-9.306.475.475,0,0,1,.081-.667.475.475,0,0,1,.667.081,33.168,33.168,0,0,1,4.85,8.54,49.932,49.932,0,0,1,13.71-16.446.475.475,0,0,1,.666.084.475.475,0,0,1-.084.666,48.873,48.873,0,0,0-13.933,17.1A.473.473,0,0,1,1029.047-139.361Z" transform="translate(-1020.836 211.111)" fill="#12263f"/><rect width="63.099" height="1.604" rx="0.264" transform="translate(25.488 99.461)" fill="#a2acc2"/><rect width="87.162" height="1.604" rx="0.264" transform="translate(25.488 93.044)" fill="#a2acc2"/><path d="M1039.46-105.515h-18.18a.356.356,0,0,1-.356-.355v-18.181a.356.356,0,0,1,.356-.356h18.18a.356.356,0,0,1,.356.356v18.181A.356.356,0,0,1,1039.46-105.515Zm-17.825-.711H1039.1V-123.7h-17.469Z" transform="translate(-1020.924 212.283)" fill="#a2acc2"/><path d="M1029.047-108.371h-.029a.472.472,0,0,1-.419-.319,32.128,32.128,0,0,0-5.08-9.306.474.474,0,0,1,.081-.666.475.475,0,0,1,.667.081,33.134,33.134,0,0,1,4.85,8.54,49.922,49.922,0,0,1,13.71-16.446.474.474,0,0,1,.666.084.475.475,0,0,1-.084.666,48.883,48.883,0,0,0-13.933,17.1A.474.474,0,0,1,1029.047-108.371Z" transform="translate(-1020.836 212.206)" fill="#12263f"/><rect width="63.099" height="1.604" rx="0.264" transform="translate(25.488 120.85)" fill="#a2acc2"/><rect width="87.162" height="1.604" rx="0.264" transform="translate(25.488 127.267)" fill="#a2acc2"/><path d="M1039.46-76.591h-18.18a.356.356,0,0,1-.356-.356v-18.18a.356.356,0,0,1,.356-.356h18.18a.356.356,0,0,1,.356.356v18.18A.356.356,0,0,1,1039.46-76.591Zm-17.825-.712H1039.1V-94.772h-17.469Z" transform="translate(-1020.924 213.304)" fill="#a2acc2"/><path d="M1029.047-79.447h-.029a.473.473,0,0,1-.419-.319,32.114,32.114,0,0,0-5.08-9.306.474.474,0,0,1,.081-.666.475.475,0,0,1,.667.081,33.145,33.145,0,0,1,4.85,8.539,49.943,49.943,0,0,1,13.71-16.446.475.475,0,0,1,.666.084.475.475,0,0,1-.084.666,48.883,48.883,0,0,0-13.933,17.1A.474.474,0,0,1,1029.047-79.447Z" transform="translate(-1020.836 213.227)" fill="#12263f"/><rect width="63.099" height="1.604" rx="0.264" transform="translate(25.488 149.726)" fill="#a2acc2"/><rect width="63.099" height="1.604" rx="0.264" transform="translate(25.488 162.56)" fill="#a2acc2"/><rect width="87.162" height="1.604" rx="0.264" transform="translate(25.488 156.143)" fill="#a2acc2"/><path d="M1039.46-48.7h-18.18a.356.356,0,0,1-.356-.356V-67.237a.356.356,0,0,1,.356-.356h18.18a.356.356,0,0,1,.356.356v18.181A.356.356,0,0,1,1039.46-48.7Zm-17.825-.712H1039.1V-66.881h-17.469Z" transform="translate(-1020.924 214.289)" fill="#a2acc2"/><path d="M1029.047-51.556h-.029a.473.473,0,0,1-.419-.319,32.114,32.114,0,0,0-5.08-9.306.475.475,0,0,1,.081-.667.475.475,0,0,1,.667.082,33.128,33.128,0,0,1,4.85,8.539,49.932,49.932,0,0,1,13.71-16.446.475.475,0,0,1,.666.084.475.475,0,0,1-.084.666,48.886,48.886,0,0,0-13.933,17.1A.474.474,0,0,1,1029.047-51.556Z" transform="translate(-1020.836 214.212)" fill="#12263f"/></g><path d="M1121.8-220.8h-39.571a.356.356,0,0,1-.356-.356.356.356,0,0,1,.356-.355H1121.8a.356.356,0,0,1,.356.355A.356.356,0,0,1,1121.8-220.8Z" transform="translate(-1005.473 249.105)" fill="#fff"/></g><rect width="62.225" height="16.739" transform="translate(173.214 195.376)" fill="#12263f"/><rect width="215.707" height="155.188" rx="9.387" transform="translate(96.801 45.653)" fill="#12263f"/><rect width="203.001" height="134.639" rx="5.768" transform="translate(102.826 51.312)" fill="url(#a)"/><path d="M7.322,0H108.394a7.322,7.322,0,0,1,7.322,7.322v3.23a0,0,0,0,1,0,0H0a0,0,0,0,1,0,0V7.322A7.322,7.322,0,0,1,7.322,0Z" transform="translate(146.468 210.659)" fill="#12263f"/><g transform="translate(151.304 60.611)" opacity="0.25" style="mix-blend-mode:multiply;isolation:isolate"><g transform="translate(9.413 14.438)"><g transform="translate(4.086 55.307)"><rect width="6.187" height="15.533" fill="#fca70c"/></g><g transform="translate(18.028 41.671)"><rect width="6.187" height="29.169" fill="#b1affd"/></g><g transform="translate(31.971 44.687)"><rect width="6.187" height="26.153" fill="#fca70c"/></g><g transform="translate(45.913 29.921)"><rect width="6.187" height="40.919" fill="#b1affd"/></g><g transform="translate(18.028 41.671)" opacity="0.15" style="mix-blend-mode:multiply;isolation:isolate"><rect width="2.84" height="29.169" opacity="0.26"/></g><g transform="translate(4.086 55.307)" opacity="0.15" style="mix-blend-mode:multiply;isolation:isolate"><rect width="2.84" height="15.533" opacity="0.26"/></g><g transform="translate(45.913 29.921)" opacity="0.62" style="mix-blend-mode:multiply;isolation:isolate"><rect width="2.84" height="40.919" opacity="0.26"/></g><g transform="translate(31.971 44.687)" opacity="0.15" style="mix-blend-mode:multiply;isolation:isolate"><rect width="2.84" height="26.153" opacity="0.26"/></g><g transform="translate(0 16.152)"><path d="M509.318,306.443H453.943V247.48h.845V305.6h54.53Z" transform="translate(-453.943 -247.48)" fill="#d5dbda"/></g><g transform="translate(5.124 21.137)"><path d="M458.632,278.388l-.564-.628,14.485-13.007,13.417,2.915L500.5,251.492l.629.565L486.27,268.6,472.8,265.669Z" transform="translate(-458.067 -251.492)" fill="#d5dbda"/></g><g transform="translate(45.225 18.748)"><path d="M494.444,254.913l-4.1-3.929,5.289-1.415Z" transform="translate(-490.347 -249.569)" fill="#d5dbda"/></g><g transform="translate(60.618 54.205)"><rect width="4.249" height="4.249" fill="#b1affd"/><g transform="translate(0 7.445)"><rect width="4.249" height="4.249" fill="#fca70c"/></g><g transform="translate(5.42 9.279)"><rect width="13.469" height="2.415" fill="#efefef"/></g><g transform="translate(5.42 1.834)"><rect width="13.469" height="2.415" fill="#efefef"/></g></g><g transform="translate(85.607 54.205)"><rect width="4.249" height="4.249" fill="#b1affd"/><g transform="translate(0 7.445)"><rect width="4.249" height="4.249" fill="#fca70c"/></g><g transform="translate(5.42 9.279)"><rect width="13.469" height="2.415" fill="#efefef"/></g><g transform="translate(5.42 1.834)"><rect width="13.469" height="2.415" fill="#efefef"/></g></g><g transform="translate(108.109 54.205)"><rect width="4.249" height="4.249" fill="#b1affd"/><g transform="translate(0 7.445)"><rect width="4.249" height="4.249" fill="#fca70c"/></g><g transform="translate(5.42 9.279)"><rect width="8.864" height="2.415" fill="#efefef"/></g><g transform="translate(5.42 1.834)"><rect width="8.864" height="2.415" fill="#efefef"/></g></g><g transform="translate(61.413 13.607)"><rect width="60.978" height="1.109" fill="#efefef"/></g><rect width="122.392" height="2.538" fill="#efefef"/><g transform="translate(61.23 17.055)"><rect width="61.161" height="1.109" fill="#efefef"/></g><g transform="translate(61.23 10.159)"><rect width="61.161" height="1.109" fill="#efefef"/></g><g transform="translate(61.23 20.503)"><rect width="61.161" height="1.109" fill="#efefef"/></g><g transform="translate(61.23 23.95)"><rect width="61.161" height="1.108" fill="#efefef"/></g><g transform="translate(61.23 27.398)"><rect width="61.161" height="1.109" fill="#efefef"/></g><g transform="translate(61.23 30.846)"><rect width="61.161" height="1.109" fill="#efefef"/></g><g transform="translate(61.23 34.294)"><rect width="61.161" height="1.109" fill="#efefef"/></g><g transform="translate(61.23 37.741)"><rect width="61.161" height="1.109" fill="#efefef"/></g><g transform="translate(68.718 41.189)"><rect width="53.673" height="1.109" fill="#efefef"/></g></g><path d="M582.183,222.856H452.59a6.224,6.224,0,0,0-6.224,6.224v5.448H588.407V229.08A6.224,6.224,0,0,0,582.183,222.856Z" transform="translate(-446.366 -222.856)" fill="#00223d"/><path d="M546.7,228.075a1.795,1.795,0,1,1-1.794-1.794A1.794,1.794,0,0,1,546.7,228.075Z" transform="translate(-422.925 -222.026)" fill="#cfcfff"/><circle cx="1.795" cy="1.795" r="1.795" transform="translate(127.498 4.255)" fill="#cfcfff"/><circle cx="1.795" cy="1.795" r="1.795" transform="translate(134.812 4.255)" fill="#cfcfff"/></g><g transform="translate(113.573 78.012)"><g transform="translate(0 3.718)"><rect width="142.041" height="95.476" rx="5.01" fill="#00223d" opacity="0.169" style="mix-blend-mode:multiply;isolation:isolate"/></g><g transform="translate(2.882)"><rect width="142.041" height="95.476" rx="5.01" fill="#fff"/></g><g transform="translate(12.294 14.438)"><g transform="translate(4.086 55.307)"><rect width="6.187" height="15.533" fill="#1363b2"/></g><g transform="translate(18.028 41.671)"><rect width="6.188" height="29.169" fill="#4dd0e1"/></g><g transform="translate(31.971 44.687)"><rect width="6.187" height="26.153" fill="#1363b2"/></g><g transform="translate(45.913 29.921)"><rect width="6.187" height="40.919" fill="#4dd0e1"/></g><g transform="translate(0 21.42)"><path d="M481.265,319.423H425.891v-53.7h.845v52.852h54.53Z" transform="translate(-425.891 -265.727)" fill="#d5dbda"/></g><g transform="translate(5.124 21.137)"><path d="M430.579,292.395l-.564-.628L444.5,278.759l13.417,2.915L472.446,265.5l.629.565L458.218,282.6l-13.475-2.927Z" transform="translate(-430.015 -265.499)" fill="#d5dbda"/></g><g transform="translate(45.225 18.748)"><path d="M466.391,268.92l-4.1-3.928,5.289-1.415Z" transform="translate(-462.295 -263.576)" fill="#d5dbda"/></g><g transform="translate(60.618 54.205)"><rect width="4.249" height="4.249" fill="#1363b2"/><g transform="translate(0 7.445)"><rect width="4.249" height="4.249" fill="#4dd0e1"/></g><g transform="translate(5.42 9.279)"><rect width="13.469" height="2.415" fill="#efefef"/></g><g transform="translate(5.42 1.834)"><rect width="13.469" height="2.415" fill="#efefef"/></g></g><g transform="translate(85.607 54.205)"><rect width="4.249" height="4.249" fill="#1363b2"/><g transform="translate(0 7.445)"><rect width="4.249" height="4.249" fill="#4dd0e1"/></g><g transform="translate(5.42 9.279)"><rect width="13.469" height="2.415" fill="#efefef"/></g><g transform="translate(5.42 1.834)"><rect width="13.469" height="2.415" fill="#efefef"/></g></g><g transform="translate(108.109 54.205)"><rect width="4.249" height="4.249" fill="#1363b2"/><g transform="translate(0 7.445)"><rect width="4.249" height="4.249" fill="#4dd0e1"/></g><g transform="translate(5.42 9.279)"><rect width="8.863" height="2.415" fill="#efefef"/></g><g transform="translate(5.42 1.834)"><rect width="8.863" height="2.415" fill="#efefef"/></g></g><g transform="translate(61.414 13.607)"><rect width="60.978" height="1.109" fill="#efefef"/></g><rect width="122.392" height="2.538" fill="#efefef"/><g transform="translate(61.231 17.055)"><rect width="61.161" height="1.109" fill="#efefef"/></g><g transform="translate(61.231 10.159)"><rect width="61.161" height="1.109" fill="#efefef"/></g><g transform="translate(61.231 20.503)"><rect width="61.161" height="1.109" fill="#efefef"/></g><g transform="translate(61.231 23.95)"><rect width="61.161" height="1.108" fill="#efefef"/></g><g transform="translate(61.231 27.398)"><rect width="61.161" height="1.109" fill="#efefef"/></g><g transform="translate(61.231 30.846)"><rect width="61.161" height="1.109" fill="#efefef"/></g><g transform="translate(61.231 34.294)"><rect width="61.161" height="1.109" fill="#efefef"/></g><g transform="translate(61.231 37.741)"><rect width="61.161" height="1.109" fill="#efefef"/></g><g transform="translate(68.718 41.189)"><rect width="53.673" height="1.109" fill="#efefef"/></g></g><path d="M554.131,236.863H424.538a6.224,6.224,0,0,0-6.224,6.224v5.447H560.355v-5.447A6.224,6.224,0,0,0,554.131,236.863Z" transform="translate(-415.432 -236.863)" fill="#00223d"/><path d="M518.645,242.082a1.794,1.794,0,1,1-1.8-1.794A1.8,1.8,0,0,1,518.645,242.082Z" transform="translate(-391.991 -236.033)" fill="#cfcfff"/><path d="M524.533,242.082a1.8,1.8,0,1,1-1.8-1.794A1.8,1.8,0,0,1,524.533,242.082Z" transform="translate(-390.565 -236.033)" fill="#cfcfff"/><path d="M530.42,242.082a1.794,1.794,0,1,1-1.794-1.794A1.795,1.795,0,0,1,530.42,242.082Z" transform="translate(-389.138 -236.033)" fill="#cfcfff"/></g></g><g transform="translate(4.88 100.297)"><path d="M384.88,238.259c1.666,2.877.227,6.809,1.908,9.678.673,1.148,1.812,2.051,2.135,3.342a2.913,2.913,0,0,1-4.189,3.281,3.56,3.56,0,0,0-.647-.32c-.831-.244-1.584.494-2.3.983a3.508,3.508,0,0,1-3.026.535,4.489,4.489,0,0,1-2.519-3.025c-1.2-3.61-.348-7.563.763-11.2.555-1.819,1.375-3.836,3.159-4.5" transform="translate(-303.577 -227.123)" fill="#00223d"/><path d="M422.343,265.04c.027.4.637.744.231,1.586-.9,1.878-3.723,4.481-7.095,3.285-.147.052-18.625,10.733-20.048,10.733s-11.121-9.177-14.293-20.532c-.757-2.709-.462-5.9,2.076-7.267a6,6,0,0,1,3.49,3.106c2.1,3.966,8.392,17.1,9.786,17.592,1.738-1.158,10.2-3.672,17.052-6.583a4.637,4.637,0,0,0,2.656-2.22,22.093,22.093,0,0,1,2.847-4.439c.366-.375,4.421-2.547,4.421-1.834,0,.412-1.19,1.506-2.742,2.49a3.716,3.716,0,0,0-1.319,1.836c-.265.522,2.906-.436,3.169.661C422.619,263.612,422.329,264.832,422.343,265.04Z" transform="translate(-302.338 -223.292)" fill="#ffb9b0"/><path d="M382.6,252.577a8.323,8.323,0,0,1,5.518,4.28,17.229,17.229,0,0,1,.752,1.724c.984,2.5,2.338,4.77,3.322,7.274a14.736,14.736,0,0,1-4.346,2.1,9.285,9.285,0,0,1-4.045.543,2.048,2.048,0,0,1-.681-.15,2.242,2.242,0,0,1-.708-.609q-.632-.725-1.23-1.478a4.062,4.062,0,0,1-.826-1.414,4.293,4.293,0,0,1,.194-2.2" transform="translate(-302.46 -223.357)" fill="#26a69a"/><path d="M384.307,258.14a.858.858,0,0,0-.317-.27.574.574,0,0,0-.665.294,1.525,1.525,0,0,0-.138.771,10.529,10.529,0,0,0,.472,3l-.314,5.281.007.011a9.266,9.266,0,0,0,3.783-.552c.571-.212,1.188-.432,1.809-.683C388.31,263.015,386.281,260.494,384.307,258.14Z" transform="translate(-301.753 -222.081)" fill="#7762ef" opacity="0.35" style="mix-blend-mode:multiply;isolation:isolate"/><path d="M379.992,248.544s-.071,3.307.437,3.523a12.958,12.958,0,0,0,2.137.661l.034,6.843-9.124-1.375L367.2,254.7s6.523-2.163,6.58-2.813-.359-4.311-.359-4.311" transform="translate(-305.627 -224.568)" fill="#ffb9b0"/><g transform="translate(58.48 72.956)"><path d="M366.578,330.6l0,.026c-2.5,11.834-1.307,28.092-1.863,37,.13.036,3.392.445,3.392.445s7.72-37.551,9.121-44.743a10.163,10.163,0,0,0,.178-1.393c.337-5.411-4.541-5.687-7.289-1.214a18.717,18.717,0,0,0-1.257,2.415c-.155.353-.3.711-.45,1.092l0,.012a35.227,35.227,0,0,0-1.21,3.778l-.029.137c-.114.379-.207.763-.3,1.148l-.019.087C366.75,329.783,366.665,330.183,366.578,330.6Z" transform="translate(-364.71 -280.559)" fill="#ffb9b0"/><path d="M380.793,295.345c-.092.979-.614,5.639-1.241,11.135-.535,4.621-1.122,9.83-1.579,13.956-.339,3.093-.588,5.561-.692,6.722a15.05,15.05,0,0,1-.275,2v.026c-1.175,5.4-4.908,5.718-7.179,4.465a4.53,4.53,0,0,1-.862-.588,2.9,2.9,0,0,1-.966-1.593v-.013c-.143-1.111-.287-2.625-.417-4.426V327c-.012-.012-.012-.012-.012-.026l-.014-.039c-.275-3.512-.509-8.029-.718-12.428-.247-5.405-.405-10.614-.444-13.551-.014-.17-.014-.327-.026-.483-.04-9.007,8.238-14.777,13.381-11.983a1.311,1.311,0,0,1,.183.091,1.947,1.947,0,0,0,.2.118c.587.391.783,1.735.8,3.276C380.949,293.1,380.871,294.326,380.793,295.345Z" transform="translate(-364.309 -287.783)" fill="#ffb9b0"/><path d="M368.235,321.688l-.63-2.359c0,.012,0,.012.006.028a37.721,37.721,0,0,1-.783,8.238l-.029.137c-.091.373-.185.769-.3,1.148l-.019.087a6.428,6.428,0,0,0-.267,1.209l0,.026c-.007,1.07,2.271-3.681,2.793-4.792.065-.142.1-.222.1-.222l-.616-2.475Z" transform="translate(-364.346 -280.139)" fill="#ffb9b0"/></g><g transform="translate(73.386 72.563)"><path d="M382.2,332.805v.026c-.236,12.391,3.59,26.96,4.6,35.961.123,0,3.126-.4,3.126-.4s.571-37.961.611-45.462a11.353,11.353,0,0,0-.076-1.43c-.615-5.465-5.049-4.528-6.762.6a22.17,22.17,0,0,0-.722,2.714c-.078.39-.148.781-.217,1.2v.014c-.209,1.276-.359,2.634-.447,4.057l0,.144c-.038.405-.057.81-.074,1.215l0,.092C382.211,331.954,382.2,332.373,382.2,332.805Z" transform="translate(-375.382 -280.115)" fill="#ffb9b0"/><path d="M386.1,335.1a3.225,3.225,0,0,1-.871-.38,2.482,2.482,0,0,1-1.139-1.342v-.014c-.325-1.067-.713-2.558-1.143-4.317-.01-.015-.01-.015-.009-.029l-.019-.045c-.836-3.418-1.829-7.853-2.754-12.168-1.137-5.312-2.168-10.458-2.7-13.378-.042-.158-.5-2.285-.53-2.441-1.588-9.051,5.472-14.949,10.6-13.224l.2.07c1.032.414,1.318,4.042,1.55,6.495s1.975,27.868,2.411,32.464a18.359,18.359,0,0,1,.089,2.06C391.668,334.536,388.357,335.78,386.1,335.1Z" transform="translate(-376.709 -287.466)" fill="#ffb9b0"/><path d="M382.686,323.107l-.968-2.19c0,.014,0,.014.01.027a42.121,42.121,0,0,1,.694,8.387l0,.144c-.019.393-.036.811-.075,1.215l0,.092a7.447,7.447,0,0,0-.035,1.27v.026c.175,1.066,1.419-4.225,1.7-5.46.034-.156.056-.247.056-.247l-.975-2.308Z" transform="translate(-375.495 -279.361)" fill="#ffb9b0"/></g><path d="M371.007,280.075s-6.644,8.44-5.962,16.921c.283,3.529.722,6.64,1.123,10.192.058.512.855,7.969.63,7.977,0,0,13.69,4.23,26.916-1.312,0-.9,1.058-18.262-6.086-34.812A115.131,115.131,0,0,1,371.007,280.075Z" transform="translate(-306.161 -216.944)" fill="#039be5"/><path d="M391.633,267.251c-.052,2.418-1.339,3.89-3.184,5.927a72.045,72.045,0,0,0-1,9.336c-.1,1.865.694,3.036,0,3.189-2.656,2.317-12.227,4.193-16.617,1.031.46-3.9-1.286-12.483-2.463-16.848-.184-.672-.345-1.24-.492-1.677-1.1-3.316-3.077-13.949-1.611-14.412.292-.092.745-.211,1.271-.37,2.295-.692,5.685-1.881,5.685-1.881s1.989,5.883,7.159,6.594c2.822-1.163,2.574-4.732,2.54-6.373.923.255,1.329.508,4.19,1.355.8,1.157.109,3.569,1.405,7.167C388.837,261.184,391.7,264.306,391.633,267.251Z" transform="translate(-305.98 -223.606)" fill="#26a69a"/><path d="M386.015,237.722s.523,6.392-.568,9.742c-.807,2.481-4.123,4.8-6.9,4.765-7.633,0-9-10.367-8.962-10.869s11.258-4.852,11.258-4.852Z" transform="translate(-305.048 -227.25)" fill="#ffb9b0"/><path d="M383.456,288.237" transform="translate(-301.688 -214.716)" fill="#f2f2f2"/><g transform="translate(83.609 160.375)"><path d="M396.829,362.6c-2.717.49-5.62-.274-6.81-.068-.984.168-3.511.809-4.456-.041s-.794-3.85.293-4.25a3.9,3.9,0,0,0,.706.17,7.43,7.43,0,0,0,3.216-.263c2.067.851,2.143,1.222,4.493,1.7a15.277,15.277,0,0,1,2.994.908C398.279,361.219,398.36,362.33,396.829,362.6Z" transform="translate(-384.938 -358.151)" fill="#039be5"/></g><g transform="translate(56.79 158.28)"><path d="M372.733,364.208c-2.722-.458-4.445-1.964-5.635-2.172-.983-.175-3.459-.657-3.718-1.672-.193-.754.555-3.891,1.713-3.9a3.958,3.958,0,0,0,.606.4,7.443,7.443,0,0,0,3.116.839c1.658,1.5,1.605,1.875,3.656,3.115a15.264,15.264,0,0,1,2.511,1.867C375.779,363.463,374.267,364.467,372.733,364.208Z" transform="translate(-363.35 -356.465)" fill="#039be5"/></g><g transform="translate(26.505 29.317)"><path d="M338.972,262.316l2.5-2.974,15.25,13.637s7.446-9.911,9.494-13.006c2.252-3.4,4.282-6.313,7.576-6.882.759.468-.256,12.69-.652,12.986-4.6,3.442-13.555,14.546-16.4,15.124C353.449,281.866,338.972,262.316,338.972,262.316Z" transform="translate(-338.972 -252.549)" fill="#ffb9b0"/><path d="M370.286,252.655s-3.116.04-4.455,1.143-7.741,11.249-7.741,11.249a4.51,4.51,0,0,0,1.683,3.524,9.342,9.342,0,0,0,4.61,2s3.213-3.2,5.024-4.652c1.128-.907,1.24,1.337,1.24,1.337l5.665-5.531Z" transform="translate(-334.34 -252.655)" fill="#26a69a"/></g><path d="M366.987,258.116c-.17-.091-.337-.189-.5-.286a4.2,4.2,0,0,1-2.046-2.065,6.841,6.841,0,0,1-.044-5.019,19.967,19.967,0,0,1,2.094-2.4,7.419,7.419,0,0,0,1.235-4.173,27.52,27.52,0,0,1,.3-4.4c.528-2.462,1.23-4.808,3.128-6.394,3.04-2.542,9.133-4.047,12.448-1.214.6.516.721.929,1.534,1.009a5.986,5.986,0,0,1,2.781.812c1.087.629,2.406,1.514,2.254,2.942a5.114,5.114,0,0,1-2.073,3.018,2.513,2.513,0,0,1-1.172.262c-1.292.025-2.364-.815-3.633-.68a2.415,2.415,0,0,0-1.59.883c-.457.564-.395,1.35-.928,1.877-.856.846-2.183.774-3.2,1.324a1.072,1.072,0,0,0-.437.36,1.151,1.151,0,0,0-.111.543l-.058,1.6c-.5-.221-.555-.937-.97-1.3a1.153,1.153,0,0,0-1.453.093,2.438,2.438,0,0,0-.7,1.394,4.006,4.006,0,0,0,.282,1.912c.332,1.088,1.265,2.068,2.017,1.349.547.8-.051,2.145-.071,3.054-.016.721,0,2.149.671,2.622.62.436,1.6.106,1.64,1.227a2.159,2.159,0,0,1-2.012,1.954,7.55,7.55,0,0,1-3.013-.525,4.723,4.723,0,0,0-3.02-.148,9.138,9.138,0,0,1-1.7.763A2.656,2.656,0,0,1,366.987,258.116Z" transform="translate(-306.418 -228.675)" fill="#00223d"/><path d="M346.346,262.682s-3.584-2.873-3.829-3.66-.3-1.629-.593-2.4a4.488,4.488,0,0,0-2.487-2.475c-.9-.37-.458-.675-1.421-.488-1.452.281-2.142,1.7-2.722,2.818-2.476,4.744,4.3,5.643,4.543,5.652.494.02,3.017,2.88,3.017,2.88" transform="translate(-313.489 -223.107)" fill="#ffb9b0"/><g transform="translate(8.695 6.772)"><path d="M335.031,260.905l2.455,1.639a.677.677,0,0,0,.955-.216l5.393-9.036-3.2-1.8-5.789,8.471A.676.676,0,0,0,335.031,260.905Z" transform="translate(-322.189 -230.392)" fill="#00223d"/><path d="M328.118,244.684l.845.575,3.416-4.979-.845-.575a2.857,2.857,0,0,0-3.885,1.006h0A2.836,2.836,0,0,0,328.118,244.684Z" transform="translate(-324.048 -233.346)" fill="#00223d"/><path d="M325.4,251.75l15.715,2.386,3.59-5.231-7.93-13.73Z" transform="translate(-324.451 -234.345)" fill="url(#a)"/><path d="M326.206,249.762l14.711,2.168,1.431-2.085-12.381-5.563Z" transform="translate(-324.255 -232.138)" fill="#00223d"/><path d="M343.394,254.416h0a2,2,0,0,0,2.717-.7l.637-.931a1.983,1.983,0,0,0-.327-2.778h0a2,2,0,0,0-2.717.7l-.639.93A1.982,1.982,0,0,0,343.394,254.416Z" transform="translate(-320.27 -230.821)" fill="#00223d"/><path d="M343.7,250.555l-.636.929a1.859,1.859,0,1,0,3.044,2.073l.637-.928a2.063,2.063,0,0,0,.13-.219,1.826,1.826,0,1,1-3.018-2.056A2.13,2.13,0,0,0,343.7,250.555Z" transform="translate(-320.269 -230.667)" fill="url(#a)"/><path d="M325.07,252.428h0a1.173,1.173,0,0,0,1.6-.412l10.781-15.709a1.166,1.166,0,0,0-.193-1.632h0a1.173,1.173,0,0,0-1.6.414L324.877,250.8A1.166,1.166,0,0,0,325.07,252.428Z" transform="translate(-324.635 -234.507)" fill="#00223d"/><path d="M337.529,234.883l-8.978,13.083a1.174,1.174,0,0,1-1.6.414.975.975,0,0,1-.276-.3l-1.8,2.626a1.092,1.092,0,1,0,1.788,1.219l10.781-15.71A1.237,1.237,0,0,0,337.529,234.883Z" transform="translate(-324.635 -234.416)" fill="url(#a)"/><path d="M339.423,254.251l1.017.693a3.566,3.566,0,0,0,4.85-1.256l1.011-1.472a3.541,3.541,0,0,0-.585-4.96l-1.018-.693a3.566,3.566,0,0,0-4.85,1.256l-1.011,1.472A3.541,3.541,0,0,0,339.423,254.251Z" transform="translate(-321.373 -231.709)" fill="url(#a)"/><path d="M339.08,248.594l-1.513,2.205a1.119,1.119,0,0,0,.185,1.57l4.732,3.225a1.13,1.13,0,0,0,1.535-.4l1.513-2.205a1.129,1.129,0,0,1-1.535.4l-4.732-3.224A1.122,1.122,0,0,1,339.08,248.594Z" transform="translate(-321.559 -231.093)" fill="#00223d"/></g><path d="M335.406,258.223a4.944,4.944,0,0,1,.863-3.693,7.946,7.946,0,0,1,.881-.949,1.216,1.216,0,0,1,.53-.35,1.672,1.672,0,0,1,1.149.26,2.092,2.092,0,0,1,.942.935,1.248,1.248,0,0,1-.691,1.5.259.259,0,0,0-.127.125c-.029.086.031.2.087.292a2.134,2.134,0,0,1,.364,1.226.718.718,0,0,1-.844.631c-.185-.03-.432-.1-.493.04a.3.3,0,0,0,0,.16,1.313,1.313,0,0,1-.286,1.035.362.362,0,0,1-.227.143.6.6,0,0,1-.239-.032,3.237,3.237,0,0,1-.84-.373" transform="translate(-313.345 -223.205)" fill="#ffb9b0"/><path d="M341.566,259.222a18.812,18.812,0,0,1-.293-1.928,4.385,4.385,0,0,0-2.073-3.605.524.524,0,0,0-.337-.1.371.371,0,0,0-.275.323,1,1,0,0,0,.066.445c.145.456.793,1.312.593,1.781a5.331,5.331,0,0,0-.512,2.235c.022.682.34,1.789,1.148,1.9" transform="translate(-312.561 -223.112)" fill="#ffb9b0"/><line x2="3.162" y2="7.455" transform="translate(10.781)" fill="none" stroke="#00223d" stroke-linecap="round" stroke-linejoin="round" stroke-width="0.75"/><line x2="6.48" y2="4.856" transform="translate(4.179 6.63)" fill="none" stroke="#00223d" stroke-linecap="round" stroke-linejoin="round" stroke-width="0.75"/><line x2="8.059" y2="0.791" transform="translate(0 15.66)" fill="none" stroke="#00223d" stroke-linecap="round" stroke-linejoin="round" stroke-width="0.75"/></g><g transform="translate(130.492 23.139)" opacity="0.3"><g transform="translate(13.495 12.352)"><path d="M380.722,206.31l4.349,2.189-2.175-5.336" transform="translate(-380.722 -203.163)" fill="#00223d"/></g><path d="M369.859,201.9a9.208,9.208,0,1,0,9.193-8.676A8.946,8.946,0,0,0,369.859,201.9Z" transform="translate(-369.859 -193.22)" fill="#00223d"/><path d="M375.447,198.037v6.2a.65.65,0,0,0,.975.563l5.37-3.1a.649.649,0,0,0,0-1.125l-5.37-3.1A.65.65,0,0,0,375.447,198.037Z" transform="translate(-368.505 -192.21)" fill="#fefefe"/></g><g transform="translate(365.746 121.748)" opacity="0.3"><g transform="translate(0.541 12.351)"><path d="M623.768,259.412l-4.35,2.189,2.175-5.336" transform="translate(-619.418 -256.265)" fill="#00223d"/></g><path d="M637.369,255a9.209,9.209,0,1,1-9.193-8.675A8.946,8.946,0,0,1,637.369,255Z" transform="translate(-618.983 -246.323)" fill="#00223d"/><g transform="translate(3.795 2.849)"><g transform="translate(3.681)"><path d="M625.074,258.6c2,.032,4.033.058,5.875-.062.583-.039,1.087-.913.379-1.189a1.29,1.29,0,0,0,.73-.6.581.581,0,0,0-.355-.781c.7.163.969-.878.427-1.214a1.524,1.524,0,0,0,.586-.887.87.87,0,0,0-.424-.917,1.6,1.6,0,0,0-.722-.118l-2.5-.017a5.166,5.166,0,0,0-.369-3.652c-.2-.325-.735-.716-1.161-.465-.4.235-.288.819-.268,1.186A4.117,4.117,0,0,1,625,253.674S625.1,256.934,625.074,258.6Z" transform="translate(-625.001 -248.617)" fill="#fefefe"/></g><rect width="3.028" height="4.919" transform="translate(0 5.058)" fill="#fefefe"/></g></g><g transform="translate(219.745 56.459)" opacity="0.3"><g transform="translate(10.581 2.066)"><path d="M511.15,198.86l3.173-3.428-4.348.852" transform="translate(-509.975 -195.431)" fill="#00223d"/></g><path d="M501.458,200.059a6.678,6.678,0,1,0,6.667-6.291A6.487,6.487,0,0,0,501.458,200.059Z" transform="translate(-501.458 -193.768)" fill="#00223d"/><g transform="translate(2.93 2.066)"><g transform="translate(2.411)"><path d="M505.805,202.67c1.313.022,2.641.042,3.849-.046.383-.027.712-.661.248-.862a.87.87,0,0,0,.478-.434.434.434,0,0,0-.232-.566c.456.118.635-.637.279-.881a1.116,1.116,0,0,0,.384-.642.657.657,0,0,0-.277-.666.955.955,0,0,0-.473-.084l-1.637-.014a4.113,4.113,0,0,0-.241-2.649c-.132-.236-.482-.518-.762-.337-.261.17-.189.594-.175.861a3.042,3.042,0,0,1-1.49,2.749S505.819,201.463,505.805,202.67Z" transform="translate(-505.757 -195.431)" fill="#fefefe"/></g><rect width="1.984" height="3.567" transform="translate(0 3.668)" fill="#fefefe"/></g></g><g transform="translate(245.018 0)" opacity="0.3"><path d="M539.325,164.288a9.812,9.812,0,1,0-2.236,2.057l3.809,2.031Z" transform="translate(-521.802 -148.321)" fill="#00223d"/><path d="M526.522,154.211a2.4,2.4,0,0,1,3.4.035l.612.625.63-.62a2.4,2.4,0,1,1,3.369,3.423l-2.336,2.3-.014.016a2.4,2.4,0,0,1-3.4-.036l-2.3-2.347A2.4,2.4,0,0,1,526.522,154.211Z" transform="translate(-520.833 -147.06)" fill="#fff"/></g><g transform="translate(234.633 6.91)"><g transform="translate(0 3.371)"><path d="M528.373,180.449s-2.895-2.042-3-2.9a19.829,19.829,0,0,0-2.766-5.025c-.645-.692-4.039-1.867-4.762-1.972s-4.877.25-4.361.816,3.205.36,3.722.671l.517.309s-.517.7-.31,1.126-.887,1.078-.473,1.8-.168.675.2,1.43c.611,1.246,2.175,1.94,2.589,1.6.311.738,1.5,2.244,2.609,2.14s3.814,2.429,3.814,2.429" transform="translate(-513.442 -153.22)" fill="#ffb9b0"/><path d="M563.1,166.819c.1,1.944-.04,5.329.517,5.831s2.353.424,2.353.424-6.423,8.121-7,7.675-8.171-6.636-6.464-6.957,3.378-.251,3.329-1.134-.1-1.768-.145-2.651" transform="translate(-504.036 -154.12)" fill="#ffb9b0"/><path d="M571.35,209.012s-12.531,1.422-15.416,1.482-2.742-1.447-2.742-1.447a114.649,114.649,0,0,0-1.282-13.193c-.557-2.368-.8-3.242-1.288-5.492-1.078-5-1.031-5.956-2.173-12.127l7.485-6.016a3.949,3.949,0,0,0,3.912,2.342c4.194.053,5.5-2.883,5.5-2.883l10.209,6.778.958,16.488L575.29,208.52" transform="translate(-504.96 -152.943)" fill="#f6c343"/><path d="M563.645,167.534a21.809,21.809,0,0,1-.883,2.881A3.265,3.265,0,0,1,559.3,172.8l-3.838.091a4.382,4.382,0,0,1-3-.632c-.786-.683-.8-1.832-.978-2.779q-.333-1.815-.544-3.651a53.67,53.67,0,0,1-.338-7.219,5.151,5.151,0,0,1,.086-.988.717.717,0,0,1,.164-.363.807.807,0,0,1,.461-.178,39.376,39.376,0,0,1,7.254-.465,8.238,8.238,0,0,1,4.883,1.3,9.2,9.2,0,0,1,2.6,4.393c.093.261.163.609-.063.768" transform="translate(-504.439 -156.597)" fill="#ffb9b0"/><g transform="translate(19.15 54.941)"><g transform="translate(5.566 44.084)"><path d="M538.476,238.052a27.322,27.322,0,0,0,.748,3.344c.332.851,3.127.066,3.312-.485s-.88-4.6-.88-4.6" transform="translate(-532.093 -236.308)" fill="#ed9c80"/><path d="M544.753,240.775c.242.918.548,2.682.548,2.682l-2.8,1.216-.458-.43a5.172,5.172,0,0,1-1.55,1.236,11.616,11.616,0,0,1-2.7.75c-2.44.262-4.235-.2-4.38-.534-.605-1.414,2.632-1.793,3.274-1.962a4.29,4.29,0,0,0,3.066-3.072c.143-.74-.041-.871.373-.848a.985.985,0,0,1,.7.329,1.765,1.765,0,0,0,1.985.461,2.112,2.112,0,0,0,.99-.825A1.22,1.22,0,0,1,544.753,240.775Z" transform="translate(-533.338 -235.467)" fill="#38287c"/></g><path d="M553.157,214.034a47.356,47.356,0,0,1-14.267.338c.618,1.77,2.131,4.037,2.707,6.53,1.9,8.228,2.564,19.282,3.047,26.119,0,0-.913,1.755-3.842.419-4.375-10.807-12.016-32.709-11.945-37.46.091-6.049,15.188-7.51,26.254-9" transform="translate(-528.857 -200.784)" fill="#00223d"/><path d="M572.121,201.961c3.48,2.54-19.287,12.111-19.287,12.111a37.911,37.911,0,0,1-7.461.712,5.449,5.449,0,0,1-.555-1.411c-.134-.661-.062-1.349-.178-2.013a4.68,4.68,0,0,0-2.275-3.066,10.237,10.237,0,0,0-3.721-1.205,49.886,49.886,0,0,0-8.453-.149c6.843-5.044,20.842-5.7,27.363-6.118C558.8,202.879,571.621,201.6,572.121,201.961Z" transform="translate(-528.534 -200.822)" fill="#00223d"/><g transform="translate(11.455 50.414)"><path d="M544.285,242.568a27.375,27.375,0,0,0,.156,3.424c.179.9,3.068.607,3.346.1s-.068-4.686-.068-4.686" transform="translate(-536.575 -241.403)" fill="#ed9c80"/><path d="M550.127,246.215c.08.948.075,2.737.075,2.737l-2.963.714-.378-.5a5.161,5.161,0,0,1-1.74.949,11.616,11.616,0,0,1-2.8.27c-2.447-.164-4.135-.927-4.22-1.285-.352-1.5,2.9-1.309,3.564-1.364a4.29,4.29,0,0,0,3.552-2.495c.27-.7.112-.865.516-.77a.985.985,0,0,1,.631.445,1.763,1.763,0,0,0,1.876.8,2.112,2.112,0,0,0,1.118-.64A1.219,1.219,0,0,1,550.127,246.215Z" transform="translate(-538.079 -240.667)" fill="#38287c"/></g><path d="M576.779,201.334a141,141,0,0,1-15.423.492c-1.97,0-16.869,2.8-18.294,5.32-2.344,4.153,1.529,28.424,1.17,45.8,0,0,1.786,1.491,4.946.089.785-8.536,5.829-28.672,2.349-38.073,8.214,1.089,14.841,2.173,22.307-.3a5.96,5.96,0,0,0,3.841-4.072C578.462,208.319,578.051,203.361,576.779,201.334Z" transform="translate(-525.599 -200.698)" fill="#00223d"/></g><g transform="translate(9.583 19.274)"><path d="M562.547,172.112s-1.79.1-2.139.127a16.451,16.451,0,0,0-4.425.837c-2.03.752-3.462,2.64-5.115,4.117-1.591,1.421-9.838,9.279-11.376,9.568s-15.04-8.963-15.04-8.963l-3.3,3.3s14.651,13.537,19.02,13.561c2.121.011,13.816-6.146,17.559-8.538Z" transform="translate(-521.156 -172.112)" fill="#f6c343"/><path d="M540.209,190.429c-3.011.17-16.813-10.371-18.413-11.6l-.64.64s14.651,13.537,19.02,13.561c1.768.009,10.179-4.264,15.1-7.074l1.275-.739-.764-4.552S543.408,190.248,540.209,190.429Z" transform="translate(-521.156 -170.485)" fill="#ce4a30" opacity="0.25" style="mix-blend-mode:multiply;isolation:isolate"/></g><g transform="translate(7.668 36.86)"><path d="M526.344,207.693h33.537l-6.014-19.6a2.577,2.577,0,0,0-2.464-1.821h-29.37a1.671,1.671,0,0,0-1.6,2.162Z" transform="translate(-519.434 -186.268)" fill="#00223d"/><path d="M526.1,207.693h33.032l-6.013-19.6a2.577,2.577,0,0,0-2.465-1.821H521.288a1.672,1.672,0,0,0-1.6,2.162l5.761,18.781A.682.682,0,0,0,526.1,207.693Z" transform="translate(-519.615 -186.268)" fill="url(#a)"/></g><path d="M570.529,181.667a131.267,131.267,0,0,0-2.436,18.849c-5.86,2.275-8.246,5.661-13.981,8.213,0,0-4.528-.752-5,.957-.275.985,5.3,1.769,5.3,1.769,5.314.025,19.33-3.859,20.278-4.119s3.711-18.077,3.821-27.746a6.077,6.077,0,0,0-.892-3.934,5.156,5.156,0,0,0-1.729-1.28,24.11,24.11,0,0,0-10.7-2.7" transform="translate(-504.803 -152.943)" fill="#ce4a30" opacity="0.25" style="mix-blend-mode:multiply;isolation:isolate"/><path d="M555.6,202.616a3.356,3.356,0,0,0-2.79-.883,20.47,20.47,0,0,0-2.241.179c-.338.046-.728.125-.763.492s1.642,0,2.522.253a44.33,44.33,0,0,1-5.185.142,1.486,1.486,0,0,0-.6.061.5.5,0,0,0-.335.455.62.62,0,0,0,.237.4,3.519,3.519,0,0,0,1.784.718,13.739,13.739,0,0,0,7.883-.7" transform="translate(-505.502 -145.661)" fill="#ffb9b0"/><path d="M569.187,181.525c-.138,8.067-.711,11.76-.554,19.827-4.05.866-9.656,5.451-15.391,8a3.028,3.028,0,0,0,.19,2.1c.437.16,19.342-4.442,20.846-5.828,1.353-1.247,3.143-16.369,3.254-26.037a6.077,6.077,0,0,0-.892-3.934,5.154,5.154,0,0,0-1.729-1.28,24.11,24.11,0,0,0-10.7-2.7" transform="translate(-503.825 -152.943)" fill="#f6c343"/><g transform="translate(21.689 44.797)"><path d="M540.417,195.77c.119,1.719-1.912,3.112-4.538,3.112s-4.852-1.393-4.973-3.112,1.912-3.113,4.538-3.113S540.3,194.051,540.417,195.77Z" transform="translate(-530.901 -192.657)" stroke="#00223d" stroke-miterlimit="10" stroke-width="1" opacity="0.45" fill="url(#a)"/><ellipse cx="1.73" cy="3.024" rx="1.73" ry="3.024" transform="matrix(0.039, -0.999, 0.999, 0.039, 1.671, 4.723)" fill="#00223d"/></g></g><path d="M558.073,161.31c-.064-.3-.733-.362-1.406-.277a10.717,10.717,0,0,0-2.834.6c-.369.287-.348.493-.544.516s-.206-.18-.635-.368a5.7,5.7,0,0,0-2.137.029c-.672.084-1.312.234-1.3.542a1.725,1.725,0,0,0,.27.929c.137.086.137.071.666,1.287a1.284,1.284,0,0,0,1.62.88c1.107-.241,1.176-1.5,1.262-2.029s.165-.6.333-.626.283.032.5.522.367,1.618,1.5,1.681c1.485.083,2.128-.425,2.334-1.376.278-1.291.215-1.3.327-1.412a7.032,7.032,0,0,1,1.109.094l-.025-.385A8.388,8.388,0,0,1,558.073,161.31Zm-5.392,2.6a1.292,1.292,0,0,1-1.094,1.354c-.681.086-.993-.276-1.362-1.148a2.254,2.254,0,0,1-.22-1.573c.115-.209.483-.2,1.328-.255s1.128-.072,1.265.3A4.589,4.589,0,0,1,552.681,163.907Zm4.84-.712c-.14.935-.483,1.385-1.416,1.5-1.322.159-1.577-.363-1.772-.993a4.6,4.6,0,0,1-.247-1.3c.041-.394.318-.447,1.15-.6s1.944-.352,2.108-.178A2.248,2.248,0,0,1,557.521,163.2Z" transform="translate(-504.774 -152.16)" fill="#483a99"/><path d="M567.217,160.973a14.3,14.3,0,0,0-.369-1.989,6.338,6.338,0,0,0-3.1-4.061,9.907,9.907,0,0,0-7.01-.7c-1.283.359-1.759,1.035-2.42,1.016a7.271,7.271,0,0,1-1.8-.591c-5.015-1.8-4.174,3.107-3.64,4.455.237.6,1.374,1.031,1.526,1.278a15.3,15.3,0,0,1,.231,2,1.059,1.059,0,0,0,.625.738s.027-1.58.052-1.794a1.99,1.99,0,0,1,.742-1.481,4.6,4.6,0,0,1,1.8-.507,13.743,13.743,0,0,1,3.691.611c.937.8,1.178,2.637,1.441,3.716.122.5.25.841.455.834.155-1.485.671-1.522,1.559-1.015a2.587,2.587,0,0,1,.755,2.008,2.119,2.119,0,0,1-1.5,2.191c-.354.076.714,2.1,1.209,2.606a2.7,2.7,0,0,0,.523.46,2.4,2.4,0,0,0,.6.224l.717.2a1.877,1.877,0,0,0,.985.084c.529-.149.809-.711,1.047-1.206.391-.812.842-1.6,1.163-2.445A14.521,14.521,0,0,0,567.217,160.973Z" transform="translate(-504.954 -153.884)" fill="#12263f"/></g><g transform="translate(292.215 103.233)"><ellipse cx="35.642" cy="3.757" rx="35.642" ry="3.757" transform="translate(10.649 172.157)" fill="#eae6ff"/><path d="M583.27,368.93a8.953,8.953,0,0,1-3.719,2.816c-1.984.887-6.193,1.3-3.855,2.085a14.018,14.018,0,0,0,6.444.087,27.834,27.834,0,0,1,4.347-.263c2.148-.014,2.165-.147,1.876-2.568C587.963,367.754,584.236,367.047,583.27,368.93Z" transform="translate(-556.106 -198.348)" fill="#cd4022"/><path d="M613.905,368.077c-.119.672.835,2.71-.874,4.205s-5.584,3.07-3.014,3.128a14.964,14.964,0,0,0,6.344-1.181c1.306-.646.263-1.662,1.884-2.173,2.136-.675,1.695-2.245.585-3.216C617.41,365.639,614.29,365.9,613.905,368.077Z" transform="translate(-547.83 -198.704)" fill="#cd4022"/><path d="M612.485,318.5s5.118-15.048-9.4-27.444c0,0-7.782,3.1-14.013,3.472a34.594,34.594,0,0,1-7.4-.158s-.414,13.368-.431,20.574Z" transform="translate(-554.596 -216.969)" fill="#00223d"/><path d="M580.294,334.206c-.281-6.728,7.014-5.846,9.7-.82,5.563,10.393-2.052,34.33-3.059,45.672a5.777,5.777,0,0,1-3.851.24,2.69,2.69,0,0,1-1.119-1.237C582.131,364.146,580.594,341.4,580.294,334.206Z" transform="translate(-554.827 -207.681)" fill="#00223d"/><path d="M589.742,342.33c-.84,2.748-10.152,5.638-9.4-4.363.334-4.435,1.226-28.926,1.4-31.286s.568-5.811,1.708-6.243c5.706-2.153,15.8,5.307,14.3,14.172C596.746,320.536,591.481,336.632,589.742,342.33Z" transform="translate(-554.823 -214.786)" fill="#00223d"/><path d="M599.779,338.3c-2.251-6.346,5.064-7.469,9.212-3.559,9.715,9.156,10.091,30.729,12.473,41.866a8.52,8.52,0,0,1-4.247,1.216,1.518,1.518,0,0,1-1.158-.593C612.111,363.884,602.188,345.082,599.779,338.3Z" transform="translate(-550.206 -206.934)" fill="#00223d"/><path d="M611.115,343.633c.255,2.861-7.508,8.774-10.563-.776-1.355-4.236-7.157-29.269-7.884-31.521s-.528-6.9.368-7.731c4.48-4.139,14.591-.5,16.529,8.28C610.862,317.753,610.589,337.7,611.115,343.633Z" transform="translate(-551.934 -214.342)" fill="#00223d"/><path d="M575.25,249.754c.265-.28.529-.559.765-.862,1.84-2.353,2.108-4.439,3.813-7.169a21.3,21.3,0,0,1,1.239-2.37,9.916,9.916,0,0,1,2.767-2.267c.8-.417.112,1.338.112,1.338s.676-.98,1.329-.911c.255.027.3,1.524.3,1.78a12.57,12.57,0,0,1-1.4,5.943,3.06,3.06,0,0,0-.476,1.35,3.019,3.019,0,0,0,1.605-.79,1.939,1.939,0,0,1,1.679-.489,4.58,4.58,0,0,1-.323.7c-.727,1.364-1.543,2.816-2.939,3.48-.835.4-1.8.466-2.615.9-1.472.783-2.188,2.594-3.682,3.333" transform="translate(-556.048 -230.062)" fill="#f2a181"/><rect width="6.359" height="11.708" rx="0.646" transform="matrix(0.923, 0.386, -0.386, 0.923, 27.333, 7.274)" fill="#5e5dbb"/><rect width="5.331" height="10.451" transform="translate(27.724 8.118) rotate(22.698)" fill="#b4b4db"/><path d="M592.435,256.965a34.761,34.761,0,0,0-7.106,1.2c-5.056,1.518-6.8,3.86-8.542,4.828,3.393-4.311,7.176-13.453,7.176-13.453s-4.562-3.747-5.086-2.86-19.669,23.289-19.069,26.917c.247,1.5,2.463,2.974,4.423,2.907,5.429-.186,11.732-2.162,18.341-4.324,2.906-.95,3.8,1.1,3.8,1.1" transform="translate(-559.793 -227.754)" fill="#f1f1f1"/><path d="M574.109,260.237s-2.411,4.86-3.136,5.177,1.758-1.012,3.116-2.415a28.779,28.779,0,0,0,3.216-5.083A27.905,27.905,0,0,0,574.109,260.237Z" transform="translate(-557.115 -224.999)" fill="#707070"/><path d="M580.15,240.829a1.1,1.1,0,0,1,.342.765,6.035,6.035,0,0,1-.093,3.223,4.648,4.648,0,0,1-1.3,1.65,10.15,10.15,0,0,1-1.974,1.349" transform="translate(-555.592 -229.139)" fill="#f2a181"/><path d="M586.834,234.32c-1.28.369-1.956,2.02-2.39,3.15a17.531,17.531,0,0,0-.955,4.25,5.833,5.833,0,0,0,.208,2.99,6.287,6.287,0,0,0,.835,1.3,2.752,2.752,0,0,0,.6.633.928.928,0,0,0,.832.142c.4-.153.559-.621.672-1.032a27.2,27.2,0,0,1,3.059-7.736" transform="translate(-554.074 -230.716)" fill="#170d54"/><path d="M585.52,241.353c-.026-.855-.926-1.413-1.7-.527a5.454,5.454,0,0,0-.853,3.151c-.044,1.231.909,1.472,1.695,1.645" transform="translate(-554.179 -229.248)" fill="#f2a181"/><path d="M578.255,259.379c1.579-1.81,6.588-4.8,13.284-4.583,4.613.145,17.176.907,18.58,3.993.718,1.578,1.488,17.733.437,23.3-.79,4.189-2.811,14.565-2.811,17.069s1.345,3.578.718,4.3c-1.406,1.629-11.019,2.312-15.533,2.312-4.016,0-10.854-1.071-11.2-2.358-.514-1.909.784-1.839.96-3.841s.682-15-.055-17.128c-1.33-3.841-1.976-10.1-3.032-12.946C578.8,267.348,576.677,261.189,578.255,259.379Z" transform="translate(-555.457 -225.757)" fill="#f1f1f1"/><path d="M604.606,269.023c.478,1,3.729,6.224,3.729,6.224l.132.626a25.936,25.936,0,0,1-.33,2.793c-.79,4.189-2.811,14.565-2.811,17.069s1.288,3.532.718,4.3c-1.108,1.5-19.234,4.88-18.343.686.081-.379,15.213-11.925,15.294-12.312.7-3.313,1.306-5.7,1.611-8.117C605.342,274.48,604.128,268.027,604.606,269.023Z" transform="translate(-553.038 -222.332)" fill="#707070"/><path d="M586.193,250.787a49.64,49.64,0,0,1-.253,5.467,8.288,8.288,0,0,1-1.251.7s.74,4.567,1.884,4.228,8.7-4.156,8.7-4.156-1.072-.436-1.072-.86,1.017-8.689,1.017-8.689" transform="translate(-553.76 -227.527)" fill="#ffbe9d"/><path d="M591.828,234.777c-1.1.3-4-.3-4.805.9s-1.5,4.1-1.8,4.906c-.6,1.594-.988,3.3-1.421,4.942-.567,2.142-1.5,6.065.6,7.856a2.789,2.789,0,0,0,1.616.821c.993.179,1.979.383,2.972.56a9.976,9.976,0,0,0,4.768.1c2.04-.662,3.158-3.467,3.684-5.372l3-10.912Z" transform="translate(-554.147 -230.605)" fill="#ffbe9d"/><path d="M586,260.162s-.442,20.505-1.277,32.979l3.016,4.158,2.072-5.208a158.57,158.57,0,0,0-1.96-31.787Z" transform="translate(-553.753 -224.455)" fill="#00223d"/><path d="M585.191,258.964l.071.282a5.733,5.733,0,0,0,.624,1.519h0l1.851.143s1.257-.66,1.424-1.368-2.065-1.868-2.065-1.868l-.271.106a4.039,4.039,0,0,0-1.611,1.159Z" transform="translate(-553.639 -225.058)" fill="#00223d"/><path d="M593.84,253.446a7.726,7.726,0,0,1,2.111,2.139c-.952,2.177-3.1,6.044-5.471,7.805a10.7,10.7,0,0,0-3.755-4.695S593.178,257.547,593.84,253.446Z" transform="translate(-553.267 -226.082)" fill="#fff"/><path d="M587.462,258.642a7.944,7.944,0,0,0-3.68,3.5,17.589,17.589,0,0,1,.5-6.491s1.516-1.939,2.04-1.979A10.189,10.189,0,0,0,587.462,258.642Z" transform="translate(-554.005 -226.028)" fill="#fff"/><g transform="translate(6.095 31.123)"><path d="M587.86,294.522A6.825,6.825,0,0,0,583.429,297a.477.477,0,0,0-.193.381c.03.183.245.263.427.293,1.065.171,1.237-.509,2.232-.924.672-.281,1.339-.572,2.007-.862" transform="translate(-560.209 -247.252)" fill="#f2a181"/><g transform="translate(0 26.161)"><g transform="translate(0 3.312)"><path d="M584.569,281.291l8.122,26.031a.932.932,0,0,1-.861,1.306l-16.948,1.487a1.571,1.571,0,0,1-1.42-1.094l-8.733-25.635c-.219-.7.79-1.7,1.471-1.7l16.948-1.487A1.57,1.57,0,0,1,584.569,281.291Z" transform="translate(-564.7 -280.197)" fill="#00223d"/></g><g transform="translate(0.025 3.992)"><path d="M584.008,281.838l8.009,25.63a.933.933,0,0,1-.861,1.307l-16.948,1.487a1.572,1.572,0,0,1-1.42-1.1l-8.009-25.629a.932.932,0,0,1,.861-1.307l16.946-1.487A1.573,1.573,0,0,1,584.008,281.838Z" transform="translate(-564.719 -280.744)" fill="url(#a)"/></g><g transform="translate(5.775)"><path d="M569.348,281.09l.6,2.247,7.926-.7-.652-2.238Z" transform="translate(-569.348 -276.836)" fill="#fff"/><path d="M570.575,279.7c.164.523.794,2.542.794,2.542l3.784-.35-.794-2.542a2.573,2.573,0,0,0-2.511-1.809A1.548,1.548,0,0,0,570.575,279.7Zm.839-.052a.869.869,0,0,1,.714-1.211,1.446,1.446,0,0,1,1.409,1.015.869.869,0,0,1-.714,1.211A1.443,1.443,0,0,1,571.414,279.645Z" transform="translate(-569.075 -277.531)" fill="#fff"/></g></g><path d="M594.429,293.059c-1.778.37-6.516,1.784-7.014,2.019a20.99,20.99,0,0,0-3.021,2.234c-1.783,1.789-.871,2.622-1.574,5.049a1.432,1.432,0,0,0-.043.384c0,.252.342.471.686.235.186.313.737.119,1-.221,0,.242.334.4.88.093.294-.163.242-.148.923-.755a7.156,7.156,0,0,1,1.928-1.174,14.027,14.027,0,0,0,1.882-.86c.719-.473,2-.586,2.636-2.641a2.046,2.046,0,0,1,.989-.988l2.9-1.816" transform="translate(-560.319 -247.607)" fill="#ffbe9d"/><path d="M603.637,268.578c.754,2.688,3.89,21.317,3.89,21.317l-17.664,12.793,1.47,3.864s21.135-7.1,22.8-11.947,1.588-26.763-4.282-34.45c-1.868-2.447-5.613-3.682-5.613-3.682" transform="translate(-558.603 -256.472)" fill="#f1f1f1"/><path d="M586.884,298.458a11.322,11.322,0,0,0-1.234.949c-.5.532-.883,1.121-1.424,1.757" transform="translate(-559.968 -246.299)" fill="none" stroke="#f2a181" stroke-miterlimit="10" stroke-width="0.25"/><path d="M586.093,297.516a6.385,6.385,0,0,0-1.456,1.765,23.883,23.883,0,0,1-1.159,2.237" transform="translate(-560.15 -246.527)" fill="none" stroke="#f2a181" stroke-miterlimit="10" stroke-width="0.25"/><path d="M585.084,296.754c-.171.275-.9.958-1.045,1.245a11.253,11.253,0,0,0-1.006,2.876" transform="translate(-560.257 -246.712)" fill="none" stroke="#f2a181" stroke-miterlimit="10" stroke-width="0.25"/></g><path d="M598.372,248.415c-.692-.405-1.222-.832-1.673-.169-.239.352-.384.837-.791.958a.818.818,0,0,1-.927-.656,2.375,2.375,0,0,1,.153-1.246q.417-1.342.834-2.685a4.044,4.044,0,0,0,.2-2.688,2.962,2.962,0,0,0-.847-1.086,8.974,8.974,0,0,0-4.122-1.763,43.8,43.8,0,0,1-4.437-.912,4.806,4.806,0,0,1-1.689-.85,3.646,3.646,0,0,1-1.2-2.732,5.637,5.637,0,0,1,.867-2.911,4.828,4.828,0,0,0,.442,1.01,3.754,3.754,0,0,1,.809-1.267c.431,2.4,10.552,1.6,12.916,2.661,1.64.734,3,1.215,2.946,3.871a.971.971,0,0,0,.32.422,7.389,7.389,0,0,1,2.263,5.367c.224,2.949-1.493,6.141-3.177,8.572a5.468,5.468,0,0,1-1.25,1.494,3.316,3.316,0,0,1-2.352.532c-.729-.139-2.168-.077-2.181-.82-.01-.532,1.127-1.479,1.441-1.908" transform="translate(-553.959 -231.419)" fill="#12263f"/><path d="M593.415,248.063a.928.928,0,0,0,1.388,1.052,3.2,3.2,0,0,0,2.02-2.477c.239-1.276-.447-2.551-1.614-2.219a1.722,1.722,0,0,0-1.1,1.678" transform="translate(-551.651 -228.282)" fill="#ffbe9d"/><path d="M585.912,250.5l3.247.6a4.528,4.528,0,0,1-3.29,1.214" transform="translate(-553.474 -226.795)" fill="#f2a181"/></g></g><g transform="translate(502.519 -10315.304)"><g transform="translate(0 0)"><g transform="translate(2.528 15.892)"><path d="M1650.72,1291.321c-9-5.194-23.537-5.2-32.479,0s-8.892,13.618.108,18.812,23.538,5.194,32.476,0S1659.72,1296.515,1650.72,1291.321Z" transform="translate(-1611.549 -1287.424)" fill="#56e9ed"/><g transform="translate(0 13.237)"><path d="M1611.529,1330.31l-.019,7.041c-.009,3.018,1.747,6.04,5.262,8.506V1338.8C1613.269,1336.342,1611.519,1333.322,1611.529,1330.31Z" transform="translate(-1611.51 -1330.31)" fill="url(#i)"/><path d="M1642.27,1365.32v7.049a31.276,31.276,0,0,0,5.725,1.76v-7.046A30.866,30.866,0,0,1,1642.27,1365.32Z" transform="translate(-1632.776 -1354.515)" fill="url(#j)"/><path d="M1708.292,1340.08a31.559,31.559,0,0,1-13.6,3.805v7.041a31.581,31.581,0,0,0,13.584-3.805c4.442-2.58,6.664-5.957,6.673-9.339l.019-7.041C1714.959,1334.123,1712.734,1337.5,1708.292,1340.08Z" transform="translate(-1669.016 -1330.607)" fill="url(#k)"/><path d="M1630.091,1358.8q-.82-.472-1.541-.982v7.056c.476.333.978.657,1.519.969a24.924,24.924,0,0,0,2.713,1.343v-7.05A25.243,25.243,0,0,1,1630.091,1358.8Z" transform="translate(-1623.291 -1349.328)" fill="#56e9ed"/><path d="M1660.82,1371.04v7.046a38.978,38.978,0,0,0,10.454.7v-7.04A38.978,38.978,0,0,1,1660.82,1371.04Z" transform="translate(-1645.601 -1358.469)" fill="#56e9ed"/></g><g transform="translate(4.063 2.273)"><path d="M1630.6,1299.242c7.133-4.145,18.736-4.145,25.914,0,5.071,2.926,6.574,7.136,4.512,10.818,2.926-4,1.562-8.8-4.086-12.063-7.417-4.281-19.4-4.281-26.766,0-5.584,3.244-6.908,8.019-3.994,12C1624.119,1306.335,1625.585,1302.153,1630.6,1299.242Z" transform="translate(-1624.675 -1294.788)" fill="url(#l)"/><path d="M1631.6,1316.516c7.417,4.281,19.4,4.281,26.763,0a12.854,12.854,0,0,0,4-3.441c2.062-3.682.558-7.892-4.512-10.818-7.179-4.145-18.782-4.145-25.915,0-5.009,2.911-6.476,7.093-4.42,10.76A13.083,13.083,0,0,0,1631.6,1316.516Z" transform="translate(-1626.017 -1297.802)" fill="url(#m)"/></g><g transform="translate(0.022 12.734)"><path d="M1650.836,1337.658c-8.941,5.2-23.479,5.2-32.476,0-4.312-2.487-6.562-5.719-6.76-8.978-.244,3.59,2.012,7.231,6.76,9.972,9,5.195,23.538,5.195,32.476,0,4.658-2.707,6.871-6.29,6.655-9.837C1657.275,1332.032,1655.058,1335.208,1650.836,1337.658Z" transform="translate(-1611.582 -1328.68)" fill="#fff"/></g></g><g transform="translate(0 7.158)"><path d="M1642.53,1263.021c-9-5.195-23.538-5.2-32.48,0s-8.892,13.618.108,18.812,23.538,5.194,32.476,0S1651.527,1268.215,1642.53,1263.021Z" transform="translate(-1603.359 -1259.124)" fill="#56e9ed"/><g transform="translate(0 13.234)"><path d="M1603.339,1302l-.019,7.04c-.009,3.019,1.747,6.04,5.263,8.506v-7.056C1605.08,1308.031,1603.33,1305.012,1603.339,1302Z" transform="translate(-1603.32 -1302)" fill="url(#n)"/><path d="M1634.07,1337.02v7.05a31.183,31.183,0,0,0,5.725,1.759v-7.046A30.955,30.955,0,0,1,1634.07,1337.02Z" transform="translate(-1624.579 -1326.211)" fill="url(#o)"/><path d="M1700.1,1311.777a31.624,31.624,0,0,1-13.6,3.809v7.04a31.579,31.579,0,0,0,13.584-3.805c4.442-2.581,6.664-5.957,6.673-9.34l.018-7.041C1706.766,1305.82,1704.544,1309.2,1700.1,1311.777Z" transform="translate(-1660.826 -1302.304)" fill="url(#p)"/><path d="M1621.9,1330.491q-.82-.472-1.541-.981v7.056c.476.334.978.657,1.519.969a24.874,24.874,0,0,0,2.713,1.342v-7.049A23.653,23.653,0,0,1,1621.9,1330.491Z" transform="translate(-1615.1 -1321.018)" fill="#56e9ed"/><path d="M1652.62,1342.73v7.047a38.986,38.986,0,0,0,10.454.7v-7.04A38.885,38.885,0,0,1,1652.62,1342.73Z" transform="translate(-1637.403 -1330.159)" fill="#56e9ed"/></g><g transform="translate(4.063 2.27)"><path d="M1622.406,1270.932c7.133-4.145,18.736-4.145,25.914,0,5.071,2.927,6.574,7.136,4.512,10.819,2.927-4,1.562-8.8-4.086-12.062-7.417-4.281-19.4-4.281-26.766,0-5.584,3.244-6.908,8.019-3.994,12C1615.928,1278.025,1617.395,1273.843,1622.406,1270.932Z" transform="translate(-1616.485 -1266.477)" fill="url(#q)"/><path d="M1623.409,1288.216c7.417,4.281,19.4,4.281,26.763,0a12.877,12.877,0,0,0,4-3.442c2.062-3.682.559-7.892-4.513-10.818-7.179-4.146-18.781-4.146-25.914,0-5.009,2.911-6.476,7.092-4.42,10.759A13.1,13.1,0,0,0,1623.409,1288.216Z" transform="translate(-1617.827 -1269.498)" fill="url(#r)"/></g><g transform="translate(0.022 12.734)"><path d="M1642.646,1309.358c-8.942,5.195-23.48,5.195-32.477,0-4.312-2.488-6.562-5.719-6.76-8.979-.244,3.59,2.012,7.231,6.76,9.973,9,5.195,23.538,5.195,32.477,0,4.657-2.707,6.87-6.29,6.655-9.836C1649.084,1303.731,1646.868,1306.9,1642.646,1309.358Z" transform="translate(-1603.392 -1300.38)" fill="#fff"/></g></g><g transform="translate(1.494)"><path d="M1647.369,1239.83c-9-5.195-23.537-5.2-32.479,0s-8.892,13.618.108,18.813,23.538,5.195,32.476,0S1656.367,1245.025,1647.369,1239.83Z" transform="translate(-1608.199 -1235.933)" fill="#56e9ed"/><g transform="translate(0 13.237)"><path d="M1608.179,1278.82l-.019,7.041c-.01,3.018,1.747,6.039,5.263,8.506v-7.056C1609.919,1284.848,1608.169,1281.832,1608.179,1278.82Z" transform="translate(-1608.16 -1278.82)" fill="url(#s)"/><path d="M1638.91,1313.83v7.05a31.2,31.2,0,0,0,5.726,1.759v-7.047A30.992,30.992,0,0,1,1638.91,1313.83Z" transform="translate(-1629.419 -1303.024)" fill="url(#t)"/><path d="M1704.943,1288.6a31.628,31.628,0,0,1-13.6,3.809v7.04a31.588,31.588,0,0,0,13.583-3.805c4.441-2.58,6.664-5.957,6.673-9.34l.019-7.041C1711.606,1282.637,1709.384,1286.013,1704.943,1288.6Z" transform="translate(-1665.667 -1279.124)" fill="url(#u)"/><path d="M1626.74,1307.312q-.819-.472-1.54-.982v7.056c.476.333.978.657,1.519.969a24.866,24.866,0,0,0,2.713,1.342v-7.049A24.864,24.864,0,0,1,1626.74,1307.312Z" transform="translate(-1619.941 -1297.839)" fill="#56e9ed"/><path d="M1657.46,1319.55v7.047a38.981,38.981,0,0,0,10.454.7v-7.04A39.118,39.118,0,0,1,1657.46,1319.55Z" transform="translate(-1642.243 -1306.979)" fill="#56e9ed"/></g><g transform="translate(4.06 2.27)"><path d="M1627.237,1247.742c7.133-4.145,18.736-4.145,25.914,0,5.072,2.926,6.574,7.135,4.513,10.818,2.926-4,1.562-8.8-4.087-12.062-7.416-4.281-19.4-4.281-26.766,0-5.584,3.244-6.908,8.019-3.994,12C1620.761,1254.835,1622.228,1250.655,1627.237,1247.742Z" transform="translate(-1621.315 -1243.288)" fill="url(#v)"/><path d="M1628.249,1265.026c7.417,4.281,19.4,4.281,26.763,0a12.875,12.875,0,0,0,4-3.442c2.062-3.682.559-7.892-4.512-10.818-7.179-4.145-18.782-4.145-25.915,0-5.009,2.91-6.475,7.093-4.42,10.76A13.112,13.112,0,0,0,1628.249,1265.026Z" transform="translate(-1622.664 -1246.308)" fill="url(#r)"/></g><g transform="translate(0.022 12.734)"><path d="M1647.485,1286.169c-8.941,5.195-23.479,5.195-32.475,0-4.312-2.488-6.563-5.72-6.76-8.979-.244,3.59,2.012,7.232,6.76,9.972,9,5.195,23.538,5.195,32.475,0,4.658-2.707,6.871-6.29,6.654-9.836C1653.924,1280.542,1651.709,1283.715,1647.485,1286.169Z" transform="translate(-1608.232 -1277.19)" fill="#fff"/></g></g></g><path d="M1668.67,1258.986a8.9,8.9,0,0,0-7.785.461,3.564,3.564,0,0,1-2.907.083c-.895-.392-1.188-1.065-.734-1.657a3.834,3.834,0,0,1,.852-.652,3.436,3.436,0,0,0,1.29-1.386c.58-1.411-.4-2.837-2.528-3.679a9.389,9.389,0,0,0-7.041.25c-.08.043-.157.083-.234.127-2.778,1.6-2.053,4.37,1.509,5.4.472.139.972.235,1.466.34.808.173,1.438.463,1.651.969.207.485-.053.935-.58,1.24a3.668,3.668,0,0,1-2.2.362c-.423-.053-.846-.108-1.278-.136a8.389,8.389,0,0,0-4.673.917,3.985,3.985,0,0,0-1.071.87c-1.253,1.485-.469,3.29,1.852,4.265a9.283,9.283,0,0,0,7.833-.466,2.434,2.434,0,0,0,1.34-2.367,8.8,8.8,0,0,0-.291-1.031,1.023,1.023,0,0,1,.6-1.135,2.247,2.247,0,0,1,.525-.216,3.655,3.655,0,0,1,2.713.247,1.93,1.93,0,0,1,.765.805,4.686,4.686,0,0,0,2.781,2.059,9.148,9.148,0,0,0,6.96-.527,4.122,4.122,0,0,0,1.1-.892C1671.815,1261.758,1670.994,1259.915,1668.67,1258.986Z" transform="translate(-1631.317 -1246.759)" fill="#fcfdfd"/></g><g transform="translate(253.2 -10525.249)"><g transform="translate(3.83 0)"><g transform="translate(38.746 36.124)"><path d="M194.269,215.476l11.465,11.28a75.572,75.572,0,0,0,6.241,5.7,6.781,6.781,0,0,0,3.948,1.807,2.988,2.988,0,0,0,2.966-2.847,4.913,4.913,0,0,0-1.71-3.163q-9.126-9.627-19.049-18.227C196.92,211.8,195.709,213.573,194.269,215.476Z" transform="translate(-193.737 -209.493)" fill="#fff"/><path d="M215.964,234.831h0a7.2,7.2,0,0,1-4.277-1.92,76.249,76.249,0,0,1-6.287-5.738l-11.465-11.279a.533.533,0,0,1-.051-.7c1.435-1.9,2.66-3.692,3.846-5.429a.532.532,0,0,1,.788-.1c6.594,5.714,13.015,11.858,19.087,18.262a5.368,5.368,0,0,1,1.856,3.525,3.219,3.219,0,0,1-.97,2.3A3.652,3.652,0,0,1,215.964,234.831Zm-20.951-19.369,11.132,10.951a75.582,75.582,0,0,0,6.2,5.66,6.332,6.332,0,0,0,3.622,1.694h0a2.569,2.569,0,0,0,1.771-.771,2.17,2.17,0,0,0,.661-1.54,4.443,4.443,0,0,0-1.564-2.8c-5.91-6.233-12.152-12.219-18.56-17.8C197.26,212.337,196.209,213.862,195.013,215.462Z" transform="translate(-193.775 -209.531)"/></g><path d="M182.126,176.484a23.833,23.833,0,1,0,23.833,23.834A23.833,23.833,0,0,0,182.126,176.484Zm0,41.934a18.1,18.1,0,1,1,18.1-18.1A18.1,18.1,0,0,1,182.126,218.418Zm0,0a18.1,18.1,0,1,1,18.1-18.1A18.1,18.1,0,0,1,182.126,218.418Z" transform="translate(-157.762 -175.952)" fill="#fff"/><path d="M182.164,224.72a24.365,24.365,0,1,1,24.366-24.364A24.392,24.392,0,0,1,182.164,224.72Zm0-47.665a23.3,23.3,0,1,0,23.3,23.3A23.327,23.327,0,0,0,182.164,177.055Zm0,41.934A18.634,18.634,0,1,1,200.8,200.356,18.655,18.655,0,0,1,182.164,218.989ZM164.6,200.356a17.569,17.569,0,1,0,17.568-17.57A17.588,17.588,0,0,0,164.6,200.356Z" transform="translate(-157.8 -175.99)"/><g transform="translate(42.174 40.964)"><path d="M197.135,215.846a.188.188,0,0,1-.048-.006.178.178,0,0,1-.122-.22l.419-1.467a.178.178,0,0,1,.341.1l-.419,1.467A.178.178,0,0,1,197.135,215.846Z" transform="translate(-196.958 -214.024)"/></g><g transform="translate(44.179 39.861)"><path d="M199,218.495h-.023a.178.178,0,0,1-.153-.2c.223-1.714.493-3.445.8-5.148a.177.177,0,1,1,.349.064c-.308,1.7-.578,3.423-.8,5.131A.176.176,0,0,1,199,218.495Z" transform="translate(-198.82 -213.001)"/></g><g transform="translate(46.783 42.071)"><path d="M201.414,220.831a.177.177,0,0,1-.177-.178c0-.858.131-2.3.248-3.568.071-.774.132-1.442.154-1.863a.17.17,0,0,1,.185-.168.178.178,0,0,1,.169.186c-.022.428-.083,1.1-.155,1.877-.115,1.263-.247,2.694-.247,3.536A.178.178,0,0,1,201.414,220.831Z" transform="translate(-201.237 -215.052)"/></g><g transform="translate(49.31 43.865)"><path d="M203.9,223.16a.178.178,0,0,1-.178-.173l-.137-6.086a.179.179,0,0,1,.173-.182.168.168,0,0,1,.181.173l.138,6.087a.177.177,0,0,1-.173.181Z" transform="translate(-203.584 -216.718)"/></g><g transform="translate(51.746 46.27)"><path d="M206.261,225.68a.177.177,0,0,1-.177-.17l-.239-6.375a.179.179,0,0,1,.171-.184.181.181,0,0,1,.183.171l.239,6.374a.178.178,0,0,1-.17.184Z" transform="translate(-205.845 -218.951)"/></g><g transform="translate(54.243 48.959)"><path d="M208.664,227.757a.176.176,0,0,1-.177-.167l-.323-5.955a.177.177,0,1,1,.354-.019l.323,5.955a.177.177,0,0,1-.168.186Z" transform="translate(-208.164 -221.447)"/></g><g transform="translate(56.675 51.214)"><path d="M211.046,229.694a.178.178,0,0,1-.177-.164l-.447-5.8a.176.176,0,0,1,.164-.19.173.173,0,0,1,.191.163l.447,5.8a.177.177,0,0,1-.164.19Z" transform="translate(-210.421 -223.542)"/></g><g transform="translate(59.019 53.812)"><path d="M213.3,231.393a.178.178,0,0,1-.177-.159l-.522-5.085a.178.178,0,0,1,.353-.036l.522,5.084a.178.178,0,0,1-.158.195Z" transform="translate(-212.598 -225.954)"/></g><g transform="translate(61.543 56.354)"><path d="M215.487,230.941a.178.178,0,0,1-.176-.15l-.367-2.271a.178.178,0,0,1,.351-.057l.366,2.273a.178.178,0,0,1-.146.2Z" transform="translate(-214.942 -228.313)"/></g><g transform="translate(6.191 21.767)" opacity="0.129"><path d="M198.583,204.564a14.476,14.476,0,0,0-1.383,1.919,24.731,24.731,0,0,1-2.009,2.206c-.6.533-1.171,1-1.756,1.449a.918.918,0,0,0-.306.122,19.281,19.281,0,0,1-8.987,3.636,14.505,14.505,0,0,1-6.666-.083,12.824,12.824,0,0,1-4.987-2.388,26.256,26.256,0,0,1-4.151-3.935h0a15.848,15.848,0,0,1-2.208-4.432c-.3-.8-.519-1.617-.753-2.433a6.791,6.791,0,0,1-.45-2.471c-.218-.607-.418-1.224-.6-1.844a1.167,1.167,0,0,0-.563-.106,28.92,28.92,0,0,0,.039,7.385,14.584,14.584,0,0,0,3.227,6.7A21.252,21.252,0,0,0,170.5,213.3a19.582,19.582,0,0,0,5.325,2.9,19.8,19.8,0,0,0,3.248.564l.018,0a12.332,12.332,0,0,0,3.594.087,15.616,15.616,0,0,0,2.746-.6,23.762,23.762,0,0,0,5.47-1.944,14.156,14.156,0,0,0,1.266-.842,26.985,26.985,0,0,0,5.4-4.413c.29-.6.57-1.2.833-1.812.33-.911.659-1.821.982-2.735A.9.9,0,0,0,198.583,204.564Z" transform="translate(-163.548 -196.2)"/></g><g transform="translate(39.669 37.848)" opacity="0.129"><path d="M200.075,211.191c-.908-.261-1.514.371-1.961,1.062l-.061.072a21.589,21.589,0,0,1-2.321,2.028l-.017.013a2.109,2.109,0,0,0-.728.59,1.6,1.6,0,0,0,2.071,2.359,8.462,8.462,0,0,0,2.646-2.327,10.528,10.528,0,0,0,1.26-1.612A1.5,1.5,0,0,0,200.075,211.191Z" transform="translate(-194.632 -211.131)"/></g></g><g transform="translate(28.163 17.324)"><ellipse cx="5.126" cy="5.126" rx="5.126" ry="5.126" transform="translate(0.532 0.532)" fill="#eeac3a"/><path d="M186.052,203.392a5.659,5.659,0,1,1,5.659-5.659A5.665,5.665,0,0,1,186.052,203.392Zm0-10.253a4.594,4.594,0,1,0,4.593,4.595A4.6,4.6,0,0,0,186.052,193.139Z" transform="translate(-180.393 -192.075)"/></g><g transform="translate(4.424 42.3)"><path d="M158.884,225.592a.533.533,0,0,1-.4-.885c2.659-3,5.271-6.1,7.764-9.241a.532.532,0,0,1,.834.662c-2.505,3.151-5.13,6.275-7.8,9.285A.529.529,0,0,1,158.884,225.592Z" transform="translate(-158.351 -215.265)"/></g><g transform="translate(51.355 17.324)"><path d="M214.331,211.488a.542.542,0,0,1-.268-.072L202.19,204.5a.532.532,0,1,1,.536-.92l11.392,6.636,9.32-17.855a.532.532,0,0,1,.943.493L214.8,211.2a.53.53,0,0,1-.472.285Z" transform="translate(-201.926 -192.075)"/></g><g transform="translate(0 49.874)"><path d="M154.738,226.074a3.283,3.283,0,1,1,3.283,3.283A3.282,3.282,0,0,1,154.738,226.074Z" transform="translate(-154.206 -222.259)" fill="#fff"/><path d="M158.059,229.927a3.815,3.815,0,1,1,3.815-3.815A3.819,3.819,0,0,1,158.059,229.927Zm0-6.566a2.75,2.75,0,1,0,2.75,2.751A2.754,2.754,0,0,0,158.059,223.361Z" transform="translate(-154.244 -222.297)"/></g><g transform="translate(70.981 10.758)"><path d="M220.643,189.756a3.283,3.283,0,1,1,3.283,3.283A3.283,3.283,0,0,1,220.643,189.756Z" transform="translate(-220.111 -185.941)" fill="#fff"/><path d="M223.964,193.609a3.815,3.815,0,1,1,3.815-3.815A3.819,3.819,0,0,1,223.964,193.609Zm0-6.564a2.75,2.75,0,1,0,2.75,2.75A2.753,2.753,0,0,0,223.964,187.044Z" transform="translate(-220.149 -185.979)"/></g><g transform="translate(59.945 32.39)"><path d="M210.4,209.841a3.283,3.283,0,1,1,3.283,3.283A3.283,3.283,0,0,1,210.4,209.841Z" transform="translate(-209.864 -206.026)" fill="#fff"/><path d="M213.717,213.694a3.815,3.815,0,1,1,3.815-3.815A3.819,3.819,0,0,1,213.717,213.694Zm0-6.566a2.75,2.75,0,1,0,2.751,2.751A2.753,2.753,0,0,0,213.717,207.128Z" transform="translate(-209.902 -206.064)"/></g><g transform="translate(19.51 26.426)"><path d="M172.891,214.394a.532.532,0,0,1-.418-.862l10.089-12.8a.533.533,0,0,1,.837.659l-10.09,12.8A.529.529,0,0,1,172.891,214.394Z" transform="translate(-172.359 -200.526)"/></g><g transform="translate(37.645 25.242)"><path d="M196.643,204.741a.533.533,0,0,1-.278-.079l-6.914-4.25a.532.532,0,0,1,.557-.907l6.914,4.249a.533.533,0,0,1-.279.987Z" transform="translate(-189.197 -199.427)"/></g></g></g></svg>