<svg xmlns="http://www.w3.org/2000/svg" width="278.601" height="245.709" viewBox="0 0 278.601 245.709"><g transform="translate(4187.045 8877.709)"><g transform="translate(-4187.045 -8845.578)"><rect width="130.854" height="63.659" transform="translate(6.359 6.759)" fill="#fff"/><g transform="translate(0)"><g transform="translate(0)"><g transform="translate(0)"><path d="M161.159,3778.716q29.253,0,58.507.008c6.343.008,10.671,4.138,10.793,10.479.13,6.737.028,13.479.028,20.22,0,11.492.033,22.982-.013,34.475-.027,6.835-4.4,11.108-11.256,11.109q-51.88.01-103.759,0c-4.365,0-8.729.033-13.094.021-6.545-.017-10.994-4.338-11.01-10.834-.046-17.957.006-35.914-.068-53.869-.019-4.512,1.357-8.243,5.486-10.324a13.6,13.6,0,0,1,5.878-1.278c19.5-.091,39.005-.054,58.508-.054Zm-61.033,7.834v61.584H222.271V3786.55Z" transform="translate(-91.287 -3778.662)" fill="#12263f"/><path d="M144.922,4022.149c.2,2.748.826,3.346,3.473,3.347q14.006.01,28.012,0c2.865,0,3.457-.535,3.763-3.442q9.674,0,19.369,0,14.006.006,28.012.021c3.756.006,6.386,2.514,6.428,6.088a6,6,0,0,1-6.218,6.3c-4.087.072-8.176-.019-12.264-.016q-26.519.012-53.038.037-31.326,0-62.652-.047c-3.144,0-5.258-1.38-6.246-3.963a5.867,5.867,0,0,1,1.777-6.878,6.753,6.753,0,0,1,3.724-1.478c15.083-.1,30.166-.063,45.25-.06A5.217,5.217,0,0,1,144.922,4022.149Z" transform="translate(-92.516 -3941.349)" fill="#12263f"/></g></g><g transform="translate(-1420.526 -5704.974)"><path d="M1490.364,5726.66c7.03.121,12.948.59,18.631,2.561a36.252,36.252,0,0,1,4.41,2.077,5.051,5.051,0,0,1,1.194.96c1.665,1.654,1.631,3.5-.084,5.12a13.193,13.193,0,0,1-4.439,2.589,44.265,44.265,0,0,1-11.429,2.52,67.511,67.511,0,0,1-11.525.254c-5.438-.362-10.824-1.039-15.842-3.349a13.73,13.73,0,0,1-3.2-2.086c-1.694-1.461-1.694-3.345-.133-4.946a12.938,12.938,0,0,1,4.906-2.875,41.765,41.765,0,0,1,10.755-2.357C1486.208,5726.872,1488.819,5726.763,1490.364,5726.66Z" transform="translate(-0.048 0)" fill="#12263f"/><path d="M1515.775,5892.984c0,2.073.054,4.1-.019,6.126a3.833,3.833,0,0,1-1.821,2.779,17.454,17.454,0,0,1-5.7,2.744,50.612,50.612,0,0,1-11.673,2.063,68.4,68.4,0,0,1-17-.8,29.465,29.465,0,0,1-9.339-2.986,13.721,13.721,0,0,1-2.484-1.9,3.156,3.156,0,0,1-.966-2.466c.025-1.84.007-3.68.007-5.637.371.264.661.477.958.679a25.775,25.775,0,0,0,9.384,3.646,69.754,69.754,0,0,0,26.339.409,31.8,31.8,0,0,0,9.758-3.072C1514.075,5894.112,1514.874,5893.547,1515.775,5892.984Z" transform="translate(-0.026 -142.977)" fill="#12263f"/><path d="M1515.75,5817.622c0,1.9.062,3.93-.022,5.952a4,4,0,0,1-2.026,2.958,20.689,20.689,0,0,1-7.421,3.135,64.853,64.853,0,0,1-20.557,1.479,46.865,46.865,0,0,1-12.914-2.555,13.269,13.269,0,0,1-4.861-2.816,3.732,3.732,0,0,1-1.207-2.868c.039-1.809.01-3.618.01-5.573a19.888,19.888,0,0,0,6.982,3.513,41.8,41.8,0,0,0,9.307,1.836c3.575.267,7.172.483,10.753.405a48.833,48.833,0,0,0,17.186-3.042C1512.629,5819.393,1514.159,5818.44,1515.75,5817.622Z" transform="translate(0 -77.982)" fill="#12263f"/></g></g></g><g transform="translate(-3975.091 -8845.578)"><rect width="48.899" height="74.786" transform="translate(3.824 6.959)" fill="#fff"/><path d="M1751.5,5318.885q0,19.637-.007,39.274c-.007,5.392-1.555,6.924-6.966,6.932q-20.769.025-41.539.012c-5.061,0-6.857-1.784-6.86-6.818q-.024-39.561-.016-79.119c0-5.623,1.624-7.2,7.314-7.2q20.633-.009,41.267,0c5.163,0,6.794,1.547,6.812,6.792.045,13.376.014,26.752.014,40.128Zm-6.173-39.311h-43.5v73.774h43.5Zm-17.08,79.364a4.641,4.641,0,0,0-4.716-4.368,4.35,4.35,0,0,0-4.3,4.661,4.5,4.5,0,0,0,4.452,4.271A4.7,4.7,0,0,0,1728.247,5358.938Zm-12.662-84.129-.011.705h17.386v-.705Z" transform="translate(-1696.11 -5271.963)" fill="#12263f"/></g><path d="M23,0,46,40H0Z" transform="translate(-3988 -8827) rotate(90)" fill="#1565c0"/><g transform="translate(-5709.88 -14725.98)"><g transform="translate(1568.318 5848.271)"><path d="M1618.817,5859.472a14.037,14.037,0,0,0-1.127-1.417,35.009,35.009,0,0,0-43.279-4.171,53.549,53.549,0,0,0-5.722,4.6,1.682,1.682,0,0,0-.308,1.513,1.5,1.5,0,0,0,1.258.688c.456-.046.907-.513,1.286-.874a32.529,32.529,0,0,1,42.919-1.73c.9.729,1.7,1.587,2.621,2.284a1.615,1.615,0,0,0,1.31.212C1618.156,5860.443,1618.4,5859.937,1618.817,5859.472Zm-26.458-3.621c-1.1.148-3.2.3-5.236.735a27.374,27.374,0,0,0-13.349,7.2c-.972.933-.971,2.1.055,2.326a2.432,2.432,0,0,0,1.833-.629,25.614,25.614,0,0,1,35.37-.021c.7.647,1.4,1.29,2.278.426.906-.893.231-1.6-.459-2.242C1607.362,5858.517,1600.851,5855.953,1592.359,5855.851Zm1.492,10.209c.556.056,1.541.1,2.5.265a17.308,17.308,0,0,1,9.046,4.556c.96.9,2.1.8,2.3-.25a2.209,2.209,0,0,0-.7-1.676,19.414,19.414,0,0,0-17.518-5.054,18.841,18.841,0,0,0-9.908,5.2c-.931.912-.838,2.048.245,2.3a2.153,2.153,0,0,0,1.589-.595A17.891,17.891,0,0,1,1593.852,5866.06Zm-.5,4.626a8.814,8.814,0,0,0-6.3,2.484c-.59.548-.872,1.168-.26,1.864.628.713,1.248.6,1.972.023,3.163-2.514,6.14-2.525,9.21-.037.7.566,1.32.771,1.977.061.681-.735.364-1.38-.271-1.961A8.861,8.861,0,0,0,1593.348,5870.686Z" transform="translate(-1568.318 -5848.271)" fill="#12263f"/><path d="M1618.817,5859.472c-.413.465-.661.972-1.041,1.107a1.615,1.615,0,0,1-1.31-.212c-.923-.7-1.721-1.554-2.621-2.284a32.529,32.529,0,0,0-42.919,1.73c-.379.361-.83.828-1.286.874a1.5,1.5,0,0,1-1.258-.688,1.682,1.682,0,0,1,.308-1.513,53.549,53.549,0,0,1,5.722-4.6,35.009,35.009,0,0,1,43.279,4.171A14.037,14.037,0,0,1,1618.817,5859.472Z" transform="translate(-1568.318 -5848.271)" fill="#12263f"/><path d="M1605.3,5876.558c8.492.1,15,2.667,20.491,7.8.69.645,1.365,1.349.459,2.242-.877.865-1.58.222-2.278-.426a25.614,25.614,0,0,0-35.37.022,2.434,2.434,0,0,1-1.833.629c-1.026-.224-1.027-1.394-.055-2.326a27.375,27.375,0,0,1,13.349-7.2C1602.1,5876.854,1604.2,5876.707,1605.3,5876.558Z" transform="translate(-1581.256 -5868.979)" fill="#12263f"/><path d="M1622.881,5907.7a17.891,17.891,0,0,0-12.438,4.738,2.155,2.155,0,0,1-1.589.595c-1.083-.249-1.176-1.385-.245-2.3a18.837,18.837,0,0,1,9.908-5.195,19.411,19.411,0,0,1,17.518,5.053,2.21,2.21,0,0,1,.7,1.675c-.2,1.053-1.342,1.15-2.3.251a17.308,17.308,0,0,0-9.046-4.556C1624.421,5907.8,1623.437,5907.757,1622.881,5907.7Z" transform="translate(-1597.347 -5889.913)" fill="#12263f"/><path d="M1642.868,5931.921a8.866,8.866,0,0,1,6.324,2.435c.635.581.952,1.226.271,1.961-.657.71-1.279.5-1.977-.061-3.07-2.489-6.048-2.478-9.21.036-.724.575-1.344.69-1.972-.023-.612-.7-.33-1.316.26-1.864A8.819,8.819,0,0,1,1642.868,5931.921Z" transform="translate(-1617.838 -5909.508)" fill="#12263f"/></g></g><g transform="translate(-5357.988 -14639.923)"><g transform="translate(1201.898 5898.189)"><path d="M1281.453,6470.273v29.311H1201.9v-29.4a.718.718,0,0,0,.071-.187c.062-.759.109-1.52.177-2.278a41.581,41.581,0,0,1,1.481-7.771,42.825,42.825,0,0,1,7.575-14.888,40.761,40.761,0,0,1,9.22-8.586c.252-.17.354-.035.5.1a30.45,30.45,0,0,0,4.6,3.419,30.9,30.9,0,0,0,13.779,4.445,30.9,30.9,0,0,0,23.173-7.918.339.339,0,0,1,.509-.034,39.956,39.956,0,0,1,7.6,6.676,41.388,41.388,0,0,1,6.657,10.136,44.163,44.163,0,0,1,4.041,15.234C1281.334,6469.114,1281.4,6469.693,1281.453,6470.273Z" transform="translate(-1201.898 -6389.85)" fill="#1565c0"/><path d="M1415.59,5898.189q.928.125,1.856.248a21.962,21.962,0,0,1,6.38,1.861,23.305,23.305,0,0,1,11.435,11.219,23.512,23.512,0,0,1-.961,22.083,23.429,23.429,0,0,1-38.189,3.091,22.937,22.937,0,0,1-4.543-8.583,23.5,23.5,0,0,1,5.707-22.757,22.941,22.941,0,0,1,11.4-6.512c1.223-.292,2.493-.388,3.74-.577a1.478,1.478,0,0,0,.23-.073Z" transform="translate(-1374.342 -5898.189)" fill="#1565c0"/></g><text transform="translate(1230.988 5931.923)" fill="#fff" font-size="32" font-family="Roboto-Bold, Roboto" font-weight="700"><tspan x="0" y="0">A</tspan></text></g><g transform="translate(-5189.898 -14639.923)"><g transform="translate(1201.898 5898.189)"><path d="M1281.453,6470.273v29.311H1201.9v-29.4a.718.718,0,0,0,.071-.187c.062-.759.109-1.52.177-2.278a41.581,41.581,0,0,1,1.481-7.771,42.825,42.825,0,0,1,7.575-14.888,40.761,40.761,0,0,1,9.22-8.586c.252-.17.354-.035.5.1a30.45,30.45,0,0,0,4.6,3.419,30.9,30.9,0,0,0,13.779,4.445,30.9,30.9,0,0,0,23.173-7.918.339.339,0,0,1,.509-.034,39.956,39.956,0,0,1,7.6,6.676,41.388,41.388,0,0,1,6.657,10.136,44.163,44.163,0,0,1,4.041,15.234C1281.334,6469.114,1281.4,6469.693,1281.453,6470.273Z" transform="translate(-1201.898 -6389.85)" fill="#afafaf"/><path d="M1415.59,5898.189q.928.125,1.856.248a21.962,21.962,0,0,1,6.38,1.861,23.305,23.305,0,0,1,11.435,11.219,23.512,23.512,0,0,1-.961,22.083,23.429,23.429,0,0,1-38.189,3.091,22.937,22.937,0,0,1-4.543-8.583,23.5,23.5,0,0,1,5.707-22.757,22.941,22.941,0,0,1,11.4-6.512c1.223-.292,2.493-.388,3.74-.577a1.478,1.478,0,0,0,.23-.073Z" transform="translate(-1374.342 -5898.189)" fill="#afafaf"/></g><text transform="translate(1230.988 5931.923)" fill="#fff" font-size="32" font-family="Roboto-Bold, Roboto" font-weight="700"><tspan x="0" y="0">B</tspan></text></g></g></svg>