<svg xmlns="http://www.w3.org/2000/svg" width="334.39" height="189.105" viewBox="0 0 334.39 189.105"><g transform="translate(4225.657 7759.803)"><g transform="translate(-4121.3 -7785.354)"><path d="M281.557,309.225c0,8.721-.056,17.442.036,26.162a5.309,5.309,0,0,1-2.987,5.188q-22.938,13.158-45.8,26.453a4.478,4.478,0,0,1-4.9.03q-23.05-13.367-46.138-26.666a5.057,5.057,0,0,1-2.687-4.947q.052-26.564-.029-53.129a4.334,4.334,0,0,1,2.347-4.108c15.167-8.721,30.345-17.423,45.461-26.234a6.093,6.093,0,0,1,6.893-.031q22.669,13.222,45.459,26.236a4.454,4.454,0,0,1,2.4,4.28c-.041,8.922-.018,17.844-.018,26.765ZM190.995,281.8c.572.391.782.557,1.012.689,12.355,7.141,24.7,14.3,37.1,21.364a3.2,3.2,0,0,0,2.668-.126q18.246-10.406,36.4-20.963c.433-.25.827-.567,1.351-.931a9.666,9.666,0,0,0-.776-.58c-12.417-7.172-24.825-14.361-37.288-21.451a3.217,3.217,0,0,0-2.656.212c-10.368,5.9-20.69,11.873-31.021,17.834C195.606,279.106,193.43,280.381,190.995,281.8Zm-4.108,6.918v2.42c0,13.683.027,27.367-.041,41.05a3.122,3.122,0,0,0,1.811,3.158c11.987,6.851,23.932,13.776,35.893,20.673.493.284,1.028.5,1.658.795a8.583,8.583,0,0,0,.137-.978c.006-14.354.027-28.708-.052-43.062a2.987,2.987,0,0,0-1.383-2.055c-7.1-4.191-14.249-8.292-21.389-12.413C198.131,295.193,192.739,292.089,186.887,288.716Zm86.9.072c-1.047.565-1.741.918-2.415,1.307-11.783,6.8-23.551,13.628-35.364,20.378a2.935,2.935,0,0,0-1.724,2.971c.061,13.75.036,27.5.041,41.252,0,.641.056,1.283.1,2.14.546-.24.912-.362,1.238-.55,12.308-7.1,24.623-14.19,36.883-21.372a3.229,3.229,0,0,0,1.191-2.392c.1-6.5.053-13.012.053-19.519Z" transform="translate(-155.035 -225.339)" fill="#12263f"/><path d="M208.707,294.715c2.436-1.417,4.611-2.691,6.8-3.952,10.331-5.961,20.653-11.938,31.021-17.834a3.217,3.217,0,0,1,2.656-.212c12.463,7.091,24.871,14.279,37.288,21.451a9.67,9.67,0,0,1,.776.58c-.524.364-.918.68-1.351.93q-18.185,10.511-36.4,20.963a3.2,3.2,0,0,1-2.668.126c-12.4-7.064-24.745-14.223-37.1-21.364C209.489,295.271,209.279,295.106,208.707,294.715Z" transform="translate(-172.747 -238.256)" fill="#1565c0"/><path d="M198.443,344.836c5.852,3.373,11.244,6.477,16.633,9.587,7.139,4.121,14.291,8.223,21.389,12.413a2.987,2.987,0,0,1,1.383,2.055c.079,14.354.058,28.708.052,43.062a8.581,8.581,0,0,1-.136.978c-.63-.3-1.165-.511-1.658-.795-11.961-6.9-23.906-13.822-35.893-20.673a3.121,3.121,0,0,1-1.811-3.158c.068-13.683.04-27.366.041-41.05Z" transform="translate(-166.591 -281.459)" fill="#1565c0"/><path d="M355.718,345.015V369.23c0,6.506.043,13.014-.053,19.519a3.229,3.229,0,0,1-1.19,2.392c-12.26,7.182-24.576,14.27-36.883,21.372-.326.188-.691.31-1.238.55-.04-.856-.1-1.5-.1-2.14-.006-13.751.019-27.5-.041-41.252a2.935,2.935,0,0,1,1.724-2.971c11.812-6.75,23.581-13.577,35.364-20.378C353.977,345.933,354.671,345.58,355.718,345.015Z" transform="translate(-236.969 -281.566)" fill="#1565c0"/></g><g transform="translate(0 6)"><path d="M-4091.393-7420.458l44.961-27.255v-54.339l-44.961,26.62Z" transform="translate(107 -198.979)" fill="#bfe5f9" stroke="#707070" stroke-width="1"/><path d="M-4046-7502.052l46.721,26.406L-4046-7448.93l-45.534-26.716Z" transform="translate(107 -198.979)" fill="none" stroke="#707070" stroke-width="1"/><path d="M-3999.279-7475.491v56.259l-46.43,25.617V-7448.3Z" transform="translate(107 -198.979)" fill="none" stroke="#707070" stroke-width="1"/><path d="M-4091.534-7475.491l45.727,26.783v54.826l-45.727-26.409Z" transform="translate(107 -198.979)" fill="none" stroke="#707070" stroke-width="1"/><path d="M-4046.432-7448.93v-53.453l-45.429,27.832v55.109Z" transform="translate(107 -198.979)" fill="none" stroke="#12263f" stroke-width="1"/><path d="M-3999.279-7478.005l-47.829,27.132" transform="translate(107 -196.465)" fill="none" stroke="#12263f" stroke-width="1"/></g><g transform="translate(-12746.192 -8051.565) rotate(120)"><path d="M-4091.393-7420.458l44.961-27.255v-54.339l-44.961,26.62Z" transform="translate(107 -198.979)" fill="#bfe5f9" stroke="#707070" stroke-width="1"/><path d="M-4046-7502.052l46.721,26.406L-4046-7448.93l-45.534-26.716Z" transform="translate(107 -198.979)" fill="none" stroke="#707070" stroke-width="1"/><path d="M-3999.279-7475.491v56.259l-46.43,25.617V-7448.3Z" transform="translate(107 -198.979)" fill="none" stroke="#707070" stroke-width="1"/><path d="M-4091.534-7475.491l45.727,26.783v54.826l-45.727-26.409Z" transform="translate(107 -198.979)" fill="none" stroke="#707070" stroke-width="1"/><path d="M-4046.432-7448.93v-53.453l-45.429,27.832v55.109Z" transform="translate(107 -198.979)" fill="none" stroke="#12263f" stroke-width="1"/><path d="M-3999.279-7478.005l-47.829,27.132" transform="translate(107 -196.465)" fill="none" stroke="#12263f" stroke-width="1"/></g><path d="M-4107.081-7664.957l12.1-8.334" fill="none" stroke="#12263f" stroke-width="1"/><path d="M-4107.081-7664.957l12.1-8.334" transform="translate(-8582.635 -286.118) rotate(60)" fill="none" stroke="#12263f" stroke-width="1"/><g transform="translate(-4068.33 -7731.203)"><g transform="translate(1.142 4.825)"><g transform="translate(1.311 0.102)"><path d="M615.889,237.453a18.424,18.424,0,1,1-18.718-18.209A18.491,18.491,0,0,1,615.889,237.453Zm-27.23.439a8.809,8.809,0,1,0,8.667-8.991A8.838,8.838,0,0,0,588.659,237.892Z" transform="translate(-579.043 -219.241)" fill="#f5f5f5"/></g><g transform="translate(19.44 0.102)"><path d="M634.806,237.453a18.491,18.491,0,0,1-18.126,18.8l-.155-9.658a8.85,8.85,0,0,0-.283-17.7l-.155-9.658A18.485,18.485,0,0,1,634.806,237.453Z" transform="translate(-616.088 -219.241)" fill="#455a64"/></g><g transform="translate(1.187)"><g transform="translate(0.125 0.102)"><path d="M615.889,237.453a18.424,18.424,0,1,1-18.718-18.209A18.491,18.491,0,0,1,615.889,237.453Zm-27.23.439a8.809,8.809,0,1,0,8.667-8.991A8.838,8.838,0,0,0,588.659,237.892Z" transform="translate(-579.043 -219.241)" fill="none"/></g><g transform="translate(9.733 9.661)"><path d="M598.685,247.867a.594.594,0,0,1-.008-.143c0-.109,0-.248,0-.421a4.042,4.042,0,0,1,.046-.683,6.241,6.241,0,0,1,.153-.923,8.4,8.4,0,0,1,.917-2.393,8.832,8.832,0,0,1,10.61-4.045,8.363,8.363,0,0,1,2.282,1.184,9.946,9.946,0,0,1,1.027.849,10.129,10.129,0,0,1,.892,1.024,8.929,8.929,0,0,1,.17,10.587,8.248,8.248,0,0,1-1.858,1.934,8.364,8.364,0,0,1-2.243,1.257,8.857,8.857,0,0,1-10.734-3.7,8.38,8.38,0,0,1-.992-2.363,6.286,6.286,0,0,1-.183-.918,4.045,4.045,0,0,1-.068-.681c-.006-.173-.011-.312-.015-.421a.592.592,0,0,1,0-.143,13.827,13.827,0,0,0,.358,2.138,8.483,8.483,0,0,0,1.018,2.314,8.784,8.784,0,0,0,2.264,2.445,8.635,8.635,0,0,0,8.265,1.11,8.167,8.167,0,0,0,2.179-1.231,9.652,9.652,0,0,0,.97-.86,9.855,9.855,0,0,0,.833-1.026,8.7,8.7,0,0,0-.166-10.292,8,8,0,0,0-1.862-1.826,8.151,8.151,0,0,0-2.217-1.159,8.634,8.634,0,0,0-8.224,1.377,8.776,8.776,0,0,0-2.184,2.517,8.483,8.483,0,0,0-.944,2.345A13.834,13.834,0,0,0,598.685,247.867Z" transform="translate(-598.677 -238.774)" fill="#263238"/></g><path d="M615.759,237.346s-.015-.1-.033-.3l-.071-.875c-.015-.193-.031-.408-.049-.645s-.083-.491-.129-.769a13.453,13.453,0,0,0-.414-1.9,17.721,17.721,0,0,0-2.116-4.866,18.4,18.4,0,0,0-4.743-5.151,18.2,18.2,0,0,0-7.771-3.327,16.991,16.991,0,0,0-2.324-.233c-.4-.007-.8-.04-1.2-.027l-1.213.083c-.2.018-.409.019-.612.051l-.61.1c-.407.075-.822.129-1.23.223a20.024,20.024,0,0,0-4.8,1.861c-.381.221-.75.47-1.128.705a9.645,9.645,0,0,0-1.091.785,20.493,20.493,0,0,0-2.044,1.81l-.913,1.044-.23.262-.2.284-.409.57-.412.572-.357.611-.358.614-.18.308-.15.324-.6,1.3-.474,1.367a18.244,18.244,0,0,0,.184,11.572l.517,1.351.641,1.284.16.32.189.3.378.6.376.6.43.559.428.556.213.277.238.255.946,1.014a20.387,20.387,0,0,0,2.1,1.744,9.565,9.565,0,0,0,1.116.749c.386.223.762.461,1.15.669a19.954,19.954,0,0,0,4.862,1.7c.412.081.828.121,1.237.184l.613.085c.2.024.41.019.614.03l1.215.044c.4,0,.8-.046,1.2-.066a16.973,16.973,0,0,0,2.316-.308,18.206,18.206,0,0,0,7.659-3.578,18.4,18.4,0,0,0,4.575-5.3,17.727,17.727,0,0,0,1.958-4.931,13.563,13.563,0,0,0,.353-1.91c.037-.279.084-.536.1-.773s.02-.452.028-.645c.019-.379.033-.67.043-.877s.023-.3.023-.3.005.1,0,.3-.01.5-.018.879c-.005.195-.01.411-.016.649s-.06.5-.093.777a13.165,13.165,0,0,1-.331,1.924,17.628,17.628,0,0,1-1.931,4.979,18.563,18.563,0,0,1-12.315,9.015,17.191,17.191,0,0,1-2.342.319c-.4.022-.8.068-1.21.069l-1.23-.041c-.206-.011-.414,0-.621-.029l-.621-.085c-.414-.062-.836-.1-1.253-.183a20.184,20.184,0,0,1-4.928-1.718c-.393-.21-.775-.45-1.167-.675a9.756,9.756,0,0,1-1.132-.758A20.557,20.557,0,0,1,584.422,251l-.961-1.026-.241-.258-.216-.28-.434-.563-.436-.566-.382-.607-.383-.61-.192-.306-.163-.324-.651-1.3q-.262-.683-.526-1.37a18.468,18.468,0,0,1-.186-11.731l.481-1.385.609-1.321.152-.328.182-.312.363-.622.363-.619.418-.579.415-.576.207-.287.233-.266.927-1.057a20.529,20.529,0,0,1,2.073-1.831,9.689,9.689,0,0,1,1.107-.794c.384-.238.757-.489,1.144-.713a19.513,19.513,0,0,1,2.4-1.107,19.3,19.3,0,0,1,2.465-.768c.414-.095.834-.148,1.246-.224l.618-.1c.205-.032.414-.033.62-.05l1.228-.081c.407-.012.81.022,1.211.03a17.139,17.139,0,0,1,2.351.243,18.556,18.556,0,0,1,12.6,8.612,17.6,17.6,0,0,1,2.09,4.915,13.162,13.162,0,0,1,.393,1.912c.042.279.094.536.117.774s.026.453.037.647c.02.38.035.671.046.878S615.759,237.346,615.759,237.346Z" transform="translate(-578.788 -219.033)" fill="#263238"/></g><g transform="translate(0 17.327)"><g transform="translate(0.131 0.126)"><path d="M598.186,275.848a21.051,21.051,0,0,1-21.555-20.97l11.247-.181c.091,5.708,4.435,9.3,10.117,9.21Z" transform="translate(-576.631 -254.697)" fill="#fffae7"/></g><path d="M598.049,275.717a2.068,2.068,0,0,1-.014-.222l-.02-.63c-.015-.563-.036-1.368-.062-2.395-.045-2.075-.11-5.046-.19-8.693l.1.093a12.565,12.565,0,0,1-3.384-.414,9.683,9.683,0,0,1-3.354-1.633,8.719,8.719,0,0,1-2.543-3.1,9.8,9.8,0,0,1-.961-4.153l.125.121-8.709.144-2.538.041.125-.129a23.6,23.6,0,0,0,1.146,6.652l.57,1.518c.212.49.463.958.688,1.43a11.015,11.015,0,0,0,.766,1.349,12.481,12.481,0,0,0,.833,1.266l.9,1.175c.314.37.652.711.97,1.06l.479.514.518.459,1.012.893a21.629,21.629,0,0,0,4.172,2.574l1,.461c.332.129.664.234.981.348l.928.323c.3.1.606.153.893.228l.836.2.395.1c.13.024.26.038.385.057l1.377.194a8.635,8.635,0,0,0,1.1.088l.808.041.5.028a1.665,1.665,0,0,1,.179.015,1.078,1.078,0,0,1-.161,0l-.5,0-.819-.013a7.959,7.959,0,0,1-1.12-.064l-1.387-.174c-.127-.017-.257-.029-.389-.052l-.4-.091-.844-.193c-.29-.072-.6-.126-.9-.22l-.938-.317c-.321-.112-.656-.215-.991-.343l-1.008-.457a21.627,21.627,0,0,1-4.226-2.571l-1.027-.9-.525-.461-.486-.517c-.322-.351-.665-.695-.984-1.067l-.91-1.185a12.694,12.694,0,0,1-.847-1.277,11.229,11.229,0,0,1-.779-1.362c-.23-.477-.484-.95-.7-1.446l-.579-1.534a23.724,23.724,0,0,1-1.167-6.726l0-.127.129,0,2.537-.042,8.709-.137.124,0,0,.124a9.583,9.583,0,0,0,.928,4.053,8.508,8.508,0,0,0,2.466,3.028,9.495,9.495,0,0,0,3.272,1.61,12.416,12.416,0,0,0,3.326.426h.095v.093c.038,3.672.068,6.663.09,8.753.006,1.018.011,1.815.014,2.374,0,.259,0,.462,0,.613A1.5,1.5,0,0,1,598.049,275.717Z" transform="translate(-576.363 -254.44)" fill="#fffae7"/></g></g><g transform="translate(0 0)"><ellipse cx="22.33" cy="22.57" rx="22.33" ry="22.57" transform="translate(0 0)" fill="#12263f"/><path d="M31.8,1141.19v-2.825h4.257v-2.83h2.273v2.816h2.151v-2.814h2.287v.184c0,.867,0,1.733,0,2.6,0,.12.032.165.157.187a6.506,6.506,0,0,1,3.194,1.384,4.837,4.837,0,0,1,1.708,3.243,5.57,5.57,0,0,1-.373,2.894,4.594,4.594,0,0,1-1.117,1.561l-.162.151c.189.133.375.252.549.387a5.1,5.1,0,0,1,2,3.73,6.841,6.841,0,0,1-.441,3.247,5.156,5.156,0,0,1-3.2,2.967,8.823,8.823,0,0,1-2.152.477c-.124.012-.164.048-.163.175.005.846,0,1.692,0,2.538v.2H40.485v-2.82H38.337v2.821H36.053v-2.832H31.8c0-.065-.011-.109-.011-.155,0-.835,0-1.671,0-2.507,0-.125.03-.169.162-.167.5.008.99,0,1.485,0a.711.711,0,0,0,.769-.773q0-6.537,0-13.075a.7.7,0,0,0-.76-.762Zm6.548,13.728h.178c1.109,0,2.218,0,3.326-.017a5.006,5.006,0,0,0,1.506-.235,1.949,1.949,0,0,0,1.479-1.632,5.521,5.521,0,0,0,.013-1.124,1.8,1.8,0,0,0-1.368-1.712,6.682,6.682,0,0,0-1.891-.263c-1.057-.02-2.114-.011-3.172-.014a.45.45,0,0,0-.072.011Zm0-8.719a.71.71,0,0,0,.084.011c1.077-.006,2.155,0,3.232-.021a4.337,4.337,0,0,0,1.482-.268,1.35,1.35,0,0,0,.854-.855,2.832,2.832,0,0,0,.119-1.3,2.645,2.645,0,0,0-.212-.782,1.477,1.477,0,0,0-1.143-.76,9.5,9.5,0,0,0-1.484-.173c-.968-.028-1.937-.013-2.906-.015,0,0-.009,0-.025.01Z" transform="translate(-17.368 -1126.496)" fill="#fff"/></g></g></g></svg>