<svg xmlns="http://www.w3.org/2000/svg" width="93" height="94" viewBox="0 0 93 94">
  <g id="Grupo_948869" data-name="Grupo 948869" transform="translate(0.275 -0.334)">
    <ellipse id="Elipse_4870" data-name="Elipse 4870" cx="46.5" cy="47" rx="46.5" ry="47" transform="translate(-0.275 0.334)" fill="#f8805c"/>
    <g id="Y4iiH9.tif" transform="translate(33.311 -1802.892)">
      <g id="Grupo_948872" data-name="Grupo 948872" transform="translate(-17.586 1817.722)">
        <path id="Trazado_622817" data-name="Trazado 622817" d="M3.493,2227.206c-.572-.33-1.134-.677-1.716-.987q-6.853-3.647-13.72-7.268a3.125,3.125,0,0,0-1.327-.318c-1.424-.04-2.85-.015-4.316-.015v-2.142a22.735,22.735,0,0,0,2.455-.014,9.776,9.776,0,0,1,6.023,1.475c4.239,2.379,8.572,4.592,12.872,6.861a1.981,1.981,0,0,0,.875.253q8.984.022,17.968.01c.088,0,.176-.012.329-.024a4.552,4.552,0,0,0-1.106-2.374,5.246,5.246,0,0,0-4.123-1.895c-1.4-.018-2.806,0-4.246,0v-2.142c.537,0,1.086-.023,1.633,0a28.651,28.651,0,0,1,4.721.312,7.252,7.252,0,0,1,5.417,6.786,1.539,1.539,0,0,1-.676,1.482Z" transform="translate(17.586 -2162.811)" fill="#12263f"/>
        <path id="Trazado_622818" data-name="Trazado 622818" d="M125.841,1972.741H122.9c-1.476,0-2.951,0-4.427,0-.817,0-1.218-.38-1.22-1.167q-.012-4.192,0-8.384a1.038,1.038,0,0,1,1.147-1.171c1.023-.013,2.046,0,3.1,0v2.119h-2.071v6.467h2.689c1.543,0,3.085,0,4.628,0,.847,0,1.225.381,1.227,1.229.006,2.191,0,4.382,0,6.573v.75h6.445v-.706q0-3.219,0-6.438c0-1.076.326-1.408,1.384-1.409,2.368,0,4.736,0,7.152,0v-6.445h-.708q-3.253,0-6.506,0c-.97,0-1.321-.357-1.322-1.337,0-2.388,0-4.776,0-7.206h-6.445v2.95c0,1.453,0,2.906,0,4.359,0,.847-.382,1.226-1.224,1.233-1,.008-2,0-3.03,0v-2.125h2.114v-.789c0-2.191,0-4.382,0-6.573,0-.852.377-1.236,1.217-1.238q4.158-.008,8.316,0a1.052,1.052,0,0,1,1.19,1.2c.008,2.191,0,4.382,0,6.573v.813h.755q3.253,0,6.506,0c.972,0,1.324.355,1.325,1.335q0,4.024,0,8.048c0,1-.353,1.343-1.385,1.343-2.368,0-4.735,0-7.2,0v.739q0,3.253,0,6.506c0,.981-.353,1.339-1.32,1.34q-4.058,0-8.115,0c-.929,0-1.289-.366-1.29-1.3C125.838,1977.633,125.841,1975.242,125.841,1972.741Z" transform="translate(-99.124 -1935.181)" fill="#12263f"/>
        <path id="Trazado_622819" data-name="Trazado 622819" d="M168.576,1820.774l-1.023,1.917c-1.64-.868-3.249-1.729-4.868-2.567a2.014,2.014,0,0,0-.876-.249q-8.952-.021-17.9-.01c-.11,0-.221.01-.413.02a4.786,4.786,0,0,0,2.64,3.575,7.105,7.105,0,0,0,2.82.671c3.731.074,7.465.023,11.2.042a2.067,2.067,0,0,1,1.065.279c2.06,1.337,4.1,2.706,6.137,4.077a1.1,1.1,0,1,1-1.214,1.8c-.17-.107-.334-.223-.5-.335l-4.949-3.3a2.841,2.841,0,0,0-.164,3.7,51.558,51.558,0,0,0,4.525,4.933c2.3,2.124,5.15,2.584,8.193,2.2a69.551,69.551,0,0,1,10.567-.479,1.27,1.27,0,0,1,.228.056v2.079c-.216,0-.431.007-.645,0a99.667,99.667,0,0,0-11.231.6,11.554,11.554,0,0,1-9.663-3.868c-1.115-1.191-2.2-2.412-3.274-3.638a5.274,5.274,0,0,1-1.131-5.48c.049-.145.092-.292.155-.494h-4.863c-1.654,0-3.308.014-4.962-.005a7.413,7.413,0,0,1-7.195-7.353,1.072,1.072,0,0,1,1.235-1.222q9.924,0,19.849,0a1.342,1.342,0,0,1,.59.073C164.777,1818.77,166.646,1819.759,168.576,1820.774Z" transform="translate(-119.875 -1817.722)" fill="#12263f"/>
        <path id="Trazado_622820" data-name="Trazado 622820" d="M8.279,2145.837h3.051v2.094c-.171.012-.362.037-.553.037-1.475,0-2.95.021-4.424-.012a2.116,2.116,0,0,1-1.056-.3c-2.022-1.313-4.025-2.656-6.023-4.006-.248-.167-.585-.431-.6-.666a1.841,1.841,0,0,1,.317-1.189.955.955,0,0,1,1.339-.034q2.482,1.649,4.962,3.3c.2.134.408.262.608.389a3.075,3.075,0,0,0-.044-3.968c-1.24-1.437-2.483-2.88-3.826-4.219a9.9,9.9,0,0,0-8.694-2.661,62.807,62.807,0,0,1-10.812.446v-2.1c.249,0,.489-.008.728,0a95.6,95.6,0,0,0,11.094-.6,11.445,11.445,0,0,1,9.39,3.547c1.3,1.32,2.532,2.712,3.728,4.127A5.352,5.352,0,0,1,8.279,2145.837Z" transform="translate(17.489 -2090.017)" fill="#12263f"/>
        <path id="Trazado_622821" data-name="Trazado 622821" d="M-6.3,1910.287l1.019-1.877,3.876,2.076c-.795-11.943,3.99-20.741,14.431-26.568l.945,1.961c-1.114.688-2.216,1.286-3.227,2.008A23.276,23.276,0,0,0,.894,1903.98a22.612,22.612,0,0,0,.261,7.994c.11.534.175,1.078-.351,1.466a1.268,1.268,0,0,1-1.5-.086c-1.684-.922-3.375-1.83-5.062-2.745C-5.927,1910.515-6.093,1910.409-6.3,1910.287Z" transform="translate(7.816 -1875.019)" fill="#12263f"/>
        <path id="Trazado_622822" data-name="Trazado 622822" d="M72.253,1931.976l-2.025.713c-2.039-6.462-1.42-12.578,2.42-18.14,4.57-6.621,11.052-9.434,19.138-8.917-.049.437-.088.781-.125,1.125s-.067.662-.105,1.036c-6.607-.471-12.144,1.656-16.279,6.838S70.337,1925.653,72.253,1931.976Z" transform="translate(-57.434 -1893.761)" fill="#12263f"/>
        <path id="Trazado_622823" data-name="Trazado 622823" d="M204.032,2034.194l.248-2.154c6.589.473,12.111-1.64,16.242-6.8s4.973-11.012,3.056-17.373l2.032-.723c2.1,6.757,1.338,13.077-2.866,18.755C218.143,2032.12,211.812,2034.728,204.032,2034.194Z" transform="translate(-174.238 -1981.682)" fill="#12263f"/>
        <path id="Trazado_622824" data-name="Trazado 622824" d="M323.232,2004.677l-1.149,1.826-2.865-1.769c1.164,11.685-3.183,20.549-13.185,26.8l-1.082-1.976a23.69,23.69,0,0,0,12.086-17.52,23.212,23.212,0,0,0-.516-9.1,1.14,1.14,0,0,1,1.8-1.336C319.942,2002.623,321.568,2003.634,323.232,2004.677Z" transform="translate(-261.588 -1976.613)" fill="#12263f"/>
        <path id="Trazado_622825" data-name="Trazado 622825" d="M352.931,1850.9,353.94,1849c.263.131.48.233.693.345,2.327,1.232,4.646,2.479,6.985,3.687a3.174,3.174,0,0,0,1.322.334c1.426.042,2.854.016,4.33.016v2.086a4.748,4.748,0,0,1-.485.053,14.414,14.414,0,0,0-1.608.012,10.022,10.022,0,0,1-6.712-1.668C356.7,1852.783,354.818,1851.9,352.931,1850.9Z" transform="translate(-303.119 -1844.799)" fill="#12263f"/>
      </g>
    </g>
  </g>
</svg>
