<svg xmlns="http://www.w3.org/2000/svg" width="93" height="94" viewBox="0 0 93 94">
  <g id="Grupo_948865" data-name="Grupo 948865" transform="translate(0.275 -0.334)">
    <ellipse id="Elipse_4870" data-name="Elipse 4870" cx="46.5" cy="47" rx="46.5" ry="47" transform="translate(-0.275 0.334)" fill="#7dcbde"/>
    <g id="_6vglq1" data-name="6vglq1" transform="translate(81.729 -1125.876)">
      <g id="Grupo_948871" data-name="Grupo 948871" transform="translate(-62.405 1142.21)">
        <path id="Trazado_622808" data-name="Trazado 622808" d="M-18.436,1170.7q0,13.414,0,26.827a1.478,1.478,0,0,1-1.689,1.688l-40.629,0a1.462,1.462,0,0,1-1.647-1.644q0-19.107,0-38.214a1.9,1.9,0,0,1,.594-1.421q7.618-7.6,15.22-15.216a1.8,1.8,0,0,1,1.368-.5q7.289,0,14.578,0h10.481c1.188,0,1.725.544,1.725,1.745q0,13.37,0,26.741Zm-41.024-10.136v35.712h38.092v-51.119H-44.041v.547q0,6.686,0,13.371a1.4,1.4,0,0,1-1.478,1.491q-3.6,0-7.2,0Zm12.484-2.891V1147.4l-10.267,10.267Z" transform="translate(62.405 -1142.21)" fill="#12263f"/>
        <path id="Trazado_622809" data-name="Trazado 622809" d="M-6.376,1252.008h4.8q16.907,0,33.814,0a2.366,2.366,0,0,0,2.448-2.488q0-25.469,0-50.938v-.689a16.525,16.525,0,0,1,1.9.121,1.362,1.362,0,0,1,1,1.48q0,4.637,0,9.273,0,18.934,0,37.868a36.2,36.2,0,0,1-.069,3.66,5.2,5.2,0,0,1-5.2,4.625c-3.709.011-7.418,0-11.128,0l-25.921,0a1.467,1.467,0,0,1-1.645-1.647C-6.377,1252.87-6.376,1252.469-6.376,1252.008Z" transform="translate(11.21 -1193.088)" fill="#12263f"/>
        <path id="Trazado_622810" data-name="Trazado 622810" d="M32.638,1457.223c0-1.175.055-1.234,1.236-1.23.172,0,.345-.008.517,0a.629.629,0,0,1,.661.685c.007.258,0,.517.006.776.01.507.226.7.719.784.746.132,1.49.286,2.219.489.536.149.642.4.509.944-.11.445-.225.888-.347,1.33a.623.623,0,0,1-.942.483,7.086,7.086,0,0,0-3.367-.5,2.622,2.622,0,0,0-.862.234,1.145,1.145,0,0,0-.2,2.071,17.71,17.71,0,0,0,2.15,1.063,26.363,26.363,0,0,1,2.519,1.19,3.941,3.941,0,0,1,1.883,3.977,4.272,4.272,0,0,1-2.6,3.637,8.282,8.282,0,0,1-1.213.426.7.7,0,0,0-.573.747c.009.417.008.834,0,1.25a.6.6,0,0,1-.66.674c-.359.009-.719.009-1.078,0-.472-.006-.689-.2-.723-.665-.023-.315-.005-.632-.008-.948,0-.542-.2-.707-.729-.814-.937-.192-1.87-.416-2.788-.681-.552-.16-.658-.435-.519-.992q.167-.667.345-1.331c.159-.586.464-.745,1.024-.51a7.814,7.814,0,0,0,3.774.675,3.421,3.421,0,0,0,1.188-.33,1.3,1.3,0,0,0,.334-2.186,5.9,5.9,0,0,0-2.11-1.12,22.328,22.328,0,0,1-2.5-1.123,3.746,3.746,0,0,1-2.075-3.52,4.081,4.081,0,0,1,2.284-3.689,6.835,6.835,0,0,1,1.149-.474c.7-.229.774-.309.774-1.07C32.639,1457.4,32.639,1457.309,32.638,1457.223Z" transform="translate(-20.566 -1428.921)" fill="#12263f"/>
        <path id="Trazado_622811" data-name="Trazado 622811" d="M206.739,1257.351V1254.5h12.974v2.852Z" transform="translate(-183.52 -1244.812)" fill="#12263f"/>
        <path id="Trazado_622812" data-name="Trazado 622812" d="M219.783,1523.4v2.841H206.8V1523.4Z" transform="translate(-183.573 -1490.513)" fill="#12263f"/>
        <path id="Trazado_622813" data-name="Trazado 622813" d="M219.892,1593.179H206.935v-2.885h12.957Z" transform="translate(-183.7 -1551.639)" fill="#12263f"/>
        <path id="Trazado_622814" data-name="Trazado 622814" d="M219.9,1657.582v2.847H206.926v-2.847Z" transform="translate(-183.691 -1613.122)" fill="#12263f"/>
        <path id="Trazado_622815" data-name="Trazado 622815" d="M206.657,1324.93v-2.792h12.986v2.792Z" transform="translate(-183.446 -1306.616)" fill="#12263f"/>
        <path id="Trazado_622816" data-name="Trazado 622816" d="M219.894,1456.285v2.81H206.919v-2.81Z" transform="translate(-183.685 -1429.19)" fill="#12263f"/>
      </g>
    </g>
  </g>
</svg>
