<svg xmlns="http://www.w3.org/2000/svg" width="93" height="94" viewBox="0 0 93 94">
  <g id="Grupo_948867" data-name="Grupo 948867" transform="translate(0.275 -0.334)">
    <ellipse id="Elipse_4870" data-name="Elipse 4870" cx="46.5" cy="47" rx="46.5" ry="47" transform="translate(-0.275 0.334)" fill="#7dcbde"/>
    <g id="Grupo_948873" data-name="Grupo 948873" transform="translate(-316.429 -2257.032)">
      <path id="Trazado_622826" data-name="Trazado 622826" d="M390.729,2319.731c-.092.22-.191.438-.276.66a3.691,3.691,0,0,1-3.366,2.441c-.737.024-1.475.012-2.212.012q-23.933,0-47.865.011a3.962,3.962,0,0,1-3.437-1.479,3.767,3.767,0,0,1,2.878-6.069c.834-.023,1.67,0,2.634,0v-.883c0-5.754.013-11.508-.014-17.262a2.789,2.789,0,0,1,.735-2.151,1.975,1.975,0,0,0,.514-1.542c-.025-2.655-.014-5.311-.01-7.967,0-1.246.443-1.7,1.682-1.7,1.868-.009,3.737.021,5.6-.024a1.46,1.46,0,0,0,.96-.476c.68-.806,1.3-1.669,1.913-2.526a1.616,1.616,0,0,1,1.427-.736q9.846.021,19.692,0a1.588,1.588,0,0,1,1.38.684c3.667,4.9,7.348,9.786,10.991,14.7a2.556,2.556,0,0,1,.415,1.428c.028,5.828.018,11.655.018,17.483v1.006c2.748-.233,5.366-.2,6.337,3.063Zm-8.888-4.45v-17.517H361.836v17.492h4.914v-.907q0-4.941,0-9.882c0-1.369.4-1.782,1.743-1.786q3.318-.009,6.635,0c1.315,0,1.725.416,1.726,1.714q0,5.052,0,10.1v.781Zm-12.566-32.726h-.887c-5.109,0-10.217.01-15.326-.015a1.294,1.294,0,0,0-1.2.619q-4.038,5.623-8.116,11.218c-.15.208-.293.421-.466.671a2.163,2.163,0,0,0,.316.065c5.28,0,10.561.01,15.841-.015a1.142,1.142,0,0,0,.75-.443c1.157-1.494,2.281-3.014,3.415-4.527C365.457,2287.656,367.31,2285.181,369.276,2282.556Zm-10.117,15.2h-17.5v17.487h17.5Zm2.536,22.569h24.779c1.087,0,1.651-.42,1.665-1.23.015-.838-.567-1.281-1.69-1.285H337.186a6,6,0,0,0-.663.011,1.249,1.249,0,0,0,.024,2.5c.22.019.442.007.663.007Zm18.859-25.246-8.744-11.658-8.741,11.658Zm-11.216,20.155h4.943v-9.922h-4.943Zm-26.4-28.835v4.417l3.312-4.417Z" fill="#12263f"/>
      <path id="Trazado_622827" data-name="Trazado 622827" d="M409.666,2422.429c0-1.6,0-3.2,0-4.793,0-.985.443-1.486,1.415-1.492q4.866-.031,9.732,0c.974.006,1.436.488,1.441,1.479q.024,4.83,0,9.661c-.005,1.033-.479,1.479-1.5,1.481q-4.792.009-9.585,0c-1.055,0-1.5-.465-1.5-1.542C409.663,2425.625,409.666,2424.027,409.666,2422.429Zm4.986,1.357h-2.411v2.4h2.411Zm2.612-.021v2.43h2.389v-2.43Zm-2.609-5.008h-2.433v2.37h2.433Zm5.01,2.378v-2.358H417.25v2.358Z" transform="translate(-65.547 -115.977)" fill="#12263f"/>
    </g>
  </g>
</svg>
