<svg xmlns="http://www.w3.org/2000/svg" width="93" height="94" viewBox="0 0 93 94">
  <g id="Grupo_947614" data-name="Grupo 947614" transform="translate(0.275 -0.334)">
    <ellipse id="Elipse_4870" data-name="Elipse 4870" cx="46.5" cy="47" rx="46.5" ry="47" transform="translate(-0.275 0.334)" fill="#f8805c"/>
    <g id="_0qnPLR.tif" data-name="0qnPLR.tif" transform="translate(-38.362 -1208.138)">
      <g id="Grupo_948863" data-name="Grupo 948863" transform="translate(50.638 1227.487)">
        <path id="Trazado_622796" data-name="Trazado 622796" d="M109.907,1284.868h-3.125a1.431,1.431,0,0,0-.313-.132c-6.407-1.056-10.567-4.7-12.526-10.871-.248-.781-.36-1.606-.537-2.418H69.836c0,.32.023.6,0,.877a17.825,17.825,0,0,1-.4,3.493c-1.025,3.314-4.206,5.114-8.038,4.714a6.875,6.875,0,0,1-6.481-7.1c-.007-.706,0-1.412,0-2.1a5.691,5.691,0,0,1-4.267-6c.115-3.427.026-6.862.027-10.294a7.59,7.59,0,0,1,4.516-7.267.951.951,0,0,0,.459-.389c.35-.871.658-1.759,1.014-2.734H51v-4.228h.729c1.918,0,3.836-.028,5.752.017a.881.881,0,0,0,1.005-.708c1.4-3.909,2.842-7.8,4.252-11.711a.673.673,0,0,1,.75-.534q18.536.018,37.073,0a.669.669,0,0,1,.745.551c.529,1.515,1.093,3.018,1.644,4.525l2.886,7.885h7.2v4.212h-5.65c.36.993.679,1.9,1.027,2.8.049.126.238.214.38.284a7.636,7.636,0,0,1,4.577,7.307.846.846,0,0,0,.646.906,14.888,14.888,0,0,1,8.891,10.032c.213.743.338,1.511.5,2.267v3.267a1.432,1.432,0,0,0-.132.314,14.78,14.78,0,0,1-10.146,12.26A27.531,27.531,0,0,1,109.907,1284.868Zm-6.227-37.79c-.085-.272-.138-.473-.209-.667-1.7-4.653-3.411-9.3-5.084-13.963a.932.932,0,0,0-1.069-.711q-15.3.025-30.6.012h-.8l-5.6,15.329Zm5.345,7.653a3.289,3.289,0,0,0-3.524-3.385q-23.474,0-46.947,0a3.445,3.445,0,0,0-3.633,3.662q-.006,5.29,0,10.579c0,1.213.337,1.548,1.56,1.548q7.671,0,15.341,0c.229,0,.458-.022.772-.038v-9.718h18.88v9.73c.173.013.268.025.362.025.4,0,.807-.027,1.207.01.475.043.606-.153.726-.609a14.753,14.753,0,0,1,11.118-11.234A33.046,33.046,0,0,1,109.025,1254.731Zm-.64,4.406a10.737,10.737,0,1,0,10.763,10.693A10.69,10.69,0,0,0,108.385,1259.137Zm-31.511,7.958H87.142v-5.48H76.875Zm-11.251,4.36h-6.45c0,.758-.009,1.464,0,2.17a2.566,2.566,0,0,0,2.371,2.617,8.725,8.725,0,0,0,1.626,0,2.436,2.436,0,0,0,2.3-2.055A23.308,23.308,0,0,0,65.624,1271.455Z" transform="translate(-50.638 -1227.487)" fill="#12263f"/>
        <path id="Trazado_622797" data-name="Trazado 622797" d="M122.592,1441.676h-8.719v-4.165h8.719Z" transform="translate(-104.873 -1407.619)" fill="#12263f"/>
        <path id="Trazado_622798" data-name="Trazado 622798" d="M417.139,1490.4l2.812,3.194-9.231,8.121-5.773-6.486,3.175-2.832,2.966,3.305Z" transform="translate(-354.52 -1452.978)" fill="#12263f"/>
      </g>
    </g>
  </g>
</svg>
