<svg xmlns="http://www.w3.org/2000/svg" width="34.918" height="43.578" viewBox="0 0 34.918 43.578"><path d="M222.937,2983.489h-1.363a21.074,21.074,0,0,0-.024-2.849,2.218,2.218,0,0,1,1.533-2.621c1.706-.79,3.3-1.826,4.969-2.694a2.648,2.648,0,0,1,2.488,0c2.017,1.063,3.994,2.2,6,3.293a.811.811,0,0,1,.5.834c-.03,1.32-.011,2.64-.011,4.031H235.64v3.5h1.324v4.2H221.6v-4.152h1.338Zm12.651-2.738H223.006v1.343h12.582ZM223,2989.788h12.565v-1.3H223Zm11.586-10.5.035-.091c-.156-.093-.31-.189-.469-.277-1.232-.686-2.478-1.35-3.694-2.063a2.11,2.11,0,0,0-2.331,0c-.808.48-1.642.915-2.463,1.374-.579.323-1.154.651-1.731.977l.04.086Zm-3.24,7.7v-3.461h-1.31v3.461Zm2.808-.015v-3.438h-1.336v3.438Zm-8.418-3.449h-1.315v3.444h1.315Zm1.508,0v3.439h1.293v-3.439Z" transform="translate(-213.857 -2975.015)" fill="#12263f"/><path d="M183.395,3062.038v-4.1h1.38v5.553h-.536q-11.9,0-23.791-.014a1.307,1.307,0,0,1-.83-.335q-2.711-2.654-5.369-5.36a1.077,1.077,0,0,1-.3-.674q-.022-15.572-.012-31.144c0-.091.011-.183.019-.315h6.265V3027h-4.84v29.475h5.558v5.559Zm-23.887-4.091h-2.923l2.923,2.963Z" transform="translate(-153.931 -3019.917)" fill="#12263f"/><path d="M178.447,3198.291l1.114.809-.659.993h3.576v1.423c-1.1,0-2.193.083-3.269-.024a1.905,1.905,0,0,0-2.134,1.1,9.52,9.52,0,0,1-.7,1.019c.45.635.885,1.289,1.37,1.9a.846.846,0,0,0,.594.186c2.527.012,5.054.008,7.629.008v1.413H178.9l.673.994-1.13.8-3.8-5.307Z" transform="translate(-172.296 -3173.002)" fill="#12263f"/><path d="M372.05,3152.984c1.387,0,2.743-.01,4.1.007a.757.757,0,0,0,.745-.368c.378-.585.8-1.138,1.239-1.745-.454-.639-.89-1.294-1.377-1.91a.857.857,0,0,0-.6-.182c-2.057-.013-4.115-.009-6.172-.009h-.649V3147.4h6.287l-.7-1.05c.074-.049.138-.087.2-.132.915-.695.913-.694,1.587.253,1.039,1.458,2.081,2.913,3.144,4.4l-3.8,5.31-1.119-.795.652-1.013H372.05Z" transform="translate(-344.94 -3126.392)" fill="#12263f"/><path d="M267.706,3160.992a5.35,5.35,0,1,1,5.416-5.328A5.358,5.358,0,0,1,267.706,3160.992Zm4.56-5.332a4.485,4.485,0,0,0-4.524-4.533,4.536,4.536,0,1,0,.037,9.072A4.528,4.528,0,0,0,272.266,3155.66Z" transform="translate(-250.059 -3130.44)" fill="#12263f"/><path d="M377.5,3037.487h-1.362v-10.475h-4.867v-1.4H377.5Z" transform="translate(-346.653 -3019.878)" fill="#12263f"/><path d="M292.232,3167.685c-.13-.338-.16-.766-.383-.928a12.483,12.483,0,0,0-1.7-.894l-.044-.559h-.847l-.051.758c-.222.032-.408.065-.595.086a1.59,1.59,0,0,0,.113,3.171c.547.017,1.095,0,1.642.018a.945.945,0,0,1,.99.868.876.876,0,0,1-.989.832c-.5-.064-1.022.026-1.525-.031-.247-.028-.633-.19-.68-.365-.162-.605-.548-.466-1.065-.423.172.376.233.794.474.976a10.665,10.665,0,0,0,1.546.842l.093-.133.064.775h.836l.057-.8a4.376,4.376,0,0,0,.957-.156,1.624,1.624,0,0,0,1.038-1.745,1.694,1.694,0,0,0-1.72-1.443c-.527-.029-1.057,0-1.585-.008a.851.851,0,0,1-.847-.789.823.823,0,0,1,.831-.8c.566-.006,1.135-.032,1.7.014.23.019.583.158.642.326C291.37,3167.841,291.742,3167.766,292.232,3167.685Z" transform="translate(-272.01 -3143.752)" fill="#12263f"/><path d="M292.232,3167.685c-.49.081-.862.156-1.057-.4-.059-.168-.412-.307-.642-.326-.562-.046-1.131-.02-1.7-.014a.823.823,0,0,0-.831.8.851.851,0,0,0,.847.789c.528.008,1.058-.022,1.585.008a1.694,1.694,0,0,1,1.72,1.443,1.624,1.624,0,0,1-1.038,1.745,4.376,4.376,0,0,1-.957.156l-.057.8h-.836l-.064-.775-.093.133a10.665,10.665,0,0,1-1.546-.842c-.24-.183-.3-.6-.474-.976.517-.042.9-.182,1.065.423.047.175.433.338.68.365.5.057,1.024-.033,1.525.031a.876.876,0,0,0,.989-.832.945.945,0,0,0-.99-.868c-.547-.017-1.095,0-1.642-.018a1.59,1.59,0,0,1-.113-3.171c.187-.021.373-.054.595-.086l.051-.758h.847l.044.559a12.483,12.483,0,0,1,1.7.894C292.072,3166.919,292.1,3167.347,292.232,3167.685Z" transform="translate(-272.01 -3143.752)" fill="#12263f"/></svg>