<svg xmlns="http://www.w3.org/2000/svg" width="36.43" height="36.43" viewBox="0 0 36.43 36.43"><g transform="translate(-66.907 -4048.415)"><g transform="translate(66.907 4048.415)"><path d="M69.411,4048.415H86.26a.346.346,0,0,0,.091.063,3.021,3.021,0,0,1,2.412,3.183q0,3.244,0,6.488v.394a14.568,14.568,0,0,0,.965-1.515q1.808-3.133,3.616-6.267a2.434,2.434,0,1,1,4.221,2.422c-1.1,1.932-2.219,3.852-3.328,5.777-.065.112-.122.229-.2.384h.253a4.189,4.189,0,0,1,3.379,1.582c.3.357.594.724.908,1.07a2.614,2.614,0,0,0,1.732.923c.728.061,1.463.067,2.195.061a.883.883,0,0,1,.838.386v.455a.861.861,0,0,1-.839.385c-.568-.024-1.138-.005-1.707-.007a4.134,4.134,0,0,1-3.181-1.43c-.364-.4-.7-.836-1.061-1.239a2.694,2.694,0,0,0-1.7-.908c-.412-.05-.831-.036-1.246-.071a.417.417,0,0,0-.444.263c-.61,1.076-1.234,2.145-1.852,3.218-.048.083-.083.175-.125.266.056.03.088.048.121.065a1.812,1.812,0,0,1-.818,3.479H87.753c-1.227,0-2.454-.01-3.68,0a1.256,1.256,0,0,0-1.3,1.6,1.278,1.278,0,0,0,1.314.824c2.327,0,4.654.012,6.981,0a5.834,5.834,0,0,1,2.84.676,4.83,4.83,0,0,0,2.334.547c2.087-.009,4.173,0,6.26-.01a.884.884,0,0,1,.838.385v.455a.886.886,0,0,1-.839.385c-2.175-.013-4.35-.01-6.526-.005a4.437,4.437,0,0,1-2.3-.526c-1.545-.912-3.22-.653-4.908-.684v.441q0,4.932,0,9.865a3.008,3.008,0,0,1-3.021,3.045q-7.911.007-15.821,0a3.006,3.006,0,0,1-3.01-3.018q0-15.195,0-30.39a2.921,2.921,0,0,1,1.662-2.692A6.706,6.706,0,0,1,69.411,4048.415Zm15.712,3.642c-.605,0-1.172-.009-1.737.009a.409.409,0,0,0-.265.2,1.9,1.9,0,0,1-1.779,1.008q-3.51-.017-7.02,0a1.891,1.891,0,0,1-1.774-1.015c-.048-.084-.151-.191-.232-.193-.577-.017-1.156-.009-1.744-.009v29.118H85.091v-6.944c-1.136.934-2.231,1.83-3.32,2.733a.689.689,0,0,1-.827.17.667.667,0,0,1-.288-.793c.106-.66.221-1.319.331-1.979.176-1.051.351-2.1.531-3.185a5.8,5.8,0,0,1-.751,0c-1.744-.239-2.5-1.707-1.633-3.127,1.226-2.018,2.372-4.084,3.543-6.135a5.127,5.127,0,0,1,2.217-2.111.451.451,0,0,0,.221-.322C85.126,4057.025,85.123,4054.572,85.123,4052.057Zm2.429,19.4c-.235.039-.5.01-.557.1-.26.461-.669.85-.666,1.449.013,2.669.006,5.338.005,8.007a1.225,1.225,0,0,1-1.384,1.4H70.721a1.228,1.228,0,0,1-1.384-1.4q0-5.5,0-11,0-8.918,0-17.835a1.2,1.2,0,0,1,1.306-1.326c.759,0,1.518,0,2.277,0a.593.593,0,0,1,.664.574c.076.445.269.635.7.636q3.548.007,7.1,0a.632.632,0,0,0,.7-.594c.084-.474.25-.615.739-.617q1.082,0,2.163,0a1.214,1.214,0,0,1,1.349,1.362q0,3.359,0,6.717v.4h1.217v-.367q0-3.643,0-7.286a1.86,1.86,0,0,0-2.051-2.042H70.171a1.859,1.859,0,0,0-2.05,2.042q0,14.951,0,29.9a1.866,1.866,0,0,0,2.071,2.06H85.484a1.865,1.865,0,0,0,2.068-2.063q0-4.838,0-9.677Zm5.081-17L85.6,4066.631c.865,0,1.647-.014,2.428.008a.547.547,0,0,0,.556-.334q2.906-5.058,5.829-10.106l.312-.542Zm-11.02,15.464a2.5,2.5,0,0,1,2.349-3.292.587.587,0,0,0,.377-.279c1.057-1.81,2.1-3.627,3.147-5.443.054-.094.1-.193.167-.325a3.775,3.775,0,0,0-3.75,1.7c-.336.519-.625,1.068-.933,1.6q-1.407,2.446-2.811,4.894c-.234.409-.223.7.065.913A1.593,1.593,0,0,0,81.613,4069.913Zm13.73-15.321c.427-.752.867-1.473,1.252-2.222a1.159,1.159,0,0,0-.453-1.491,1.137,1.137,0,0,0-1.561.26c-.482.717-.891,1.483-1.339,2.241Zm-12.519,16.8a27.789,27.789,0,0,0-.71,3.637c1.737-1.1,3.134-2.565,3.391-3.513Zm6.986-4.767a2.675,2.675,0,0,0,.741-.014,1.178,1.178,0,0,0,.578-.4c.169-.243-.025-.581-.322-.737-.323-.169-.388.086-.5.274C90.153,4066.024,90,4066.3,89.81,4066.63Z" transform="translate(-66.907 -4048.415)" fill="#12263f"/><path d="M136.839,4131.314c0,.772,0,1.543,0,2.315,0,.475-.22.689-.7.69q-2.334,0-4.668,0c-.481,0-.7-.214-.7-.691q0-2.353,0-4.705a.594.594,0,0,1,.68-.67q2.353-.005,4.705,0c.469,0,.679.223.681.709C136.842,4129.746,136.839,4130.53,136.839,4131.314ZM132,4133.081h3.6v-3.6H132Z" transform="translate(-125.912 -4122.178)" fill="#12263f"/><path d="M136.178,4402.254a2.446,2.446,0,0,1,2.145-.695,1.906,1.906,0,0,1,1.39,1.622c.835,0,1.669-.021,2.5.015a.828.828,0,0,1,.572.326.648.648,0,0,1-.028.586.74.74,0,0,1-.531.272c-.985.026-1.972.011-2.958.013a.6.6,0,0,1-.637-.481c-.061-.218-.1-.442-.166-.66a.6.6,0,0,0-.993-.387c-.679.438-1.35.89-2.018,1.344a.659.659,0,0,1-.837.061.646.646,0,0,1-.173-.819c.172-.487.332-.979.485-1.473a.9.9,0,0,0-.472-1.142.877.877,0,0,0-1.178.45c-.457.886-.892,1.783-1.342,2.672a.635.635,0,0,1-.793.408.6.6,0,0,1-.355-.831c.49-1.01.971-2.027,1.516-3.007a2.063,2.063,0,0,1,2.436-.9,2.118,2.118,0,0,1,1.47,2.11C136.206,4401.876,136.194,4402.014,136.178,4402.254Z" transform="translate(-125.873 -4372.821)" fill="#12263f"/><path d="M134.74,4241.238c-1.075,0-2.15,0-3.226,0-.455,0-.712-.221-.715-.6s.253-.61.7-.611q3.245,0,6.489,0c.446,0,.7.235.7.617-.007.365-.26.591-.684.592C136.916,4241.24,135.828,4241.238,134.74,4241.238Z" transform="translate(-125.94 -4225.453)" fill="#12263f"/><path d="M133.809,4273.166c-.772,0-1.543,0-2.315,0-.448,0-.7-.234-.7-.617.007-.366.258-.591.683-.592q2.353,0,4.705,0a.608.608,0,1,1,.013,1.208C135.4,4273.17,134.606,4273.166,133.809,4273.166Z" transform="translate(-125.939 -4254.953)" fill="#12263f"/><path d="M133.809,4305.1c-.772,0-1.543,0-2.315,0-.448,0-.7-.234-.7-.617.007-.366.258-.591.683-.592q2.353,0,4.705,0a.608.608,0,1,1,.013,1.208C135.4,4305.1,134.606,4305.1,133.809,4305.1Z" transform="translate(-125.939 -4284.458)" fill="#12263f"/><path d="M133.863,4335.824c.772,0,1.543,0,2.315,0,.427,0,.679.222.688.587.009.383-.248.621-.692.622q-2.334,0-4.668,0c-.45,0-.708-.228-.707-.607s.258-.6.711-.6C132.3,4335.821,133.079,4335.824,133.863,4335.824Z" transform="translate(-125.941 -4313.964)" fill="#12263f"/><path d="M229.012,4129.461c-.582,0-1.164,0-1.746,0a.608.608,0,1,1,.008-1.208q1.746-.006,3.491,0c.426,0,.678.224.686.589.008.383-.249.617-.695.62C230.176,4129.464,229.594,4129.461,229.012,4129.461Z" transform="translate(-214.454 -4122.176)" fill="#12263f"/><path d="M229.009,4161.395c-.569,0-1.138,0-1.708,0-.448,0-.705-.231-.7-.613a.6.6,0,0,1,.679-.6q1.746-.006,3.491,0c.424,0,.676.228.682.593.006.381-.252.613-.7.616C230.172,4161.4,229.591,4161.395,229.009,4161.395Z" transform="translate(-214.455 -4151.681)" fill="#12263f"/><path d="M228.394,4193.3c-.392,0-.784.008-1.176,0a.587.587,0,0,1-.619-.617.581.581,0,0,1,.609-.589q1.214-.013,2.428,0a.6.6,0,0,1,.01,1.2C229.229,4193.31,228.811,4193.3,228.394,4193.3Z" transform="translate(-214.453 -4181.158)" fill="#12263f"/></g></g></svg>