<svg xmlns="http://www.w3.org/2000/svg" width="93" height="94" viewBox="0 0 93 94">
  <g id="Grupo_948866" data-name="Grupo 948866" transform="translate(0.275 -0.334)">
    <ellipse id="Elipse_4870" data-name="Elipse 4870" cx="46.5" cy="47" rx="46.5" ry="47" transform="translate(-0.275 0.334)" fill="#7dcbde"/>
    <g id="qyv1kv.tif" transform="translate(32.946 -2739.798)">
      <g id="Grupo_948874" data-name="Grupo 948874" transform="translate(-18.471 2755.373)">
        <path id="Trazado_622828" data-name="Trazado 622828" d="M-9.476,2818.89a2.472,2.472,0,0,1-1.6-2.66c.071-1.805.009-3.616.025-5.424a.74.74,0,0,0-.441-.77,3.1,3.1,0,0,1-1.686-2.925q.011-8.5,0-17v-.86c-1.033,0-2.017,0-3,0a2.107,2.107,0,0,1-2.289-2.3q0-5.127,0-10.255a2.1,2.1,0,0,1,2.272-2.255c.926,0,1.852,0,2.778,0,.044,0,.087-.011.2-.027v-5.216h2.127v23.243h.678c3.594,0,7.188-.008,10.782.01a1.151,1.151,0,0,0,.959-.433c2.083-2.337,4.19-4.653,6.263-7a1.671,1.671,0,0,0,.376-.984c.041-1.406.017-2.813.017-4.259h2.06v10.5H8.028v-2.252l-.158-.081-4.005,4.44h8.321v-25.321H-13.193c.169-2.8-.531-5.634,1.117-8.163a7.135,7.135,0,0,1,6.227-3.5q19.116-.036,38.232-.007a7.356,7.356,0,0,1,7.347,7.369c.015,3.858,0,7.717,0,11.68.893,0,1.767.052,2.634-.012a2.415,2.415,0,0,1,2.661,1.6v11.644a2.416,2.416,0,0,1-2.658,1.6c-.866-.064-1.741-.012-2.637-.012v.89q0,8.493,0,16.986a3.086,3.086,0,0,1-1.693,2.917.734.734,0,0,0-.432.774c.014,1.806-.046,3.615.024,5.419a2.471,2.471,0,0,1-1.6,2.656H28.624a2.4,2.4,0,0,1-1.594-2.659c.054-.612.009-1.234.009-1.851v-1.8h2.134v4.141h6.3v-6.265H-.483c0,1.95-.052,3.865.018,5.775a2.476,2.476,0,0,1-1.6,2.658Zm25.981-28.6v-10.529h2.063c0,1.463-.018,2.892.015,4.319a1.464,1.464,0,0,0,.33.87q3.159,3.563,6.372,7.076a1.351,1.351,0,0,0,.889.385c3.615.026,7.23.018,10.846.015.19,0,.379-.024.552-.036v-25.34h-23.2v25.321H22.7l-4.007-4.441-.157.08v2.28Zm9.772,6.052c-.492-.542-.9-1.034-1.358-1.47a1.177,1.177,0,0,0-.728-.318q-10.913-.025-21.827,0a1.174,1.174,0,0,0-.727.319c-.47.447-.888.948-1.366,1.471-.47-.677-1.344-.891-1.5-1.757h-9.837v.635q0,5.788,0,11.577c0,1.156.346,1.507,1.489,1.507h45.7c1.147,0,1.495-.35,1.5-1.5q0-5.788,0-11.577c0-.213-.019-.426-.031-.661H27.8C27.609,2795.435,26.782,2795.691,26.277,2796.343Zm-37.421-31.483H37.7a23.877,23.877,0,0,0-.3-3.387,5.219,5.219,0,0,0-5.388-3.98q-17.226,0-34.451,0c-1.124,0-2.249-.02-3.372.007a5.181,5.181,0,0,0-5.056,3.98A24.154,24.154,0,0,0-11.145,2764.86Zm8.526,45.612h-6.3v6.263h6.3Zm-13.686-33.9v10.53h3.085v-10.53Zm59.172,10.536V2776.6h-3.1v10.507Z" transform="translate(18.471 -2755.373)" fill="#12263f"/>
        <path id="Trazado_622829" data-name="Trazado 622829" d="M156.716,3085.248v-2.034H133.529v2.034Zm.017,4.234v-2.051h-23.2v2.051Z" transform="translate(-113.379 -3039.754)" fill="#12263f"/>
        <path id="Trazado_622830" data-name="Trazado 622830" d="M156.716,3085.248H133.529v-2.034h23.187Z" transform="translate(-113.379 -3039.754)" fill="#12263f"/>
        <path id="Trazado_622831" data-name="Trazado 622831" d="M156.774,3117.078h-23.2v-2.051h23.2Z" transform="translate(-113.42 -3067.349)" fill="#12263f"/>
        <path id="Trazado_622832" data-name="Trazado 622832" d="M61.854,3079.084a4.231,4.231,0,1,1-4.208-4.257A4.2,4.2,0,0,1,61.854,3079.084Zm-2.117-.044a2.114,2.114,0,1,0-2.1,2.134A2.169,2.169,0,0,0,59.737,3079.04Z" transform="translate(-43.866 -3032.479)" fill="#12263f"/>
        <path id="Trazado_622833" data-name="Trazado 622833" d="M333.3,3079.1a4.231,4.231,0,1,1-4.189-4.275A4.2,4.2,0,0,1,333.3,3079.1Zm-2.117-.031a2.114,2.114,0,1,0-2.128,2.1A2.167,2.167,0,0,0,331.179,3079.072Z" transform="translate(-279.324 -3032.479)" fill="#12263f"/>
        <path id="Trazado_622834" data-name="Trazado 622834" d="M69.449,2789.77v-2.019H71.5v2.019Z" transform="translate(-57.794 -2783.459)" fill="#12263f"/>
        <path id="Trazado_622835" data-name="Trazado 622835" d="M183.553,2789.77h-2.015v-2.05h2.015Z" transform="translate(-155.024 -2783.432)" fill="#12263f"/>
        <path id="Trazado_622836" data-name="Trazado 622836" d="M213.283,2789.737v-2.031h2.042v2.031Z" transform="translate(-182.56 -2783.42)" fill="#12263f"/>
        <path id="Trazado_622837" data-name="Trazado 622837" d="M245.307,2787.446h2.018v2.053h-2.018Z" transform="translate(-210.339 -2783.194)" fill="#12263f"/>
        <path id="Trazado_622838" data-name="Trazado 622838" d="M356.768,2789.674v-2.022h2.078v2.022Z" transform="translate(-307.024 -2783.373)" fill="#12263f"/>
      </g>
    </g>
  </g>
</svg>
