<svg xmlns="http://www.w3.org/2000/svg" width="93" height="94" viewBox="0 0 93 94">
  <g id="Grupo_948868" data-name="Grupo 948868" transform="translate(0.275 -0.334)">
    <ellipse id="Elipse_4870" data-name="Elipse 4870" cx="46.5" cy="47" rx="46.5" ry="47" transform="translate(-0.275 0.334)" fill="#7dcbde"/>
    <g id="hM9JIR.tif" transform="translate(52.555 -3502.442)">
      <g id="Grupo_948876" data-name="Grupo 948876" transform="translate(-34.434 3526)">
        <path id="Trazado_622846" data-name="Trazado 622846" d="M-14.027,3576.347a19.2,19.2,0,0,1-3.112-1.244,7.294,7.294,0,0,1-3.58-5.932c-.027-.336-.033-.675-.033-1.013q0-13.243,0-26.486c0-.993.3-1.464.927-1.441.6.022.89.482.89,1.432q0,13.422,0,26.844a5.892,5.892,0,0,0,4.627,5.88,5.934,5.934,0,0,0,7.213-5.468c.036-.96.334-1.24,1.342-1.241q8.027,0,16.054,0h.822v-6.011h-.65c-2.884,0-5.769.023-8.653-.02a8.017,8.017,0,0,1-1.7-.413,3.209,3.209,0,0,0-.739-.146q-6.8-.013-13.607-.007c-.2,0-.4.009-.6-.008a.854.854,0,0,1-.827-.859.887.887,0,0,1,.835-.916,5.314,5.314,0,0,1,.537-.007H-1.132a2.982,2.982,0,0,1,1.512-2.75H-.413q-7.072,0-14.144,0c-.686,0-1.106-.349-1.1-.9s.423-.879,1.115-.886c.119,0,.239,0,.358,0H1.3l.271-2.75H-14.343a3.087,3.087,0,0,1-.536-.012.846.846,0,0,1-.764-.915.825.825,0,0,1,.767-.848,4.97,4.97,0,0,1,.656-.015q8.415,0,16.829-.011a2.056,2.056,0,0,0,.947-.245,6.165,6.165,0,0,1,3.133-.537c1.148.007,1.151,0,1.333-1.105.042-.254.054-.513.087-.845H-14.275a3.507,3.507,0,0,1-.6-.014.847.847,0,0,1-.772-.91.824.824,0,0,1,.818-.858c.2-.016.4-.007.6-.007h22.6c.093-.591.2-1.151.26-1.715a.525.525,0,0,0-.171-.4,6.84,6.84,0,0,1,2.252-11.8c.017-.006.029-.026.092-.084a5.33,5.33,0,0,0-2.771-3.146,6.858,6.858,0,0,0-2.73-.71c-8.872-.052-17.744-.031-26.616-.031-.075,0-.149.014-.321.032.192.2.331.356.475.5a7.638,7.638,0,0,1,2.217,5.25c.039,1.251.014,2.505.008,3.758,0,.681-.354,1.1-.9,1.115s-.9-.387-.914-1.084c-.012-.871,0-1.743,0-2.709H-21.5q-5.789,0-11.578,0c-1.121,0-1.385-.269-1.359-1.366a7.767,7.767,0,0,1,6.384-7.174,11.754,11.754,0,0,1,1.721-.121q15.606-.011,31.212,0a7.762,7.762,0,0,1,7.656,5.1.756.756,0,0,0,.547.371,6.841,6.841,0,0,1,6.154,4.6,6.737,6.737,0,0,1-1.952,7.319.818.818,0,0,0-.31.859c.238,1.55.432,3.106.647,4.659.021.154.076.3.145.573.9,0,1.819-.075,2.72.015a4.1,4.1,0,0,1,3.676,4.017c.021.912,0,1.826,0,2.769a3,3,0,0,1,2.5,2.044v1.312a3.215,3.215,0,0,1-3.492,2.046c-3.161-.08-6.325-.023-9.488-.023h-.669v6.011h5.449c.956,0,1.393.294,1.388.927s-.439.913-1.4.913H-5.3a8.212,8.212,0,0,1-2.724,5.028h.856q12.8,0,25.6,0a11.23,11.23,0,0,0,1.485-.1,5.847,5.847,0,0,0,4.826-4.924c-.614,0-1.225,0-1.836,0-.854,0-1.258-.305-1.251-.93s.407-.905,1.275-.908c.816,0,1.632.019,2.446-.008a1.458,1.458,0,0,1,1.293.564v1.432a1.3,1.3,0,0,0-.113.264,7.448,7.448,0,0,1-3.92,5.436,18.5,18.5,0,0,1-2.771.981Zm29.872-26.959c-.027-.282-.04-.5-.07-.714-.224-1.611-.416-3.229-.693-4.831a1.389,1.389,0,0,1,.68-1.544,4.9,4.9,0,0,0,1.86-5.28,5.005,5.005,0,1,0-7.736,5.346c.41.3.732.605.644,1.17q-.22,1.411-.418,2.827c-.14.994-.269,1.99-.408,3.027Zm-12.592,6.885H22.373c0-.982.056-1.936-.014-2.88a2.286,2.286,0,0,0-2.267-2.116q-7.306-.027-14.612,0a2.165,2.165,0,0,0-2.2,1.883A27.764,27.764,0,0,0,3.254,3556.272Zm-35.761-23.493h11.643a5.932,5.932,0,0,0-5.992-4.975A5.883,5.883,0,0,0-32.508,3532.779ZM12.764,3558.1H2.091c-.965,0-1.41.29-1.393.907.016.594.446.865,1.377.865H23.481c.139,0,.279.006.417,0a.888.888,0,1,0,.016-1.767c-.158-.011-.318,0-.477,0Z" transform="translate(34.434 -3526)" fill="#12263f"/>
        <path id="Trazado_622847" data-name="Trazado 622847" d="M165.051,3602.647h-6.619a4.837,4.837,0,0,1-.6-.017.812.812,0,0,1-.777-.826.849.849,0,0,1,.676-.925,1.835,1.835,0,0,1,.533-.034q6.8,0,13.6,0a2.079,2.079,0,0,1,.475.018.855.855,0,0,1,.749.926.8.8,0,0,1-.824.843c-.615.027-1.232.015-1.848.015Q167.735,3602.649,165.051,3602.647Z" transform="translate(-134.156 -3591.89)" fill="#12263f"/>
        <path id="Trazado_622848" data-name="Trazado 622848" d="M130.446,3841.909c2.207,0,4.415-.018,6.621.017a1.471,1.471,0,0,1,.977.4.857.857,0,0,1-.525,1.353,2.412,2.412,0,0,1-.592.039q-6.532,0-13.065,0c-.1,0-.2,0-.3,0a.953.953,0,0,1-.976-.922.905.905,0,0,1,1-.88C125.872,3841.9,128.159,3841.91,130.446,3841.909Z" transform="translate(-103.809 -3804.124)" fill="#12263f"/>
      </g>
    </g>
  </g>
</svg>
