<svg xmlns="http://www.w3.org/2000/svg" width="38.477" height="41.127" viewBox="0 0 38.477 41.127"><path d="M113.3,3325.332c-.113.748-.2,1.5-.343,2.243a18.993,18.993,0,0,1-6.982,11.448.767.767,0,0,1-.446.15q-11.462.011-22.925,0a.828.828,0,0,1-.48-.174,18.9,18.9,0,0,1-7.047-11.992,19.286,19.286,0,0,1,10.1-20.135c.827-.433,1.71-.762,2.579-1.112a.449.449,0,0,0,.353-.5c-.022-.839-.008-1.68-.008-2.551H85.479V3301.4h3.91v5.222c-.428.145-.887.28-1.332.453-6.325,2.458-10.311,7-11.55,13.66s.918,12.292,5.95,16.823a1.169,1.169,0,0,0,.854.31c3.316-.012,6.633-.007,9.949-.007h.569a7.617,7.617,0,0,1-2.793-3.927,7.255,7.255,0,0,1-5.959-.046,7.159,7.159,0,0,1-3.336-3.052,7.322,7.322,0,0,1,10.315-9.767c.857-3.843,3.1-6.21,7.156-6.4a7.094,7.094,0,0,1,6.911,4.488,7.341,7.341,0,0,1-2.151,8.467,7.244,7.244,0,0,1,1.278,5.437,7.385,7.385,0,0,1-2.986,4.8c1.043,0,1.977.01,2.911-.011a.8.8,0,0,0,.416-.232,17.372,17.372,0,0,0,5.957-9.84,17.932,17.932,0,0,0-10.261-20.224c-.815-.365-1.671-.638-2.548-.968V3301.4h3.929v1.284h-2.631c0,.953-.012,1.861.016,2.767,0,.107.214.252.356.3a18.4,18.4,0,0,1,5.549,3.071,19.2,19.2,0,0,1,7.187,12.679c.047.339.1.675.157,1.013Zm-15.245.58a5.971,5.971,0,1,0,5.959,5.972A6,6,0,0,0,98.058,3325.912Zm-15.948,1.329c.027.247.051.494.082.74a5.937,5.937,0,0,0,8.109,4.786.612.612,0,0,0,.465-.687,7.057,7.057,0,0,1,2.8-5.939.527.527,0,0,0,.211-.68,5.95,5.95,0,0,0-6.685-4.105A6.044,6.044,0,0,0,82.111,3327.241Zm16.563-3.969a.644.644,0,0,1,.034.092.619.619,0,0,0,.7.56.569.569,0,0,0,.607-.46c.08-.387-.19-.562-.494-.71a13.97,13.97,0,0,1-1.247-.647,1.8,1.8,0,0,1-.192-3.007,1.361,1.361,0,0,0,.635-1.453c-.009-.105,0-.212,0-.328h1.323c0,.343.014.66,0,.975a.507.507,0,0,0,.332.569,1.674,1.674,0,0,1,.955,1.726h-1.239a.662.662,0,0,1-.042-.107.622.622,0,0,0-.715-.538.567.567,0,0,0-.593.478c-.064.363.187.542.48.683.4.191.8.377,1.18.6a1.83,1.83,0,0,1,.971,1.748,1.93,1.93,0,0,1-.807,1.473l2.611,1.607a5.82,5.82,0,0,0,2.071-5.654,5.96,5.96,0,0,0-11.732-.014,2.2,2.2,0,0,0,.439,2.063,11.962,11.962,0,0,1,1.23,2.174l2.525-.577-.382-1.249Z" transform="translate(-74.826 -3298.051)" fill="#12263f"/><path d="M270.291,3261.146v1.354a3.377,3.377,0,0,1,2.614,3.928h-1.287c0-.22.007-.449,0-.677a1.991,1.991,0,0,0-3.964-.227,1.947,1.947,0,0,0,1.407,2.083c.437.125.881.221,1.321.337a3.278,3.278,0,0,1,.127,6.367c-.063.019-.128.033-.22.056v1.348h-1.306V3274.4c-2.29-.721-2.882-2.213-2.635-4.6h1.29c0,.438-.009.887,0,1.336a1.942,1.942,0,0,0,1.269,1.819,2.014,2.014,0,0,0,2.172-.482,1.936,1.936,0,0,0-.884-3.191c-.423-.123-.853-.222-1.28-.33a3.276,3.276,0,0,1-.13-6.383c.05-.015.1-.028.179-.05v-1.37Z" transform="translate(-250.386 -3261.146)" fill="#12263f"/><path d="M130.88,3411.683l-1.141-.6c.6-1.828,3.745-5.3,5.763-6.36l.713,1.088A15.683,15.683,0,0,0,130.88,3411.683Z" transform="translate(-125.176 -3392.796)" fill="#12263f"/><path d="M116.549,3499.389l-1.271-.4.511-1.454,1.239.5Z" transform="translate(-111.917 -3477.898)" fill="#12263f"/><path d="M438.438,3435.141l-.841-.938.963-.922.911,1.007Z" transform="translate(-407.454 -3418.978)" fill="#12263f"/><path d="M416.2,3412.047l-.879,1.01-1-.8.788-1.073Z" transform="translate(-386.11 -3398.719)" fill="#12263f"/><path d="M456.882,3459.354l1.094-.766.756,1.169-1.158.674Z" transform="translate(-425.137 -3442.182)" fill="#12263f"/><path d="M331.678,3612.566H333c0,.358.012.711,0,1.063a.426.426,0,0,0,.285.47,1.738,1.738,0,0,1,1.013,1.752h-1.263a.662.662,0,0,0-.732-.644c-.314.015-.578.164-.587.466a.813.813,0,0,0,.314.6,12.149,12.149,0,0,0,1.208.628,1.843,1.843,0,0,1,1.089,1.72,1.88,1.88,0,0,1-1.087,1.725.528.528,0,0,0-.226.362c-.031.355-.011.715-.011,1.1h-1.324c0-.353-.012-.708,0-1.061a.4.4,0,0,0-.267-.439,1.833,1.833,0,0,1-1.066-1.755h1.284c.171.508.4.722.8.617a.783.783,0,0,0,.514-.434.729.729,0,0,0-.282-.6,9.165,9.165,0,0,0-1.171-.61,1.908,1.908,0,0,1-.036-3.479.478.478,0,0,0,.207-.334C331.695,3613.345,331.678,3612.974,331.678,3612.566Z" transform="translate(-309.118 -3583.366)" fill="#12263f"/><path d="M214.59,3560.141h-1.3c-.071-.41-.3-.723-.766-.622a.824.824,0,0,0-.544.45.731.731,0,0,0,.3.59,7.3,7.3,0,0,0,1.1.572,1.88,1.88,0,0,1,1.2,1.733,1.86,1.86,0,0,1-1.121,1.784.478.478,0,0,0-.193.345c-.025.357-.009.716-.009,1.108h-1.324c0-.333-.015-.674,0-1.013a.457.457,0,0,0-.3-.5,1.815,1.815,0,0,1-1.034-1.734h1.281c.177.507.4.717.8.615a.787.787,0,0,0,.517-.43.727.727,0,0,0-.276-.6,8.914,8.914,0,0,0-1.171-.61,1.908,1.908,0,0,1-.044-3.48.477.477,0,0,0,.211-.332c.027-.369.01-.74.01-1.135h1.324c0,.338.011.691,0,1.042a.431.431,0,0,0,.281.473A1.836,1.836,0,0,1,214.59,3560.141Z" transform="translate(-199.324 -3532.302)" fill="#12263f"/></svg>