<svg xmlns="http://www.w3.org/2000/svg" width="65.597" height="65.539" viewBox="0 0 65.597 65.539"><g transform="translate(-817.763 143.858)"><g transform="translate(817.763 -143.858)"><path d="M883.361-126.93v19.97a3.1,3.1,0,0,0-.126.431A18.842,18.842,0,0,1,871.58-91.116c-1.865.827-3.812,1.471-5.734,2.165a1.548,1.548,0,0,1-.931-.005c-.893-.286-1.767-.633-2.731-.987v11.625H817.808c-.014-.119-.028-.184-.028-.249,0-6.3-.048-12.608.019-18.911a10.378,10.378,0,0,1,8.719-10.008c2.255-.378,4.5-.808,6.752-1.209a.676.676,0,0,0,.664-.655c.115-.847.314-1.685.5-2.52a.654.654,0,0,0-.367-.836,11.242,11.242,0,0,1-4.663-5.244.766.766,0,0,0-.835-.53,4.209,4.209,0,0,1-3.847-6.367.753.753,0,0,0,.1-.534,12.521,12.521,0,0,1-.7-5.2,1.609,1.609,0,0,0-.431-1.182,7.335,7.335,0,0,1,1.862-11,17.917,17.917,0,0,1,2.791-1.1h4.1c.883.462,1.762.93,2.651,1.38a.654.654,0,0,0,.432.039c1.664-.465,3.323-.943,4.984-1.418h3.571a2.517,2.517,0,0,0,.427.132,13.366,13.366,0,0,1,11.148,15.7c-.047.221-.074.445-.119.72a23.967,23.967,0,0,0,9.264-3.72.877.877,0,0,1,1.16.012,22.093,22.093,0,0,0,10.276,3.828C878.6-126.964,880.986-127.007,883.361-126.93ZM834.3-98.772l-3.166-7.365c-1.459.261-2.862.516-4.267.762A8.108,8.108,0,0,0,820-97.895c-.165,2.944-.059,5.9-.07,8.856,0,.056.052.113.07.15h6.249v-4.136h2.125v12.6h23.274v-12.6h2.106v4.139h6.307c0-2.973.14-5.91-.036-8.828a7.682,7.682,0,0,0-5.278-7.164,44.326,44.326,0,0,0-5.828-1.32l-3.191,7.422-5.715-4.563Zm32.164-24.316v27.4c.6-.222,1.148-.44,1.705-.626a13.239,13.239,0,0,0,8.853-12.784c-.03-3.589-.005-7.179-.005-10.769v-.757A31.2,31.2,0,0,1,866.462-123.087Zm-14.731-3.89,1.376.25a11.229,11.229,0,0,0-1.123-9.852c-3.347-5.149-9.665-6.474-15.47-3.874.022.122.037.251.07.376a5.282,5.282,0,0,1-4.2,6.739,3.236,3.236,0,0,1-3.893-4.1c.528-1.631,2.08-2.446,4.037-2.112v2.039c-.352,0-.66-.017-.966,0a1.1,1.1,0,0,0-1.1,1.092A1.112,1.112,0,0,0,831.7-135.4a3.233,3.233,0,0,0,2.978-2.945,3.06,3.06,0,0,0-2.416-3.255,13.852,13.852,0,0,0-3.156-.113,5.242,5.242,0,0,0-4.881,6.238,5.282,5.282,0,0,0,5.266,4.311c2.248.024,4.5.005,6.744.006,2.072,0,4.144.006,6.215,0a2.678,2.678,0,0,0,2.809-2.2,2.662,2.662,0,0,0-1.884-2.961c-.161-.059-.319-.129-.522-.212l.645-1.919a4.592,4.592,0,0,1,3.878,4.364,1.3,1.3,0,0,0,.807,1.306,6.219,6.219,0,0,1,3.213,3.923A18.782,18.782,0,0,1,851.731-126.977Zm-21.2-2.071c0,2.386-.005,4.673.005,6.96a6.272,6.272,0,0,0,.115,1.048,9.578,9.578,0,0,0,10.67,7.771c3.939-.542,7.572-3.887,8.026-7.828a57.3,57.3,0,0,0,.16-5.869,4.4,4.4,0,0,0-2.862-4.221,5.236,5.236,0,0,1-4.835,2.159c-3.171-.072-6.344-.019-9.517-.019ZM864.3-123.13a27.241,27.241,0,0,1-7.877,2.188,1.764,1.764,0,0,0-1.522.918,1.731,1.731,0,0,1-.657.638,1.046,1.046,0,0,0-.521,1.093c.018,2.711.006,5.422.01,8.133,0,.727.023,1.454.029,2.181a.635.635,0,0,0,.591.7,9.586,9.586,0,0,1,4.136,2.108,10.309,10.309,0,0,1,3.715,8c0,.259.044.671.2.748a18.07,18.07,0,0,0,1.9.72Zm-2.1,28.956c0,.561.03,1-.009,1.44-.037.413.147.581.51.7.729.244,1.434.562,2.168.784a1.716,1.716,0,0,0,1,.009c1.452-.506,2.892-1.05,4.326-1.607a17.009,17.009,0,0,0,11.057-16.164q.008-7.537,0-15.074v-.732c-.444,0-.795-.007-1.145,0a25.931,25.931,0,0,1-14.341-3.8.734.734,0,0,0-.889.077,25.97,25.97,0,0,1-7.363,2.993c-.755.18-1.519.322-2.241.473l.685,2.012c.167-.013.364-.014.556-.044a24.465,24.465,0,0,0,7.957-2.475,1.651,1.651,0,0,1,1.8-.009,23,23,0,0,0,8.014,2.5c1.587.209,3.185.329,4.849.5,0,.214,0,.451,0,.687q0,6.612,0,13.223A15.234,15.234,0,0,1,869.391-94.5c-1.189.459-2.38.914-3.584,1.33a1.459,1.459,0,0,1-.872,0C864.043-93.465,863.169-93.814,862.2-94.175ZM819.947-80.419h6.242v-6.263h-6.242Zm33.864-6.291v6.289h6.226V-86.71Zm-17.253-24.858c-.19.954-.394,1.874-.541,2.8a.694.694,0,0,0,.274.557c1.116.7,2.249,1.377,3.392,2.035a.7.7,0,0,0,.587.041c1.274-.734,2.529-1.5,3.81-2.268l-.642-3.152A12.069,12.069,0,0,1,836.558-111.568Zm15.04-6.843c-.562-.178-.8.039-1,.5-.236.564-.585,1.081-.871,1.626a1.429,1.429,0,0,0-.219.6q-.021,3.535,0,7.07c0,.155.133.416.248.444.59.142,1.195.224,1.833.334Zm-18.273,11.94,1.831,4.278,2.98-2.395c-1.007-.607-1.931-1.115-2.8-1.7A1.868,1.868,0,0,0,833.325-106.471Zm11.549,4.276,1.884-4.393c-.531-.024-1.067-.213-1.416-.034-1.163.594-2.258,1.32-3.449,2.038Zm6.738-18.436a2.051,2.051,0,0,0,2.134-1.864,2.086,2.086,0,0,0-2.134-2.27Zm-23.221.011v-4.172a2.142,2.142,0,0,0-2.116,2.193A2.062,2.062,0,0,0,828.392-120.62Zm18.983,7c-.554.361-1.01.7-1.5.963a.586.586,0,0,0-.326.746c.165.748.313,1.5.471,2.248.205.975.3,1.04,1.356.948Zm-19.066-13.376v-2.083l-2.173-.639.46,3.084Z" transform="translate(-817.763 143.858)" fill="#12263f"/><path d="M940.7-9.049A3.317,3.317,0,0,1,937.63-6.62,3.373,3.373,0,0,1,934.2-9.04l-1.931.645a5.383,5.383,0,0,0,5.694,3.9c2.165-.138,4.437-2.039,4.655-3.927Zm-4.344-3.918a3.082,3.082,0,0,0-3.212-3.149,3.09,3.09,0,0,0-3.045,3.168c.587,0,1.178.012,1.768-.01a.442.442,0,0,0,.339-.212,1.034,1.034,0,0,1,1.064-.816c.611.021.909.454,1.045,1.019Zm8.471-.006a3.114,3.114,0,0,0-3.442-3.138,3.053,3.053,0,0,0-2.8,3.128h2.046a1.067,1.067,0,0,1,1.065-1c.641,0,.946.455,1.086,1.013Z" transform="translate(-915.208 33.046)" fill="#12263f"/><path d="M954.929,37.234l1.918.63c-.219,1.888-2.49,3.789-4.655,3.927a5.383,5.383,0,0,1-5.694-3.9l1.931-.645a3.373,3.373,0,0,0,3.432,2.42A3.316,3.316,0,0,0,954.929,37.234Z" transform="translate(-929.438 -13.236)" fill="#12263f"/><path d="M936.355-12.946h-2.04c-.135-.565-.434-1-1.045-1.019a1.034,1.034,0,0,0-1.064.816.442.442,0,0,1-.339.212c-.59.022-1.181.01-1.768.01a3.09,3.09,0,0,1,3.045-3.168A3.082,3.082,0,0,1,936.355-12.946Z" transform="translate(-915.208 33.026)" fill="#12263f"/><path d="M1000.252-12.973h-2.045c-.14-.558-.445-1.016-1.086-1.013a1.067,1.067,0,0,0-1.065,1H994.01a3.053,3.053,0,0,1,2.8-3.128A3.114,3.114,0,0,1,1000.252-12.973Z" transform="translate(-970.635 33.046)" fill="#12263f"/></g></g></svg>