<svg xmlns="http://www.w3.org/2000/svg" width="63.471" height="63.479" viewBox="0 0 63.471 63.479"><g transform="translate(-773.882 -992.35)"><g transform="translate(773.882 992.35)"><path d="M837.353,1005.147v50.675q-25.46,0-50.92.007a3.091,3.091,0,0,1-2.857-1.578c-1.4-2.267-2.83-4.51-4.217-6.782a2.394,2.394,0,0,1-.343-1.179q-.03-11.227-.015-22.453v-.777c-.7,0-1.318,0-1.934,0a3.035,3.035,0,0,1-3.183-3.165q-.006-8.092,0-16.184a3.031,3.031,0,0,1,3.18-3.167q4.19-.006,8.38,0h.721V992.35h38.39a3.777,3.777,0,0,0,.273.342q6.088,6.094,12.182,12.182A3.789,3.789,0,0,0,837.353,1005.147Zm-4.083,7.7H798.449v.765q0,5.5,0,11a2.4,2.4,0,0,1-4.379,1.5l-.739-.957v.88q0,10.139-.014,20.278a2.284,2.284,0,0,1-.321,1.123c-1.159,1.912-2.358,3.8-3.542,5.7-.117.188-.228.381-.358.6h46.165v-47.021h-1.99Zm-10.238-14.311H792.357v2.008c1.031,0,2.01-.005,2.99,0a3.029,3.029,0,0,1,3.1,3.118c.007,2.132,0,4.264,0,6.4v.679h32.715v-4.077h-8.131Zm-26.627,15.6q0-5.054,0-10.108c0-1.109-.338-1.443-1.455-1.444H777.422c-1.167,0-1.495.321-1.5,1.467q0,7.741,0,15.482c0,1.157.325,1.483,1.479,1.483,4.947,0,9.895.006,14.842-.01a1.035,1.035,0,0,1,.951.474q1.141,1.581,2.339,3.121a2.574,2.574,0,0,0,.618.433,2.5,2.5,0,0,0,.239-.726C796.411,1020.918,796.406,1017.528,796.406,1014.137Zm-5.164,31.421v-22.446H781.08v22.446Zm-.982-49.137h32.714v-1.979H788.242v6.062h2.017Zm34.854-.359v8.534h8.545Zm-43.189,51.588c.1.176.151.285.216.388q1.587,2.545,3.178,5.087c.522.829,1.185.818,1.714-.026q1.559-2.487,3.107-4.981c.084-.135.15-.283.248-.469Z" transform="translate(-773.882 -992.35)" fill="#12263f"/><path d="M1062.482,1300.2l-4.624-4.63c.454-.422.922-.881,1.417-1.307a.618.618,0,0,0,.153-.873,11.244,11.244,0,0,1,14.91-15.076c.478.228.753.2,1.078-.192.378-.458.806-.875,1.161-1.255l4.645,4.633c-.4.364-.877.816-1.375,1.239a.617.617,0,0,0-.157.872,11.215,11.215,0,0,1-6.465,15.534,10.838,10.838,0,0,1-8.5-.489.686.686,0,0,0-.975.182C1063.349,1299.3,1062.913,1299.736,1062.482,1300.2Zm14.3-20.366-15.789,15.789,1.394,1.429,15.819-15.816Zm-15.576,12.4c1.016-.743,1.881-1.5,1.221-2.889a.706.706,0,0,1-.023-.253,7.169,7.169,0,0,1,9.007-7.514.724.724,0,0,0,.528-.017c.5-.413.971-.87,1.49-1.347a9.123,9.123,0,0,0-12.223,12.02Zm4.478,4.572a9.14,9.14,0,0,0,10.677-2.115,9,9,0,0,0,1.486-10.012c-.385.41-.724.817-1.113,1.169a.861.861,0,0,0-.249.892,9.846,9.846,0,0,1,.174,2.655,7.13,7.13,0,0,1-8.965,6.034.758.758,0,0,0-.571.07C1066.648,1295.876,1066.213,1296.312,1065.685,1296.8Zm4.252-13.406a5.089,5.089,0,0,0-4.348,1.91,4.735,4.735,0,0,0-1.1,3.538Zm4.687,4.9-5.258,5.262C1071.959,1294.1,1075.125,1290.939,1074.624,1288.3Z" transform="translate(-1021.445 -1240.38)" fill="#12263f"/><path d="M981.712,1202.167V1200.2h32.694v1.967Z" transform="translate(-955.063 -1173.548)" fill="#12263f"/><path d="M981.605,1234.243v-1.95h32.687v1.95Z" transform="translate(-954.97 -1201.526)" fill="#12263f"/><path d="M1042.4,1168.337v1.948h-28.592v-1.948Z" transform="translate(-983.043 -1145.771)" fill="#12263f"/><path d="M941.779,1282.088v-1.969h13.235v1.969Z" transform="translate(-920.25 -1243.22)" fill="#12263f"/><path d="M955.038,1312.068v1.966H941.794v-1.966Z" transform="translate(-920.264 -1271.072)" fill="#12263f"/><path d="M941.975,1343.743h13.2v1.989h-13.2Z" transform="translate(-920.421 -1298.686)" fill="#12263f"/><path d="M941.793,1377.813v-1.968h13.221v1.968Z" transform="translate(-920.263 -1326.671)" fill="#12263f"/><path d="M955.184,1407.868v1.967H941.963v-1.967Z" transform="translate(-920.411 -1354.588)" fill="#12263f"/><path d="M955.185,1439.787v1.949H941.947v-1.949Z" transform="translate(-920.397 -1382.414)" fill="#12263f"/><path d="M983.833,1170.362h-1.949v-1.983h1.949Z" transform="translate(-955.213 -1145.808)" fill="#12263f"/><path d="M836.756,1090.56H839.8v-1.993h2.053v1.929c1.984.347,3.077,1.459,3.059,3.1h-1.986c-.185-.8-.749-1.026-1.526-.993-.846.036-1.7.008-2.6.008,0,.374-.019.689,0,1a1.054,1.054,0,0,0,1.137,1.047c.661.019,1.322,0,1.983.006a3.036,3.036,0,0,1,3.012,3.015c.011,1.018,0,2.036,0,3.1h-3.046v2.027H839.86v-1.966a3.063,3.063,0,0,1-2.531-1.342,11.245,11.245,0,0,1-.722-1.738h2.147c.2.858.829,1.041,1.636,1s1.615-.008,2.5-.008c0-.369.024-.7-.005-1.033a1.042,1.042,0,0,0-1.1-1.013c-.661-.021-1.322,0-1.983-.008a3.037,3.037,0,0,1-3.044-3.047C836.748,1092.653,836.756,1091.653,836.756,1090.56Z" transform="translate(-828.564 -1076.229)" fill="#12263f"/><path d="M864.012,1248.133v1.96h-1.971v-1.96Z" transform="translate(-850.737 -1215.335)" fill="#12263f"/><path d="M863.98,1280.026V1282H862v-1.971Z" transform="translate(-850.699 -1243.139)" fill="#12263f"/><path d="M861.936,1314.039v-1.964h1.975v1.964Z" transform="translate(-850.645 -1271.078)" fill="#12263f"/><path d="M864.055,1343.968v1.952h-1.986v-1.952Z" transform="translate(-850.761 -1298.882)" fill="#12263f"/><path d="M864.012,1377.858h-1.971v-1.982h1.971Z" transform="translate(-850.738 -1326.698)" fill="#12263f"/></g></g></svg>