<svg xmlns="http://www.w3.org/2000/svg" width="61.145" height="61.369" viewBox="0 0 61.145 61.369"><g transform="translate(-51.888 -1045.729)"><g transform="translate(51.888 1045.729)"><path d="M107.877,1107.1c.012-.2.034-.4.034-.6q0-13.605,0-27.211v-.685H57.073a3.746,3.746,0,0,0-.051.443q0,13.875,0,27.75c0,.1.015.2.023.3H54.886c.016-.2.047-.4.047-.593q0-13.634,0-27.268v-.669c-.664,0-1.277-.011-1.89,0a1.018,1.018,0,0,1-1.084-.675,1,1,0,0,1,.4-1.213c3.336-2.671,6.667-5.348,10.019-8a1.716,1.716,0,0,1,.992-.3c3.056-.022,6.113-.013,9.169-.013h.691v-4.021c-.852-.189-.99-.816-.959-1.618a9.264,9.264,0,0,1,7.7-8.506c.453-.061.907-.107,1.468-.172,0-1.051,0-2.12,0-3.188,0-1.3-.022-2.6-.01-3.895.009-1,.544-1.411,1.52-1.188a15.889,15.889,0,0,0,7.177,0c1-.23,1.528.189,1.536,1.231q.013,1.768,0,3.536a1.119,1.119,0,0,1-1.036,1.3,18.318,18.318,0,0,1-7.063.235v1.794a23.907,23.907,0,0,1,3.833,1.131,8.834,8.834,0,0,1,5.249,7.96c.047.86-.128,1.067-.956,1.382v4.018h.645c3.076,0,6.153-.012,9.229.016a1.9,1.9,0,0,1,1.088.364c3.229,2.548,6.435,5.124,9.644,7.7.259.208.494.446.74.67v.839a1.519,1.519,0,0,1-1.447.612c-.509-.04-1.024-.008-1.584-.008v.67q0,13.632,0,27.263c0,.2.021.4.033.6ZM55.9,1076.487H108.99c-.184-.165-.293-.275-.414-.371-2.213-1.772-4.432-3.536-6.635-5.321a1.675,1.675,0,0,0-1.139-.387q-17.2.015-34.391.009a9.314,9.314,0,0,0-2.911.091,9.032,9.032,0,0,0-2.274,1.718l-.094.074Zm34.615-14.255a7.462,7.462,0,0,0-2.879-4.746c-2.219-1.805-8.1-1.809-10.336,0a7.469,7.469,0,0,0-2.89,4.75Zm-6.972-12.246a15.187,15.187,0,0,0,5.994-.009v-1.838H83.544Zm-8.137,14.345v4.015h1.9v-4.015Zm4.076-.009v4.021h1.889v-4.021Zm4.069.01v3.995h1.9v-3.995Zm4.069,0v4h1.915v-4Z" transform="translate(-51.888 -1045.729)" fill="#12263f"/><path d="M382.253,1422.219c.013-1.916.082-3.833.024-5.746-.067-2.209.533-4.021,2.621-5.066-.939-3.061-.436-5.135,1.566-6.563a5.121,5.121,0,0,1,5.988-.012c1.993,1.441,2.5,3.564,1.549,6.567a4.42,4.42,0,0,1,2.424,2.935,6.636,6.636,0,0,1,.174,1.479c.029,2.135.03,4.271.041,6.406h-2.158c.005-2.352.036-4.7,0-7.055a2.28,2.28,0,0,0-1.775-2.016.557.557,0,0,0-.391.039c-.5.356-.974.737-1.471,1.12.466.7.88,1.355,1.333,1.984a1.35,1.35,0,0,1,.106,1.557c-.6,1.146-1.149,2.318-1.756,3.459a6.172,6.172,0,0,1-.724.912h-.719a4.414,4.414,0,0,1-.642-.754c-.638-1.214-1.23-2.453-1.858-3.673a1.279,1.279,0,0,1,.1-1.45c.467-.662.9-1.347,1.362-2.043-.489-.375-.922-.725-1.378-1.043a.705.705,0,0,0-.487-.105,2.284,2.284,0,0,0-1.783,2.072c-.026,2.332,0,4.664.007,7Zm7.2-9.442c.709-.552,1.435-1.047,2.078-1.632a3.011,3.011,0,0,0,.07-4.332,3.056,3.056,0,0,0-4.345.045,3.005,3.005,0,0,0,.141,4.327C388.041,1411.746,388.747,1412.232,389.455,1412.777Zm-.052,6.018c1.009-1.316,1.01-1.7.008-2.806-.215.319-.434.62-.624.939a.566.566,0,0,0-.1.418C388.9,1417.83,389.153,1418.3,389.4,1418.795Z" transform="translate(-342.568 -1360.85)" fill="#12263f"/><path d="M110.785,1422.236c.016-1.236.036-2.472.046-3.708.008-.958-.008-1.917,0-2.875a4.481,4.481,0,0,1,2.354-4.093c.084-.049.164-.106.239-.155-.928-3.108-.422-5.135,1.626-6.58a5.135,5.135,0,0,1,5.94.023c2,1.462,2.5,3.6,1.544,6.563a4.429,4.429,0,0,1,2.407,2.882,6.75,6.75,0,0,1,.191,1.535c.029,2.136.027,4.272.036,6.408h-2.158c.005-2.372.04-4.744,0-7.115a2.249,2.249,0,0,0-1.767-1.957.558.558,0,0,0-.391.04c-.5.355-.975.736-1.471,1.116.469.7.882,1.36,1.336,1.989a1.346,1.346,0,0,1,.1,1.556c-.6,1.145-1.15,2.318-1.757,3.46a6.1,6.1,0,0,1-.728.91h-.719a6.43,6.43,0,0,1-.716-.917c-.586-1.107-1.1-2.25-1.7-3.351a1.469,1.469,0,0,1,.124-1.764c.45-.6.838-1.243,1.265-1.886-.493-.378-.926-.728-1.382-1.045a.7.7,0,0,0-.487-.1,2.3,2.3,0,0,0-1.782,2.073c-.025,2.331,0,4.663,0,6.994Zm7.2-9.447c.69-.528,1.358-1,1.982-1.525a3.032,3.032,0,1,0-3.964,0C116.632,1411.79,117.3,1412.262,117.99,1412.79Zm-.037,6.033c.992-1.4.99-1.747-.007-2.81-.215.319-.436.622-.626.943a.556.556,0,0,0-.086.418C117.445,1417.856,117.7,1418.321,117.952,1418.823Z" transform="translate(-103.71 -1360.868)" fill="#12263f"/><path d="M246.519,1422.233c.015-2.155.037-4.31.041-6.465a4.575,4.575,0,0,1,1.4-3.5,13.3,13.3,0,0,1,1.188-.9c-.922-3.059-.413-5.1,1.635-6.544a5.128,5.128,0,0,1,5.939.022c1.995,1.452,2.5,3.581,1.545,6.566a4.429,4.429,0,0,1,2.427,2.936,6.6,6.6,0,0,1,.173,1.479c.027,2.135.027,4.271.037,6.407h-2.158c.006-2.352.039-4.7.005-7.055a2.274,2.274,0,0,0-1.774-2.017.557.557,0,0,0-.391.039c-.5.355-.975.735-1.473,1.117.469.7.883,1.359,1.336,1.988a1.349,1.349,0,0,1,.105,1.556c-.6,1.146-1.15,2.318-1.756,3.46a6.135,6.135,0,0,1-.727.911h-.719a4.444,4.444,0,0,1-.64-.755c-.638-1.214-1.232-2.452-1.857-3.673a1.287,1.287,0,0,1,.1-1.451c.467-.661.9-1.346,1.362-2.04-.491-.376-.924-.727-1.38-1.044a.7.7,0,0,0-.487-.1,2.29,2.29,0,0,0-1.782,2.072c-.025,2.331,0,4.663.006,6.995Zm7.2-9.443c.7-.543,1.409-1.03,2.047-1.594a3.021,3.021,0,0,0,.142-4.331,3.056,3.056,0,0,0-4.344-.032,3,3,0,0,0,.067,4.328C252.277,1411.744,253,1412.238,253.719,1412.79Zm.02,6.008c.922-1.555.91-1.928-.064-2.745C252.748,1417.247,252.749,1417.417,253.739,1418.8Z" transform="translate(-223.139 -1360.864)" fill="#12263f"/><path d="M436.474,1342.157c-.638,0-1.276,0-1.914,0a1.014,1.014,0,0,1-1.157-1.075q-.044-1.973,0-3.948a1.019,1.019,0,0,1,1.154-1.082q1.914-.011,3.828,0a1.038,1.038,0,0,1,1.162,1.138q.032,1.914,0,3.828c-.013.78-.418,1.134-1.219,1.139C437.711,1342.16,437.093,1342.157,436.474,1342.157Zm.961-4.029H435.51v1.96h1.926Z" transform="translate(-387.555 -1301.172)" fill="#12263f"/><path d="M131.188,1336.053c.638,0,1.276-.007,1.914,0a1.032,1.032,0,0,1,1.143,1.1c.023,1.316.025,2.632,0,3.948a1.007,1.007,0,0,1-1.113,1.059q-1.944.013-3.888,0a.989.989,0,0,1-1.131-1.032q-.049-2.033,0-4.067a.981.981,0,0,1,1.1-1C129.872,1336.046,130.53,1336.053,131.188,1336.053Zm.931,4.047v-1.959h-1.906v1.959Z" transform="translate(-118.933 -1301.176)" fill="#12263f"/><path d="M283.817,1342.149c-.638,0-1.276.005-1.914,0-.7-.007-1.123-.34-1.14-1.025q-.052-2.032,0-4.067a.982.982,0,0,1,1.095-1.012q1.974-.015,3.948,0a1,1,0,0,1,1.085,1.027q.048,2.033,0,4.067a.992.992,0,0,1-1.1,1.008C285.133,1342.157,284.475,1342.149,283.817,1342.149Zm.97-2.064v-1.965h-1.925v1.965Z" transform="translate(-253.246 -1301.164)" fill="#12263f"/><path d="M363.4,1339.094c0,.658.009,1.316,0,1.974a.982.982,0,0,1-1.078,1.074q-1.974.014-3.948,0a.986.986,0,0,1-1.08-1.075q-.017-1.974,0-3.948a.992.992,0,0,1,1.08-1.079q1.974-.017,3.948,0a.99.99,0,0,1,1.077,1.08C363.408,1337.778,363.4,1338.436,363.4,1339.094Zm-4.042-.99v1.972h1.963V1338.1Z" transform="translate(-320.597 -1301.16)" fill="#12263f"/><path d="M210.709,1339.094c0,.658.01,1.316,0,1.974a.979.979,0,0,1-1.076,1.075q-1.974.014-3.948,0a.99.99,0,0,1-1.082-1.074q-.018-1.974,0-3.948a.994.994,0,0,1,1.082-1.08q1.974-.017,3.948,0a.989.989,0,0,1,1.076,1.079C210.718,1337.778,210.709,1338.436,210.709,1339.094Zm-4.029-.99v1.96h1.958v-1.96Z" transform="translate(-186.248 -1301.16)" fill="#12263f"/></g></g></svg>