<svg xmlns="http://www.w3.org/2000/svg" width="48.346" height="61.885" viewBox="0 0 48.346 61.885"><path d="M28.245,4295.777v1.933H25.7c-.7,0-1.41-.008-2.115,0a1,1,0,0,0-1.114,1.122c0,.1,0,.2,0,.3q0,25.828,0,51.655c0,1.317.231,1.551,1.536,1.551q11.9,0,23.8-.009a1.537,1.537,0,0,1,1.173.446c.535.511,1.145.941,1.788,1.456-.219.017-.384.04-.549.04q-13.291,0-26.583,0a2.9,2.9,0,0,1-3.1-3.091q0-26.161,0-52.32a2.9,2.9,0,0,1,3.1-3.087C25.154,4295.775,26.663,4295.777,28.245,4295.777Z" transform="translate(-20.54 -4292.392)" fill="#12263f"/><path d="M91.159,4367.37c-1.157-1.686-1.056-2.735.34-4.117.258-.254.513-.513.77-.767a2.536,2.536,0,0,1,3.587-.244c.062.047.129.089.245.168.044-.187.09-.333.112-.482a2.509,2.509,0,0,1,2.437-2.178c.563-.016,1.128,0,1.692,0a2.514,2.514,0,0,1,2.7,2.3c.016.1.046.191.067.28.061.009.109.032.131.017,1.514-1.065,2.6-.977,3.9.321.285.285.574.565.856.853a2.533,2.533,0,0,1,.245,3.585c-.047.063-.087.132-.172.262.21.042.374.08.541.105a2.508,2.508,0,0,1,2.121,2.362c.022.644.014,1.289,0,1.933a2.5,2.5,0,0,1-2.227,2.514,2.644,2.644,0,0,0-.3.071c.216.578.435,1.127.62,1.687a1.338,1.338,0,0,1,.008.538,5.492,5.492,0,0,1-3.287,3.483,2.7,2.7,0,0,1-2.344-.694,13.59,13.59,0,0,1-.6,1.48,2.068,2.068,0,0,1-1.707,1.1,16.671,16.671,0,0,1-2.532.01,2.383,2.383,0,0,1-2.074-1.837c-.064-.248-.116-.5-.186-.8a2.634,2.634,0,0,1-2.772.624,3.4,3.4,0,0,1-.956-.6c-.426-.367-.809-.784-1.2-1.188a2.516,2.516,0,0,1-.2-3.495c.057-.075.1-.158.184-.281-.2-.042-.353-.08-.507-.1a2.5,2.5,0,0,1-2.151-2.4c-.019-.583-.007-1.168,0-1.752a2.51,2.51,0,0,1,2.321-2.672C90.915,4367.432,91.008,4367.4,91.159,4367.37Zm6.945,11.568c.007,1.01.132,1.134,1.115,1.124.181,0,.363-.015.544-.007,1.517.061,1.373-.231,1.359-1.319-.01-.826,2.024-1.892,2.739-1.458a1.756,1.756,0,0,1,.272.237c.132.124.264.249.39.378a.641.641,0,0,0,1.043.006c.339-.345.687-.681,1.024-1.027.439-.452.433-.706-.015-1.173-.111-.116-.227-.229-.342-.341-.3-.293-.493-.666-.246-1.027.443-.646.257-1.713,1.291-1.959a1.708,1.708,0,0,1,.361-.016c.161,0,.322,0,.483,0a.609.609,0,0,0,.676-.674c.005-.544.007-1.088,0-1.632a.607.607,0,0,0-.68-.668l-.665,0a.933.933,0,0,1-.95-.69,9.676,9.676,0,0,0-.463-1.113.937.937,0,0,1,.235-1.245c.105-.093.2-.2.3-.3.447-.466.452-.716.012-1.172-.28-.29-.567-.572-.853-.855-.6-.59-.785-.588-1.387.007-.086.084-.171.171-.259.254-.865.817-1.509-.17-2.258-.289a.85.85,0,0,1-.715-.856c-.142-1.44-.146-1.439-1.618-1.439H99.32c-1.15,0-1.171.02-1.194,1.19-.017.873-1.915,2.017-2.689,1.616a1.681,1.681,0,0,1-.329-.26c-.149-.135-.291-.278-.435-.418a.627.627,0,0,0-1,.021c-.354.358-.7.72-1.069,1.067a.664.664,0,0,0,0,1.09c.129.127.254.258.382.386.852.853-.128,1.505-.255,2.25a.864.864,0,0,1-.891.752c-.08,0-.161,0-.242,0h-.483a.606.606,0,0,0-.687.662c-.009.543-.007,1.088,0,1.632a.61.61,0,0,0,.669.681c.2,0,.4,0,.6,0,.863.029,1.943,2.023,1.494,2.764a1.747,1.747,0,0,1-.237.271c-.125.131-.253.259-.381.388a.643.643,0,0,0,.006,1.043c.362.349.717.707,1.069,1.067s.735.4,1.034,0a1.434,1.434,0,0,1,2.193-.347,1.153,1.153,0,0,0,.335.134A1.014,1.014,0,0,1,98.1,4378.938Z" transform="translate(-80.279 -4348.626)" fill="#12263f"/><path d="M247.661,4618.025a11.119,11.119,0,1,1,11.119-11.088A11.124,11.124,0,0,1,247.661,4618.025Zm.016-1.937a9.183,9.183,0,1,0-9.2-9.167A9.2,9.2,0,0,0,247.677,4616.089Z" transform="translate(-210.434 -4556.141)" fill="#12263f"/><path d="M110.171,4276.962q-3.714,0-7.427,0a1.969,1.969,0,0,1-2.211-2.237q0-2.385,0-4.77a1.949,1.949,0,0,1,2.151-2.177q7.518,0,15.036,0a1.941,1.941,0,0,1,2.15,2.117q.008,2.476,0,4.951a1.944,1.944,0,0,1-2.15,2.115Q113.945,4276.965,110.171,4276.962Zm-7.706-1.981H117.9v-5.222H102.465v5.222Z" transform="translate(-90.862 -4267.776)" fill="#12263f"/><path d="M276.7,4297.7v-1.882a4.694,4.694,0,0,1,.472-.049c1.43,0,2.859-.01,4.289,0a2.873,2.873,0,0,1,2.951,2.932q0,12.746-.01,25.489c0,1.752.009,3.5.014,5.255,0,.216,0,.432,0,.652H282.48v-.744q0-15.1,0-30.2c0-1.192-.261-1.455-1.448-1.455Z" transform="translate(-245.737 -4292.376)" fill="#12263f"/><path d="M96.237,4559.742h10.144a3.04,3.04,0,0,1,.542.013.962.962,0,0,1,.018,1.906,2.862,2.862,0,0,1-.542.015H85.93a3.582,3.582,0,0,1-.542-.015.949.949,0,0,1-.815-.973.928.928,0,0,1,.8-.925,2.838,2.838,0,0,1,.6-.02Q91.1,4559.74,96.237,4559.742Z" transform="translate(-76.832 -4524.448)" fill="#12263f"/><path d="M106.327,4599.835c-.657.614-1.261,1.2-1.888,1.75a.807.807,0,0,1-.494.138q-9.146.01-18.292,0a.973.973,0,0,1-1.1-.945.962.962,0,0,1,1.06-.981q10.263-.006,20.525,0A1.344,1.344,0,0,1,106.327,4599.835Z" transform="translate(-76.819 -4559.665)" fill="#12263f"/><path d="M102.3,4639.828a15.813,15.813,0,0,1-.651,1.609.8.8,0,0,1-.617.271c-4.107.017-8.213.013-12.32.013-1.027,0-2.053.007-3.08,0a.97.97,0,1,1,.006-1.927q8.213-.007,16.426,0A1.886,1.886,0,0,1,102.3,4639.828Z" transform="translate(-76.819 -4594.825)" fill="#12263f"/><path d="M101.57,4719.809l.763,1.906H85.847a2.16,2.16,0,0,1-.481-.019.934.934,0,0,1-.793-.93.955.955,0,0,1,.818-.97,2.228,2.228,0,0,1,.362-.013q7.7,0,15.4,0C101.289,4719.782,101.428,4719.8,101.57,4719.809Z" transform="translate(-76.832 -4665.147)" fill="#12263f"/><path d="M101,4679.806v1.859c-.164.016-.318.042-.473.042q-7.368,0-14.736,0a1.644,1.644,0,0,1-.537-.05.912.912,0,0,1-.67-.963.931.931,0,0,1,.765-.894,1.648,1.648,0,0,1,.421-.023q7.368,0,14.736,0C100.661,4679.776,100.816,4679.794,101,4679.806Z" transform="translate(-76.841 -4629.976)" fill="#12263f"/><path d="M150.21,4416.594a4.834,4.834,0,1,1-4.854-4.814A4.826,4.826,0,0,1,150.21,4416.594Zm-1.936.015a2.9,2.9,0,1,0-2.922,2.9A2.907,2.907,0,0,0,148.274,4416.609Z" transform="translate(-126.038 -4394.375)" fill="#12263f"/><path d="M284.335,4668.347l5.762-3.957c.166-.114.331-.229.5-.334a.966.966,0,1,1,1.057,1.61c-.788.557-1.587,1.1-2.383,1.645q-2.163,1.487-4.328,2.97c-.743.507-1.13.454-1.71-.223q-1.159-1.351-2.31-2.71c-.472-.56-.482-1.1-.046-1.493s1.029-.31,1.52.249C283.048,4666.839,283.682,4667.588,284.335,4668.347Z" transform="translate(-249.134 -4615.979)" fill="#12263f"/></svg>