<svg xmlns="http://www.w3.org/2000/svg" width="85.28" height="51.49" viewBox="0 0 85.28 51.49"><g transform="translate(68.967 -169.482)"><g transform="translate(-68.967 169.482)"><path d="M23.023,209.246c2.026.422,2.992,1.66,2.851,3.556a3.541,3.541,0,0,1-3.52,3.085c-1.554.024-3.109.018-4.663,0a.784.784,0,0,0-.8.469,8.952,8.952,0,0,1-10.69,4.122,7.242,7.242,0,0,1-4.32-4.1.693.693,0,0,0-.756-.49q-13.192.017-26.385,0a.839.839,0,0,0-.832.5,8.925,8.925,0,0,1-10.654,4.093A7.123,7.123,0,0,1-41,216.545a.95.95,0,0,0-1.047-.666c-2.426.034-4.852.014-7.278.015-1.949,0-3.328-1.1-3.485-2.781a3.512,3.512,0,0,1,2.993-3.8c.13-.021.257-.054.441-.093l.762-8.685c-.238-.011-.44-.029-.641-.029-1.952,0-3.9,0-5.857,0-.8,0-1.287-.412-1.328-1.095a1.133,1.133,0,0,1,1.18-1.288q7.733-.014,15.467-.006a1.163,1.163,0,0,1,1.232,1.2A1.152,1.152,0,0,1-39.8,200.5q-2.9.017-5.8-.006c-.43,0-.619.069-.657.574-.186,2.507-.427,5.01-.649,7.515-.016.186-.032.372-.054.622a4.806,4.806,0,0,0,.482.048c1.744,0,3.488-.008,5.231.011a.672.672,0,0,0,.667-.394,8.969,8.969,0,0,1,6.786-4.622,7.636,7.636,0,0,1,8.31,4.581.587.587,0,0,0,.623.434q10.69-.015,21.381-.01c.093,0,.187-.015.371-.032L.149,171.895H-43.712l-.413,4.771h.651q3.1,0,6.2,0a1.137,1.137,0,0,1,1.29,1.117,1.2,1.2,0,0,1-1.238,1.265c-.189.012-.379,0-.569,0q-9.382,0-18.765,0a2.893,2.893,0,0,1-.62-.042,1.163,1.163,0,0,1-.979-1.315,1.17,1.17,0,0,1,1.226-1.024q4.862-.008,9.724,0h.672c.117-1.327.229-2.6.341-3.88.066-.753.121-1.506.2-2.257a1.138,1.138,0,0,1,1.3-1.047H1.147c1.178,0,1.571.373,1.478,1.532-.213,2.657-.462,5.311-.694,7.966-.021.24-.026.481-.042.788.307,0,.567,0,.826,0,1.912.024,3.831-.042,5.736.094a16.344,16.344,0,0,1,10.391,4.568,16.513,16.513,0,0,1,5.165,11.345,34.777,34.777,0,0,1-.2,4.643c-.154,2.091-.363,4.177-.548,6.265C23.179,207.529,23.1,208.372,23.023,209.246Zm-2.4.015c.106-1.274.2-2.441.3-3.607.238-2.709.541-5.413.707-8.126a13.986,13.986,0,0,0-1.67-7.668,13.97,13.97,0,0,0-11.639-7.6c-2.087-.184-4.2-.079-6.3-.1a2.847,2.847,0,0,0-.371.049L-.711,209.256c.85,0,1.642.029,2.43-.018a.934.934,0,0,0,.649-.384,10.03,10.03,0,0,1,2.729-3c4.084-2.967,10.343-2.061,12.467,3.125.048.116.2.27.3.272C18.768,209.27,19.673,209.261,20.625,209.261Zm-53.277-2.68a6.809,6.809,0,0,0-6.61,5.619,5.317,5.317,0,0,0,5.41,6.357,6.747,6.747,0,0,0,6.429-5.2A5.329,5.329,0,0,0-32.652,206.581ZM9.043,218.556a6.743,6.743,0,0,0,6.634-7.154,5.28,5.28,0,0,0-4.171-4.714,6.743,6.743,0,0,0-7.808,5.62A5.284,5.284,0,0,0,9.043,218.556ZM1.32,211.685H-24.817l-.138,1.771H1.2Zm-42.955-.036h-.67q-3.377,0-6.753,0a2.16,2.16,0,0,0-.449.041,1.147,1.147,0,0,0-.911,1.136c.053.461.388.677,1.069.677q3.547,0,7.094,0c.163,0,.325-.02.5-.031Zm59.626,1.857c1.5,0,2.922.036,4.336-.026a1.538,1.538,0,0,0,.981-.562.725.725,0,0,0-.529-1.243c-1.526-.041-3.054-.013-4.61-.013Z" transform="translate(59.393 -169.482)" fill="#12263f"/><path d="M28.294,358.6H38.3c.9,0,1.37.391,1.385,1.134.015.722-.489,1.2-1.327,1.251-.113.007-.227,0-.341,0q-9.778,0-19.557,0a2.976,2.976,0,0,1-.673-.07,1.167,1.167,0,0,1,.274-2.313Q23.177,358.594,28.294,358.6Z" transform="translate(-7.075 -337.089)" fill="#12263f"/><path d="M83.384,295.4q4.606,0,9.211,0c.916,0,1.464.5,1.415,1.256a1.155,1.155,0,0,1-.977,1.1,2.951,2.951,0,0,1-.51.027q-9.154,0-18.309,0a1.19,1.19,0,0,1-1.324-.91,1.162,1.162,0,0,1,.624-1.33,2.182,2.182,0,0,1,.827-.133C77.357,295.4,80.37,295.4,83.384,295.4Z" transform="translate(-56.73 -281.076)" fill="#12263f"/><path d="M139.771,421.185h4.888a1.255,1.255,0,0,1,1.407,1.217,1.22,1.22,0,0,1-1.379,1.177q-4.888.007-9.776,0c-.862,0-1.365-.445-1.38-1.177s.535-1.209,1.409-1.211c1.61,0,3.221,0,4.831,0Z" transform="translate(-110.501 -392.56)" fill="#12263f"/><path d="M-23.605,297.73c-1.079,0-2.158.007-3.237,0a1.186,1.186,0,0,1-1.329-1.216,1.2,1.2,0,0,1,1.34-1.164q3.323-.007,6.646.005a1.149,1.149,0,0,1,1.308,1.169,1.13,1.13,0,0,1-1.263,1.209c-1.155.021-2.31.005-3.465.005Z" transform="translate(32.811 -281.032)" fill="#12263f"/><path d="M160.161,232.636c.947,0,1.894,0,2.841,0a1.176,1.176,0,0,1,1.283,1.149A1.232,1.232,0,0,1,163,235.019c-1.724.013-3.447.006-5.171,0a3.964,3.964,0,0,1-.9-.066,1.171,1.171,0,0,1,.279-2.316C158.191,232.628,159.176,232.635,160.161,232.636Z" transform="translate(-130.414 -225.451)" fill="#12263f"/><path d="M-65.147,358.569c.852,0,1.7,0,2.556,0a1.152,1.152,0,0,1,1.209,1.032,1.169,1.169,0,0,1-.945,1.285,2.221,2.221,0,0,1-.5.067c-1.571.005-3.143.012-4.714,0-.893-.007-1.421-.467-1.423-1.194a1.093,1.093,0,0,1,1.151-1.189c.89-.011,1.78,0,2.669,0Z" transform="translate(68.967 -337.06)" fill="#12263f"/><path d="M132.824,517.364A3.747,3.747,0,0,0,129,521.1a3.313,3.313,0,0,0,3.249,3.334,3.775,3.775,0,0,0,3.889-3.617A3.21,3.21,0,0,0,132.824,517.364Z" transform="translate(-106.483 -477.8)" fill="#12263f"/><path d="M510.213,524.373a3.747,3.747,0,0,0,3.776-3.729,3.212,3.212,0,0,0-3.306-3.349,3.753,3.753,0,0,0-3.822,3.743A3.288,3.288,0,0,0,510.213,524.373Z" transform="translate(-441.374 -477.738)" fill="#12263f"/><path d="M486.518,315.846H476.3c-1.059,0-1.52-.5-1.425-1.561q.559-6.265,1.124-12.53a1.131,1.131,0,0,1,1.074-1.116,16.614,16.614,0,0,1,6.169.674,12.2,12.2,0,0,1,8.319,9.648,17.429,17.429,0,0,1,.178,3.608c-.012.814-.489,1.165-1.3,1.167-1.306,0-2.612,0-3.919,0Zm2.839-2.456A10.137,10.137,0,0,0,478.27,303.1l-.9,10.292Z" transform="translate(-413.013 -285.707)" fill="#12263f"/><path d="M132.824,517.364a3.21,3.21,0,0,1,3.312,3.455,3.775,3.775,0,0,1-3.889,3.617A3.313,3.313,0,0,1,129,521.1,3.747,3.747,0,0,1,132.824,517.364Zm-.068,2.378a1.49,1.49,0,0,0-1.365,1.343.973.973,0,0,0,.98.961,1.415,1.415,0,0,0,1.375-1.375A.911.911,0,0,0,132.756,519.742Z" transform="translate(-106.483 -477.8)" fill="#12263f"/><path d="M510.213,524.373a3.288,3.288,0,0,1-3.352-3.335,3.753,3.753,0,0,1,3.822-3.743,3.212,3.212,0,0,1,3.306,3.349A3.747,3.747,0,0,1,510.213,524.373Zm1.39-3.773a.909.909,0,0,0-1-.915,1.46,1.46,0,0,0-1.351,1.343.959.959,0,0,0,.978.957A1.436,1.436,0,0,0,511.6,520.6Z" transform="translate(-441.374 -477.738)" fill="#12263f"/></g></g></svg>