<svg xmlns="http://www.w3.org/2000/svg" width="93" height="94" viewBox="0 0 93 94">
  <g id="Grupo_947612" data-name="Grupo 947612" transform="translate(0.275 -0.334)">
    <ellipse id="Elipse_4870" data-name="Elipse 4870" cx="46.5" cy="47" rx="46.5" ry="47" transform="translate(-0.275 0.334)" fill="#7dcbde"/>
    <g id="VImxG3.tif" transform="translate(-35.173 -129.155)">
      <g id="Grupo_948862" data-name="Grupo 948862" transform="translate(50.758 140.644)">
        <path id="Trazado_622793" data-name="Trazado 622793" d="M110.722,201.917H52.091a2.2,2.2,0,0,1-1.331-2.347c.059-2.212.013-4.426.019-6.64a1.777,1.777,0,0,1,1.905-1.9c.55,0,1.1,0,1.682,0,0-2.453.007-4.823-.016-7.194a.666.666,0,0,0-.357-.443,5.385,5.385,0,0,1,2.3-10.313c1.575-.008,3.15,0,4.725,0h.649c0-1.768,0-3.442,0-5.117a1.815,1.815,0,0,1,2.043-2.064q2.6,0,5.2,0c1.247-5.906,4.8-9.463,10.708-10.71v-.651q0-5.952,0-11.9a1.8,1.8,0,0,1,2-1.985q5.174,0,10.347,0a1.8,1.8,0,0,1,2,1.983q0,3.38,0,6.76a1.806,1.806,0,0,1-2.024,2.023q-4.037,0-8.075,0h-.651v3.779q8.827,1.862,10.689,10.706H94.5c1.595,0,3.19-.006,4.785,0a1.77,1.77,0,0,1,1.865,1.88c.007.738,0,1.476,0,2.213v3.085h.647c1.615,0,3.23-.014,4.845,0a5.33,5.33,0,0,1,4.215,2.023,6.659,6.659,0,0,1,1.184,2.638V179.3a.962.962,0,0,0-.106.211,5.405,5.405,0,0,1-3.173,3.919.774.774,0,0,0-.3.595c-.023,1.83-.013,3.66-.013,5.49v1.5c1.377.079,2.9-.377,3.592,1.327V200.6A2.569,2.569,0,0,1,110.722,201.917ZM76.024,191v-.694q0-5.772,0-11.543a3.061,3.061,0,0,1,.06-.769,1.789,1.789,0,0,1,3.519.488q.011,5.921,0,11.842V191H83.2v-.678q0-5.772,0-11.543a3.143,3.143,0,0,1,.056-.77,1.79,1.79,0,0,1,3.523.469q.012,5.921,0,11.842V191h3.559a2.172,2.172,0,0,0,.032-.252c0-4.845.008-9.689-.015-14.534a.936.936,0,0,0-.4-.63c-2.69-1.817-5.4-3.6-8.089-5.422a.706.706,0,0,0-.942,0q-4.009,2.709-8.053,5.368a.9.9,0,0,0-.458.866q.019,7,.008,14V191Zm-10.75-17.924c1.472,0,2.885.017,4.3-.013a1.845,1.845,0,0,0,.931-.284c3.191-2.106,6.367-4.234,9.548-6.353a1.952,1.952,0,0,1,2.73.011c2.536,1.689,5.134,3.293,7.582,5.1a6.965,6.965,0,0,0,5.233,1.553,15.473,15.473,0,0,1,1.937-.013v-3.595h-.611c-1.574,0-3.149.008-4.723,0a1.763,1.763,0,0,1-1.815-1.75c-.009-.159-.012-.319-.023-.478a8.935,8.935,0,0,0-13.008-7.53,8.753,8.753,0,0,0-4.92,7.907,1.779,1.779,0,0,1-1.9,1.852c-1.256.007-2.511,0-3.767,0h-1.5ZM95.994,198.3c-.794-1.217-1.533-2.368-2.3-3.5a.707.707,0,0,0-.516-.177q-11.777-.013-23.554,0c-.162,0-.4.034-.475.142-.778,1.147-1.529,2.311-2.331,3.536Zm-38-14.428v7.11H68.812v-7.11Zm36,7.116h10.818v-7.111H94ZM68.817,176.663h-.634q-5.772,0-11.545,0a4.017,4.017,0,0,0-.831.061,1.778,1.778,0,0,0-1.418,1.509,1.715,1.715,0,0,0,.841,1.721,2.777,2.777,0,0,0,1.2.288c4.008.02,8.016.012,12.023.011.114,0,.229-.013.368-.021ZM94,180.258H105.73c.339,0,.68.019,1.016-.014a1.789,1.789,0,0,0,1.572-2.413,1.9,1.9,0,0,0-1.965-1.166q-5.922,0-11.844,0c-.171,0-.342.022-.513.034Zm-29.121,14.4H54.39v3.6c.062.029.1.059.13.059q3.829.008,7.657.005a.549.549,0,0,0,.4-.168C63.344,197.017,64.087,195.866,64.875,194.658Zm43.535,3.671v-3.671H97.935c.783,1.2,1.516,2.331,2.27,3.451a.6.6,0,0,0,.438.21C103.215,198.333,105.786,198.329,108.41,198.329Zm-25.17-54.071v3.52h7.111v-3.52Z" transform="translate(-50.758 -140.644)" fill="#12263f"/>
        <path id="Trazado_622795" data-name="Trazado 622795" d="M550.924,642.067a2.569,2.569,0,0,0,1.316-1.316v1.316Z" transform="translate(-490.96 -580.794)" fill="#12263f"/>
      </g>
    </g>
  </g>
</svg>
