<svg xmlns="http://www.w3.org/2000/svg" xmlns:xlink="http://www.w3.org/1999/xlink" width="273.692" height="202.829" viewBox="0 0 273.692 202.829"><defs><linearGradient id="a" x1="0.5" x2="0.5" y2="1" gradientUnits="objectBoundingBox"><stop offset="0" stop-color="#fdbe41"/><stop offset="1" stop-color="#d09f40"/></linearGradient></defs><g transform="translate(555.018 -106.523)"><path d="M-197.152,471.139a39.211,39.211,0,0,1-11.436.141c-3.076-1.1-4.061-3.422-4.054-6.52q.061-27.415.019-54.831c0-2.666-1-3.4-3.6-2.731a.955.955,0,0,0-.829,1.077c0,.587-.011,1.174-.011,1.761q0,26.645-.013,53.29a16.218,16.218,0,0,1-.28,3.053,5.065,5.065,0,0,1-5.182,4.444c-2.641.063-5.285.042-7.928.013-3.69-.041-5.844-2.212-5.846-5.915q-.015-27.526.03-55.051c.005-1.759-.208-2.744-2.273-3.035-2.3-.323-3.461-2.048-3.516-4.382-.045-1.907-.022-3.817-.029-5.725l1.81,0c-.007,1.687-.044,3.374-.015,5.06.04,2.325,1.018,3.386,3.335,3.4,6.308.047,12.618-.012,18.926.042,1.3.011,1.62-.5,1.581-1.687-.073-2.272-.032-4.547-.039-6.821h3.187c-.013,2.27.017,4.541-.058,6.808-.039,1.184.289,1.709,1.587,1.7,6.371-.051,12.743,0,19.114-.04,2.18-.014,3.255-1.031,3.381-3.2.1-1.75,0-3.513-.007-5.27l1.866-.006c-.008,1.759.018,3.52-.033,5.278-.083,2.859-1.4,4.531-4.252,4.967-1.583.242-1.915.876-1.911,2.382.054,18.549,0,37.1.07,55.648C-193.546,467.88-194.538,469.918-197.152,471.139Z" transform="translate(-174.98 -162.276)" fill="#12263f"/><path d="M-486.965,461.955c-8.615.05-17.23.113-25.845.14-2.4.007-4.809-.093-7.213-.144l3.114-13.185a18.121,18.121,0,0,0,3.45.273c7.364-.8,11.532-6.77,9.834-13.975,2.24-.183,2.9-1.56,3.011-3.621.111-2.156.5-4.3.775-6.447.219-.021.437-.056.656-.06A19.684,19.684,0,0,0-480.311,400.3a24.14,24.14,0,0,0-5.17-9.309l2.2-10.822c1.484,1.18,2.785,2.217,4.09,3.25,6.216,4.92,12.407,9.872,18.674,14.726a3.212,3.212,0,0,1,1.4,3.141c-.339,4.974-.5,9.959-.832,14.933a8.139,8.139,0,0,0,1.006,4.815c2.063,3.63,1.99,3.667-.571,6.843-2.167,2.686-4.277,5.419-6.509,8.048-.924,1.089-1.172,1.909-.32,3.236,1.542,2.4,2.735,5.027,4.259,7.443.879,1.395.482,1.929-.819,2.6-7.55,3.9-15.062,7.878-22.583,11.837C-485.995,461.315-486.472,461.65-486.965,461.955Z" transform="translate(-19.569 -153.022)" fill="#12263f"/><path d="M-277.944,298.013c4.679-13.87,9.3-27.759,14.076-41.6a28.919,28.919,0,0,0,1.792-10.506,8.011,8.011,0,0,1,8.031-8.173c3.377-.047,6.759.072,10.135-.031,4.23-.129,7.174,1.655,8.93,5.666a32.467,32.467,0,0,1,1.851-2.7,7.847,7.847,0,0,1,6.352-2.954c3.6.033,7.2-.011,10.8.013,4.55.031,8.669,3.357,8.326,7.879-.6,7.914,2.478,14.757,5.014,21.819q5.493,15.3,11.047,30.572c-.659.032-1.317.091-1.976.091q-41.2.007-82.4,0C-276.626,298.094-277.285,298.041-277.944,298.013Zm44.546-37.759c0,4.545.037,9.091-.024,13.636-.017,1.274.265,1.819,1.687,1.806,6.965-.066,13.931-.047,20.9-.014,1.1.005,1.56-.3,1.555-1.482-.037-9.237.05-18.475-.052-27.711-.048-4.36-2.949-6.971-7.354-6.994-2.933-.015-5.865-.005-8.8,0-5.32,0-7.9,2.614-7.909,8.006Q-233.407,253.876-233.4,260.254Zm-3.125-.491c0-4.479.017-8.958-.005-13.436a6.5,6.5,0,0,0-6.749-6.82q-5.175-.091-10.353,0a6.637,6.637,0,0,0-6.71,6.713c-.049,9.251.012,18.5-.047,27.753-.009,1.385.43,1.728,1.755,1.717q10.133-.089,20.267,0c1.415.014,1.9-.362,1.873-1.833C-236.579,269.162-236.524,264.462-236.522,259.763Zm14.952,35.7h6.385c5.814,0,5.769,0,5.66-5.786-.026-1.35-.422-1.75-1.76-1.734-5.5.065-11.009.027-16.513.027-5.763,0-5.72,0-5.632,5.762.02,1.325.36,1.8,1.733,1.759C-228.324,295.4-224.946,295.463-221.57,295.463Zm-26.56,0h6.15c5.5,0,5.411,0,5.507-5.416.033-1.859-.654-2.126-2.262-2.106-6.223.08-12.447.032-18.671.033-2.825,0-2.813,0-2.633,2.706a23.292,23.292,0,0,1,.077,3.071c-.087,1.31.339,1.787,1.728,1.746C-254.869,295.392-251.5,295.461-248.13,295.461Z" transform="translate(-154.937 -73.353)" fill="#12263f"/><path d="M-324.111,371.2c.659.028,1.318.082,1.977.082q41.2.007,82.4,0c.659,0,1.317-.06,1.976-.091,4.382.018,8.764.026,13.146.058,2.461.018,3.265.817,3.357,3.257.229,6.127-.033,6.389-6.222,6.4-2.555.006-5.109.053-7.664.082l-17.218,0-1.278-.008-1.865.006H-306.5l-1.81,0-.912-.011-17.206.014c-1.1-.031-2.2-.048-3.3-.1-1.126-.049-2.18-.164-2.371,1.464-.1.851-.992.959-1.761.975-1.173.024-2.347.055-3.52.083a65.4,65.4,0,0,0-10.188,0c-1.1-.028-2.2-.051-3.3-.084-.663-.02-1.621.007-1.7-.689-.259-2.252-1.851-1.736-3.21-1.74-4.175-.013-4.727-.547-4.726-4.643,0-.807-.032-1.617.035-2.418a2.533,2.533,0,0,1,2.688-2.593c1.026-.033,2.054-.026,3.08-.005.984.02,1.878.119,1.916-1.363.024-.936.89-1.232,1.785-1.239,1.172-.008,2.344-.043,3.515-.066l9.99.007c1.165.021,2.331.059,3.5.056.865,0,1.813.185,1.9,1.086.16,1.619,1.148,1.553,2.295,1.523C-327.9,371.2-326.006,371.213-324.111,371.2Z" transform="translate(-108.77 -146.54)" fill="#555"/><path d="M-360.238,515.222a19.206,19.206,0,0,1-2.164.239q-26.349.021-52.7,0c-.655,0-1.31-.093-1.965-.144,6.243-3.533,12.456-7.123,18.752-10.56,1.585-.865,1.808-1.649,1.054-3.221-1.422-2.968-2.609-6.047-3.967-9.047a1.979,1.979,0,0,1,.253-2.372q5.4-6.806,10.672-13.718c.776-1.023,1.253-1.009,2.208-.226q10.292,8.442,20.675,16.776a5.318,5.318,0,0,1,1.484,2.127c2.161,4.883,4.214,9.82,6.563,14.612C-358.273,511.931-357.974,513.682-360.238,515.222Z" transform="translate(-77.142 -206.39)" fill="#12263f"/><path d="M-54.781,494.462c-1.006-6.405-1.977-12.614-2.964-18.82-.105-.662.106-.968.777-.961.44.005.881-.006,1.321-.006,15.7,0,31.4.018,47.107-.029,1.65-.005,2.249.146,1.854,2.117-.963,4.8-1.6,9.663-2.331,14.507-.168,1.11-.519,1.579-1.818,1.538-8-.246-11.8,2.618-14.1,10.52a1.505,1.505,0,0,1-1.75,1.219c-2.641-.041-5.283-.022-7.924-.011-.781,0-1.344-.1-1.659-1.028C-39.458,494.107-45.324,491.195-54.781,494.462Z" transform="translate(-278.056 -205.852)" fill="#1565c0"/><path d="M-209.2,168.814c6.684,0,13.369.039,20.053-.031,1.447-.015,1.854.438,1.9,1.862.362,11.593-8.337,21.806-19.211,22.845-13.733,1.313-23.409-8.12-24.828-19.337-.676-5.338-.662-5.34,4.68-5.34Z" transform="translate(-180.858 -34.815)" fill="#12263f"/><path d="M-225.412,110.046c.392,1.551.755,2.867,1.05,4.2.192.867.556,1.694,1.518,1.52,1.023-.184,1.322-1.027,1-2.056-.195-.628-.293-1.285-.448-1.926-.811-3.336-.812-3.336,2.577-4.371,5.008-1.53,5.008-1.53,5.008,3.645,0,.661.007,1.322,0,1.983-.007.939.362,1.595,1.376,1.616s1.423-.622,1.43-1.561c.012-1.689.069-3.381-.01-5.066-.056-1.206.42-1.6,1.548-1.39.647.123,1.3.215,1.943.362,4.912,1.129,4.911,1.133,3.823,5.857-.1.427-.231.849-.3,1.281a1.279,1.279,0,0,0,1.06,1.642c.785.134,1.223-.467,1.407-1.13.408-1.47.739-2.961,1.155-4.666a21.728,21.728,0,0,1,9.623,14.578c.181,1,.194,1.969,1.583,2.223a1.9,1.9,0,0,1,1.49,2.525,1.973,1.973,0,0,1-2.255,1.628c-3.011-.019-6.022-.005-9.033-.005q-17.846,0-35.691.016c-1.512,0-2.945-.1-3.142-1.924-.179-1.651.969-2.352,2.465-2.45,1.515-.1,1.109-1.333,1.269-2.138A21.984,21.984,0,0,1-225.412,110.046Z" transform="translate(-176.874 0)" fill="#1565c0"/><path d="M-484.283,397.8a24.14,24.14,0,0,1,5.17,9.309,19.684,19.684,0,0,1-18.871,24.632c-.219,0-.438.04-.656.06-9.257-.895-15.975-6.008-18.388-13.994a19.776,19.776,0,0,1,7.949-22.2,19.768,19.768,0,0,1,23.549,1.332C-485.143,397.256-484.7,397.511-484.283,397.8Zm-7.6,10.486a20.471,20.471,0,0,0,.864-2.309c.8-3.3-1.572-6.237-4.912-5.8-1.359.178-1.832-.216-2.258-1.273-.434-1.077-.869-1.965-2.406-1.167-1.306.678-1.828,1.281-.921,2.63.41.61.735,1.3-.261,1.824-1.125.591-1.384-.167-1.682-.95-.052-.135-.157-.251-.206-.387-.5-1.39-1.359-.921-2.277-.489s-1.843.8-.987,2.03c1.046,1.509.442,2.3-1.1,2.8-.552.176-1.041.54-1.583.76-.807.327-1.229.794-.747,1.669.361.652.486,1.749,1.651,1.163,1.287-.647,1.7.2,2.13,1.1q2.431,5.051,4.863,10.1c.413.853.72,1.676-.418,2.2-1.519.7-.414,1.583-.121,2.325.434,1.1,1.178.444,1.808.163a20.6,20.6,0,0,0,2.183-1.041c.952-.566,1.545-.282,1.825.692.474,1.649,1.224,1.609,2.718.97,1.889-.808.971-1.689.495-2.683-.3-.619-.594-1.119.328-1.586.961-.488,1.335-.083,1.657.7.084.2.191.4.258.606.531,1.631,1.465.843,2.415.464,1.061-.424,1.665-.951.849-2.065-.952-1.3-.64-2.24.44-3.4a5.083,5.083,0,0,0,1.1-5.709,4.938,4.938,0,0,0-4.822-3.176A6.437,6.437,0,0,1-491.883,408.283Z" transform="translate(-20.767 -159.825)" fill="url(#a)"/><path d="M-37.383,444.959q12.888,0,25.777,0c2.724,0,3.243.523,3.266,3.171.009,1.027,0,2.056,0,3.084-.009,3.033-.5,3.525-3.624,3.526q-25.447.008-50.893,0c-3.585,0-3.967-.414-3.971-4.1-.007-5.679-.007-5.681,5.649-5.682Q-49.28,444.956-37.383,444.959Z" transform="translate(-272.992 -189.249)" fill="#1565c0"/><path d="M-52.129,412.832c2.095-1.955,3.871-3.476,5.476-5.159,1.009-1.057,1.709-1.17,2.894-.209,2.58,2.093,2.916,2.134,4.161-.957A21.7,21.7,0,0,1-27.57,394.263c3.567-1.573,3.442-1.856,5.8,1.335l6.029,8.145c1.014-.731,1-1.913,1.883-2.859a59.855,59.855,0,0,1,6.235,5.224c1.515,1.634,1.228,4.123,1.625,6.244.143.763-.906.456-1.4.459-4.914.034-9.829.02-14.743.02Z" transform="translate(-281.21 -160.263)" fill="#12263f"/><path d="M-544.319,331.6a10.731,10.731,0,0,1,10.868,10.664,10.894,10.894,0,0,1-10.722,10.886A10.854,10.854,0,0,1-555.017,342.4,10.633,10.633,0,0,1-544.319,331.6Zm5.22,5.9c.171-.544.563-1.08-.18-1.361-.53-.2-1.025-.361-1.548.254-1.012,1.192-1.34.857-1.005-.563.131-.555-.306-.772-.711-.948-.432-.187-.909-.234-1.112.291-.492,1.266-1.3.824-2.125.464-.663-.288-1.678-.3-1.289.594,1.189,2.733-.864,4.658-1.4,6.942-.141.6-.318,1.354-1.2,1.331-.663-.017-.936.324-.948.925-.011.548.421.7.833.877.777.333,1.812.487,1.164,1.789-.3.6.282.7.652.9.5.267.976.384,1.262-.28.172-.4.279-.894.872-.745.7.176.366.641.223,1.024-.244.655.119.953.659,1.14a.865.865,0,0,0,1.239-.542c.31-.985,1.075-.988,1.9-1.117,2.145-.337,3.026-2,2.134-4.023-.3-.677-.8-.993.351-1.509,1.735-.775,1.974-2.218.953-3.814C-538.727,338.594-539.4,338.221-539.1,337.506Z" transform="translate(0 -125.864)" fill="url(#a)"/><path d="M-331.153,401.995a65.393,65.393,0,0,1,10.188,0c.256,7.233,2.656,13.88,5.593,20.374.694,1.534,1.512,3.011,2.284,4.508.712,1.379.82,2.7-.532,3.741-1.452,1.117-2.745.605-3.886-.577a50.042,50.042,0,0,1-11.331-19.366C-329.779,407.838-330.391,404.891-331.153,401.995Z" transform="translate(-125.183 -165.114)" fill="#1565c0"/><path d="M-509.683,495.023c1.7,7.206-2.47,13.178-9.834,13.975a18.121,18.121,0,0,1-3.45-.273c-3.58-1.4-6.3-3.67-7.446-7.488a10.828,10.828,0,0,1,6.228-13.015,10.78,10.78,0,0,1,13.692,5C-510.189,493.807-509.951,494.423-509.683,495.023Zm-16.034,1.914c-.348.554-.866.28-1.238.435-.945.392-1.176,1.616-.473,1.79,1.635.4,1.319,1.4,1.291,2.454-.022.819.776,1.225,1.077.752,1.072-1.684,2.584-.9,3.724-.632,1.746.413,4.039-.617,5.2,1.8.271.566,1.02.28,1.147-.551.153-1,.225-1.9,1.721-2.029.712-.063.815-1.25-.039-1.865-.31-.224-.964-.028-.877-.715.081-.644.549-.445.984-.479a.965.965,0,0,0,.651-1.631c-1.8-.2-1.686-1.986-2.609-2.856a2.759,2.759,0,0,0-3.952-.2c-.325.247-.552,1.185-1.136.462-1.734-2.146-3.28-1.784-4.8.2-.378.5-.912.363-1.416.346a.751.751,0,0,0-.861.769c-.044.5-.184,1.028.511,1.262C-526.44,496.379-525.885,496.2-525.717,496.937Z" transform="translate(-13.51 -212.982)" fill="url(#a)"/><path d="M-320.963,331.62l-9.99-.007c1.9-9.882,5.584-18.94,12.294-26.6.435-.5.927-.941,1.37-1.431a2.61,2.61,0,0,1,3.727-.562c1.393.965,1.347,2.322.582,3.7a69.269,69.269,0,0,0-5.883,13.924A45.312,45.312,0,0,0-320.963,331.62Z" transform="translate(-125.295 -109.574)" fill="#1565c0"/><path d="M34.468,541.609c-.9-.115-1.7.673-2.628.318-.417-.618-1.152-.554-1.741-.765a9.179,9.179,0,1,1,12.053-9.9,9.063,9.063,0,0,1-6.212,9.906C35.456,541.338,34.959,541.464,34.468,541.609Zm2.83-9.023a4.308,4.308,0,0,0-4.085-4.325,4.219,4.219,0,1,0-.206,8.433A4.269,4.269,0,0,0,37.3,532.586Z" transform="translate(-323.694 -233.053)" fill="#4e4f4e"/><path d="M-46.483,542.806a18.616,18.616,0,0,1-4.444,0,9.23,9.23,0,0,1-4.861-14.779,8.711,8.711,0,0,1,9.693-3,8.659,8.659,0,0,1,6.531,7.752c.48,3.838-1.166,6.844-4.417,8.942a13.752,13.752,0,0,1-1.374.69l-.72.333A.512.512,0,0,0-46.483,542.806Zm-2.259-13.253a4.427,4.427,0,0,0-4.2,4.261,4.3,4.3,0,0,0,4.226,4.194,4.331,4.331,0,0,0,4.34-4.323A4.521,4.521,0,0,0-48.742,529.553Z" transform="translate(-277.989 -233.786)" fill="#4e4f4e"/><path d="M-283.2,396.727l17.206-.014c-1.168,3.161-2.583,6.031-6.351,6.85C-276.99,404.573-282.388,401.234-283.2,396.727Z" transform="translate(-151.997 -162.271)" fill="#12263f"/><path d="M-115.18,396.732l17.218,0a9.538,9.538,0,0,1-11.767,6.6C-112.986,402.287-114.274,399.683-115.18,396.732Z" transform="translate(-245.953 -162.28)" fill="#12263f"/><path d="M-32.014,565.8a.512.512,0,0,1,.408-.06C-31.713,565.954-31.844,566.011-32.014,565.8Z" transform="translate(-292.459 -256.779)" fill="#fff"/><path d="M-176.875,396.732h24.018c.009,1.757.108,3.519.006,5.27-.126,2.165-1.2,3.182-3.381,3.2-6.371.041-12.743-.011-19.114.04-1.3.011-1.627-.514-1.587-1.7C-176.857,401.273-176.888,399-176.875,396.732Z" transform="translate(-211.42 -162.282)" fill="#fbfdfd"/><path d="M-238.027,396.731h23.789c.007,2.274-.034,4.549.039,6.821.038,1.186-.28,1.7-1.581,1.687-6.308-.055-12.618,0-18.926-.042-2.317-.017-3.3-1.078-3.335-3.4C-238.072,400.106-238.035,398.418-238.027,396.731Z" transform="translate(-177.243 -162.281)" fill="#fff"/><path d="M-176.92,262.519q0-6.378,0-12.756c.008-5.392,2.589-8,7.909-8.006,2.933,0,5.866-.013,8.8,0,4.405.023,7.306,2.634,7.354,6.994.1,9.236.015,18.474.052,27.711,0,1.185-.454,1.488-1.555,1.482-6.965-.034-13.931-.052-20.9.014-1.422.013-1.7-.532-1.687-1.806C-176.883,271.61-176.919,267.064-176.92,262.519Z" transform="translate(-211.415 -75.618)" fill="#fbfdfd"/><path d="M-214.252,261.994c0,4.7-.056,9.4.031,14.1.027,1.47-.458,1.846-1.873,1.833q-10.132-.1-20.267,0c-1.325.011-1.764-.331-1.755-1.717.059-9.251,0-18.5.047-27.753a6.637,6.637,0,0,1,6.71-6.713q5.175-.1,10.353,0a6.5,6.5,0,0,1,6.749,6.82C-214.233,253.036-214.251,257.515-214.252,261.994Z" transform="translate(-177.209 -75.584)" fill="#fff"/><path d="M-165.128,359.2c-3.376,0-6.754-.06-10.128.028-1.373.036-1.713-.434-1.733-1.759-.088-5.763-.131-5.762,5.632-5.762,5.5,0,11.009.038,16.513-.027,1.337-.016,1.734.384,1.76,1.734.11,5.787.155,5.786-5.66,5.786Z" transform="translate(-211.379 -137.088)" fill="#fbfdfd"/><path d="M-225.5,359.191c-3.368,0-6.739-.069-10.1.033-1.389.042-1.815-.435-1.728-1.746a23.287,23.287,0,0,0-.077-3.071c-.18-2.706-.193-2.705,2.633-2.706,6.224,0,12.448.047,18.671-.033,1.608-.02,2.295.246,2.262,2.106-.1,5.415,0,5.416-5.507,5.416Z" transform="translate(-177.566 -137.083)" fill="#fff"/><path d="M-482.608,414.739a6.43,6.43,0,0,0,.878.155,4.938,4.938,0,0,1,4.822,3.176,5.083,5.083,0,0,1-1.1,5.709c-1.081,1.163-1.393,2.1-.44,3.4.816,1.114.213,1.641-.849,2.065-.95.38-1.884,1.167-2.415-.464-.067-.208-.175-.4-.258-.606-.322-.778-.7-1.183-1.657-.7-.922.468-.624.967-.328,1.586.476.994,1.394,1.876-.5,2.683-1.493.639-2.244.678-2.718-.97-.28-.974-.873-1.258-1.825-.692a20.6,20.6,0,0,1-2.183,1.041c-.63.281-1.374.941-1.808-.163-.292-.743-1.4-1.623.121-2.325,1.138-.526.831-1.349.418-2.2q-2.442-5.046-4.863-10.1c-.432-.9-.842-1.748-2.13-1.1-1.166.586-1.291-.51-1.651-1.163-.483-.875-.06-1.342.747-1.669.541-.22,1.031-.584,1.582-.76,1.546-.492,2.151-1.287,1.1-2.8-.855-1.233.075-1.6.987-2.03s1.776-.9,2.277.489c.049.136.155.251.206.387.3.783.557,1.541,1.682.95,1-.523.671-1.214.261-1.824-.907-1.348-.385-1.951.921-2.63,1.537-.8,1.971.089,2.406,1.167.426,1.057.9,1.452,2.258,1.273,3.34-.439,5.717,2.5,4.912,5.8A20.458,20.458,0,0,1-482.608,414.739Zm.779,6.168a3.1,3.1,0,0,0-1.816-2.619c-1.011-.431-4.628.617-5.469,1.587-.743.857.093,1.51.391,2.152.477,1.029.648,2.376,1.739,2.92C-485.661,425.607-481.9,422.669-481.829,420.907Zm-6.636-10.039c-1.727.066-4.627,1.738-4.306,2.546.512,1.29.675,3.074,2.183,3.5,1.465.414,4.576-2.416,4.495-3.8A2.1,2.1,0,0,0-488.465,410.869Z" transform="translate(-30.043 -166.282)" fill="#f5fbfb"/><path d="M-533.528,341.5c-.3.715.373,1.088.715,1.623,1.021,1.6.782,3.039-.953,3.814-1.155.516-.649.832-.351,1.509.892,2.026.011,3.686-2.134,4.023-.824.13-1.59.133-1.9,1.117a.865.865,0,0,1-1.239.542c-.539-.187-.9-.485-.659-1.14.143-.383.479-.848-.223-1.024-.594-.149-.7.344-.872.745-.285.664-.757.547-1.261.28-.37-.2-.951-.294-.652-.9.648-1.3-.387-1.456-1.164-1.789-.412-.177-.844-.329-.833-.877.012-.6.285-.942.948-.925.886.022,1.063-.735,1.2-1.331.54-2.284,2.593-4.209,1.4-6.942-.389-.9.625-.882,1.289-.594.829.36,1.633.8,2.125-.464.2-.525.68-.478,1.112-.291.406.176.842.393.712.948-.335,1.421-.007,1.755,1.005.563.523-.615,1.018-.455,1.548-.254C-532.965,340.425-533.358,340.961-533.528,341.5Zm-5.029,8.824c1.087.042,1.885-.245,1.907-1.365.031-1.573-1.378-1.873-2.4-2.022-1.272-.186-1.211,1.278-1.345,2.018C-540.657,350.423-539.142,349.891-538.558,350.329Zm1.88-4.531c1.006-.045,1.65-.54,1.526-1.348-.185-1.2-1.359-1.524-2.329-1.652-1.144-.15-1.223,1.116-1.216,1.715C-538.683,345.815-537.31,345.411-536.678,345.8Z" transform="translate(-5.571 -129.863)" fill="#f5fbfb"/><path d="M-521.887,503.048c-.167-.735-.723-.558-1.095-.683-.695-.234-.555-.763-.511-1.262a.751.751,0,0,1,.861-.769c.5.017,1.038.149,1.416-.346,1.516-1.989,3.062-2.351,4.8-.2.584.723.811-.215,1.136-.462a2.759,2.759,0,0,1,3.952.2c.923.87.81,2.656,2.609,2.856a.965.965,0,0,1-.652,1.631c-.435.034-.9-.165-.984.479-.086.686.567.491.877.715.854.615.751,1.8.039,1.865-1.5.132-1.568,1.028-1.721,2.029-.127.831-.876,1.117-1.147.551-1.157-2.415-3.45-1.385-5.2-1.8-1.14-.27-2.651-1.052-3.724.632-.3.473-1.1.067-1.077-.752.028-1.052.344-2.05-1.291-2.454-.7-.174-.472-1.4.473-1.79C-522.753,503.328-522.235,503.6-521.887,503.048Zm9.636.727c-.057-1.048-.245-2.1-1.586-2.15-1.367-.048-1.519,1.118-1.747,2.1-.378,1.634.956,1.453,1.855,1.679C-512.294,505.767-512.563,504.524-512.251,503.776Zm-5.039-.791c-.011-.872-.176-1.777-1.191-1.731-1.331.061-1.344,1.283-1.515,2.255-.223,1.27.726,1.127,1.5,1.2C-517.025,504.855-517.46,503.7-517.29,502.985Z" transform="translate(-17.341 -219.093)" fill="#f5fbfb"/><path d="M43.567,538.887a4.269,4.269,0,0,1-4.291,4.108,4.218,4.218,0,1,1,4.291-4.108Z" transform="translate(-329.964 -239.354)" fill="#eaeaea"/><path d="M-42.468,535.833a4.522,4.522,0,0,1,4.366,4.133,4.331,4.331,0,0,1-4.34,4.323,4.3,4.3,0,0,1-4.226-4.194A4.427,4.427,0,0,1-42.468,535.833Z" transform="translate(-284.264 -240.066)" fill="#eaeaea"/><path d="M-466.759,439.052c-.075,1.762-3.832,4.7-5.156,4.04-1.091-.544-1.262-1.89-1.739-2.919-.3-.642-1.133-1.3-.391-2.152.842-.971,4.458-2.018,5.469-1.587A3.1,3.1,0,0,1-466.759,439.052Z" transform="translate(-45.112 -184.427)" fill="url(#a)"/><path d="M-477.687,419.726a2.1,2.1,0,0,1,2.372,2.249c.082,1.382-3.029,4.212-4.495,3.8-1.508-.427-1.672-2.211-2.183-3.5C-482.314,421.464-479.413,419.792-477.687,419.726Z" transform="translate(-40.821 -175.139)" fill="url(#a)"/><path d="M-532.682,360.691c-.584-.438-2.1.094-1.835-1.369.134-.74.073-2.2,1.345-2.018,1.019.149,2.428.449,2.4,2.022C-530.8,360.446-531.6,360.733-532.682,360.691Z" transform="translate(-11.446 -140.225)" fill="url(#a)"/><path d="M-528.615,350.908c-.632-.387-2,.018-2.02-1.285-.007-.6.072-1.865,1.216-1.715.971.128,2.144.454,2.329,1.652C-526.964,350.368-527.609,350.864-528.615,350.908Z" transform="translate(-13.635 -134.974)" fill="url(#a)"/><path d="M-501.65,507.958c-.312.748-.043,1.992-1.478,1.632-.9-.225-2.233-.045-1.855-1.679.228-.986.381-2.152,1.747-2.1C-501.895,505.856-501.707,506.911-501.65,507.958Z" transform="translate(-27.942 -223.276)" fill="url(#a)"/><path d="M-512.242,506.695c-.17.72.264,1.87-1.208,1.726-.771-.075-1.72.068-1.5-1.2.171-.972.184-2.194,1.515-2.255C-512.418,504.918-512.253,505.823-512.242,506.695Z" transform="translate(-22.388 -222.803)" fill="url(#a)"/></g></svg>