<svg xmlns="http://www.w3.org/2000/svg" width="93" height="94" viewBox="0 0 93 94">
  <g id="Grupo_947613" data-name="Grupo 947613" transform="translate(0.275 -0.334)">
    <ellipse id="Elipse_4870" data-name="Elipse 4870" cx="46.5" cy="47" rx="46.5" ry="47" transform="translate(-0.275 0.334)" fill="#7dcbde"/>
    <g id="ShWfTW.tif" transform="translate(-44.421 -1170.426)">
      <g id="Grupo_948864" data-name="Grupo 948864" transform="translate(66.741 1189.531)">
        <path id="Trazado_622799" data-name="Trazado 622799" d="M123.2,1210.822v2.235c-.116.791-.211,1.585-.353,2.371-1.367,7.569-5.644,12.752-12.819,15.646v.574q0,5.672,0,11.344a3.822,3.822,0,0,1-.088.87,2.985,2.985,0,0,1-2.141,2.126h-38.8a3.2,3.2,0,0,1-2.252-3.468q.053-23.135.021-46.27a2.788,2.788,0,0,1,2.941-2.95c2.351,0,4.7-.006,7.054,0a.654.654,0,0,0,.688-.385,2.71,2.71,0,0,1,2.536-1.5c.843,0,1.686.019,2.527-.015a.747.747,0,0,0,.52-.319,2.925,2.925,0,0,1,2.7-1.552c1.783.016,3.566.013,5.349,0a2.767,2.767,0,0,1,2.639,1.532.6.6,0,0,0,.643.359c.823-.016,1.646-.008,2.469,0a2.689,2.689,0,0,1,2.495,1.469.7.7,0,0,0,.728.419q3.586-.022,7.171-.005a2.748,2.748,0,0,1,2.69,2.045,3.549,3.549,0,0,1,.109.925c.009,2.133,0,4.266,0,6.332.355.189.656.328.937.5q5.675,3.49,11.342,6.993A8.834,8.834,0,0,1,123.2,1210.822ZM72.429,1240.3h31.961c0-4.078,0-8.114-.008-12.15a.61.61,0,0,0-.178-.4c-.539-.5-1.1-.983-1.664-1.486a1.088,1.088,0,0,1-1.255.909q-8.672-.021-17.344-.008a2.629,2.629,0,0,1-.411-.012.913.913,0,0,1-.774-.956.881.881,0,0,1,.774-.894,2.987,2.987,0,0,1,.586-.015h17.543c-.413-.549-.775-.966-1.061-1.43a.919.919,0,0,0-.91-.465q-7.79.021-15.58.009a3.867,3.867,0,0,1-.587-.014.91.91,0,0,1-.766-.962.884.884,0,0,1,.782-.888,2.764,2.764,0,0,1,.528-.013h14.4c.2,0,.409-.018.669-.03-.207-.474-.416-.872-.556-1.292a.736.736,0,0,0-.84-.576c-4.546.024-9.093.014-13.64.014a3.759,3.759,0,0,1-.587-.015.91.91,0,0,1-.76-.967.883.883,0,0,1,.787-.883,2.859,2.859,0,0,1,.528-.012H97.7l-.446-1.886H87.716c-1.333,0-2.665.008-4,0a.9.9,0,0,1-.963-.952.916.916,0,0,1,.939-.919c.156-.008.314,0,.47,0H97l-.169-1.886h-5.4q-3.792,0-7.584,0c-.7,0-1.1-.352-1.1-.94s.4-.934,1.1-.934c4.116,0,8.231-.027,12.346.018a3.907,3.907,0,0,0,2.459-.711c.555-.4,1.159-.731,1.741-1.092l-.054-.1H75.657a5.023,5.023,0,0,1-.529-.006.938.938,0,0,1-.012-1.864,4.861,4.861,0,0,1,.529-.007q12.729,0,25.457-.007c.6,0,1.137.043,1.415.686.5-.307.937-.605,1.4-.851a.8.8,0,0,0,.48-.831c-.023-1.98-.01-3.96-.012-5.939,0-.188-.017-.375-.026-.562H99.682c0,.2,0,.369,0,.539-.007,1.062-.258,1.314-1.313,1.314H78.438c-1.068,0-1.323-.25-1.328-1.3,0-.186,0-.371,0-.553h-4.68Zm33.838-11.052v.7q0,5.527,0,11.054c0,.9-.3,1.213-1.178,1.213H71.7c-.861,0-1.174-.308-1.174-1.158q0-21.432,0-42.863c0-.821.315-1.135,1.134-1.137,1.607,0,3.214,0,4.82,0h.595v-1.886H70.115c-1.222,0-1.477.255-1.477,1.48q0,22.99,0,45.979c0,1.216.258,1.472,1.486,1.472H103.4c1.215,0,2.43.008,3.645,0a.98.98,0,0,0,1.107-1.08q.013-6.2,0-12.406a.587.587,0,0,0-.173-.44C107.443,1229.86,106.888,1229.583,106.267,1229.251ZM78.989,1198.9H97.8c0-1.491,0-2.939,0-4.387,0-.87-.345-1.215-1.208-1.219-1.137-.006-2.273,0-3.41,0a.919.919,0,0,1-1.026-.893c-.117-.688-.417-.978-1.09-.982q-2.675-.016-5.35,0a.977.977,0,0,0-1.086.923c-.128.729-.392.952-1.147.954-1.137,0-2.273-.008-3.41,0a.953.953,0,0,0-1.081.981C78.974,1195.806,78.989,1197.333,78.989,1198.9Zm19.7,13.458c.211,1.35.334,2.722.647,4.048a17.422,17.422,0,0,0,10.151,12.362,1.21,1.21,0,0,0,1.1-.014,17.616,17.616,0,0,0,7.656-6.465,19.268,19.268,0,0,0,3.027-10.271c.006-.194-.236-.465-.432-.587-3.44-2.137-6.894-4.252-10.336-6.386a.762.762,0,0,0-.942-.009q-5.131,3.194-10.292,6.34C98.884,1211.617,98.607,1211.85,98.693,1212.361Zm1.011-15.3c1.845,0,3.625,0,5.406,0,.849,0,1.154.313,1.156,1.175q0,2.057,0,4.115v2.483c.551-.334,1-.633,1.481-.89a.726.726,0,0,0,.413-.747c-.017-2.253-.006-4.506-.01-6.76,0-.935-.334-1.261-1.282-1.262q-3.32,0-6.641,0c-.169,0-.339.021-.524.033Z" transform="translate(-66.741 -1189.532)" fill="#12263f"/>
        <path id="Trazado_622800" data-name="Trazado 622800" d="M144.872,1303.219h-12.7c-.137,0-.275,0-.412,0a.937.937,0,1,1-.028-1.875c.1-.006.2,0,.294,0h25.752a3.392,3.392,0,0,1,.411.007.939.939,0,0,1,.028,1.859,3.829,3.829,0,0,1-.528.011Z" transform="translate(-123.247 -1288.164)" fill="#12263f"/>
        <path id="Trazado_622801" data-name="Trazado 622801" d="M212.423,1526.781q-4.351,0-8.7,0c-.656,0-1.042-.288-1.109-.806a.918.918,0,0,1,.9-1.065c.45-.021.9-.005,1.352-.005,5.429,0,10.857-.007,16.286.017a1.544,1.544,0,0,1,1.012.41.925.925,0,0,1,.065.9,1.356,1.356,0,0,1-.93.53c-2.018.047-4.037.024-6.055.024Z" transform="translate(-186.594 -1485.38)" fill="#12263f"/>
        <path id="Trazado_622802" data-name="Trazado 622802" d="M141.59,1365.212c.608,0,1.215-.012,1.823,0a.892.892,0,0,1,.953.96q.02,1.852,0,3.7a.9.9,0,0,1-1,.969q-1.822.015-3.645,0a.9.9,0,0,1-.982-.991q-.017-1.823,0-3.646a.913.913,0,0,1,1.034-1C140.374,1365.205,140.982,1365.212,141.59,1365.212Zm-.946,1.888v1.834h1.8V1367.1Z" transform="translate(-130.243 -1344.507)" fill="#12263f"/>
        <path id="Trazado_622803" data-name="Trazado 622803" d="M138.736,1431.862c0-.608-.012-1.216,0-1.823a.89.89,0,0,1,.958-.954q1.852-.02,3.7,0a.9.9,0,0,1,.97,1q.016,1.823,0,3.646a.9.9,0,0,1-.989.985q-1.822.018-3.645,0a.915.915,0,0,1-1-1.033C138.729,1433.078,138.736,1432.47,138.736,1431.862Zm1.911-.874v1.817h1.806v-1.817Z" transform="translate(-130.249 -1400.85)" fill="#12263f"/>
        <path id="Trazado_622804" data-name="Trazado 622804" d="M144.369,1495.835c0,.588.009,1.176,0,1.764a.917.917,0,0,1-1.027,1.008q-1.793.014-3.586,0a.911.911,0,0,1-1.021-1.012q-.015-1.823,0-3.646a.9.9,0,0,1,1-.977q1.822-.016,3.645,0a.9.9,0,0,1,.992.981C144.38,1494.581,144.369,1495.208,144.369,1495.835Zm-3.728-.959v1.817h1.806v-1.817Z" transform="translate(-130.243 -1457.21)" fill="#12263f"/>
        <path id="Trazado_622805" data-name="Trazado 622805" d="M241.66,1572.853q2.91,0,5.821,0c.8,0,1.211.327,1.2.952-.008.605-.407.924-1.172.924q-5.879,0-11.759,0c-.763,0-1.163-.32-1.172-.923-.009-.626.4-.953,1.2-.953Q238.72,1572.851,241.66,1572.853Z" transform="translate(-214.803 -1527.685)" fill="#12263f"/>
        <path id="Trazado_622806" data-name="Trazado 622806" d="M354.932,1345.438a1.143,1.143,0,0,1,.656-1.207q3.958-2.415,7.9-4.865a1.283,1.283,0,0,1,1.518-.013q3.938,2.447,7.9,4.853a1.183,1.183,0,0,1,.646,1.256,15.984,15.984,0,0,1-8.7,13.17,1.257,1.257,0,0,1-1.28-.035,15.78,15.78,0,0,1-8.355-11.364C355.1,1346.639,355.025,1346.036,354.932,1345.438Zm16.663.426a1.641,1.641,0,0,0-.369-.432c-2.191-1.364-4.4-2.706-6.585-4.072a.639.639,0,0,0-.786.012q-3.237,2.013-6.495,3.994a.726.726,0,0,0-.4.847,13.935,13.935,0,0,0,6.966,10.383.778.778,0,0,0,.664-.019,16.887,16.887,0,0,0,1.844-1.247A14.154,14.154,0,0,0,371.595,1345.864Z" transform="translate(-320.963 -1321.486)" fill="#12263f"/>
        <path id="Trazado_622807" data-name="Trazado 622807" d="M404.957,1401.422c1.34-1.344,2.57-2.577,3.8-3.809a2.823,2.823,0,0,1,.384-.361.893.893,0,0,1,1.228.086.88.88,0,0,1,.095,1.225,5.207,5.207,0,0,1-.606.637q-1.971,1.974-3.944,3.945c-.708.706-1.109.7-1.829-.016-.513-.511-1.03-1.019-1.534-1.539a.953.953,0,1,1,1.331-1.344C404.24,1400.6,404.566,1400.993,404.957,1401.422Z" transform="translate(-362.656 -1372.597)" fill="#12263f"/>
      </g>
    </g>
  </g>
</svg>
