<svg xmlns="http://www.w3.org/2000/svg" width="124.931" height="154.557" viewBox="0 0 124.931 154.557"><g transform="translate(-520.037 167.031)"><path d="M936.293,130.838a6.149,6.149,0,0,1-3.651,1.61l-.766-.007a5.887,5.887,0,0,1-3.8-1.725c-.172-.2-.284-.469-.608-.469.158-.41-.2-.649-.34-.945a5.615,5.615,0,0,1,2.7-7.671c.8-.357.794-.772.66-1.416q-3.174-15.246-6.322-30.5c-.219-1.07-.517-1.739-1.761-1.486-.214.043-.468-.11-.7-.173a9.688,9.688,0,0,0,3.08-.209,40.515,40.515,0,0,0,1.143,6.2c1.767,8.674,3.655,17.322,5.379,26,.3,1.523,1.231.93,2.012,1.051l.8.212a6.091,6.091,0,0,1,3.677,4.089l.179.785a7.434,7.434,0,0,1-1.1,4.044Z" transform="translate(-316.491 -200.832)" fill="#12263f"/><path d="M683.811,313.281a5.744,5.744,0,0,1,6.943-.988,2.93,2.93,0,0,0,.483.142l.657.655c2.317,2.9,2.335,5.37.06,8.278l-.7.532a5.777,5.777,0,0,1-8.79-2.807.964.964,0,0,0-.188-.757,6.525,6.525,0,0,1,1.116-4.616Z" transform="translate(-127.797 -377.099)" fill="#12263f"/><path d="M601.481-29.535a7.211,7.211,0,0,1-2.2-3.645l-.038-.726c.257-3.492,2.063-5.477,5.353-5.887l.758-.072a5.8,5.8,0,0,1,5.278,4.946,7.035,7.035,0,0,1,0,1.788l-.194.788a5.815,5.815,0,0,1-8.272,3.232Z" transform="translate(-62.411 -100.2)" fill="#12263f"/><path d="M790.2,438.943a5.986,5.986,0,0,1-6.15-.817l-.689-.664c-1.882-3.031-1.74-5.254.507-7.956a1.065,1.065,0,0,0,.619-.48A8.344,8.344,0,0,1,787.4,428c.276.035.546.216.832.036a9.745,9.745,0,0,1,3.427,1.314.293.293,0,0,0,.186.321q3.646,4.89-.86,8.822Z" transform="translate(-206.455 -468.856)" fill="#12263f"/><path d="M907.819,46.847a9.691,9.691,0,0,1-3.081.209,4.526,4.526,0,0,1-2-.7l-.8-.579a5.985,5.985,0,0,1-1.59-5.646q.063-.307.126-.614a6.241,6.241,0,0,1,4.442-3.663l.7-.044a6.974,6.974,0,0,1,3.554,1.031l.387.321a6.293,6.293,0,0,1,2.065,4.453q0,.264-.005.529C911.112,44.326,910.1,46.1,907.819,46.847Z" transform="translate(-299.527 -159.829)" fill="#12263f"/><path d="M763.69,82.812l.8.579a3.649,3.649,0,0,0-.294.3q-10.626,13.452-21.249,26.907-8.786,11.129-17.57,22.261l-.657-.655q5.683-7.231,11.368-14.461,13.5-17.1,27.015-34.185C763.295,83.306,763.493,83.059,763.69,82.812Z" transform="translate(-161.276 -196.863)" fill="#12263f"/><path d="M704.974,4.911q-.063.307-.126.614c-2.918-.486-5.756-1.318-8.623-2.016Q674.7-1.729,653.182-7.038c-.376-.092-.751-.189-1.126-.284l.194-.789Q678.173-1.762,704.1,4.582A1.851,1.851,0,0,1,704.974,4.911Z" transform="translate(-104.024 -125.221)" fill="#12263f"/><path d="M983.653-33.4a3.667,3.667,0,0,1,1.581-6.3,3.649,3.649,0,0,1,3.811,1.4,3.689,3.689,0,0,1-.022,4.332,3.563,3.563,0,0,1-3.822,1.349c-.3-.079-.6-.192-.9-.289Z" transform="translate(-364.336 -100.256)" fill="#12263f"/><path d="M607.579-159.664c-2.521-.677-3.783-2.458-3.234-4.565a3.7,3.7,0,0,1,3.849-2.79,3.694,3.694,0,0,1,3.37,3.46,3.616,3.616,0,0,1-2.873,3.756c-.137.033-.271.074-.407.111Z" transform="translate(-66.33)" fill="#12263f"/><path d="M988.675,150.406a3.65,3.65,0,0,1,1.689-6.952,3.649,3.649,0,0,1,.163,7.286c-.386.02-.775-.023-1.162-.037Z" transform="translate(-367.599 -244.644)" fill="#12263f"/><path d="M620.713,259.3a3.57,3.57,0,0,1-4.242.156,3.646,3.646,0,1,1,4.778-5.407,3.465,3.465,0,0,1,.546,3.85c-.139.322-.32.627-.481.939Z" transform="translate(-74.681 -330.756)" fill="#12263f"/><path d="M554.589,377.564c.484,2.421-.318,4.2-2.19,4.849a3.667,3.667,0,1,1,1.136-6.228,7.245,7.245,0,0,1,.643.692Z" transform="translate(-21.633 -427.34)" fill="#12263f"/><path d="M1074.308,24.267c.1-.552-.029-1.109.124-1.672a3.63,3.63,0,0,1,3.949-2.781,3.676,3.676,0,0,1,3.3,3.434,3.8,3.8,0,0,1-2.714,3.734,3.705,3.705,0,0,1-4.315-2.041c-.112-.231-.016-.588-.364-.7Z" transform="translate(-436.719 -147.213)" fill="#12263f"/><path d="M963.473,397.624a3.539,3.539,0,0,1,3.193,2.921,3.4,3.4,0,0,1-1.455,3.695,3.473,3.473,0,0,1-3.887.217,3.663,3.663,0,0,1-1.871-3.634,3.742,3.742,0,0,1,3.2-3.195Z" transform="translate(-346.21 -444.918)" fill="#12263f"/><path d="M646.061,419.959A3.682,3.682,0,0,1,648,423.769a3.652,3.652,0,1,1-6.97-1.95,3.327,3.327,0,0,1,3.313-2.171c.318,0,.635.018.953.028Z" transform="translate(-95.07 -462.272)" fill="#12263f"/><path d="M1034.286,324.777a4.951,4.951,0,0,1,2.766-1.156,3.656,3.656,0,1,1-2.051,6.63,3.588,3.588,0,0,1-1.353-4.109,12.033,12.033,0,0,1,.626-1.322S1034.286,324.777,1034.286,324.777Z" transform="translate(-404.547 -386.608)" fill="#12263f"/><path d="M1062.789,225.2a3.635,3.635,0,0,1,1.349-4.034,3.662,3.662,0,0,1,5.829,3.076,3.662,3.662,0,0,1-6.285,2.389,6.306,6.306,0,0,1-.516-.664Z" transform="translate(-427.551 -305.293)" fill="#12263f"/><path d="M527.353-17.318a3.613,3.613,0,0,1-2.951,3.4,3.546,3.546,0,0,1-3.915-1.827,3.634,3.634,0,0,1,1.6-5.034,3.647,3.647,0,0,1,4.96,1.833c.112.257.195.528.291.793Q527.345-17.736,527.353-17.318Z" transform="translate(0 -114.946)" fill="#12263f"/><path d="M900.244-101.328c-2.553-.722-3.753-2.576-3.081-4.763a3.658,3.658,0,0,1,3.691-2.586,3.714,3.714,0,0,1,3.4,2.973,3.667,3.667,0,0,1-2.165,4.053c-.323.136-.669.217-1,.323Z" transform="translate(-297.01 -45.973)" fill="#12263f"/><path d="M860.132,528.313c1.936-1.245,3.835-1.143,5.154.278a3.662,3.662,0,1,1-6.1,1.191c.1-.261.214-.516.321-.773Z" transform="translate(-267.046 -547.212)" fill="#12263f"/><path d="M555.128,67.186c1.742,1.962,1.793,4.214.129,5.673a3.661,3.661,0,0,1-5.816-4.119,3.566,3.566,0,0,1,3.987-2.209c.344.057.682.149,1.023.224Z" transform="translate(-22.965 -183.991)" fill="#12263f"/><path d="M719.658,515.227a3.688,3.688,0,0,1-.326,4.826,3.618,3.618,0,0,1-4.462.549,3.692,3.692,0,0,1-1.477-4.61,3.631,3.631,0,0,1,4.482-1.988,9.648,9.648,0,0,1,1.044.495Z" transform="translate(-152.117 -536.469)" fill="#12263f"/><path d="M827.492,319.193a.293.293,0,0,1-.186-.321c-.1-.477.306-.684.54-.965q3.486-4.194,7-8.368,9.115-10.876,18.232-21.751c.323,0,.436.273.607.469q-5.72,6.871-11.441,13.74-6.849,8.208-13.716,16.4C828.247,318.728,828.053,319.213,827.492,319.193Z" transform="translate(-242.099 -358.374)" fill="#12263f"/><path d="M954.16,46.035q0-.265.005-.529,12.67-2.3,25.34-4.6c.056-.01.1-.087.15-.133l-.023-.024c.073.67-.1.979-.892,1.118-7.9,1.4-15.791,2.856-23.684,4.29C954.757,46.212,954.392,46.548,954.16,46.035Z" transform="translate(-342.066 -163.72)" fill="#12263f"/><path d="M912.375-73.989h.839q.7,7.85,1.392,15.7c.221,2.527.42,5.056.629,7.584l-.7.044c-.459-2.673-.547-5.385-.807-8.078C913.236-63.819,912.821-68.905,912.375-73.989Z" transform="translate(-309.142 -73.312)" fill="#12263f"/><path d="M579.429,352.533l-.412-.687,21.932-8.3a.962.962,0,0,1,.188.756Z" transform="translate(-46.473 -402.308)" fill="#12263f"/><path d="M971.5,319.232l-.819,0q-.535-10.026-1.068-20.051c-.018-.349,0-.7.008-1.051l.766.007Q970.945,308.687,971.5,319.232Z" transform="translate(-354.238 -366.526)" fill="#12263f"/><path d="M619.816-132.392l.705-.028q.517,9.55,1.03,19.1a3.973,3.973,0,0,1-.039.525l-.758.072q-.5-9.524-1-19.047A3.892,3.892,0,0,1,619.816-132.392Z" transform="translate(-78.568 -27.272)" fill="#12263f"/><path d="M739.359,373.741a1.065,1.065,0,0,1-.619.48l-13.955-15.848.7-.532c.085.111.163.227.255.332Q732.55,365.958,739.359,373.741Z" transform="translate(-161.331 -413.571)" fill="#12263f"/><path d="M741.315,482.76l-.739-.727,10.1-9.424.689.663Z" transform="translate(-173.773 -504.002)" fill="#12263f"/><path d="M829.8,488.947l-.622.7-8.724-11.71.792-.446Z" transform="translate(-236.711 -507.846)" fill="#12263f"/><path d="M1011.5,242.944l.377.767-14.139,4.683-.179-.785Z" transform="translate(-376.263 -323.039)" fill="#12263f"/><path d="M980.721,176.247l.69.3-4.146,14.423-.8-.212q2-6.963,4.013-13.926A5.545,5.545,0,0,1,980.721,176.247Z" transform="translate(-359.645 -270.485)" fill="#12263f"/><path d="M574.7,21.78l-.677-.431q3.472-5.7,6.945-11.409c.219-.36.427-.726.64-1.09l.689.424q-3.724,6.114-7.448,12.228C574.8,21.592,574.753,21.687,574.7,21.78Z" transform="translate(-42.541 -138.585)" fill="#12263f"/><path d="M952.292-9.634l.645.486q-4.521,4.9-9.044,9.8c-.256.277-.446.651-.884.7l-.387-.321a15.712,15.712,0,0,1,2.587-3.015C947.545-4.555,949.928-7.086,952.292-9.634Z" transform="translate(-332.975 -124.02)" fill="#12263f"/><path d="M663.156,375.563l-.768-.283q3.2-5.7,6.414-11.4c.134-.236.15-.792.707-.481.609.34.12.672-.034.948Q666.332,369.963,663.156,375.563Z" transform="translate(-112.165 -417.876)" fill="#12263f"/><path d="M1000.449,296.487s-.011.044-.011.042c-.487.693-.778.055-1.057-.2q-4.448-3.99-8.868-8.009l.572-.607q4.56,4.119,9.121,8.238C1000.365,296.1,1000.519,296.241,1000.449,296.487Z" transform="translate(-370.71 -358.318)" fill="#12263f"/><path d="M642.626,281.989l.6-.461q4.612,3.86,9.22,7.726c.092.078.109.244.161.369l-.422.44Z" transform="translate(-96.594 -353.441)" fill="#12263f"/><path d="M554.478-9.925l-.016-.834,9.5-1.008q.019.364.038.727C560.84-10.529,557.652-10.289,554.478-9.925Z" transform="translate(-27.125 -122.34)" fill="#12263f"/><path d="M809.93,366.964l-1.816,12.98c-.286.18-.556,0-.832-.036.2-2.981.809-5.91,1.184-8.869.172-1.359.368-2.715.553-4.072Z" transform="translate(-226.334 -420.76)" fill="#12263f"/><path d="M804.548,339.961l-.911,0a3.743,3.743,0,0,1-3.179-3.779,3.681,3.681,0,1,1,4.09,3.776Z" transform="translate(-220.953 -393.757)" fill="#12263f"/></g></svg>