<svg xmlns="http://www.w3.org/2000/svg" width="125.737" height="154.64" viewBox="0 0 125.737 154.64"><g transform="translate(-6.554 -9.039)"><path d="M198.43,218.81a9.947,9.947,0,0,1-4.439,8.923c-.743-.5-1.13-.281-1.2.589a9.162,9.162,0,0,1-6.906.876c-.2-.8-.684-.664-1.214-.362A10.593,10.593,0,0,1,179.2,224.2c-.08-.2-.164-.413-.248-.623a9.5,9.5,0,0,1-.187-7.855c.77-.217,1.042-.619.491-1.326a9.838,9.838,0,0,1,4.351-4.3l.8-.427a10.6,10.6,0,0,1,7.238-.046,1.444,1.444,0,0,0,1.1.461,10.173,10.173,0,0,1,5.633,7.464A.779.779,0,0,0,198.43,218.81Z" transform="translate(-120.34 -140.355)" fill="#12263f"/><path d="M242.755,111.211c-4.248-2.779-5.308-7.839-2.454-11.712a8.005,8.005,0,0,1,13.53,8.472,7.943,7.943,0,0,1-9.048,4.042c-.383-.1-.765-.2-1.147-.3Z" transform="translate(-162.945 -61.223)" fill="#12263f"/><path d="M374.337,215.144a8.056,8.056,0,1,1,15.756,2.121A8.035,8.035,0,0,1,374.672,217c-.092-.33-.2-.657-.294-.985Q374.357,215.581,374.337,215.144Z" transform="translate(-258.146 -138.849)" fill="#12263f"/><path d="M135.359,24.791c-4.416.958-8.436-1.184-9.755-5.2A8.02,8.02,0,1,1,137.65,23.73c-.411.273-.841.518-1.262.775C136.017,24.5,135.628,24.431,135.359,24.791Z" transform="translate(-83.274)" fill="#12263f"/><path d="M136.746,474.163a7.98,7.98,0,0,1,5.946,8.625,8.02,8.02,0,1,1-7.163-8.894C135.861,474.313,136.222,474.609,136.746,474.163Z" transform="translate(-84.331 -326.265)" fill="#12263f"/><path d="M20.57,119.005a7.849,7.849,0,0,1-8.263,2.323,7.546,7.546,0,0,1-5.527-5.849,7.9,7.9,0,0,1,3.671-8.691,8.018,8.018,0,0,1,11.463,10.1c-.157.362-.356.705-.535,1.057C20.65,117.949,20.441,118.349,20.57,119.005Z" transform="translate(0 -67.829)" fill="#12263f"/><path d="M82.5,278.445c1.63,5.76-2.066,9.777-6.043,10.592A8.124,8.124,0,0,1,67.086,283a8.034,8.034,0,0,1,6-9.628c3.851-.775,6.756.661,8.864,3.888A1.138,1.138,0,0,0,82.5,278.445Z" transform="translate(-42.354 -185.391)" fill="#12263f"/><path d="M261.527,342.441a7.976,7.976,0,1,1-4.253,8.923,7.623,7.623,0,0,1,3.126-8.237C261.174,343.553,261.441,343.145,261.527,342.441Z" transform="translate(-175.838 -233.423)" fill="#12263f"/><path d="M157.53,334.394c-.524.447-.884.151-1.217-.269,1.293-5.681,2.6-11.359,3.874-17.044q4.62-20.678,9.205-41.364a5.116,5.116,0,0,0,.057-.738c.531-.3,1.012-.439,1.214.362-.988,4.283-2,8.56-2.958,12.85q-5.072,22.729-10.109,45.466A5.6,5.6,0,0,0,157.53,334.394Z" transform="translate(-105.116 -186.496)" fill="#12263f"/><path d="M53.487,147.894c-.128-.656.08-1.056.808-1.062q7.735,4.976,15.472,9.949,10.317,6.606,20.652,13.186c.455.29.945.528,1.419.79.551.707.278,1.109-.491,1.326-3.767-2.451-7.52-4.926-11.305-7.348q-12.686-8.115-25.4-16.187C54.269,148.311,53.873,148.111,53.487,147.894Z" transform="translate(-32.917 -96.717)" fill="#12263f"/><path d="M159.289,61.185c.269-.36.658-.294,1.03-.286l10.952,44.809-.8.427a5.984,5.984,0,0,1-.9-2.775Q164.4,82.282,159.289,61.185Z" transform="translate(-107.204 -36.394)" fill="#12263f"/><path d="M283.8,234.653q.02.437.041.874c-3.588.546-7.208.307-10.813.429-9.108.307-18.218.575-27.328.859a.78.78,0,0,1-.057-1.262c8.713-.243,17.425-.5,26.139-.721C275.786,234.73,279.793,234.71,283.8,234.653Z" transform="translate(-167.608 -158.359)" fill="#12263f"/><path d="M240.854,292.852c-.086.7-.353,1.111-1.127.686-3.943-7.3-7.923-14.574-12.109-21.736.068-.87.455-1.093,1.2-.589Z" transform="translate(-155.165 -183.834)" fill="#12263f"/><path d="M232.27,146.407l.881.5-8.289,19.242a1.446,1.446,0,0,1-1.1-.461q3.918-9.087,7.834-18.175C231.772,147.113,231.843,146.653,232.27,146.407Z" transform="translate(-152.46 -96.419)" fill="#12263f"/><path d="M117.926,267.62a1.138,1.138,0,0,1-.555-1.185q8.687-4.078,17.377-8.149c.518-.242.993-.679,1.645-.5.084.21.168.42.248.624-.266.547-.833.652-1.312.879q-8.26,3.9-16.522,7.8A10.259,10.259,0,0,0,117.926,267.62Z" transform="translate(-77.777 -174.567)" fill="#12263f"/></g></svg>