<svg xmlns="http://www.w3.org/2000/svg" width="203.476" height="206.188" viewBox="0 0 203.476 206.188"><g transform="translate(-1065 -1900.535)"><g transform="translate(1109.824 1942.835)"><path d="M243.238,287.417c0,5.461-.035,10.922.023,16.382a3.324,3.324,0,0,1-1.87,3.248q-14.363,8.239-28.676,16.564a2.8,2.8,0,0,1-3.067.019q-14.433-8.37-28.89-16.7a3.166,3.166,0,0,1-1.682-3.1q.033-16.633-.018-33.267a2.714,2.714,0,0,1,1.47-2.572c9.5-5.461,19-10.91,28.465-16.426a3.815,3.815,0,0,1,4.316-.019q14.194,8.279,28.464,16.428a2.789,2.789,0,0,1,1.5,2.68c-.025,5.586-.011,11.173-.011,16.759Zm-56.706-17.174c.358.245.49.349.634.432,7.736,4.472,15.467,8.954,23.231,13.377a2,2,0,0,0,1.671-.079q11.425-6.516,22.795-13.126c.271-.157.518-.355.846-.583a6.046,6.046,0,0,0-.486-.363c-7.775-4.491-15.544-8.992-23.348-13.432a2.014,2.014,0,0,0-1.663.133c-6.492,3.692-12.955,7.434-19.424,11.167C189.419,268.558,188.057,269.356,186.532,270.243Zm-2.572,4.332v1.515c0,8.568.017,17.136-.026,25.7a1.955,1.955,0,0,0,1.134,1.978c7.506,4.29,14.985,8.626,22.474,12.944.309.178.644.31,1.038.5a5.375,5.375,0,0,0,.085-.612c0-8.988.017-17.976-.033-26.963a1.87,1.87,0,0,0-.866-1.287c-4.445-2.624-8.922-5.192-13.393-7.772C191,278.631,187.624,276.687,183.96,274.575Zm54.41.045c-.656.354-1.09.575-1.512.818-7.378,4.258-14.747,8.533-22.143,12.76a1.838,1.838,0,0,0-1.079,1.861c.038,8.61.022,17.22.026,25.83,0,.4.035.8.06,1.34.342-.151.571-.226.775-.344,7.706-4.447,15.418-8.885,23.095-13.382a2.022,2.022,0,0,0,.745-1.5c.06-4.073.033-8.148.033-12.222Z" transform="translate(-155.035 -225.339)" fill="#12263f"/><path d="M208.707,286.415c1.525-.887,2.887-1.685,4.255-2.474,6.469-3.733,12.932-7.475,19.424-11.167a2.014,2.014,0,0,1,1.663-.133c7.8,4.44,15.573,8.941,23.348,13.432a6.051,6.051,0,0,1,.486.363c-.328.228-.575.426-.846.583q-11.387,6.582-22.795,13.126a2,2,0,0,1-1.671.079c-7.764-4.423-15.494-8.906-23.231-13.377C209.2,286.764,209.065,286.66,208.707,286.415Z" transform="translate(-177.21 -241.511)" fill="#1565c0"/><path d="M198.428,344.836c3.664,2.112,7.041,4.055,10.415,6,4.47,2.58,8.948,5.149,13.393,7.773a1.87,1.87,0,0,1,.866,1.287c.049,8.988.037,17.976.033,26.963a5.374,5.374,0,0,1-.085.612c-.394-.188-.729-.32-1.038-.5-7.49-4.318-14.969-8.654-22.474-12.944a1.955,1.955,0,0,1-1.134-1.978c.042-8.568.025-17.135.026-25.7Z" transform="translate(-169.503 -295.6)" fill="#1565c0"/><path d="M340.95,345.015v15.162c0,4.074.027,8.149-.033,12.222a2.022,2.022,0,0,1-.745,1.5c-7.677,4.5-15.388,8.935-23.095,13.382-.2.118-.433.194-.775.344-.025-.536-.06-.938-.06-1.34,0-8.61.012-17.22-.026-25.83a1.838,1.838,0,0,1,1.079-1.861c7.4-4.226,14.765-8.5,22.143-12.76C339.86,345.59,340.294,345.369,340.95,345.015Z" transform="translate(-257.615 -295.734)" fill="#1565c0"/><g transform="translate(62.381 25.591) rotate(180)"><path d="M296.731,160.672c0-2.767-.012-5.533,0-8.3.009-1.792.955-2.854,2.474-2.832,1.469.021,2.388,1.057,2.393,2.786q.021,8.425,0,16.851a2.445,2.445,0,1,1-4.865.046C296.714,166.374,296.732,163.523,296.731,160.672Z" transform="translate(-292.917 -149.54)" fill="#12263f"/><path d="M5.387,1.481a1,1,0,0,1,1.728,0l4.51,7.732a1,1,0,0,1-.864,1.5H1.741a1,1,0,0,1-.864-1.5Z" transform="translate(12.502 25.591) rotate(-180)" fill="#12263f"/></g><g transform="translate(62.336 125.442) rotate(180)"><path d="M.005,11.133c0-2.767-.012-5.533,0-8.3C.017,1.041.963-.021,2.482,0,3.952.021,4.871,1.058,4.875,2.787q.021,8.425,0,16.851a2.445,2.445,0,1,1-4.865.046C-.011,16.834.006,13.983.005,11.133Z" transform="translate(8.692 25.591) rotate(180)" fill="#12263f"/><path d="M5.387,1.481a1,1,0,0,1,1.728,0l4.51,7.732a1,1,0,0,1-.864,1.5H1.741a1,1,0,0,1-.864-1.5Z" transform="translate(0)" fill="#12263f"/></g><g transform="translate(114.459 104.084) rotate(180)"><path d="M.005,11.133c0-2.767-.012-5.533,0-8.3C.017,1.041.963-.021,2.482,0,3.952.021,4.871,1.058,4.875,2.787q.021,8.425,0,16.851a2.445,2.445,0,1,1-4.865.046C-.011,16.834.006,13.983.005,11.133Z" transform="translate(24.833 19.955) rotate(132)" fill="#12263f"/><path d="M5.387,1.481a1,1,0,0,1,1.728,0l4.51,7.732a1,1,0,0,1-.864,1.5H1.741a1,1,0,0,1-.864-1.5Z" transform="translate(0 9.291) rotate(-48)" fill="#12263f"/></g><g transform="translate(116.824 45.276) rotate(180)"><path d="M.005,11.133c0-2.767-.012-5.533,0-8.3C.017,1.041.963-.021,2.482,0,3.952.021,4.871,1.058,4.875,2.787q.021,8.425,0,16.851a2.445,2.445,0,1,1-4.865.046C-.011,16.834.006,13.983.005,11.133Z" transform="matrix(0.545, 0.839, -0.839, 0.545, 23.536, 0)" fill="#12263f"/><path d="M5.387,1.481a1,1,0,0,1,1.728,0l4.51,7.732a1,1,0,0,1-.864,1.5H1.741a1,1,0,0,1-.864-1.5Z" transform="matrix(-0.545, -0.839, 0.839, -0.545, 6.809, 21.226)" fill="#12263f"/></g><g transform="translate(-0.636 21.588)"><path d="M.005,11.133c0-2.767-.012-5.533,0-8.3C.017,1.041.963-.021,2.482,0,3.952.021,4.871,1.058,4.875,2.787q.021,8.425,0,16.851a2.445,2.445,0,1,1-4.865.046C-.011,16.834.006,13.983.005,11.133Z" transform="translate(24.833 19.955) rotate(132)" fill="#12263f"/><path d="M5.387,1.481a1,1,0,0,1,1.728,0l4.51,7.732a1,1,0,0,1-.864,1.5H1.741a1,1,0,0,1-.864-1.5Z" transform="translate(0 9.291) rotate(-48)" fill="#12263f"/></g><g transform="translate(-3 78.397)"><path d="M.005,11.133c0-2.767-.012-5.533,0-8.3C.017,1.041.963-.021,2.482,0,3.952.021,4.871,1.058,4.875,2.787q.021,8.425,0,16.851a2.445,2.445,0,1,1-4.865.046C-.011,16.834.006,13.983.005,11.133Z" transform="matrix(0.545, 0.839, -0.839, 0.545, 23.536, 0)" fill="#12263f"/><path d="M5.387,1.481a1,1,0,0,1,1.728,0l4.51,7.732a1,1,0,0,1-.864,1.5H1.741a1,1,0,0,1-.864-1.5Z" transform="matrix(-0.545, -0.839, 0.839, -0.545, 6.809, 21.226)" fill="#12263f"/></g><path d="M-4052.326-9716.949l19.109-10.838,16.951,10.838v30.046l-18.558,10.523-3.032-1.765-14.469-8.759Z" transform="translate(4090.76 9765.404)" fill="#fff"/><g transform="translate(-1425.473 -5672.772)"><path d="M1481.039,5726.659a35.5,35.5,0,0,1,11.26,1.548,21.887,21.887,0,0,1,2.665,1.255,3.066,3.066,0,0,1,.722.58,1.946,1.946,0,0,1-.051,3.095,7.975,7.975,0,0,1-2.683,1.564,26.755,26.755,0,0,1-6.907,1.522,40.773,40.773,0,0,1-6.965.153,26.74,26.74,0,0,1-9.574-2.023,8.3,8.3,0,0,1-1.932-1.261,1.883,1.883,0,0,1-.08-2.989,7.815,7.815,0,0,1,2.965-1.737,25.241,25.241,0,0,1,6.5-1.425C1478.527,5726.787,1480.105,5726.722,1481.039,5726.659Z" transform="translate(-0.051)" fill="#12263f"/><path d="M1496.386,5892.954c0,1.253.032,2.479-.012,3.7a2.318,2.318,0,0,1-1.1,1.68,10.549,10.549,0,0,1-3.443,1.658,30.6,30.6,0,0,1-7.055,1.247,41.351,41.351,0,0,1-10.276-.486,17.812,17.812,0,0,1-5.644-1.8,8.269,8.269,0,0,1-1.5-1.146,1.906,1.906,0,0,1-.584-1.49c.015-1.111,0-2.224,0-3.406.224.159.4.288.579.41a15.579,15.579,0,0,0,5.671,2.2,42.144,42.144,0,0,0,15.918.247,19.21,19.21,0,0,0,5.9-1.856C1495.358,5893.636,1495.842,5893.294,1496.386,5892.954Z" transform="translate(-0.028 -152.185)" fill="#12263f"/><path d="M1496.359,5817.508c0,1.149.037,2.375-.013,3.6a2.414,2.414,0,0,1-1.224,1.787,12.489,12.489,0,0,1-4.485,1.895,39.2,39.2,0,0,1-12.424.895,28.316,28.316,0,0,1-7.8-1.544,8.019,8.019,0,0,1-2.937-1.7,2.257,2.257,0,0,1-.729-1.733c.024-1.093.006-2.187.006-3.368a12.029,12.029,0,0,0,4.219,2.123,25.245,25.245,0,0,0,5.625,1.109c2.161.161,4.334.292,6.5.245a29.517,29.517,0,0,0,10.386-1.839C1494.473,5818.578,1495.4,5818,1496.359,5817.508Z" transform="translate(0 -83.004)" fill="#12263f"/></g></g><g transform="translate(1083.954 1911.563)" fill="none" stroke="#12263f" stroke-width="2" stroke-dasharray="4"><circle cx="84.737" cy="84.737" r="84.737" stroke="none"/><circle cx="84.737" cy="84.737" r="83.737" fill="none"/></g><g transform="translate(1065 1950.211)"><rect width="41.253" height="20.069" transform="translate(2.005 2.131)" fill="#fff"/><g transform="translate(0)"><g transform="translate(0)"><path d="M113.315,3778.679q9.222,0,18.445,0a3.2,3.2,0,0,1,3.4,3.3c.041,2.124.009,4.25.009,6.375,0,3.623.01,7.246,0,10.869a3.292,3.292,0,0,1-3.549,3.5q-16.356,0-32.711,0c-1.376,0-2.752.01-4.128.006a3.27,3.27,0,0,1-3.471-3.416c-.014-5.661,0-11.322-.021-16.983a3.274,3.274,0,0,1,1.73-3.255,4.284,4.284,0,0,1,1.853-.4c6.148-.029,12.3-.017,18.445-.017Zm-19.241,2.47v19.415h38.507v-19.415Z" transform="translate(-91.287 -3778.662)" fill="#12263f"/><path d="M109.455,4022.083c.064.866.26,1.055,1.095,1.055q4.416,0,8.831,0c.9,0,1.09-.169,1.186-1.085q3.05,0,6.106,0,4.416,0,8.831.006a1.954,1.954,0,1,1,.066,3.906c-1.288.023-2.578-.006-3.866,0q-8.36,0-16.721.012-9.876,0-19.752-.015a1.919,1.919,0,0,1-1.969-1.25,1.85,1.85,0,0,1,.56-2.168,2.133,2.133,0,0,1,1.174-.466c4.755-.032,9.51-.02,14.265-.019A1.654,1.654,0,0,1,109.455,4022.083Z" transform="translate(-92.933 -3996.609)" fill="#12263f"/></g></g><g transform="translate(15.384 6.448)"><path d="M877.147,3490.324c.16-.156.315-.305.467-.457q1.241-1.239,2.48-2.479,1.474-1.477,2.946-2.955c.18-.18.358-.362.54-.539a.55.55,0,0,1,.79-.016c.4.383.785.776,1.167,1.173a.512.512,0,0,1,.01.744c-.4.42-.813.826-1.222,1.236q-1.3,1.3-2.6,2.6l-2.609,2.607c-.5.5-1,.993-1.491,1.495a.584.584,0,0,1-.952.008q-1.474-1.477-2.948-2.953c-.592-.594-1.178-1.193-1.773-1.785a.6.6,0,0,1-.005-.922c.358-.338.7-.7,1.049-1.043a.56.56,0,0,1,.87-.005q1.553,1.562,3.1,3.127C877.024,3490.209,877.08,3490.26,877.147,3490.324Z" transform="translate(-871.735 -3483.718)" fill="#12263f"/></g></g><g transform="translate(1065 2029.992)"><rect width="41.253" height="20.069" transform="translate(2.005 2.131)" fill="#fff"/><g transform="translate(0)"><g transform="translate(0)"><path d="M113.315,3778.679q9.222,0,18.445,0a3.2,3.2,0,0,1,3.4,3.3c.041,2.124.009,4.25.009,6.375,0,3.623.01,7.246,0,10.869a3.292,3.292,0,0,1-3.549,3.5q-16.356,0-32.711,0c-1.376,0-2.752.01-4.128.006a3.27,3.27,0,0,1-3.471-3.416c-.014-5.661,0-11.322-.021-16.983a3.274,3.274,0,0,1,1.73-3.255,4.284,4.284,0,0,1,1.853-.4c6.148-.029,12.3-.017,18.445-.017Zm-19.241,2.47v19.415h38.507v-19.415Z" transform="translate(-91.287 -3778.662)" fill="#12263f"/><path d="M109.455,4022.083c.064.866.26,1.055,1.095,1.055q4.416,0,8.831,0c.9,0,1.09-.169,1.186-1.085q3.05,0,6.106,0,4.416,0,8.831.006a1.954,1.954,0,1,1,.066,3.906c-1.288.023-2.578-.006-3.866,0q-8.36,0-16.721.012-9.876,0-19.752-.015a1.919,1.919,0,0,1-1.969-1.25,1.85,1.85,0,0,1,.56-2.168,2.133,2.133,0,0,1,1.174-.466c4.755-.032,9.51-.02,14.265-.019A1.654,1.654,0,0,1,109.455,4022.083Z" transform="translate(-92.933 -3996.609)" fill="#12263f"/></g></g><g transform="translate(15.384 6.448)"><path d="M877.147,3490.324c.16-.156.315-.305.467-.457q1.241-1.239,2.48-2.479,1.474-1.477,2.946-2.955c.18-.18.358-.362.54-.539a.55.55,0,0,1,.79-.016c.4.383.785.776,1.167,1.173a.512.512,0,0,1,.01.744c-.4.42-.813.826-1.222,1.236q-1.3,1.3-2.6,2.6l-2.609,2.607c-.5.5-1,.993-1.491,1.495a.584.584,0,0,1-.952.008q-1.474-1.477-2.948-2.953c-.592-.594-1.178-1.193-1.773-1.785a.6.6,0,0,1-.005-.922c.358-.338.7-.7,1.049-1.043a.56.56,0,0,1,.87-.005q1.553,1.562,3.1,3.127C877.024,3490.209,877.08,3490.26,877.147,3490.324Z" transform="translate(-871.735 -3483.718)" fill="#12263f"/></g></g><g transform="translate(1223.877 2029.992)"><rect width="41.253" height="20.069" transform="translate(2.005 2.131)" fill="#fff"/><g transform="translate(0)"><g transform="translate(0)"><path d="M113.315,3778.679q9.222,0,18.445,0a3.2,3.2,0,0,1,3.4,3.3c.041,2.124.009,4.25.009,6.375,0,3.623.01,7.246,0,10.869a3.292,3.292,0,0,1-3.549,3.5q-16.356,0-32.711,0c-1.376,0-2.752.01-4.128.006a3.27,3.27,0,0,1-3.471-3.416c-.014-5.661,0-11.322-.021-16.983a3.274,3.274,0,0,1,1.73-3.255,4.284,4.284,0,0,1,1.853-.4c6.148-.029,12.3-.017,18.445-.017Zm-19.241,2.47v19.415h38.507v-19.415Z" transform="translate(-91.287 -3778.662)" fill="#12263f"/><path d="M109.455,4022.083c.064.866.26,1.055,1.095,1.055q4.416,0,8.831,0c.9,0,1.09-.169,1.186-1.085q3.05,0,6.106,0,4.416,0,8.831.006a1.954,1.954,0,1,1,.066,3.906c-1.288.023-2.578-.006-3.866,0q-8.36,0-16.721.012-9.876,0-19.752-.015a1.919,1.919,0,0,1-1.969-1.25,1.85,1.85,0,0,1,.56-2.168,2.133,2.133,0,0,1,1.174-.466c4.755-.032,9.51-.02,14.265-.019A1.654,1.654,0,0,1,109.455,4022.083Z" transform="translate(-92.933 -3996.609)" fill="#12263f"/></g></g><g transform="translate(15.384 6.448)"><path d="M877.147,3490.324c.16-.156.315-.305.467-.457q1.241-1.239,2.48-2.479,1.474-1.477,2.946-2.955c.18-.18.358-.362.54-.539a.55.55,0,0,1,.79-.016c.4.383.785.776,1.167,1.173a.512.512,0,0,1,.01.744c-.4.42-.813.826-1.222,1.236q-1.3,1.3-2.6,2.6l-2.609,2.607c-.5.5-1,.993-1.491,1.495a.584.584,0,0,1-.952.008q-1.474-1.477-2.948-2.953c-.592-.594-1.178-1.193-1.773-1.785a.6.6,0,0,1-.005-.922c.358-.338.7-.7,1.049-1.043a.56.56,0,0,1,.87-.005q1.553,1.562,3.1,3.127C877.024,3490.209,877.08,3490.26,877.147,3490.324Z" transform="translate(-871.735 -3483.718)" fill="#12263f"/></g></g><g transform="translate(1145.431 1900.535)"><rect width="37" height="19" transform="translate(1.059 0.095)" fill="#fff"/><g transform="translate(0)"><g transform="translate(0)"><path d="M83.649,5597.3c.12.448.2.838.328,1.215a9.521,9.521,0,0,0,3.169,4.453.807.807,0,0,0,.454.157c.56.019,1.12,0,1.681.009a.846.846,0,0,1,.9.828.859.859,0,0,1-.856.839c-.13.009-.26,0-.391,0H69.7a3.937,3.937,0,0,1-.468-.015.828.828,0,0,1,.068-1.654c.586-.011,1.173.006,1.759-.01a.743.743,0,0,0,.419-.144,9.456,9.456,0,0,0,3.454-5.42,2.137,2.137,0,0,0,.02-.24c-.177-.008-.339-.021-.5-.021q-5.394,0-10.788,0a3.315,3.315,0,0,1-3.365-2.334,4.033,4.033,0,0,1-.159-1.152q-.014-9.419,0-18.838a3.326,3.326,0,0,1,2.629-3.453,4.407,4.407,0,0,1,.97-.082q15.615-.006,31.231,0a3.325,3.325,0,0,1,3.459,2.62,4.013,4.013,0,0,1,.083.892q.007,9.417,0,18.837a3.324,3.324,0,0,1-2.65,3.437,4.6,4.6,0,0,1-.971.074q-5.355.007-10.71,0Zm13.19-6.689v-.43q0-7.582,0-15.163a1.713,1.713,0,0,0-1.905-1.906H63.745a1.718,1.718,0,0,0-1.935,1.916q0,7.582,0,15.163v.42Zm-35.03,1.71c0,.451,0,.878,0,1.306a1.744,1.744,0,0,0,2.005,2H94.842c.117,0,.235,0,.352,0a1.584,1.584,0,0,0,1.583-1.353,14.9,14.9,0,0,0,.017-1.953Zm22.976,10.8c-.077-.1-.107-.14-.142-.178a10.451,10.451,0,0,1-2.655-5.376c-.038-.226-.147-.266-.343-.266q-2.324.007-4.648,0c-.228,0-.306.076-.345.306a10.367,10.367,0,0,1-2.245,4.863c-.169.206-.34.408-.542.651Z" transform="translate(-60.133 -5571.441)" fill="#12263f"/><path d="M295.183,5850.032a.851.851,0,0,1-.857-.834.847.847,0,0,1,1.694-.021A.853.853,0,0,1,295.183,5850.032Z" transform="translate(-275.983 -5826.676)" fill="#12263f"/></g></g><path d="M877.147,3490.324c.16-.156.315-.305.467-.457q1.241-1.239,2.48-2.479,1.474-1.477,2.946-2.955c.18-.18.358-.362.54-.539a.55.55,0,0,1,.79-.016c.4.383.785.776,1.167,1.173a.512.512,0,0,1,.01.744c-.4.42-.813.826-1.222,1.236q-1.3,1.3-2.6,2.6l-2.609,2.607c-.5.5-1,.993-1.491,1.495a.584.584,0,0,1-.952.008q-1.474-1.477-2.948-2.953c-.592-.594-1.178-1.193-1.773-1.785a.6.6,0,0,1-.005-.922c.358-.338.7-.7,1.049-1.043a.56.56,0,0,1,.87-.005q1.553,1.562,3.1,3.127C877.024,3490.209,877.08,3490.26,877.147,3490.324Z" transform="translate(-859.098 -3480.492)" fill="#12263f"/></g><g transform="translate(1146.546 2073.353)"><rect width="37" height="19" transform="translate(0.944 0.277)" fill="#fff"/><g transform="translate(0)"><g transform="translate(0)"><path d="M83.649,5597.3c.12.448.2.838.328,1.215a9.521,9.521,0,0,0,3.169,4.453.807.807,0,0,0,.454.157c.56.019,1.12,0,1.681.009a.846.846,0,0,1,.9.828.859.859,0,0,1-.856.839c-.13.009-.26,0-.391,0H69.7a3.937,3.937,0,0,1-.468-.015.828.828,0,0,1,.068-1.654c.586-.011,1.173.006,1.759-.01a.743.743,0,0,0,.419-.144,9.456,9.456,0,0,0,3.454-5.42,2.137,2.137,0,0,0,.02-.24c-.177-.008-.339-.021-.5-.021q-5.394,0-10.788,0a3.315,3.315,0,0,1-3.365-2.334,4.033,4.033,0,0,1-.159-1.152q-.014-9.419,0-18.838a3.326,3.326,0,0,1,2.629-3.453,4.407,4.407,0,0,1,.97-.082q15.615-.006,31.231,0a3.325,3.325,0,0,1,3.459,2.62,4.013,4.013,0,0,1,.083.892q.007,9.417,0,18.837a3.324,3.324,0,0,1-2.65,3.437,4.6,4.6,0,0,1-.971.074q-5.355.007-10.71,0Zm13.19-6.689v-.43q0-7.582,0-15.163a1.713,1.713,0,0,0-1.905-1.906H63.745a1.718,1.718,0,0,0-1.935,1.916q0,7.582,0,15.163v.42Zm-35.03,1.71c0,.451,0,.878,0,1.306a1.744,1.744,0,0,0,2.005,2H94.842c.117,0,.235,0,.352,0a1.584,1.584,0,0,0,1.583-1.353,14.9,14.9,0,0,0,.017-1.953Zm22.976,10.8c-.077-.1-.107-.14-.142-.178a10.451,10.451,0,0,1-2.655-5.376c-.038-.226-.147-.266-.343-.266q-2.324.007-4.648,0c-.228,0-.306.076-.345.306a10.367,10.367,0,0,1-2.245,4.863c-.169.206-.34.408-.542.651Z" transform="translate(-60.133 -5571.441)" fill="#12263f"/><path d="M295.183,5850.032a.851.851,0,0,1-.857-.834.847.847,0,0,1,1.694-.021A.853.853,0,0,1,295.183,5850.032Z" transform="translate(-275.983 -5826.676)" fill="#12263f"/></g></g><path d="M877.147,3490.324c.16-.156.315-.305.467-.457q1.241-1.239,2.48-2.479,1.474-1.477,2.946-2.955c.18-.18.358-.362.54-.539a.55.55,0,0,1,.79-.016c.4.383.785.776,1.167,1.173a.512.512,0,0,1,.01.744c-.4.42-.813.826-1.222,1.236q-1.3,1.3-2.6,2.6l-2.609,2.607c-.5.5-1,.993-1.491,1.495a.584.584,0,0,1-.952.008q-1.474-1.477-2.948-2.953c-.592-.594-1.178-1.193-1.773-1.785a.6.6,0,0,1-.005-.922c.358-.338.7-.7,1.049-1.043a.56.56,0,0,1,.87-.005q1.553,1.562,3.1,3.127C877.024,3490.209,877.08,3490.26,877.147,3490.324Z" transform="translate(-859.098 -3480.492)" fill="#12263f"/></g><g transform="translate(1234.16 1950.21)"><rect width="17" height="26" transform="translate(1.329 2.419)" fill="#fff"/><path d="M1715.367,5288.277q0,6.827,0,13.654c0,1.875-.541,2.407-2.422,2.41q-7.221.009-14.442,0c-1.759,0-2.384-.62-2.385-2.371q-.008-13.753-.006-27.506c0-1.955.565-2.5,2.543-2.5q7.173,0,14.347,0c1.795,0,2.362.538,2.368,2.361.016,4.65.005,9.3.005,13.951Zm-2.146-13.667H1698.1v25.648h15.123Zm-5.938,27.592a1.614,1.614,0,0,0-1.64-1.519,1.512,1.512,0,0,0-1.495,1.621,1.565,1.565,0,0,0,1.548,1.485A1.634,1.634,0,0,0,1707.283,5302.2Zm-4.4-29.249,0,.245h6.044v-.245Z" transform="translate(-1696.11 -5271.965)" fill="#12263f"/><g transform="translate(3.978 9.552)"><g transform="translate(0 0)"><path d="M877.147,3490.324c.16-.156.315-.305.467-.457q1.241-1.239,2.48-2.479,1.474-1.477,2.946-2.955c.18-.18.358-.362.54-.539a.55.55,0,0,1,.79-.016c.4.383.785.776,1.167,1.173a.512.512,0,0,1,.01.744c-.4.42-.813.826-1.222,1.236q-1.3,1.3-2.6,2.6l-2.609,2.607c-.5.5-1,.993-1.491,1.495a.584.584,0,0,1-.952.008q-1.474-1.477-2.948-2.953c-.592-.594-1.178-1.193-1.773-1.785a.6.6,0,0,1-.005-.922c.358-.338.7-.7,1.049-1.043a.56.56,0,0,1,.87-.005q1.553,1.562,3.1,3.127C877.024,3490.209,877.08,3490.26,877.147,3490.324Z" transform="translate(-871.735 -3483.718)" fill="#12263f"/></g></g></g></g></svg>