<svg xmlns="http://www.w3.org/2000/svg" width="302.868" height="194.416" viewBox="0 0 302.868 194.416"><g transform="translate(4195.644 8479.553)"><g transform="translate(-4162 -8452)" fill="none" stroke="#bee4f9" stroke-width="4" stroke-dasharray="4"><circle cx="34" cy="34" r="34" stroke="none"/><circle cx="34" cy="34" r="32" fill="none"/></g><g transform="translate(-4095 -8452)" fill="none" stroke="#bee4f9" stroke-width="4" stroke-dasharray="4"><circle cx="34" cy="34" r="34" stroke="none"/><circle cx="34" cy="34" r="32" fill="none"/></g><g transform="translate(-4029 -8452)" fill="none" stroke="#bee4f9" stroke-width="4" stroke-dasharray="4"><circle cx="34" cy="34" r="34" stroke="none"/><circle cx="34" cy="34" r="32" fill="none"/></g><g transform="translate(-4219.666 -8445.145)"><path d="M246.982,289.548c0,5.779-.037,11.559.024,17.337a3.518,3.518,0,0,1-1.98,3.438q-15.2,8.72-30.349,17.53a2.967,2.967,0,0,1-3.246.02q-15.275-8.858-30.575-17.671a3.351,3.351,0,0,1-1.78-3.278q.034-17.6-.019-35.208a2.872,2.872,0,0,1,1.555-2.722c10.051-5.78,20.11-11.546,30.126-17.385a4.038,4.038,0,0,1,4.568-.021q15.023,8.762,30.125,17.386a2.952,2.952,0,0,1,1.588,2.837c-.027,5.912-.012,11.825-.012,17.737Zm-60.014-18.176c.379.259.518.369.671.457,8.188,4.733,16.369,9.477,24.586,14.158a2.119,2.119,0,0,0,1.768-.084q12.091-6.9,24.125-13.892c.287-.166.548-.376.9-.617a6.4,6.4,0,0,0-.514-.384c-8.228-4.753-16.451-9.517-24.71-14.216a2.132,2.132,0,0,0-1.76.14c-6.871,3.907-13.711,7.868-20.557,11.818C190.024,269.589,188.582,270.434,186.968,271.372Zm-2.722,4.585v1.6c0,9.068.018,18.136-.027,27.2a2.069,2.069,0,0,0,1.2,2.093c7.944,4.54,15.859,9.129,23.786,13.7.327.188.681.328,1.1.527a5.688,5.688,0,0,0,.09-.648c0-9.512.018-19.025-.034-28.537a1.979,1.979,0,0,0-.917-1.362c-4.7-2.777-9.443-5.5-14.174-8.226C191.7,280.249,188.124,278.192,184.246,275.957Zm57.585.048c-.694.375-1.154.608-1.6.866-7.809,4.507-15.607,9.031-23.435,13.5a1.945,1.945,0,0,0-1.142,1.969c.04,9.112.024,18.224.027,27.337,0,.425.037.85.064,1.418.362-.159.6-.24.82-.365,8.156-4.706,16.318-9.4,24.442-14.163a2.14,2.14,0,0,0,.789-1.585c.064-4.311.035-8.623.035-12.935Z" transform="translate(-155.035 -225.339)" fill="#12263f"/><path d="M208.707,287.226c1.614-.939,3.056-1.784,4.5-2.619,6.846-3.95,13.686-7.911,20.557-11.818a2.132,2.132,0,0,1,1.76-.14c8.259,4.7,16.482,9.463,24.71,14.216a6.4,6.4,0,0,1,.514.384c-.347.241-.608.451-.9.617q-12.051,6.966-24.125,13.892a2.119,2.119,0,0,1-1.768.084c-8.217-4.681-16.4-9.425-24.586-14.158C209.225,287.6,209.086,287.485,208.707,287.226Z" transform="translate(-176.774 -241.193)" fill="#1565c0"/><path d="M198.429,344.836c3.878,2.235,7.451,4.292,11.023,6.353,4.731,2.731,9.47,5.449,14.174,8.226a1.979,1.979,0,0,1,.917,1.362c.052,9.512.039,19.024.034,28.537a5.687,5.687,0,0,1-.09.648c-.417-.2-.772-.338-1.1-.527-7.927-4.57-15.842-9.159-23.786-13.7a2.069,2.069,0,0,1-1.2-2.093c.045-9.068.027-18.135.027-27.2Z" transform="translate(-169.218 -294.218)" fill="#1565c0"/><path d="M342.393,345.015v16.047c0,4.312.029,8.624-.035,12.935a2.139,2.139,0,0,1-.789,1.585c-8.125,4.76-16.286,9.457-24.442,14.163-.216.125-.458.205-.82.364-.026-.568-.064-.993-.064-1.418,0-9.113.013-18.225-.027-27.337a1.945,1.945,0,0,1,1.142-1.969c7.828-4.473,15.626-9,23.435-13.5C341.239,345.623,341.7,345.39,342.393,345.015Z" transform="translate(-255.597 -294.35)" fill="#1565c0"/></g><g transform="translate(-4151.704 -8445.145)"><path d="M246.982,289.548c0,5.779-.037,11.559.024,17.337a3.518,3.518,0,0,1-1.98,3.438q-15.2,8.72-30.349,17.53a2.967,2.967,0,0,1-3.246.02q-15.275-8.858-30.575-17.671a3.351,3.351,0,0,1-1.78-3.278q.034-17.6-.019-35.208a2.872,2.872,0,0,1,1.555-2.722c10.051-5.78,20.11-11.546,30.126-17.385a4.038,4.038,0,0,1,4.568-.021q15.023,8.762,30.125,17.386a2.952,2.952,0,0,1,1.588,2.837c-.027,5.912-.012,11.825-.012,17.737Zm-60.014-18.176c.379.259.518.369.671.457,8.188,4.733,16.369,9.477,24.586,14.158a2.119,2.119,0,0,0,1.768-.084q12.091-6.9,24.125-13.892c.287-.166.548-.376.9-.617a6.4,6.4,0,0,0-.514-.384c-8.228-4.753-16.451-9.517-24.71-14.216a2.132,2.132,0,0,0-1.76.14c-6.871,3.907-13.711,7.868-20.557,11.818C190.024,269.589,188.582,270.434,186.968,271.372Zm-2.722,4.585v1.6c0,9.068.018,18.136-.027,27.2a2.069,2.069,0,0,0,1.2,2.093c7.944,4.54,15.859,9.129,23.786,13.7.327.188.681.328,1.1.527a5.688,5.688,0,0,0,.09-.648c0-9.512.018-19.025-.034-28.537a1.979,1.979,0,0,0-.917-1.362c-4.7-2.777-9.443-5.5-14.174-8.226C191.7,280.249,188.124,278.192,184.246,275.957Zm57.585.048c-.694.375-1.154.608-1.6.866-7.809,4.507-15.607,9.031-23.435,13.5a1.945,1.945,0,0,0-1.142,1.969c.04,9.112.024,18.224.027,27.337,0,.425.037.85.064,1.418.362-.159.6-.24.82-.365,8.156-4.706,16.318-9.4,24.442-14.163a2.14,2.14,0,0,0,.789-1.585c.064-4.311.035-8.623.035-12.935Z" transform="translate(-155.035 -225.339)" fill="#12263f"/><path d="M208.707,287.226c1.614-.939,3.056-1.784,4.5-2.619,6.846-3.95,13.686-7.911,20.557-11.818a2.132,2.132,0,0,1,1.76-.14c8.259,4.7,16.482,9.463,24.71,14.216a6.4,6.4,0,0,1,.514.384c-.347.241-.608.451-.9.617q-12.051,6.966-24.125,13.892a2.119,2.119,0,0,1-1.768.084c-8.217-4.681-16.4-9.425-24.586-14.158C209.225,287.6,209.086,287.485,208.707,287.226Z" transform="translate(-176.774 -241.193)" fill="#bee4f9"/><path d="M198.429,344.836c3.878,2.235,7.451,4.292,11.023,6.353,4.731,2.731,9.47,5.449,14.174,8.226a1.979,1.979,0,0,1,.917,1.362c.052,9.512.039,19.024.034,28.537a5.687,5.687,0,0,1-.09.648c-.417-.2-.772-.338-1.1-.527-7.927-4.57-15.842-9.159-23.786-13.7a2.069,2.069,0,0,1-1.2-2.093c.045-9.068.027-18.135.027-27.2Z" transform="translate(-169.218 -294.218)" fill="#bee4f9"/><path d="M342.393,345.015v16.047c0,4.312.029,8.624-.035,12.935a2.139,2.139,0,0,1-.789,1.585c-8.125,4.76-16.286,9.457-24.442,14.163-.216.125-.458.205-.82.364-.026-.568-.064-.993-.064-1.418,0-9.113.013-18.225-.027-27.337a1.945,1.945,0,0,1,1.142-1.969c7.828-4.473,15.626-9,23.435-13.5C341.239,345.623,341.7,345.39,342.393,345.015Z" transform="translate(-255.597 -294.35)" fill="#bee4f9"/></g><g transform="translate(-4185.685 -8388.145)"><path d="M246.982,289.548c0,5.779-.037,11.559.024,17.337a3.518,3.518,0,0,1-1.98,3.438q-15.2,8.72-30.349,17.53a2.967,2.967,0,0,1-3.246.02q-15.275-8.858-30.575-17.671a3.351,3.351,0,0,1-1.78-3.278q.034-17.6-.019-35.208a2.872,2.872,0,0,1,1.555-2.722c10.051-5.78,20.11-11.546,30.126-17.385a4.038,4.038,0,0,1,4.568-.021q15.023,8.762,30.125,17.386a2.952,2.952,0,0,1,1.588,2.837c-.027,5.912-.012,11.825-.012,17.737Zm-60.014-18.176c.379.259.518.369.671.457,8.188,4.733,16.369,9.477,24.586,14.158a2.119,2.119,0,0,0,1.768-.084q12.091-6.9,24.125-13.892c.287-.166.548-.376.9-.617a6.4,6.4,0,0,0-.514-.384c-8.228-4.753-16.451-9.517-24.71-14.216a2.132,2.132,0,0,0-1.76.14c-6.871,3.907-13.711,7.868-20.557,11.818C190.024,269.589,188.582,270.434,186.968,271.372Zm-2.722,4.585v1.6c0,9.068.018,18.136-.027,27.2a2.069,2.069,0,0,0,1.2,2.093c7.944,4.54,15.859,9.129,23.786,13.7.327.188.681.328,1.1.527a5.688,5.688,0,0,0,.09-.648c0-9.512.018-19.025-.034-28.537a1.979,1.979,0,0,0-.917-1.362c-4.7-2.777-9.443-5.5-14.174-8.226C191.7,280.249,188.124,278.192,184.246,275.957Zm57.585.048c-.694.375-1.154.608-1.6.866-7.809,4.507-15.607,9.031-23.435,13.5a1.945,1.945,0,0,0-1.142,1.969c.04,9.112.024,18.224.027,27.337,0,.425.037.85.064,1.418.362-.159.6-.24.82-.365,8.156-4.706,16.318-9.4,24.442-14.163a2.14,2.14,0,0,0,.789-1.585c.064-4.311.035-8.623.035-12.935Z" transform="translate(-155.035 -225.339)" fill="#12263f"/><path d="M208.707,287.226c1.614-.939,3.056-1.784,4.5-2.619,6.846-3.95,13.686-7.911,20.557-11.818a2.132,2.132,0,0,1,1.76-.14c8.259,4.7,16.482,9.463,24.71,14.216a6.4,6.4,0,0,1,.514.384c-.347.241-.608.451-.9.617q-12.051,6.966-24.125,13.892a2.119,2.119,0,0,1-1.768.084c-8.217-4.681-16.4-9.425-24.586-14.158C209.225,287.6,209.086,287.485,208.707,287.226Z" transform="translate(-176.774 -241.193)" fill="#bee4f9"/><path d="M198.429,344.836c3.878,2.235,7.451,4.292,11.023,6.353,4.731,2.731,9.47,5.449,14.174,8.226a1.979,1.979,0,0,1,.917,1.362c.052,9.512.039,19.024.034,28.537a5.687,5.687,0,0,1-.09.648c-.417-.2-.772-.338-1.1-.527-7.927-4.57-15.842-9.159-23.786-13.7a2.069,2.069,0,0,1-1.2-2.093c.045-9.068.027-18.135.027-27.2Z" transform="translate(-169.218 -294.218)" fill="#bee4f9"/><path d="M342.393,345.015v16.047c0,4.312.029,8.624-.035,12.935a2.139,2.139,0,0,1-.789,1.585c-8.125,4.76-16.286,9.457-24.442,14.163-.216.125-.458.205-.82.364-.026-.568-.064-.993-.064-1.418,0-9.113.013-18.225-.027-27.337a1.945,1.945,0,0,1,1.142-1.969c7.828-4.473,15.626-9,23.435-13.5C341.239,345.623,341.7,345.39,342.393,345.015Z" transform="translate(-255.597 -294.35)" fill="#bee4f9"/></g><g transform="translate(-4117.723 -8388.145)"><path d="M246.982,289.548c0,5.779-.037,11.559.024,17.337a3.518,3.518,0,0,1-1.98,3.438q-15.2,8.72-30.349,17.53a2.967,2.967,0,0,1-3.246.02q-15.275-8.858-30.575-17.671a3.351,3.351,0,0,1-1.78-3.278q.034-17.6-.019-35.208a2.872,2.872,0,0,1,1.555-2.722c10.051-5.78,20.11-11.546,30.126-17.385a4.038,4.038,0,0,1,4.568-.021q15.023,8.762,30.125,17.386a2.952,2.952,0,0,1,1.588,2.837c-.027,5.912-.012,11.825-.012,17.737Zm-60.014-18.176c.379.259.518.369.671.457,8.188,4.733,16.369,9.477,24.586,14.158a2.119,2.119,0,0,0,1.768-.084q12.091-6.9,24.125-13.892c.287-.166.548-.376.9-.617a6.4,6.4,0,0,0-.514-.384c-8.228-4.753-16.451-9.517-24.71-14.216a2.132,2.132,0,0,0-1.76.14c-6.871,3.907-13.711,7.868-20.557,11.818C190.024,269.589,188.582,270.434,186.968,271.372Zm-2.722,4.585v1.6c0,9.068.018,18.136-.027,27.2a2.069,2.069,0,0,0,1.2,2.093c7.944,4.54,15.859,9.129,23.786,13.7.327.188.681.328,1.1.527a5.688,5.688,0,0,0,.09-.648c0-9.512.018-19.025-.034-28.537a1.979,1.979,0,0,0-.917-1.362c-4.7-2.777-9.443-5.5-14.174-8.226C191.7,280.249,188.124,278.192,184.246,275.957Zm57.585.048c-.694.375-1.154.608-1.6.866-7.809,4.507-15.607,9.031-23.435,13.5a1.945,1.945,0,0,0-1.142,1.969c.04,9.112.024,18.224.027,27.337,0,.425.037.85.064,1.418.362-.159.6-.24.82-.365,8.156-4.706,16.318-9.4,24.442-14.163a2.14,2.14,0,0,0,.789-1.585c.064-4.311.035-8.623.035-12.935Z" transform="translate(-155.035 -225.339)" fill="#12263f"/><path d="M208.707,287.226c1.614-.939,3.056-1.784,4.5-2.619,6.846-3.95,13.686-7.911,20.557-11.818a2.132,2.132,0,0,1,1.76-.14c8.259,4.7,16.482,9.463,24.71,14.216a6.4,6.4,0,0,1,.514.384c-.347.241-.608.451-.9.617q-12.051,6.966-24.125,13.892a2.119,2.119,0,0,1-1.768.084c-8.217-4.681-16.4-9.425-24.586-14.158C209.225,287.6,209.086,287.485,208.707,287.226Z" transform="translate(-176.774 -241.193)" fill="#bee4f9"/><path d="M198.429,344.836c3.878,2.235,7.451,4.292,11.023,6.353,4.731,2.731,9.47,5.449,14.174,8.226a1.979,1.979,0,0,1,.917,1.362c.052,9.512.039,19.024.034,28.537a5.687,5.687,0,0,1-.09.648c-.417-.2-.772-.338-1.1-.527-7.927-4.57-15.842-9.159-23.786-13.7a2.069,2.069,0,0,1-1.2-2.093c.045-9.068.027-18.135.027-27.2Z" transform="translate(-169.218 -294.218)" fill="#bee4f9"/><path d="M342.393,345.015v16.047c0,4.312.029,8.624-.035,12.935a2.139,2.139,0,0,1-.789,1.585c-8.125,4.76-16.286,9.457-24.442,14.163-.216.125-.458.205-.82.364-.026-.568-.064-.993-.064-1.418,0-9.113.013-18.225-.027-27.337a1.945,1.945,0,0,1,1.142-1.969c7.828-4.473,15.626-9,23.435-13.5C341.239,345.623,341.7,345.39,342.393,345.015Z" transform="translate(-255.597 -294.35)" fill="#bee4f9"/></g><g transform="translate(-4049.76 -8388.145)"><path d="M246.982,289.548c0,5.779-.037,11.559.024,17.337a3.518,3.518,0,0,1-1.98,3.438q-15.2,8.72-30.349,17.53a2.967,2.967,0,0,1-3.246.02q-15.275-8.858-30.575-17.671a3.351,3.351,0,0,1-1.78-3.278q.034-17.6-.019-35.208a2.872,2.872,0,0,1,1.555-2.722c10.051-5.78,20.11-11.546,30.126-17.385a4.038,4.038,0,0,1,4.568-.021q15.023,8.762,30.125,17.386a2.952,2.952,0,0,1,1.588,2.837c-.027,5.912-.012,11.825-.012,17.737Zm-60.014-18.176c.379.259.518.369.671.457,8.188,4.733,16.369,9.477,24.586,14.158a2.119,2.119,0,0,0,1.768-.084q12.091-6.9,24.125-13.892c.287-.166.548-.376.9-.617a6.4,6.4,0,0,0-.514-.384c-8.228-4.753-16.451-9.517-24.71-14.216a2.132,2.132,0,0,0-1.76.14c-6.871,3.907-13.711,7.868-20.557,11.818C190.024,269.589,188.582,270.434,186.968,271.372Zm-2.722,4.585v1.6c0,9.068.018,18.136-.027,27.2a2.069,2.069,0,0,0,1.2,2.093c7.944,4.54,15.859,9.129,23.786,13.7.327.188.681.328,1.1.527a5.688,5.688,0,0,0,.09-.648c0-9.512.018-19.025-.034-28.537a1.979,1.979,0,0,0-.917-1.362c-4.7-2.777-9.443-5.5-14.174-8.226C191.7,280.249,188.124,278.192,184.246,275.957Zm57.585.048c-.694.375-1.154.608-1.6.866-7.809,4.507-15.607,9.031-23.435,13.5a1.945,1.945,0,0,0-1.142,1.969c.04,9.112.024,18.224.027,27.337,0,.425.037.85.064,1.418.362-.159.6-.24.82-.365,8.156-4.706,16.318-9.4,24.442-14.163a2.14,2.14,0,0,0,.789-1.585c.064-4.311.035-8.623.035-12.935Z" transform="translate(-155.035 -225.339)" fill="#12263f"/><path d="M208.707,287.226c1.614-.939,3.056-1.784,4.5-2.619,6.846-3.95,13.686-7.911,20.557-11.818a2.132,2.132,0,0,1,1.76-.14c8.259,4.7,16.482,9.463,24.71,14.216a6.4,6.4,0,0,1,.514.384c-.347.241-.608.451-.9.617q-12.051,6.966-24.125,13.892a2.119,2.119,0,0,1-1.768.084c-8.217-4.681-16.4-9.425-24.586-14.158C209.225,287.6,209.086,287.485,208.707,287.226Z" transform="translate(-176.774 -241.193)" fill="#bee4f9"/><path d="M198.429,344.836c3.878,2.235,7.451,4.292,11.023,6.353,4.731,2.731,9.47,5.449,14.174,8.226a1.979,1.979,0,0,1,.917,1.362c.052,9.512.039,19.024.034,28.537a5.687,5.687,0,0,1-.09.648c-.417-.2-.772-.338-1.1-.527-7.927-4.57-15.842-9.159-23.786-13.7a2.069,2.069,0,0,1-1.2-2.093c.045-9.068.027-18.135.027-27.2Z" transform="translate(-169.218 -294.218)" fill="#bee4f9"/><path d="M342.393,345.015v16.047c0,4.312.029,8.624-.035,12.935a2.139,2.139,0,0,1-.789,1.585c-8.125,4.76-16.286,9.457-24.442,14.163-.216.125-.458.205-.82.364-.026-.568-.064-.993-.064-1.418,0-9.113.013-18.225-.027-27.337a1.945,1.945,0,0,1,1.142-1.969c7.828-4.473,15.626-9,23.435-13.5C341.239,345.623,341.7,345.39,342.393,345.015Z" transform="translate(-255.597 -294.35)" fill="#bee4f9"/></g><g transform="translate(-3984.76 -8388.145)"><path d="M246.982,289.548c0,5.779-.037,11.559.024,17.337a3.518,3.518,0,0,1-1.98,3.438q-15.2,8.72-30.349,17.53a2.967,2.967,0,0,1-3.246.02q-15.275-8.858-30.575-17.671a3.351,3.351,0,0,1-1.78-3.278q.034-17.6-.019-35.208a2.872,2.872,0,0,1,1.555-2.722c10.051-5.78,20.11-11.546,30.126-17.385a4.038,4.038,0,0,1,4.568-.021q15.023,8.762,30.125,17.386a2.952,2.952,0,0,1,1.588,2.837c-.027,5.912-.012,11.825-.012,17.737Zm-60.014-18.176c.379.259.518.369.671.457,8.188,4.733,16.369,9.477,24.586,14.158a2.119,2.119,0,0,0,1.768-.084q12.091-6.9,24.125-13.892c.287-.166.548-.376.9-.617a6.4,6.4,0,0,0-.514-.384c-8.228-4.753-16.451-9.517-24.71-14.216a2.132,2.132,0,0,0-1.76.14c-6.871,3.907-13.711,7.868-20.557,11.818C190.024,269.589,188.582,270.434,186.968,271.372Zm-2.722,4.585v1.6c0,9.068.018,18.136-.027,27.2a2.069,2.069,0,0,0,1.2,2.093c7.944,4.54,15.859,9.129,23.786,13.7.327.188.681.328,1.1.527a5.688,5.688,0,0,0,.09-.648c0-9.512.018-19.025-.034-28.537a1.979,1.979,0,0,0-.917-1.362c-4.7-2.777-9.443-5.5-14.174-8.226C191.7,280.249,188.124,278.192,184.246,275.957Zm57.585.048c-.694.375-1.154.608-1.6.866-7.809,4.507-15.607,9.031-23.435,13.5a1.945,1.945,0,0,0-1.142,1.969c.04,9.112.024,18.224.027,27.337,0,.425.037.85.064,1.418.362-.159.6-.24.82-.365,8.156-4.706,16.318-9.4,24.442-14.163a2.14,2.14,0,0,0,.789-1.585c.064-4.311.035-8.623.035-12.935Z" transform="translate(-155.035 -225.339)" fill="#12263f"/><path d="M208.707,287.226c1.614-.939,3.056-1.784,4.5-2.619,6.846-3.95,13.686-7.911,20.557-11.818a2.132,2.132,0,0,1,1.76-.14c8.259,4.7,16.482,9.463,24.71,14.216a6.4,6.4,0,0,1,.514.384c-.347.241-.608.451-.9.617q-12.051,6.966-24.125,13.892a2.119,2.119,0,0,1-1.768.084c-8.217-4.681-16.4-9.425-24.586-14.158C209.225,287.6,209.086,287.485,208.707,287.226Z" transform="translate(-176.774 -241.193)" fill="#bee4f9"/><path d="M198.429,344.836c3.878,2.235,7.451,4.292,11.023,6.353,4.731,2.731,9.47,5.449,14.174,8.226a1.979,1.979,0,0,1,.917,1.362c.052,9.512.039,19.024.034,28.537a5.687,5.687,0,0,1-.09.648c-.417-.2-.772-.338-1.1-.527-7.927-4.57-15.842-9.159-23.786-13.7a2.069,2.069,0,0,1-1.2-2.093c.045-9.068.027-18.135.027-27.2Z" transform="translate(-169.218 -294.218)" fill="#bee4f9"/><path d="M342.393,345.015v16.047c0,4.312.029,8.624-.035,12.935a2.139,2.139,0,0,1-.789,1.585c-8.125,4.76-16.286,9.457-24.442,14.163-.216.125-.458.205-.82.364-.026-.568-.064-.993-.064-1.418,0-9.113.013-18.225-.027-27.337a1.945,1.945,0,0,1,1.142-1.969c7.828-4.473,15.626-9,23.435-13.5C341.239,345.623,341.7,345.39,342.393,345.015Z" transform="translate(-255.597 -294.35)" fill="#bee4f9"/></g><g transform="translate(-4083.741 -8445.145)"><path d="M246.982,289.548c0,5.779-.037,11.559.024,17.337a3.518,3.518,0,0,1-1.98,3.438q-15.2,8.72-30.349,17.53a2.967,2.967,0,0,1-3.246.02q-15.275-8.858-30.575-17.671a3.351,3.351,0,0,1-1.78-3.278q.034-17.6-.019-35.208a2.872,2.872,0,0,1,1.555-2.722c10.051-5.78,20.11-11.546,30.126-17.385a4.038,4.038,0,0,1,4.568-.021q15.023,8.762,30.125,17.386a2.952,2.952,0,0,1,1.588,2.837c-.027,5.912-.012,11.825-.012,17.737Zm-60.014-18.176c.379.259.518.369.671.457,8.188,4.733,16.369,9.477,24.586,14.158a2.119,2.119,0,0,0,1.768-.084q12.091-6.9,24.125-13.892c.287-.166.548-.376.9-.617a6.4,6.4,0,0,0-.514-.384c-8.228-4.753-16.451-9.517-24.71-14.216a2.132,2.132,0,0,0-1.76.14c-6.871,3.907-13.711,7.868-20.557,11.818C190.024,269.589,188.582,270.434,186.968,271.372Zm-2.722,4.585v1.6c0,9.068.018,18.136-.027,27.2a2.069,2.069,0,0,0,1.2,2.093c7.944,4.54,15.859,9.129,23.786,13.7.327.188.681.328,1.1.527a5.688,5.688,0,0,0,.09-.648c0-9.512.018-19.025-.034-28.537a1.979,1.979,0,0,0-.917-1.362c-4.7-2.777-9.443-5.5-14.174-8.226C191.7,280.249,188.124,278.192,184.246,275.957Zm57.585.048c-.694.375-1.154.608-1.6.866-7.809,4.507-15.607,9.031-23.435,13.5a1.945,1.945,0,0,0-1.142,1.969c.04,9.112.024,18.224.027,27.337,0,.425.037.85.064,1.418.362-.159.6-.24.82-.365,8.156-4.706,16.318-9.4,24.442-14.163a2.14,2.14,0,0,0,.789-1.585c.064-4.311.035-8.623.035-12.935Z" transform="translate(-155.035 -225.339)" fill="#12263f"/><path d="M208.707,287.226c1.614-.939,3.056-1.784,4.5-2.619,6.846-3.95,13.686-7.911,20.557-11.818a2.132,2.132,0,0,1,1.76-.14c8.259,4.7,16.482,9.463,24.71,14.216a6.4,6.4,0,0,1,.514.384c-.347.241-.608.451-.9.617q-12.051,6.966-24.125,13.892a2.119,2.119,0,0,1-1.768.084c-8.217-4.681-16.4-9.425-24.586-14.158C209.225,287.6,209.086,287.485,208.707,287.226Z" transform="translate(-176.774 -241.193)" fill="#bee4f9"/><path d="M198.429,344.836c3.878,2.235,7.451,4.292,11.023,6.353,4.731,2.731,9.47,5.449,14.174,8.226a1.979,1.979,0,0,1,.917,1.362c.052,9.512.039,19.024.034,28.537a5.687,5.687,0,0,1-.09.648c-.417-.2-.772-.338-1.1-.527-7.927-4.57-15.842-9.159-23.786-13.7a2.069,2.069,0,0,1-1.2-2.093c.045-9.068.027-18.135.027-27.2Z" transform="translate(-169.218 -294.218)" fill="#bee4f9"/><path d="M342.393,345.015v16.047c0,4.312.029,8.624-.035,12.935a2.139,2.139,0,0,1-.789,1.585c-8.125,4.76-16.286,9.457-24.442,14.163-.216.125-.458.205-.82.364-.026-.568-.064-.993-.064-1.418,0-9.113.013-18.225-.027-27.337a1.945,1.945,0,0,1,1.142-1.969c7.828-4.473,15.626-9,23.435-13.5C341.239,345.623,341.7,345.39,342.393,345.015Z" transform="translate(-255.597 -294.35)" fill="#bee4f9"/></g><g transform="translate(-4015.779 -8445.145)"><path d="M246.982,289.548c0,5.779-.037,11.559.024,17.337a3.518,3.518,0,0,1-1.98,3.438q-15.2,8.72-30.349,17.53a2.967,2.967,0,0,1-3.246.02q-15.275-8.858-30.575-17.671a3.351,3.351,0,0,1-1.78-3.278q.034-17.6-.019-35.208a2.872,2.872,0,0,1,1.555-2.722c10.051-5.78,20.11-11.546,30.126-17.385a4.038,4.038,0,0,1,4.568-.021q15.023,8.762,30.125,17.386a2.952,2.952,0,0,1,1.588,2.837c-.027,5.912-.012,11.825-.012,17.737Zm-60.014-18.176c.379.259.518.369.671.457,8.188,4.733,16.369,9.477,24.586,14.158a2.119,2.119,0,0,0,1.768-.084q12.091-6.9,24.125-13.892c.287-.166.548-.376.9-.617a6.4,6.4,0,0,0-.514-.384c-8.228-4.753-16.451-9.517-24.71-14.216a2.132,2.132,0,0,0-1.76.14c-6.871,3.907-13.711,7.868-20.557,11.818C190.024,269.589,188.582,270.434,186.968,271.372Zm-2.722,4.585v1.6c0,9.068.018,18.136-.027,27.2a2.069,2.069,0,0,0,1.2,2.093c7.944,4.54,15.859,9.129,23.786,13.7.327.188.681.328,1.1.527a5.688,5.688,0,0,0,.09-.648c0-9.512.018-19.025-.034-28.537a1.979,1.979,0,0,0-.917-1.362c-4.7-2.777-9.443-5.5-14.174-8.226C191.7,280.249,188.124,278.192,184.246,275.957Zm57.585.048c-.694.375-1.154.608-1.6.866-7.809,4.507-15.607,9.031-23.435,13.5a1.945,1.945,0,0,0-1.142,1.969c.04,9.112.024,18.224.027,27.337,0,.425.037.85.064,1.418.362-.159.6-.24.82-.365,8.156-4.706,16.318-9.4,24.442-14.163a2.14,2.14,0,0,0,.789-1.585c.064-4.311.035-8.623.035-12.935Z" transform="translate(-155.035 -225.339)" fill="#12263f"/><path d="M208.707,287.226c1.614-.939,3.056-1.784,4.5-2.619,6.846-3.95,13.686-7.911,20.557-11.818a2.132,2.132,0,0,1,1.76-.14c8.259,4.7,16.482,9.463,24.71,14.216a6.4,6.4,0,0,1,.514.384c-.347.241-.608.451-.9.617q-12.051,6.966-24.125,13.892a2.119,2.119,0,0,1-1.768.084c-8.217-4.681-16.4-9.425-24.586-14.158C209.225,287.6,209.086,287.485,208.707,287.226Z" transform="translate(-176.774 -241.193)" fill="#bee4f9"/><path d="M198.429,344.836c3.878,2.235,7.451,4.292,11.023,6.353,4.731,2.731,9.47,5.449,14.174,8.226a1.979,1.979,0,0,1,.917,1.362c.052,9.512.039,19.024.034,28.537a5.687,5.687,0,0,1-.09.648c-.417-.2-.772-.338-1.1-.527-7.927-4.57-15.842-9.159-23.786-13.7a2.069,2.069,0,0,1-1.2-2.093c.045-9.068.027-18.135.027-27.2Z" transform="translate(-169.218 -294.218)" fill="#bee4f9"/><path d="M342.393,345.015v16.047c0,4.312.029,8.624-.035,12.935a2.139,2.139,0,0,1-.789,1.585c-8.125,4.76-16.286,9.457-24.442,14.163-.216.125-.458.205-.82.364-.026-.568-.064-.993-.064-1.418,0-9.113.013-18.225-.027-27.337a1.945,1.945,0,0,1,1.142-1.969c7.828-4.473,15.626-9,23.435-13.5C341.239,345.623,341.7,345.39,342.393,345.015Z" transform="translate(-255.597 -294.35)" fill="#bee4f9"/></g><g transform="translate(-5792.398 -16630.684)"><g transform="translate(1644.724 8151.131)"><path d="M1661.638,8197.346c-3.881,0-7.762.019-11.643,0-3.7-.021-5.217-1.5-5.228-5.13-.018-6.214-.124-12.432.085-18.64a5.673,5.673,0,0,1,1.96-4.081c1.469-.959,1.576-1.938,1.614-3.351a33.559,33.559,0,0,1,.516-7.172,10.278,10.278,0,0,1,10.036-7.8c1.81-.043,3.624-.047,5.433,0a10.684,10.684,0,0,1,10.484,10.364c.056,1.206.065,2.417.039,3.624-.04,1.9-.164,3.583,2.159,4.638.945.43,1.611,2.439,1.645,3.751.167,6.3.128,12.6.051,18.9-.04,3.339-1.659,4.859-4.993,4.895C1669.746,8197.378,1665.691,8197.346,1661.638,8197.346Zm-9.751-28.724h19.491c-.066-4.437,1.333-9.083-2.927-12.464-2.424-1.925-10.154-2.166-12.9-.437C1650.562,8158.866,1652.181,8163.842,1651.887,8168.622Zm14.71,11.5c-.048-2.829-1.321-4.264-3.391-4.876a4.237,4.237,0,0,0-4.965,1.853c-1.2,1.761-1.334,3.923.3,5.163,1.988,1.506,1.8,3.3,1.795,5.243-.005,1.262-.011,2.582,1.7,2.623,1.868.045,1.889-1.341,1.89-2.712,0-1.919-.427-3.915,1.725-5.25C1666.3,8181.765,1666.421,8180.534,1666.6,8180.118Z" transform="translate(-1644.724 -8151.131)" fill="#12263f"/><path d="M1678.355,8202.417c-.176.415-.3,1.646-.939,2.044-2.153,1.335-1.723,3.331-1.725,5.25,0,1.371-.022,2.756-1.89,2.712-1.713-.041-1.706-1.361-1.7-2.623.007-1.94.193-3.737-1.795-5.244-1.638-1.24-1.506-3.4-.3-5.163a4.239,4.239,0,0,1,4.965-1.853C1677.034,8198.153,1678.307,8199.588,1678.355,8202.417Z" transform="translate(-1656.482 -8173.429)" fill="#fff"/></g></g></g></svg>