<svg xmlns="http://www.w3.org/2000/svg" width="264.433" height="193.32" viewBox="0 0 264.433 193.32"><g transform="translate(-13.524 -701.936)"><g transform="translate(13.524 701.935)"><path d="M154.325,856.965c1.966,1.5,3.921,2.991,5.885,4.475q8.48,6.409,16.979,12.793a2.929,2.929,0,0,0,1.613.552c4.2.045,8.4.006,12.6.043a1.223,1.223,0,0,0,1.338-.849,15.232,15.232,0,0,1,29.236,5.545c.055,6.25-2.674,11.017-8.184,13.869-5.795,3-11.458,2.322-16.659-1.647a13.625,13.625,0,0,1-4.355-5.754,1.345,1.345,0,0,0-1.491-.963c-4.728.033-9.456-.013-14.184.032a7.1,7.1,0,0,1-4.59-1.527q-13-9.9-26.065-19.716c-.222-.168-.454-.322-.726-.514q-4.8,3.62-9.55,7.206-8.776,6.632-17.544,13.276a6.041,6.041,0,0,1-3.831,1.261c-4.728-.022-9.457.038-14.184-.032a1.913,1.913,0,0,0-2.1,1.343c-2.633,5.877-8.578,9.231-15.308,8.738a15.234,15.234,0,1,1,15.428-21.318,1.477,1.477,0,0,0,1.613,1.057c4.128-.051,8.256-.009,12.384-.042a2.6,2.6,0,0,0,1.459-.417q11.375-8.543,22.706-17.144c.111-.084.209-.182.424-.371l-15-11.349c-1.668,1.1-3.338,2.193-5,3.3-2.467,1.637-4.925,3.288-7.394,4.922a5.157,5.157,0,0,1-6.478-.018c-5.37-3.573-10.747-7.135-16.095-10.741a1.018,1.018,0,0,0-1.58.174c-3.3,3.333-6.652,6.615-9.965,9.936a5.258,5.258,0,0,1-3.9,1.58c-4.058,0-8.116.021-12.173-.018a1.489,1.489,0,0,0-1.646,1.03,15.2,15.2,0,1,1,0-12.211,1.477,1.477,0,0,0,1.644,1.029c3.14-.043,6.281-.008,9.421-.028a1.668,1.668,0,0,0,1.065-.266c2.505-2.469,4.972-4.977,7.535-7.562-2.015-1.342-4-2.664-5.984-3.988-2.316-1.545-4.628-3.1-6.948-4.636a5.044,5.044,0,0,1-2.36-4.464q-.007-5.981,0-11.962v-1.3c-1.145,0-2.191,0-3.236,0-4.975.008-9.949.033-14.924.009a1.269,1.269,0,0,0-1.4.9,15.227,15.227,0,1,1-13.5-21.163c6.341.288,10.79,3.472,13.481,9.157a1.3,1.3,0,0,0,1.387.923c5.751-.034,11.5-.014,17.253-.014.273,0,.547-.03.942-.053,0-1.417,0-2.782,0-4.148,0-1.764.018-3.529-.012-5.293a5.405,5.405,0,0,1,2.6-4.9c1.088-.714,2.191-1.4,3.4-2.174-.262-.295-.47-.554-.7-.786-3.972-3.96-7.967-7.9-11.9-11.89a3.656,3.656,0,0,0-2.66-1.123,2.775,2.775,0,0,0-3.144,1.906,15.211,15.211,0,1,1-13.1-22.14c6.337.229,10.892,3.425,13.585,9.179.314.67.621.97,1.385.937,1.479-.063,2.965.025,4.445-.03a5.808,5.808,0,0,1,4.531,1.883c3.129,3.157,6.3,6.272,9.429,9.427,2.284,2.3,4.53,4.641,6.856,7.028l11.178-7.195c-1.5-3.257-2.962-6.45-4.433-9.641-3.125-6.779-6.28-13.545-9.353-20.348a1.816,1.816,0,0,0-2.113-1.323,12.717,12.717,0,0,1-2.642,0c-.859-.085-1.205.273-1.539,1.031a15.226,15.226,0,1,1-13.6-21.309c6.278.178,10.793,3.28,13.512,8.924a1.729,1.729,0,0,0,1.882,1.195c2.255-.084,4.515-.026,6.774-.038a5.162,5.162,0,0,1,5.109,3.226q7.29,15.834,14.595,31.661c.146.317.309.627.508,1.031,1.462-.945,2.9-1.826,4.27-2.8.242-.172.274-.745.275-1.132.015-9.633.041-19.267-.007-28.9a6.045,6.045,0,0,1,3.151-5.669c3.444-2.069,6.827-4.238,10.239-6.359a5.1,5.1,0,1,1,5.461,8.614c-1.207.776-2.428,1.531-3.795,2.391,1.551.907,2.96,1.741,4.378,2.56q12.079,6.983,24.17,13.943a1.336,1.336,0,0,0,1.1.107q14.161-8.13,28.284-16.324a4.639,4.639,0,0,0,.411-.317c-1.508-.95-2.957-1.87-4.412-2.78q-11.836-7.393-23.664-14.8a1.61,1.61,0,0,0-2.055-.03c-2.263,1.5-4.6,2.884-6.906,4.312a5.1,5.1,0,1,1-5.479-8.591c3.447-2.2,6.935-4.333,10.4-6.5a5.228,5.228,0,0,1,5.968.015q13.089,8.177,26.181,16.348c3.976,2.481,7.935,4.989,11.942,7.419a5.993,5.993,0,0,1,3.14,5.568c-.043,9.386-.019,18.772-.02,28.159v1.552c1.722.486,1.985.363,2.658-1.1q5.948-12.905,11.9-25.808a5.035,5.035,0,0,1,4.977-3.236c2.293.024,4.589-.068,6.878.017a1.793,1.793,0,0,0,1.956-1.262,14.585,14.585,0,0,1,11.248-8.654,15.223,15.223,0,1,1-10.742,22.239c-.89-1.764-1.858-2.185-3.7-2.219a3.329,3.329,0,0,0-3.711,2.379c-2.4,5.6-5.049,11.086-7.6,16.618-.159.344-.292.7-.485,1.167.43.021.763.052,1.1.052q17.625,0,35.249.018a1.226,1.226,0,0,0,1.332-.852,15.217,15.217,0,1,1-.035,11.822c-.219-.5-.421-.8-1.05-.8q-16.725.029-33.449.014c-.124,0-.248.028-.646.077,1.5.974,2.782,1.809,4.068,2.636q8.14,5.231,16.287,10.451a5.8,5.8,0,0,1,2.93,5.366c-.065,3.027-.016,6.056-.016,9.241h3.2c4.869,0,9.739-.024,14.607.024a1.7,1.7,0,0,0,1.883-1.16,15.167,15.167,0,0,1,15.837-8.869,15.221,15.221,0,0,1-1.075,30.3,15.089,15.089,0,0,1-14.871-9.135,1.345,1.345,0,0,0-1.459-.968c-5.575.039-11.15.021-16.725.021h-1.4v1.212c0,3.881-.042,7.764.014,11.644a5.689,5.689,0,0,1-2.827,5.2c-3.927,2.556-7.818,5.168-11.723,7.759-.23.153-.447.324-.944.687,1.419,1.333,2.777,2.589,4.112,3.87,1.119,1.074,2.185,2.205,3.331,3.25a2.112,2.112,0,0,0,1.276.526c3.245.043,6.492,0,9.738.043a1.229,1.229,0,0,0,1.311-.887c2.86-6.076,7.665-9.252,14.389-9.251a15.23,15.23,0,1,1-14.29,21.364,1.539,1.539,0,0,0-1.71-1.088c-3.986.061-7.974.011-11.961.035a5.658,5.658,0,0,1-4.256-1.761c-3.254-3.279-6.557-6.51-9.809-9.792-.515-.52-.85-.607-1.492-.175-5.26,3.547-10.551,7.047-15.826,10.572-2.682,1.792-4.379,1.812-7.1.013q-5.688-3.765-11.361-7.552c-.437-.292-.757-.472-1.286-.068-4.705,3.6-9.438,7.157-14.159,10.733A1.5,1.5,0,0,0,154.325,856.965Zm-77.39-66.827c.273.2.436.335.612.449q14.173,9.119,28.339,18.251a1.174,1.174,0,0,0,1.5-.074q8.919-5.763,17.863-11.49c3.641-2.341,7.278-4.689,10.972-7.069-.216-.173-.365-.317-.536-.427q-14.221-9.144-28.436-18.3a1.094,1.094,0,0,0-1.4.06q-10.916,7.052-21.857,14.066C81.661,787.1,79.328,788.6,76.934,790.138Zm78.309-.009a2.535,2.535,0,0,0,.256.255q14.272,9.178,28.536,18.37a1.317,1.317,0,0,0,1.689-.015q10.114-6.552,20.261-13.053c2.813-1.81,5.625-3.623,8.537-5.5-.4-.279-.7-.508-1.015-.712q-13.826-8.887-27.646-17.784a1.531,1.531,0,0,0-1.965-.029c-6.827,4.432-13.688,8.811-20.535,13.213C160.668,786.606,157.985,788.354,155.243,790.129Zm-43.486-49.778a4.259,4.259,0,0,0-.087.5c0,6.878-.01,13.756.032,20.634a1.618,1.618,0,0,0,.682,1.125q13.663,8.848,27.366,17.636c.242.156.51.27.835.44.021-.3.039-.435.039-.575,0-7.408-.01-14.815.032-22.223,0-.815-.423-1.1-.987-1.421q-10.89-6.288-21.773-12.59C115.894,742.725,113.885,741.575,111.757,740.351Zm68.03.039a4.263,4.263,0,0,0-.485.177q-13.9,8.036-27.781,16.1a1.675,1.675,0,0,0-.663,1.236c-.041,7.3-.032,14.6-.028,21.9a8.72,8.72,0,0,0,.1.876c.379-.221.654-.368.914-.536q13.471-8.655,26.95-17.3A1.906,1.906,0,0,0,179.814,761c-.044-6.524-.026-13.048-.027-19.572ZM72.539,799.513v.74c0,6.489.021,12.977-.017,19.466a2.023,2.023,0,0,0,1.029,1.962Q85.9,829.821,98.2,838.043c1.039.69,2.087,1.366,3.283,2.149v-1.354c0-6.559-.013-13.118.019-19.677a1.639,1.639,0,0,0-.867-1.6q-9.935-6.337-19.831-12.736C78.118,803.092,75.424,801.365,72.539,799.513Zm107.25,40.7c0-7.321.013-14.374-.036-21.426a1.778,1.778,0,0,0-.813-1.165q-12.993-8.418-26.023-16.779c-.636-.409-1.285-.8-2.091-1.3v1.224c0,6.383.019,12.767-.017,19.149a1.772,1.772,0,0,0,.921,1.7q12.252,8.1,24.47,16.243C177.331,838.614,178.471,839.353,179.789,840.217Zm10.178-.064c.329-.176.483-.243.622-.335q13.868-9.224,27.717-18.476a1.65,1.65,0,0,0,.581-1.2c.036-6.563.025-13.126.021-19.69a7.68,7.68,0,0,0-.081-.788,1.836,1.836,0,0,0-.3.105q-14.011,9-28.006,18.025a1.527,1.527,0,0,0-.529,1.108c-.047,2.54-.026,5.081-.026,7.621C189.966,831.006,189.966,835.484,189.966,840.153Zm-49.381-40.547c-.348.188-.595.3-.821.447q-13.686,8.8-27.373,17.6a1.427,1.427,0,0,0-.733,1.37c.024,6.276.015,12.552.015,18.829v2.308c.418-.241.662-.364.888-.514q13.683-9.089,27.371-18.169a1.438,1.438,0,0,0,.707-1.383c-.018-6.523-.009-13.046-.01-19.569C140.629,800.254,140.6,799.987,140.585,799.606Zm19.576,39.983a1.769,1.769,0,0,0-.253-.291c-4.571-3.051-9.139-6.107-13.736-9.119a1.263,1.263,0,0,0-1.085.138c-2.9,1.879-5.767,3.8-8.644,5.709-1.714,1.138-3.426,2.282-5.238,3.489l14.525,10.97Zm92.3,9.988a5.089,5.089,0,0,0-5.038-5.065,5.211,5.211,0,0,0-5.11,5.043A5.145,5.145,0,0,0,247.4,854.6,5.034,5.034,0,0,0,252.46,849.577Zm7.626-82.362a5.072,5.072,0,0,0-5.07-5.027,5.039,5.039,0,1,0,.042,10.078A5.037,5.037,0,0,0,260.087,767.215ZM39,849.544a5.05,5.05,0,0,0,5.03,5.054A5.045,5.045,0,1,0,39,849.544Zm10.17-115.269a4.98,4.98,0,0,0,5,5.051,5.008,5.008,0,1,0,.081-10.014A4.986,4.986,0,0,0,49.168,734.276Zm218.548,70.9a5,5,0,0,0-5.086-4.974,5.011,5.011,0,1,0,.065,10.022A5.02,5.02,0,0,0,267.716,805.177ZM36.392,769.726a5.079,5.079,0,0,0,5.106-5.1,5.192,5.192,0,0,0-5.048-4.979,5.1,5.1,0,0,0-5.079,5.026A5.019,5.019,0,0,0,36.392,769.726Zm-7.573,40.5a5.01,5.01,0,1,0-.054-10.018,5.009,5.009,0,1,0,.054,10.018Zm55.892,74.735a5.011,5.011,0,1,0,.016-10.021,5.011,5.011,0,1,0-.016,10.021Zm122.007,0a5.01,5.01,0,1,0,.039-10.02,5.011,5.011,0,1,0-.039,10.02ZM237.207,736.9a4.991,4.991,0,0,0-5-5.047,5,5,0,1,0-.094,10A4.973,4.973,0,0,0,237.207,736.9Z" transform="translate(-13.524 -701.935)" fill="#12263f"/></g></g></svg>