<svg xmlns="http://www.w3.org/2000/svg" width="42.79" height="40.095" viewBox="0 0 42.79 40.095"><g transform="translate(-50.705 -2487.439)"><g transform="translate(50.705 2487.439)"><path d="M93.495,2512.164H92.159v-.52q0-9,0-18a2,2,0,0,0-1.995-2.175v18.653H88.827v-21.339c-.319,0-.593-.006-.867,0a39.277,39.277,0,0,0-9.58,1.157,19.138,19.138,0,0,0-5.32,2.334.556.556,0,0,0-.291.535q.01,13.531.007,27.061c0,.106.011.212.018.344l2.382-1.212.528,1.218c-.741.4-1.448.808-2.181,1.163a1.123,1.123,0,0,0-.755,1.327,4.735,4.735,0,0,1,.007.795H76.09v1.351H54.243a3.328,3.328,0,0,1-3.52-3.537c0-9.215.021-18.431-.018-27.646a3.475,3.475,0,0,1,3.36-3.58c0-.575.019-1.156-.007-1.734a.939.939,0,0,1,.423-.923h3.342c.135.023.27.056.406.07,1.728.175,3.466.278,5.181.534a20.888,20.888,0,0,1,8.424,3.079.45.45,0,0,0,.55.006c.946-.525,1.882-1.081,2.87-1.514a27.52,27.52,0,0,1,9.026-2.006c.7-.054,1.409-.113,2.114-.17h3.342a.939.939,0,0,1,.423.918c-.026.577-.007,1.156-.007,1.721a3.406,3.406,0,0,1,3.289,2.73c.006.023.035.04.054.06Zm-38.077,4.664c5.566.073,11.033.49,16.024,3.425v-.462q0-13.467.006-26.935a.618.618,0,0,0-.321-.6,19.634,19.634,0,0,0-5.931-2.48,34.727,34.727,0,0,0-6.682-.907c-1.023-.05-2.05-.008-3.095-.008Zm16,5.358H56.9c-.612,0-.832-.218-.835-.821,0-.64,0-1.281,0-1.921v-1.267H55.011c-.774,0-.946-.177-.946-.961q0-12.61,0-25.221v-.53a2.014,2.014,0,0,0-2.008,2.192q0,13.8,0,27.6a2.053,2.053,0,0,0,2.279,2.267H71.422Zm-13.99-3.957v2.6h12.1C65.738,2518.864,61.635,2518.379,57.432,2518.23Z" transform="translate(-50.705 -2487.439)" fill="#12263f"/><path d="M371.68,2769.143a.934.934,0,0,1-.923.422c-.443-.027-.89-.006-1.361-.006l-.479,1.138c.342.321.716.653,1.067,1.006a.707.707,0,0,1,0,1.156q-.834.849-1.682,1.684a.714.714,0,0,1-1.158.011c-.081-.077-.156-.159-.237-.235-.281-.267-.529-.684-.854-.756-.3-.067-.681.236-1.059.39,0,.5,0,1.013,0,1.527s-.241.758-.769.761q-1.232.007-2.464,0c-.53,0-.767-.236-.772-.757-.005-.5,0-1,0-1.525l-1.137-.477c-.323.344-.656.717-1.01,1.069a.707.707,0,0,1-1.156,0q-.848-.834-1.683-1.683a.713.713,0,0,1-.008-1.157c.077-.081.159-.156.235-.237.267-.281.683-.53.755-.855.067-.3-.237-.679-.391-1.055-.5,0-1.016,0-1.53,0s-.756-.242-.758-.771q-.006-1.232,0-2.463c0-.53.235-.765.759-.77.5,0,1,0,1.519,0,.133-.309.28-.6.383-.915a.416.416,0,0,0-.092-.341c-.291-.318-.611-.609-.908-.922a.691.691,0,0,1,.007-1.1q.861-.88,1.742-1.742a.689.689,0,0,1,1.1,0c.36.347.7.716,1.058,1.085l1.119-.458c0-.491,0-.99,0-1.49,0-.562.227-.8.773-.8q1.232-.007,2.464,0c.529,0,.764.236.769.76,0,.5,0,1,0,1.517.31.133.606.279.917.382a.419.419,0,0,0,.341-.1c.309-.281.592-.589.892-.879a.7.7,0,0,1,1.126-.017q.882.86,1.742,1.742a.69.69,0,0,1,0,1.1c-.348.359-.716.7-1.083,1.056l.46,1.118c.451,0,.911.021,1.367-.006a.932.932,0,0,1,.923.422Zm-16.021-.917c.46,0,.9.012,1.343,0a.75.75,0,0,1,.818.607,12.507,12.507,0,0,0,.6,1.457c.221.463.223.687-.143,1.043-.315.306-.657.585-.975.865l1,1.03c.318-.333.627-.651.931-.975a.752.752,0,0,1,.978-.152,16.381,16.381,0,0,0,1.531.637.745.745,0,0,1,.582.8c-.015.453,0,.906,0,1.356h1.34c0-.461.012-.9,0-1.344a.748.748,0,0,1,.608-.816,12.22,12.22,0,0,0,1.458-.6c.465-.222.685-.224,1.042.144.306.315.583.659.862.978l1.046-1.018c-.337-.314-.661-.617-.987-.919a.76.76,0,0,1-.132-1.014,12.937,12.937,0,0,0,.611-1.453c.172-.482.321-.618.844-.62.439,0,.878,0,1.315,0v-1.34c-.461,0-.9-.012-1.344,0a.75.75,0,0,1-.817-.608,12.469,12.469,0,0,0-.6-1.457c-.222-.466-.224-.685.145-1.041.317-.3.66-.582.95-.835l-.982-1.084c-.314.338-.6.661-.9.967a.737.737,0,0,1-1.041.16,15.455,15.455,0,0,0-1.5-.614.739.739,0,0,1-.581-.8c.014-.452,0-.906,0-1.357h-1.34c0,.46-.012.9,0,1.343a.752.752,0,0,1-.607.818,12.628,12.628,0,0,0-1.457.6c-.465.222-.686.224-1.042-.144-.305-.316-.583-.659-.862-.978l-1.03,1c.332.32.65.629.972.935a.768.768,0,0,1,.13,1.016,13.023,13.023,0,0,0-.609,1.453c-.171.481-.321.617-.845.619-.439,0-.878,0-1.316,0Z" transform="translate(-328.891 -2736.149)" fill="#12263f"/><path d="M343.619,2570.548l-.535-1.237a31.326,31.326,0,0,1,10.947-2.057v1.345A30.484,30.484,0,0,0,343.619,2570.548Z" transform="translate(-318.61 -2560.573)" fill="#12263f"/><path d="M343.626,2610.44l-.533-1.237a31.412,31.412,0,0,1,10.933-2.06v1.349A30.454,30.454,0,0,0,343.626,2610.44Z" transform="translate(-318.619 -2597.124)" fill="#12263f"/><path d="M354.019,2647.058v1.348a30.474,30.474,0,0,0-10.41,1.948l-.541-1.236A31.439,31.439,0,0,1,354.019,2647.058Z" transform="translate(-318.596 -2633.698)" fill="#12263f"/><path d="M343.631,2690.264l-.534-1.24a31.438,31.438,0,0,1,10.934-2.06v1.35A30.412,30.412,0,0,0,343.631,2690.264Z" transform="translate(-318.622 -2670.263)" fill="#12263f"/><path d="M343.629,2730.194l-.534-1.239a31.41,31.41,0,0,1,10.934-2.059v1.349A30.445,30.445,0,0,0,343.629,2730.194Z" transform="translate(-318.62 -2706.852)" fill="#12263f"/><path d="M138.816,2568.54c0-.4,0-.75,0-1.095,0-.066.012-.133.024-.252a31.355,31.355,0,0,1,10.931,2.062l-.532,1.235A30.66,30.66,0,0,0,138.816,2568.54Z" transform="translate(-131.44 -2560.518)" fill="#12263f"/><path d="M138.516,2608.443v-1.348a31.476,31.476,0,0,1,10.982,2.062l-.531,1.237A30.686,30.686,0,0,0,138.516,2608.443Z" transform="translate(-131.166 -2597.079)" fill="#12263f"/><path d="M138.839,2648.383v-1.348a31.381,31.381,0,0,1,10.954,2.06l-.529,1.236A30.6,30.6,0,0,0,138.839,2648.383Z" transform="translate(-131.462 -2633.676)" fill="#12263f"/><path d="M149.332,2690.231a30.626,30.626,0,0,0-10.416-1.95v-1.348A31.412,31.412,0,0,1,149.864,2689Z" transform="translate(-131.532 -2670.234)" fill="#12263f"/><path d="M138.916,2728.2v-1.348a31.411,31.411,0,0,1,10.948,2.063l-.532,1.236A30.626,30.626,0,0,0,138.916,2728.2Z" transform="translate(-131.532 -2706.81)" fill="#12263f"/><path d="M149.283,2770.084a20.256,20.256,0,0,0-5.129-1.429c-1.745-.248-3.5-.4-5.292-.593v-1.278a31.44,31.44,0,0,1,10.953,2.058Z" transform="translate(-131.483 -2743.402)" fill="#12263f"/><path d="M410.219,2818.788a4.008,4.008,0,1,1,4,4A3.991,3.991,0,0,1,410.219,2818.788Zm4,2.67a2.673,2.673,0,1,0-2.665-2.7A2.705,2.705,0,0,0,414.218,2821.458Z" transform="translate(-380.126 -2787.377)" fill="#12263f"/></g></g></svg>