<svg id="Grupo_176561" data-name="Grupo 176561" xmlns="http://www.w3.org/2000/svg" xmlns:xlink="http://www.w3.org/1999/xlink" width="87.339" height="87.338" viewBox="0 0 87.339 87.338">
  <defs>
    <radialGradient id="radial-gradient" cx="0.076" cy="0.019" r="1.465" gradientTransform="translate(0.001)" gradientUnits="objectBoundingBox">
      <stop offset="0" stop-color="#f6f6f7"/>
      <stop offset="0.477" stop-color="#f9f9fa"/>
      <stop offset="0.715" stop-color="#fff"/>
    </radialGradient>
    <clipPath id="clip-path">
      <rect id="Rectángulo_66257" data-name="Rectángulo 66257" width="46.974" height="43.076" fill="none"/>
    </clipPath>
  </defs>
  <g id="Grupo_18423" data-name="Grupo 18423" transform="translate(0 0)">
    <g id="Grupo_18421" data-name="Grupo 18421">
      <g id="Grupo_18420" data-name="Grupo 18420">
        <g id="Grupo_18419" data-name="Grupo 18419">
          <path id="Trazado_40936" data-name="Trazado 40936" d="M281.962,2189.389a43.669,43.669,0,1,1-43.669-43.668A43.669,43.669,0,0,1,281.962,2189.389Z" transform="translate(-194.623 -2145.721)" fill="#fff"/>
        </g>
      </g>
    </g>
    <path id="Trazado_40937" data-name="Trazado 40937" d="M281.7,2189.1a43.669,43.669,0,1,0-43.669,43.67A43.5,43.5,0,0,0,281.7,2189.1Z" transform="translate(-194.361 -2145.436)" fill="url(#radial-gradient)"/>
    <path id="Trazado_40938" data-name="Trazado 40938" d="M269.1,2186.859a33.332,33.332,0,1,0-33.333,33.333A33.209,33.209,0,0,0,269.1,2186.859Z" transform="translate(-191.968 -2143.046)" fill="none" stroke="#12263f" stroke-miterlimit="10" stroke-width="4"/>
    <g id="Grupo_18422" data-name="Grupo 18422" transform="translate(7.736 24.517)">
      <path id="Trazado_40939" data-name="Trazado 40939" d="M275.732,2164.488a43.675,43.675,0,0,1-75.187,43.488,43.536,43.536,0,0,0,75.187-43.488Z" transform="translate(-200.545 -2164.488)" fill="#eceef0"/>
    </g>
  </g>
  <g id="Grupo_151146" data-name="Grupo 151146" transform="translate(23.72 23.132)" clip-path="url(#clip-path)">
    <path id="Trazado_174605" data-name="Trazado 174605" d="M46.688,18.071a1.272,1.272,0,0,0-1.359-.512.419.419,0,0,1-.514-.195Q38.813,8.85,32.808.339a.665.665,0,0,0-.689-.333C30.782.14,29.444.26,28.106.384l-8.14.751q-4.289.4-8.577.8a.348.348,0,0,1-.42-.228A1.276,1.276,0,0,0,9.653.957a1.261,1.261,0,0,0-1.18.847,1.3,1.3,0,0,0,.28,1.461.35.35,0,0,1,.088.473c-.4.838-.78,1.686-1.168,2.529q-3.8,8.261-7.605,16.52a.507.507,0,0,0,.048.574Q1.646,25.49,3.16,27.632q4.524,6.4,9.048,12.791a.608.608,0,0,1,.082.714,1.366,1.366,0,1,0,2.549.97c.075-.3.221-.35.474-.373q4.363-.4,8.726-.8,5.93-.546,11.861-1.086a.48.48,0,0,0,.444-.311q4.365-9.49,8.733-18.979c.1-.215.189-.373.437-.269a1.355,1.355,0,0,0,1.284-.73,1.327,1.327,0,0,0-.11-1.486M33.035,1.509q.592.833,1.183,1.667l10.191,14.43a.139.139,0,0,1,.021.03c.041.114.246.2.111.335-.1.1-.223-.045-.32-.1-2.646-1.642-5.279-3.307-7.944-4.918A2.147,2.147,0,0,1,35.194,11.4C34.5,8.17,33.741,4.949,33,1.724c-.013-.058-.021-.118-.031-.177l.062-.038M30.773,24.73a.11.11,0,0,0,.075.1.532.532,0,0,0,.019.06c-.046.057-.025.131-.01.207.149.749.284,1.5.446,2.246a19.566,19.566,0,0,0,.425,2.024c0,.18-.157.19-.268.249a1.348,1.348,0,0,0-.621.615c-.09.085-.178.031-.27,0q-2.553-.9-5.107-1.79c-.1-.035-.221-.047-.259-.176q2.553-2.185,5.106-4.369c.089-.076.155-.2.3-.173.054.337.109.674.16,1.012M9.883,14.912a.769.769,0,0,1,.265-.638Q12,12.6,13.82,10.908c.2-.181.251-.111.293.1.093.466.191.931.287,1.4h0a.71.71,0,0,0,0,.144c.266,1.366.541,2.73.8,4.1a5.67,5.67,0,0,1,.227,1.474c-.1.072-.2.14-.286.218-1.392,1.2-2.787,2.4-4.169,3.607a.328.328,0,0,1-.442.054c-.028-.023-.053-.062-.084-.067-.56-.091-.569-.475-.565-.936.021-2.028.013-4.056,0-6.084M26.511,8.3c.062.216-.109.3-.233.41C24.9,9.9,23.522,11.074,22.16,12.275c-.284.251-.536.438-.918.258l-5.477-1.978-.89-.321c.017-.138.128-.153.207-.2Q18.5,8.155,21.925,6.272a.689.689,0,0,1,.587-.069c1.168.358,2.341.7,3.516,1.033.207.059.311.132.287.372a.939.939,0,0,0,.2.688M24.669,28.09a.973.973,0,0,1-.421-.081,17.022,17.022,0,0,0-2.208-.7c-1.352-.473-2.7-.954-4.058-1.415-.325-.11-.573-.245-.574-.633a.53.53,0,0,0-.059-.165h0q-.663-3.4-1.326-6.8c-.034-.175-.121-.354,0-.53a10.418,10.418,0,0,0,1.175-.977c1.4-1.207,2.795-2.427,4.191-3.643a8.29,8.29,0,0,1,1.8.573c1.894.668,3.78,1.358,5.669,2.038a.949.949,0,0,0,.143.028.69.69,0,0,1,.182.426c.2,1.041.411,2.08.617,3.12l.21,1.235.465,2.552L24.669,28.09M11.1,22.068l3.266-2.826c.366-.317.735-.631,1.125-.966a1.175,1.175,0,0,1,.068.168c.172.874.335,1.75.513,2.622s.3,1.727.534,2.572L16.9,25.1c-.053.115.055.24-.045.387l-1.639-.568c-1.254-.434-2.507-.871-3.763-1.3-.228-.078-.382-.15-.316-.454a.71.71,0,0,0-.171-.644l-.073-.14c-.025-.167.111-.23.209-.315m7.825,10.847L17.557,25.98a.128.128,0,0,1,.042-.034c.486.168.906.316,1.328.456.983.326,1.944.718,2.946.988.713.252,1.429.5,2.138.76.113.042.327.007.293.243l-4.913,4.251c-.187.017-.245.267-.466.27M27.4,8.969c.392-.031.462.2.519.529.233,1.322.5,2.638.747,3.957.113.593.222,1.188.338,1.8l-.358-.072-6.314-2.27c-.1-.112-.283-.07-.362-.2,0-.02,0-.036.007-.042q2.282-1.984,4.562-3.971c.1-.091.172-.038.259-.019a.74.74,0,0,0,.372.2.232.232,0,0,0,.23.085m-12.464,1.8q3.036,1.074,6.069,2.154c.261.112.15.217,0,.343q-2.443,2.1-4.879,4.215c-.2.178-.225.105-.275-.109-.15-.652-.211-1.323-.419-1.963q-.421-2.174-.84-4.349c-.024-.127-.121-.285,0-.375.094-.071.228.045.341.085M10.97,28.529c-.212-1.257-.47-2.506-.723-3.755a.4.4,0,0,1,.124-.439.549.549,0,0,1,.066-.044,1.282,1.282,0,0,0,.521-.587.961.961,0,0,1,.356.047c.79.281,1.579.563,2.374.83,1.023.344,2.027.745,3.068,1.036a.523.523,0,0,1,.285.348q.246,1.327.521,2.649c.218,1.059.373,2.131.657,3.177.045.251.093.5.134.755.019.118.1.269.01.349-.11.1-.219-.053-.316-.107-1.685-.942-3.365-1.892-5.049-2.836-.5-.28-1.007-.547-1.51-.82-.181-.191-.459-.253-.518-.6m7.71,5.517a.369.369,0,0,1,.532-.18c1.354.492,2.714.966,4.072,1.445.091.032.187.049.281.072h0c.265.166.063.221-.069.3q-4.219,2.437-8.441,4.871c-.148.085-.318.308-.475.176-.192-.162.116-.3.133-.466l0-.036q1.083-1.675,2.166-3.35c.6-.94,1.209-1.88,1.8-2.83m5.45,1.071q-2.331-.831-4.665-1.652a.2.2,0,0,1-.156-.137c.681-.587,1.372-1.185,2.065-1.78q1.6-1.374,3.2-2.746c.091-.078.171-.169.256-.254a.856.856,0,0,1,.49.047c1.791.628,3.585,1.247,5.378,1.868,0,.273-.087.554.071.814.054.177-.075.234-.194.3q-2.981,1.73-5.96,3.463a.537.537,0,0,1-.485.074m6-14.81a8.3,8.3,0,0,0-.229-1.225c-.172-.949-.33-1.9-.525-2.844-.054-.263.043-.262.227-.237l4.706,1.7,1.738.625c-.572.5-1.1.955-1.633,1.412q-1.747,1.5-3.5,3c-.082.07-.153.163-.278.154-.159-.864-.294-1.733-.509-2.586m5.653-2.588q-3.239-1.15-6.478-2.3a.517.517,0,0,1-.139-.289Q28.588,12.044,28,8.963a.825.825,0,0,0,.261-.128c.368-.4.676-.185,1.034.042q2.614,1.654,5.253,3.267a1.028,1.028,0,0,1,.516.734c.328,1.527.69,3.046,1.037,4.569.026.114.118.258.015.343s-.226-.032-.336-.071M32.342.92c.777,3.457,1.573,6.909,2.362,10.363.051.222.089.446.133.664-.134.036-.2-.039-.265-.082q-2.725-1.693-5.449-3.386c-.171-.106-.266-.18-.176-.426a1.353,1.353,0,0,0-.709-1.693,1.3,1.3,0,0,0-1.713.522.3.3,0,0,1-.4.135c-1.157-.346-2.315-.688-3.592-1.068l1.68-.929Q28.081,2.888,31.947.751c.248-.138.324-.148.4.169M11.134,2.506c.014-.069.079-.084.142-.09l.838-.079q6.328-.583,12.657-1.166C26.741.989,28.709.8,30.678.615c.139-.013.278-.015.417-.022l.02.073q-.7.382-1.391.765-3.751,2.072-7.5,4.148a.816.816,0,0,1-.69.084Q16.5,4.169,11.451,2.7c-.07-.021-.139-.048-.208-.072s-.124-.043-.109-.119m-.19.5c.092-.223.26-.128.4-.086Q16.3,4.378,21.257,5.837a.253.253,0,0,1,.212.152L18.448,7.65c-1.285.706-2.571,1.408-3.852,2.121-.2.113-.316.147-.455-.1-1.115-2.008-2.235-4.014-3.381-6-.2-.344.1-.446.185-.654M9.96,3.7c.213-.114.3.021.394.186q1.359,2.431,2.726,4.857c.233.415.462.833.7,1.245.076.13.113.223-.022.347q-1.856,1.688-3.7,3.385a.674.674,0,0,1-.155.071c-.014-.293-.036-.557-.036-.82q0-4.454,0-8.908c0-.124-.063-.278.1-.363M4.722,13.818Q6.983,8.908,9.238,4c.02-.044.043-.088.064-.132.042-.088.074-.2.2-.166s.113.141.113.237c.007.709.017,1.418.018,2.127,0,2.543,0,5.086.008,7.629a.837.837,0,0,1-.3.693Q5.378,18,1.424,21.63c-.081.074-.156.155-.233.233-.095-.006-.112-.048-.076-.135s.114-.178.089-.292q1.759-3.809,3.518-7.618M.876,22.768q3.668-3.346,7.326-6.7c.449-.411.9-.824,1.34-1.231.147.067.093.179.093.265,0,2.1,0,4.2.008,6.306a.345.345,0,0,1-.3.4,1.24,1.24,0,0,0-.948,1.1,1.255,1.255,0,0,0,.663,1.387.71.71,0,0,0,.536.194c.306,0,.377.151.425.412.21,1.15.426,2.3.668,3.442.061.288-.048.269-.24.224A16.173,16.173,0,0,0,8.627,27.5c-1.72-.9-3.39-1.894-5.09-2.833-.877-.485-1.742-.99-2.624-1.464-.284-.153-.237-.252-.037-.434M10.11,36.642q-3.18-4.51-6.368-9.014C2.93,26.481,2.11,25.341,1.295,24.2c-.054-.076-.1-.157-.157-.245.164-.054.251.057.349.112,1.855,1.038,3.7,2.087,5.562,3.12,1.194.664,2.4,1.308,3.6,1.961a.784.784,0,0,1,.3.558q.974,5.106,1.952,10.211c.031.165.175.4-.023.491-.153.07-.2-.2-.313-.3a.435.435,0,0,0-.06-.039c-.8-1.141-1.59-2.286-2.393-3.423m4.07,3.635h0c-.194.172-.4-.018-.593.017-.3.053-.374-.108-.42-.357-.213-1.163-.437-2.324-.659-3.485q-.635-3.323-1.269-6.646c-.019-.1-.133-.243.08-.284,1.2.765,2.473,1.4,3.706,2.109,1.029.589,2.061,1.174,3.1,1.739.272.147.27.257.114.5q-1.976,3.068-3.928,6.152c-.052.081-.09.171-.135.257m19.751-.73q-6.2.57-12.4,1.137-3.154.29-6.307.588c-.155.014-.32.059-.434-.1-.021-.195.141-.233.263-.3,2.047-1.184,4.1-2.363,6.142-3.553.923-.537,1.869-1.035,2.76-1.627a.825.825,0,0,1,.492.041c.465.167.936.316,1.4.472,1.6.639,3.234,1.165,4.851,1.746,1.3.466,2.6.915,3.9,1.372.056.02.109.048.269.119-.384.046-.664.087-.944.113m2.113-9.906c-.034,1.735-.081,3.469-.12,5.2-.03,1.344-.06,2.688-.081,4.032,0,.272-.056.366-.358.259q-5.247-1.87-10.5-3.719c-.067-.024-.131-.056-.189-.082-.024-.116.058-.139.117-.174q2.87-1.667,5.738-3.337a.347.347,0,0,1,.5.047,1.344,1.344,0,0,0,1.751.077,1.372,1.372,0,0,0,.428-1.644c-.082-.19-.115-.31.069-.469.84-.728,1.666-1.473,2.5-2.212a.12.12,0,0,1,.153-.038c0,.677.011,1.367,0,2.057m.2-9.19q-.054,2.671-.12,5.342a3.3,3.3,0,0,0-.023.619,1.222,1.222,0,0,1-.611,1.243c-.687.546-1.341,1.137-1.971,1.747-.314.3-.583.48-.971.165h0a1.111,1.111,0,0,0-.677-.125c-.126-.08-.02-.21-.068-.307a2.6,2.6,0,0,0-.024-.287c-.207-1.077-.412-2.153-.629-3.228-.053-.264-.007-.561-.226-.777a3.4,3.4,0,0,0-.2-1.14c-.039-.12.009-.187.107-.271q2.617-2.235,5.223-4.481c.044-.038.1-.066.194-.131,0,.574.009,1.1,0,1.631m-.684-7.459a2.17,2.17,0,0,1-.019-.221L38.3,14.485l5.726,3.558c.052.032.1.067.155.1.1.059.178.113.126.259s-.134.167-.277.156c-1.448-.112-2.9-.215-4.345-.321-.864-.063-1.728-.135-2.592-.185-.268-.015-.4-.083-.466-.38-.338-1.563-.707-3.119-1.064-4.677m8.7,6.9c-2.5,2.2-4.973,4.414-7.458,6.624-.058.052-.112.138-.146.121,0-1.517-.009-2.995,0-4.472.009-1.087.055-2.174.064-3.261,0-.3.05-.427.4-.4,2.276.184,4.554.345,6.832.506.173.012.29.057.3.238.013.211.3.38,0,.643m.419.393q-1.556,3.4-3.118,6.79-2.52,5.469-5.045,10.935c-.03.065-.066.128-.1.191l-.064-.009c0-.679-.011-1.358,0-2.037.034-1.8.077-3.591.117-5.386.026-1.16.057-2.32.077-3.481a.467.467,0,0,1,.181-.374q3.854-3.415,7.7-6.836c.074-.065.134-.212.267-.117.15.106.024.224-.022.323" transform="translate(0 0)"/>
  </g>
</svg>
