<svg xmlns="http://www.w3.org/2000/svg" width="266.227" height="150.459" viewBox="0 0 266.227 150.459"><g transform="translate(-1482.584 -3750.235)"><g transform="translate(1482.584 3750.235)"><path d="M1561.094,3750.235c.734.2,1.463.415,2.2.6a12.269,12.269,0,0,1,9.206,11.5c.073,4.151.043,8.3.014,12.457-.021,2.874-1.447,4.514-3.838,4.537-2.406.022-3.893-1.618-3.923-4.451-.038-3.633.017-7.267-.018-10.9-.038-3.961-1.574-5.567-5.459-5.572q-31.709-.033-63.418,0c-3.818,0-5.475,1.564-5.477,5.285q-.039,50.736-.01,101.473c0,.414.069.829.117,1.376h74.254v-2.967q0-34.647,0-69.292a18.249,18.249,0,0,1,.061-2.592,3.631,3.631,0,0,1,3.706-3.344,3.67,3.67,0,0,1,3.954,3.356,13.011,13.011,0,0,1,.057,2.072q0,46.714,0,93.428c0,8.234-4.91,13.392-13.147,13.426q-31.839.131-63.677,0c-8.22-.035-13.109-5.212-13.11-13.461q-.008-60.339,0-120.678c0-10.411,1.857-13.052,11.43-16.252Zm-70.684,124.609c0,4.614-.137,9.092.05,13.557.115,2.723,1.845,4.171,4.63,4.211,5.193.076,10.389.034,15.583.035q24.155,0,48.31-.006c3.683,0,5.516-1.218,5.66-4.246.213-4.462.055-8.943.055-13.552Z" transform="translate(-1482.584 -3750.235)" fill="#12263f"/><path d="M1910.866,3890.943c-1.234,2.04-2.224,4.289-3.757,6.073-2.4,2.792-5.824,3.623-9.389,3.628-21.218.029-42.436.072-63.653-.015-8.233-.034-13.14-5.192-13.147-13.417-.009-9.253-.022-18.506.009-27.758.011-3.414,2.687-5.639,5.292-4.173a5.911,5.911,0,0,1,2.367,3.839,46.829,46.829,0,0,1,.105,7.384h74.381v-2.8q0-49.42,0-98.84c0-5.126-1.31-6.443-6.4-6.466-.26,0-.52,0-.779,0-2.348-.043-4.608-.3-5.3-3.1-.577-2.345.412-3.661,3.624-5.062h5.2a13.965,13.965,0,0,1,11.44,9.865Zm-82.123-16.1c0,4.617-.138,9.1.051,13.561.115,2.722,1.847,4.168,4.635,4.205,5.54.074,11.082.034,16.623.035q23.636,0,47.272-.006c3.68,0,5.511-1.221,5.654-4.252.212-4.462.055-8.942.055-13.543Z" transform="translate(-1644.639 -3750.235)" fill="#12263f"/><path d="M1878.092,3750.235c.432.241,1.042.375,1.263.742.753,1.248,2,2.656,1.856,3.856-.145,1.181-1.6,2.431-2.781,3.18-.839.532-2.177.368-3.292.369q-20.143.03-40.286.017c-4.757,0-6.165,1.417-6.166,6.177q-.008,37.89,0,75.781a15.893,15.893,0,0,1-.058,2.591,3.867,3.867,0,0,1-7.652.1,14.248,14.248,0,0,1-.067-2.59q0-36.982,0-73.964c0-10.411,1.858-13.053,11.43-16.253Z" transform="translate(-1644.625 -3750.235)" fill="#12263f"/><path d="M1528,3831.8c-6.87-9.52-7.347-19.46-2.879-29.431,3.212-7.167,11.538-10.21,20.2-8.546a17.039,17.039,0,0,1,13.556,15.143c.623,6.453,1.127,12.97-2.48,18.889-.759,1.245-1.7,2.381-2.626,3.669a6.037,6.037,0,0,0,1.094.576c9.843,2.84,15.86,10.369,16.364,20.576a58.43,58.43,0,0,1,0,5.965c-.259,4.87-3.622,8.314-8.5,8.345q-21.826.137-43.654,0c-4.316-.023-7.734-2.673-8.249-6.815-.913-7.344-.421-14.541,4.542-20.658A21.753,21.753,0,0,1,1528,3831.8Zm35.2,27.4c.265-4.332.569-8.32-1.226-12.023-2.975-6.136-8.21-8.194-14.745-7.922-3.345.14-5.239-.96-5.443-3.192-.431-4.726-.417-6.577,3.048-8.12a9.984,9.984,0,0,0,6.341-9.551c.035-2.765.085-5.536-.064-8.295-.286-5.277-4.412-8.724-10.249-8.71-5.816.013-9.891,3.505-10.17,8.8-.114,2.156.033,4.325-.086,6.48-.3,5.43,1.8,9.352,6.926,11.529a4.19,4.19,0,0,1,2.663,4.06c.231,5.838-.786,6.942-6.729,7.012-.778.008-1.557.049-2.334.1a12.982,12.982,0,0,0-11.74,9.092c-.751,2.689-.635,5.617-.942,8.433-.2,1.817.569,2.355,2.375,2.342,10.646-.075,21.294-.037,31.941-.037Z" transform="translate(-1495.931 -3770.899)" fill="#12263f"/><path d="M1892.365,3831.149c3.217,1.819,6.7,3.266,9.544,5.513,5.011,3.953,7.314,9.51,7.643,15.848a59.619,59.619,0,0,1,.01,6.225c-.249,4.722-3.609,8.2-8.333,8.231q-21.957.151-43.915.01c-4.2-.022-7.55-2.593-8.1-6.652-.948-6.958-.584-13.819,3.778-19.845a21.646,21.646,0,0,1,11.622-8.25c.562-.169,1.111-.377,1.869-.636-7.04-7.847-6.6-17.01-4.463-26.045,1.917-8.1,10.541-12.821,18.9-12.106,8.64.738,16.776,7.3,16.641,18.966-.062,5.354.266,10.762-2.873,15.532C1893.892,3829.149,1892.99,3830.291,1892.365,3831.149Zm-35.141,27.928h44.216a75.294,75.294,0,0,0-.045-7.771,12.541,12.541,0,0,0-9.271-11.281c-2.24-.712-4.765-.562-7.165-.731-1.881-.132-3.633-.428-4.577-2.339a6.958,6.958,0,0,1,3.1-9.121c3.716-1.941,5.935-4.951,6.01-9.264.048-2.764.092-5.535-.04-8.295-.26-5.45-4.365-8.925-10.342-8.89-5.8.033-9.829,3.549-10.1,8.881-.1,2.069.043,4.153-.081,6.22-.331,5.523,1.775,9.48,6.986,11.77,2.559,1.125,3.438,4.3,2.454,7.959-.657,2.443-2.623,2.958-4.839,3.053a30.106,30.106,0,0,0-6.183.428C1859.249,3841.8,1855.362,3848.884,1857.224,3859.078Z" transform="translate(-1657.99 -3770.896)" fill="#12263f"/><path d="M1709.381,3808.492c0-2.081-.027-3.877.006-5.671.046-2.414.844-4.43,3.259-5.4,2.325-.936,4.2-.01,5.87,1.58,6.523,6.192,13.08,12.348,19.561,18.584,2.83,2.723,2.814,5.576-.029,8.31-6.483,6.233-13.034,12.4-19.565,18.579-1.675,1.585-3.564,2.476-5.891,1.52-2.424-1-3.161-3.03-3.2-5.432-.032-1.724-.006-3.449-.006-5.605h-2.57c-5.8,0-11.6.014-17.394-.006-3.363-.011-4.9-1.313-4.959-4.573q-.164-8.682,0-17.368c.063-3.154,1.6-4.49,4.76-4.505,5.8-.028,11.6-.009,17.395-.009Zm-.174,18.553v-10.6h-16.544v10.6Zm8.4-18.034v25.414l13.4-12.7Z" transform="translate(-1579.24 -3772.656)" fill="#12263f"/><path d="M1715.43,3935.6c0,2.085.031,3.881-.008,5.675-.05,2.3-.753,4.265-3.028,5.288s-4.229.279-5.922-1.321c-6.662-6.3-13.348-12.568-19.936-18.941-2.6-2.516-2.561-5.4.066-7.935,6.6-6.364,13.279-12.639,19.94-18.937,1.621-1.533,3.49-2.252,5.687-1.337,2.291.954,3.115,2.872,3.185,5.187.055,1.809.012,3.622.012,5.86h2.838c5.8,0,11.6-.021,17.394.01,3.033.016,4.61,1.324,4.678,4.315q.2,8.939-.006,17.885c-.073,2.961-1.674,4.229-4.745,4.242-5.8.027-11.6.009-17.395.009Zm16.813-18.548H1715.61v10.594h16.632Zm-25-7.424-13.446,12.755,13.446,12.708Z" transform="translate(-1579.352 -3820.866)" fill="#12263f"/><path d="M1551.371,3998.66c4.506,0,9.012-.018,13.517.013a12.9,12.9,0,0,1,2.819.313,3.491,3.491,0,0,1,2.923,3.737,3.545,3.545,0,0,1-3.034,3.661,9.422,9.422,0,0,1-2.045.273q-14.427.026-28.853,0c-.766,0-1.8.045-2.244-.4-1.062-1.069-2.558-2.425-2.54-3.646s1.52-2.583,2.66-3.542c.6-.51,1.82-.386,2.761-.393C1542.013,3998.641,1546.693,3998.66,1551.371,3998.66Z" transform="translate(-1506.213 -3869.227)" fill="#12263f"/><path d="M1889.435,4006.672c-4.592,0-9.185.02-13.777-.014-.94-.008-2.158.115-2.76-.4-1.136-.964-2.632-2.337-2.645-3.554s1.429-2.665,2.567-3.609c.666-.552,1.986-.418,3.012-.421,9.1-.027,18.2-.016,27.294-.016.26,0,.52-.006.779,0,3.288.1,5.059,1.479,5.086,3.961s-1.746,3.993-5,4.031C1899.14,4006.714,1894.287,4006.671,1889.435,4006.672Z" transform="translate(-1668.275 -3869.229)" fill="#12263f"/></g></g></svg>