<svg xmlns="http://www.w3.org/2000/svg" width="285.488" height="207.661" viewBox="0 0 285.488 207.661"><g transform="translate(-564.983 -132.037)"><path d="M714.818,397.694c-4.432-.022-8.881.581-13.287-.37a6.563,6.563,0,0,1-3.357-6.241q.072-49.65.031-99.3v-2.762c-.73.315-.786.94-.989,1.445q-5.216,13-10.427,26c-2.191,5.445-6.4,7-12.407,4.62-5.119-2.031-7.134-6.465-5.116-11.532q11.866-29.8,23.8-59.566c1.663-4.152,4.673-5.739,9.258-5.841,11.743-.262,23.482.022,35.221-.159,1.417-.022,2.835.1,4.235.155a7.8,7.8,0,0,1,7.352,5.124q12.154,30.321,24.24,60.669c2.158,5.441-.9,10.241-7.376,11.987a8.175,8.175,0,0,1-10.162-5.173c-3.34-8.3-6.642-16.608-9.981-24.9-.309-.766-.383-1.687-1.363-2.328v2.646q0,49.293.022,98.586c0,2.393-.31,4.576-2.1,6.321a7.853,7.853,0,0,1-4.978,1.219c-3.54-.243-7.135.507-10.63-.585-2.234-1.752-2.972-4.01-2.919-6.859.149-8,.052-16.012.052-24.019q0-18.312-.018-36.625c0-.736.433-1.912-.468-2.119a9.151,9.151,0,0,0-3.99-.008c-1.251.29-.671,1.616-.673,2.469-.032,19.819-.083,39.637.032,59.455C718.837,393.453,717.808,395.988,714.818,397.694Z" transform="translate(-54.202 -58.621)" fill="#12263f"/><path d="M1021.681,437.8q-42.116.009-84.233.02c-.949,0-1.9.039-2.847.06-.374-.646-1.1-.565-1.668-.748-7.492-2.417-12.182-8.485-12.2-16.309q-.087-41.053,0-82.105a16.815,16.815,0,0,1,17.148-16.978q40.82-.046,81.64,0a16.845,16.845,0,0,1,17.188,17.151q.033,40.934,0,81.868a16.5,16.5,0,0,1-14.664,16.777C1021.918,437.557,1021.8,437.713,1021.681,437.8Zm-43.061-12.238c11.668,0,23.337.032,35-.013a11.041,11.041,0,0,0,11.3-11.293q.034-34.882,0-69.763a11.028,11.028,0,0,0-11.3-11.286q-34.886-.023-69.772,0a10.871,10.871,0,0,0-11.19,10.356c-.22,3.638-.125,7.3-.131,10.946,0,1.375.231,2.735-1.952,2.509-1.138-.118-.753,1-.758,1.61-.037,3.65,0,7.3-.028,10.952-.01,1.375-.225,2.75,1.919,2.575.891-.072.8.8.8,1.421.007,5.079-.005,10.159.014,15.238,0,.9-.092,1.636-1.246,1.477-1.386-.191-1.51.582-1.5,1.692q.069,5.832,0,11.666c-.012,1.156.028,2.064,1.584,1.884,1.2-.139,1.152.756,1.151,1.575,0,2.3-.067,4.606.021,6.9.275,7.233,4.775,11.541,12.023,11.549Q961.595,425.582,978.621,425.567Z" transform="translate(-186.259 -99.326)" fill="#12263f"/><path d="M585.644,434.535c-9.91.013-17.966-6.291-20.1-15.207a19.72,19.72,0,0,1,10.3-22.387c1.953-.961,2.345-2.157,2.395-4.012.3-11.092.663-22.182.969-33.273a3.7,3.7,0,0,1,1.036-2.553c1.607-1.754,3.2-3.522,4.742-5.332,1.218-1.428,2.426-1.579,3.846-.294,1.469,1.33,3,2.586,4.5,3.889,1.266,1.1,1.4,2.24.035,3.384-.182.153-.353.319-.529.479-2.5,2.28-2.5,2.28-.084,4.795,1.789,1.86,1.756,2.509-.219,4.245a3.835,3.835,0,0,1-.545.459c-2.125,1.249-1.769,2.349-.083,3.853,2.589,2.31,2.58,3.021-.229,5.157-1.917,1.458-1.96,2.486-.079,3.83a4.459,4.459,0,0,1,1.856,4.343c-.219,2.761-.138,5.548-.4,8.3-.151,1.6.434,2.337,1.766,3.127,7.039,4.177,10.543,10.489,9.971,18.618-.579,8.221-4.963,14.016-12.62,17.214A17.1,17.1,0,0,1,585.644,434.535Zm4.564-10.816a5.726,5.726,0,0,0-5.491-5.732,5.636,5.636,0,0,0-5.589,5.6,5.46,5.46,0,0,0,5.457,5.66A5.557,5.557,0,0,0,590.208,423.719Zm-5.4-45.156h.943q0-7.234,0-14.469c0-1-.111-2.091-1.329-2.146-1.247-.056-1.381.987-1.413,2.017-.1,3.161-.267,6.319-.365,9.481q-.31,9.964-.56,19.931c-.015.61-.339,1.507.9,1.493.987-.012,1.736-.2,1.791-1.361q.034-.712.034-1.424Q584.811,385.323,584.808,378.563Z" transform="translate(0 -114.447)" fill="#1565c0"/><path d="M772.751,154.88a22.768,22.768,0,0,1-22.711,22.687c-12.24-.1-22.643-9.23-22.8-22.837-.146-12.571,10.381-22.755,22.949-22.692A22.848,22.848,0,0,1,772.751,154.88Z" transform="translate(-84.962)" fill="#12263f"/><path d="M1038.11,396.18q0,17.015,0,34.031c0,5.44-3.018,8.453-8.6,8.466-13.011.029-26.022.008-39.034.007q-14.162,0-28.323,0c-6.331,0-9.318-3-9.335-9.325,0-1.349-.022-2.7.006-4.046.033-1.6-.68-3.712,2.349-3.245.882.136.822-.779.823-1.4.009-4.125-.015-8.25.019-12.375.008-1-.33-1.543-1.364-1.366-1.741.3-1.875-.658-1.857-2.044q.093-7.138,0-14.278c-.017-1.323.149-2.173,1.758-1.93,1.174.178,1.476-.484,1.466-1.558-.039-3.966-.05-7.933.006-11.9.017-1.194-.293-1.844-1.585-1.638-1.455.232-1.668-.53-1.643-1.772.068-3.41-.039-6.823.039-10.232.115-5.056,3.249-8.127,8.248-8.129q34.512-.016,69.023,0c4.963,0,8,3.052,8,7.988Q1038.121,378.807,1038.11,396.18Zm-42.571,26.935c14.677.4,26.867-12.075,26.844-26.779a27.048,27.048,0,0,0-26.725-26.744c-13.9.015-26.936,10.839-26.974,26.754C968.644,412.81,982.536,423.685,995.539,423.115Z" transform="translate(-203.06 -115.933)" fill="#12263f"/><path d="M949.266,406.822c0,1.028-.022,2.056.006,3.084.026.925-.556.957-1.244.969-.736.014-1.2-.144-1.183-1.024q.049-3.084,0-6.168c-.014-.941.554-.948,1.238-.958.729-.011,1.224.126,1.192,1.014C949.238,404.765,949.266,405.794,949.266,406.822Z" transform="translate(-199.957 -141.742)" fill="#12263f"/><path d="M949.268,476.982c0,1.022-.02,2.045.007,3.067.022.874-.484,1.02-1.2,1.018-.7,0-1.232-.088-1.219-.992.028-2.045.024-4.09,0-6.135-.01-.86.455-1.034,1.192-1.029.716,0,1.239.133,1.226,1C949.255,474.937,949.267,475.96,949.268,476.982Z" transform="translate(-199.96 -178.495)" fill="#12263f"/><path d="M1013.03,440.874c-13,.57-26.895-10.305-26.855-26.768.038-15.916,13.07-26.739,26.974-26.754a27.048,27.048,0,0,1,26.725,26.744C1039.9,428.8,1027.707,441.274,1013.03,440.874Zm.157-44.809a18.122,18.122,0,1,0,18.006,18.194A18.088,18.088,0,0,0,1013.187,396.065Z" transform="translate(-220.552 -133.692)" fill="#1565c0"/><path d="M1011.7,427.28a14.785,14.785,0,0,1,15.05-14.543,14.744,14.744,0,0,1-.589,29.481A14.894,14.894,0,0,1,1011.7,427.28Z" transform="translate(-233.92 -146.984)" fill="#1565c0"/></g></svg>