<svg xmlns="http://www.w3.org/2000/svg" width="93" height="94" viewBox="0 0 93 94">
  <g id="Grupo_948870" data-name="Grupo 948870" transform="translate(0.275 -0.334)">
    <ellipse id="Elipse_4870" data-name="Elipse 4870" cx="46.5" cy="47" rx="46.5" ry="47" transform="translate(-0.275 0.334)" fill="#f8805c"/>
    <g id="rbkhOB.tif" transform="translate(40.453 -3464.734)">
      <g id="Grupo_948875" data-name="Grupo 948875" transform="translate(-18.48 3480.965)">
        <path id="Trazado_622839" data-name="Trazado 622839" d="M-16.525,3539.8a6.237,6.237,0,0,1-1.39-1.031,2.672,2.672,0,0,1-.537-1.519c-.037-5.554-.024-11.108-.022-16.662,0-.634.321-1.007.842-1.01.544,0,.875.382.876,1.043q.006,8.1.007,16.2c0,1,.258,1.249,1.258,1.249H14.724c1,0,1.264-.255,1.264-1.243q0-9.566,0-19.132v-.548l-2.87-.582v.625q0,6.062,0,12.123c0,.9-.27,1.176-1.149,1.176h-24.7c-.861,0-1.147-.278-1.147-1.12q0-6.636,0-13.272c0-.841.285-1.118,1.147-1.118H9.559c-.887-.759-1.791-1.433-2.564-2.232a1.961,1.961,0,0,0-1.581-.657c-5.993.024-11.987.014-17.981.014a3.068,3.068,0,0,1-.573-.014.813.813,0,0,1-.732-.825.817.817,0,0,1,.745-.871,2.793,2.793,0,0,1,.516-.011h17.6c-.436-.929-.84-1.828-1.29-2.7-.06-.118-.35-.165-.533-.165-2.911-.01-5.821-.007-8.732-.007-2.432,0-4.864,0-7.3,0-.448,0-.852-.134-.936-.578a1.2,1.2,0,0,1,.246-.908,1.244,1.244,0,0,1,.839-.229q7.554-.019,15.108-.009H3.1l-.374-2.876h-13.92a3.366,3.366,0,0,1-.516-.01.816.816,0,0,1-.761-.86.817.817,0,0,1,.779-.844,3.874,3.874,0,0,1,.517-.007h14a14.817,14.817,0,0,1,4.242-9.042c-.251-.017-.412-.038-.572-.038q-11.03,0-22.06,0c-.923,0-1.2.271-1.2,1.193q0,11.635,0,23.269a2.425,2.425,0,0,1-.019.572.821.821,0,0,1-.913.7.8.8,0,0,1-.781-.772,3.716,3.716,0,0,1-.006-.459q0-11.692,0-23.384a2.581,2.581,0,0,1,2.849-2.836h1.747v-.631q0-3.045,0-6.09a2.553,2.553,0,0,1,2.7-2.7q5.17,0,10.34,0c.828,0,1.218.285,1.207.877-.01.568-.4.847-1.185.847H-10.932c-.959,0-1.223.264-1.223,1.225,0,2.125,0,4.25,0,6.467h.624q10.111,0,20.221-.007a1.473,1.473,0,0,0,.755-.168,14.874,14.874,0,0,1,11.131-2.043v-1.99c0-.766,0-1.532,0-2.3,0-.886-.278-1.175-1.159-1.176q-8.014-.01-16.028-.01a4.668,4.668,0,0,1-.517-.007.842.842,0,0,1-.777-.9.813.813,0,0,1,.8-.813,3.8,3.8,0,0,1,.4,0H19.5a2.575,2.575,0,0,1,2.808,2.82c0,1.456.017,2.912-.011,4.366a.674.674,0,0,0,.515.74c5.1,2.161,8.275,5.972,9.08,11.444.848,5.761-1.25,10.467-5.864,14.034-.163.126-.331.247-.521.388l.709,1.229c.213-.027.416-.067.621-.075a1.936,1.936,0,0,1,1.912,1.011q3.909,6.817,7.836,13.625c.016.028.058.039.089.059v1.034a3.531,3.531,0,0,1-2.227,1.988,2.043,2.043,0,0,1-2.546-.863q-3.821-6.6-7.635-13.21a1.94,1.94,0,0,1,.111-2.252c.1-.152.216-.3.326-.453l-.714-1.211a10.489,10.489,0,0,1-1.2.494c-.424.118-.491.366-.49.757q.018,5.429.005,10.859a2.55,2.55,0,0,1-2.6,2.624c-.646.006-1.292,0-1.994,0,0,.259,0,.465,0,.671,0,2.049,0,4.1,0,6.148a2.5,2.5,0,0,1-1.116,2.147,7.756,7.756,0,0,1-.836.459Zm42.846-37.293h.009c0-2.948.01-5.9-.016-8.844a1.215,1.215,0,0,0-.359-.82,12.407,12.407,0,0,0-11.2-2.963,12.9,12.9,0,1,0,11.192,22.292,1.225,1.225,0,0,0,.359-.822C26.331,3508.4,26.321,3505.457,26.321,3502.509Zm-8.547,14.722v11.413h1.537c1,0,1.264-.26,1.264-1.244q0-4.967,0-9.933v-.578Zm15.84,14.742c.949-.015,1.381-.7.982-1.394q-3.581-6.232-7.179-12.455c-.319-.552-.5-.594-1.1-.259s-.675.566-.352,1.126q1.974,3.424,3.95,6.848,1.678,2.9,3.372,5.792A1.731,1.731,0,0,0,33.614,3531.973Zm-22.24-15.236H2.453v2.808h8.921Zm0,4.6H2.453v2.807h8.921Zm-8.939,7.4h8.923v-2.808H2.436ZM28.1,3495.3v14.418A12.743,12.743,0,0,0,28.1,3495.3Zm-40.219,21.419v2.821h6.6v-2.821Zm-.016,7.421h6.624v-2.81h-6.624Zm6.621,4.612v-2.822h-6.6v2.822Zm6.165-9.2v-2.8H-3.711v2.8Zm.007,1.783H-3.7v2.806H.657Zm-.019,7.422v-2.824H-3.7v2.824Z" transform="translate(18.48 -3480.965)" fill="#12263f"/>
        <path id="Trazado_622840" data-name="Trazado 622840" d="M69.872,3522.557q-3.79,0-7.58,0c-.715,0-1.171-.475-1.009-1.058.146-.524.538-.678,1.058-.676,3.5.01,7.006.005,10.509.005q2.268,0,4.537,0c.695,0,1.117.347,1.1.888-.019.525-.419.839-1.089.84Q73.633,3522.559,69.872,3522.557Z" transform="translate(-52.07 -3516.232)" fill="#12263f"/>
        <path id="Trazado_622841" data-name="Trazado 622841" d="M30.051,3608.4h-7.3a4.3,4.3,0,0,1-.459-.006.848.848,0,0,1-.8-.884.813.813,0,0,1,.8-.821c.4-.034.8-.01,1.206-.01,4.711,0,9.422-.009,14.133.021a1.409,1.409,0,0,1,.934.48.846.846,0,0,1-.055.821,1.3,1.3,0,0,1-.88.383C35.107,3608.409,32.579,3608.4,30.051,3608.4Z" transform="translate(-16.893 -3592.193)" fill="#12263f"/>
        <path id="Trazado_622842" data-name="Trazado 622842" d="M40.069,3936.091q2.642,0,5.285,0c.7,0,1.111.338,1.093.884-.017.528-.408.834-1.087.835q-5.342,0-10.684,0c-.665,0-1.071-.331-1.073-.856s.4-.861,1.067-.862Q37.369,3936.087,40.069,3936.091Z" transform="translate(-27.606 -3883.688)" fill="#12263f"/>
        <path id="Trazado_622843" data-name="Trazado 622843" d="M322.57,3586.511q0,4.793,0,9.587c0,.613-.331,1.023-.83,1.036-.536.014-.9-.388-.9-1.03q0-9.587,0-19.175c0-.646.358-1.052.89-1.039.5.012.832.409.833,1.033q0,4.794,0,9.587Z" transform="translate(-281.768 -3564.96)" fill="#12263f"/>
        <path id="Trazado_622844" data-name="Trazado 622844" d="M200.761,3656.633c1.168,0,2.336,0,3.5,0,.655,0,1.051.348,1.035.884-.016.511-.4.833-1.028.834q-3.561.006-7.123,0c-.656,0-1.05-.348-1.034-.885.015-.511.4-.83,1.027-.833C198.348,3656.629,199.554,3656.633,200.761,3656.633Z" transform="translate(-171.406 -3636.406)" fill="#12263f"/>
        <path id="Trazado_622845" data-name="Trazado 622845" d="M217.586,3716.5c.86,0,1.72-.007,2.58,0a.865.865,0,1,1,.019,1.716q-2.608.012-5.217,0a.86.86,0,1,1-.019-1.714C215.828,3716.5,216.707,3716.5,217.586,3716.5Z" transform="translate(-187.252 -3689.381)" fill="#12263f"/>
      </g>
    </g>
  </g>
</svg>
