<svg xmlns="http://www.w3.org/2000/svg" xmlns:xlink="http://www.w3.org/1999/xlink" width="295" height="205.576" viewBox="0 0 295 205.576">
  <defs>
    <linearGradient id="linear-gradient" x1="0.5" x2="0.5" y2="1" gradientUnits="objectBoundingBox">
      <stop offset="0" stop-color="#fff"/>
      <stop offset="1" stop-color="#d2e6ee"/>
    </linearGradient>
    <linearGradient id="linear-gradient-21" x1="0.5" x2="0.5" y2="1" gradientUnits="objectBoundingBox">
      <stop offset="0" stop-color="#4dd0e1"/>
      <stop offset="1" stop-color="#039be5"/>
    </linearGradient>
    <linearGradient id="linear-gradient-24" y1="0.5" x2="1" y2="0.5" gradientUnits="objectBoundingBox">
      <stop offset="0" stop-color="#b87333"/>
      <stop offset="0.076" stop-color="#bb7b40"/>
      <stop offset="0.217" stop-color="#c49162"/>
      <stop offset="0.408" stop-color="#d2b59a"/>
      <stop offset="0.626" stop-color="#e5e4e2"/>
      <stop offset="0.989" stop-color="#b87333"/>
    </linearGradient>
  </defs>
  <g id="Grupo_949382" data-name="Grupo 949382" transform="translate(-180 -2465.11)">
    <rect id="Rectángulo_342793" data-name="Rectángulo 342793" width="218.991" height="145.712" transform="translate(180 2467.718)" fill="#fff7ee"/>
    <g id="Grupo_61698" data-name="Grupo 61698" transform="translate(192.72 2471.187)">
      <g id="Grupo_61666" data-name="Grupo 61666" transform="translate(0 0)">
        <g id="Grupo_61627" data-name="Grupo 61627" transform="translate(90.387 26.181)">
          <rect id="Rectángulo_29704" data-name="Rectángulo 29704" width="18.907" height="8.799" transform="translate(0 76.005)" fill="#00223d"/>
          <rect id="Rectángulo_29705" data-name="Rectángulo 29705" width="5.242" height="78.626" transform="translate(7.207)" fill="#00223d"/>
          <path id="Trazado_131892" data-name="Trazado 131892" d="M944.393,1331.175l4.37,2.311v7.435h-4.37S944.519,1331.3,944.393,1331.175Z" transform="translate(-936.863 -1264.95)" fill="#21587b"/>
        </g>
        <g id="Grupo_61640" data-name="Grupo 61640" transform="translate(0 104.923)">
          <g id="Grupo_61633" data-name="Grupo 61633" transform="translate(0.072 3.402)">
            <rect id="Rectángulo_29706" data-name="Rectángulo 29706" width="16.43" height="90.982" transform="translate(47.032)" fill="#21587b"/>
            <g id="Grupo_61632" data-name="Grupo 61632">
              <rect id="Rectángulo_29707" data-name="Rectángulo 29707" width="49.845" height="90.982" fill="#00223d"/>
              <g id="Grupo_61628" data-name="Grupo 61628" transform="translate(3.527 3.502)">
                <path id="Trazado_131893" data-name="Trazado 131893" d="M697.8,1406.515H655.273v-15.808H697.8Zm-41.956-.568h41.387v-14.671H655.842Z" transform="translate(-655.273 -1390.708)" fill="url(#linear-gradient)"/>
                <path id="Trazado_131894" data-name="Trazado 131894" d="M709.687,1434.172h-25.12l1.3-1.962h22.513Z" transform="translate(-675.01 -1418.671)" fill="#1b57b3"/>
              </g>
              <g id="Grupo_61629" data-name="Grupo 61629" transform="translate(3.527 22.925)">
                <path id="Trazado_131895" data-name="Trazado 131895" d="M697.8,1466.057H655.273v-15.807H697.8Zm-41.956-.568h41.387v-14.671H655.842Z" transform="translate(-655.273 -1450.249)" fill="url(#linear-gradient)"/>
                <path id="Trazado_131896" data-name="Trazado 131896" d="M709.687,1493.713h-25.12l1.3-1.962h22.513Z" transform="translate(-675.01 -1478.212)" fill="url(#linear-gradient)"/>
              </g>
              <g id="Grupo_61630" data-name="Grupo 61630" transform="translate(3.527 42.349)">
                <path id="Trazado_131897" data-name="Trazado 131897" d="M697.8,1525.6H655.273v-15.807H697.8Zm-41.956-.568h41.387v-14.671H655.842Z" transform="translate(-655.273 -1509.789)" fill="url(#linear-gradient)"/>
                <path id="Trazado_131898" data-name="Trazado 131898" d="M709.687,1553.253h-25.12l1.3-1.962h22.513Z" transform="translate(-675.01 -1537.752)" fill="url(#linear-gradient)"/>
              </g>
              <g id="Grupo_61631" data-name="Grupo 61631" transform="translate(3.527 61.773)">
                <path id="Trazado_131899" data-name="Trazado 131899" d="M697.8,1585.138H655.273V1569.33H697.8Zm-41.956-.568h41.387V1569.9H655.842Z" transform="translate(-655.273 -1569.33)" fill="url(#linear-gradient)"/>
                <path id="Trazado_131900" data-name="Trazado 131900" d="M709.687,1612.794h-25.12l1.3-1.962h22.513Z" transform="translate(-675.01 -1597.293)" fill="url(#linear-gradient)"/>
              </g>
            </g>
          </g>
          <g id="Grupo_61639" data-name="Grupo 61639" transform="translate(120.978)">
            <rect id="Rectángulo_29708" data-name="Rectángulo 29708" width="16.43" height="94.384" transform="translate(47.032)" fill="#21587b"/>
            <g id="Grupo_61638" data-name="Grupo 61638" transform="translate(0 3.402)">
              <rect id="Rectángulo_29709" data-name="Rectángulo 29709" width="49.845" height="90.982" fill="#00223d"/>
              <g id="Grupo_61634" data-name="Grupo 61634" transform="translate(3.527 3.502)">
                <path id="Trazado_131901" data-name="Trazado 131901" d="M1068.42,1406.515H1025.9v-15.808h42.525Zm-41.955-.568h41.387v-14.671h-41.387Z" transform="translate(-1025.895 -1390.708)" fill="url(#linear-gradient)"/>
                <path id="Trazado_131902" data-name="Trazado 131902" d="M1080.309,1434.172h-25.12l1.3-1.962h22.513Z" transform="translate(-1045.633 -1418.671)" fill="url(#linear-gradient)"/>
              </g>
              <g id="Grupo_61635" data-name="Grupo 61635" transform="translate(3.527 22.925)">
                <path id="Trazado_131903" data-name="Trazado 131903" d="M1068.42,1466.057H1025.9v-15.807h42.525Zm-41.955-.568h41.387v-14.671h-41.387Z" transform="translate(-1025.895 -1450.249)" fill="url(#linear-gradient)"/>
                <path id="Trazado_131904" data-name="Trazado 131904" d="M1080.309,1493.713h-25.12l1.3-1.962h22.513Z" transform="translate(-1045.633 -1478.212)" fill="url(#linear-gradient)"/>
              </g>
              <g id="Grupo_61636" data-name="Grupo 61636" transform="translate(3.527 42.349)">
                <path id="Trazado_131905" data-name="Trazado 131905" d="M1068.42,1525.6H1025.9v-15.807h42.525Zm-41.955-.568h41.387v-14.671h-41.387Z" transform="translate(-1025.895 -1509.789)" fill="url(#linear-gradient)"/>
                <path id="Trazado_131906" data-name="Trazado 131906" d="M1080.309,1553.253h-25.12l1.3-1.962h22.513Z" transform="translate(-1045.633 -1537.752)" fill="url(#linear-gradient)"/>
              </g>
              <g id="Grupo_61637" data-name="Grupo 61637" transform="translate(3.527 61.773)">
                <path id="Trazado_131907" data-name="Trazado 131907" d="M1068.42,1585.138H1025.9V1569.33h42.525Zm-41.955-.568h41.387V1569.9h-41.387Z" transform="translate(-1025.895 -1569.33)" fill="url(#linear-gradient)"/>
                <path id="Trazado_131908" data-name="Trazado 131908" d="M1080.309,1612.794h-25.12l1.3-1.962h22.513Z" transform="translate(-1045.633 -1597.293)" fill="url(#linear-gradient)"/>
              </g>
            </g>
          </g>
          <rect id="Rectángulo_29710" data-name="Rectángulo 29710" width="170.825" height="3.694" transform="translate(0 0.024)" fill="#21587b"/>
        </g>
        <g id="Grupo_61647" data-name="Grupo 61647" transform="translate(11.218 46.246)">
          <g id="Grupo_61641" data-name="Grupo 61641" transform="translate(24.915 15.493)">
            <path id="Trazado_131909" data-name="Trazado 131909" d="M780.657,1279.673H768.238l-10.6-42.5h12.419Z" transform="translate(-756.778 -1237.172)" fill="#0b254d"/>
            <path id="Trazado_131910" data-name="Trazado 131910" d="M778.021,1279.673H765.6l-10.6-42.5h12.419Z" transform="translate(-755.002 -1237.172)" fill="#2475f2"/>
            <path id="Trazado_131911" data-name="Trazado 131911" d="M790.116,1324.906h-13.3l-.558-2.239h13.3Z" transform="translate(-769.326 -1294.777)" fill="#0b254d"/>
          </g>
          <g id="Grupo_61646" data-name="Grupo 61646">
            <rect id="Rectángulo_29711" data-name="Rectángulo 29711" width="70.768" height="43.364" transform="translate(0 0.011)" fill="#00223d"/>
            <rect id="Rectángulo_29712" data-name="Rectángulo 29712" width="65.815" height="39.364" transform="translate(2.477 2.011)" fill="url(#linear-gradient)"/>
            <g id="Grupo_61643" data-name="Grupo 61643" transform="translate(6.443 4.744)">
              <g id="Grupo_61642" data-name="Grupo 61642">
                <rect id="Rectángulo_29713" data-name="Rectángulo 29713" width="21.404" height="1.679" fill="#00223d"/>
                <rect id="Rectángulo_29714" data-name="Rectángulo 29714" width="16.36" height="1.679" transform="translate(0 2.865)" fill="#00223d"/>
                <rect id="Rectángulo_29715" data-name="Rectángulo 29715" width="19.564" height="1.679" transform="translate(0 5.729)" fill="#00223d"/>
                <rect id="Rectángulo_29716" data-name="Rectángulo 29716" width="15.826" height="1.679" transform="translate(0 8.594)" fill="#00223d"/>
                <rect id="Rectángulo_29717" data-name="Rectángulo 29717" width="17.888" height="1.679" transform="translate(5.109 11.458)" fill="#00223d"/>
                <rect id="Rectángulo_29718" data-name="Rectángulo 29718" width="16.295" height="1.679" transform="translate(5.109 14.904)" fill="#00223d"/>
                <rect id="Rectángulo_29719" data-name="Rectángulo 29719" width="16.36" height="1.679" transform="translate(0 17.768)" fill="#00223d"/>
                <rect id="Rectángulo_29720" data-name="Rectángulo 29720" width="19.564" height="1.679" transform="translate(0 20.633)" fill="#00223d"/>
                <rect id="Rectángulo_29721" data-name="Rectángulo 29721" width="15.826" height="1.679" transform="translate(0 23.497)" fill="#00223d"/>
                <rect id="Rectángulo_29722" data-name="Rectángulo 29722" width="22.997" height="1.679" transform="translate(0 26.362)" fill="#00223d"/>
                <rect id="Rectángulo_29723" data-name="Rectángulo 29723" width="19.564" height="1.679" transform="translate(7.018 29.644)" fill="#00223d"/>
                <rect id="Rectángulo_29724" data-name="Rectángulo 29724" width="22.997" height="1.679" transform="translate(0 32.926)" fill="#00223d"/>
              </g>
            </g>
            <g id="Grupo_61645" data-name="Grupo 61645" transform="translate(38.594 4.744)">
              <g id="Grupo_61644" data-name="Grupo 61644">
                <rect id="Rectángulo_29725" data-name="Rectángulo 29725" width="21.404" height="1.679" fill="#00223d"/>
                <rect id="Rectángulo_29726" data-name="Rectángulo 29726" width="16.36" height="1.679" transform="translate(0 2.865)" fill="#00223d"/>
                <rect id="Rectángulo_29727" data-name="Rectángulo 29727" width="19.564" height="1.679" transform="translate(0 5.729)" fill="#00223d"/>
                <rect id="Rectángulo_29728" data-name="Rectángulo 29728" width="15.826" height="1.679" transform="translate(0 8.594)" fill="#00223d"/>
                <rect id="Rectángulo_29729" data-name="Rectángulo 29729" width="17.888" height="1.679" transform="translate(5.109 11.458)" fill="#00223d"/>
                <rect id="Rectángulo_29730" data-name="Rectángulo 29730" width="16.295" height="1.679" transform="translate(5.109 14.904)" fill="#00223d"/>
                <rect id="Rectángulo_29731" data-name="Rectángulo 29731" width="16.36" height="1.679" transform="translate(0 17.768)" fill="#00223d"/>
                <rect id="Rectángulo_29732" data-name="Rectángulo 29732" width="19.564" height="1.679" transform="translate(0 20.633)" fill="#00223d"/>
                <rect id="Rectángulo_29733" data-name="Rectángulo 29733" width="15.826" height="1.679" transform="translate(0 23.497)" fill="#00223d"/>
                <rect id="Rectángulo_29734" data-name="Rectángulo 29734" width="22.997" height="1.679" transform="translate(0 26.362)" fill="#00223d"/>
                <rect id="Rectángulo_29735" data-name="Rectángulo 29735" width="19.564" height="1.679" transform="translate(7.018 29.644)" fill="#00223d"/>
                <rect id="Rectángulo_29736" data-name="Rectángulo 29736" width="22.997" height="1.679" transform="translate(0 32.926)" fill="#00223d"/>
              </g>
            </g>
            <rect id="Rectángulo_29737" data-name="Rectángulo 29737" width="0.974" height="43.374" transform="translate(70.762)" fill="#15458c"/>
          </g>
          <rect id="Rectángulo_29738" data-name="Rectángulo 29738" width="34.074" height="1.631" transform="translate(21.548 56.948)" fill="#2475f2"/>
        </g>
        <g id="Grupo_61657" data-name="Grupo 61657" transform="translate(93.421 46.246)">
          <g id="Grupo_61648" data-name="Grupo 61648" transform="translate(24.915 15.493)">
            <path id="Trazado_131912" data-name="Trazado 131912" d="M1032.639,1279.673H1020.22l-10.6-42.5h12.419Z" transform="translate(-1008.76 -1237.172)" fill="#0b254d"/>
            <path id="Trazado_131913" data-name="Trazado 131913" d="M1030,1279.673h-12.419l-10.6-42.5H1019.4Z" transform="translate(-1006.984 -1237.172)" fill="#21587b"/>
            <path id="Trazado_131914" data-name="Trazado 131914" d="M1042.1,1324.906h-13.3l-.558-2.239h13.3Z" transform="translate(-1021.308 -1294.777)" fill="#051226"/>
          </g>
          <g id="Grupo_61656" data-name="Grupo 61656">
            <rect id="Rectángulo_29739" data-name="Rectángulo 29739" width="70.768" height="43.364" transform="translate(0 0.011)" fill="#00223d"/>
            <rect id="Rectángulo_29740" data-name="Rectángulo 29740" width="65.815" height="39.364" transform="translate(2.477 2.011)" fill="url(#linear-gradient)"/>
            <g id="Grupo_61655" data-name="Grupo 61655" transform="translate(12.997 10.059)">
              <g id="Grupo_61650" data-name="Grupo 61650">
                <path id="Trazado_131915" data-name="Trazado 131915" d="M997.572,1243.9H970.451v-19.371h13.117l5.34-4.017h28.007v20.478h-15.521Zm-26.5-.623h26.288l3.821-2.91h15.109v-19.232H989.116l-5.34,4.017h-12.7Z" transform="translate(-970.451 -1220.516)" fill="#00223d"/>
                <g id="Grupo_61649" data-name="Grupo 61649" transform="translate(0.125 1.234)">
                  <path id="Trazado_131916" data-name="Trazado 131916" d="M982.939,1224.3l-2.615,2.177h-9.49l2.62-2.177Z" transform="translate(-970.834 -1224.298)" fill="#1565c0"/>
                  <path id="Trazado_131917" data-name="Trazado 131917" d="M1007.779,1224.3l-2.889,2.177h-2.015l2.558-2.177Z" transform="translate(-992.422 -1224.298)" fill="#00223d"/>
                </g>
                <path id="Trazado_131918" data-name="Trazado 131918" d="M1062.313,1285.88l-2.329,1.755h17.2v-1.71Z" transform="translate(-1030.777 -1264.557)" fill="#1565c0"/>
                <path id="Trazado_131919" data-name="Trazado 131919" d="M1055.128,1242.527H1055v-17.079h-25.651v-.125h25.776Z" transform="translate(-1010.137 -1223.755)" fill="#00223d"/>
              </g>
              <g id="Grupo_61651" data-name="Grupo 61651" transform="translate(2.552 6.603)">
                <rect id="Rectángulo_29741" data-name="Rectángulo 29741" width="2.072" height="1.918" fill="#00223d"/>
                <rect id="Rectángulo_29742" data-name="Rectángulo 29742" width="0.89" height="1.918" transform="translate(3.047)" fill="#00223d"/>
                <rect id="Rectángulo_29743" data-name="Rectángulo 29743" width="0.89" height="1.918" transform="translate(4.214)" fill="#00223d"/>
                <rect id="Rectángulo_29744" data-name="Rectángulo 29744" width="0.89" height="1.918" transform="translate(5.381)" fill="#00223d"/>
                <rect id="Rectángulo_29745" data-name="Rectángulo 29745" width="0.89" height="1.918" transform="translate(6.547)" fill="#00223d"/>
                <rect id="Rectángulo_29746" data-name="Rectángulo 29746" width="0.89" height="1.918" transform="translate(7.714)" fill="#00223d"/>
                <rect id="Rectángulo_29747" data-name="Rectángulo 29747" width="0.89" height="1.918" transform="translate(8.881)" fill="#00223d"/>
                <rect id="Rectángulo_29748" data-name="Rectángulo 29748" width="0.89" height="1.918" transform="translate(10.047)" fill="#00223d"/>
                <rect id="Rectángulo_29749" data-name="Rectángulo 29749" width="0.89" height="1.918" transform="translate(11.214)" fill="#00223d"/>
                <rect id="Rectángulo_29750" data-name="Rectángulo 29750" width="0.89" height="1.918" transform="translate(12.381)" fill="#00223d"/>
                <rect id="Rectángulo_29751" data-name="Rectángulo 29751" width="0.89" height="1.918" transform="translate(13.547)" fill="#00223d" opacity="0.3"/>
                <rect id="Rectángulo_29752" data-name="Rectángulo 29752" width="0.89" height="1.918" transform="translate(14.714)" fill="#00223d"/>
                <rect id="Rectángulo_29753" data-name="Rectángulo 29753" width="0.89" height="1.918" transform="translate(15.881)" fill="#00223d"/>
                <rect id="Rectángulo_29754" data-name="Rectángulo 29754" width="0.89" height="1.918" transform="translate(17.047)" fill="#00223d"/>
                <rect id="Rectángulo_29755" data-name="Rectángulo 29755" width="0.89" height="1.918" transform="translate(18.214)" fill="#00223d"/>
                <rect id="Rectángulo_29756" data-name="Rectángulo 29756" width="0.89" height="1.918" transform="translate(19.381)" fill="#00223d"/>
                <rect id="Rectángulo_29757" data-name="Rectángulo 29757" width="0.89" height="1.918" transform="translate(20.547)" fill="#00223d"/>
                <rect id="Rectángulo_29758" data-name="Rectángulo 29758" width="0.89" height="1.918" transform="translate(21.714)" fill="#00223d"/>
                <rect id="Rectángulo_29759" data-name="Rectángulo 29759" width="0.89" height="1.918" transform="translate(22.881)" fill="#00223d"/>
                <rect id="Rectángulo_29760" data-name="Rectángulo 29760" width="0.89" height="1.918" transform="translate(24.047)" fill="#00223d" opacity="0.3"/>
                <rect id="Rectángulo_29761" data-name="Rectángulo 29761" width="0.89" height="1.918" transform="translate(25.214)" fill="#00223d"/>
                <rect id="Rectángulo_29762" data-name="Rectángulo 29762" width="0.89" height="1.918" transform="translate(26.381)" fill="#00223d"/>
                <rect id="Rectángulo_29763" data-name="Rectángulo 29763" width="0.89" height="1.918" transform="translate(27.547)" fill="#00223d"/>
                <rect id="Rectángulo_29764" data-name="Rectángulo 29764" width="0.89" height="1.918" transform="translate(28.714)" fill="#00223d"/>
                <rect id="Rectángulo_29765" data-name="Rectángulo 29765" width="0.89" height="1.918" transform="translate(29.881)" fill="#00223d"/>
                <rect id="Rectángulo_29766" data-name="Rectángulo 29766" width="0.89" height="1.918" transform="translate(31.047)" fill="#00223d"/>
                <rect id="Rectángulo_29767" data-name="Rectángulo 29767" width="0.89" height="1.918" transform="translate(32.214)" fill="#00223d"/>
                <rect id="Rectángulo_29768" data-name="Rectángulo 29768" width="0.89" height="1.918" transform="translate(33.381)" fill="#00223d"/>
              </g>
              <g id="Grupo_61652" data-name="Grupo 61652" transform="translate(2.552 9.556)">
                <rect id="Rectángulo_29769" data-name="Rectángulo 29769" width="2.072" height="1.918" fill="#00223d"/>
                <rect id="Rectángulo_29770" data-name="Rectángulo 29770" width="0.89" height="1.918" transform="translate(3.047)" fill="#00223d"/>
                <rect id="Rectángulo_29771" data-name="Rectángulo 29771" width="0.89" height="1.918" transform="translate(4.214)" fill="#00223d"/>
                <rect id="Rectángulo_29772" data-name="Rectángulo 29772" width="0.89" height="1.918" transform="translate(5.381)" fill="#00223d"/>
                <rect id="Rectángulo_29773" data-name="Rectángulo 29773" width="0.89" height="1.918" transform="translate(6.547)" fill="#00223d" opacity="0.3"/>
                <rect id="Rectángulo_29774" data-name="Rectángulo 29774" width="0.89" height="1.918" transform="translate(7.714)" fill="#00223d"/>
                <rect id="Rectángulo_29775" data-name="Rectángulo 29775" width="0.89" height="1.918" transform="translate(8.881)" fill="#00223d"/>
                <rect id="Rectángulo_29776" data-name="Rectángulo 29776" width="0.89" height="1.918" transform="translate(10.047)" fill="#00223d"/>
                <rect id="Rectángulo_29777" data-name="Rectángulo 29777" width="0.89" height="1.918" transform="translate(11.214)" fill="#00223d"/>
                <rect id="Rectángulo_29778" data-name="Rectángulo 29778" width="0.89" height="1.918" transform="translate(12.381)" fill="#00223d"/>
                <rect id="Rectángulo_29779" data-name="Rectángulo 29779" width="0.89" height="1.918" transform="translate(13.547)" fill="#00223d"/>
                <rect id="Rectángulo_29780" data-name="Rectángulo 29780" width="0.89" height="1.918" transform="translate(14.714)" fill="#00223d"/>
                <rect id="Rectángulo_29781" data-name="Rectángulo 29781" width="0.89" height="1.918" transform="translate(15.881)" fill="#00223d"/>
                <rect id="Rectángulo_29782" data-name="Rectángulo 29782" width="0.89" height="1.918" transform="translate(17.047)" fill="#00223d"/>
                <rect id="Rectángulo_29783" data-name="Rectángulo 29783" width="0.89" height="1.918" transform="translate(18.214)" fill="#00223d"/>
                <rect id="Rectángulo_29784" data-name="Rectángulo 29784" width="0.89" height="1.918" transform="translate(19.381)" fill="#00223d"/>
                <rect id="Rectángulo_29785" data-name="Rectángulo 29785" width="0.89" height="1.918" transform="translate(20.547)" fill="#00223d"/>
                <rect id="Rectángulo_29786" data-name="Rectángulo 29786" width="0.89" height="1.918" transform="translate(21.714)" fill="#00223d"/>
                <rect id="Rectángulo_29787" data-name="Rectángulo 29787" width="0.89" height="1.918" transform="translate(22.881)" fill="#00223d"/>
                <rect id="Rectángulo_29788" data-name="Rectángulo 29788" width="0.89" height="1.918" transform="translate(24.047)" fill="#00223d"/>
                <rect id="Rectángulo_29789" data-name="Rectángulo 29789" width="0.89" height="1.918" transform="translate(25.214)" fill="#00223d"/>
                <rect id="Rectángulo_29790" data-name="Rectángulo 29790" width="0.89" height="1.918" transform="translate(26.381)" fill="#00223d" opacity="0.3"/>
                <rect id="Rectángulo_29791" data-name="Rectángulo 29791" width="0.89" height="1.918" transform="translate(27.547)" fill="#00223d"/>
                <rect id="Rectángulo_29792" data-name="Rectángulo 29792" width="0.89" height="1.918" transform="translate(28.714)" fill="#00223d"/>
                <rect id="Rectángulo_29793" data-name="Rectángulo 29793" width="0.89" height="1.918" transform="translate(29.881)" fill="#00223d"/>
                <rect id="Rectángulo_29794" data-name="Rectángulo 29794" width="0.89" height="1.918" transform="translate(31.047)" fill="#00223d"/>
                <rect id="Rectángulo_29795" data-name="Rectángulo 29795" width="0.89" height="1.918" transform="translate(32.214)" fill="#00223d"/>
                <rect id="Rectángulo_29796" data-name="Rectángulo 29796" width="0.89" height="1.918" transform="translate(33.381)" fill="#00223d"/>
                <rect id="Rectángulo_29797" data-name="Rectángulo 29797" width="0.89" height="1.918" transform="translate(34.578)" fill="#00223d" opacity="0.3"/>
                <rect id="Rectángulo_29798" data-name="Rectángulo 29798" width="0.89" height="1.918" transform="translate(35.745)" fill="#00223d"/>
                <rect id="Rectángulo_29799" data-name="Rectángulo 29799" width="0.89" height="1.918" transform="translate(36.912)" fill="#00223d"/>
                <rect id="Rectángulo_29800" data-name="Rectángulo 29800" width="0.89" height="1.918" transform="translate(38.078)" fill="#00223d"/>
                <rect id="Rectángulo_29801" data-name="Rectángulo 29801" width="0.89" height="1.918" transform="translate(39.245)" fill="#00223d"/>
              </g>
              <g id="Grupo_61653" data-name="Grupo 61653" transform="translate(2.552 14.415)">
                <rect id="Rectángulo_29802" data-name="Rectángulo 29802" width="2.072" height="1.918" fill="#00223d"/>
                <rect id="Rectángulo_29803" data-name="Rectángulo 29803" width="0.89" height="1.918" transform="translate(3.047)" fill="#00223d"/>
                <rect id="Rectángulo_29804" data-name="Rectángulo 29804" width="0.89" height="1.918" transform="translate(4.214)" fill="#00223d"/>
                <rect id="Rectángulo_29805" data-name="Rectángulo 29805" width="0.89" height="1.918" transform="translate(5.381)" fill="#00223d" opacity="0.3"/>
                <rect id="Rectángulo_29806" data-name="Rectángulo 29806" width="0.89" height="1.918" transform="translate(6.547)" fill="#00223d"/>
                <rect id="Rectángulo_29807" data-name="Rectángulo 29807" width="0.89" height="1.918" transform="translate(7.714)" fill="#00223d"/>
                <rect id="Rectángulo_29808" data-name="Rectángulo 29808" width="0.89" height="1.918" transform="translate(8.881)" fill="#00223d"/>
                <rect id="Rectángulo_29809" data-name="Rectángulo 29809" width="0.89" height="1.918" transform="translate(10.047)" fill="#00223d"/>
                <rect id="Rectángulo_29810" data-name="Rectángulo 29810" width="0.89" height="1.918" transform="translate(11.214)" fill="#00223d"/>
                <rect id="Rectángulo_29811" data-name="Rectángulo 29811" width="0.89" height="1.918" transform="translate(12.381)" fill="#00223d"/>
                <rect id="Rectángulo_29812" data-name="Rectángulo 29812" width="0.89" height="1.918" transform="translate(13.547)" fill="#00223d" opacity="0.3"/>
                <rect id="Rectángulo_29813" data-name="Rectángulo 29813" width="0.89" height="1.918" transform="translate(14.714)" fill="#00223d"/>
                <rect id="Rectángulo_29814" data-name="Rectángulo 29814" width="0.89" height="1.918" transform="translate(15.881)" fill="#00223d"/>
                <rect id="Rectángulo_29815" data-name="Rectángulo 29815" width="0.89" height="1.918" transform="translate(17.047)" fill="#00223d"/>
                <rect id="Rectángulo_29816" data-name="Rectángulo 29816" width="0.89" height="1.918" transform="translate(18.214)" fill="#00223d"/>
                <rect id="Rectángulo_29817" data-name="Rectángulo 29817" width="0.89" height="1.918" transform="translate(19.381)" fill="#00223d"/>
                <rect id="Rectángulo_29818" data-name="Rectángulo 29818" width="0.89" height="1.918" transform="translate(20.547)" fill="#00223d"/>
                <rect id="Rectángulo_29819" data-name="Rectángulo 29819" width="0.89" height="1.918" transform="translate(21.714)" fill="#00223d"/>
                <rect id="Rectángulo_29820" data-name="Rectángulo 29820" width="0.89" height="1.918" transform="translate(22.881)" fill="#00223d"/>
                <rect id="Rectángulo_29821" data-name="Rectángulo 29821" width="0.89" height="1.918" transform="translate(24.047)" fill="#00223d"/>
                <rect id="Rectángulo_29822" data-name="Rectángulo 29822" width="0.89" height="1.918" transform="translate(25.214)" fill="#00223d"/>
                <rect id="Rectángulo_29823" data-name="Rectángulo 29823" width="0.89" height="1.918" transform="translate(26.381)" fill="#00223d"/>
                <rect id="Rectángulo_29824" data-name="Rectángulo 29824" width="0.89" height="1.918" transform="translate(27.547)" fill="#00223d"/>
                <rect id="Rectángulo_29825" data-name="Rectángulo 29825" width="0.89" height="1.918" transform="translate(28.714)" fill="#00223d"/>
                <rect id="Rectángulo_29826" data-name="Rectángulo 29826" width="0.89" height="1.918" transform="translate(29.881)" fill="#00223d" opacity="0.3"/>
                <rect id="Rectángulo_29827" data-name="Rectángulo 29827" width="0.89" height="1.918" transform="translate(31.047)" fill="#00223d" opacity="0.3"/>
                <rect id="Rectángulo_29828" data-name="Rectángulo 29828" width="0.89" height="1.918" transform="translate(32.214)" fill="#00223d"/>
                <rect id="Rectángulo_29829" data-name="Rectángulo 29829" width="0.89" height="1.918" transform="translate(33.381)" fill="#00223d"/>
                <rect id="Rectángulo_29830" data-name="Rectángulo 29830" width="0.89" height="1.918" transform="translate(34.578)" fill="#00223d"/>
                <rect id="Rectángulo_29831" data-name="Rectángulo 29831" width="0.89" height="1.918" transform="translate(35.745)" fill="#00223d"/>
                <rect id="Rectángulo_29832" data-name="Rectángulo 29832" width="0.89" height="1.918" transform="translate(36.912)" fill="#00223d"/>
                <rect id="Rectángulo_29833" data-name="Rectángulo 29833" width="0.89" height="1.918" transform="translate(38.078)" fill="#00223d"/>
                <rect id="Rectángulo_29834" data-name="Rectángulo 29834" width="0.89" height="1.918" transform="translate(39.245)" fill="#00223d"/>
              </g>
              <g id="Grupo_61654" data-name="Grupo 61654" transform="translate(2.552 17.521)">
                <rect id="Rectángulo_29835" data-name="Rectángulo 29835" width="2.072" height="1.918" fill="#00223d"/>
                <rect id="Rectángulo_29836" data-name="Rectángulo 29836" width="0.89" height="1.918" transform="translate(3.047)" fill="#00223d"/>
                <rect id="Rectángulo_29837" data-name="Rectángulo 29837" width="0.89" height="1.918" transform="translate(4.214)" fill="#00223d"/>
                <rect id="Rectángulo_29838" data-name="Rectángulo 29838" width="0.89" height="1.918" transform="translate(5.381)" fill="#00223d"/>
                <rect id="Rectángulo_29839" data-name="Rectángulo 29839" width="0.89" height="1.918" transform="translate(6.547)" fill="#00223d"/>
                <rect id="Rectángulo_29840" data-name="Rectángulo 29840" width="0.89" height="1.918" transform="translate(7.714)" fill="#00223d"/>
                <rect id="Rectángulo_29841" data-name="Rectángulo 29841" width="0.89" height="1.918" transform="translate(8.881)" fill="#00223d"/>
                <rect id="Rectángulo_29842" data-name="Rectángulo 29842" width="0.89" height="1.918" transform="translate(10.047)" fill="#00223d" opacity="0.3"/>
                <rect id="Rectángulo_29843" data-name="Rectángulo 29843" width="0.89" height="1.918" transform="translate(11.214)" fill="#00223d"/>
                <rect id="Rectángulo_29844" data-name="Rectángulo 29844" width="0.89" height="1.918" transform="translate(12.381)" fill="#00223d"/>
                <rect id="Rectángulo_29845" data-name="Rectángulo 29845" width="0.89" height="1.918" transform="translate(13.547)" fill="#00223d"/>
                <rect id="Rectángulo_29846" data-name="Rectángulo 29846" width="0.89" height="1.918" transform="translate(14.714)" fill="#00223d"/>
                <rect id="Rectángulo_29847" data-name="Rectángulo 29847" width="0.89" height="1.918" transform="translate(15.881)" fill="#00223d" opacity="0.3"/>
                <rect id="Rectángulo_29848" data-name="Rectángulo 29848" width="0.89" height="1.918" transform="translate(17.047)" fill="#00223d"/>
                <rect id="Rectángulo_29849" data-name="Rectángulo 29849" width="0.89" height="1.918" transform="translate(18.214)" fill="#00223d"/>
                <rect id="Rectángulo_29850" data-name="Rectángulo 29850" width="0.89" height="1.918" transform="translate(19.381)" fill="#00223d"/>
              </g>
            </g>
            <rect id="Rectángulo_29851" data-name="Rectángulo 29851" width="0.974" height="43.374" transform="translate(70.762)" fill="#21587b"/>
          </g>
          <rect id="Rectángulo_29852" data-name="Rectángulo 29852" width="34.074" height="1.631" transform="translate(21.548 56.948)" fill="#21587b"/>
        </g>
        <g id="Grupo_61665" data-name="Grupo 61665" transform="translate(11.133)">
          <g id="Grupo_61664" data-name="Grupo 61664">
            <rect id="Rectángulo_29853" data-name="Rectángulo 29853" width="153.175" height="43.364" transform="translate(0 0.011)" fill="#00223d"/>
            <rect id="Rectángulo_29854" data-name="Rectángulo 29854" width="148.222" height="39.364" transform="translate(2.477 2.011)" fill="url(#linear-gradient)"/>
            <g id="Grupo_61659" data-name="Grupo 61659" transform="translate(38.551 4.744)">
              <g id="Grupo_61658" data-name="Grupo 61658">
                <rect id="Rectángulo_29855" data-name="Rectángulo 29855" width="21.404" height="1.679" fill="#00223d"/>
                <rect id="Rectángulo_29856" data-name="Rectángulo 29856" width="16.36" height="1.679" transform="translate(0 2.865)" fill="#00223d"/>
                <rect id="Rectángulo_29857" data-name="Rectángulo 29857" width="19.564" height="1.679" transform="translate(0 5.729)" fill="#00223d"/>
                <rect id="Rectángulo_29858" data-name="Rectángulo 29858" width="15.826" height="1.679" transform="translate(0 8.594)" fill="#00223d"/>
                <rect id="Rectángulo_29859" data-name="Rectángulo 29859" width="17.888" height="1.679" transform="translate(5.109 11.458)" fill="#00223d"/>
                <rect id="Rectángulo_29860" data-name="Rectángulo 29860" width="16.295" height="1.679" transform="translate(5.109 14.904)" fill="#00223d"/>
                <rect id="Rectángulo_29861" data-name="Rectángulo 29861" width="16.36" height="1.679" transform="translate(0 17.768)" fill="#00223d"/>
                <rect id="Rectángulo_29862" data-name="Rectángulo 29862" width="19.564" height="1.679" transform="translate(0 20.633)" fill="#00223d"/>
                <rect id="Rectángulo_29863" data-name="Rectángulo 29863" width="15.826" height="1.679" transform="translate(0 23.497)" fill="#00223d"/>
                <rect id="Rectángulo_29864" data-name="Rectángulo 29864" width="22.997" height="1.679" transform="translate(0 26.362)" fill="#00223d"/>
                <rect id="Rectángulo_29865" data-name="Rectángulo 29865" width="19.564" height="1.679" transform="translate(7.018 29.644)" fill="#00223d"/>
                <rect id="Rectángulo_29866" data-name="Rectángulo 29866" width="22.997" height="1.679" transform="translate(0 32.926)" fill="#00223d"/>
              </g>
            </g>
            <g id="Grupo_61661" data-name="Grupo 61661" transform="translate(9.615 4.744)">
              <g id="Grupo_61660" data-name="Grupo 61660">
                <rect id="Rectángulo_29867" data-name="Rectángulo 29867" width="21.404" height="1.679" fill="#00223d"/>
                <rect id="Rectángulo_29868" data-name="Rectángulo 29868" width="16.36" height="1.679" transform="translate(0 2.865)" fill="#00223d"/>
                <rect id="Rectángulo_29869" data-name="Rectángulo 29869" width="19.564" height="1.679" transform="translate(0 5.729)" fill="#00223d"/>
                <rect id="Rectángulo_29870" data-name="Rectángulo 29870" width="15.826" height="1.679" transform="translate(0 8.594)" fill="#00223d"/>
                <rect id="Rectángulo_29871" data-name="Rectángulo 29871" width="17.888" height="1.679" transform="translate(5.109 11.458)" fill="#00223d"/>
                <rect id="Rectángulo_29872" data-name="Rectángulo 29872" width="16.295" height="1.679" transform="translate(5.109 14.904)" fill="#00223d"/>
                <rect id="Rectángulo_29873" data-name="Rectángulo 29873" width="16.36" height="1.679" transform="translate(0 17.768)" fill="#00223d"/>
                <rect id="Rectángulo_29874" data-name="Rectángulo 29874" width="19.564" height="1.679" transform="translate(0 20.633)" fill="#00223d"/>
                <rect id="Rectángulo_29875" data-name="Rectángulo 29875" width="15.826" height="1.679" transform="translate(0 23.497)" fill="#00223d"/>
                <rect id="Rectángulo_29876" data-name="Rectángulo 29876" width="22.997" height="1.679" transform="translate(0 26.362)" fill="#00223d"/>
                <rect id="Rectángulo_29877" data-name="Rectángulo 29877" width="19.564" height="1.679" transform="translate(7.018 29.644)" fill="#00223d"/>
                <rect id="Rectángulo_29878" data-name="Rectángulo 29878" width="22.997" height="1.679" transform="translate(0 32.926)" fill="#00223d"/>
              </g>
            </g>
            <g id="Grupo_61663" data-name="Grupo 61663" transform="translate(70.702 4.744)">
              <g id="Grupo_61662" data-name="Grupo 61662">
                <rect id="Rectángulo_29879" data-name="Rectángulo 29879" width="21.404" height="1.679" fill="#00223d"/>
                <rect id="Rectángulo_29880" data-name="Rectángulo 29880" width="16.36" height="1.679" transform="translate(0 2.865)" fill="#00223d"/>
                <rect id="Rectángulo_29881" data-name="Rectángulo 29881" width="19.564" height="1.679" transform="translate(0 5.729)" fill="#00223d"/>
                <rect id="Rectángulo_29882" data-name="Rectángulo 29882" width="15.826" height="1.679" transform="translate(0 8.594)" fill="#00223d"/>
                <rect id="Rectángulo_29883" data-name="Rectángulo 29883" width="17.888" height="1.679" transform="translate(5.109 11.458)" fill="#00223d"/>
                <rect id="Rectángulo_29884" data-name="Rectángulo 29884" width="16.295" height="1.679" transform="translate(5.109 14.904)" fill="#00223d"/>
                <rect id="Rectángulo_29885" data-name="Rectángulo 29885" width="16.36" height="1.679" transform="translate(0 17.768)" fill="#00223d"/>
                <rect id="Rectángulo_29886" data-name="Rectángulo 29886" width="19.564" height="1.679" transform="translate(0 20.633)" fill="#00223d"/>
                <rect id="Rectángulo_29887" data-name="Rectángulo 29887" width="15.826" height="1.679" transform="translate(0 23.497)" fill="#00223d"/>
                <rect id="Rectángulo_29888" data-name="Rectángulo 29888" width="22.997" height="1.679" transform="translate(0 26.362)" fill="#00223d"/>
                <rect id="Rectángulo_29889" data-name="Rectángulo 29889" width="19.564" height="1.679" transform="translate(7.018 29.644)" fill="#00223d"/>
                <rect id="Rectángulo_29890" data-name="Rectángulo 29890" width="22.997" height="1.679" transform="translate(0 32.926)" fill="#00223d"/>
              </g>
            </g>
            <rect id="Rectángulo_29891" data-name="Rectángulo 29891" width="0.974" height="43.374" transform="translate(153.169)" fill="#2069d9"/>
          </g>
          <rect id="Rectángulo_29892" data-name="Rectángulo 29892" width="20.03" height="19.625" transform="translate(104.901 4.746)" fill="#ffa726"/>
          <rect id="Rectángulo_29893" data-name="Rectángulo 29893" width="16.941" height="33.931" transform="translate(128.02 4.746)" fill="#ffa726"/>
          <rect id="Rectángulo_29894" data-name="Rectángulo 29894" width="17.409" height="14.742" transform="translate(106.211 8.303)" fill="url(#linear-gradient)"/>
          <rect id="Rectángulo_29895" data-name="Rectángulo 29895" width="14.321" height="29.344" transform="translate(129.33 7.928)" fill="url(#linear-gradient)"/>
        </g>
      </g>
      <g id="Grupo_61680" data-name="Grupo 61680" transform="translate(8.841 31.938)">
        <g id="Grupo_61671" data-name="Grupo 61671" transform="translate(33.843)">
          <g id="Grupo_61667" data-name="Grupo 61667" transform="translate(27.846 112.433)">
            <path id="Trazado_131920" data-name="Trazado 131920" d="M875.853,1643.9c.682-1.4,1.565-5.639-.4-6.638-2.769-1.412-14.065,1.172-14.065,1.172s-.633,3.793-.947,5.467Z" transform="translate(-860.442 -1589.086)" fill="#ffa739"/>
            <path id="Trazado_131921" data-name="Trazado 131921" d="M868.055,1490.468c0,.531-4.808,49.032-4.808,49.032.344,2.524,7.915.83,9.841-.214l14.952-48.642Z" transform="translate(-862.332 -1490.468)" fill="#00223d"/>
          </g>
          <path id="Trazado_131922" data-name="Trazado 131922" d="M844.792,1236.252l6.945-12.27c1.38-4.619,13.387-1.012,12.007,3.607l-1.788,13.786Z" transform="translate(-822.051 -1197.039)" fill="#f7b28a"/>
          <g id="Grupo_61668" data-name="Grupo 61668" transform="translate(5.436 93.445)">
            <path id="Trazado_131923" data-name="Trazado 131923" d="M920.076,1644.107c.183-1.143.248-4.274-1.7-5.93-2.7-2.291-6.679-.556-6.679-.556l-10.662-.107s-1.126,4.285-.834,6.594Z" transform="translate(-864.785 -1570.204)" fill="#ffa739"/>
            <path id="Trazado_131924" data-name="Trazado 131924" d="M792.5,1432.622s-8.367,24.264,30.677,22.869c22.031-.837,21.5-3.329,21.5-3.329l-15.481,47.812c.886,1.848,8.374,1.644,10.534.195,0,0,27.511-44.677,26.117-55s-19.522-12.55-30.4-12.829S792.5,1432.622,792.5,1432.622Z" transform="translate(-791.746 -1432.265)" fill="#00223d"/>
          </g>
          <path id="Trazado_131925" data-name="Trazado 131925" d="M825.638,1310.035c-13.631,16.886-51.064,15.055-50.55.961,0,0,.791-34.338,12.2-52.155,4.047-6.318,9.023-9.108,16.178-9,7.35.107,14.972,6.465,17.175,11.328.555,1.226,1.149,4.944,1.725,9.818,1.185,10,2.3,24.884,2.871,33.086C825.491,1307.709,825.638,1310.035,825.638,1310.035Z" transform="translate(-775.083 -1215.903)" fill="#ffa726"/>
          <path id="Trazado_131926" data-name="Trazado 131926" d="M895.9,1347.752c-11-6.787-15.94-32.834-15.94-32.834l13.07-.251C894.213,1324.67,895.325,1339.55,895.9,1347.752Z" transform="translate(-845.745 -1259.585)" fill="#e8952d"/>
          <path id="Trazado_131927" data-name="Trazado 131927" d="M867.488,1162.613c2.721,6.156,1.344,15.414-3.17,17.72-6.357,2.8-16.442.156-19.85-7.6s-1.019-16.305,5.338-19.1S864.064,1154.866,867.488,1162.613Z" transform="translate(-820.786 -1150.488)" fill="#f7b28a"/>
          <g id="Grupo_61669" data-name="Grupo 61669" transform="translate(70.251 65.883)">
            <path id="Trazado_131928" data-name="Trazado 131928" d="M990.427,1350.325a11.586,11.586,0,0,1,6.374-2.537c3.909-.31,7.337,7.128,7.337,7.128H990.613Z" transform="translate(-990.427 -1347.778)" fill="#f7b28a"/>
            <path id="Trazado_131929" data-name="Trazado 131929" d="M1012.729,1348.092s6.151,1.739,7.01,1.968c.4,1.623-3.831.922-5.79.2C1011.791,1349.466,1012.729,1348.092,1012.729,1348.092Z" transform="translate(-1005.317 -1347.99)" fill="#f7b28a"/>
          </g>
          <path id="Trazado_131930" data-name="Trazado 131930" d="M872.106,1277.619s8.343,26.195,18.79,26.195a125.027,125.027,0,0,0,22.425-2.593c2.631-.3,1.61-7.507-.366-7.81l-18.353-2.05s-3.886-16.394-13.83-23.167C873.657,1266.861,869.847,1272.537,872.106,1277.619Z" transform="translate(-840.017 -1228.14)" fill="#ffa726"/>
          <path id="Trazado_131931" data-name="Trazado 131931" d="M934.55,1294.3l-18.224-2.082-.033-.107c-5.266-16.8-12.681-22.72-12.755-22.778l.211-.271c.075.058,7.539,6.012,12.838,22.84l18,2.057Z" transform="translate(-861.632 -1228.858)" fill="#fff"/>
          <path id="Trazado_131932" data-name="Trazado 131932" d="M849.534,1178.265c-1.821-.259-4.752-3.585-7.794-10.644-3.511-8.148-1.165-15.155,6.374-19.364,7.432-4.15,15.985,2.1,16.291,9.4C863.534,1169.563,855.722,1179.146,849.534,1178.265Z" transform="translate(-818.919 -1146.568)" fill="#21587b"/>
          <path id="Trazado_131933" data-name="Trazado 131933" d="M905.832,1200.394c.2,1.569-.4,2.94-1.35,3.062s-1.879-1.052-2.08-2.622.4-2.94,1.351-3.062S905.631,1198.824,905.832,1200.394Z" transform="translate(-860.841 -1180.819)" fill="#f7b28a"/>
          <path id="Trazado_131934" data-name="Trazado 131934" d="M870.967,1147.2s3.317,14.257,18.542,9.249C883.482,1143.424,870.967,1147.2,870.967,1147.2Z" transform="translate(-839.687 -1146.409)" fill="#21587b"/>
          <g id="Grupo_61670" data-name="Grupo 61670" transform="translate(22.63 30.964)">
            <path id="Trazado_131935" data-name="Trazado 131935" d="M844.453,1245.43l2.369-4.075c.652-2.307,17.427,2.433,16.775,4.739l.19,5.876Z" transform="translate(-844.453 -1240.738)" fill="#e8952d"/>
            <path id="Trazado_131936" data-name="Trazado 131936" d="M865.342,1257.323a.08.08,0,0,1-.038-.009,55.429,55.429,0,0,0-18.094-5.742.084.084,0,0,1-.077-.091.086.086,0,0,1,.091-.076,55.588,55.588,0,0,1,18.155,5.759.084.084,0,0,1-.038.159Z" transform="translate(-846.259 -1247.925)" fill="#003c40"/>
          </g>
          <path id="Trazado_131937" data-name="Trazado 131937" d="M784.617,1214.111l-.611-.109c.034-.19,3.481-19.064,11.365-28.456,4.23-4.383,8.249-5.386,9.11-5.557l1.335-2.722a.272.272,0,0,1,.026-.043,2.648,2.648,0,0,1,2.344-.753c.218-.35.365-.571.463-.709-.985-1.28-6.284-8.417-6.669-14.31a15.416,15.416,0,0,1,4.261-11.3,14.408,14.408,0,0,1,11.074-4.324l-.016.621a13.745,13.745,0,0,0-10.61,4.133,14.987,14.987,0,0,0-4.088,10.828c.4,6.166,6.621,14.075,6.684,14.154a.31.31,0,0,1-.023.412h0a9.826,9.826,0,0,0-.644.977.309.309,0,0,1-.289.147,2.373,2.373,0,0,0-1.97.472l-1.387,2.83a.313.313,0,0,1-.232.171c-.043.006-4.4.724-8.906,5.388C788.07,1195.21,784.651,1213.923,784.617,1214.111Z" transform="translate(-781.095 -1145.822)" fill="#fff"/>
        </g>
        <g id="Grupo_61679" data-name="Grupo 61679" transform="translate(0 54.345)">
          <path id="Trazado_131938" data-name="Trazado 131938" d="M763.551,1371.407c-4.2-.021-19.774,4.054-22.07,0s-7.369-54.1-7.369-54.1a5.661,5.661,0,0,0-5.608-4.9H677.661a6.3,6.3,0,0,0-6.259,7.148l7.227,52.994a13.222,13.222,0,0,0,13.1,11.436h19.245v.023h59.319v-5.86A6.468,6.468,0,0,0,763.551,1371.407Z" transform="translate(-671.343 -1312.409)" fill="#21587b"/>
          <path id="Trazado_131939" data-name="Trazado 131939" d="M744.541,1383.987H691.729a13.222,13.222,0,0,1-13.1-11.436l-7.227-52.994a6.3,6.3,0,0,1,6.259-7.148h42.274a5.661,5.661,0,0,1,5.608,4.9c3.056,27.024,5.324,48.66,8.6,61.516C735.468,1384.018,741.674,1383.987,744.541,1383.987Z" transform="translate(-671.343 -1312.409)" fill="#00223d"/>
          <g id="Grupo_61678" data-name="Grupo 61678" transform="translate(20.034 71.58)">
            <path id="Trazado_131940" data-name="Trazado 131940" d="M732.8,1531.828c-.008.04-.047.079-.047.119,0,2.579,16.175,4.67,36.129,4.67s36.129-2.091,36.129-4.67c0-.041-.039-.08-.047-.119Z" transform="translate(-732.754 -1531.828)" fill="#0d192b"/>
            <path id="Trazado_131941" data-name="Trazado 131941" d="M811.577,1620.747c.006-.04.037-.079.037-.12,0-2.579-12.752-4.67-28.483-4.67s-28.483,2.091-28.483,4.67c0,.04.031.08.037.12Z" transform="translate(-747.506 -1588.513)" fill="#0d192b"/>
            <rect id="Rectángulo_29896" data-name="Rectángulo 29896" width="6.302" height="26.605" transform="translate(33.188 3.529)" fill="#0d192b"/>
            <rect id="Rectángulo_29897" data-name="Rectángulo 29897" width="3.211" height="5.977" transform="translate(54.964 31.646)" fill="#0d192b"/>
            <rect id="Rectángulo_29898" data-name="Rectángulo 29898" width="3.211" height="5.977" transform="translate(34.547 31.646)" fill="#0d192b"/>
            <rect id="Rectángulo_29899" data-name="Rectángulo 29899" width="3.211" height="5.977" transform="translate(9.971 31.646)" fill="#0d192b"/>
            <g id="Grupo_61673" data-name="Grupo 61673" transform="translate(9.925 33.546)">
              <g id="Grupo_61672" data-name="Grupo 61672">
                <ellipse id="Elipse_4096" data-name="Elipse 4096" cx="2.449" cy="3.873" rx="2.449" ry="3.873" transform="translate(0 0.186)" fill="#0d192b"/>
                <ellipse id="Elipse_4097" data-name="Elipse 4097" cx="2.449" cy="3.873" rx="2.449" ry="3.873" transform="translate(2.374 0.186)" fill="#0d192b"/>
                <path id="Trazado_131942" data-name="Trazado 131942" d="M772.008,1642.276c-1.019.795-3.867.435-4.265.024l-.018-7.144c.764-.669,3.461-.645,4.282-.036Z" transform="translate(-766.241 -1634.659)" fill="#0d192b"/>
                <path id="Trazado_131943" data-name="Trazado 131943" d="M776.88,1641.3c0,1.465-.751,2.654-1.678,2.654s-1.679-1.188-1.679-2.654.752-2.654,1.679-2.654S776.88,1639.831,776.88,1641.3Z" transform="translate(-770.148 -1637.343)" fill="#21587b"/>
              </g>
              <path id="Trazado_131944" data-name="Trazado 131944" d="M777.034,1643.671c0,.893-.458,1.617-1.023,1.617s-1.023-.724-1.023-1.617.458-1.617,1.023-1.617S777.034,1642.778,777.034,1643.671Z" transform="translate(-771.136 -1639.641)" fill="#0d192b"/>
            </g>
            <g id="Grupo_61675" data-name="Grupo 61675" transform="translate(30.846 33.546)">
              <g id="Grupo_61674" data-name="Grupo 61674">
                <ellipse id="Elipse_4098" data-name="Elipse 4098" cx="2.449" cy="3.873" rx="2.449" ry="3.873" transform="translate(2.374 0.186)" fill="#0d192b"/>
                <ellipse id="Elipse_4099" data-name="Elipse 4099" cx="2.449" cy="3.873" rx="2.449" ry="3.873" transform="translate(0 0.186)" fill="#0d192b"/>
                <path id="Trazado_131945" data-name="Trazado 131945" d="M831.921,1642.276c1.019.795,3.867.435,4.265.024l.018-7.144c-.764-.669-3.461-.645-4.282-.036Z" transform="translate(-830.416 -1634.659)" fill="#0d192b"/>
                <ellipse id="Elipse_4100" data-name="Elipse 4100" cx="1.678" cy="2.654" rx="1.678" ry="2.654" transform="translate(0.54 1.3)" fill="#21587b"/>
              </g>
              <path id="Trazado_131946" data-name="Trazado 131946" d="M831.517,1643.671c0,.893.458,1.617,1.023,1.617s1.023-.724,1.023-1.617-.458-1.617-1.023-1.617S831.517,1642.778,831.517,1643.671Z" transform="translate(-830.144 -1639.641)" fill="#0d192b"/>
            </g>
            <g id="Grupo_61677" data-name="Grupo 61677" transform="translate(51.641 33.546)">
              <g id="Grupo_61676" data-name="Grupo 61676">
                <ellipse id="Elipse_4101" data-name="Elipse 4101" cx="2.449" cy="3.873" rx="2.449" ry="3.873" transform="translate(2.374 0.186)" fill="#0d192b"/>
                <ellipse id="Elipse_4102" data-name="Elipse 4102" cx="2.449" cy="3.873" rx="2.449" ry="3.873" transform="translate(0 0.186)" fill="#0d192b"/>
                <path id="Trazado_131947" data-name="Trazado 131947" d="M895.666,1642.276c1.019.795,3.867.435,4.265.024l.018-7.144c-.764-.669-3.461-.645-4.282-.036Z" transform="translate(-894.161 -1634.659)" fill="#0d192b"/>
                <path id="Trazado_131948" data-name="Trazado 131948" d="M892.708,1641.3c0,1.465.751,2.654,1.678,2.654s1.678-1.188,1.678-2.654-.751-2.654-1.678-2.654S892.708,1639.831,892.708,1641.3Z" transform="translate(-892.168 -1637.343)" fill="#21587b"/>
              </g>
              <path id="Trazado_131949" data-name="Trazado 131949" d="M895.262,1643.671c0,.893.458,1.617,1.023,1.617s1.023-.724,1.023-1.617-.458-1.617-1.023-1.617S895.262,1642.778,895.262,1643.671Z" transform="translate(-893.889 -1639.641)" fill="#0d192b"/>
            </g>
          </g>
        </g>
      </g>
      <g id="Grupo_61697" data-name="Grupo 61697" transform="translate(151.392 7.285)">
        <g id="Grupo_61695" data-name="Grupo 61695">
          <g id="Grupo_61694" data-name="Grupo 61694" transform="translate(0 1.751)">
            <g id="Grupo_61688" data-name="Grupo 61688" transform="translate(63.43 33.175)">
              <g id="Grupo_61686" data-name="Grupo 61686">
                <path id="Trazado_131955" data-name="Trazado 131955" d="M1336.227,1221.529l-5.552,3.1-1.407-2.532a.149.149,0,0,0-.009-.015l-9.948-17.909-.008-.009-5.164-5.459-9.864-10.424c-5.071-6.68,3.645-14.782,9.525-8.987,6.036,5.948,11.538,14.8,14.079,19.449,2,3.659,6.021,15.663,7.645,20.617l.062.189C1335.988,1220.781,1336.227,1221.529,1336.227,1221.529Z" transform="translate(-1302.749 -1177.311)" fill="#00223d"/>
                <path id="Trazado_131956" data-name="Trazado 131956" d="M1392.557,1312.084l-2.43-7.218c-1.033,1.947-5.038,3.335-6.115,3.159,0,0,2.894,5.542,3.65,6.517S1392.177,1314.505,1392.557,1312.084Z" transform="translate(-1357.502 -1263.254)" fill="#f7a58e"/>
              </g>
              <g id="Grupo_61687" data-name="Grupo 61687" transform="translate(28.728 47.672)">
                <path id="Trazado_131957" data-name="Trazado 131957" d="M1393.05,1325.98c.007.052-.017.119-.01.172a4.924,4.924,0,0,0,2.085,4.251.294.294,0,0,0,.126.069c-1.744-.585-2.584,1.744-1.744,2.413,2.407,2.116,6.471.14,6.977-1.307.514-1.469-1.853-6.843-1.853-6.843C1397.257,1323.3,1393.317,1323,1393.05,1325.98Z" transform="translate(-1392.307 -1323.606)" fill="#f7a58e"/>
                <path id="Trazado_131958" data-name="Trazado 131958" d="M1393.02,1330.472a4.755,4.755,0,0,0,2.171,4.3c1.48.146,2.017.124,3.424.306-.862-.565-2.595-2-1.572-4.217C1395.74,1329.57,1393.448,1330.26,1393.02,1330.472Z" transform="translate(-1392.287 -1327.926)" fill="#e6856a"/>
                <path id="Trazado_131959" data-name="Trazado 131959" d="M1391.547,1325.665a17.209,17.209,0,0,0-.567,7.089s1.406.254,1.612-2.437c.054-.7.346-2.2,1.1-2.614,2.3-1.132,2.8-2.373,2.156-3.526C1394.988,1322.641,1391.879,1323.7,1391.547,1325.665Z" transform="translate(-1390.812 -1323.442)" fill="#f7a58e"/>
                <path id="Trazado_131960" data-name="Trazado 131960" d="M1400.46,1349.03c-1.25.652-4.49,1.812-4.922,1.369s2.33-2.724,3.944-2.868S1401.1,1348.7,1400.46,1349.03Z" transform="translate(-1393.966 -1339.665)" fill="#f7a58e"/>
              </g>
            </g>
            <path id="Trazado_131961" data-name="Trazado 131961" d="M1342.823,1225.889l-5.165-5.459,1.12-10.875A55.712,55.712,0,0,0,1342.823,1225.889Z" transform="translate(-1262.84 -1165.861)" fill="#a85900"/>
            <path id="Trazado_131962" data-name="Trazado 131962" d="M1267.747,1147.948l2.058,8.271.374,1.538c.415,1.954,13.321,1.123,12.407-1.164l-.769-1.683-3.969-8.708Z" transform="translate(-1215.736 -1123.175)" fill="#f7a58e"/>
            <g id="Grupo_61690" data-name="Grupo 61690" transform="translate(44.247)">
              <g id="Grupo_61689" data-name="Grupo 61689">
                <path id="Trazado_131963" data-name="Trazado 131963" d="M1244.165,1088.119c-1.1,9.174,1.9,16.266,9.645,15.118,6.445-.955,13.721-4.446,13.949-15.233a12.021,12.021,0,0,0-11.857-12.387C1249.386,1075.649,1245.134,1080.007,1244.165,1088.119Z" transform="translate(-1243.946 -1075.618)" fill="#f7a58e"/>
              </g>
            </g>
            <path id="Trazado_131964" data-name="Trazado 131964" d="M1245.054,1627.86c-.767-.813-4.385-.825-4.716.376s.307,2.06-1.219,3.964a15.458,15.458,0,0,0,4.949,0C1245.023,1631.924,1245.822,1628.673,1245.054,1627.86Z" transform="translate(-1196.447 -1447.318)" fill="#00223d"/>
            <path id="Trazado_131965" data-name="Trazado 131965" d="M1257.278,1416.175h-7c-.654-29.6-.529-61.826-.293-86.1.085-8.691.325-13.087,1.9-18.305,3.184-10.537,18.152-7.293,19.214,2.258.443,5.3,3.478,15.7-6.319,50.829C1264.682,1388.141,1258.915,1398.816,1257.278,1416.175Z" transform="translate(-1203.643 -1230.325)" fill="url(#linear-gradient-21)"/>
            <path id="Trazado_131966" data-name="Trazado 131966" d="M1224.3,1637.816c1.3-.07,4.331-1.32,4.9-2.183.843.942,2.6,1.2,4.716.887,2.5-.373,2.832-1.536,4.627-1.381.757,2.1,2.6,6.825.822,7.921H1220.83C1219.176,1641.547,1219.219,1638.322,1224.3,1637.816Z" transform="translate(-1183.47 -1452.599)" fill="#00223d"/>
            <g id="Grupo_61691" data-name="Grupo 61691" transform="translate(61.029 75.636)">
              <path id="Trazado_131967" data-name="Trazado 131967" d="M1352.437,1628.685c-.7-.737-3.977-.748-4.277.341s.279,1.868-1.106,3.6a14.006,14.006,0,0,0,4.489,0C1352.408,1632.371,1353.133,1629.422,1352.437,1628.685Z" transform="translate(-1330.2 -1523.547)" fill="#00223d"/>
              <path id="Trazado_131968" data-name="Trazado 131968" d="M1295.813,1315.271c1.43-10.913,20.845-9.792,22.135-.263.466,5.128,2.49,11.164-1.159,49.25,7.7,14.534,4.922,37.07,7.222,52.422.254,2.336-6.363,2.9-6.876.815-7.051-28.482-16.9-60.437-20.567-84.133C1295.239,1324.772,1295.105,1320.677,1295.813,1315.271Z" transform="translate(-1295.39 -1307.471)" fill="url(#linear-gradient-21)"/>
              <path id="Trazado_131969" data-name="Trazado 131969" d="M1330.69,1634.375c1.4-.074,3.468-1.9,4.086-2.83a5.616,5.616,0,0,0,4.932,2.045c2.7-.4,3.057-1.658,4.994-1.491.817,2.271,2.806,7.366.887,8.548h-19.462C1324.34,1639.016,1325.2,1634.92,1330.69,1634.375Z" transform="translate(-1315.534 -1525.823)" fill="#00223d"/>
            </g>
            <g id="Grupo_61693" data-name="Grupo 61693" transform="translate(0 21.005)">
              <path id="Trazado_131970" data-name="Trazado 131970" d="M1128.925,1158.841l2.237-2.959c1.7.867,4.561,1.926,7.555,3.456l-3.262,5.2C1132.763,1162.293,1130.439,1160.246,1128.925,1158.841Z" transform="translate(-1122.201 -1150.703)" fill="#f7a58e"/>
              <path id="Trazado_131971" data-name="Trazado 131971" d="M1150.965,1164.726l18.539,5.161,22.358-1.019c5.743-.365,8.64,19.86-3.669,17.167l-16.361-5.079s-16.639-5.226-22.892-10.454Z" transform="translate(-1135.686 -1156.662)" fill="#00223d"/>
              <g id="Grupo_61692" data-name="Grupo 61692">
                <path id="Trazado_131972" data-name="Trazado 131972" d="M1116.333,1153.38c-1.088-2.338,1.062-5.394,1.226-5.625l4.788,2.578c2.4,1.19,1.1,4.25-1.561,4.52C1120.786,1154.853,1117.486,1155.5,1116.333,1153.38Z" transform="translate(-1113.51 -1145.227)" fill="#f7a58e"/>
                <path id="Trazado_131973" data-name="Trazado 131973" d="M1112.089,1144.365c-4.869-3.568-3.636-4.357-3.636-4.357s1.817,1.048,4.94,3.083C1115.12,1144.333,1113.376,1145.119,1112.089,1144.365Z" transform="translate(-1108.313 -1140.007)" fill="#f7a58e"/>
              </g>
            </g>
            <path id="Trazado_131974" data-name="Trazado 131974" d="M1249.172,1187.166c-1.227-5.971-1.885-11.867,4.269-15.574,1.757-5.72,17.571-9.024,20.862-1.953,5.527,2.47,4.332,13.241,5.367,30.251,3.808,8.488,5.463,11.277,6.591,19.546,0,0-2.037,6.229-16.39,6.238-6.517,0-16.115-.576-20.481-3.9.435-5.638,2.793-11.071,3.775-19.053C1253.165,1202.72,1249.261,1187.851,1249.172,1187.166Z" transform="translate(-1202.673 -1136.261)" fill="#00223d"/>
            <path id="Trazado_131975" data-name="Trazado 131975" d="M1242.166,1121.475s-2.844,1.955-1.333,3.2a2.079,2.079,0,0,0,2.667.311Z" transform="translate(-1197.303 -1106.515)" fill="#f7a58e"/>
          </g>
          <rect id="Rectángulo_29904" data-name="Rectángulo 29904" width="32.777" height="0.517" transform="matrix(0.256, -0.967, 0.967, 0.256, 60.891, 136.219)" fill="#fff"/>
          <path id="Trazado_131976" data-name="Trazado 131976" d="M1246.7,1079.976s3.808,18.4,18.048,17.64c7.31-7.785,9.4-23.284-1.9-26.582C1250.392,1067.395,1246.6,1077.495,1246.7,1079.976Z" transform="translate(-1201.556 -1070.251)" fill="#0d192b"/>
          <path id="Trazado_131977" data-name="Trazado 131977" d="M1241.118,1104.421l-.989,6.115.51.146.964-6.136Z" transform="translate(-1197.128 -1093.274)" fill="#0d192b"/>
          <path id="Trazado_131978" data-name="Trazado 131978" d="M1249.227,1120.833a.172.172,0,0,1-.025-.342,1.937,1.937,0,0,0,1.4-1.646,2.029,2.029,0,0,0-.874-2.2c-1-.591-7.381-2.1-7.445-2.12a.172.172,0,1,1,.08-.335c.264.063,6.493,1.542,7.54,2.159a2.364,2.364,0,0,1,1.037,2.565,2.249,2.249,0,0,1-1.687,1.921Z" transform="translate(-1198.49 -1099.851)" fill="#0d192b"/>
          <ellipse id="Elipse_4103" data-name="Elipse 4103" cx="2.419" cy="1.743" rx="2.419" ry="1.743" transform="translate(46.858 19.571) rotate(-64.449)" fill="#f7a58e"/>
        </g>
        <g id="Grupo_61696" data-name="Grupo 61696" transform="translate(62.974 3.624)">
          <path id="Trazado_131979" data-name="Trazado 131979" d="M1302.628,1086.409a2.533,2.533,0,0,1-1.025-3.4c.931-2.468,5.494-2.048,5.867.466s-.652,2.328-.652,2.328Z" transform="translate(-1301.352 -1081.359)" fill="url(#linear-gradient-21)"/>
          <path id="Trazado_131980" data-name="Trazado 131980" d="M1304.423,1087.844a239.084,239.084,0,0,1,3.343,57.3c.223,6.457,15.395,5.934,15.172-.523,0,0-1.261-40.969-14.921-58.269C1308.017,1086.353,1305.694,1085.066,1304.423,1087.844Z" transform="translate(-1303.421 -1084.523)" fill="#0d192b"/>
        </g>
      </g>
    </g>
    <g id="Grupo_949309" data-name="Grupo 949309" transform="translate(184 2465.11)">
      <circle id="Elipse_8345" data-name="Elipse 8345" cx="22.308" cy="22.308" r="22.308" transform="translate(1.026 1.026)" fill="#12263f"/>
      <circle id="Elipse_8346" data-name="Elipse 8346" cx="19.349" cy="19.349" r="19.349" transform="translate(0 37.628) rotate(-76.492)" fill="#a7b6d4"/>
      <circle id="Elipse_8347" data-name="Elipse 8347" cx="17.97" cy="17.97" r="17.97" transform="translate(5.363 5.363)" fill="#e3e9f9"/>
      <circle id="Elipse_8348" data-name="Elipse 8348" cx="13.681" cy="13.681" r="13.681" transform="translate(9.652 9.652)" fill="#fff"/>
      <g id="Grupo_947552" data-name="Grupo 947552" transform="translate(13.212 7.619)">
        <path id="Trazado_620934" data-name="Trazado 620934" d="M281.386,152.137v22.721l9.786-6.734Z" transform="translate(-271.265 -152.137)" fill="#af5e46"/>
        <path id="Trazado_620935" data-name="Trazado 620935" d="M281.386,176.3V186.82l9.786-6.734Z" transform="translate(-271.265 -164.099)" fill="#8f4d39"/>
        <path id="Trazado_620936" data-name="Trazado 620936" d="M271.794,152.137v22.721l-9.786-6.734Z" transform="translate(-261.673 -152.137)" fill="#f76846"/>
        <path id="Trazado_620937" data-name="Trazado 620937" d="M271.794,176.3V186.82l-9.786-6.734Z" transform="translate(-261.673 -164.099)" fill="#af5e46"/>
        <g id="Grupo_947551" data-name="Grupo 947551" transform="translate(0 17.521)">
          <path id="Trazado_620938" data-name="Trazado 620938" d="M281.386,200.739l10.155-13.909-10.155,7.217Z" transform="translate(-271.265 -186.831)" fill="#af5e46"/>
          <path id="Trazado_620939" data-name="Trazado 620939" d="M271.5,200.739l-10.155-13.909,10.155,7.217Z" transform="translate(-261.345 -186.831)" fill="#f76846"/>
        </g>
      </g>
    </g>
    <g id="Grupo_949311" data-name="Grupo 949311" transform="translate(337.51 2558.065)">
      <g id="Grupo_180495" data-name="Grupo 180495" transform="translate(0 0)" style="isolation: isolate">
        <path id="Trazado_232073" data-name="Trazado 232073" d="M2322.833,289.508c-14.54-7.443-33.951,3.224-39.854,18.331a33.739,33.739,0,0,1,14.081-15.37c-17.475,8.545-23.668,37.344-.179,40.885,20.336,4.408,47.615-27.325,26.428-42.236,6.99,4.427,9.632,13.255,5.961,22.746C2333.713,303.817,2330.826,293.822,2322.833,289.508Zm.017,1.33-.2-.115Zm-.234-.136-.188-.106Zm-.238-.133-.178-.1Zm-.237-.128-.171-.09Zm-.24-.125-.164-.083Zm-.248-.124-.151-.073Zm-.251-.121-.137-.064Zm-.249-.115-.129-.058Zm-.256-.113-.116-.051Zm-.26-.111-.1-.043Zm-.261-.106-.09-.036Zm-.263-.1-.079-.031Zm-.267-.1-.065-.024Zm-.274-.1-.048-.017Zm-.275-.094-.031-.01Zm-.281-.091-.012,0Zm-19.6,2.084c.151-.073.3-.145.456-.215C2299.719,291.083,2299.568,291.155,2299.416,291.228Zm-2.344,1.234q.269-.155.54-.3Q2297.342,292.307,2297.073,292.462Zm.577-.325q.26-.143.521-.282Q2297.909,291.993,2297.649,292.137Zm.585-.315q.249-.131.5-.258Q2298.483,291.69,2298.235,291.822Zm.589-.3q.238-.12.478-.237Q2299.061,291.4,2298.823,291.519Zm10.548-3.208-.017,0Zm-.6.074-.047.007Zm-.6.087-.076.013Zm-.6.1-.109.02Zm-.6.113-.141.03Zm-.6.126-.167.039Zm-.6.139-.194.049Zm-.6.152-.224.061Zm-.6.164-.252.075Zm-.6.177-.278.088Zm-.593.189c-.1.033-.2.069-.3.1C2303.17,289.7,2303.271,289.665,2303.372,289.632Zm-.591.2c-.111.039-.22.08-.331.12C2302.561,289.913,2302.67,289.872,2302.781,289.833Zm-.588.213c-.118.044-.236.09-.354.136C2301.957,290.136,2302.075,290.09,2302.193,290.046Zm-.585.225c-.127.05-.254.1-.381.154C2301.354,290.373,2301.48,290.321,2301.608,290.27Zm-.582.236c-.135.057-.27.115-.406.174C2300.755,290.621,2300.89,290.563,2301.026,290.506Zm-.578.248c-.144.063-.286.128-.429.193C2300.161,290.882,2300.3,290.817,2300.447,290.754Zm22.645.229.215.134Zm-.219-.132.208.125Z" transform="translate(-2281.516 -287.079)" fill="#f7b865"/>
        <path id="Trazado_232074" data-name="Trazado 232074" d="M2337.328,307.853c-13.226-21.52-51.482,4.036-40.926,25.126C2309.629,354.5,2347.885,328.943,2337.328,307.853Z" transform="translate(-2291.97 -297.178)" fill="url(#linear-gradient-24)"/>
        <path id="Trazado_232075" data-name="Trazado 232075" d="M2339.064,310.736c10.236,20.454-26.863,45.236-39.69,24.367C2289.141,314.648,2326.239,289.866,2339.064,310.736Z" transform="translate(-2294.393 -299.681)" fill="#ffd800"/>
        <g id="Grupo_180494" data-name="Grupo 180494" transform="translate(14.913 9.63)">
          <path id="Trazado_232076" data-name="Trazado 232076" d="M2369.521,348.87c2.065,1.422,1.035,4.429-.039,6.672a7.432,7.432,0,0,1-5.11,4.583l-.041.1-.87,2.116-1.914-.249.739-1.8c-.26-.009-2.435-.308-2.743-.344l-.734,1.787-1.915-.249.734-1.787-1.535-.2,9.314-22.673,1.536.2.734-1.787,1.915.249-.734,1.787c.527.078,2.235.261,2.722.392l.749-1.823,1.914.249-.963,2.346c1.86,1.186,1.433,4.217.285,6.41A6.84,6.84,0,0,1,2369.521,348.87Zm-3.516,6.288c1.583-3.694,2.325-4.952-2.334-5.252l-.143.346-2.652,6.455c1.858.314,4.326.788,5.128-1.55m-.542-9.615-.462,1.124c2.011.395,4.133.5,4.969-1.912,1.586-3.375,1.131-3.96-2.44-4.241l-.142.346-1.924,4.683" transform="translate(-2356.096 -335.238)" fill="#fff"/>
        </g>
        <path id="Trazado_232077" data-name="Trazado 232077" d="M2328.682,289.508c-14.54-7.443-33.951,3.224-39.854,18.331,9.238-25.217,56.7-28.326,46.29,6.025C2339.563,303.817,2336.675,293.822,2328.682,289.508Z" transform="translate(-2287.366 -287.079)" fill="#fff" opacity="0.75" style="mix-blend-mode: screen;isolation: isolate"/>
        <path id="Trazado_232078" data-name="Trazado 232078" d="M2346.568,335.647c0-.124,0-.248,0-.372h0c-.009-.527-.035-1.053-.084-1.578h0c-.013-.136-.029-.272-.043-.408h0q-.068-.576-.171-1.147h0c-.093-.506-.206-1.008-.341-1.5h0c-.052-.185-.1-.371-.162-.554v0q-.225-.721-.512-1.421h0c-.132-.319-.274-.634-.425-.945h0l-.011-.024,0,0c-.062-.126-.126-.252-.19-.377a16.423,16.423,0,0,0-.854-1.445l.005.007c-.321-.511-2.778-3.727-3.184-4.281h0l-.006-.008c4.312,5.643,4.07,13.527,1.277,19.793l0-.005c-6.407,15.864-31.834,28.161-44.646,12.876l0,.006h0c1.594,2.029,3.209,4.626,5.25,6.237,14.389,10.693,35.585-.6,42-15.514l0,.007c.078-.177.153-.355.227-.535h0c.063-.154.123-.307.184-.461h0q.253-.65.473-1.308h0c.189-.574.362-1.162.508-1.737h0c.051-.21.1-.419.15-.629h0q.114-.515.209-1.03h0c.042-.238.082-.475.116-.712h0c.049-.345.092-.691.127-1.038h0l.008-.079h0c.016-.176.029-.351.043-.526h0c0-.013,0-.026,0-.039h0q.042-.629.047-1.26Z" transform="translate(-2294.079 -314.696)" fill="#ffd800"/>
      </g>
    </g>
    <g id="Configuration_Icon" data-name="Configuration Icon" transform="translate(427.805 2467.718)">
      <g id="Grupo_895385" data-name="Grupo 895385" transform="translate(0 0)">
        <g id="Grupo_895378" data-name="Grupo 895378" transform="translate(1.739)">
          <g id="Grupo_895377" data-name="Grupo 895377">
            <g id="Grupo_895376" data-name="Grupo 895376">
              <path id="Trazado_616729" data-name="Trazado 616729" d="M417.834,93.5a18.69,18.69,0,0,1,4.562-1.983l.939-4.515,7.628-.134,1.1,4.479a18.663,18.663,0,0,1,4.629,1.821l2.117-2.527h1.739l5.489,5.3-2.39,3.941a18.663,18.663,0,0,1,1.983,4.563l4.515.94.134,7.628-4.479,1.1a18.693,18.693,0,0,1-1.821,4.628L446.5,122.6l-5.3,5.489h-1.739l-2.2-2.39a18.7,18.7,0,0,1-4.562,1.982l-.94,4.515-7.628.134-1.1-4.479a18.686,18.686,0,0,1-4.628-1.821l-3.856,2.527h-1.739l-3.75-5.3,2.39-3.941a18.687,18.687,0,0,1-1.983-4.562l-4.515-.94-.134-7.629,4.479-1.1a18.688,18.688,0,0,1,1.821-4.628L408.593,96.6l3.561-5.489h1.739l3.942,2.39Zm4.066,10.162a8.185,8.185,0,1,0,11.573-.2A8.185,8.185,0,0,0,421.9,103.666Z" transform="translate(-404.82 -86.872)" fill="#e0e0e0"/>
            </g>
          </g>
        </g>
        <g id="Grupo_895381" data-name="Grupo 895381" transform="translate(1.739)" opacity="0.3">
          <g id="Grupo_895380" data-name="Grupo 895380">
            <g id="Grupo_895379" data-name="Grupo 895379">
              <path id="Trazado_616730" data-name="Trazado 616730" d="M417.834,93.5a18.69,18.69,0,0,1,4.562-1.983l.939-4.515,7.628-.134,1.1,4.479a18.663,18.663,0,0,1,4.629,1.821l2.117-2.527h1.739l5.489,5.3-2.39,3.941a18.663,18.663,0,0,1,1.983,4.563l4.515.94.134,7.628-4.479,1.1a18.693,18.693,0,0,1-1.821,4.628L446.5,122.6l-5.3,5.489h-1.739l-2.2-2.39a18.7,18.7,0,0,1-4.562,1.982l-.94,4.515-7.628.134-1.1-4.479a18.686,18.686,0,0,1-4.628-1.821l-3.856,2.527h-1.739l-3.75-5.3,2.39-3.941a18.687,18.687,0,0,1-1.983-4.562l-4.515-.94-.134-7.629,4.479-1.1a18.688,18.688,0,0,1,1.821-4.628L408.593,96.6l3.561-5.489h1.739l3.942,2.39Zm4.066,10.162a8.185,8.185,0,1,0,11.573-.2A8.185,8.185,0,0,0,421.9,103.666Z" transform="translate(-404.82 -86.872)"/>
            </g>
          </g>
        </g>
        <g id="Grupo_895384" data-name="Grupo 895384">
          <g id="Grupo_895383" data-name="Grupo 895383">
            <g id="Grupo_895382" data-name="Grupo 895382">
              <path id="Trazado_616731" data-name="Trazado 616731" d="M414.19,93.5a18.679,18.679,0,0,1,4.561-1.983l.94-4.515,7.628-.134,1.1,4.479a18.67,18.67,0,0,1,4.629,1.821l3.855-2.527,5.489,5.3L440,99.885a18.681,18.681,0,0,1,1.982,4.563l4.515.94.134,7.628-4.479,1.1a18.691,18.691,0,0,1-1.821,4.628l2.527,3.856-5.3,5.489-3.942-2.39a18.684,18.684,0,0,1-4.562,1.982l-.94,4.515-7.628.134-1.1-4.479a18.694,18.694,0,0,1-4.628-1.821l-3.855,2.527-5.489-5.3,2.39-3.941a18.668,18.668,0,0,1-1.983-4.562l-4.515-.94-.134-7.629,4.479-1.1a18.69,18.69,0,0,1,1.821-4.628L404.948,96.6l5.3-5.489,3.942,2.39Zm4.066,10.162a8.185,8.185,0,1,0,11.573-.2A8.185,8.185,0,0,0,418.256,103.666Z" transform="translate(-401.175 -86.872)" fill="#e0e0e0"/>
            </g>
          </g>
        </g>
      </g>
    </g>
    <g id="Grupo_949312" data-name="Grupo 949312" transform="translate(412.905 2590.57)">
      <g id="Grupo_155668" data-name="Grupo 155668" transform="translate(0 10.171)">
        <g id="Grupo_155659" data-name="Grupo 155659" transform="translate(0 35.891)">
          <rect id="Rectángulo_46450" data-name="Rectángulo 46450" width="42.37" height="13.603" transform="translate(0.369 0.369)" fill="#fff"/>
          <path id="Trazado_196088" data-name="Trazado 196088" d="M83.082,234.951H40.713a.369.369,0,0,1-.369-.369v-13.6a.369.369,0,0,1,.369-.369H83.082a.369.369,0,0,1,.369.369v13.6A.369.369,0,0,1,83.082,234.951Zm-42-.738H82.713V221.348H41.081Z" transform="translate(-40.344 -220.611)"/>
        </g>
        <g id="Grupo_155660" data-name="Grupo 155660">
          <rect id="Rectángulo_46451" data-name="Rectángulo 46451" width="42.37" height="13.603" transform="translate(0.369 0.369)" fill="#fff"/>
          <path id="Trazado_196089" data-name="Trazado 196089" d="M83.082,186.858H40.713a.369.369,0,0,1-.369-.369v-13.6a.369.369,0,0,1,.369-.369H83.082a.37.37,0,0,1,.369.369v13.6A.37.37,0,0,1,83.082,186.858Zm-42-.738H82.713V173.255H41.081Z" transform="translate(-40.344 -172.517)"/>
        </g>
        <g id="Grupo_155661" data-name="Grupo 155661" transform="translate(0 17.945)">
          <rect id="Rectángulo_46452" data-name="Rectángulo 46452" width="42.37" height="13.603" transform="translate(0.369 0.369)" fill="#fff"/>
          <path id="Trazado_196090" data-name="Trazado 196090" d="M83.082,210.9H40.713a.368.368,0,0,1-.369-.369v-13.6a.368.368,0,0,1,.369-.369H83.082a.369.369,0,0,1,.369.369v13.6A.369.369,0,0,1,83.082,210.9Zm-42-.737H82.713V197.3H41.081Z" transform="translate(-40.344 -196.564)"/>
        </g>
        <g id="Grupo_155662" data-name="Grupo 155662" transform="translate(5.307 23.069)">
          <circle id="Elipse_6004" data-name="Elipse 6004" cx="1.679" cy="1.679" r="1.679" transform="translate(0.369 0.369)" fill="#fff"/>
          <path id="Trazado_196091" data-name="Trazado 196091" d="M49.5,207.523a2.047,2.047,0,1,1,2.048-2.047A2.049,2.049,0,0,1,49.5,207.523Zm0-3.357a1.31,1.31,0,1,0,1.31,1.31A1.312,1.312,0,0,0,49.5,204.166Z" transform="translate(-47.456 -203.429)"/>
        </g>
        <g id="Grupo_155663" data-name="Grupo 155663" transform="translate(5.307 41.013)">
          <circle id="Elipse_6005" data-name="Elipse 6005" cx="1.679" cy="1.679" r="1.679" transform="translate(0.369 0.369)" fill="#fff"/>
          <path id="Trazado_196092" data-name="Trazado 196092" d="M49.5,231.57a2.047,2.047,0,1,1,2.048-2.047A2.049,2.049,0,0,1,49.5,231.57Zm0-3.357a1.31,1.31,0,1,0,1.31,1.31A1.311,1.311,0,0,0,49.5,228.213Z" transform="translate(-47.456 -227.475)"/>
        </g>
        <g id="Grupo_155664" data-name="Grupo 155664" transform="translate(5.307 41.013)">
          <circle id="Elipse_6006" data-name="Elipse 6006" cx="1.679" cy="1.679" r="1.679" transform="translate(0.369 0.369)" fill="#fff"/>
          <path id="Trazado_196093" data-name="Trazado 196093" d="M49.5,231.57a2.047,2.047,0,1,1,2.048-2.047A2.049,2.049,0,0,1,49.5,231.57Zm0-3.357a1.31,1.31,0,1,0,1.31,1.31A1.311,1.311,0,0,0,49.5,228.213Z" transform="translate(-47.456 -227.475)"/>
        </g>
        <g id="Grupo_155665" data-name="Grupo 155665" transform="translate(13.917 41.013)">
          <path id="Trazado_196094" data-name="Trazado 196094" d="M59.487,229.648a1.679,1.679,0,1,1,1.678,1.678A1.678,1.678,0,0,1,59.487,229.648Z" transform="translate(-59.118 -227.601)" fill="#fff"/>
          <path id="Trazado_196095" data-name="Trazado 196095" d="M61.04,231.57a2.047,2.047,0,1,1,2.048-2.047A2.049,2.049,0,0,1,61.04,231.57Zm0-3.357a1.31,1.31,0,1,0,1.31,1.31A1.311,1.311,0,0,0,61.04,228.213Z" transform="translate(-58.993 -227.475)"/>
        </g>
        <g id="Grupo_155666" data-name="Grupo 155666" transform="translate(5.307 5.123)">
          <circle id="Elipse_6007" data-name="Elipse 6007" cx="1.679" cy="1.679" r="1.679" transform="translate(0.369 0.369)" fill="#fff"/>
          <path id="Trazado_196096" data-name="Trazado 196096" d="M49.5,183.477a2.047,2.047,0,1,1,2.048-2.047A2.049,2.049,0,0,1,49.5,183.477Zm0-3.357a1.309,1.309,0,1,0,1.31,1.31A1.311,1.311,0,0,0,49.5,180.12Z" transform="translate(-47.456 -179.382)"/>
        </g>
        <g id="Grupo_155667" data-name="Grupo 155667" transform="translate(13.917 5.123)">
          <path id="Trazado_196097" data-name="Trazado 196097" d="M59.487,181.555a1.679,1.679,0,1,1,1.678,1.678A1.679,1.679,0,0,1,59.487,181.555Z" transform="translate(-59.118 -179.507)" fill="#fff"/>
          <path id="Trazado_196098" data-name="Trazado 196098" d="M61.04,183.477a2.047,2.047,0,1,1,2.048-2.047A2.05,2.05,0,0,1,61.04,183.477Zm0-3.357a1.309,1.309,0,1,0,1.31,1.31A1.311,1.311,0,0,0,61.04,180.12Z" transform="translate(-58.993 -179.382)"/>
        </g>
      </g>
      <g id="Grupo_155685" data-name="Grupo 155685" transform="translate(19.172 0)">
        <g id="Grupo_155681" data-name="Grupo 155681" transform="translate(0)">
          <g id="Grupo_155672" data-name="Grupo 155672" transform="translate(0)">
            <g id="Grupo_155669" data-name="Grupo 155669" transform="translate(0)">
              <ellipse id="Elipse_6008" data-name="Elipse 6008" cx="15.981" cy="15.511" rx="15.981" ry="15.511" transform="translate(0 15.325) rotate(-28.65)" fill="#fff"/>
              <path id="Trazado_196099" data-name="Trazado 196099" d="M88.84,197.947a16.04,16.04,0,0,1-7.96-2.094,15.4,15.4,0,0,1-7.353-9.566,15.809,15.809,0,0,1,1.834-12.251h0a16.648,16.648,0,0,1,22.293-5.966,15.4,15.4,0,0,1,7.353,9.566,15.806,15.806,0,0,1-1.835,12.251A16.782,16.782,0,0,1,88.84,197.947Zm-13.163-23.72.316.19A15.079,15.079,0,0,0,74.241,186.1a14.666,14.666,0,0,0,7,9.11,15.9,15.9,0,0,0,21.3-5.707,15.076,15.076,0,0,0,1.753-11.684,14.666,14.666,0,0,0-7-9.11,15.906,15.906,0,0,0-21.3,5.707Z" transform="translate(-67.806 -160.686)"/>
            </g>
            <g id="Grupo_155670" data-name="Grupo 155670" transform="translate(18.637 11.379)">
              <path id="Trazado_196100" data-name="Trazado 196100" d="M106.782,174.631q-3.093,1.848-6.175,3.715c-3.091,1.884-6.092,4.161-9.1,6.171,1.734,1.719,7.7,7.394,9.944,9.656l2.14,2.162a16.234,16.234,0,0,0,3.962-4.442A15.361,15.361,0,0,0,106.782,174.631Z" transform="translate(-91.133 -174.262)" fill="#fff"/>
              <path id="Trazado_196101" data-name="Trazado 196101" d="M103.46,196.578a.37.37,0,0,1-.263-.11l-2.139-2.161c-1.323-1.334-3.933-3.848-6.235-6.064-1.607-1.548-3-2.886-3.707-3.59a.369.369,0,0,1,.055-.569c1.133-.755,2.287-1.565,3.4-2.348,1.857-1.3,3.779-2.651,5.714-3.831,2.086-1.271,4.166-2.514,6.178-3.716a.367.367,0,0,1,.483.094,15.7,15.7,0,0,1,.787,17.674,16.564,16.564,0,0,1-4.052,4.543A.364.364,0,0,1,103.46,196.578Zm-11.5-12.132c.763.747,1.989,1.928,3.378,3.265,2.305,2.22,4.918,4.736,6.247,6.077l1.907,1.927a15.817,15.817,0,0,0,3.616-4.139,14.973,14.973,0,0,0-.548-16.582c-1.921,1.149-3.9,2.333-5.886,3.542-1.915,1.167-3.826,2.507-5.675,3.8C94,183.039,92.975,183.759,91.957,184.446Z" transform="translate(-91.008 -174.136)"/>
            </g>
            <g id="Grupo_155671" data-name="Grupo 155671" transform="translate(18.637 5.285)">
              <path id="Trazado_196102" data-name="Trazado 196102" d="M91.5,182.445q3.6-2.052,7.3-3.924,3.526-1.775,7.131-3.39c.648-.29,1.3-.583,1.954-.871a15.09,15.09,0,0,0-5.728-5.746,15.686,15.686,0,0,0-7.575-2.048c-.511,2.463-.971,4.935-1.458,7.4C92.565,176.724,92.03,179.584,91.5,182.445Z" transform="translate(-91.133 -166.096)" fill="#afafaf"/>
              <path id="Trazado_196103" data-name="Trazado 196103" d="M91.377,182.688a.369.369,0,0,1-.363-.436c.475-2.572,1.04-5.6,1.628-8.58q.254-1.288.5-2.577c.306-1.584.623-3.222.957-4.831a.362.362,0,0,1,.366-.294,16.158,16.158,0,0,1,7.753,2.1,15.528,15.528,0,0,1,5.867,5.887.368.368,0,0,1-.173.518c-.569.25-1.135.5-1.7.757l-.253.113c-2.389,1.07-4.784,2.208-7.116,3.382-2.359,1.188-4.81,2.505-7.287,3.915A.37.37,0,0,1,91.377,182.688Zm3.384-15.972c-.31,1.507-.606,3.037-.893,4.519q-.25,1.291-.5,2.58c-.528,2.678-1.04,5.4-1.482,7.793,2.252-1.269,4.479-2.46,6.631-3.543,2.343-1.179,4.747-2.322,7.146-3.4l.253-.113q.66-.3,1.327-.593a14.811,14.811,0,0,0-5.385-5.254A15.406,15.406,0,0,0,94.761,166.716Z" transform="translate(-91.008 -165.97)"/>
            </g>
          </g>
          <g id="Grupo_155673" data-name="Grupo 155673" transform="translate(21.205 20.818)">
            <path id="Trazado_196104" data-name="Trazado 196104" d="M94.572,188.547a.121.121,0,0,1-.063-.018.123.123,0,0,1-.043-.169l.91-1.516a.123.123,0,1,1,.211.126l-.91,1.516A.124.124,0,0,1,94.572,188.547Z" transform="translate(-94.45 -186.785)"/>
          </g>
          <g id="Grupo_155674" data-name="Grupo 155674" transform="translate(22.477 19.415)">
            <path id="Trazado_196105" data-name="Trazado 196105" d="M96.276,189.37a.123.123,0,0,1-.107-.184l2.432-4.22a.123.123,0,1,1,.213.123l-2.432,4.22A.122.122,0,0,1,96.276,189.37Z" transform="translate(-96.153 -184.904)"/>
          </g>
          <g id="Grupo_155675" data-name="Grupo 155675" transform="translate(23.996 18.218)">
            <path id="Trazado_196106" data-name="Trazado 196106" d="M98.312,190.283a.128.128,0,0,1-.057-.014.123.123,0,0,1-.051-.166c1.165-2.214,2.305-4.479,3.388-6.732a.123.123,0,0,1,.222.107c-1.084,2.256-2.226,4.523-3.393,6.74A.122.122,0,0,1,98.312,190.283Z" transform="translate(-98.19 -183.3)"/>
          </g>
          <g id="Grupo_155676" data-name="Grupo 155676" transform="translate(25.384 17.127)">
            <path id="Trazado_196107" data-name="Trazado 196107" d="M100.171,191.455a.123.123,0,0,1-.11-.176l4.49-9.369a.123.123,0,1,1,.222.106l-4.49,9.37A.123.123,0,0,1,100.171,191.455Z" transform="translate(-100.048 -181.839)"/>
          </g>
          <g id="Grupo_155677" data-name="Grupo 155677" transform="translate(26.98 15.954)">
            <path id="Trazado_196108" data-name="Trazado 196108" d="M102.31,192.495a.115.115,0,0,1-.05-.01.122.122,0,0,1-.062-.163l5.393-11.981a.123.123,0,0,1,.225.1l-5.393,11.981A.122.122,0,0,1,102.31,192.495Z" transform="translate(-102.187 -180.267)"/>
          </g>
          <g id="Grupo_155678" data-name="Grupo 155678" transform="translate(28.605 14.839)">
            <path id="Trazado_196109" data-name="Trazado 196109" d="M104.488,193.744a.122.122,0,0,1-.048-.01.123.123,0,0,1-.066-.161l6.2-14.725a.123.123,0,1,1,.226.1l-6.2,14.725A.122.122,0,0,1,104.488,193.744Z" transform="translate(-104.365 -178.772)"/>
          </g>
          <g id="Grupo_155679" data-name="Grupo 155679" transform="translate(30.191 17.963)">
            <path id="Trazado_196110" data-name="Trazado 196110" d="M106.613,195.95a.122.122,0,0,1-.113-.171l5.46-12.746a.123.123,0,0,1,.226.1l-5.46,12.746A.124.124,0,0,1,106.613,195.95Z" transform="translate(-106.491 -182.959)"/>
          </g>
          <g id="Grupo_155680" data-name="Grupo 155680" transform="translate(33.008 22.253)">
            <path id="Trazado_196111" data-name="Trazado 196111" d="M110.389,195.963a.118.118,0,0,1-.05-.01.123.123,0,0,1-.063-.162c1.035-2.323,2.071-4.681,3.078-7.009a.123.123,0,1,1,.225.1c-1.007,2.328-2.043,4.687-3.079,7.01A.121.121,0,0,1,110.389,195.963Z" transform="translate(-110.266 -188.707)"/>
          </g>
        </g>
        <g id="Grupo_155684" data-name="Grupo 155684" transform="translate(5.604 24.077)">
          <g id="Grupo_155682" data-name="Grupo 155682" opacity="0.129">
            <path id="Trazado_196112" data-name="Trazado 196112" d="M103.742,192.02c-.5-.01-.61.5-.763.876a8.446,8.446,0,0,1-.637,1.222,7.638,7.638,0,0,1-.854,1.168c.058-.06-.461.575-1.025,1.17-.52.531-.43.426-.782.763a11.491,11.491,0,0,1-3.387,2.151,20.837,20.837,0,0,1-4.6,1.732,8.966,8.966,0,0,1-2.069.172,18.794,18.794,0,0,1-2.12-.261h.011c-.607-.111-1.222-.182-1.824-.32a9.849,9.849,0,0,1-1.455-.424,26.607,26.607,0,0,1-4.694-2.908c-.635-.578-1.3-1.126-1.9-1.743-.5-.494-.183-.273-.706-.8a.362.362,0,0,0-.035-.023,11.508,11.508,0,0,1-1.858-2.63c-.078-.179-.043-.095-.2-.528a.661.661,0,0,0-1.274,0,1.361,1.361,0,0,0,.168.818,9.752,9.752,0,0,0,.92,1.7c.225.347.465.681.715,1.008a.742.742,0,0,0-.281.56.808.808,0,0,0-.168-.06.937.937,0,0,0-1.14.647,1.216,1.216,0,0,0,.2.929c.012.029.025.059.04.09a8.788,8.788,0,0,0,.606,1.062,16.237,16.237,0,0,0,6.957,6A15.5,15.5,0,0,0,89,205.818c.553-.01,1.105-.034,1.656-.079a1.246,1.246,0,0,0,.887-.284.886.886,0,0,0-.621-1.5,17.588,17.588,0,0,1-6.8-.5c.766.09,1.548.105,2.313.166.889.054,1.77.21,2.662.233a22.345,22.345,0,0,0,2.863-.116,24.081,24.081,0,0,0,4.782-1.638,11.9,11.9,0,0,0,2.656-1.7c.178-.174.428-.3.512-.548a.683.683,0,0,0-.075-.694,9.816,9.816,0,0,0,1.2-1.187c.22-.25.921-.98,1.438-1.669.365-.536.7-1.092,1.034-1.648a11.2,11.2,0,0,0,.719-1.577C104.48,192.622,104.338,192.052,103.742,192.02Zm-27.39,5.811c-.1-.188-.213-.374-.319-.56.253.3.507.606.77.9a10.768,10.768,0,0,0,.941,1.366c-.035-.034-.072-.066-.107-.1A10.058,10.058,0,0,1,76.351,197.832Z" transform="translate(-73.544 -191.151)"/>
          </g>
          <g id="Grupo_155683" data-name="Grupo 155683" transform="translate(13.968 9.863)" opacity="0.129">
            <path id="Trazado_196113" data-name="Trazado 196113" d="M92.261,204.368h0S92.265,204.369,92.261,204.368Z" transform="translate(-92.261 -204.368)"/>
          </g>
        </g>
      </g>
    </g>
  </g>
</svg>
