<svg xmlns="http://www.w3.org/2000/svg" width="42.976" height="42.992" viewBox="0 0 42.976 42.992"><g transform="translate(-119.889 -2160.805)"><g transform="translate(119.889 2160.805)"><path d="M157.809,2203.8H124.945a1.487,1.487,0,0,0-.259-.106,5.864,5.864,0,0,1-4.793-5.833q-.007-13.644,0-27.287a5.9,5.9,0,0,1,4.159-5.593c.986-.3.986-.3,1.014-1.309a2.968,2.968,0,0,1,2.7-2.854,2.92,2.92,0,0,1,3.158,2.531c.055.433.062.873.093,1.336h2.974c0-.417-.03-.8.005-1.177a2.91,2.91,0,0,1,3.131-2.691,2.952,2.952,0,0,1,2.745,2.928c.005.317,0,.634,0,.979h2.972c.153-2.587,1.04-3.816,2.745-3.909a2.987,2.987,0,0,1,2.086.644,3.518,3.518,0,0,1,1.105,3.222h2.953c.028-.463.03-.885.082-1.3a2.932,2.932,0,0,1,5.754-.354,5.566,5.566,0,0,1,.106,1.308c0,.325.092.448.432.521a5.817,5.817,0,0,1,4.484,4c.108.3.18.618.268.927v28.965a2.516,2.516,0,0,0-.114.316,5.817,5.817,0,0,1-3.483,4.269A14.046,14.046,0,0,1,157.809,2203.8ZM121.5,2174.713v.617q0,11.119,0,22.237a4.343,4.343,0,0,0,4.647,4.622h30.445a4.348,4.348,0,0,0,4.67-4.657q0-11.09,0-22.18v-.639Zm-.05-1.729h39.861c-.052-1.1-.024-2.154-.17-3.187a4.04,4.04,0,0,0-3.45-3.327c0,.327.01.65,0,.974a2.932,2.932,0,0,1-2.753,2.794,2.89,2.89,0,0,1-3.105-2.52c-.057-.447-.068-.9-.1-1.35h-2.91c-.025.455-.029.875-.074,1.29a2.89,2.89,0,0,1-3.111,2.578,2.928,2.928,0,0,1-2.752-2.854c-.008-.337,0-.675,0-1.008h-2.97a10.908,10.908,0,0,1-.088,1.469,2.943,2.943,0,0,1-5.83-.363c-.032-.373-.037-.748-.056-1.15H131a4.211,4.211,0,0,1-.59,2.713,2.973,2.973,0,0,1-4.313.5,3.419,3.419,0,0,1-1.03-3.078,4.056,4.056,0,0,0-3.44,3.281C121.47,2170.8,121.5,2171.874,121.446,2172.984Zm7.884-7.454h0q0-.831,0-1.661c0-.038,0-.077,0-.115a1.327,1.327,0,0,0-1.24-1.331,1.267,1.267,0,0,0-1.358,1.133,39.083,39.083,0,0,0,0,3.946,1.255,1.255,0,0,0,1.415,1.123,1.3,1.3,0,0,0,1.179-1.318C129.343,2166.714,129.33,2166.122,129.33,2165.53Zm24.095-.016h0q0,.859,0,1.718c0,.038,0,.077,0,.115a1.313,1.313,0,0,0,1.164,1.277,1.221,1.221,0,0,0,1.408-1.051,36.582,36.582,0,0,0,.008-4.056,1.246,1.246,0,0,0-1.386-1.089,1.3,1.3,0,0,0-1.192,1.31C153.411,2164.33,153.424,2164.922,153.424,2165.514Zm-6.286.017c0-.592.012-1.184,0-1.775a1.31,1.31,0,0,0-1.232-1.333,1.267,1.267,0,0,0-1.36,1.129c-.065,1.313-.066,2.632,0,3.944a1.255,1.255,0,0,0,1.355,1.129,1.3,1.3,0,0,0,1.238-1.32C147.151,2166.715,147.138,2166.124,147.138,2165.531Zm-8.877,0c0-.575.021-1.15-.005-1.724a1.365,1.365,0,0,0-1.382-1.387,1.324,1.324,0,0,0-1.258,1.431q-.013,1.667,0,3.333a1.314,1.314,0,0,0,1.246,1.438,1.344,1.344,0,0,0,1.393-1.368C138.284,2166.686,138.261,2166.11,138.261,2165.536Z" transform="translate(-119.889 -2160.805)" fill="#12263f"/><path d="M277.213,2323.188c-.517,0-1.033.006-1.55,0a2.131,2.131,0,0,1-2.174-2.069c-.038-1.127-.037-2.258,0-3.386a2.112,2.112,0,0,1,2.115-2.073c1.088-.047,2.182-.045,3.27,0a2.151,2.151,0,0,1,2.156,2.274q.015,1.493,0,2.985a2.157,2.157,0,0,1-2.269,2.271C278.246,2323.191,277.729,2323.188,277.213,2323.188Zm.059-5.885c-.515,0-1.031.006-1.546,0a.527.527,0,0,0-.605.592c-.007,1.031-.009,2.062,0,3.093a.553.553,0,0,0,.626.589c1.012,0,2.023.006,3.035,0a.554.554,0,0,0,.606-.611q.01-1.546,0-3.092c0-.4-.227-.579-.627-.57C278.265,2317.311,277.769,2317.3,277.272,2317.3Z" transform="translate(-255.767 -2297.787)" fill="#12263f"/><path d="M174.36,2323.175c-.555,0-1.109.014-1.663,0a2.086,2.086,0,0,1-2.045-2.058c-.02-1.09-.016-2.181,0-3.271a2.087,2.087,0,0,1,2.094-2.194c1.107-.051,2.219-.051,3.326,0a2.083,2.083,0,0,1,2.082,2.149q.047,1.606,0,3.213a2.111,2.111,0,0,1-2.242,2.163c-.516,0-1.033,0-1.549,0Zm.039-5.884c-.5,0-.993.008-1.49,0-.459-.009-.66.209-.657.662q.011,1.462,0,2.923c0,.449.2.686.648.689q1.49.012,2.979,0c.4,0,.648-.18.646-.623q-.008-1.519,0-3.038c0-.438-.216-.62-.637-.615C175.393,2317.3,174.9,2317.29,174.4,2317.29Z" transform="translate(-164.791 -2297.775)" fill="#12263f"/><path d="M384.291,2319.408c0,.574.015,1.148,0,1.722a2.085,2.085,0,0,1-2.063,2.04q-1.692.029-3.385,0a2.044,2.044,0,0,1-2.031-1.945c-.054-1.145-.048-2.3-.018-3.442a2.079,2.079,0,0,1,2.1-2.135c1.107-.048,2.22-.051,3.326,0a2.092,2.092,0,0,1,2.08,2.209c.008.517,0,1.033,0,1.549Zm-5.876,0c0,.478.015.956,0,1.433s.19.718.668.719q1.461,0,2.922,0c.431,0,.685-.195.684-.655q0-1.49,0-2.98c0-.42-.185-.642-.619-.64q-1.518,0-3.037,0c-.432,0-.625.205-.617.633C378.422,2318.419,378.415,2318.916,378.415,2319.413Z" transform="translate(-347.173 -2297.774)" fill="#12263f"/><path d="M277.29,2412.2c.535,0,1.071-.009,1.606,0a2.123,2.123,0,0,1,2.164,2.131c.026,1.09.029,2.181,0,3.271a2.075,2.075,0,0,1-2.021,2.092c-1.164.052-2.334.052-3.5,0a2.076,2.076,0,0,1-2.019-2.093c-.028-1.089-.026-2.181,0-3.271a2.122,2.122,0,0,1,2.164-2.13C276.219,2412.2,276.754,2412.2,277.29,2412.2Zm0,5.878c.5,0,.993-.011,1.489,0a.549.549,0,0,0,.649-.611q.011-1.518,0-3.036a.568.568,0,0,0-.646-.628q-1.489,0-2.978,0c-.388,0-.635.177-.641.57-.015,1.05-.013,2.1,0,3.15a.51.51,0,0,0,.583.554C276.257,2418.077,276.773,2418.082,277.288,2418.083Z" transform="translate(-255.802 -2383.236)" fill="#12263f"/><path d="M170.686,2415.873c0-.554-.013-1.109,0-1.663a2.066,2.066,0,0,1,2.051-2.042q1.691-.031,3.384,0a2.018,2.018,0,0,1,2.041,1.925c.054,1.221.05,2.448,0,3.668a1.945,1.945,0,0,1-1.835,1.875,36.709,36.709,0,0,1-3.781,0,2,2,0,0,1-1.859-2.041C170.674,2417.021,170.686,2416.447,170.686,2415.873Zm5.877.025c0-.5-.006-.994,0-1.491a.553.553,0,0,0-.626-.638c-1.013,0-2.026-.005-3.038,0a.547.547,0,0,0-.6.607c0,1.032-.005,2.064,0,3.1a.51.51,0,0,0,.574.563c1.032,0,2.064,0,3.1,0a.521.521,0,0,0,.6-.594C176.561,2416.93,176.563,2416.414,176.563,2415.9Z" transform="translate(-164.829 -2383.194)" fill="#12263f"/><path d="M384.326,2415.953c0,.555.014,1.11,0,1.664a2.011,2.011,0,0,1-1.883,2.021c-1.239.064-2.485.061-3.724,0a1.961,1.961,0,0,1-1.87-1.9c-.049-1.222-.052-2.448,0-3.669a2.01,2.01,0,0,1,2.005-1.9q1.72-.033,3.441,0a2.061,2.061,0,0,1,2.025,2.009C384.342,2414.767,384.326,2415.36,384.326,2415.953Zm-5.876-.108c0,.516.007,1.032,0,1.548-.008.42.163.648.6.646,1.013,0,2.026-.006,3.038,0a.549.549,0,0,0,.629-.63c0-.994,0-1.987,0-2.981a.586.586,0,0,0-.672-.663c-.975,0-1.949,0-2.924,0-.481,0-.7.221-.678.7C378.463,2414.926,378.45,2415.386,378.451,2415.845Z" transform="translate(-347.209 -2383.191)" fill="#12263f"/></g></g></svg>