<svg id="Grupo_949314" data-name="Grupo 949314" xmlns="http://www.w3.org/2000/svg" xmlns:xlink="http://www.w3.org/1999/xlink" width="87.339" height="87.338" viewBox="0 0 87.339 87.338">
  <defs>
    <radialGradient id="radial-gradient" cx="0.076" cy="0.019" r="1.465" gradientTransform="translate(0.001)" gradientUnits="objectBoundingBox">
      <stop offset="0" stop-color="#f6f6f7"/>
      <stop offset="0.477" stop-color="#f9f9fa"/>
      <stop offset="0.715" stop-color="#fff"/>
    </radialGradient>
    <clipPath id="clip-path">
      <rect id="Rectángulo_66262" data-name="Rectángulo 66262" width="40.765" height="40.766" fill="none"/>
    </clipPath>
  </defs>
  <g id="Grupo_18423" data-name="Grupo 18423" transform="translate(0 0)">
    <g id="Grupo_18421" data-name="Grupo 18421">
      <g id="Grupo_18420" data-name="Grupo 18420">
        <g id="Grupo_18419" data-name="Grupo 18419">
          <path id="Trazado_40936" data-name="Trazado 40936" d="M281.962,2189.389a43.669,43.669,0,1,1-43.669-43.668A43.669,43.669,0,0,1,281.962,2189.389Z" transform="translate(-194.623 -2145.721)" fill="#fff"/>
        </g>
      </g>
    </g>
    <path id="Trazado_40937" data-name="Trazado 40937" d="M281.7,2189.1a43.669,43.669,0,1,0-43.669,43.67A43.5,43.5,0,0,0,281.7,2189.1Z" transform="translate(-194.361 -2145.436)" fill="url(#radial-gradient)"/>
    <path id="Trazado_40938" data-name="Trazado 40938" d="M269.1,2186.859a33.332,33.332,0,1,0-33.333,33.333A33.209,33.209,0,0,0,269.1,2186.859Z" transform="translate(-191.968 -2143.046)" fill="none" stroke="#12263f" stroke-miterlimit="10" stroke-width="4"/>
    <g id="Grupo_18422" data-name="Grupo 18422" transform="translate(7.736 24.517)">
      <path id="Trazado_40939" data-name="Trazado 40939" d="M275.732,2164.488a43.675,43.675,0,0,1-75.187,43.488,43.536,43.536,0,0,0,75.187-43.488Z" transform="translate(-200.545 -2164.488)" fill="#eceef0"/>
    </g>
  </g>
  <g id="Grupo_151151" data-name="Grupo 151151" transform="translate(23.287 23.287)">
    <g id="Grupo_151150" data-name="Grupo 151150" clip-path="url(#clip-path)">
      <path id="Trazado_174615" data-name="Trazado 174615" d="M40.923,37.961a.845.845,0,0,0-.562-.409c-.488.1-.626.264-.631.743,0,.329-.01.658,0,.986.007.2-.04.284-.258.276-.525-.018-1.051-.013-1.577-.017-2.345,0-4.69,0-7.035.021-.329,0-.286-.171-.285-.371q0-3.737,0-7.473c0-.358.009-.716,0-1.073-.007-.192.06-.247.249-.247q3.537.014,7.075.016c.5,0,1.005,0,1.506-.018.259-.012.333.068.331.329-.012,1.587-.007,3.174-.005,4.761,0,.519.141.682.647.765h0c.252-.013.379-.216.547-.358V29.605a1.587,1.587,0,0,0-.564-.471q-2.174-1.188-4.343-2.388a1.217,1.217,0,0,0-.76-.162c-.241.03-.312-.046-.309-.3.016-1.074.008-2.147.006-3.221,0-.562-.2-.767-.763-.77-.451,0-.9-.008-1.352,0-.191,0-.28-.025-.277-.251q.018-1.67,0-3.34c0-.231.09-.255.277-.251.477.009.954.01,1.431,0a.613.613,0,0,0,.683-.692c.006-1.1.011-2.2,0-3.3,0-.251.066-.332.308-.3a1.353,1.353,0,0,0,.863-.224q2.1-1.168,4.2-2.31a1.626,1.626,0,0,0,.6-.488V.4l-.4-.4H29.781c-1.476.821-2.938,1.668-4.434,2.45a1.175,1.175,0,0,0-.75,1.273c.053.7.012.7-.689.7-.358,0-.716-.008-1.074,0a.58.58,0,0,0-.647.638c-.015.477-.016.955,0,1.432.008.234-.046.326-.3.321q-1.332-.024-2.665,0c-.257,0-.312-.086-.3-.321.016-.464.013-.928,0-1.392s-.213-.67-.689-.678-.981-.012-1.472,0c-.209.006-.3-.059-.264-.268a.77.77,0,0,0,0-.119c-.009-1.289.144-1.087-1.021-1.734L11.318,0H5.111a.76.76,0,0,0-.423.566c.095.48.265.626.752.627,1.578,0,3.156.007,4.734-.005.268,0,.358.051.356.341q-.018,4.236,0,8.473c0,.275-.063.353-.346.351q-4.236-.017-8.473,0c-.283,0-.347-.076-.346-.351q.016-4.236,0-8.473c0-.29.087-.362.357-.34s.557.006.835,0c.53,0,.661-.1.806-.626A.991.991,0,0,0,2.962,0H.575a1.665,1.665,0,0,0-.4.4V11.142a1.511,1.511,0,0,0,.531.449q2.141,1.166,4.273,2.35a1.352,1.352,0,0,0,.863.224c.241-.034.312.046.308.3-.016,1.073-.008,2.147-.006,3.221,0,.562.2.767.763.77.451,0,.9.008,1.352,0,.191,0,.28.024.277.251q-.018,1.67,0,3.34c0,.23-.089.255-.277.251-.464-.01-.928-.008-1.392,0-.507.007-.722.224-.724.731,0,1.087-.009,2.174.005,3.261,0,.247-.059.335-.305.3a1.348,1.348,0,0,0-.863.222c-1.42.792-2.846,1.572-4.273,2.35a1.444,1.444,0,0,0-.533.45V40.349l.4.4H11.318c1.463-.813,2.912-1.653,4.4-2.426.583-.3.894-.662.78-1.329-.02-.116.011-.24-.006-.357-.035-.245.055-.319.3-.307.423.021.847.008,1.271.006.679,0,.853-.175.857-.842,0-.411.012-.822,0-1.232-.009-.233.048-.324.3-.32q1.331.024,2.662,0c.257,0,.313.088.3.32-.016.41-.006.821,0,1.232,0,.667.178.838.857.841.437,0,.875.011,1.311,0,.21-.008.293.059.26.265a.483.483,0,0,0,0,.079c.011,1.337-.154,1.111,1.063,1.783,1.373.758,2.74,1.526,4.11,2.289H40.525l.4-.4ZM32.9,23.482c.86,0,.86,0,.86.859,0,.649-.014,1.3.007,1.946.008.257-.074.308-.311.3-.5-.018-1.006-.006-1.509-.006s-1.006-.01-1.509,0c-.208.006-.267-.053-.264-.263q.018-1.291,0-2.581c0-.22.074-.277.274-.257a3.327,3.327,0,0,0,.437,0c.277-.009.529-.065.524.389a.5.5,0,0,0,.6.45.533.533,0,0,0,.54-.533c0-.286.116-.31.349-.309m.769-6.228a9.852,9.852,0,0,1-1.033-.005c-.12-.008-.058-.153-.069-.237-.052-.372-.3-.626-.617-.595a.565.565,0,0,0-.569.595c0,.221-.082.251-.275.255-.927.018-.926.024-.926-.913,0-.636.01-1.273-.005-1.909-.005-.225.058-.292.284-.285.5.017,1.008.005,1.512.005s1.035.008,1.551,0c.192,0,.246.053.243.244-.01.875,0,1.75-.006,2.626,0,.083.044.219-.089.224m-3.591-5.674a.782.782,0,0,1,.348-.04c.887,0,1.774,0,2.662,0,.6,0,.783-.194.768-.782a.7.7,0,0,0-.739-.415c-.742.013-1.484,0-2.226.008-.224,0-.321-.027-.32-.293q.016-4.293,0-8.586c0-.186.017-.283.249-.282,2.385.013,4.769.014,7.154.019.5,0,1.007,0,1.51-.017.191-.006.246.055.246.245q-.008,4.334,0,8.669c0,.191-.055.251-.246.245-.5-.016-1.007-.013-1.51-.017-.608,0-1.216.02-1.824.01a.7.7,0,0,0-.737.416c-.015.589.172.78.768.782.553,0,1.106,0,1.7,0a.63.63,0,0,1-.323.242c-.67.372-1.34.746-2.015,1.108-.344.185-.495.116-.608-.225a.568.568,0,0,0-.591-.435.521.521,0,0,0-.557.464c-.028.254-.126.285-.343.283-.993-.01-1.986-.006-2.979,0-.17,0-.279,0-.3-.235a.587.587,0,0,0-1.163,0c-.023.187-.068.247-.257.239a6.888,6.888,0,0,1-1.076-.078c.8-.441,1.6-.886,2.413-1.318M26.258,3.315c1.033-.53,2.041-1.11,3.074-1.678a.552.552,0,0,1,.05.356c0,2.743,0,5.487.008,8.23a.53.53,0,0,1-.326.55c-1.072.57-2.131,1.166-3.261,1.789,0-.681.011-1.29-.006-1.9-.007-.246.1-.281.3-.274.357.012.716.015,1.073,0,.418-.021.65-.25.647-.6s-.241-.572-.658-.582c-.371-.009-.742-.01-1.113,0-.188.006-.252-.055-.251-.249q.012-1.551,0-3.1c0-.2.081-.242.259-.237.358.009.716.012,1.073,0,.447-.016.691-.237.691-.6s-.247-.579-.694-.587c-.345-.006-.69-.013-1.034,0-.217.009-.28-.054-.3-.283a.732.732,0,0,1,.467-.83m-2.684,3.5c-.149-.016-.218-.072-.2-.223a.224.224,0,0,0,0-.04c-.054-.95.085-1.067,1.063-.947.181.022.172.112.172.233q0,.793,0,1.586c0,.5-.01,1.005,0,1.507.006.212-.064.292-.269.261a.519.519,0,0,0-.079,0c-.955.009-.951.01-.894-.954.009-.157.041-.239.212-.26a.585.585,0,0,0-.009-1.165m-6.826-1.2a.469.469,0,0,0,.079,0c.957-.009.953-.009.9.947-.008.154-.03.241-.21.258a.544.544,0,0,0-.531.582.55.55,0,0,0,.533.582c.178.02.2.112.207.264.052.944-.1,1.076-1.058.954-.211-.027-.178-.146-.178-.273,0-.516,0-1.031,0-1.547s.009-1.005,0-1.507c-.006-.205.052-.3.262-.262M11.726,1.709a.467.467,0,0,1,.037-.086l1.783,1.013c.522.279,1.045.554,1.564.838.365.2.175.549.169.819-.006.25-.273.116-.421.128a8.389,8.389,0,0,0-1.3.06c-.379.408-.379.659,0,1.064a5.251,5.251,0,0,0,1.424.069c.23,0,.326.045.322.3q-.023,1.491,0,2.982c0,.256-.087.306-.32.307a6.5,6.5,0,0,0-1.427.049c-.376.408-.378.579-.01,1.094a11.908,11.908,0,0,0,1.5.043c.146,0,.255.008.252.205-.008.631,0,1.263,0,1.967l-1.931-1.095c-.489-.261-.977-.526-1.47-.781a.305.305,0,0,1-.183-.313q.01-4.335.012-8.669m-5,10.523a.52.52,0,0,0-.559.464c-.048.446-.341.321-.53.224A26.085,26.085,0,0,1,3.251,11.54h.326q3.538,0,7.076,0a1.158,1.158,0,0,1,.6.155c.722.409,1.452.8,2.179,1.206l-.023.075c-.356,0-.712-.007-1.067,0-.166,0-.218-.045-.238-.217a.544.544,0,0,0-.587-.526.536.536,0,0,0-.584.527c-.018.218-.124.215-.28.214-1.007,0-2.014-.008-3.021,0-.213,0-.282-.05-.314-.272a.533.533,0,0,0-.59-.474m1.409,5.034c-.8-.014-.8,0-.8-.8,0-.635.024-1.272-.01-1.906-.018-.349.1-.416.417-.4.462.028.926.007,1.39.007.5,0,1.007.012,1.509-.006.231-.008.283.069.28.288-.012.847-.01,1.695,0,2.542,0,.2-.035.3-.258.273a2.26,2.26,0,0,0-.4,0c-.3.016-.578.065-.585-.412,0-.282-.286-.443-.581-.429a.516.516,0,0,0-.546.479c-.006.337-.145.371-.422.366m-.8,6.489c0-.2.042-.3.261-.27a2.054,2.054,0,0,0,.4,0c.309-.022.572-.054.583.414a.5.5,0,0,0,.583.426.531.531,0,0,0,.551-.521c0-.308.132-.325.378-.322.833.01.833,0,.833.847,0,.635-.014,1.271.006,1.906.008.268-.046.369-.338.353-.488-.027-.979-.007-1.469-.007s-1.006-.006-1.509,0c-.184,0-.283-.014-.278-.248.016-.86.012-1.721,0-2.581m3.187,11.223c0,1.392-.007,2.785.006,4.177,0,.295-.052.409-.384.407q-4.2-.022-8.395,0c-.331,0-.386-.111-.385-.406q.015-4.178,0-8.355c0-.295.052-.409.384-.407q4.2.022,8.395,0c.331,0,.388.111.385.407-.014,1.392-.006,2.785-.006,4.177M8.889,29.227c-1.866-.082-3.738-.02-5.607-.02l-.031-.084c.8-.435,1.59-.883,2.4-1.3.217-.111.475-.163.522.256.033.293.278.429.586.423a.528.528,0,0,0,.56-.463c.036-.274.173-.27.37-.269q1.432.006,2.864,0c.213,0,.365-.008.392.291s.26.439.569.442a.523.523,0,0,0,.574-.444c.038-.3.185-.294.4-.288.3.008.608,0,.915,0,.01.164-.131.16-.209.209-.145.092-.316.147-.452.249a5.656,5.656,0,0,1-3.849.994M15.072,37.3c-.513.264-1.017.548-1.524.824l-1.77.993a.482.482,0,0,1-.06-.355c0-2.742,0-5.483-.008-8.225a.53.53,0,0,1,.323-.56c.486-.239.957-.51,1.434-.767l1.826-1.02c0,.719.006,1.382,0,2.046,0,.2-.184.147-.305.153a10.939,10.939,0,0,0-1.424.043.659.659,0,0,0-.09,1l.09.067a5.2,5.2,0,0,0,1.417.079c.231,0,.329.057.326.309q-.018,1.484,0,2.968c0,.247-.083.316-.32.314a9.682,9.682,0,0,0-1.423.028h0l-.09.066a.659.659,0,0,0,.091,1h0a5.12,5.12,0,0,0,1.292.1c.15.008.408-.112.424.134.018.27.174.607-.2.8m2.454-3.366c.146.018.218.076.2.227a.215.215,0,0,0,0,.04c.057.948-.1,1.079-1.059.95-.214-.029-.173-.153-.174-.276,0-.516,0-1.031,0-1.547s.011-1.005-.005-1.507c-.007-.215.066-.287.267-.258a.533.533,0,0,0,.079,0c.956-.008.952-.008.9.951-.009.158-.04.236-.214.255a.543.543,0,0,0-.527.585.555.555,0,0,0,.537.58m7.09-2.009c-.026.474-.007.951-.007,1.427,0,.516-.007,1.031,0,1.547,0,.188-.05.274-.244.247a1.161,1.161,0,0,0-.159,0c-.846,0-.843,0-.838-.85,0-.2,0-.348.264-.38a.576.576,0,0,0,0-1.134c-.232-.025-.265-.129-.267-.332-.009-.891-.015-.876.883-.895.3-.006.379.079.363.371m.7-5.34c-.487,0-.7.218-.706.7,0,.9-.018,1.8.007,2.7.009.329-.1.4-.4.382-.45-.023-.9-.012-1.352,0-.474.009-.672.2-.682.684s-.011.955,0,1.432c.006.207-.057.276-.269.273q-1.372-.015-2.744,0c-.228,0-.261-.1-.256-.286.01-.424,0-.848,0-1.273,0-.665-.165-.83-.817-.833-.438,0-.876-.016-1.312.006-.255.013-.307-.077-.3-.315.014-.9.007-1.8,0-2.7,0-.565-.2-.77-.76-.771-1.1,0-2.2-.01-3.3.006-.268,0-.324-.078-.321-.33.014-1.061.007-2.121.005-3.182,0-.583-.2-.78-.792-.782-.451,0-.9-.009-1.352,0-.187.005-.249-.045-.247-.241q.014-1.691,0-3.381c0-.176.053-.226.225-.222.464.011.928.006,1.392,0,.562,0,.772-.211.773-.764,0-1.061.011-2.122-.006-3.182,0-.27.052-.357.34-.352,1.087.019,2.174.009,3.262.007.584,0,.781-.2.782-.79,0-.9.008-1.8,0-2.7,0-.225.058-.295.286-.285.45.018.9.01,1.352,0,.6-.007.788-.193.794-.786,0-.451.008-.9,0-1.352,0-.187.057-.253.249-.252q1.372.012,2.744,0c.206,0,.281.056.275.268-.013.464-.01.928,0,1.392.009.522.2.717.728.729.451.01.9.019,1.352,0,.272-.014.36.055.353.341-.02.848-.007,1.7-.007,2.546,0,.73.161.895.876.895,1.061,0,2.122.009,3.182-.006.26,0,.329.065.325.325-.015,1.06-.007,2.121-.006,3.182,0,.585.2.784.788.786.451,0,.9.008,1.352,0,.182,0,.253.035.251.237q-.014,1.69,0,3.381c0,.219-.1.228-.262.225-.424-.008-.849,0-1.273,0-.673,0-.857.182-.857.839,0,1.021-.018,2.042.01,3.063.01.349-.1.413-.418.4-.529-.027-1.06-.007-1.591-.007-.557,0-1.114,0-1.671,0M29.38,39.008c0,.022-.019.044-.045.1l-2.918-1.6c-.093-.051-.184-.105-.277-.157a.77.77,0,0,1-.335-.894c.05-.151.163-.112.258-.113.345-.006.69.006,1.034-.006.478-.018.725-.238.718-.617s-.252-.569-.744-.573c-.332,0-.663-.009-.995,0-.2.007-.282-.049-.28-.266q.014-1.532,0-3.064c0-.226.1-.262.287-.257.358.008.717.014,1.074-.005.442-.025.675-.263.657-.633-.017-.352-.251-.544-.685-.551-.345-.006-.69-.012-1.034,0-.218.009-.305-.053-.3-.288.015-.609,0-1.219,0-1.9,1.179.649,2.29,1.263,3.4,1.871a.314.314,0,0,1,.18.317q-.006,4.317-.006,8.635m.655-9.859c-.784-.435-1.572-.864-2.359-1.3l.023-.08c.223,0,.446,0,.669,0,.306.005.651-.109.7.411.023.249.3.344.568.325a.514.514,0,0,0,.519-.461c.027-.26.141-.282.352-.28q1.451.012,2.9,0c.218,0,.353,0,.382.293a.514.514,0,0,0,.568.449.52.52,0,0,0,.571-.449c.059-.464.366-.328.563-.227.8.409,1.58.857,2.373,1.295-.082.134-.2.072-.289.072q-3.577.007-7.153,0a.741.741,0,0,1-.386-.057" transform="translate(-0.158)"/>
      <path id="Trazado_174616" data-name="Trazado 174616" d="M.019,379.909q-.107.505.4.4a.494.494,0,0,1-.4-.4" transform="translate(0 -339.56)" fill="#f8f8f8"/>
      <path id="Trazado_174617" data-name="Trazado 174617" d="M.574,380.307l-.4-.4a.494.494,0,0,0,.4.4" transform="translate(-0.157 -339.56)" fill="#f8f8f8"/>
      <path id="Trazado_174619" data-name="Trazado 174619" d="M14.6,5.358c0,.025,0,.049,0,.075.141.484.358.644.946.648,1.431.01,2.863,0,4.294,0,.52,0,.545.025.545.533q0,3.9,0,7.794c0,.551-.022.571-.592.571q-3.857,0-7.714,0c-.577,0-.592-.017-.592-.611q0-3.837,0-7.675c0-.08.006-.159,0-.239-.008-.272.13-.377.391-.374s.5.009.755-.007c.468-.03.64-.172.786-.638,0-.029,0-.056,0-.083-.023-.008-.047-.015-.07-.024-.145.521-.276.623-.806.626-.278,0-.558.018-.835,0s-.358.05-.357.34q.018,4.236,0,8.473c0,.275.063.352.346.351q4.236-.017,8.473,0c.283,0,.347-.076.346-.351q-.016-4.236,0-8.473c0-.29-.089-.343-.357-.341-1.578.013-3.156.008-4.733.005-.487,0-.657-.147-.752-.627h0c-.026.01-.051.018-.077.027" transform="translate(-10.144 -4.765)" fill="#4fb0f4"/>
      <path id="Trazado_174620" data-name="Trazado 174620" d="M31.989,5.359c0-.009,0-.018,0-.027H30.809c0,.008,0,.016,0,.024a1.739,1.739,0,0,0,1.18,0" transform="translate(-27.537 -4.766)" fill="#4fb0f4"/>
      <path id="Trazado_174621" data-name="Trazado 174621" d="M30.227,5.346h-.069c.023.009.047.016.07.024,0-.008,0-.016,0-.024" transform="translate(-26.955 -4.778)" fill="#4fb0f4"/>
      <path id="Trazado_174622" data-name="Trazado 174622" d="M41.923,5.358c.026-.009.051-.017.077-.027h-.077c0,.009,0,.018,0,.027" transform="translate(-37.47 -4.765)" fill="#4fb0f4"/>
      <path id="Trazado_174626" data-name="Trazado 174626" d="M293.645,295.25c-2.161-.027-4.323,0-6.485-.011-.651,0-.652,0-.652-.668q0-3.76,0-7.52c0-.706,0-.705.691-.707,2.162-.006,4.324.014,6.485-.011h.016v-.106q-3.538-.006-7.075-.016c-.189,0-.256.055-.249.247.013.357,0,.715,0,1.073q0,3.737,0,7.473c0,.2-.044.373.285.371,2.345-.02,4.69-.016,7.035-.021v-.105h-.055" transform="translate(-255.96 -255.814)" fill="#fe2c5c"/>
      <path id="Trazado_174630" data-name="Trazado 174630" d="M356.552,286.313c.458.006.483.033.49.505,0,.106,0,.212,0,.318,0,1.364-.007,2.729,0,4.094,0,.6.19.807.741.871h0c.009-.021.016-.042.025-.064h0c-.505-.083-.646-.246-.647-.765,0-1.587-.006-3.174.005-4.761,0-.261-.072-.341-.331-.329-.5.022-1,.014-1.506.018a.4.4,0,0,1,.075.107c.381.011.761,0,1.141.005" transform="translate(-317.596 -255.787)" fill="#e52753"/>
      <path id="Trazado_174631" data-name="Trazado 174631" d="M357.772,352.814c-.017,0-.033,0-.051,0a.739.739,0,0,0-.663.762,8.141,8.141,0,0,0-.008.832c.007.274-.118.375-.383.372q-.629-.008-1.257,0a.406.406,0,0,1-.074.106c.526,0,1.052,0,1.577.017.219.007.266-.081.258-.276-.012-.328-.006-.657,0-.986,0-.478.142-.638.631-.743h0c-.01-.026-.018-.052-.027-.078" transform="translate(-317.597 -315.34)" fill="#e52753"/>
      <path id="Trazado_174632" data-name="Trazado 174632" d="M377.425,343.059l.028,0q.007-.582.014-1.164l-.025,0a1.591,1.591,0,0,0-.017,1.161" transform="translate(-337.25 -305.585)" fill="#e52753"/>
      <path id="Trazado_174633" data-name="Trazado 174633" d="M378.438,341.38l.025,0c0-.021,0-.041,0-.062h0c-.01.021-.017.042-.025.064" transform="translate(-338.245 -305.066)" fill="#e52753"/>
      <path id="Trazado_174634" data-name="Trazado 174634" d="M378.275,352.841c.009.026.017.052.027.078h0c0-.026,0-.051,0-.077l-.028,0" transform="translate(-338.1 -315.367)" fill="#e52753"/>
      <path id="Trazado_174635" data-name="Trazado 174635" d="M355.464,295.85q.005-4.038,0-8.077a.936.936,0,0,0-.054-.418l-.075,0v8.917h.074a.929.929,0,0,0,.055-.42" transform="translate(-317.596 -256.834)" fill="#e52753"/>
      <path id="Trazado_174636" data-name="Trazado 174636" d="M355.335,371.305v.105a.409.409,0,0,0,.074-.106h-.074" transform="translate(-317.596 -331.87)" fill="#e52753"/>
      <path id="Trazado_174637" data-name="Trazado 174637" d="M355.411,286.465a.406.406,0,0,0-.075-.107v.106l.075,0" transform="translate(-317.597 -255.945)" fill="#e52753"/>
      <path id="Trazado_174640" data-name="Trazado 174640" d="M356.215,19.968q.005-4.037,0-8.075a.674.674,0,0,0-.129-.525v9.125a.674.674,0,0,0,.129-.525" transform="translate(-318.267 -10.161)" fill="#febc54"/>
      <path id="Trazado_174643" data-name="Trazado 174643" d="M317.705,101.616c.371-.064.817.228,1.107-.22a.533.533,0,0,0,.028-.113h0a.338.338,0,0,1-.364.225,5.673,5.673,0,0,0-.833,0,.339.339,0,0,1-.364-.226.327.327,0,0,0,.424.334" transform="translate(-283.584 -90.525)" fill="#fe933d"/>
      <path id="Trazado_174648" data-name="Trazado 174648" d="M126.154,55.918a.861.861,0,0,0,.119-.531q0-1.325,0-2.65a.871.871,0,0,0-.119-.531v3.711" transform="translate(-112.756 -46.662)" fill="#3d99da"/>
      <path id="Trazado_174650" data-name="Trazado 174650" d="M126.2,301.343q0-1.422,0-2.843a1.316,1.316,0,0,0-.02-.247q0,1.671,0,3.342a1.307,1.307,0,0,0,.021-.251" transform="translate(-112.777 -266.576)" fill="#50475e"/>
      <path id="Trazado_174652" data-name="Trazado 174652" d="M125.4,276.216a1.711,1.711,0,0,0,.079-1.043c-.01-.09-.047-.184-.172-.177.184.4.02.817.093,1.221" transform="translate(-112.003 -245.789)" fill="#4f465d"/>
      <path id="Trazado_174654" data-name="Trazado 174654" d="M124.36,98.576c.16.027.221-.091.245-.2a1.123,1.123,0,0,0-.065-.919c-.064.373.157.792-.18,1.121" transform="translate(-111.152 -87.105)" fill="#3d99da"/>
      <path id="Trazado_174656" data-name="Trazado 174656" d="M126.052,24.816l.011,1.846a3.016,3.016,0,0,0-.011-1.846" transform="translate(-112.664 -22.18)" fill="#3c98d9"/>
      <path id="Trazado_174658" data-name="Trazado 174658" d="M126.083,341.437h0q-.006.929-.013,1.857a3.107,3.107,0,0,0,.013-1.857" transform="translate(-112.68 -305.174)" fill="#50475e"/>
      <path id="Trazado_174659" data-name="Trazado 174659" d="M125.335,331.006l.09-.066a.2.2,0,0,1-.034-.052.709.709,0,0,1-.055.118" transform="translate(-112.024 -295.745)" fill="#7d665e"/>
      <path id="Trazado_174660" data-name="Trazado 174660" d="M125.427,295.994l-.09-.067a.724.724,0,0,1,.055.119.2.2,0,0,1,.035-.052" transform="translate(-112.025 -264.497)" fill="#7d665e"/>
      <path id="Trazado_174661" data-name="Trazado 174661" d="M125.335,299.758h0a.711.711,0,0,0,.056-.118.58.58,0,0,1-.016-.251q0-1.546,0-3.093a.577.577,0,0,1,.015-.251.722.722,0,0,0-.055-.119q0,1.916,0,3.831" transform="translate(-112.024 -264.497)" fill="#7d665e"/>
      <path id="Trazado_174662" data-name="Trazado 174662" d="M125.891,329.717a.808.808,0,0,1-.034.124.2.2,0,0,0,.034.052v-.176" transform="translate(-112.49 -294.699)" fill="#7d665e"/>
      <path id="Trazado_174663" data-name="Trazado 174663" d="M125.892,296.735v-.18a.2.2,0,0,0-.035.052.832.832,0,0,1,.035.128" transform="translate(-112.49 -265.059)" fill="#7d665e"/>
      <path id="Trazado_174664" data-name="Trazado 174664" d="M125.71,297.174a.834.834,0,0,0-.035-.128.578.578,0,0,0-.015.251q0,1.546,0,3.092a.579.579,0,0,0,.016.251.822.822,0,0,0,.034-.124q0-1.671,0-3.342" transform="translate(-112.309 -265.498)" fill="#7d665e"/>
    </g>
  </g>
</svg>
