<svg id="Grupo_949306" data-name="Grupo 949306" xmlns="http://www.w3.org/2000/svg" xmlns:xlink="http://www.w3.org/1999/xlink" width="87.339" height="87.338" viewBox="0 0 87.339 87.338">
  <defs>
    <radialGradient id="radial-gradient" cx="0.076" cy="0.019" r="1.465" gradientTransform="translate(0.001)" gradientUnits="objectBoundingBox">
      <stop offset="0" stop-color="#f6f6f7"/>
      <stop offset="0.477" stop-color="#f9f9fa"/>
      <stop offset="0.715" stop-color="#fff"/>
    </radialGradient>
    <clipPath id="clip-path">
      <rect id="Rectángulo_66252" data-name="Rectángulo 66252" width="45" height="45" transform="translate(0 -0.191)" fill="none"/>
    </clipPath>
  </defs>
  <g id="Grupo_18423" data-name="Grupo 18423" transform="translate(0 0)">
    <g id="Grupo_18421" data-name="Grupo 18421">
      <g id="Grupo_18420" data-name="Grupo 18420">
        <g id="Grupo_18419" data-name="Grupo 18419">
          <path id="Trazado_40936" data-name="Trazado 40936" d="M281.962,2189.389a43.669,43.669,0,1,1-43.669-43.668A43.669,43.669,0,0,1,281.962,2189.389Z" transform="translate(-194.623 -2145.721)" fill="#fff"/>
        </g>
      </g>
    </g>
    <path id="Trazado_40937" data-name="Trazado 40937" d="M281.7,2189.1a43.669,43.669,0,1,0-43.669,43.67A43.5,43.5,0,0,0,281.7,2189.1Z" transform="translate(-194.361 -2145.436)" fill="url(#radial-gradient)"/>
    <path id="Trazado_40938" data-name="Trazado 40938" d="M269.1,2186.859a33.332,33.332,0,1,0-33.333,33.333A33.209,33.209,0,0,0,269.1,2186.859Z" transform="translate(-191.968 -2143.046)" fill="none" stroke="#12263f" stroke-miterlimit="10" stroke-width="4"/>
    <g id="Grupo_18422" data-name="Grupo 18422" transform="translate(7.736 24.517)">
      <path id="Trazado_40939" data-name="Trazado 40939" d="M275.732,2164.488a43.675,43.675,0,0,1-75.187,43.488,43.536,43.536,0,0,0,75.187-43.488Z" transform="translate(-200.545 -2164.488)" fill="#eceef0"/>
    </g>
  </g>
  <g id="Grupo_151143" data-name="Grupo 151143" transform="translate(22.72 21.192)">
    <g id="Grupo_151142" data-name="Grupo 151142" transform="translate(0 -0.043)" clip-path="url(#clip-path)">
      <path id="Trazado_174568" data-name="Trazado 174568" d="M214.119,168.21h0l0,.008.022-.025Z" transform="translate(-189.089 -148.496)"/>
      <path id="Trazado_174569" data-name="Trazado 174569" d="M19.46.987a3.17,3.17,0,0,0-.725,1.467.4.4,0,0,1-.3.361Q13.219,4.644,8.006,6.5a.505.505,0,0,1-.482-.058,2.964,2.964,0,0,0-3.412,4.832.444.444,0,0,1,.194.471q-.8,5.773-1.58,11.55c-.01.072-.02.145-.023.217A1.346,1.346,0,0,1,1.7,25,2.78,2.78,0,0,0,.09,28.34a2.953,2.953,0,0,0,3.035,2.244.5.5,0,0,1,.605.363Q5.17,34.384,6.655,37.8a.636.636,0,0,1-.085.768,2.955,2.955,0,0,0,4.667,3.622.628.628,0,0,1,.608-.3q3.7.283,7.411.529a.318.318,0,0,1,.32.279,2.956,2.956,0,0,0,5.742-.43.4.4,0,0,1,.335-.372q5.04-1.311,10.072-2.647c.287-.077.373.012.489.234a2.958,2.958,0,0,0,5.526-.877,2.916,2.916,0,0,0-1.485-3.129.351.351,0,0,1-.21-.5c.76-2.611,1.5-5.228,2.247-7.843.046-.163.058-.323.284-.387a2.921,2.921,0,0,0,2.1-2.129c.017-.057.03-.111.1-.127V23.355c-.132-.312-.241-.637-.4-.934a2.685,2.685,0,0,0-1.524-1.3.5.5,0,0,1-.4-.518q-.223-2.567-.473-5.132a.565.565,0,0,1,.271-.538,2.977,2.977,0,0,0,.838-3.3,3.018,3.018,0,0,0-2.766-1.924,2.666,2.666,0,0,0-1.222.275.585.585,0,0,1-.57-.01Q31.71,6.838,24.882,3.711c-.175-.08-.327-.132-.29-.4A2.9,2.9,0,0,0,22.2.081c-.03,0-.054-.053-.081-.081h-.962a3.925,3.925,0,0,0-1.7.987m.791,4.832c.088-.115.176-.153.288-.06.164.137.508-.008.536.336.086,1.06.164,2.12.255,3.179.018.216-.066.225-.249.206-1.1-.11-2.2-.206-3.391-.314.888-1.158,1.728-2.251,2.563-3.348m12.787,17.9c-.949,1.53-1.909,3.053-2.847,4.589-.174.286-.276.339-.525.079-.381-.4-.793-.77-1.206-1.137-.168-.149-.216-.25-.063-.456a6.991,6.991,0,0,0,1.363-3.346c.034-.277.146-.332.424-.3.993.1,1.99.164,2.981.241.031.158-.069.241-.127.335m1.772-.022a.3.3,0,0,1,.318-.16c1.146.1,2.293.184,3.44.277.111.009.233,0,.261.165.034.2-.108.247-.236.311l-4.285,2.139-1.592.8-.063-.049q1.08-1.739,2.157-3.48m-28.9,4.482a2.293,2.293,0,0,0,.019-1,.248.248,0,0,1,.2-.319q4.361-1.445,8.72-2.9l.16-.05c.135-.031.106.111.127.2a7.466,7.466,0,0,0,1.455,2.945c.122.15.075.245-.023.375q-2.074,2.757-4.136,5.523c-.13.174-.207.218-.4.072Q9.058,30.8,6.067,28.607a.337.337,0,0,1-.156-.432m-.617-2.618a.925.925,0,0,1-.17,0l2.021-2.635q2.748-3.585,5.488-7.175c.2-.262.308-.277.562-.072Q14.6,16.815,16.053,17.9c.216.164.216.265.076.482a7.368,7.368,0,0,0-1.175,3.691c-.008.178-.039.284-.235.348Q10,23.983,5.294,25.557m8.314,8.31q2.027-2.684,4.032-5.384c.152-.2.252-.159.415-.041a7.257,7.257,0,0,0,4.89,1.388,7.064,7.064,0,0,0,3.935-1.495c.257-.2.394-.186.605.038.307.326.649.619,1.012.96-4.225,2.112-8.381,4.188-12.533,6.269a.384.384,0,0,1-.472-.023q-.9-.692-1.825-1.351c-.166-.118-.191-.189-.06-.362M27.365,25.7A5.977,5.977,0,0,1,18.3,26.725a1.108,1.108,0,0,1-.1-.135h0a5.91,5.91,0,0,1-.774-7.481,5.982,5.982,0,0,1,9.065-1.059,1.127,1.127,0,0,1,.105.136,5.929,5.929,0,0,1,.776,7.516M21.51,15a7.3,7.3,0,0,0-4.06,1.839c-.144.129-.226.1-.36-.009q-1.543-1.214-3.1-2.41c-.163-.125-.181-.2-.048-.375q1.26-1.617,2.495-3.254a.406.406,0,0,1,.461-.194c1.426.135,2.83.275,4.237.394.256.022.346.1.362.358q.11,1.677.258,3.351c.019.213-.045.275-.244.3M9.094,7.708q4.722-1.679,9.451-3.339c.156-.055.327-.229.495.017a.441.441,0,0,1-.031.609c-.969,1.237-1.918,2.489-2.874,3.736-.113.148-.2.337-.471.245-2.149-.2-4.321-.4-6.5-.585-.308-.026-.346-.224-.39-.429-.055-.256.195-.211.316-.254m-.364,2.34c.069-.19.189-.186.342-.172q2.173.2,4.347.4c.449.041.9.087,1.423.139-.739.967-1.429,1.864-2.11,2.767-.117.155-.2.1-.316.013q-1.789-1.4-3.584-2.784a.264.264,0,0,1-.1-.361M6,7.479a1.487,1.487,0,1,1-1.5,1.494A1.485,1.485,0,0,1,6,7.479m-.887,9.47c.214-1.571.435-3.142.64-4.714.027-.207.067-.292.3-.295A2.629,2.629,0,0,0,7.5,11.516a.285.285,0,0,1,.387.037q1.807,1.41,3.62,2.812c.137.106.179.186.053.349Q7.868,19.5,4.19,24.3c-.007.009-.025.01-.084.03.337-2.482.669-4.933,1-7.383M2.985,29.113A1.523,1.523,0,0,1,1.5,27.631a1.492,1.492,0,0,1,1.505-1.49,1.456,1.456,0,0,1,1.466,1.513,1.485,1.485,0,0,1-1.489,1.46m2.048,1.1c-.069-.16-.237-.346.083-.453.062.045.132.094.2.145q2.9,2.141,5.8,4.279c.194.143.228.233.071.435-.641.829-1.275,1.663-1.886,2.515-.223.311-.539.12-.785.229-.424.189-.471-.12-.585-.387Q6.485,33.6,5.034,30.217M8.965,41.8A1.484,1.484,0,0,1,7.49,40.324a1.454,1.454,0,0,1,1.481-1.5,1.489,1.489,0,0,1,1.49,1.46,1.52,1.52,0,0,1-1.5,1.512m2.186-3.79a.305.305,0,0,1-.414-.1c-.149-.157.036-.234.1-.319.507-.693,1.03-1.374,1.535-2.068.134-.184.228-.255.438-.087.43.345.882.664,1.389,1.04-1.058.53-2.056,1.023-3.045,1.532m8.486,2.737c-.1.275-.289.168-.43.181-2.352-.171-4.676-.342-7-.5-.174-.012-.237-.053-.268-.239-.14-.827-.149-.825.607-1.2.9-.449,1.794-.891,2.682-1.354a.5.5,0,0,1,.621.058c1.173.886,2.361,1.753,3.54,2.632.135.1.348.15.247.43m2.756,2.544a1.513,1.513,0,0,1-1.487-1.465,1.487,1.487,0,0,1,1.476-1.508,1.467,1.467,0,0,1,1.5,1.475,1.492,1.492,0,0,1-1.487,1.5M23.731,38.7c-.155.251-.275.322-.576.233a2.777,2.777,0,0,0-2.268.305c-.121.071-.212.173-.381.046-1.126-.846-2.26-1.68-3.449-2.56L28.4,31.056c.019.166-.079.243-.137.335-1.51,2.435-3.027,4.866-4.528,7.307m12.4-1.814c-.137.723-.613.907-1.243,1.067-3.169.8-6.328,1.645-9.489,2.477-.171.045-.33.133-.437-.1-.089-.2-.3-.329-.116-.614q2.678-4.264,5.328-8.545a1.51,1.51,0,0,1,.126-.15l3.417,3.2c.755.707,1.5,1.42,2.266,2.119a.485.485,0,0,1,.148.548m4.179,1.184a1.488,1.488,0,0,1-1.517,1.478,1.463,1.463,0,0,1-1.456-1.483,1.489,1.489,0,0,1,1.5-1.49,1.518,1.518,0,0,1,1.47,1.5m.479-11.11q-1.145,3.952-2.258,7.914a.351.351,0,0,1-.352.308.652.652,0,0,0-.335.087c-.437.323-.718.117-1.057-.206-1.8-1.72-3.625-3.415-5.444-5.116a2.117,2.117,0,0,0-.325-.2l4.124-2.063C36.428,27.042,37.717,26.4,39,25.75c.237-.121.388-.151.576.1a2.293,2.293,0,0,0,1.048.756c.18.068.222.145.162.353m2.5-3.1a1.493,1.493,0,0,1-1.472,1.513,1.473,1.473,0,0,1-1.5-1.474A1.491,1.491,0,0,1,41.8,22.4a1.512,1.512,0,0,1,1.489,1.461m-3-12.653A1.51,1.51,0,0,1,41.8,12.692a1.491,1.491,0,0,1-1.5,1.486,1.47,1.47,0,0,1-1.475-1.5A1.489,1.489,0,0,1,40.291,11.2m-.672,4.739c.22-.365.492-.274.775-.269.177,0,.118.177.128.274.157,1.623.3,3.247.462,4.87.02.2-.078.249-.225.3A2.855,2.855,0,0,0,39.4,22.167c-.074.1-.137.213-.306.2-1.067-.094-2.136-.178-3.211-.267a.856.856,0,0,1,.211-.442c1.178-1.9,2.374-3.8,3.528-5.713m-1.5-1.267c.3.284.261.472.059.791-1.3,2.053-2.573,4.121-3.857,6.183-.1.167-.17.405-.418.293-1.258-.1-2.477-.223-3.7-.3-.349-.021-.429-.169-.463-.464a5.215,5.215,0,0,0-.5-1.707c-.152-.309-.125-.451.2-.62,2.425-1.257,4.839-2.537,7.256-3.81.283-.149.578-.278.846-.45.235-.151.36-.121.573.08m-.782-2c.043.287-.087.4-.316.524q-4.207,2.2-8.4,4.421c-.262.139-.4.147-.61-.1a7.18,7.18,0,0,0-4.434-2.472c-.187-.03-.314-.054-.33-.3-.069-1.046-.162-2.09-.251-3.186-.111-.349.079-.4.429-.368q4.477.433,8.955.844c1.507.14,3.016.267,4.522.419.143.014.389-.1.436.215M23.608,5.211a.5.5,0,0,1,.7-.123q6.01,2.777,12.03,5.532c.078.036.15.084.224.127a.752.752,0,0,1,.416.2,2.106,2.106,0,0,1-.8-.08c-1.841-.162-3.682-.32-5.522-.488-2.377-.217-4.752-.447-7.129-.66-.673-.06-.668-.043-.719-.694-.072-.929-.147-1.857-.235-2.785-.026-.271-.012-.464.308-.553a1.486,1.486,0,0,0,.724-.47M21.676,1.5A1.517,1.517,0,0,1,23.144,3a1.487,1.487,0,0,1-1.515,1.477,1.458,1.458,0,0,1-1.454-1.524,1.484,1.484,0,0,1,1.5-1.448" transform="translate(0 0.034)"/>
      <path id="Trazado_174570" data-name="Trazado 174570" d="M164.013,155.561a8.472,8.472,0,0,1-1.533,1.477l-.022.025a2.236,2.236,0,0,1-.1,2.535c-.113.158-.062.252.029.381a2.214,2.214,0,0,1-1.522,3.484c-.3.03-.311.208-.284.421.036.289-.075.4-.364.364a3.153,3.153,0,0,0-.568,0c-.363.024-.683.023-.574-.5.042-.2-.1-.237-.268-.234-.335.006-.67.005-1.005,0-.58-.008-.758-.134-.976-.683l-1.21,1.136h0a1.1,1.1,0,0,0,.1.135,5.952,5.952,0,0,0,8.292-8.54" transform="translate(-137.425 -137.342)" fill="#fea02e"/>
      <path id="Trazado_174571" data-name="Trazado 174571" d="M143.385,149.667a.2.2,0,0,1,.189-.06q.005-2.875.01-5.751c0-.76.262-1.023,1.018-1.03.219,0,.439-.016.655,0,.383.034.674-.006.57-.511-.035-.169.061-.231.227-.224a4.9,4.9,0,0,0,.655,0c.408-.039.728-.006.621.543-.035.18.1.216.243.23a2.288,2.288,0,0,1,1.629.988l.026-.018a8.924,8.924,0,0,1,1.533-1.477,1.124,1.124,0,0,0-.105-.136,5.982,5.982,0,0,0-9.065,1.059,5.91,5.91,0,0,0,.774,7.481,4.739,4.739,0,0,1,1.021-1.1" transform="translate(-124.172 -124.138)" fill="#fcb52f"/>
      <path id="Trazado_174572" data-name="Trazado 174572" d="M156.826,217.523a.2.2,0,0,0-.189.06,4.74,4.74,0,0,0-1.021,1.1l1.21-1.136v-.02" transform="translate(-137.425 -192.054)" fill="#fcb52f"/>
      <path id="Trazado_174573" data-name="Trazado 174573" d="M214.338,157.038a8.476,8.476,0,0,0,1.533-1.477,8.918,8.918,0,0,0-1.533,1.477" transform="translate(-189.282 -137.342)" fill="#fcb52f"/>
      <path id="Trazado_174574" data-name="Trazado 174574" d="M344.874,193.089a1.473,1.473,0,0,0,1.5,1.474,1.493,1.493,0,0,0,1.472-1.513,1.512,1.512,0,0,0-1.489-1.461,1.491,1.491,0,0,0-1.485,1.5" transform="translate(-304.558 -169.158)" fill="#86cdd8"/>
      <path id="Trazado_174575" data-name="Trazado 174575" d="M333.6,98.819a1.491,1.491,0,0,0,1.5-1.486,1.51,1.51,0,0,0-1.508-1.488,1.489,1.489,0,0,0-1.466,1.475,1.47,1.47,0,0,0,1.475,1.5" transform="translate(-293.295 -84.607)" fill="#86cdd8"/>
      <path id="Trazado_174576" data-name="Trazado 174576" d="M320.877,312.857a1.489,1.489,0,0,0-1.5,1.49,1.463,1.463,0,0,0,1.456,1.483,1.488,1.488,0,0,0,1.517-1.478,1.518,1.518,0,0,0-1.47-1.5" transform="translate(-282.039 -276.249)" fill="#4397d0"/>
      <path id="Trazado_174577" data-name="Trazado 174577" d="M180.3,344.883a1.487,1.487,0,0,0-1.476,1.508,1.513,1.513,0,0,0,1.487,1.465,1.492,1.492,0,0,0,1.487-1.5,1.466,1.466,0,0,0-1.5-1.475" transform="translate(-157.922 -304.532)" fill="#86cdd8"/>
      <path id="Trazado_174578" data-name="Trazado 174578" d="M174.027,15.816a1.487,1.487,0,0,0,1.515-1.477,1.516,1.516,0,0,0-1.468-1.5,1.484,1.484,0,0,0-1.5,1.448,1.458,1.458,0,0,0,1.454,1.524" transform="translate(-152.398 -11.309)" fill="#4397d0"/>
      <path id="Trazado_174579" data-name="Trazado 174579" d="M65.554,332.137a1.454,1.454,0,0,0-1.481,1.5,1.484,1.484,0,0,0,1.474,1.475,1.52,1.52,0,0,0,1.5-1.512,1.489,1.489,0,0,0-1.49-1.46" transform="translate(-56.582 -293.276)" fill="#4397d0"/>
      <path id="Trazado_174580" data-name="Trazado 174580" d="M14.363,223.619a1.492,1.492,0,0,0-1.505,1.49,1.523,1.523,0,0,0,1.482,1.483,1.485,1.485,0,0,0,1.489-1.46,1.456,1.456,0,0,0-1.466-1.513" transform="translate(-11.355 -197.443)" fill="#4397d0"/>
      <path id="Trazado_174581" data-name="Trazado 174581" d="M39.9,66.948a1.487,1.487,0,1,0-1.476-1.48,1.486,1.486,0,0,0,1.476,1.48" transform="translate(-33.93 -56.461)" fill="#86cdd8"/>
      <path id="Trazado_174582" data-name="Trazado 174582" d="M171.7,156.08a.358.358,0,0,1-.27-.124,2.257,2.257,0,0,0-1.351-.739.439.439,0,0,1-.356-.442c-.028-.239-.171-.313-.39-.312-.4,0-.836-.106-.93.5-.027.172-.245.182-.406.193-.29.02-.582,0-.873.016-.669.047-.909.294-.912.96-.006,1.688,0,3.376-.005,5.064,0,.22.052.458-.124.645a.2.2,0,0,1,.069.046,1.084,1.084,0,0,0,1.1.554c.217-.014.437,0,.655,0,.313-.009.549.068.569.439.01.177.126.25.294.256.189.007.379,0,.568,0,.218,0,.37-.065.39-.309.024-.3.224-.407.485-.478a2.093,2.093,0,0,0,1.391-3.168c-.093-.181-.236-.366-.1-.569a2.425,2.425,0,0,0,.139-2.453l.06-.07,0-.008Zm-2.99.477c.363,0,.728-.015,1.089.013a.724.724,0,0,1,.746.744.735.735,0,0,1-.767.724c-.029,0-.058,0-.087,0h-.872c-.334,0-.668-.007-1,0-.19.006-.268-.068-.245-.254a.287.287,0,0,0,0-.044c-.055-1.19-.055-1.19,1.138-1.189m1.12,4.462c-.681.037-1.366.015-2.048.021-.143,0-.221-.049-.21-.2,0-.029,0-.059,0-.087.05-.393-.2-.926.109-1.146.257-.186.756-.038,1.149-.038,0,0,0-.007,0-.01.32,0,.64-.013.959,0a.72.72,0,0,1,.756.687.707.707,0,0,1-.714.772" transform="translate(-146.665 -136.366)"/>
      <path id="Trazado_174583" data-name="Trazado 174583" d="M171.4,170.932c-.134.2.008.389.1.57a2.093,2.093,0,0,1-1.391,3.168c-.261.072-.462.179-.485.479-.019.244-.172.313-.39.309-.189,0-.379,0-.568,0-.168-.007-.284-.079-.294-.257-.02-.372-.256-.448-.569-.439-.218.006-.438-.011-.655,0a1.084,1.084,0,0,1-1.1-.554.207.207,0,0,0-.069-.046c0,.005-.008.011-.013.016.218.548.4.675.976.683.335,0,.67.006,1.005,0,.169,0,.31.031.267.234-.109.523.211.525.574.5a3.154,3.154,0,0,1,.568,0c.289.033.4-.075.364-.364-.027-.213-.016-.391.285-.421a2.214,2.214,0,0,0,1.522-3.484c-.091-.129-.142-.223-.029-.381a2.236,2.236,0,0,0,.1-2.535l-.06.07a2.425,2.425,0,0,1-.139,2.453" transform="translate(-146.566 -148.688)"/>
      <path id="Trazado_174584" data-name="Trazado 174584" d="M166.106,160.073c.006-1.688,0-3.376.005-5.064,0-.666.243-.913.912-.96.29-.02.582,0,.873-.017.161-.011.379-.021.406-.193.094-.6.532-.5.93-.5.219,0,.362.073.39.312a.439.439,0,0,0,.356.442,2.257,2.257,0,0,1,1.351.739.358.358,0,0,0,.27.124,2.288,2.288,0,0,0-1.629-.988c-.14-.014-.278-.051-.243-.23.107-.548-.213-.581-.621-.543a4.882,4.882,0,0,1-.655,0c-.166-.007-.261.055-.227.224.1.505-.187.545-.57.511-.217-.019-.437-.005-.655,0-.756.007-1.016.271-1.018,1.03q-.006,2.875-.01,5.751l.013,0c.176-.187.123-.425.124-.645" transform="translate(-146.567 -135.245)"/>
      <path id="Trazado_174585" data-name="Trazado 174585" d="M165.969,217.571v.02c.005-.005.008-.011.013-.016l-.013,0" transform="translate(-146.567 -192.103)"/>
      <path id="Trazado_174586" data-name="Trazado 174586" d="M180.664,197.742c-.319-.017-.639,0-.959,0v.01c-.392,0-.891-.148-1.149.038-.305.221-.059.753-.109,1.146,0,.029,0,.058,0,.087-.01.152.067.2.21.2.683-.007,1.367.016,2.048-.021a.707.707,0,0,0,.714-.772.72.72,0,0,0-.756-.687" transform="translate(-157.546 -174.549)" fill="#fda02e"/>
      <path id="Trazado_174587" data-name="Trazado 174587" d="M178.67,173.626c-.022.186.056.259.245.254.334-.01.668,0,1,0h.871c.029,0,.058,0,.087,0a.735.735,0,0,0,.767-.724.724.724,0,0,0-.746-.744c-.361-.027-.726-.013-1.089-.013-1.193,0-1.193,0-1.138,1.189a.259.259,0,0,1,0,.043" transform="translate(-157.768 -152.203)" fill="#fbb42f"/>
    </g>
  </g>
</svg>
