<svg xmlns="http://www.w3.org/2000/svg" width="101" height="101" viewBox="0 0 101 101"><g transform="translate(-225 -4964)"><g transform="translate(225 4964)"><rect width="101" height="101" fill="none"/><g transform="translate(7.202 7.175)"><path d="M868.57-1.122q-17.269,0-34.539-.008a8.4,8.4,0,0,1-8.6-6.911c-.618-3.242,1.036-6.141,4.144-6.828,1.229-.272,1.34-.78,1.337-1.83q-.05-20.148-.021-40.3c0-5.786,2.588-8.344,8.431-8.346,3.489,0,6.978-.044,10.466.024a2.424,2.424,0,0,0,2.474-1.357c3.431-5.793,6.956-11.53,10.466-17.275,3.077-5.037,8.645-5.022,11.727.028,3.507,5.747,7.022,11.49,10.473,17.271a2.287,2.287,0,0,0,2.31,1.342c3.836-.088,7.675-.045,11.512-.029,4.627.02,7.514,2.885,7.519,7.5q.022,20.5-.019,40.993c0,1.205.215,1.749,1.538,2.041a5.3,5.3,0,0,1,4.063,5.4,8.352,8.352,0,0,1-8.573,8.26c-11.106.034-22.211.012-33.318.012Zm-1.838-83.122a2.208,2.208,0,0,0-1.234,1.164Q856.79-68.81,848.115-54.52c-1.01,1.669-.247,3.116,1.665,3.118,11.735.014,23.47-.024,35.205-.045.521.022,1.042.054,1.563.064,1.048.019,2.13.122,2.743-1.032.574-1.08-.093-1.888-.6-2.723q-2.527-4.168-5.069-8.328-5.883-9.667-11.771-19.329C870.522-84.965,868.894-85.387,866.732-84.244ZM839.338-24.859a20.139,20.139,0,0,1-.082,2.434c-.22,1.469.339,1.8,1.782,1.792q27.559-.081,55.12,0c1.477,0,1.789-.386,1.78-1.813-.069-9.71-.036-19.42-.036-29.13,0-1.454,0-2.907,0-4.361,0-.53.076-1.049-.749-1.036-2.006.033-4.013.01-6.292.01,1.834,2.565,1.978,4.913.016,7.182a6.721,6.721,0,0,1-4.256,1.212c-11.975-.034-23.955-.187-35.925.063-4.879.1-7.542-4.39-4.671-8.035.053-.067.007-.213.007-.357h-6.416q-.358-.084-.275.274Q839.339-40.74,839.338-24.859ZM868.4-3.924q17.265,0,34.53,0c2.822,0,4.787-1.234,5.7-3.5,1.166-2.9-.12-4.848-3.229-4.854-6.743-.012-13.5.21-20.226-.094-3.418-.154-5.634.616-6.553,4.076-.324,1.218-1.228,1.648-2.529,1.623a102.049,102.049,0,0,0-11.328.049c-3.9.361-6.649-.53-7.706-4.621A1.371,1.371,0,0,0,855.5-12.3c-8.138.033-16.277,0-24.415.043a2.842,2.842,0,0,0-2.9,3.65c.522,2.91,2.758,4.678,6.025,4.682Q851.31-3.909,868.4-3.924Zm19.31-58.565c.663,1.834,1.407,3.007,3.611,2.787,2.475-.247,4.995-.039,7.495-.063,1.321-.013,1.891.6,1.889,1.909q-.019,19.013,0,38.027c0,1.418-.629,1.968-2.014,1.967q-30.09-.023-60.179,0c-1.5,0-2.057-.639-2.054-2.107q.038-18.839,0-37.678c0-1.6.673-2.169,2.211-2.131,2.557.063,5.12-.064,7.673.05a2.483,2.483,0,0,0,2.6-1.5c.536-.985.643-1.371-.723-1.342-3.312.071-6.628,0-9.942.03-2.9.023-4.573,1.657-4.577,4.538-.019,13.838.005,27.677-.038,41.515,0,1.2.415,1.418,1.5,1.416q33.4-.041,66.807.007c1.237,0,1.549-.347,1.539-1.558-.055-7.268-.027-14.536-.027-21.8,0-6.512.011-13.024-.009-19.537-.007-2.449-1.349-4.388-3.5-4.48C895.941-62.612,891.892-62.489,887.71-62.489ZM868.472-9.506c2.267,0,4.533.011,6.8,0,1.443-.01,1.675-1.35,1.792-2.2.152-1.114-1.02-.475-1.565-.538a28.93,28.93,0,0,0-3.308-.037c-3.661,0-7.323-.015-10.983.021-.408,0-1.148-.384-1.186.511a2.559,2.559,0,0,0,2.35,2.247C864.4-9.5,866.438-9.5,868.472-9.506Z" transform="translate(-825.307 87.717)" fill="#040303"/><path d="M865.766.549h6.416c0,.144.046.29-.007.357-2.871,3.645-.208,8.137,4.671,8.035,11.97-.25,23.949-.1,35.925-.063a6.721,6.721,0,0,0,4.256-1.212q.021,6.147.043,12.293c-2.379.021-4.761.122-7.136.03-1.213-.047-1.266.493-1.266,1.432s.053,1.479,1.266,1.432c2.375-.091,4.757.009,7.136.03v2.66c-2.379.021-4.761.122-7.136.03-1.213-.047-1.266.493-1.266,1.432s.053,1.479,1.266,1.432c2.375-.092,4.757.009,7.136.03v2.66c-2.342.021-4.688.123-7.026.029-1.177-.047-1.488.412-1.413,1.43h-2.659c.1-1.075-.3-1.615-1.452-1.4s-1.443-.274-1.43-1.406c.06-5.286.021-10.574.032-15.861,0-.893.063-1.828-.982-2.183-1.078-.367-1.558.487-2.065,1.2-1.816,2.537-3.625,5.078-5.651,7.918-1.021-1.139-1.873-2.168-2.806-3.117-2.446-2.487-2.46-2.473-4.866-.069-.37.369-.736.743-1.11,1.108-1.162,1.133-2.209,2.984-3.523,3.2-1.442.237-2.75-1.609-4.046-2.627a2.042,2.042,0,0,0-3.051.125c-1.213,1.084-2.537,2.043-4.012,3.215,0-3.887-.036-7.373.021-10.858.018-1.085-.068-1.632-1.43-1.638-1.4-.006-1.408.612-1.406,1.66.014,6.912-.024,13.824-.045,20.736h-2.661q0-15.881,0-31.762Z" transform="translate(-851.457 30.273)" fill="#f0f0f0"/><path d="M873.652,136.462q-17.091,0-34.181-.005c-3.267,0-5.5-1.772-6.025-4.682a2.842,2.842,0,0,1,2.9-3.65c8.138-.047,16.277-.009,24.415-.043a1.37,1.37,0,0,1,1.553,1.057c1.057,4.091,3.8,4.982,7.706,4.62a102.05,102.05,0,0,1,11.328-.049c1.3.025,2.206-.405,2.529-1.623.919-3.46,3.134-4.23,6.553-4.076,6.73.3,13.482.082,20.226.094,3.109.006,4.394,1.957,3.229,4.854-.911,2.264-2.876,3.5-5.7,3.5Q890.917,136.473,873.652,136.462Z" transform="translate(-830.558 -52.669)" fill="#676767"/><path d="M926.659-44.974c-11.735.021-23.47.058-35.205.045-1.912,0-2.675-1.449-1.665-3.118q8.659-14.3,17.383-28.561a2.207,2.207,0,0,1,1.234-1.164c1.651,2.084,3.28,4.181,3.96,6.828-3.885-1.29-6.529.617-6.245,4.7.205,2.946.69,5.877,1.141,8.8a3,3,0,0,0,3.065,2.756,3.04,3.04,0,0,0,2.961-2.883c.455-3.1.818-6.212,1.22-9.319,1-.124,1.266.724,1.632,1.322,3.055,4.991,6.032,10.031,9.124,15C926.356-48.817,927.525-47.175,926.659-44.974Zm-13.6-5.509a2.789,2.789,0,0,0-2.7-2.8,2.778,2.778,0,0,0-2.889,2.783,2.794,2.794,0,0,0,2.873,2.8A2.79,2.79,0,0,0,913.056-50.483Z" transform="translate(-866.981 81.245)" fill="#ff5422"/><path d="M903.287-15.616c4.182,0,8.231-.124,12.267.05,2.148.093,3.49,2.032,3.5,4.48.02,6.512.008,13.025.009,19.537,0,7.268-.028,14.537.027,21.8.009,1.21-.3,1.56-1.54,1.558q-33.4-.057-66.807-.007c-1.084,0-1.5-.215-1.5-1.416.043-13.838.019-27.677.038-41.515,0-2.882,1.676-4.515,4.577-4.538,3.314-.027,6.629.041,9.942-.03,1.366-.029,1.258.357.723,1.342a2.483,2.483,0,0,1-2.6,1.5c-2.553-.114-5.116.012-7.673-.05-1.538-.038-2.215.527-2.211,2.131q.05,18.839,0,37.678c0,1.468.55,2.109,2.054,2.107q30.089-.03,60.179,0c1.385,0,2.016-.549,2.014-1.967q-.028-19.014,0-38.027c0-1.313-.568-1.921-1.89-1.909-2.5.024-5.019-.184-7.495.063C904.693-12.61,903.95-13.783,903.287-15.616Z" transform="translate(-840.883 40.845)" fill="#909090"/><path d="M916.83,19.816l-.043-12.293c1.961-2.269,1.818-4.617-.016-7.182,2.279,0,4.286.022,6.292-.01.826-.014.75.506.749,1.036,0,1.453,0,2.907,0,4.361,0,9.71-.032,19.421.036,29.13.01,1.427-.3,1.818-1.779,1.813q-27.56-.086-55.12,0c-1.443,0-2-.323-1.782-1.792a20.176,20.176,0,0,0,.082-2.434h2.661c.235,1.258,1.117,1.414,2.21,1.412q17.08-.03,34.161.017c1.155.005,1.548-.362,1.452-1.43h2.659c-.095,1.066.29,1.466,1.452,1.432,3.192-.091,6.388-.064,9.582-.013,1.053.016,1.663-.014,1.659-1.41,0-1.372-.569-1.5-1.646-1.421-.864.061-1.738-.026-2.607-.048v-2.66c.869-.021,1.741-.107,2.6-.048,1.068.073,1.649-.035,1.649-1.414s-.581-1.487-1.649-1.414c-.863.059-1.735-.027-2.6-.048v-2.66c.869-.022,1.741-.107,2.6-.048,1.068.073,1.649-.035,1.649-1.414s-.581-1.487-1.649-1.414C918.572,19.924,917.7,19.838,916.83,19.816Z" transform="translate(-851.218 30.415)" fill="#dfe4f1"/><path d="M962.19-46.124c.866-2.2-.3-3.843-1.4-5.6-3.092-4.968-6.069-10.007-9.124-15-.366-.6-.634-1.446-1.632-1.322a4.87,4.87,0,0,0-2.142-4.051c-.68-2.647-2.309-4.744-3.96-6.828,2.163-1.143,3.79-.72,5.12,1.45q5.914,9.647,11.771,19.329,2.534,4.164,5.069,8.328c.506.835,1.173,1.643.6,2.723-.613,1.153-1.7,1.05-2.743,1.032C963.232-46.07,962.711-46.1,962.19-46.124Z" transform="translate(-902.512 82.395)" fill="#ff5422"/><path d="M933.167,130.913c-2.034,0-4.068.009-6.1,0a2.559,2.559,0,0,1-2.35-2.247c.038-.895.778-.507,1.186-.511,3.661-.036,7.322-.021,10.984-.021a28.923,28.923,0,0,1,3.308.037c.545.063,1.717-.577,1.565.538-.116.851-.348,2.192-1.792,2.2C937.7,130.923,935.433,130.912,933.167,130.913Z" transform="translate(-890.002 -52.701)" fill="#454545"/><path d="M865.741.519l-.275.274Q865.384.436,865.741.519Z" transform="translate(-851.433 30.303)" fill="#dfe4f1"/><path d="M910.93,50.554c.1,1.068-.3,1.435-1.452,1.43q-17.081-.074-34.161-.017c-1.093,0-1.975-.154-2.21-1.412.021-6.912.059-13.824.045-20.736,0-1.048.005-1.666,1.405-1.66,1.363.006,1.448.554,1.43,1.638-.056,3.485-.021,6.971-.021,10.858,1.475-1.172,2.8-2.131,4.011-3.215a2.042,2.042,0,0,1,3.052-.125c1.295,1.018,2.6,2.864,4.046,2.627,1.315-.216,2.361-2.067,3.523-3.2.374-.365.741-.739,1.111-1.108,2.406-2.4,2.42-2.418,4.865.069.933.949,1.786,1.978,2.806,3.117,2.026-2.839,3.836-5.381,5.651-7.918.507-.709.988-1.563,2.065-1.2,1.044.355.983,1.291.982,2.184-.01,5.287.028,10.574-.032,15.861-.013,1.132.285,1.623,1.43,1.406S911.032,49.479,910.93,50.554Zm-17.792-1.4c1.436,0,2.6-.054,3.762.016,1,.061,1.484-.157,1.423-1.314-.1-1.856-.045-3.722-.017-5.583a1.9,1.9,0,0,0-.614-1.542c-.974-.917-1.937-1.85-2.831-2.842-.589-.654-.973-.553-1.529.037-1.237,1.311-2.5,2.6-3.828,3.82a2.7,2.7,0,0,0-.982,2.442c.156,1.6-.681,3.67.345,4.692C889.812,49.825,891.856,49.044,893.138,49.158Zm-12.391,0h.522c4.476,0,4.454,0,4.478-4.52a2.832,2.832,0,0,0-1.161-2.669c-3.036-2.207-3-2.254-5.968.169-.359.293-.725.577-1.089.864-1.371,1.079-2.3,3.966-1.471,5.574.691,1.335,2.193.317,3.3.566A6.474,6.474,0,0,0,880.746,49.155Zm24.532-13.521c-3.02,3.21-4.812,6.451-4.252,10.795.359,2.78.067,2.777,2.969,2.753.944-.008,1.321-.206,1.306-1.242C905.244,43.939,905.278,39.937,905.278,35.634Z" transform="translate(-856.416 12.305)" fill="#030304"/><path d="M997.546,56.134c.868.021,1.741.107,2.6.048,1.068-.073,1.649.035,1.649,1.414s-.581,1.487-1.649,1.414c-.863-.059-1.736.027-2.6.048-2.379-.021-4.761-.122-7.136-.03-1.213.047-1.267-.493-1.267-1.432s.053-1.479,1.267-1.432C992.785,56.256,995.167,56.155,997.546,56.134Z" transform="translate(-931.933 -5.902)" fill="#040404"/><path d="M997.546,72.125c.868.021,1.741.107,2.6.048,1.068-.073,1.649.035,1.649,1.414s-.581,1.487-1.649,1.414c-.863-.059-1.736.027-2.6.048-2.379-.021-4.761-.122-7.136-.03-1.213.047-1.267-.493-1.267-1.432s.053-1.479,1.267-1.432C992.785,72.247,995.167,72.146,997.546,72.125Z" transform="translate(-931.933 -16.309)" fill="#040404"/><path d="M997.452,88.116c.869.022,1.744.109,2.607.048,1.077-.076,1.643.048,1.646,1.421,0,1.4-.606,1.426-1.659,1.41-3.193-.051-6.39-.078-9.582.013-1.161.033-1.547-.366-1.452-1.432-.075-1.018.236-1.477,1.414-1.43C992.764,88.239,995.109,88.137,997.452,88.116Z" transform="translate(-931.839 -26.716)" fill="#040404"/><path d="M943.6-58.962a4.869,4.869,0,0,1,2.141,4.051c-.4,3.107-.765,6.219-1.22,9.319a3.039,3.039,0,0,1-2.961,2.883,3,3,0,0,1-3.065-2.756c-.451-2.923-.936-5.854-1.141-8.8C937.07-58.345,939.714-60.251,943.6-58.962ZM941.224-46.02l.539.014c.37-2.883.762-5.764,1.1-8.651.119-1.022-.18-1.967-1.407-1.935s-1.448,1.016-1.329,2.015C940.465-51.721,940.855-48.871,941.224-46.02Z" transform="translate(-898.215 69.263)" fill="#070502"/><path d="M946.836-4.848a2.79,2.79,0,0,1-2.717,2.786,2.794,2.794,0,0,1-2.872-2.8,2.778,2.778,0,0,1,2.888-2.783A2.789,2.789,0,0,1,946.836-4.848Z" transform="translate(-900.761 35.61)" fill="#0a0703"/><path d="M921.542,66.465c-1.282-.114-3.326.667-4.271-.274-1.026-1.022-.188-3.09-.345-4.692a2.7,2.7,0,0,1,.982-2.442c1.33-1.215,2.591-2.509,3.828-3.82.556-.59.94-.69,1.529-.037.894.992,1.857,1.926,2.831,2.842a1.9,1.9,0,0,1,.614,1.542c-.029,1.861-.081,3.726.017,5.583.061,1.157-.422,1.374-1.423,1.314C924.144,66.411,922.978,66.465,921.542,66.465Z" transform="translate(-884.819 -5.003)" fill="#ffd800"/><path d="M885.656,71.811a6.474,6.474,0,0,1-1.388-.016c-1.11-.249-2.612.769-3.3-.566-.831-1.608.1-4.494,1.471-5.574.364-.287.731-.571,1.09-.864,2.968-2.423,2.932-2.375,5.968-.169a2.832,2.832,0,0,1,1.161,2.669c-.024,4.52,0,4.52-4.478,4.52Z" transform="translate(-861.326 -10.351)" fill="#1565c0"/><path d="M957.122,49.569c0,4.3-.034,8.3.023,12.305.015,1.036-.362,1.234-1.306,1.242-2.9.025-2.61.028-2.969-2.753C952.31,56.02,954.1,52.779,957.122,49.569Z" transform="translate(-908.26 -1.63)" fill="#262f43"/><path d="M946.378-40.859c-.369-2.852-.759-5.7-1.1-8.556-.119-1,.1-1.983,1.329-2.015s1.526.913,1.407,1.935c-.337,2.887-.729,5.768-1.1,8.651Z" transform="translate(-903.368 64.102)" fill="#ff5422"/></g></g><g transform="translate(225 5022.863)"><g transform="translate(0 0)"><g transform="translate(0.577 19.948)"><path d="M1891.552,1146.827c-5.224-3.016-13.668-3.018-18.86,0s-5.164,7.908.063,10.924,13.668,3.016,18.858,0S1896.778,1149.843,1891.552,1146.827Z" transform="translate(-1868.806 -1144.564)" fill="#fecc2b"/><g transform="translate(0 7.685)"><path d="M1868.771,1187.44l-.011,4.088c-.005,1.753,1.014,3.507,3.056,4.939v-4.1C1869.782,1190.942,1868.767,1189.191,1868.771,1187.44Z" transform="translate(-1868.76 -1187.44)" fill="#ffb200"/><path d="M1899.521,1222.46v4.094a18.134,18.134,0,0,0,3.324,1.021v-4.092A17.947,17.947,0,0,1,1899.521,1222.46Z" transform="translate(-1894.007 -1216.183)" fill="#ffb200"/><path d="M1959.849,1193.3a18.33,18.33,0,0,1-7.9,2.21v4.088a18.343,18.343,0,0,0,7.888-2.21c2.579-1.5,3.87-3.459,3.875-5.424l.01-4.088C1963.719,1189.843,1962.428,1191.8,1959.849,1193.3Z" transform="translate(-1937.04 -1187.801)" fill="#fb9004"/><path d="M1886.695,1215.53q-.476-.274-.895-.57v4.1c.276.193.568.382.882.563a14.432,14.432,0,0,0,1.575.78v-4.094A14.77,14.77,0,0,1,1886.695,1215.53Z" transform="translate(-1882.746 -1210.028)" fill="#ffd54f"/><path d="M1918.07,1228.17v4.092a22.638,22.638,0,0,0,6.07.409v-4.088A22.559,22.559,0,0,1,1918.07,1228.17Z" transform="translate(-1909.232 -1220.87)" fill="#ffd54f"/></g><g transform="translate(2.36 1.318)"><path d="M1885.364,1154.5a16.581,16.581,0,0,1,15.048,0c2.945,1.7,3.818,4.144,2.62,6.282,1.7-2.321.907-5.11-2.373-7-4.307-2.486-11.265-2.486-15.543,0-3.242,1.884-4.011,4.656-2.319,6.97C1881.6,1158.623,1882.455,1156.2,1885.364,1154.5Z" transform="translate(-1881.925 -1151.918)" fill="#fb9004"/><path d="M1886.77,1166.373c4.307,2.486,11.263,2.486,15.541,0a7.479,7.479,0,0,0,2.323-2c1.2-2.138.324-4.583-2.62-6.282a16.581,16.581,0,0,0-15.048,0c-2.909,1.69-3.76,4.119-2.567,6.248A7.584,7.584,0,0,0,1886.77,1166.373Z" transform="translate(-1883.527 -1155.504)" fill="#ff9e01"/></g><g transform="translate(0.015 7.394)"><path d="M1891.636,1191.034c-5.192,3.016-13.634,3.016-18.859,0-2.5-1.444-3.81-3.321-3.925-5.214-.142,2.084,1.169,4.2,3.925,5.791,5.225,3.017,13.668,3.017,18.859,0,2.7-1.572,3.99-3.652,3.864-5.712C1895.373,1187.766,1894.088,1189.609,1891.636,1191.034Z" transform="translate(-1868.843 -1185.82)" fill="#feedb5"/></g></g><g transform="translate(0 14.743)"><path d="M1888.332,1117.787c-5.225-3.016-13.668-3.018-18.86,0s-5.164,7.907.063,10.924,13.668,3.016,18.859,0S1893.556,1120.8,1888.332,1117.787Z" transform="translate(-1865.586 -1115.524)" fill="#fecc2b"/><g transform="translate(0 7.686)"><path d="M1865.551,1158.41l-.011,4.088c-.005,1.753,1.015,3.508,3.056,4.94v-4.1C1866.562,1161.912,1865.545,1160.159,1865.551,1158.41Z" transform="translate(-1865.54 -1158.41)" fill="#ffb200"/><path d="M1896.29,1193.43v4.094a18.11,18.11,0,0,0,3.325,1.022v-4.092A18.24,18.24,0,0,1,1896.29,1193.43Z" transform="translate(-1890.779 -1187.153)" fill="#ffb200"/><path d="M1956.619,1164.272a18.359,18.359,0,0,1-7.9,2.212v4.088a18.338,18.338,0,0,0,7.888-2.21c2.579-1.5,3.869-3.459,3.875-5.423l.011-4.088C1960.488,1160.813,1959.2,1162.773,1956.619,1164.272Z" transform="translate(-1933.812 -1158.771)" fill="#fb9004"/><path d="M1883.474,1186.49q-.476-.274-.894-.57v4.1c.276.194.568.382.882.563a14.487,14.487,0,0,0,1.575.78v-4.094A14.405,14.405,0,0,1,1883.474,1186.49Z" transform="translate(-1879.526 -1180.989)" fill="#ffd54f"/><path d="M1914.84,1199.14v4.092a22.633,22.633,0,0,0,6.07.409v-4.088A22.64,22.64,0,0,1,1914.84,1199.14Z" transform="translate(-1906.004 -1191.84)" fill="#ffd54f"/></g><g transform="translate(2.36 1.32)"><path d="M1882.144,1125.475a16.581,16.581,0,0,1,15.048,0c2.945,1.7,3.818,4.144,2.62,6.282,1.7-2.321.907-5.11-2.373-7-4.307-2.486-11.264-2.486-15.542,0-3.242,1.884-4.011,4.656-2.319,6.97C1878.382,1129.593,1879.233,1127.165,1882.144,1125.475Z" transform="translate(-1878.705 -1122.888)" fill="#fb9004"/><path d="M1883.54,1137.333c4.307,2.486,11.263,2.486,15.541,0a7.481,7.481,0,0,0,2.323-2c1.2-2.138.324-4.583-2.62-6.282a16.582,16.582,0,0,0-15.048,0c-2.909,1.69-3.76,4.119-2.566,6.248A7.6,7.6,0,0,0,1883.54,1137.333Z" transform="translate(-1880.299 -1126.466)" fill="#ff9e01"/></g><g transform="translate(0.013 7.396)"><path d="M1888.406,1162c-5.192,3.016-13.634,3.016-18.858,0-2.5-1.445-3.811-3.321-3.925-5.214-.142,2.084,1.169,4.2,3.925,5.791,5.224,3.016,13.668,3.016,18.858,0,2.7-1.572,3.99-3.653,3.864-5.712C1892.145,1158.735,1890.858,1160.579,1888.406,1162Z" transform="translate(-1865.612 -1156.79)" fill="#feedb5"/></g></g><g transform="translate(1.156 9.54)"><path d="M1894.782,1088.757c-5.224-3.016-13.668-3.018-18.86,0s-5.164,7.907.063,10.924,13.668,3.016,18.858,0S1900.006,1091.773,1894.782,1088.757Z" transform="translate(-1872.036 -1086.494)" fill="#fecc2b"/><g transform="translate(0 7.685)"><path d="M1872,1129.37l-.011,4.088c-.005,1.753,1.015,3.508,3.056,4.94v-4.1C1873.012,1132.872,1872,1131.121,1872,1129.37Z" transform="translate(-1871.99 -1129.37)" fill="#ffb200"/><path d="M1902.75,1164.39v4.094a18.127,18.127,0,0,0,3.325,1.021v-4.092A17.919,17.919,0,0,1,1902.75,1164.39Z" transform="translate(-1897.237 -1158.114)" fill="#ffb200"/><path d="M1963.069,1135.234a18.329,18.329,0,0,1-7.9,2.21v4.088a18.343,18.343,0,0,0,7.888-2.21c2.579-1.5,3.87-3.459,3.875-5.423l.011-4.088C1966.94,1131.773,1965.648,1133.733,1963.069,1135.234Z" transform="translate(-1940.262 -1129.731)" fill="#fb9004"/><path d="M1889.925,1157.46q-.476-.274-.895-.57v4.1c.276.194.568.382.882.563a14.436,14.436,0,0,0,1.576.78v-4.094A14.722,14.722,0,0,1,1889.925,1157.46Z" transform="translate(-1885.976 -1151.958)" fill="#ffd54f"/><path d="M1921.3,1170.1v4.092a22.632,22.632,0,0,0,6.07.409v-4.088A22.553,22.553,0,0,1,1921.3,1170.1Z" transform="translate(-1912.463 -1162.8)" fill="#ffd54f"/></g><g transform="translate(2.36 1.318)"><path d="M1888.594,1096.434a16.582,16.582,0,0,1,15.048,0c2.945,1.7,3.818,4.144,2.62,6.282,1.7-2.321.907-5.11-2.373-7-4.307-2.486-11.264-2.486-15.543,0-3.242,1.885-4.011,4.656-2.319,6.97C1884.832,1100.553,1885.683,1098.126,1888.594,1096.434Z" transform="translate(-1885.155 -1093.848)" fill="#fb9004"/><path d="M1889.99,1108.3c4.307,2.486,11.263,2.486,15.541,0a7.478,7.478,0,0,0,2.323-2c1.2-2.138.324-4.583-2.62-6.282a16.583,16.583,0,0,0-15.048,0c-2.909,1.69-3.76,4.119-2.566,6.248A7.628,7.628,0,0,0,1889.99,1108.3Z" transform="translate(-1886.748 -1097.435)" fill="#ff9e01"/></g><g transform="translate(0.013 7.394)"><path d="M1894.856,1132.964c-5.192,3.016-13.634,3.016-18.858,0-2.5-1.445-3.81-3.321-3.925-5.214-.142,2.085,1.169,4.2,3.925,5.791,5.225,3.016,13.668,3.016,18.858,0,2.7-1.572,3.99-3.653,3.864-5.712C1898.6,1129.7,1897.308,1131.539,1894.856,1132.964Z" transform="translate(-1872.062 -1127.75)" fill="#feedb5"/></g></g><g transform="translate(0 4.914)"><path d="M1888.332,1062.947c-5.225-3.016-13.668-3.018-18.86,0s-5.164,7.907.063,10.924,13.668,3.016,18.859,0S1893.556,1065.963,1888.332,1062.947Z" transform="translate(-1865.586 -1060.684)" fill="#fecc2b"/><g transform="translate(0 7.686)"><path d="M1865.551,1103.57l-.011,4.088c-.005,1.753,1.015,3.507,3.056,4.939v-4.1C1866.562,1107.07,1865.545,1105.319,1865.551,1103.57Z" transform="translate(-1865.54 -1103.57)" fill="#ffb200"/><path d="M1896.29,1138.58v4.094a18.119,18.119,0,0,0,3.325,1.022V1139.6A17.976,17.976,0,0,1,1896.29,1138.58Z" transform="translate(-1890.779 -1132.305)" fill="#ffb200"/><path d="M1956.619,1109.432a18.359,18.359,0,0,1-7.9,2.212v4.088a18.345,18.345,0,0,0,7.888-2.21c2.579-1.5,3.869-3.459,3.875-5.424l.011-4.088C1960.488,1105.971,1959.2,1107.932,1956.619,1109.432Z" transform="translate(-1933.812 -1103.931)" fill="#fb9004"/><path d="M1883.474,1131.65q-.476-.274-.894-.57v4.1c.276.194.568.382.882.563a14.464,14.464,0,0,0,1.575.78v-4.094A14.427,14.427,0,0,1,1883.474,1131.65Z" transform="translate(-1879.526 -1126.15)" fill="#ffd54f"/><path d="M1914.84,1144.3v4.092a22.638,22.638,0,0,0,6.07.409v-4.088A22.72,22.72,0,0,1,1914.84,1144.3Z" transform="translate(-1906.004 -1137)" fill="#ffd54f"/></g><g transform="translate(2.36 1.318)"><path d="M1882.144,1070.625a16.582,16.582,0,0,1,15.048,0c2.945,1.7,3.818,4.144,2.62,6.282,1.7-2.321.907-5.11-2.373-7-4.307-2.486-11.264-2.486-15.542,0-3.242,1.884-4.011,4.656-2.319,6.97C1878.382,1074.743,1879.233,1072.317,1882.144,1070.625Z" transform="translate(-1878.705 -1068.038)" fill="#fb9004"/><path d="M1883.54,1082.493c4.307,2.486,11.263,2.486,15.541,0a7.481,7.481,0,0,0,2.323-2c1.2-2.138.324-4.583-2.62-6.282a16.582,16.582,0,0,0-15.048,0c-2.909,1.69-3.76,4.119-2.566,6.248A7.627,7.627,0,0,0,1883.54,1082.493Z" transform="translate(-1880.299 -1071.625)" fill="#ff9e01"/></g><g transform="translate(0.013 7.394)"><path d="M1888.406,1107.154c-5.192,3.016-13.634,3.016-18.858,0-2.5-1.445-3.811-3.321-3.925-5.214-.142,2.085,1.169,4.2,3.925,5.791,5.224,3.016,13.668,3.016,18.858,0,2.7-1.572,3.99-3.653,3.864-5.712C1892.145,1103.886,1890.858,1105.729,1888.406,1107.154Z" transform="translate(-1865.612 -1101.94)" fill="#feedb5"/></g></g><path d="M1888.332,1035.527c-5.225-3.016-13.668-3.018-18.86,0s-5.164,7.908.063,10.924,13.668,3.016,18.859,0S1893.556,1038.543,1888.332,1035.527Z" transform="translate(-1865.586 -1033.264)" fill="#fecc2b"/><g transform="translate(0 7.685)"><path d="M1865.551,1076.14l-.011,4.088c-.005,1.753,1.015,3.508,3.056,4.939v-4.1C1866.562,1079.642,1865.545,1077.891,1865.551,1076.14Z" transform="translate(-1865.54 -1076.14)" fill="#ffb200"/><path d="M1896.29,1111.16v4.094a18.1,18.1,0,0,0,3.325,1.021v-4.092A17.986,17.986,0,0,1,1896.29,1111.16Z" transform="translate(-1890.779 -1104.883)" fill="#ffb200"/><path d="M1956.619,1082a18.356,18.356,0,0,1-7.9,2.212v4.088a18.341,18.341,0,0,0,7.888-2.21c2.579-1.5,3.869-3.459,3.875-5.424l.011-4.088C1960.488,1078.543,1959.2,1080.5,1956.619,1082Z" transform="translate(-1933.812 -1076.501)" fill="#fb9004"/><path d="M1883.474,1104.23q-.476-.274-.894-.57v4.1c.276.194.568.382.882.563a14.486,14.486,0,0,0,1.575.78v-4.094A14.45,14.45,0,0,1,1883.474,1104.23Z" transform="translate(-1879.526 -1098.728)" fill="#ffd54f"/><path d="M1914.84,1116.87v4.092a22.638,22.638,0,0,0,6.07.409v-4.088A22.57,22.57,0,0,1,1914.84,1116.87Z" transform="translate(-1906.004 -1109.57)" fill="#ffd54f"/></g><g transform="translate(2.36 1.318)"><path d="M1882.144,1043.2a16.582,16.582,0,0,1,15.048,0c2.945,1.7,3.818,4.144,2.62,6.282,1.7-2.321.907-5.11-2.373-7-4.307-2.486-11.264-2.486-15.542,0-3.242,1.884-4.011,4.656-2.319,6.97C1878.382,1047.323,1879.233,1044.895,1882.144,1043.2Z" transform="translate(-1878.705 -1040.618)" fill="#fb9004"/><path d="M1883.54,1055.073c4.307,2.486,11.263,2.486,15.541,0a7.483,7.483,0,0,0,2.323-2c1.2-2.138.324-4.583-2.62-6.282a16.582,16.582,0,0,0-15.048,0c-2.909,1.69-3.76,4.119-2.566,6.248A7.628,7.628,0,0,0,1883.54,1055.073Z" transform="translate(-1880.299 -1044.204)" fill="#ff9e01"/></g><g transform="translate(0.013 7.394)"><path d="M1888.406,1079.734c-5.192,3.016-13.634,3.016-18.858,0-2.5-1.445-3.811-3.321-3.925-5.214-.142,2.084,1.169,4.2,3.925,5.791,5.224,3.017,13.668,3.017,18.858,0,2.7-1.572,3.99-3.653,3.864-5.712C1892.145,1076.467,1890.858,1078.309,1888.406,1079.734Z" transform="translate(-1865.612 -1074.52)" fill="#feedb5"/></g></g><g transform="translate(6.108 3.545)"><path d="M1913.191,1055.5a4.512,4.512,0,0,0-3.545-.306c.321-.595.113-1.208-.71-1.687-1.253-.728-3.122-.631-5.142.5l-1.156-.672-1.86,1.073,1.152.669-2.31,1.333,8.225,4.78,2.31-1.333,1.111.645,1.861-1.074-1.111-.645.111-.065C1914.3,1057.463,1914.615,1056.33,1913.191,1055.5Zm-8.295,1.769-1.939-1.127.405-.235,1.5-.866q.194-.11.382-.2a2.143,2.143,0,0,1,2.025-.075c.557.324.5.729-.126,1.179a3.609,3.609,0,0,1-.342.22l-1.5.865Zm5.685.677-.032.018-1.828,1.056-.405.235-2.032-1.181.4-.235,1.828-1.056.032-.018a2.461,2.461,0,0,1,2.515-.269C1911.763,1056.906,1911.546,1057.384,1910.582,1057.949Z" transform="translate(-1899.62 -1053.044)" fill="#feedb5"/></g><g transform="translate(6.108 3.257)"><path d="M1913.191,1053.892a4.512,4.512,0,0,0-3.545-.306c.321-.6.113-1.208-.71-1.687-1.253-.728-3.122-.631-5.142.5l-1.156-.672-1.86,1.073,1.152.668-2.31,1.333,8.225,4.78,2.31-1.333,1.111.645,1.861-1.074-1.111-.645.111-.065C1914.3,1055.851,1914.615,1054.719,1913.191,1053.892Zm-8.295,1.769-1.939-1.128.405-.235,1.5-.866q.194-.11.382-.2a2.144,2.144,0,0,1,2.025-.075c.557.323.5.73-.126,1.179a3.538,3.538,0,0,1-.342.22l-1.5.866Zm5.685.677-.032.018-1.828,1.056-.405.235-2.032-1.181.4-.235,1.828-1.056.032-.018a2.462,2.462,0,0,1,2.515-.269C1911.763,1055.3,1911.546,1055.774,1910.582,1056.339Z" transform="translate(-1899.62 -1051.434)" fill="#fecc2b"/></g></g></g></svg>