<svg xmlns="http://www.w3.org/2000/svg" width="39.324" height="61.887" viewBox="0 0 39.324 61.887"><g transform="translate(-37.533 -3690.673)"><g transform="translate(37.533 3690.673)"><path d="M37.536,3721.619q0-12.273,0-24.546a6.461,6.461,0,0,1,6.365-6.4q13.294,0,26.588,0a6.436,6.436,0,0,1,6.265,5.387,7.66,7.66,0,0,1,.1,1.169q.007,24.439,0,48.878a6.466,6.466,0,0,1-6.42,6.452H43.9a6.4,6.4,0,0,1-6.256-5.385,15.967,15.967,0,0,1-.109-2.243q-.011-11.655,0-23.311Zm1.236.017q0,12.056,0,24.113a7.354,7.354,0,0,0,.11,1.385,5.277,5.277,0,0,0,5.275,4.189c8.755-.047,17.51-.016,26.265-.02a4.513,4.513,0,0,0,1.009-.094,5.193,5.193,0,0,0,4.186-5.334q0-24.25,0-48.5a6.625,6.625,0,0,0-.11-1.277,5.3,5.3,0,0,0-5.281-4.186c-8.755.044-17.51.018-26.265.013a4.8,4.8,0,0,0-2.459.618,5.211,5.211,0,0,0-2.731,4.819Q38.772,3709.5,38.772,3721.636Z" transform="translate(-37.533 -3690.672)" fill="#12263f"/><path d="M54.462,3779.074q0-9.8,0-19.6a2.308,2.308,0,0,1,2.554-2.55q15.291-.007,30.583,0a2.316,2.316,0,0,1,2.513,2.544q0,19.657,0,39.313a2.287,2.287,0,0,1-1.69,2.426,2.9,2.9,0,0,1-.742.062c-10.258,0-20.516-.014-30.774.022a2.431,2.431,0,0,1-2.455-2.447C54.476,3792.25,54.462,3785.662,54.462,3779.074Zm34.385.011q0-9.8,0-19.6c0-.99-.317-1.305-1.313-1.305H64.385q-3.759,0-7.519,0a1,1,0,0,0-1.14,1.1c-.008.393,0,.787,0,1.181q0,19.12,0,38.24c0,1.016.334,1.356,1.339,1.356H87.518c.967,0,1.328-.361,1.328-1.317Q88.847,3788.913,88.847,3779.085Z" transform="translate(-52.633 -3749.798)" fill="#12263f"/><path d="M189.322,4177.6a3.683,3.683,0,0,1,3.732,3.746,3.745,3.745,0,1,1-7.491.032A3.74,3.74,0,0,1,189.322,4177.6Zm-2.483,3.729a2.442,2.442,0,0,0,2.47,2.527,2.468,2.468,0,0,0,2.486-2.525,2.545,2.545,0,0,0-2.459-2.53A2.5,2.5,0,0,0,186.839,4181.326Z" transform="translate(-169.658 -4125.276)" fill="#12263f"/><path d="M215.4,3710.429a2.251,2.251,0,0,1,2.149,2.314,2.316,2.316,0,0,1-2.2,2.211.62.62,0,0,1-.687-.6c-.022-.429.26-.639.671-.67a1.022,1.022,0,0,0,.5-1.873,1.074,1.074,0,0,0-.5-.17c-.438-.021-.7-.243-.665-.661A.593.593,0,0,1,215.4,3710.429Z" transform="translate(-195.628 -3708.302)" fill="#12263f"/><path d="M91.78,3854.018a15.628,15.628,0,1,1,15.511-15.106A15.582,15.582,0,0,1,91.78,3854.018Zm14.266-15.6A14.241,14.241,0,1,0,91.875,3852.8,14.355,14.355,0,0,0,106.047,3838.417Z" transform="translate(-72.161 -3808.57)" fill="#12263f"/><path d="M111.555,3870.279a11.71,11.71,0,1,1,23.418,0,11.71,11.71,0,1,1-23.418,0Zm1.236-.06a10.465,10.465,0,1,0,10.441-10.554A10.525,10.525,0,0,0,112.791,3870.219Z" transform="translate(-103.601 -3840.426)" fill="#12263f"/><path d="M179.1,3891.731a4.514,4.514,0,0,0,.032-.488c-.019-.508.24-.708.723-.7.537.008,1.074,0,1.612,0s.8.214.759.727.176.626.619.755a3.844,3.844,0,0,1,1.9,6.166c-.075.1-.159.185-.259.3a3.954,3.954,0,0,1,1.59,4.719,4.092,4.092,0,0,1-3.765,3.062c-.023.042-.053.072-.055.1-.061,1.165-.128,1.229-1.29,1.229-.322,0-.645,0-.967,0-.69-.01-.844-.166-.864-.851,0-.13-.029-.26-.044-.39l-.132-.009c-.014.158-.036.315-.041.474-.017.58-.186.76-.775.774-.483.012-.967.007-1.45,0-.659-.007-.868-.214-.883-.863,0-.106,0-.213,0-.308-.046-.033-.076-.072-.1-.07-1.251.073-1.2-.317-1.195-1.282.012-4.011,0-8.023,0-12.034,0-1.248,0-1.248,1.218-1.327.021-.027.058-.053.06-.082.075-1.067.1-1.094,1.175-1.094.376,0,.752,0,1.128,0,.68,0,.8.125.82.812,0,.122.022.243.034.364Zm-1.891.038c-.138.412-.159.858-.393,1.064s-.685.185-1.053.266v11.976c1.154.108,1.154.108,1.4,1.277l.527-.025c.007-.1.014-.169.016-.238.034-.882.106-.954,1-.989.125,0,.25-.007.375-.011,1.159-.04,1.182-.019,1.272,1.141,0,.031.036.059.063.1.08.006.168.019.256.019s.169-.012.246-.019c.131-1.164.133-1.142,1.332-1.28a2.951,2.951,0,0,0,2.312-1.448,2.867,2.867,0,0,0-1.308-4.322,1.2,1.2,0,0,1-.659-.573c-.158-.421.231-.595.549-.783a2.558,2.558,0,0,0,1.2-2.706,2.673,2.673,0,0,0-2.178-2.086c-.947-.088-1.263-.073-1.219-1.281,0-.029-.034-.059-.069-.115l-.515.034c-.012.2-.023.354-.031.511-.029.554-.208.732-.749.74-.143,0-.286,0-.429,0-1.3-.008-1.3-.008-1.507-1.251Z" transform="translate(-159.787 -3869.068)" fill="#12263f"/><path d="M199.515,3974.171c0-.572.007-1.145,0-1.716-.007-.44.218-.694.635-.69,1.231.013,2.466.007,3.691.113a2.351,2.351,0,0,1,.556,4.507,4,4,0,0,1-1.15.192c-.947.027-1.895.009-2.843.009-.745,0-.886-.146-.887-.913Q199.514,3974.921,199.515,3974.171Zm1.224,1.188c.62,0,1.2,0,1.787,0,.285,0,.57-.034.856-.046.779-.035,1.135-.293,1.188-.869.076-.81-.206-1.289-.991-1.36-.932-.084-1.878-.02-2.84-.02Z" transform="translate(-182.108 -3941.562)" fill="#12263f"/><path d="M201.678,3922.222a15.136,15.136,0,0,1,2.023.153c1.132.232,1.6.943,1.573,2.189a1.853,1.853,0,0,1-1.651,1.874,30.713,30.713,0,0,1-3.636.1c-.175,0-.484-.353-.494-.554-.05-1.036-.025-2.075-.021-3.113a.538.538,0,0,1,.593-.6c.537-.005,1.074,0,1.611,0Zm-.982,3.1c.7,0,1.36.018,2.013-.008a1.729,1.729,0,0,0,.917-.192,1.127,1.127,0,0,0,.415-.825c-.014-.249-.311-.661-.525-.69-.923-.125-1.862-.135-2.821-.188Z" transform="translate(-182.063 -3897.342)" fill="#12263f"/></g></g></svg>