<svg xmlns="http://www.w3.org/2000/svg" width="50.547" height="59.932" viewBox="0 0 50.547 59.932"><g transform="translate(-5.648 -4268.893)"><g transform="translate(5.648 4268.893)"><path d="M56.2,4275.084v53.74H11.838a1.468,1.468,0,0,1-.583-1.363c.04-1.013.011-2.028.011-3.043v-1.228H7.024c-1.128,0-1.376-.246-1.376-1.365q0-25.781,0-51.562c0-1.126.244-1.372,1.368-1.372H48.789c1.682,0,1.775.093,1.775,1.786v3.834c1.45,0,2.831.021,4.211-.01A1.532,1.532,0,0,1,56.2,4275.084Zm-32.808,29.358a10.445,10.445,0,0,1,9.727-11.184,9.966,9.966,0,0,1,6.505,1.86,10.431,10.431,0,0,1,4.407,9.361h.549c1.029.008,1.309.292,1.311,1.329,0,.48,0,.96,0,1.48a9.337,9.337,0,0,1,1.416.011,3.157,3.157,0,0,0,3.323-1.366,1.344,1.344,0,0,1,1.233-.525c.81.028,1.622.007,2.429.007v-29.006H18.734c0,1.491,0,2.934,0,4.377,0,.867-.333,1.188-1.212,1.193-.722,0-1.443,0-2.165,0H13.161v23.435c.433,0,.821,0,1.209,0,2.35.036,1.61-.29,3.336,1.386.178.173.377.448.576.457,1.081.045,2.165.021,3.279.021,0-.413.017-.743,0-1.072-.087-1.429.264-1.856,1.674-1.736A.675.675,0,0,0,23.387,4304.443ZM11.258,4321.3v-.775q0-19.521-.009-39.042a1.8,1.8,0,0,1,.575-1.4q2.505-2.46,4.962-4.969a1.977,1.977,0,0,1,1.55-.63q14.8.023,29.607.011h.735v-3.719H7.547V4321.3Zm12.18-14.913v.66q0,4.652,0,9.3a2.826,2.826,0,0,0,3.09,3.088q7.195,0,14.389,0a2.825,2.825,0,0,0,3.091-3.089q0-4.652,0-9.3v-.659Zm5.543,14.929c-.937,0-1.871.034-2.8-.007a4.515,4.515,0,0,1-4.14-2.672,13.64,13.64,0,0,1-.605-2,7.868,7.868,0,0,1-1.146-.009,3.437,3.437,0,0,0-3.548,1.415,1.594,1.594,0,0,1-1.067.447c-.828.065-1.664.021-2.522.021v8.411H27.179a4.655,4.655,0,0,0,0-.669,2.515,2.515,0,0,1,1.092-2.638A1.966,1.966,0,0,0,28.981,4321.32Zm25.328-2.809c-.373,0-.683,0-.992,0-2.69-.046-1.779.341-3.7-1.506-.148-.143-.334-.342-.507-.347-1.066-.032-2.134-.017-3.191-.017-.428,3.155-2.169,4.68-5.276,4.68H38.461a1.974,1.974,0,0,0,.7,2.277c.173.121.3.313.461.448a1.658,1.658,0,0,1,.651,1.539c-.04.438-.008.884-.008,1.334H54.309Zm-15.922-14.053a4.757,4.757,0,0,0-2.38-5.007,4.412,4.412,0,0,0-5.058.316,4.737,4.737,0,0,0-1.876,4.691ZM13.139,4311h8.379v-1.852c-.664,0-1.285.009-1.906,0-2.7-.044-1.778.338-3.691-1.5-.148-.143-.33-.341-.505-.35-.75-.039-1.5-.017-2.276-.017Zm41.141.011v-3.735c-.613,0-1.213.023-1.81-.008a1.187,1.187,0,0,0-.972.392c-1.856,1.827-.994,1.446-3.633,1.488-.652.011-1.3,0-1.946,0v1.862Zm-41.137,5.65c.554,0,1.044-.04,1.524.01a1.5,1.5,0,0,0,1.513-.633,2.981,2.981,0,0,1,3.036-1.267,19.519,19.519,0,0,0,2.3.017v-1.847H13.143Zm41.166-3.725H45.931v1.852a14.222,14.222,0,0,0,1.847-.013,3.671,3.671,0,0,1,3.8,1.552.732.732,0,0,0,.457.316c.751.033,1.5.015,2.276.015Zm-21.562,14v-5.578H30.929a2.452,2.452,0,0,0-.019.481,2.867,2.867,0,0,1-1.281,3.021c-.792.554-.609,1.318-.555,2.075Zm1.929-.009H38.36a1.971,1.971,0,0,0-.711-2.243,2.3,2.3,0,0,1-.652-.663,3.023,3.023,0,0,1-.437-1.084,11.2,11.2,0,0,1-.018-1.574H34.676Z" transform="translate(-5.648 -4268.893)" fill="#12263f"/><path d="M133.776,4357.155c1.207,0,2.42-.071,3.62.02a5.176,5.176,0,0,1,3.182,1.585,1.276,1.276,0,0,0,.807.258c2.453.026,4.92-.135,7.355.075a5.409,5.409,0,0,1,4.675,5.447,5.5,5.5,0,0,1-4.693,5.506,39.37,39.37,0,0,1-4.495.119,27.511,27.511,0,0,1-2.86-.086,5.372,5.372,0,0,1-3.181-1.592,1.288,1.288,0,0,0-.808-.258c-2.492-.029-5,.13-7.471-.088-2.573-.228-4.55-2.778-4.558-5.434a5.519,5.519,0,0,1,4.576-5.491,30.3,30.3,0,0,1,3.85-.028Zm5.26,2.743a3.28,3.28,0,0,0-2.261-.956c-2.005-.025-4.012-.035-6.017,0a3.749,3.749,0,0,0-.03,7.487c1.946.043,3.894.012,5.842.01a1.686,1.686,0,0,0,.3-.059A5.719,5.719,0,0,1,139.036,4359.9Zm.745,7.447a3.2,3.2,0,0,0,2.352.968q2.809.011,5.617,0a3.755,3.755,0,1,0,0-7.508c-1.755-.007-3.511,0-5.266,0-.184,0-.367.021-.554.033C142.37,4364.25,142.1,4365.062,139.782,4367.345Zm.3-5.794c-1.27.5-2.126,2.987-1.366,4.159A3.455,3.455,0,0,0,140.079,4361.551Z" transform="translate(-111.308 -4346.778)" fill="#12263f"/><path d="M207.521,4618.213l1.4-1.387,2.013,2.249,4.945-5.112,1.358,1.388c-.122.135-.24.28-.371.411q-2.476,2.481-4.956,4.958c-.729.728-1.131.722-1.867-.008Q208.782,4619.46,207.521,4618.213Z" transform="translate(-183.84 -4573.483)" fill="#12263f"/><path d="M237.107,4398.991c-.76-1.172.1-3.659,1.366-4.16" transform="translate(-209.702 -4380.058)" fill="#12263f"/></g></g></svg>