<svg xmlns="http://www.w3.org/2000/svg" width="68.593" height="65.09" viewBox="0 0 68.593 65.09"><g transform="translate(-50.304 -1542.476)"><g transform="translate(50.304 1542.476)"><path d="M405.082,1575.792c-.622.6-1.27,1.183-1.858,1.818a1.344,1.344,0,0,1-1.171.466c-.574-.035-1.152-.008-1.809-.008v18.865c-.309.02-.543.048-.777.049-1.4,0-2.811-.035-4.213.018a1.851,1.851,0,0,1-1.739-.721,3.645,3.645,0,0,0-.465-.449c-.07.014-.131.009-.148.033a2.984,2.984,0,0,1-2.979,1.14c-1.348-.083-2.7-.019-4.127-.019v-18.915c-.753,0-1.439.028-2.12-.014a1.278,1.278,0,0,1-.747-.308,7.622,7.622,0,0,1-1.949-2.073,7.241,7.241,0,0,1-.1-2.709c0-4.258.006-8.516-.011-12.774a1.373,1.373,0,0,1,.467-1.1c.731-.687,1.405-1.434,2.147-2.107a1.586,1.586,0,0,1,.924-.379c1.046-.047,2.095-.016,3.143-.02.211,0,.421-.025.869-.053-.717-.685-1.3-1.224-1.857-1.785a.946.946,0,0,1-.315-.549,51.719,51.719,0,0,1,.069-5.679,6.608,6.608,0,0,1,5.289-5.9,3.145,3.145,0,0,0,.36-.139h2.007a.6.6,0,0,0,.171.1,6.853,6.853,0,0,1,5.593,7.163c-.075,1.377.014,2.762-.031,4.142a1.665,1.665,0,0,1-.41.966c-.493.555-1.065,1.041-1.6,1.555l.1.181c1.237,0,2.475-.031,3.71.02a1.789,1.789,0,0,1,1.037.42c.878.782,1.7,1.627,2.544,2.448Zm-17.274,19.151h2.471a1.677,1.677,0,0,0,1.7-1.69q0-6.924,0-13.847v-.759h2.014v.724q0,6.991,0,13.981c0,.531.734,1.551,1.215,1.573.97.045,1.943.013,2.976.013v-31h2.059v12.125h.893a1.912,1.912,0,0,0,1.945-1.932c0-3.991-.053-7.984.031-11.974a3.348,3.348,0,0,0-1.249-3.006,1.905,1.905,0,0,0-1.288-.522c-4.661.021-9.323.071-13.982-.024a3.49,3.49,0,0,0-3.308,1.446,1.608,1.608,0,0,0-.338.811q-.031,6.79-.009,13.58a1.055,1.055,0,0,0,.137.563,2.222,2.222,0,0,0,2.746.94V1563.95h1.992Zm.406-43.733.066,0c0,.647-.01,1.293.006,1.939a.9.9,0,0,0,.14.558,13.706,13.706,0,0,0,2.829,2.714c.794.437,2,.152,3.019.14a1.221,1.221,0,0,0,.751-.315c.827-.78,1.628-1.588,2.414-2.409a1.031,1.031,0,0,0,.273-.631c.024-1.315.05-2.632,0-3.945a4.662,4.662,0,0,0-4.427-4.733,4.529,4.529,0,0,0-4.829,3.56A22.112,22.112,0,0,0,388.214,1551.21Z" transform="translate(-336.489 -1542.476)" fill="#12263f"/><path d="M63.5,1542.476a9.326,9.326,0,0,1,3.27,1.564,6.775,6.775,0,0,1,2.448,5.073c.061,1.625.029,3.255,0,4.882a1.218,1.218,0,0,1-.324.744c-.545.572-1.138,1.1-1.713,1.643l.1.2c1.147,0,2.3.039,3.441-.015a1.584,1.584,0,0,1,1.641.891c-.377.353-.787.749-1.214,1.126a.562.562,0,0,1-.346.087c-5.44-.007-10.88-.022-16.319-.018a1.04,1.04,0,0,0-.626.292c-1.477,1.372-1.472,1.377-1.472,3.418q0,5.887,0,11.773a1.914,1.914,0,0,0,1.951,1.926h.888v-12.129h2.058v31c1.035,0,2.009.033,2.979-.014.487-.024,1.2-1.039,1.2-1.584q0-6.924,0-13.847v-.851h2.021v.772q0,6.923,0,13.847a1.675,1.675,0,0,0,1.7,1.681c.758,0,1.516-.008,2.274-.015.039,0,.077-.032.172-.073v-30.906h2.014v12.078h1.824v2.016H69.7v18.9c-.3.016-.533.04-.767.04-1.4,0-2.811-.037-4.214.018a1.846,1.846,0,0,1-1.733-.735c-.132-.181-.259-.367-.351-.5-.189.074-.248.077-.268.107-.745,1.115-1.84,1.192-3.047,1.126-1.329-.072-2.666-.016-4.073-.016v-18.915c-.736,0-1.4.033-2.059-.016a1.407,1.407,0,0,1-.8-.335,7.175,7.175,0,0,1-1.911-2.019,7.387,7.387,0,0,1-.092-2.711c0-4.281,0-8.562-.01-12.844a1.294,1.294,0,0,1,.434-1.047c.7-.655,1.381-1.332,2.034-2.033a1.4,1.4,0,0,1,1.165-.494c1.219.035,2.439.011,3.659.011l.143-.209c-.549-.5-1.086-1.017-1.653-1.5a1.209,1.209,0,0,1-.429-1.048c.024-1.36.072-2.724,0-4.08a6.852,6.852,0,0,1,5.594-7.172.588.588,0,0,0,.17-.1Zm-5.855,8.737.1.01c0,.646-.011,1.293.007,1.939a.878.878,0,0,0,.152.549,14.923,14.923,0,0,0,2.891,2.747c.746.425,1.914.108,2.894.123a.178.178,0,0,0,.066,0,2.441,2.441,0,0,0,.749-.329c.811-.764,1.595-1.558,2.367-2.361a1.033,1.033,0,0,0,.3-.622c.01-1.47.041-2.945-.048-4.411A4.656,4.656,0,0,0,58,1547.91,25.537,25.537,0,0,0,57.643,1551.214Z" transform="translate(-50.304 -1542.476)" fill="#12263f"/><path d="M228.936,1542.476a17.5,17.5,0,0,1,2.868,1.325,6.48,6.48,0,0,1,2.806,5.554c.015,1.538.021,3.078-.012,4.616a1.357,1.357,0,0,1-.354.8,17.6,17.6,0,0,0-1.593,1.807h1.889a14,14,0,0,0,1.6-.012,1.569,1.569,0,0,1,1.623.871c-.378.359-.771.743-1.177,1.11a.55.55,0,0,1-.336.138c-5.328-.011-10.656-.023-15.983-.061a1.9,1.9,0,0,0-1.283.529,3.215,3.215,0,0,0-1.208,2.888c.08,4.035.03,8.072.03,12.108a1.867,1.867,0,0,0,1.881,1.909h.947v-12.13h2.017v31c1.062,0,2.039.032,3.011-.014.465-.022,1.162-1.013,1.162-1.531q0-4.984,0-9.968v-4.785h2.064v.769q0,6.924,0,13.848a1.681,1.681,0,0,0,1.7,1.688h2.453v-31h2.018v12.109h1.853v1.98H235.1v18.95H232.09c-.357,0-.714-.013-1.07,0-1.194.05-2.409.166-3.031-1.217-.167.1-.264.124-.308.187a2.668,2.668,0,0,1-2.614,1.048c-1.441-.08-2.889-.02-4.4-.02v-18.915c-.7,0-1.347.046-1.98-.018a2.239,2.239,0,0,1-.981-.4c-1.638-1.121-2.066-2.655-1.991-4.635.162-4.253.057-8.517.04-12.776a1.434,1.434,0,0,1,.483-1.171c.867-.8,1.572-1.941,2.585-2.365.99-.414,2.28-.109,3.439-.119.265,0,.529,0,1.007,0-.668-.67-1.238-1.184-1.73-1.764a1.725,1.725,0,0,1-.4-.98c-.044-1.381.016-2.766-.025-4.147a6.857,6.857,0,0,1,5.466-7.09.845.845,0,0,0,.22-.124Zm-5.761,8.845c-.514,1.625.347,2.986,1.806,4.114.315.244.552.587.865.834a1.313,1.313,0,0,0,.693.3c2.938.135,2.938.129,5.026-1.956a7.009,7.009,0,0,0,.7-.716,1.306,1.306,0,0,0,.291-.691c.022-1.426.043-2.855-.008-4.28a4.69,4.69,0,0,0-9.367.019C223.151,1549.635,223.175,1550.327,223.175,1551.322Z" transform="translate(-193.529 -1542.476)" fill="#12263f"/><path d="M160.819,1965.03a4.507,4.507,0,0,1-7.653,3.409,1.568,1.568,0,0,0-.977-.392q-6.958-.038-13.916,0a1.555,1.555,0,0,0-.972.4,4.511,4.511,0,0,1-6.268-.007,1.343,1.343,0,0,0-1.055-.417c-4.617.012-9.233,0-13.849.026a1.649,1.649,0,0,0-1.03.422,4.508,4.508,0,0,1-6.333-6.417,4.458,4.458,0,0,1,6.31-.079,1.415,1.415,0,0,0,1.107.46q6.858-.024,13.716,0a1.478,1.478,0,0,0,1.17-.466,4.4,4.4,0,0,1,6.193.024,1.333,1.333,0,0,0,1.043.442c4.617-.015,9.233,0,13.849-.026a1.572,1.572,0,0,0,.98-.391,4.506,4.506,0,0,1,4.947-.947A4.373,4.373,0,0,1,160.819,1965.03Zm-44.309.914h13.054v-1.458H116.51Zm35.272-1.472H138.734v1.459h13.048Zm4.553,3.2a2.429,2.429,0,0,0,2.452-2.451,2.5,2.5,0,0,0-2.493-2.509,2.548,2.548,0,0,0-2.473,2.484A2.467,2.467,0,0,0,156.335,1967.677Zm-44.34,0a2.476,2.476,0,0,0,2.48-2.448,2.556,2.556,0,0,0-2.513-2.511,2.5,2.5,0,0,0-2.452,2.544A2.431,2.431,0,0,0,111.994,1967.678Zm22.135,0a2.444,2.444,0,0,0,2.492-2.479,2.476,2.476,0,1,0-4.952.033A2.445,2.445,0,0,0,134.13,1967.676Z" transform="translate(-99.814 -1904.624)" fill="#12263f"/><path d="M157.137,1868.449h1.925v7.363h-1.925Z" transform="translate(-142.813 -1824.744)" fill="#12263f"/><path d="M322.608,1868.456h1.925v7.361h-1.925Z" transform="translate(-286.099 -1824.75)" fill="#12263f"/><path d="M159.031,1845.621h-1.92v-1.973h1.92Z" transform="translate(-142.791 -1803.268)" fill="#12263f"/><path d="M158.987,1820.613H157.05v-1.978h1.937Z" transform="translate(-142.738 -1781.609)" fill="#12263f"/><path d="M324.585,1820.6h-1.926v-2h1.926Z" transform="translate(-286.143 -1781.577)" fill="#12263f"/><path d="M322.557,1843.479h1.927v1.976h-1.927Z" transform="translate(-286.055 -1803.122)" fill="#12263f"/><path d="M489.053,1831.99c0-2.063,0-4.043,0-6.023,0-1.4,0-1.372-1.421-1.4-.567-.009-.658.211-.653.7.021,2.027.008,4.055.011,6.082,0,.211.024.422.037.633Zm0-12.062a13.868,13.868,0,0,0-.026-1.667c-.018-.142-.37-.367-.537-.341-.5.076-1.212-.383-1.458.292a5.346,5.346,0,0,0-.036,1.717Zm0,3.345a16.078,16.078,0,0,0-.023-1.66.59.59,0,0,0-.465-.349c-.521.1-1.259-.394-1.53.286a5.015,5.015,0,0,0-.038,1.722Z" transform="translate(-428.394 -1780.917)" fill="#12263f"/><path d="M471.758,1575.278l1.4,1.468c.555-1.023,2.043-1.336,1.857-2.739C473.466,1573.4,472.5,1574.115,471.758,1575.278Zm3.216-4.913-1.9.333v1.811h1.9Zm-3.352-2.787c0,.595-.02,1.144.007,1.691.018.351.971.8,1.238.579.437-.358.843-.756,1.286-1.159A3.327,3.327,0,0,0,471.623,1567.578Z" transform="translate(-415.128 -1564.213)" fill="#12263f"/><path d="M489.338,1875.484h-2.026c-.013-.211-.037-.422-.037-.633,0-2.027.011-4.055-.011-6.082-.005-.492.086-.712.653-.7,1.421.023,1.421-.007,1.421,1.4C489.339,1871.441,489.338,1873.421,489.338,1875.484Z" transform="translate(-428.679 -1824.411)" fill="#12263f"/><path d="M489.075,1819.927h-2.056a5.347,5.347,0,0,1,.036-1.717c.246-.674.959-.216,1.458-.292.167-.025.519.2.537.341A13.868,13.868,0,0,1,489.075,1819.927Z" transform="translate(-428.417 -1780.917)" fill="#12263f"/><path d="M489.051,1844.883H487a5.015,5.015,0,0,1,.038-1.722c.271-.681,1.009-.187,1.53-.286a.59.59,0,0,1,.465.349A16.078,16.078,0,0,1,489.051,1844.883Z" transform="translate(-428.394 -1802.528)" fill="#12263f"/><path d="M472.679,1615.369c.743-1.163,1.708-1.879,3.257-1.271.186,1.4-1.3,1.715-1.857,2.739Z" transform="translate(-416.049 -1604.303)" fill="#12263f"/><path d="M484.393,1588.364v2.145h-1.9V1588.7Z" transform="translate(-424.547 -1582.212)" fill="#12263f"/><path d="M471.623,1567.578a3.327,3.327,0,0,1,2.531,1.111c-.444.4-.849.8-1.286,1.159-.267.219-1.22-.228-1.238-.579C471.6,1568.722,471.623,1568.173,471.623,1567.578Z" transform="translate(-415.128 -1564.213)" fill="#12263f"/><path d="M145.207,1614.071c.116.845-.239,1.35-1.919,2.67l-1.322-1.362C142.711,1614.223,143.662,1613.495,145.207,1614.071Z" transform="translate(-129.676 -1604.297)" fill="#12263f"/><path d="M141.032,1569.558v-1.911a3.166,3.166,0,0,1,2.466,1.036C142.573,1569.975,142.254,1570.087,141.032,1569.558Z" transform="translate(-128.868 -1564.268)" fill="#12263f"/><path d="M153.6,1590.531h-1.927V1588.7l1.927-.334Z" transform="translate(-138.08 -1582.215)" fill="#12263f"/><path d="M310.725,1614.106c.155,1.423-1.348,1.715-1.837,2.71l-1.412-1.449A2.455,2.455,0,0,1,310.725,1614.106Z" transform="translate(-272.996 -1604.317)" fill="#12263f"/><path d="M308.923,1568.676a5.274,5.274,0,0,0-.857.785c-.47.674-.976.339-1.476.11a.485.485,0,0,1-.179-.368c-.02-.531-.008-1.064-.008-1.651A3.276,3.276,0,0,1,308.923,1568.676Z" transform="translate(-272.063 -1564.189)" fill="#12263f"/><path d="M316.955,1588.695l1.925-.333v2.134h-1.925Z" transform="translate(-281.204 -1582.21)" fill="#12263f"/></g></g></svg>