<svg id="Grupo_949303" data-name="Grupo 949303" xmlns="http://www.w3.org/2000/svg" xmlns:xlink="http://www.w3.org/1999/xlink" width="87.339" height="87.338" viewBox="0 0 87.339 87.338">
  <defs>
    <radialGradient id="radial-gradient" cx="0.076" cy="0.019" r="1.465" gradientTransform="translate(0.001)" gradientUnits="objectBoundingBox">
      <stop offset="0" stop-color="#f6f6f7"/>
      <stop offset="0.477" stop-color="#f9f9fa"/>
      <stop offset="0.715" stop-color="#fff"/>
    </radialGradient>
    <clipPath id="clip-path">
      <rect id="Rectángulo_66263" data-name="Rectángulo 66263" width="41.143" height="40.781" fill="none"/>
    </clipPath>
  </defs>
  <g id="Grupo_18423" data-name="Grupo 18423" transform="translate(0 0)">
    <g id="Grupo_18421" data-name="Grupo 18421">
      <g id="Grupo_18420" data-name="Grupo 18420">
        <g id="Grupo_18419" data-name="Grupo 18419">
          <path id="Trazado_40936" data-name="Trazado 40936" d="M281.962,2189.389a43.669,43.669,0,1,1-43.669-43.668A43.669,43.669,0,0,1,281.962,2189.389Z" transform="translate(-194.623 -2145.721)" fill="#fff"/>
        </g>
      </g>
    </g>
    <path id="Trazado_40937" data-name="Trazado 40937" d="M281.7,2189.1a43.669,43.669,0,1,0-43.669,43.67A43.5,43.5,0,0,0,281.7,2189.1Z" transform="translate(-194.361 -2145.436)" fill="url(#radial-gradient)"/>
    <path id="Trazado_40938" data-name="Trazado 40938" d="M269.1,2186.859a33.332,33.332,0,1,0-33.333,33.333A33.209,33.209,0,0,0,269.1,2186.859Z" transform="translate(-191.968 -2143.046)" fill="none" stroke="#12263f" stroke-miterlimit="10" stroke-width="4"/>
    <g id="Grupo_18422" data-name="Grupo 18422" transform="translate(7.736 24.517)">
      <path id="Trazado_40939" data-name="Trazado 40939" d="M275.732,2164.488a43.675,43.675,0,0,1-75.187,43.488,43.536,43.536,0,0,0,75.187-43.488Z" transform="translate(-200.545 -2164.488)" fill="#eceef0"/>
    </g>
  </g>
  <g id="Grupo_151153" data-name="Grupo 151153" transform="translate(23.098 24.279)">
    <g id="Grupo_151152" data-name="Grupo 151152" clip-path="url(#clip-path)">
      <path id="Trazado_174665" data-name="Trazado 174665" d="M6.893,25.459c.008-1.3-.008-2.6.012-3.9a.593.593,0,0,0-.358-.6c-1.9-1.084-3.8-2.191-5.7-3.275A1.53,1.53,0,0,1,0,16.219Q.021,11.3,0,6.377A1.554,1.554,0,0,1,.848,4.884Q4.893,2.572,8.921.23a1.375,1.375,0,0,1,1.535.007Q12.5,1.545,14.532,2.861c.036.024.07.052.143.106-.826.478-1.62.932-2.408,1.4a.325.325,0,0,1-.4-.012C11.211,3.918,10.54,3.5,9.88,3.063a.374.374,0,0,0-.456-.028Q6.174,4.928,2.913,6.8a.37.37,0,0,0-.216.371q.008,4.106,0,8.213c0,.137,0,.252.153.339,1.331.76,2.657,1.531,4.028,2.323V12.4c.163-.054.24.053.329.1q5.534,3.189,11.066,6.381a.421.421,0,0,1,.254.418q-.01,6.431,0,12.862v.213c-.122.053-.179-.024-.241-.06q-5.577-3.215-11.154-6.432a.424.424,0,0,1-.236-.431m27.035.483c-1.1.619-2.191,1.264-3.293,1.884a.42.42,0,0,0-.231.433c.005,2.036,0,4.072.008,6.107a1.515,1.515,0,0,1-.829,1.438q-4.114,2.359-8.215,4.742a1.471,1.471,0,0,1-1.6,0q-4.146-2.405-8.3-4.8a1.271,1.271,0,0,1-.72-1.081c-.025-1.422-.009-2.844-.009-4.323.335.191.634.36.933.532.489.281.969.582,1.471.84a.487.487,0,0,1,.295.532c-.02.44,0,.882-.009,1.323a.317.317,0,0,0,.189.319Q17,35.828,20.368,37.781a.342.342,0,0,0,.4,0q3.37-1.954,6.747-3.9c.1-.055.2-.094.2-.242,0-1.354,0-2.707,0-4.118L22.7,32.418c-.113-.075-.066-.175-.066-.256q0-6.43-.005-12.859a.4.4,0,0,1,.222-.4q5.624-3.233,11.24-6.48c.036-.021.075-.036.165-.078,0,.452,0,.864,0,1.277q0,5.886,0,11.773a.546.546,0,0,1-.326.551M41.141,16.3a1.367,1.367,0,0,1-.687,1.275c-1.287.751-2.581,1.492-3.873,2.236a.171.171,0,0,1-.181.033c0-.959,0-1.927,0-2.9,0-.167.118-.2.22-.263.527-.307,1.052-.617,1.587-.91a.42.42,0,0,0,.246-.426q-.011-4.072,0-8.144a.42.42,0,0,0-.241-.426q-3.248-1.862-6.486-3.741c-.115-.067-.212-.139-.366-.038-1.421.922-2.847,1.835-4.31,2.775L32.2,8.761l-2.789,1.611q-4.284,2.473-8.564,4.952a.471.471,0,0,1-.548-.006Q14.726,12.093,9.15,8.877c-.058-.033-.11-.075-.186-.127l4.3-2.481Q16.784,4.236,20.3,2.2a.464.464,0,0,1,.545,0c1.079.638,2.171,1.253,3.25,1.891a.511.511,0,0,0,.631,0C26.657,2.825,28.6,1.59,30.533.331a1.557,1.557,0,0,1,1.8-.046q3.993,2.333,8.008,4.628a1.464,1.464,0,0,1,.8,1.382q-.012,5,0,10.01" transform="translate(0 0)" fill="#fdfdfd"/>
      <path id="Trazado_174666" data-name="Trazado 174666" d="M18.525,32.383V32.17q0-6.431.005-12.862a.421.421,0,0,0-.254-.418Q12.74,15.7,7.209,12.508c-.089-.051-.166-.158-.328-.1v5.645c-1.371-.793-2.7-1.563-4.028-2.324-.153-.087-.153-.2-.153-.339q0-4.107,0-8.213A.37.37,0,0,1,2.913,6.8Q6.174,4.928,9.424,3.036a.374.374,0,0,1,.456.028c.66.435,1.331.855,1.992,1.289a.324.324,0,0,0,.4.012c.788-.464,1.581-.919,2.408-1.4-.074-.055-.107-.083-.143-.106Q12.494,1.548,10.456.238A1.376,1.376,0,0,0,8.921.23Q4.889,2.564.848,4.884A1.554,1.554,0,0,0,0,6.377Q.022,11.3,0,16.219a1.529,1.529,0,0,0,.847,1.459c1.9,1.084,3.8,2.191,5.7,3.275a.593.593,0,0,1,.358.6c-.021,1.3,0,2.6-.013,3.9a.423.423,0,0,0,.236.431q5.58,3.211,11.154,6.432c.062.036.119.114.241.06" transform="translate(0 0)" fill="#12263f"/>
      <path id="Trazado_174667" data-name="Trazado 174667" d="M63.067,4.966q-4.011-2.3-8.008-4.628a1.557,1.557,0,0,0-1.8.045c-1.93,1.259-3.876,2.494-5.806,3.754a.511.511,0,0,1-.631,0c-1.079-.638-2.171-1.254-3.25-1.891a.464.464,0,0,0-.545,0Q39.512,4.3,35.988,6.323L31.688,8.8c.076.052.129.094.186.127q5.574,3.22,11.147,6.441a.471.471,0,0,0,.548.007q4.276-2.486,8.564-4.952l2.789-1.611-5.152-2.98c1.463-.94,2.89-1.853,4.31-2.775.154-.1.251-.028.367.039q3.241,1.872,6.486,3.741a.421.421,0,0,1,.241.426q-.01,4.072,0,8.143a.42.42,0,0,1-.246.426c-.535.293-1.06.6-1.587.91-.1.059-.221.1-.22.263.007.969,0,1.937,0,2.9a.172.172,0,0,0,.181-.033c1.291-.745,2.585-1.485,3.872-2.237a1.366,1.366,0,0,0,.687-1.275q-.006-5.005,0-10.01a1.464,1.464,0,0,0-.8-1.382" transform="translate(-22.724 -0.053)" fill="#0071bc"/>
      <path id="Trazado_174668" data-name="Trazado 174668" d="M61.473,44.905c0-.413,0-.825,0-1.277-.09.042-.129.058-.165.078q-5.619,3.242-11.24,6.48a.4.4,0,0,0-.222.4q.007,6.429.005,12.859c0,.081-.047.181.066.256l5.013-2.891c0,1.41,0,2.764,0,4.118,0,.148-.1.187-.2.242q-3.375,1.946-6.747,3.9a.342.342,0,0,1-.4,0q-3.37-1.954-6.748-3.894a.317.317,0,0,1-.189-.319c.01-.441-.011-.883.009-1.323A.487.487,0,0,0,40.366,63c-.5-.259-.981-.559-1.471-.84-.3-.172-.6-.341-.933-.532,0,1.479-.016,2.9.009,4.323a1.27,1.27,0,0,0,.72,1.081q4.151,2.4,8.3,4.8a1.47,1.47,0,0,0,1.6,0q4.1-2.38,8.215-4.742a1.516,1.516,0,0,0,.829-1.438c-.011-2.036,0-4.071-.008-6.107a.42.42,0,0,1,.231-.433c1.1-.62,2.19-1.265,3.293-1.884a.546.546,0,0,0,.326-.551q-.013-5.886,0-11.773" transform="translate(-27.22 -31.287)" fill="#ff5422"/>
    </g>
  </g>
</svg>
