<svg xmlns="http://www.w3.org/2000/svg" xmlns:xlink="http://www.w3.org/1999/xlink" width="346.31" height="276.848" viewBox="0 0 346.31 276.848"><defs><clipPath id="a"><rect width="278.833" height="186.074" fill="none"/></clipPath><clipPath id="c"><path d="M2.222,0H126.827a2.222,2.222,0,0,1,2.222,2.222V99.658a2.222,2.222,0,0,1-2.222,2.222H2.221A2.221,2.221,0,0,1,0,99.659V2.222A2.222,2.222,0,0,1,2.222,0Z" fill="#f5efef"/></clipPath><clipPath id="e"><rect width="2.721" height="2.884" fill="#4adbd1"/></clipPath><clipPath id="g"><rect width="57.154" height="23.193" fill="none"/></clipPath><clipPath id="h"><rect width="46.209" height="61.315" fill="none"/></clipPath><clipPath id="i"><rect width="104.021" height="131.761" rx="2.268" fill="#f5efef"/></clipPath><clipPath id="k"><rect width="31.068" height="31.068" fill="none"/></clipPath><clipPath id="l"><rect width="16.721" height="16.72" fill="none"/></clipPath><linearGradient id="m" x1="0.5" x2="0.5" y2="1" gradientUnits="objectBoundingBox"><stop offset="0" stop-color="#fdbe41"/><stop offset="1" stop-color="#d09f40"/></linearGradient><clipPath id="p"><rect width="60.564" height="25.843" fill="none"/></clipPath></defs><g transform="translate(0 -0.001)"><g transform="translate(0 15.7)"><g transform="translate(0 0)"><g clip-path="url(#a)"><g transform="translate(0 0)"><g clip-path="url(#a)"><path d="M6.016,139.09V41.207a7.032,7.032,0,0,1,7.032-7.032H144.041a7.032,7.032,0,0,1,7.032,7.032V139.09a7.032,7.032,0,0,1-7.032,7.032H13.048a7.032,7.032,0,0,1-7.032-7.032" transform="translate(7.033 39.952)" fill="#12263f"/></g></g><g transform="translate(22.536 79.162)"><g clip-path="url(#c)"><rect width="159.395" height="145.681" transform="translate(-37.963 16.974) rotate(-24.09)" fill="#f5efef"/></g></g><g transform="translate(0 0)"><g clip-path="url(#a)"><path d="M9.422,64.62a2.467,2.467,0,1,1,2.468-2.468A2.468,2.468,0,0,1,9.422,64.62" transform="translate(8.13 69.774)" fill="#6f95d4"/><rect width="30.319" height="26.989" transform="translate(71.09 126.115)" fill="#f4a338"/><path d="M34.292,61.8a11.869,11.869,0,1,1,23.738,0v5.935" transform="translate(40.089 58.376)" fill="none" stroke="#12263f" stroke-miterlimit="10" stroke-width="0.851"/><path d="M45.427,67.709a3.68,3.68,0,1,1-3.679-3.679,3.678,3.678,0,0,1,3.679,3.679" transform="translate(44.502 74.854)" fill="#12263f"/><path d="M43.7,64.4a2.558,2.558,0,1,1-2.557-2.557A2.558,2.558,0,0,1,43.7,64.4" transform="translate(45.106 72.302)" fill="#12263f"/><rect width="16.955" height="0.575" transform="translate(26.482 117.393)" fill="#407cca"/><rect width="16.955" height="0.575" transform="translate(26.482 119.655)" fill="#407cca"/><rect width="16.955" height="0.575" transform="translate(26.482 121.827)" fill="#407cca"/><rect width="8.928" height="0.575" transform="translate(26.482 123.983)" fill="#407cca"/><rect width="35.297" height="0.575" transform="translate(110.576 135.147)" fill="#407cca"/><rect width="35.297" height="0.575" transform="translate(110.576 137.409)" fill="#407cca"/><rect width="35.297" height="0.575" transform="translate(110.576 139.58)" fill="#407cca"/><rect width="35.507" height="0.575" transform="translate(110.578 141.736)" fill="#407cca"/><g transform="translate(110.577 130.836)" opacity="0.9"><g clip-path="url(#e)"><rect width="2.72" height="2.883" transform="translate(0 0.001)" fill="#4adbd1"/></g></g><rect width="35.297" height="0.575" transform="translate(110.576 149.898)" fill="#407cca"/><rect width="35.297" height="0.575" transform="translate(110.576 152.161)" fill="#407cca"/><rect width="35.297" height="0.575" transform="translate(110.576 154.332)" fill="#407cca"/><rect width="35.507" height="0.575" transform="translate(110.578 156.488)" fill="#407cca"/><g transform="translate(110.577 145.587)" opacity="0.9"><g clip-path="url(#e)"><rect width="2.72" height="2.883" transform="translate(0 0.001)" fill="#4adbd1"/></g></g><g transform="translate(0.852 88.884)" style="mix-blend-mode:multiply;isolation:isolate"><g clip-path="url(#g)"><path d="M55.239,64.172H2.7A2.314,2.314,0,0,1,.393,61.864V43.286A2.314,2.314,0,0,1,2.7,40.978H55.239a2.315,2.315,0,0,1,2.308,2.308V61.864a2.315,2.315,0,0,1-2.308,2.308" transform="translate(-0.392 -40.979)" fill="#c7d4e2"/></g></g><path d="M54.846,63.636H2.306A2.313,2.313,0,0,1,0,61.328V43.744a2.313,2.313,0,0,1,2.306-2.308H54.846a2.315,2.315,0,0,1,2.308,2.308V61.328a2.315,2.315,0,0,1-2.308,2.308" transform="translate(0 48.44)" fill="#fff"/><path d="M15.605,52.08A7.016,7.016,0,0,0,8.638,47.3a7,7,0,0,0-6.973,4.772Z" transform="translate(1.946 55.3)" fill="#12263f"/><path d="M10,47.093a3.325,3.325,0,1,1-3.325-3.325A3.324,3.324,0,0,1,10,47.093" transform="translate(3.913 51.167)" fill="#12263f"/><rect width="35.297" height="0.575" transform="translate(19.374 97.653)" fill="#407cca"/><rect width="35.297" height="0.575" transform="translate(19.374 99.915)" fill="#407cca"/><rect width="35.297" height="0.575" transform="translate(19.374 102.086)" fill="#407cca"/><rect width="18.587" height="0.575" transform="translate(19.374 104.24)" fill="#407cca"/><rect width="35.297" height="0.575" transform="translate(19.374 97.653)" fill="#407cca"/><rect width="35.297" height="0.575" transform="translate(19.374 99.915)" fill="#407cca"/><rect width="35.297" height="0.575" transform="translate(19.374 102.086)" fill="#407cca"/><rect width="18.587" height="0.575" transform="translate(19.374 104.24)" fill="#407cca"/><path d="M48.52,54.436l1.262,1.31a9.933,9.933,0,0,1,7.581-3.182,10.867,10.867,0,0,1,7.394,3.182l1.31-1.31s-8.143-8.236-17.548,0" transform="translate(56.722 59.359)" fill="#6f95d4"/><path d="M49.534,54.9l1.4,1.4s4.119-4.679,10.342,0l1.262-1.4s-5.8-5.85-13.008,0" transform="translate(57.907 61.141)" fill="#6f95d4"/><path d="M51.97,56.883s2.807-2.854,5.616,0l1.4-1.5a6.4,6.4,0,0,0-8.377,0Z" transform="translate(59.168 62.9)" fill="#6f95d4"/><path d="M54.955,56.954a1.567,1.567,0,1,1-1.568-1.568,1.569,1.569,0,0,1,1.568,1.568" transform="translate(60.581 64.748)" fill="#6f95d4"/><rect width="35.297" height="0.575" transform="translate(85.45 165.902)" fill="#407cca"/><rect width="35.297" height="0.575" transform="translate(85.45 168.164)" fill="#407cca"/><rect width="35.297" height="0.575" transform="translate(85.45 170.335)" fill="#407cca"/><rect width="35.509" height="0.575" transform="translate(85.45 172.491)" fill="#407cca"/><circle cx="5.256" cy="5.256" r="5.256" transform="translate(72.004 164.198)" fill="none" stroke="#12263f" stroke-miterlimit="10" stroke-width="0.479"/><line x1="7.412" y2="7.412" transform="translate(73.554 165.778)" fill="none" stroke="#12263f" stroke-miterlimit="10" stroke-width="0.479"/><rect width="55.658" height="15.209" rx="1.503" transform="translate(68.073 161.849)" fill="none" stroke="#407cca" stroke-miterlimit="10" stroke-width="0.106"/><g transform="translate(113.586 21.64)" style="mix-blend-mode:multiply;isolation:isolate"><g clip-path="url(#h)"><path d="M96.221,71.292h-41.5a2.363,2.363,0,0,1-2.356-2.356v-56.6a2.362,2.362,0,0,1,2.356-2.356h41.5a2.363,2.363,0,0,1,2.356,2.356v56.6a2.365,2.365,0,0,1-2.356,2.356" transform="translate(-52.367 -9.977)" fill="#c7d4e2"/></g></g><path d="M95.019,70.014H55.04a2.362,2.362,0,0,1-2.356-2.356V12.65a2.362,2.362,0,0,1,2.356-2.358h39.98a2.364,2.364,0,0,1,2.356,2.358V67.659a2.363,2.363,0,0,1-2.356,2.356" transform="translate(61.59 12.032)" fill="#fff"/><rect width="35.783" height="0.534" transform="translate(119.714 31.649)" fill="#407cca"/><rect width="35.783" height="0.534" transform="translate(119.714 33.753)" fill="#407cca"/><rect width="35.783" height="0.534" transform="translate(119.714 35.77)" fill="#407cca"/><rect width="18.845" height="0.534" transform="translate(119.712 37.774)" fill="#407cca"/><rect width="35.783" height="0.534" transform="translate(119.714 42.173)" fill="#407cca"/><rect width="35.783" height="0.534" transform="translate(119.714 44.277)" fill="#407cca"/><rect width="35.783" height="0.534" transform="translate(119.714 46.294)" fill="#407cca"/><rect width="35.783" height="0.534" transform="translate(119.714 48.296)" fill="#407cca"/><rect width="35.783" height="0.534" transform="translate(119.946 63.648)" fill="#407cca"/><rect width="35.783" height="0.534" transform="translate(119.946 65.752)" fill="#407cca"/><rect width="35.783" height="0.534" transform="translate(119.946 67.77)" fill="#407cca"/><rect width="35.783" height="0.534" transform="translate(119.946 69.772)" fill="#407cca"/><rect width="35.783" height="0.534" transform="translate(119.714 53.02)" fill="#407cca"/><rect width="35.783" height="0.534" transform="translate(119.714 55.122)" fill="#407cca"/><rect width="35.783" height="0.534" transform="translate(119.714 57.139)" fill="#407cca"/><rect width="18.168" height="0.534" transform="translate(119.714 59.143)" fill="#407cca"/><path d="M80.243,29.18A11.133,11.133,0,1,1,69.11,18.046,11.133,11.133,0,0,1,80.243,29.18" transform="translate(67.779 21.096)" fill="#afafaf"/><path d="M66.547,19.839l6.718,8.533h-3.9v5.9H63.733V28.464h-3.9Z" transform="translate(69.943 23.193)" fill="#fff"/><path d="M173.052,162.679H73.114a7.18,7.18,0,0,1-7.18-7.18V21.754a7.18,7.18,0,0,1,7.18-7.182h99.939a7.18,7.18,0,0,1,7.18,7.182V155.5a7.18,7.18,0,0,1-7.18,7.18" transform="translate(77.08 17.035)" fill="#12263f"/></g></g><g transform="translate(148.152 38.267)"><g clip-path="url(#i)"><rect width="148.742" height="162.744" transform="translate(-49.097 21.952) rotate(-24.09)" fill="#f5efef"/></g></g><g transform="translate(0 0)"><g clip-path="url(#a)"><path d="M97.019,82.092A2.519,2.519,0,1,1,94.5,79.574a2.519,2.519,0,0,1,2.518,2.518" transform="translate(107.529 93.025)" fill="#6f95d4"/><path d="M74.077,38.834H93.653s.362-11.917-9.789-11.923c-10.177-.009-9.787,11.923-9.787,11.923" transform="translate(86.597 31.46)" fill="#afafaf"/><path d="M86.531,26.328a5.161,5.161,0,1,1-5.16-5.16,5.16,5.16,0,0,1,5.16,5.16" transform="translate(89.092 24.746)" fill="#afafaf"/><rect width="43.641" height="1.534" transform="translate(160.674 72.85)" fill="#407cca"/><rect width="43.641" height="1.534" transform="translate(160.674 76.58)" fill="#407cca"/><rect width="43.641" height="1.534" transform="translate(160.674 80.511)" fill="#407cca"/><rect width="43.641" height="1.534" transform="translate(160.674 84.712)" fill="#407cca"/><rect width="43.641" height="1.534" transform="translate(197.197 149.113)" fill="#407cca"/><rect width="43.641" height="1.534" transform="translate(197.197 152.844)" fill="#407cca"/><rect width="43.641" height="1.534" transform="translate(197.197 156.776)" fill="#407cca"/><rect width="43.641" height="1.534" transform="translate(197.197 160.978)" fill="#407cca"/><path d="M106.117,42.257A35.85,35.85,0,0,1,81.27,47.226S75.858,82.966,104.7,92.835a4.4,4.4,0,0,0,2.841,0c29.568-7.4,23.426-45.608,23.426-45.608a35.85,35.85,0,0,1-24.846-4.969" transform="translate(94.537 49.4)" fill="#373f51"/><path d="M103.881,44.184a29.94,29.94,0,0,1-20.756,4.152S78.6,78.19,102.695,86.437a3.7,3.7,0,0,0,2.375,0c24.7-6.18,19.567-38.1,19.567-38.1a29.94,29.94,0,0,1-20.756-4.152" transform="translate(96.784 51.653)" fill="#fff"/><path d="M102.832,45.088A27.179,27.179,0,0,1,84,48.856s-4.1,27.094,17.758,34.577a3.344,3.344,0,0,0,2.156,0c22.415-5.607,17.758-34.577,17.758-34.577a27.179,27.179,0,0,1-18.836-3.768" transform="translate(97.837 52.71)" fill="#1565c0"/><path d="M102.275,81.154a4.666,4.666,0,0,1-.948-.134C80.678,76.059,84.706,49.395,84.706,49.395a24.978,24.978,0,0,0,17.281-3.627Z" transform="translate(98.654 53.505)" fill="#1565c0"/><path d="M102.711,66.136h-11.4a2.362,2.362,0,0,1-2.356-2.356V54.675a2.362,2.362,0,0,1,2.356-2.356h11.4a2.363,2.363,0,0,1,2.353,2.356V63.78a2.363,2.363,0,0,1-2.353,2.356" transform="translate(103.997 61.163)" fill="#fff"/><path d="M100.262,57.7s1.108-8.978-4.614-9.229c-3.332-.147-5.1,2.128-5.1,5.24" transform="translate(105.853 56.654)" fill="none" stroke="#fff" stroke-miterlimit="10" stroke-width="0.624"/><path d="M96.308,56.247a2.363,2.363,0,1,0-3.546,2.043v2.625h2.29V58.336a2.366,2.366,0,0,0,1.256-2.089" transform="translate(107.063 62.991)" fill="#3b5cad"/><g transform="translate(130.932 92.727)" style="mix-blend-mode:multiply;isolation:isolate"><g clip-path="url(#k)"><path d="M91.431,58.285A15.534,15.534,0,1,1,75.9,42.75,15.535,15.535,0,0,1,91.431,58.285" transform="translate(-60.364 -42.75)" fill="#c7d4e2"/></g></g><path d="M90.4,58.075A15.146,15.146,0,1,1,75.251,42.929,15.147,15.147,0,0,1,90.4,58.075" transform="translate(70.265 50.186)" fill="#ff5422"/><path d="M65.874,44.82l5.921.028L70.526,60.81H66.655Z" transform="translate(77.009 52.396)" fill="#fff"/><path d="M70.635,55.329A2.382,2.382,0,1,1,68.4,52.811a2.38,2.38,0,0,1,2.238,2.518" transform="translate(77.01 61.734)" fill="#fff"/><line x1="5.642" transform="translate(121.222 107.832)" fill="none" stroke="#12263f" stroke-miterlimit="10" stroke-width="0.469"/><line x1="4.989" y1="2.633" transform="translate(122.961 98.756)" fill="none" stroke="#12263f" stroke-miterlimit="10" stroke-width="0.469"/><line x1="2.694" y1="4.956" transform="translate(129.973 91.597)" fill="none" stroke="#12263f" stroke-miterlimit="10" stroke-width="0.469"/><line x1="4.989" y2="2.633" transform="translate(122.88 114.275)" fill="none" stroke="#12263f" stroke-miterlimit="10" stroke-width="0.469"/><line x1="2.694" y2="4.956" transform="translate(129.345 119.968)" fill="none" stroke="#12263f" stroke-miterlimit="10" stroke-width="0.469"/><path d="M125.265.131c2.514,19.671,1.579,45.815-3.312,65.034" transform="translate(142.569 0.153)" fill="none" stroke="#c7d4e2" stroke-miterlimit="10" stroke-width="0.217"/><path d="M140.05,24.408H97.6a2.81,2.81,0,0,1-2.388-1.3c-1.349-2.154-2.139-5.26-1.54-7.427a8.152,8.152,0,0,1,5.609-5.59A8.93,8.93,0,0,1,106.094.926,10.347,10.347,0,0,1,116.815,5.6c.384.618.777,1.33,1.475,1.531a3.073,3.073,0,0,0,2.013-.447,9.521,9.521,0,0,1,13.318,8.173,6.227,6.227,0,0,1,8.394,7.715s-.345,1.831-1.965,1.831" transform="translate(109.264 0.822)" fill="#ffd800"/><g transform="translate(217.67 11.126)" opacity="0.8" style="mix-blend-mode:multiply;isolation:isolate"><g clip-path="url(#l)"><path d="M117.074,13.489a8.361,8.361,0,1,1-8.359-8.359,8.36,8.36,0,0,1,8.359,8.359" transform="translate(-100.353 -5.129)" fill="#407cca"/></g></g><path d="M116.691,13.369a8.359,8.359,0,1,1-8.36-8.359,8.36,8.36,0,0,1,8.36,8.359" transform="translate(116.872 5.857)" fill="#12263f"/><path d="M102.067,11.98l2.766,2.518,5.423-7.167" transform="translate(119.32 8.571)" fill="none" stroke="#fff" stroke-miterlimit="10" stroke-width="0.633"/><path d="M73.134,74.092l14.838-.028A2.375,2.375,0,0,0,90.3,71.689V59.6L78.45,59.67V58H73.134V74.092Z" transform="translate(85.497 67.809)" fill="#636363"/><rect width="10.218" height="11.613" transform="translate(161.156 124.434)" fill="#fff"/><path d="M90.3,71.68l-.017-11.635H77.492v3.492H72.124v8.169" transform="translate(84.316 70.195)" fill="url(#m)"/><path d="M82.323,60.046V70.525a1.181,1.181,0,1,1-2.362,0V60.046Z" transform="translate(93.478 70.196)" fill="#afafaf"/><rect width="8.787" height="0.308" transform="translate(161.871 126.162)" fill="#407cca"/><rect width="8.787" height="0.31" transform="translate(161.871 126.911)" fill="#407cca"/><rect width="8.787" height="0.308" transform="translate(161.871 127.705)" fill="#407cca"/><rect width="3.98" height="0.308" transform="translate(161.871 128.551)" fill="#407cca"/><path d="M73.119,84.214l14.838-.028a2.375,2.375,0,0,0,2.332-2.375V69.727l-11.852.065V68.126H73.119V84.214Z" transform="translate(85.479 79.642)" fill="#636363"/><rect width="10.218" height="11.613" transform="translate(161.125 146.389)" fill="#fff"/><path d="M90.288,81.8l-.017-11.633H77.478v3.49H72.109v8.169" transform="translate(84.299 82.029)" fill="url(#m)"/><path d="M82.308,70.168V80.647a1.181,1.181,0,1,1-2.362,0V70.168Z" transform="translate(93.46 82.029)" fill="#afafaf"/><rect width="8.787" height="0.308" transform="translate(161.841 148.118)" fill="#407cca"/><rect width="8.787" height="0.31" transform="translate(161.841 148.866)" fill="#407cca"/><rect width="8.787" height="0.31" transform="translate(161.841 149.658)" fill="#407cca"/><rect width="3.98" height="0.308" transform="translate(161.839 150.506)" fill="#407cca"/><rect width="60.18" height="24.872" transform="translate(185.985 45.324)" fill="none" stroke="#407cca" stroke-miterlimit="10" stroke-width="0.109"/></g></g><text transform="translate(194.252 48.958)" fill="#407cca" font-size="1" font-family="SegoeUI, Segoe UI"><tspan x="0" y="0">P</tspan><tspan y="0" letter-spacing="0.002em">R</tspan><tspan y="0">OFILE INFOR</tspan><tspan y="0" letter-spacing="-0.009em">M</tspan><tspan y="0" letter-spacing="-0.077em">A</tspan><tspan y="0">TION</tspan></text><g transform="translate(0 0)"><g clip-path="url(#a)"><rect width="43.641" height="0.651" transform="translate(194.255 54.434)" fill="#407cca"/><rect width="43.641" height="0.651" transform="translate(194.255 56.998)" fill="#407cca"/><rect width="43.641" height="0.651" transform="translate(194.255 59.46)" fill="#407cca"/><rect width="43.641" height="0.651" transform="translate(194.255 61.902)" fill="#407cca"/><path d="M116.45,26.372a4.194,4.194,0,1,1-4.195-4.195,4.2,4.2,0,0,1,4.195,4.195" transform="translate(126.329 25.926)" fill="#12263f"/><path d="M110.032,23.075l.642.965c.167.252.306.484.453.735h.028c.15-.269.3-.5.447-.744l.631-.957h.883l-1.533,2.173,1.579,2.323h-.928l-.659-1.013c-.176-.26-.325-.512-.484-.781h-.017c-.15.269-.308.512-.475.781l-.651,1.013h-.9l1.6-2.295-1.523-2.2Z" transform="translate(127.481 26.975)" fill="#fff"/><g transform="translate(218.269 65.147)" style="mix-blend-mode:multiply;isolation:isolate"><g clip-path="url(#p)"><path d="M157.313,30.035h-52.8a3.881,3.881,0,0,0-3.88,3.88V52a3.881,3.881,0,0,0,3.88,3.88h52.8a3.881,3.881,0,0,0,3.88-3.88V33.915a3.881,3.881,0,0,0-3.88-3.88" transform="translate(-100.629 -30.035)" fill="#c7d4e2"/></g></g><path d="M160.536,36.8V33.481a3.881,3.881,0,0,0-3.88-3.88h-52.8a3.881,3.881,0,0,0-3.88,3.88V36.8Z" transform="translate(116.872 34.605)" fill="#636363"/><path d="M99.972,32.919V47.686a3.881,3.881,0,0,0,3.88,3.88h52.8a3.88,3.88,0,0,0,3.88-3.88V32.919Z" transform="translate(116.872 38.484)" fill="#fff"/><path d="M107.787,36.242h1.059l-.158,1.809,1.5-1.141.538.922-1.7.833,1.7.883-.538.926-1.5-1.178.158,1.839h-1.059l.2-1.874-1.505,1.167-.529-.928,1.655-.835-1.694-.787.536-.92,1.531,1.113Z" transform="translate(123.817 42.369)" fill="#407cca"/><path d="M111.343,36.242H112.4l-.161,1.809,1.5-1.141.538.922-1.7.833,1.7.883-.538.926-1.5-1.178.161,1.839h-1.061l.2-1.874-1.505,1.167-.529-.928,1.657-.835-1.7-.787.536-.92,1.531,1.113Z" transform="translate(127.974 42.369)" fill="#407cca"/><path d="M114.9,36.242h1.061l-.161,1.809,1.5-1.141.538.922-1.7.833,1.7.883-.538.926L115.8,39.3l.161,1.839H114.9l.2-1.874-1.5,1.167-.531-.928,1.657-.835-1.7-.787.536-.92,1.531,1.113Z" transform="translate(132.132 42.369)" fill="#407cca"/><path d="M118.456,36.242h1.059l-.158,1.809,1.5-1.141.538.922-1.7.833,1.7.883-.538.926-1.5-1.178.158,1.839h-1.059l.2-1.874-1.505,1.167-.529-.928,1.655-.835-1.694-.787.536-.92,1.531,1.113Z" transform="translate(136.289 42.369)" fill="#407cca"/><path d="M122.012,36.242h1.061l-.161,1.809,1.5-1.141.538.922-1.7.833,1.7.883-.538.926-1.5-1.178.161,1.839h-1.061l.2-1.874-1.505,1.167-.529-.928,1.657-.835-1.7-.787.536-.92,1.529,1.113Z" transform="translate(140.447 42.369)" fill="#407cca"/></g></g><text transform="translate(243.041 66.453)" fill="#fff" font-size="1" font-family="OpenSans-Semibold, Open Sans" font-weight="600"><tspan x="0" y="0" letter-spacing="-0.038em">L</tspan><tspan y="0">OGIN</tspan></text></g><g transform="translate(0.781 260.876)"><path d="M390.115,475.707c0,.075-77.355.136-172.756.136-95.434,0-172.773-.061-172.773-.136s77.339-.136,172.773-.136C312.759,475.571,390.115,475.632,390.115,475.707Z" transform="translate(-44.586 -475.571)" fill="#263238"/></g><g transform="translate(95.432 202.249)"><g transform="translate(0.979)"><path d="M262.332,420.084a28.657,28.657,0,1,1,5.091-54.332h0a28.653,28.653,0,0,1-5.091,54.332ZM250.395,366a26.721,26.721,0,1,0,16.273,1.515A26.727,26.727,0,0,0,250.395,366Z" transform="translate(-227.479 -363.446)" fill="#455a64"/></g><g transform="translate(0.979)"><path d="M262.332,420.084a28.657,28.657,0,1,1,5.091-54.332h0a28.653,28.653,0,0,1-5.091,54.332ZM250.395,366a26.721,26.721,0,1,0,16.273,1.515A26.727,26.727,0,0,0,250.395,366Z" transform="translate(-227.479 -363.446)" fill="#263238"/></g><g transform="translate(0 1.2)"><path d="M260.459,422.379a28.657,28.657,0,1,1,5.091-54.332h0a28.653,28.653,0,0,1-5.091,54.332ZM248.522,368.3a26.72,26.72,0,1,0,16.273,1.515A26.726,26.726,0,0,0,248.522,368.3Z" transform="translate(-225.606 -365.741)" fill="#455a64"/></g><g transform="translate(54.064 35.883)"><path d="M375.761,452.266l-.461,1.182c-.411,1.055-2.246,1.331-3.382.883L329,437.624l2.162-5.551,42.849,16.681A2.867,2.867,0,0,1,375.761,452.266Z" transform="translate(-329.005 -432.073)" fill="#455a64"/></g><g transform="translate(16.846 18.996)"><path d="M282.333,399.776c.047.059-5.4,4.55-12.167,10.031s-12.293,9.879-12.34,9.821,5.4-4.549,12.168-10.032S282.285,399.718,282.333,399.776Z" transform="translate(-257.825 -399.776)" fill="#263238"/></g><g transform="translate(15.754 17.335)"><path d="M273.906,396.6c.048.058-3.981,3.486-9,7.656s-9.124,7.505-9.172,7.447,3.98-3.485,9-7.656S273.858,396.541,273.906,396.6Z" transform="translate(-255.736 -396.599)" fill="#263238"/></g><g transform="translate(28.259 27.745)"><path d="M292.144,416.51c.048.058-2.709,2.429-6.158,5.3s-6.284,5.145-6.333,5.087,2.709-2.428,6.159-5.3S292.1,416.453,292.144,416.51Z" transform="translate(-279.653 -416.509)" fill="#263238"/></g></g><g transform="translate(205.257 65.651)"><g transform="translate(31.972)"><g transform="translate(27.808)"><path d="M562.036,109.026a1.306,1.306,0,0,0-.9-.387,4.748,4.748,0,0,0-2.784.538,4.067,4.067,0,0,0,.563-4.869,4.594,4.594,0,0,0-4.542-2.058,5.286,5.286,0,0,0-3.953,3.162,6.242,6.242,0,0,0,.223,5.123l2.906.762a8.139,8.139,0,0,0,4.573,1.405,2.393,2.393,0,0,0,1.8-.592c.439-.481.365-1.423-.255-1.621a3.013,3.013,0,0,0,1.811.025C562.048,110.276,562.422,109.5,562.036,109.026Z" transform="translate(-549.978 -102.2)" fill="#263238"/></g><g transform="translate(0 1.948)"><path d="M521.585,106.985a7.1,7.1,0,0,0-5.465.565,4.218,4.218,0,0,0-7.281,1.114,3.569,3.569,0,0,0-3.584,6.082,4.584,4.584,0,0,0-1.918,6.972c-1.374.666-1.608,2.525-1.406,4.038s.638,3.135-.04,4.5c-.524,1.056-1.6,1.71-2.344,2.628s-1,2.5,0,3.123a3.189,3.189,0,1,0,1.154,6.265,3.907,3.907,0,0,0,.416,3.75,6.3,6.3,0,0,0,3.135,2.286,9.372,9.372,0,0,0,10.236-2.887l11.283-34.888A7.1,7.1,0,0,0,521.585,106.985Z" transform="translate(-496.795 -105.925)" fill="#263238"/></g><g transform="translate(9.261 6.279)"><g transform="translate(1.255 1.612)"><path d="M536.547,122.076l.151-1.882-11.189-2.834c-3.468-.579-7.453,2.692-7.883,6.181A62.485,62.485,0,0,0,517,135.1c.576,5.894,5.006,6.907,5.006,6.907l-.324,5.8,12.9.939Z" transform="translate(-516.907 -117.293)" fill="#ae7461"/></g><g transform="translate(3.336 12.389)"><path d="M520.891,138.538a.75.75,0,0,0,.677.8.718.718,0,0,0,.813-.628.751.751,0,0,0-.676-.8A.719.719,0,0,0,520.891,138.538Z" transform="translate(-520.888 -137.904)" fill="#263238"/></g><g transform="translate(3.047 9.711)"><path d="M520.345,133.486c.087.1.68-.282,1.485-.232s1.372.489,1.465.4c.046-.041-.039-.223-.285-.426a2.059,2.059,0,0,0-1.165-.438,1.974,1.974,0,0,0-1.189.306C520.4,133.268,520.3,133.439,520.345,133.486Z" transform="translate(-520.335 -132.783)" fill="#263238"/></g><g transform="translate(10.651 12.786)"><path d="M534.88,139.3a.751.751,0,0,0,.677.8.717.717,0,0,0,.813-.629.751.751,0,0,0-.676-.8A.719.719,0,0,0,534.88,139.3Z" transform="translate(-534.877 -138.662)" fill="#263238"/></g><g transform="translate(10.958 10.338)"><path d="M535.475,134.685c.087.1.68-.282,1.486-.232s1.371.489,1.465.4c.045-.041-.038-.223-.285-.426a2.052,2.052,0,0,0-1.166-.438,1.976,1.976,0,0,0-1.19.306C535.527,134.467,535.432,134.638,535.475,134.685Z" transform="translate(-535.465 -133.982)" fill="#263238"/></g><g transform="translate(5.666 10.149)"><path d="M527.362,140.311a5.342,5.342,0,0,0-1.294-.315c-.2-.033-.4-.086-.423-.229a1.055,1.055,0,0,1,.174-.6l.7-1.53a26.935,26.935,0,0,0,1.613-4.016A27.047,27.047,0,0,0,526.2,137.5q-.355.806-.678,1.541a1.194,1.194,0,0,0-.156.8.519.519,0,0,0,.32.321,1.4,1.4,0,0,0,.346.07A5.226,5.226,0,0,0,527.362,140.311Z" transform="translate(-525.343 -133.62)" fill="#263238"/></g><g transform="translate(6.271 24.726)"><path d="M526.584,163.114a15.484,15.484,0,0,0,8.145-1.615s-2.218,3.969-8.228,3.071Z" transform="translate(-526.5 -161.499)" fill="#6f4439"/></g><g transform="translate(11.15 7.655)"><path d="M535.836,129.455c.079.22.885.116,1.832.23.95.1,1.713.372,1.839.176.056-.094-.077-.3-.386-.513a3.21,3.21,0,0,0-2.8-.309C535.977,129.178,535.8,129.351,535.836,129.455Z" transform="translate(-535.832 -128.85)" fill="#263238"/></g><g transform="translate(3.236 7.677)"><path d="M520.712,129.634c.129.192.7.041,1.365.078.669.014,1.223.208,1.367.026.063-.089-.013-.278-.248-.468a1.98,1.98,0,0,0-2.2-.084C520.746,129.357,520.656,129.54,520.712,129.634Z" transform="translate(-520.696 -128.891)" fill="#263238"/></g><path d="M516.5,117.871a9.8,9.8,0,0,1,5.33-3.519l9.452,1.189.805-.014c.177-.6,1.182-.908,1.182-.908.888-.681,3.965-.718,6.11,1.524a7.3,7.3,0,0,1,1.341,3.961c.006.424-.447,1-.093,1.237a10.83,10.83,0,0,0,1.29.092c2.4.527,3.907,2.658,3.471,5.846a1.62,1.62,0,0,0-.052.481,1.316,1.316,0,0,0,.421.626,4.172,4.172,0,0,1,.662,4.643,4.951,4.951,0,0,0-.643,1.393c-.146.909.518,1.72,1.032,2.483,1.543,2.29,1.874,5.617.063,7.7a4.365,4.365,0,0,0-1.172,1.609,3.887,3.887,0,0,0-.052.98c.012,1.663-.865,3.525-2.492,3.876-.9.195-2-.06-2.641.6a3.918,3.918,0,0,0-.576,1.054,3.373,3.373,0,0,1-3.887,1.673c-1.467-.452-1.953-6.4-1.741-7.924-1.776-.646-3.091-.76-3.008-2.649a16.62,16.62,0,0,0-.252-4.833c-.526-1.583.529-4.953,1.131-6.589s-.115-5.446-.276-6.96a5.488,5.488,0,0,1,.125-1.3v0l0,0c.066-.368.152-.783.254-1.227.037-.414.378-2.625.372-3.012-.023-1.432-1.8-.666-3.158-.21a3.481,3.481,0,0,1-1.018.184,3.628,3.628,0,0,1-2.92-1.384,5.218,5.218,0,0,1-5.151,1.409,14.221,14.221,0,0,1-2.443,2.842,4.789,4.789,0,0,1-3.462,1.191A9.8,9.8,0,0,1,516.5,117.871Z" transform="translate(-514.507 -114.21)" fill="#263238"/><g transform="translate(8.197 18.2)"><path d="M530.255,149.612a1.426,1.426,0,0,1,1.25-.593,1.3,1.3,0,0,1,.922.437.824.824,0,0,1,.11.939.956.956,0,0,1-1.023.314,2.992,2.992,0,0,1-1.04-.552.869.869,0,0,1-.237-.223.264.264,0,0,1-.014-.294" transform="translate(-530.184 -149.017)" fill="#6f4439"/></g><g transform="translate(7.778 17.337)"><path d="M531.8,147.368c-.129,0-.087.857-.791,1.5s-1.621.6-1.622.717c-.009.054.212.156.6.147a2.137,2.137,0,0,0,1.356-.55,1.861,1.861,0,0,0,.609-1.257C531.961,147.568,531.854,147.359,531.8,147.368Z" transform="translate(-529.382 -147.368)" fill="#263238"/></g></g></g><g transform="translate(22.334 176.853)"><g transform="translate(0.01)"><path d="M489.525,440.988l1.064,11.079s-12.076,4.511-12.207,6.744l22.83.062-.013-1.67-.957-5.7-1.412-11.071Z" transform="translate(-478.382 -440.433)" fill="#455a64"/></g><g transform="translate(17.95 9.876)"><path d="M513.832,459.36a.953.953,0,0,1,.663,1.087.917.917,0,0,1-1.072.666,1.006,1.006,0,0,1-.7-1.155.952.952,0,0,1,1.192-.569" transform="translate(-512.693 -459.321)" fill="#e0e0e0"/></g><g transform="translate(0 16.77)"><path d="M501.2,474.176l-.013-1.67-21.9.42s-1.039.455-.92,1.187Z" transform="translate(-478.364 -472.506)" fill="#263238"/></g><g transform="translate(11.837 11.41)"><path d="M501,462.361c0,.114.575.165,1.137.53s.863.844.968.8c.105-.022-.067-.7-.756-1.135S500.978,462.256,501,462.361Z" transform="translate(-501.002 -462.254)" fill="#263238"/></g><g transform="translate(9.388 12.49)"><path d="M496.32,464.366c-.026.111.469.3.857.785s.5.991.615.986c.108.018.185-.65-.31-1.24S496.323,464.258,496.32,464.366Z" transform="translate(-496.319 -464.32)" fill="#263238"/></g><g transform="translate(7.087 13.506)"><path d="M492.836,468.23c.1.024.261-.546-.034-1.171s-.829-.871-.877-.776c-.064.094.283.429.517.945S492.723,468.219,492.836,468.23Z" transform="translate(-491.918 -466.263)" fill="#263238"/></g><g transform="translate(11.024 8.44)"><path d="M499.45,456.986c.048.1.572-.055,1.216-.013s1.148.245,1.207.146c.066-.083-.425-.5-1.185-.543S499.394,456.9,499.45,456.986Z" transform="translate(-499.446 -456.574)" fill="#263238"/></g></g><g transform="translate(50.48 177.232)"><g transform="translate(0.009)"><path d="M543.263,441.647l.978,10.89s-11.891,4.359-12.033,6.551l22.429.2,0-1.641-.906-5.6-1.32-10.885Z" transform="translate(-532.208 -441.158)" fill="#455a64"/></g><g transform="translate(17.68 9.693)"><path d="M567.128,459.736a.937.937,0,0,1,.644,1.072.9.9,0,0,1-1.057.648.989.989,0,0,1-.677-1.139.935.935,0,0,1,1.175-.552" transform="translate(-566.004 -459.696)" fill="#e0e0e0"/></g><g transform="translate(0 16.489)"><path d="M554.629,474.335l0-1.641-21.515.281s-1.024.441-.911,1.161Z" transform="translate(-532.191 -472.694)" fill="#263238"/></g><g transform="translate(11.67 11.159)"><path d="M554.51,462.6c0,.112.564.165,1.114.528s.842.834.945.791c.1-.021-.061-.692-.735-1.119S554.487,462.5,554.51,462.6Z" transform="translate(-554.51 -462.5)" fill="#263238"/></g><g transform="translate(9.258 12.204)"><path d="M549.9,464.543c-.026.108.458.3.837.776s.487.977.6.973c.105.018.185-.638-.3-1.22S549.9,464.436,549.9,464.543Z" transform="translate(-549.898 -464.498)" fill="#263238"/></g><g transform="translate(6.991 13.188)"><path d="M546.452,468.317c.1.024.26-.535-.026-1.15s-.809-.861-.856-.768c-.064.092.275.422.5.931S546.341,468.306,546.452,468.317Z" transform="translate(-545.562 -466.38)" fill="#263238"/></g><g transform="translate(10.887 8.241)"><path d="M553.017,457.318c.047.1.561-.051,1.195-.005s1.126.247,1.185.151-.415-.5-1.162-.541S552.962,457.229,553.017,457.318Z" transform="translate(-553.013 -456.918)" fill="#263238"/></g></g><g transform="translate(27.296 81.056)"><path d="M493.551,257.221s-5.411,15.673-5.6,27.332-.373,30.2,2.052,50.65,3.546,28.669,3.546,28.669h12.316a241.172,241.172,0,0,0,1.12-24.273c-.186-11.468-1.083-15.1.018-27.714s2.844-20.192,4.679-24.015a26.321,26.321,0,0,0,5.457-14.332,40.411,40.411,0,0,0-2.56-15.413Z" transform="translate(-487.853 -257.221)" fill="#263238"/><g transform="translate(16.642 0.712)"><path d="M519.681,279.859c.205.63,3.859,26.325,6.525,37.658s5.632,14.333,6.153,23.552a170.414,170.414,0,0,0,3.51,23.452h13.114s-1.844-19.6-3.688-34.921-4.508-34.211-4.1-39.877,1.434-12.665,0-20.6-4.535-10.032-4.535-10.032l-11.126-.5Z" transform="translate(-519.681 -258.583)" fill="#263238"/></g><g transform="translate(19.921 7.291)"><path d="M535.017,271.165a2.692,2.692,0,0,1,.2.4,7.839,7.839,0,0,1,.445,1.207,15.944,15.944,0,0,1,.432,4.7,30.99,30.99,0,0,1-1.078,6.915,22.16,22.16,0,0,1-1.431,3.89,27.662,27.662,0,0,1-2.369,3.76,22.819,22.819,0,0,0-3.33,7.778,55.438,55.438,0,0,0-1.245,6.856c-.242,1.972-.387,3.575-.5,4.682q-.081.8-.128,1.275a2.677,2.677,0,0,1-.063.443,2.717,2.717,0,0,1,.008-.447q.029-.475.077-1.279c.076-1.11.192-2.717.41-4.7a52.621,52.621,0,0,1,1.192-6.9,33.534,33.534,0,0,1,1.241-3.951,19.5,19.5,0,0,1,.915-2,20.8,20.8,0,0,1,1.193-1.922,27.9,27.9,0,0,0,2.354-3.724,22.24,22.24,0,0,0,1.429-3.838,31.765,31.765,0,0,0,1.128-6.855,16.68,16.68,0,0,0-.342-4.662,9.4,9.4,0,0,0-.392-1.211A2.767,2.767,0,0,1,535.017,271.165Z" transform="translate(-525.952 -271.165)" fill="#455a64"/></g></g><g transform="translate(0 36.466)"><path d="M439.794,184.529a37.286,37.286,0,0,0,6.346,2.618l4.578-3.659s-3.275-5.986-4.329-7.683a9.066,9.066,0,0,1-.854-1.811c-.354-1.274-1.289-.732-1.461.272a5.454,5.454,0,0,0,.285,1.615,4.736,4.736,0,0,1,.319,1.941s-.334-.283-1.157-.838c-.9-.6-3.927-3.13-5.207-4.188-1.912-1.581-2.876-.6-2.626.01.31.759,5.057,4.083,4.887,4.653,0,0-.914.519-1.043,1.111a3,3,0,0,0,.009,1.177s-.856.084-1.086.634a2.138,2.138,0,0,0,.065,1.324s-.794.074-.885.505S438.093,183.512,439.794,184.529Z" transform="translate(-435.649 -171.941)" fill="#ae7461"/></g><g transform="translate(7.536 35.568)"><path d="M456.832,181.024c.068.207,9.817,10.188,9.817,10.188s8.136-9.164,10.613-12.536,6.233-7.505,9.467-8.28,7.726,1.309,7.726,1.309l-5.727,11.777-7.231,9.941s-7.814,9.814-11.529,11.328-7.354-.66-8.936-2.311-10.97-15.92-10.97-15.92Z" transform="translate(-450.062 -170.224)" fill="#afafaf"/><g transform="translate(25.106 0.172)"><path d="M534.057,174.442l-22.434-3.888s-6.229,10.967-8.559,22.49-4.986,23.036-4.986,23.036l20.722,2.553a23.882,23.882,0,0,0,6.491-.089l2.159-.326-1.775-7.317a148.14,148.14,0,0,0,6.407-18.932C534.866,180.648,534.057,174.442,534.057,174.442Z" transform="translate(-498.077 -170.554)" fill="#afafaf"/></g><g transform="translate(28.227 15.018)"><path d="M513.95,198.946a2.64,2.64,0,0,1-.365.491l-1.052,1.285c-.888,1.084-2.093,2.6-3.426,4.276s-2.566,3.176-3.494,4.231c-.463.528-.846.949-1.12,1.231a2.608,2.608,0,0,1-.444.42,2.639,2.639,0,0,1,.364-.491l1.052-1.285c.888-1.084,2.094-2.6,3.427-4.277s2.565-3.175,3.493-4.231c.463-.528.846-.949,1.12-1.23A2.581,2.581,0,0,1,513.95,198.946Z" transform="translate(-504.047 -198.945)" fill="#263238"/></g><g transform="translate(42.481 40.844)"><path d="M541.188,248.348a6.019,6.019,0,0,1-1.407.4,20.879,20.879,0,0,1-7.04.272,6.053,6.053,0,0,1-1.434-.3,10.836,10.836,0,0,1,1.455.1,28.126,28.126,0,0,0,6.984-.269A10.97,10.97,0,0,1,541.188,248.348Z" transform="translate(-531.307 -248.339)" fill="#263238"/></g><g transform="translate(16.267 21.251)"><path d="M481.275,216.549a29.691,29.691,0,0,1,.081-5.682,29.7,29.7,0,0,1-.081,5.682Z" transform="translate(-481.174 -210.867)" fill="#263238"/></g><g transform="translate(46.184 5.356)" opacity="0.3"><path d="M552.569,181.717l-14.018-1.25a2.339,2.339,0,0,0,1.484,3.055,4.538,4.538,0,0,0,3.6,6.767,4.2,4.2,0,0,1,1.117.139c.777.28,1.149,1.133,1.615,1.814a4.242,4.242,0,0,0,2.613,1.813,3.1,3.1,0,0,0,2.949-.978,5.138,5.138,0,0,0,.855-3.07A54.72,54.72,0,0,0,552.569,181.717Z" transform="translate(-538.39 -180.467)"/></g><g transform="translate(29.244 15.833)" opacity="0.3"><path d="M505.992,210.631a9.9,9.9,0,0,0,7.925-10.125C510.983,203.687,508.508,207.764,505.992,210.631Z" transform="translate(-505.992 -200.506)"/></g></g><g transform="translate(43.478 3.847)"><g transform="translate(9.98 16.374)"><path d="M555.549,154.185l-11.962-13.312c.438,3.379-.836,6.74-2.365,9.783-.87,1.733-1.841,3.793-.927,5.5a11.349,11.349,0,0,0-1.975,2.7,3.834,3.834,0,0,0-.129,3.245,2.347,2.347,0,0,0,2.785,1.263,3.649,3.649,0,0,0,5.033,4.527,5.782,5.782,0,0,0,2.236,3.485,3.838,3.838,0,0,0,4.007.262,2.894,2.894,0,0,0,1.181-3.655c2.632-.581,4.276-3.419,4.354-6.113S556.733,156.607,555.549,154.185Z" transform="translate(-537.886 -140.873)" fill="#263238"/></g><path d="M521.7,117.291c0,.009-.064.036-.2.079a1.66,1.66,0,0,1-.61.042,2.42,2.42,0,0,1-1.81-1.245,2.337,2.337,0,0,1-.25-1.544,3.135,3.135,0,0,1,.821-1.6,3.409,3.409,0,0,1,1.717-.986,4.618,4.618,0,0,1,2.121.021,5.928,5.928,0,0,1,1.165.414l-.184.071a4.9,4.9,0,0,1,2.505-2.582,4.721,4.721,0,0,1,4.664.483,3.17,3.17,0,0,1,.4.337c.084.085.125.132.119.139s-.2-.153-.575-.394a4.932,4.932,0,0,0-1.755-.687,4.518,4.518,0,0,0-2.753.342,4.708,4.708,0,0,0-2.355,2.464l-.054.133-.13-.062a5.733,5.733,0,0,0-1.11-.393,4.393,4.393,0,0,0-2-.027,3.177,3.177,0,0,0-1.6.9,2.932,2.932,0,0,0-.781,1.462,2.154,2.154,0,0,0,.2,1.413,2.35,2.35,0,0,0,1.655,1.232A2.788,2.788,0,0,0,521.7,117.291Z" transform="translate(-518.8 -109.558)" fill="#455a64"/><g transform="translate(16.519 2.418)"><path d="M562.137,127.871c-.021-.01.1-.247.228-.706a4.731,4.731,0,0,0,.106-2,4.311,4.311,0,0,0-1.4-2.58,4.536,4.536,0,0,0-3.425-1.115l-.2.021.056-.195a5.359,5.359,0,0,0,.206-1.229,5.577,5.577,0,0,0-1.3-3.856,5.355,5.355,0,0,0-2.877-1.721,5.756,5.756,0,0,0-2.3-.071c-.541.1-.829.21-.838.185a.688.688,0,0,1,.2-.1,3.946,3.946,0,0,1,.614-.191,5.609,5.609,0,0,1,5.388,1.733,5.768,5.768,0,0,1,1.381,4.033,5.615,5.615,0,0,1-.219,1.293l-.144-.174a4.741,4.741,0,0,1,3.615,1.2,4.443,4.443,0,0,1,1.42,2.733,4.536,4.536,0,0,1-.191,2.053,3.13,3.13,0,0,1-.219.513C562.18,127.818,562.145,127.874,562.137,127.871Z" transform="translate(-550.393 -114.183)" fill="#455a64"/></g><g transform="translate(8.37 2.158)"><path d="M536.029,118.812c-.006.012-.138-.037-.334-.192a2.335,2.335,0,0,1-.639-.839,2.74,2.74,0,0,1-.216-1.555,2.92,2.92,0,0,1,.938-1.677,3.323,3.323,0,0,1,1.733-.825,3.767,3.767,0,0,1,1.559.1,3.822,3.822,0,0,1,.96.417c.209.131.309.225.3.238a9.98,9.98,0,0,0-1.307-.469,3.829,3.829,0,0,0-1.472-.041,3.189,3.189,0,0,0-1.59.779,2.756,2.756,0,0,0-.874,1.518,2.673,2.673,0,0,0,.145,1.437A3.363,3.363,0,0,0,536.029,118.812Z" transform="translate(-534.807 -113.685)" fill="#455a64"/></g><g transform="translate(14.848 24.353)"><path d="M549.189,170.689c-.006.007-.063-.028-.167-.1a3.46,3.46,0,0,1-.425-.365,4.908,4.908,0,0,1-1.2-4.788,5.032,5.032,0,0,1,2.35-2.882,4.765,4.765,0,0,1,1.469-.536l-.075.223a3.8,3.8,0,0,1-.914-3.043,3.548,3.548,0,0,1,1.249-2.229,3.611,3.611,0,0,1,1.521-.765,2.45,2.45,0,0,1,.454-.065c.1,0,.159,0,.16.006s-.215.04-.59.152a3.79,3.79,0,0,0-1.43.806,3.416,3.416,0,0,0-1.13,2.126,3.6,3.6,0,0,0,.877,2.83l.162.178-.237.045a4.558,4.558,0,0,0-1.384.509,4.849,4.849,0,0,0-2.244,2.718,4.732,4.732,0,0,0,.05,2.908,5.119,5.119,0,0,0,.993,1.733C548.992,170.505,549.206,170.668,549.189,170.689Z" transform="translate(-547.196 -156.134)" fill="#455a64"/></g><g transform="translate(11.599 7.93)"><path d="M546.028,126.412l-.373-1.688a12.331,12.331,0,0,0-1.2,7.922c.231,1.243.645,2.578.107,3.723-.368.782-1.122,1.317-1.554,2.065-.546.947-.143,3.441-.283,3.932-.32,1.118-1.4,1.833-1.659,3.185s.07,2.985,1.284,3.631c2.286-3.77,4.625-7.689,5.163-12.065A25.353,25.353,0,0,0,546.028,126.412Z" transform="translate(-540.983 -124.724)" fill="#263238"/></g><g transform="translate(18.695 8.638)"><path d="M559.434,136.095a.517.517,0,0,1-.2.011,4.2,4.2,0,0,1-.555-.058,3.816,3.816,0,0,1-1.872-.842,2.9,2.9,0,0,1-.818-1.19,2.215,2.215,0,0,1,.028-1.662,2.03,2.03,0,0,1,1.412-1.176,1.481,1.481,0,0,1,1.008.144.944.944,0,0,1,.488.95.767.767,0,0,1-.307.494,1.014,1.014,0,0,1-.527.166,1.96,1.96,0,0,1-.975-.233,4.727,4.727,0,0,1-2.561-3.947,4.608,4.608,0,0,1,.36-2.021,3.765,3.765,0,0,1,.258-.5c.07-.107.11-.16.119-.155s-.117.242-.278.69a4.849,4.849,0,0,0-.267,1.971,4.58,4.58,0,0,0,2.489,3.721,1.712,1.712,0,0,0,.84.2.557.557,0,0,0,.579-.434.672.672,0,0,0-.355-.671,1.222,1.222,0,0,0-.822-.117,1.788,1.788,0,0,0-1.234,1.018,2,2,0,0,0-.043,1.484,2.742,2.742,0,0,0,.734,1.121,3.932,3.932,0,0,0,1.765.882C559.17,136.052,559.436,136.072,559.434,136.095Z" transform="translate(-554.555 -126.078)" fill="#455a64"/></g></g></g></g></g><g transform="translate(11.903 0.001)"><g transform="translate(0 0)"><g transform="translate(11.813)"><path d="M445.038,195.941H408.359V133.529h27.269l9.409,9.409Z" transform="translate(-408.359 -133.529)" fill="#d8dbf7"/><g transform="translate(5.243 8.086)"><rect width="26.234" height="1.795" fill="#555866"/><rect width="26.234" height="1.795" transform="translate(0 4.462)" fill="#555866"/><rect width="26.234" height="1.795" transform="translate(0 8.924)" fill="#555866"/><rect width="26.234" height="1.795" transform="translate(0 13.385)" fill="#555866"/><rect width="26.234" height="1.795" transform="translate(0 17.847)" fill="#555866"/><rect width="15.442" height="1.795" transform="translate(0 22.309)" fill="#42444f"/></g><g transform="translate(5.243 39.372)"><rect width="26.234" height="1.795" fill="#555866"/><rect width="26.234" height="1.795" transform="translate(0 4.462)" fill="#555866"/><rect width="26.234" height="1.796" transform="translate(0 8.924)" fill="#555866"/><rect width="15.442" height="1.795" transform="translate(0 13.385)" fill="#42444f"/></g><path d="M452.015,142.938h-9.409v-9.409h0l9.409,9.409Z" transform="translate(-415.337 -133.529)" fill="#27282b"/></g><g transform="translate(0 10.803)"><path d="M430.2,209.508H393.523V147.1h27.269l9.409,9.409Z" transform="translate(-393.523 -147.096)" fill="#e6eaf0"/><g transform="translate(5.243 8.087)"><rect width="26.234" height="1.795" fill="#42444f"/><rect width="26.234" height="1.795" transform="translate(0 4.462)" fill="#42444f"/><rect width="26.234" height="1.795" transform="translate(0 8.924)" fill="#42444f"/><rect width="26.234" height="1.795" transform="translate(0 13.385)" fill="#42444f"/><rect width="26.234" height="1.795" transform="translate(0 17.847)" fill="#42444f"/><rect width="15.442" height="1.795" transform="translate(0 22.309)" fill="#42444f"/></g><g transform="translate(5.243 39.372)"><rect width="26.234" height="1.795" fill="#42444f"/><rect width="26.234" height="1.796" transform="translate(0 4.462)" fill="#42444f"/><rect width="26.234" height="1.795" transform="translate(0 8.924)" fill="#42444f"/><rect width="15.442" height="1.795" transform="translate(0 13.385)" fill="#42444f"/></g><path d="M437.179,156.505H427.77V147.1h0l9.409,9.409Z" transform="translate(-400.501 -147.096)" fill="#c5cbd6"/></g></g></g><g transform="translate(7.957 239.903)"><g transform="translate(0)"><path d="M2040.836-67.838h-47.775a1.08,1.08,0,0,0-1.042,1.366l8.892,32.411a3.652,3.652,0,0,0,3.522,2.686h47.229l-9.784-35.668A1.081,1.081,0,0,0,2040.836-67.838Z" transform="translate(-1991.98 67.838)" fill="#12263f"/><rect width="60.018" height="1.936" transform="translate(18.702 34.526)" fill="#12263f"/><path d="M2021.412-48.217c0-1.515-1.734-2.743-3.873-2.743s-3.871,1.228-3.871,2.743,1.733,2.743,3.871,2.743S2021.412-46.7,2021.412-48.217Z" transform="translate(-1993.352 66.77)" fill="#dfe8f4"/></g></g><g transform="translate(65.781 34.944)"><g transform="translate(1.22 5.156)"><g transform="translate(1.401 0.109)"><path d="M618.413,238.7a19.686,19.686,0,1,1-20-19.457A19.758,19.758,0,0,1,618.413,238.7Zm-29.095.47a9.413,9.413,0,1,0,9.26-9.607A9.443,9.443,0,0,0,589.318,239.17Z" transform="translate(-579.043 -219.241)" fill="#f5f5f5"/></g><g transform="translate(20.771 0.109)"><path d="M636.088,238.7a19.758,19.758,0,0,1-19.367,20.092l-.165-10.319a9.456,9.456,0,0,0-.3-18.91l-.165-10.319A19.751,19.751,0,0,1,636.088,238.7Z" transform="translate(-616.088 -219.241)" fill="#455a64"/></g><g transform="translate(1.268)"><g transform="translate(0.133 0.109)"><path d="M618.413,238.7a19.686,19.686,0,1,1-20-19.457A19.758,19.758,0,0,1,618.413,238.7Zm-29.095.47a9.413,9.413,0,1,0,9.26-9.607A9.443,9.443,0,0,0,589.318,239.17Z" transform="translate(-579.043 -219.241)" fill="none"/></g><g transform="translate(10.399 10.322)"><path d="M598.686,248.49a.631.631,0,0,1-.009-.153c0-.117,0-.265,0-.45a4.322,4.322,0,0,1,.049-.73,6.672,6.672,0,0,1,.163-.987,8.972,8.972,0,0,1,.979-2.557,9.437,9.437,0,0,1,11.336-4.322,8.938,8.938,0,0,1,2.438,1.265,10.621,10.621,0,0,1,1.1.907,10.812,10.812,0,0,1,.953,1.094,9.541,9.541,0,0,1,.182,11.312,8.811,8.811,0,0,1-1.985,2.067,8.936,8.936,0,0,1-2.4,1.343,9.463,9.463,0,0,1-11.47-3.953,8.956,8.956,0,0,1-1.06-2.524,6.713,6.713,0,0,1-.2-.981,4.325,4.325,0,0,1-.072-.728c-.007-.185-.012-.333-.016-.45a.626.626,0,0,1,0-.153,14.773,14.773,0,0,0,.382,2.284,9.064,9.064,0,0,0,1.088,2.472,9.385,9.385,0,0,0,2.419,2.612,9.226,9.226,0,0,0,8.831,1.186,8.726,8.726,0,0,0,2.328-1.315,10.314,10.314,0,0,0,1.036-.919,10.534,10.534,0,0,0,.891-1.1,9.3,9.3,0,0,0-.177-11,8.548,8.548,0,0,0-1.99-1.951,8.71,8.71,0,0,0-2.369-1.238A9.226,9.226,0,0,0,602.337,241,9.378,9.378,0,0,0,600,243.689a9.065,9.065,0,0,0-1.008,2.506A14.76,14.76,0,0,0,598.686,248.49Z" transform="translate(-598.677 -238.774)" fill="#263238"/></g><path d="M618.291,238.6s-.016-.108-.035-.318l-.076-.935c-.016-.206-.033-.436-.052-.689s-.089-.524-.138-.821a14.366,14.366,0,0,0-.442-2.029,18.934,18.934,0,0,0-2.261-5.2,19.657,19.657,0,0,0-5.068-5.5,19.449,19.449,0,0,0-8.3-3.555,18.156,18.156,0,0,0-2.484-.249c-.423-.008-.85-.043-1.279-.029l-1.3.088c-.217.019-.438.02-.654.054l-.652.112c-.435.081-.878.138-1.314.238a21.391,21.391,0,0,0-5.133,1.988c-.407.236-.8.5-1.206.753a10.307,10.307,0,0,0-1.166.839,21.9,21.9,0,0,0-2.184,1.934l-.976,1.115-.245.28-.219.3-.437.609-.44.611-.382.653-.383.656-.192.329-.16.346-.642,1.393-.506,1.46a19.495,19.495,0,0,0,.2,12.365l.553,1.444.685,1.372.171.341.2.323.4.643.4.64.46.6.457.594.227.3.255.272L584.992,253a21.778,21.778,0,0,0,2.246,1.863,10.226,10.226,0,0,0,1.193.8c.413.238.814.492,1.229.715a21.319,21.319,0,0,0,5.195,1.821c.44.087.885.13,1.322.2l.655.091c.218.026.438.02.656.032l1.3.047c.429,0,.855-.049,1.277-.071a18.134,18.134,0,0,0,2.474-.329,19.454,19.454,0,0,0,8.184-3.823,19.661,19.661,0,0,0,4.888-5.665,18.94,18.94,0,0,0,2.093-5.268,14.493,14.493,0,0,0,.377-2.041c.039-.3.089-.573.111-.826s.021-.483.03-.69c.02-.405.035-.716.045-.937s.025-.32.025-.32.006.108,0,.32-.011.533-.019.939c-.005.208-.011.439-.017.693s-.064.53-.1.83a14.079,14.079,0,0,1-.354,2.055,18.837,18.837,0,0,1-2.063,5.32,19.835,19.835,0,0,1-13.159,9.633,18.371,18.371,0,0,1-2.5.34c-.427.024-.858.073-1.292.074l-1.314-.044c-.221-.012-.443-.005-.664-.031l-.664-.09c-.443-.066-.894-.109-1.339-.2a21.567,21.567,0,0,1-5.266-1.835c-.42-.225-.828-.481-1.246-.722a10.422,10.422,0,0,1-1.209-.81,21.957,21.957,0,0,1-2.278-1.885l-1.026-1.1-.258-.276-.231-.3-.464-.6-.466-.6-.408-.648-.41-.652-.205-.327-.174-.346-.7-1.391q-.28-.729-.561-1.463a19.732,19.732,0,0,1-.2-12.535l.514-1.48.651-1.412.163-.351.195-.333.388-.665.387-.661.446-.619.444-.616.222-.307.249-.284.99-1.129a21.936,21.936,0,0,1,2.215-1.957,10.359,10.359,0,0,1,1.182-.848c.41-.255.809-.523,1.222-.762a20.845,20.845,0,0,1,2.569-1.183,20.626,20.626,0,0,1,2.634-.821c.442-.1.891-.158,1.331-.239l.66-.111c.22-.034.442-.035.662-.054l1.312-.086c.434-.013.866.023,1.294.032a18.312,18.312,0,0,1,2.512.259,19.827,19.827,0,0,1,13.462,9.2,18.8,18.8,0,0,1,2.233,5.252,14.054,14.054,0,0,1,.42,2.043c.045.3.1.573.126.827s.028.484.04.692c.021.406.037.717.049.939S618.291,238.6,618.291,238.6Z" transform="translate(-578.788 -219.033)" fill="#263238"/></g><g transform="translate(0 18.514)"><g transform="translate(0.14 0.134)"><path d="M599.662,277.3a22.493,22.493,0,0,1-23.031-22.406l12.017-.193c.1,6.1,4.739,9.939,10.81,9.841Z" transform="translate(-576.631 -254.697)" fill="#fffae7"/></g><path d="M599.534,277.174a2.207,2.207,0,0,1-.015-.237l-.022-.673c-.016-.6-.038-1.461-.066-2.559-.049-2.217-.118-5.391-.2-9.288l.1.1a13.424,13.424,0,0,1-3.616-.442,10.347,10.347,0,0,1-3.583-1.745,9.316,9.316,0,0,1-2.717-3.315,10.473,10.473,0,0,1-1.027-4.438l.134.13-9.306.154-2.711.043.133-.138a25.214,25.214,0,0,0,1.224,7.107l.609,1.622c.226.524.495,1.024.736,1.528a11.787,11.787,0,0,0,.819,1.442,13.365,13.365,0,0,0,.89,1.352l.957,1.256c.336.4.7.76,1.036,1.133l.511.55.553.49,1.081.954a23.11,23.11,0,0,0,4.458,2.75l1.064.493c.355.138.709.25,1.048.372l.991.346c.324.1.648.163.955.243l.894.216.422.1c.139.026.277.04.411.061l1.472.208a9.236,9.236,0,0,0,1.171.094l.863.044.538.03a1.777,1.777,0,0,1,.191.016,1.16,1.16,0,0,1-.172,0l-.529,0-.875-.014a8.5,8.5,0,0,1-1.2-.069l-1.482-.186c-.135-.018-.275-.031-.415-.055l-.425-.1-.9-.207c-.31-.077-.638-.134-.964-.235l-1-.338c-.343-.119-.7-.23-1.059-.366l-1.077-.488a23.107,23.107,0,0,1-4.516-2.747l-1.1-.958-.561-.493-.52-.553c-.344-.375-.711-.742-1.051-1.14l-.973-1.266a13.56,13.56,0,0,1-.9-1.365,11.986,11.986,0,0,1-.832-1.455c-.245-.51-.518-1.015-.748-1.545l-.619-1.639a25.347,25.347,0,0,1-1.247-7.187l0-.136.138,0,2.711-.044,9.306-.146.132,0,0,.132a10.239,10.239,0,0,0,.991,4.331,9.09,9.09,0,0,0,2.635,3.236,10.145,10.145,0,0,0,3.5,1.721,13.267,13.267,0,0,0,3.553.455h.1v.1c.04,3.924.073,7.119.1,9.352.006,1.088.012,1.94.015,2.536,0,.277,0,.494,0,.655A1.611,1.611,0,0,1,599.534,277.174Z" transform="translate(-576.363 -254.44)" fill="#fffae7"/></g></g><g transform="translate(0 0)"><ellipse cx="23.859" cy="24.115" rx="23.859" ry="24.115" transform="translate(0 0)" fill="#12263f"/><path d="M31.8,1141.578v-3.019h4.549v-3.024h2.429v3.009h2.3v-3.007h2.444v.2c0,.926,0,1.852,0,2.778,0,.129.034.176.168.2a6.955,6.955,0,0,1,3.413,1.479,5.169,5.169,0,0,1,1.825,3.465,5.952,5.952,0,0,1-.4,3.092,4.908,4.908,0,0,1-1.193,1.668l-.173.162c.2.142.4.27.587.414a5.449,5.449,0,0,1,2.133,3.985,7.308,7.308,0,0,1-.472,3.47,5.509,5.509,0,0,1-3.415,3.17,9.421,9.421,0,0,1-2.3.51c-.133.013-.175.051-.174.187.006.9,0,1.807,0,2.712v.21H41.081v-3.013h-2.3v3.015H36.345v-3.026H31.8c0-.069-.011-.117-.011-.165,0-.893,0-1.785,0-2.678,0-.134.032-.181.173-.179.529.008,1.058,0,1.587,0a.759.759,0,0,0,.822-.826q0-6.985,0-13.97a.75.75,0,0,0-.812-.814Zm7,14.668h.19c1.185,0,2.37,0,3.554-.018a5.347,5.347,0,0,0,1.609-.252,2.083,2.083,0,0,0,1.58-1.743,5.9,5.9,0,0,0,.014-1.2,1.919,1.919,0,0,0-1.462-1.829,7.143,7.143,0,0,0-2.021-.281c-1.129-.021-2.259-.012-3.389-.015a.5.5,0,0,0-.077.012Zm0-9.316a.721.721,0,0,0,.089.012c1.151-.006,2.3,0,3.453-.023a4.632,4.632,0,0,0,1.583-.286,1.442,1.442,0,0,0,.912-.914,3.025,3.025,0,0,0,.127-1.386,2.828,2.828,0,0,0-.227-.836,1.577,1.577,0,0,0-1.221-.812,10.129,10.129,0,0,0-1.586-.185c-1.034-.03-2.07-.014-3.1-.016,0,0-.01,0-.027.011Z" transform="translate(-16.381 -1125.877)" fill="#fff"/></g></g></g></svg>